G04 #@! TF.GenerationSoftware,KiCad,Pcbnew,(5.1.2)-2*
G04 #@! TF.CreationDate,2019-11-28T10:38:42+11:00*
G04 #@! TF.ProjectId,AM Demodulator,414d2044-656d-46f6-9475-6c61746f722e,rev 0.1*
G04 #@! TF.SameCoordinates,Original*
G04 #@! TF.FileFunction,Legend,Top*
G04 #@! TF.FilePolarity,Positive*
%FSLAX46Y46*%
G04 Gerber Fmt 4.6, Leading zero omitted, Abs format (unit mm)*
G04 Created by KiCad (PCBNEW (5.1.2)-2) date 2019-11-28 10:38:42*
%MOMM*%
%LPD*%
G04 APERTURE LIST*
%ADD10C,0.120000*%
%ADD11C,0.150000*%
G04 APERTURE END LIST*
D10*
X144662000Y-116948000D02*
X145962000Y-116948000D01*
X145312000Y-117548000D02*
X145312000Y-116348000D01*
X144958000Y-111537000D02*
X145666000Y-111537000D01*
X144753000Y-111577000D02*
X145871000Y-111577000D01*
X144605000Y-111617000D02*
X146019000Y-111617000D01*
X144483000Y-111657000D02*
X146141000Y-111657000D01*
X144378000Y-111697000D02*
X146246000Y-111697000D01*
X144284000Y-111737000D02*
X146340000Y-111737000D01*
X144200000Y-111777000D02*
X146424000Y-111777000D01*
X144123000Y-111817000D02*
X146501000Y-111817000D01*
X144051000Y-111857000D02*
X146573000Y-111857000D01*
X146292000Y-111897000D02*
X146639000Y-111897000D01*
X143985000Y-111897000D02*
X144332000Y-111897000D01*
X146292000Y-111937000D02*
X146702000Y-111937000D01*
X143922000Y-111937000D02*
X144332000Y-111937000D01*
X146292000Y-111977000D02*
X146760000Y-111977000D01*
X143864000Y-111977000D02*
X144332000Y-111977000D01*
X146292000Y-112017000D02*
X146816000Y-112017000D01*
X143808000Y-112017000D02*
X144332000Y-112017000D01*
X146292000Y-112057000D02*
X146868000Y-112057000D01*
X143756000Y-112057000D02*
X144332000Y-112057000D01*
X146292000Y-112097000D02*
X146918000Y-112097000D01*
X143706000Y-112097000D02*
X144332000Y-112097000D01*
X146292000Y-112137000D02*
X146966000Y-112137000D01*
X143658000Y-112137000D02*
X144332000Y-112137000D01*
X146292000Y-112177000D02*
X147011000Y-112177000D01*
X143613000Y-112177000D02*
X144332000Y-112177000D01*
X146292000Y-112217000D02*
X147054000Y-112217000D01*
X143570000Y-112217000D02*
X144332000Y-112217000D01*
X146292000Y-112257000D02*
X147095000Y-112257000D01*
X143529000Y-112257000D02*
X144332000Y-112257000D01*
X146292000Y-112297000D02*
X147135000Y-112297000D01*
X143489000Y-112297000D02*
X144332000Y-112297000D01*
X146292000Y-112337000D02*
X147173000Y-112337000D01*
X143451000Y-112337000D02*
X144332000Y-112337000D01*
X146292000Y-112377000D02*
X147209000Y-112377000D01*
X143415000Y-112377000D02*
X144332000Y-112377000D01*
X146292000Y-112417000D02*
X147244000Y-112417000D01*
X143380000Y-112417000D02*
X144332000Y-112417000D01*
X146292000Y-112457000D02*
X147277000Y-112457000D01*
X143347000Y-112457000D02*
X144332000Y-112457000D01*
X146292000Y-112497000D02*
X147309000Y-112497000D01*
X143315000Y-112497000D02*
X144332000Y-112497000D01*
X146292000Y-112537000D02*
X147340000Y-112537000D01*
X143284000Y-112537000D02*
X144332000Y-112537000D01*
X146292000Y-112577000D02*
X147370000Y-112577000D01*
X143254000Y-112577000D02*
X144332000Y-112577000D01*
X146292000Y-112617000D02*
X147398000Y-112617000D01*
X143226000Y-112617000D02*
X144332000Y-112617000D01*
X146292000Y-112657000D02*
X147425000Y-112657000D01*
X143199000Y-112657000D02*
X144332000Y-112657000D01*
X146292000Y-112697000D02*
X147452000Y-112697000D01*
X143172000Y-112697000D02*
X144332000Y-112697000D01*
X146292000Y-112737000D02*
X147477000Y-112737000D01*
X143147000Y-112737000D02*
X144332000Y-112737000D01*
X146292000Y-112777000D02*
X147501000Y-112777000D01*
X143123000Y-112777000D02*
X144332000Y-112777000D01*
X146292000Y-112817000D02*
X147524000Y-112817000D01*
X143100000Y-112817000D02*
X144332000Y-112817000D01*
X146292000Y-112857000D02*
X147546000Y-112857000D01*
X143078000Y-112857000D02*
X144332000Y-112857000D01*
X146292000Y-112897000D02*
X147568000Y-112897000D01*
X143056000Y-112897000D02*
X144332000Y-112897000D01*
X146292000Y-112937000D02*
X147588000Y-112937000D01*
X143036000Y-112937000D02*
X144332000Y-112937000D01*
X146292000Y-112977000D02*
X147608000Y-112977000D01*
X143016000Y-112977000D02*
X144332000Y-112977000D01*
X146292000Y-113017000D02*
X147627000Y-113017000D01*
X142997000Y-113017000D02*
X144332000Y-113017000D01*
X146292000Y-113057000D02*
X147645000Y-113057000D01*
X142979000Y-113057000D02*
X144332000Y-113057000D01*
X146292000Y-113097000D02*
X147662000Y-113097000D01*
X142962000Y-113097000D02*
X144332000Y-113097000D01*
X146292000Y-113137000D02*
X147678000Y-113137000D01*
X142946000Y-113137000D02*
X144332000Y-113137000D01*
X146292000Y-113177000D02*
X147694000Y-113177000D01*
X142930000Y-113177000D02*
X144332000Y-113177000D01*
X146292000Y-113217000D02*
X147708000Y-113217000D01*
X142916000Y-113217000D02*
X144332000Y-113217000D01*
X146292000Y-113257000D02*
X147722000Y-113257000D01*
X142902000Y-113257000D02*
X144332000Y-113257000D01*
X146292000Y-113297000D02*
X147736000Y-113297000D01*
X142888000Y-113297000D02*
X144332000Y-113297000D01*
X146292000Y-113337000D02*
X147748000Y-113337000D01*
X142876000Y-113337000D02*
X144332000Y-113337000D01*
X146292000Y-113377000D02*
X147760000Y-113377000D01*
X142864000Y-113377000D02*
X144332000Y-113377000D01*
X146292000Y-113418000D02*
X147772000Y-113418000D01*
X142852000Y-113418000D02*
X144332000Y-113418000D01*
X146292000Y-113458000D02*
X147782000Y-113458000D01*
X142842000Y-113458000D02*
X144332000Y-113458000D01*
X146292000Y-113498000D02*
X147792000Y-113498000D01*
X142832000Y-113498000D02*
X144332000Y-113498000D01*
X146292000Y-113538000D02*
X147801000Y-113538000D01*
X142823000Y-113538000D02*
X144332000Y-113538000D01*
X146292000Y-113578000D02*
X147810000Y-113578000D01*
X142814000Y-113578000D02*
X144332000Y-113578000D01*
X146292000Y-113618000D02*
X147818000Y-113618000D01*
X142806000Y-113618000D02*
X144332000Y-113618000D01*
X146292000Y-113658000D02*
X147825000Y-113658000D01*
X142799000Y-113658000D02*
X144332000Y-113658000D01*
X146292000Y-113698000D02*
X147831000Y-113698000D01*
X142793000Y-113698000D02*
X144332000Y-113698000D01*
X146292000Y-113738000D02*
X147837000Y-113738000D01*
X142787000Y-113738000D02*
X144332000Y-113738000D01*
X146292000Y-113778000D02*
X147843000Y-113778000D01*
X142781000Y-113778000D02*
X144332000Y-113778000D01*
X146292000Y-113818000D02*
X147847000Y-113818000D01*
X142777000Y-113818000D02*
X144332000Y-113818000D01*
X142773000Y-113858000D02*
X147851000Y-113858000D01*
X142769000Y-113898000D02*
X147855000Y-113898000D01*
X142766000Y-113938000D02*
X147858000Y-113938000D01*
X142764000Y-113978000D02*
X147860000Y-113978000D01*
X142763000Y-114018000D02*
X147861000Y-114018000D01*
X142762000Y-114058000D02*
X147862000Y-114058000D01*
X142762000Y-114098000D02*
X147862000Y-114098000D01*
X146491723Y-111792278D02*
G75*
G03X144132000Y-111792420I-1179723J-2305722D01*
G01*
X146491723Y-111792278D02*
G75*
G02X146492000Y-116403580I-1179723J-2305722D01*
G01*
X144132277Y-111792278D02*
G75*
G03X144132000Y-116403580I1179723J-2305722D01*
G01*
X131432277Y-94480278D02*
G75*
G03X131432000Y-99091580I1179723J-2305722D01*
G01*
X133791723Y-94480278D02*
G75*
G02X133792000Y-99091580I-1179723J-2305722D01*
G01*
X133791723Y-94480278D02*
G75*
G03X131432000Y-94480420I-1179723J-2305722D01*
G01*
X130062000Y-96786000D02*
X135162000Y-96786000D01*
X130062000Y-96746000D02*
X135162000Y-96746000D01*
X130063000Y-96706000D02*
X135161000Y-96706000D01*
X130064000Y-96666000D02*
X135160000Y-96666000D01*
X130066000Y-96626000D02*
X135158000Y-96626000D01*
X130069000Y-96586000D02*
X135155000Y-96586000D01*
X130073000Y-96546000D02*
X135151000Y-96546000D01*
X130077000Y-96506000D02*
X131632000Y-96506000D01*
X133592000Y-96506000D02*
X135147000Y-96506000D01*
X130081000Y-96466000D02*
X131632000Y-96466000D01*
X133592000Y-96466000D02*
X135143000Y-96466000D01*
X130087000Y-96426000D02*
X131632000Y-96426000D01*
X133592000Y-96426000D02*
X135137000Y-96426000D01*
X130093000Y-96386000D02*
X131632000Y-96386000D01*
X133592000Y-96386000D02*
X135131000Y-96386000D01*
X130099000Y-96346000D02*
X131632000Y-96346000D01*
X133592000Y-96346000D02*
X135125000Y-96346000D01*
X130106000Y-96306000D02*
X131632000Y-96306000D01*
X133592000Y-96306000D02*
X135118000Y-96306000D01*
X130114000Y-96266000D02*
X131632000Y-96266000D01*
X133592000Y-96266000D02*
X135110000Y-96266000D01*
X130123000Y-96226000D02*
X131632000Y-96226000D01*
X133592000Y-96226000D02*
X135101000Y-96226000D01*
X130132000Y-96186000D02*
X131632000Y-96186000D01*
X133592000Y-96186000D02*
X135092000Y-96186000D01*
X130142000Y-96146000D02*
X131632000Y-96146000D01*
X133592000Y-96146000D02*
X135082000Y-96146000D01*
X130152000Y-96106000D02*
X131632000Y-96106000D01*
X133592000Y-96106000D02*
X135072000Y-96106000D01*
X130164000Y-96065000D02*
X131632000Y-96065000D01*
X133592000Y-96065000D02*
X135060000Y-96065000D01*
X130176000Y-96025000D02*
X131632000Y-96025000D01*
X133592000Y-96025000D02*
X135048000Y-96025000D01*
X130188000Y-95985000D02*
X131632000Y-95985000D01*
X133592000Y-95985000D02*
X135036000Y-95985000D01*
X130202000Y-95945000D02*
X131632000Y-95945000D01*
X133592000Y-95945000D02*
X135022000Y-95945000D01*
X130216000Y-95905000D02*
X131632000Y-95905000D01*
X133592000Y-95905000D02*
X135008000Y-95905000D01*
X130230000Y-95865000D02*
X131632000Y-95865000D01*
X133592000Y-95865000D02*
X134994000Y-95865000D01*
X130246000Y-95825000D02*
X131632000Y-95825000D01*
X133592000Y-95825000D02*
X134978000Y-95825000D01*
X130262000Y-95785000D02*
X131632000Y-95785000D01*
X133592000Y-95785000D02*
X134962000Y-95785000D01*
X130279000Y-95745000D02*
X131632000Y-95745000D01*
X133592000Y-95745000D02*
X134945000Y-95745000D01*
X130297000Y-95705000D02*
X131632000Y-95705000D01*
X133592000Y-95705000D02*
X134927000Y-95705000D01*
X130316000Y-95665000D02*
X131632000Y-95665000D01*
X133592000Y-95665000D02*
X134908000Y-95665000D01*
X130336000Y-95625000D02*
X131632000Y-95625000D01*
X133592000Y-95625000D02*
X134888000Y-95625000D01*
X130356000Y-95585000D02*
X131632000Y-95585000D01*
X133592000Y-95585000D02*
X134868000Y-95585000D01*
X130378000Y-95545000D02*
X131632000Y-95545000D01*
X133592000Y-95545000D02*
X134846000Y-95545000D01*
X130400000Y-95505000D02*
X131632000Y-95505000D01*
X133592000Y-95505000D02*
X134824000Y-95505000D01*
X130423000Y-95465000D02*
X131632000Y-95465000D01*
X133592000Y-95465000D02*
X134801000Y-95465000D01*
X130447000Y-95425000D02*
X131632000Y-95425000D01*
X133592000Y-95425000D02*
X134777000Y-95425000D01*
X130472000Y-95385000D02*
X131632000Y-95385000D01*
X133592000Y-95385000D02*
X134752000Y-95385000D01*
X130499000Y-95345000D02*
X131632000Y-95345000D01*
X133592000Y-95345000D02*
X134725000Y-95345000D01*
X130526000Y-95305000D02*
X131632000Y-95305000D01*
X133592000Y-95305000D02*
X134698000Y-95305000D01*
X130554000Y-95265000D02*
X131632000Y-95265000D01*
X133592000Y-95265000D02*
X134670000Y-95265000D01*
X130584000Y-95225000D02*
X131632000Y-95225000D01*
X133592000Y-95225000D02*
X134640000Y-95225000D01*
X130615000Y-95185000D02*
X131632000Y-95185000D01*
X133592000Y-95185000D02*
X134609000Y-95185000D01*
X130647000Y-95145000D02*
X131632000Y-95145000D01*
X133592000Y-95145000D02*
X134577000Y-95145000D01*
X130680000Y-95105000D02*
X131632000Y-95105000D01*
X133592000Y-95105000D02*
X134544000Y-95105000D01*
X130715000Y-95065000D02*
X131632000Y-95065000D01*
X133592000Y-95065000D02*
X134509000Y-95065000D01*
X130751000Y-95025000D02*
X131632000Y-95025000D01*
X133592000Y-95025000D02*
X134473000Y-95025000D01*
X130789000Y-94985000D02*
X131632000Y-94985000D01*
X133592000Y-94985000D02*
X134435000Y-94985000D01*
X130829000Y-94945000D02*
X131632000Y-94945000D01*
X133592000Y-94945000D02*
X134395000Y-94945000D01*
X130870000Y-94905000D02*
X131632000Y-94905000D01*
X133592000Y-94905000D02*
X134354000Y-94905000D01*
X130913000Y-94865000D02*
X131632000Y-94865000D01*
X133592000Y-94865000D02*
X134311000Y-94865000D01*
X130958000Y-94825000D02*
X131632000Y-94825000D01*
X133592000Y-94825000D02*
X134266000Y-94825000D01*
X131006000Y-94785000D02*
X131632000Y-94785000D01*
X133592000Y-94785000D02*
X134218000Y-94785000D01*
X131056000Y-94745000D02*
X131632000Y-94745000D01*
X133592000Y-94745000D02*
X134168000Y-94745000D01*
X131108000Y-94705000D02*
X131632000Y-94705000D01*
X133592000Y-94705000D02*
X134116000Y-94705000D01*
X131164000Y-94665000D02*
X131632000Y-94665000D01*
X133592000Y-94665000D02*
X134060000Y-94665000D01*
X131222000Y-94625000D02*
X131632000Y-94625000D01*
X133592000Y-94625000D02*
X134002000Y-94625000D01*
X131285000Y-94585000D02*
X131632000Y-94585000D01*
X133592000Y-94585000D02*
X133939000Y-94585000D01*
X131351000Y-94545000D02*
X133873000Y-94545000D01*
X131423000Y-94505000D02*
X133801000Y-94505000D01*
X131500000Y-94465000D02*
X133724000Y-94465000D01*
X131584000Y-94425000D02*
X133640000Y-94425000D01*
X131678000Y-94385000D02*
X133546000Y-94385000D01*
X131783000Y-94345000D02*
X133441000Y-94345000D01*
X131905000Y-94305000D02*
X133319000Y-94305000D01*
X132053000Y-94265000D02*
X133171000Y-94265000D01*
X132258000Y-94225000D02*
X132966000Y-94225000D01*
X132612000Y-100236000D02*
X132612000Y-99036000D01*
X131962000Y-99636000D02*
X133262000Y-99636000D01*
X150028000Y-101746000D02*
X150028000Y-104566000D01*
X154578000Y-103156000D02*
X154508000Y-103156000D01*
X149118000Y-103156000D02*
X149188000Y-103156000D01*
X154508000Y-101746000D02*
X149188000Y-101746000D01*
X154508000Y-104566000D02*
X154508000Y-101746000D01*
X149188000Y-104566000D02*
X154508000Y-104566000D01*
X149188000Y-101746000D02*
X149188000Y-104566000D01*
X138140000Y-109566000D02*
X138140000Y-108236000D01*
X139470000Y-109566000D02*
X138140000Y-109566000D01*
X140740000Y-109566000D02*
X140740000Y-106906000D01*
X140740000Y-106906000D02*
X140800000Y-106906000D01*
X140740000Y-109566000D02*
X140800000Y-109566000D01*
X140800000Y-109566000D02*
X140800000Y-106906000D01*
X151856000Y-117948000D02*
X151856000Y-116618000D01*
X153186000Y-117948000D02*
X151856000Y-117948000D01*
X154456000Y-117948000D02*
X154456000Y-115288000D01*
X154456000Y-115288000D02*
X157056000Y-115288000D01*
X154456000Y-117948000D02*
X157056000Y-117948000D01*
X157056000Y-117948000D02*
X157056000Y-115288000D01*
X133942000Y-109566000D02*
X133942000Y-106906000D01*
X133882000Y-109566000D02*
X133942000Y-109566000D01*
X133882000Y-106906000D02*
X133942000Y-106906000D01*
X133882000Y-109566000D02*
X133882000Y-106906000D01*
X132612000Y-109566000D02*
X131282000Y-109566000D01*
X131282000Y-109566000D02*
X131282000Y-108236000D01*
X138140000Y-116678000D02*
X140800000Y-116678000D01*
X138140000Y-114078000D02*
X138140000Y-116678000D01*
X140800000Y-114078000D02*
X140800000Y-116678000D01*
X138140000Y-114078000D02*
X140800000Y-114078000D01*
X138140000Y-112808000D02*
X138140000Y-111478000D01*
X138140000Y-111478000D02*
X139470000Y-111478000D01*
X162898000Y-92936000D02*
X162898000Y-94266000D01*
X161568000Y-92936000D02*
X162898000Y-92936000D01*
X160298000Y-92936000D02*
X160298000Y-95596000D01*
X160298000Y-95596000D02*
X157698000Y-95596000D01*
X160298000Y-92936000D02*
X157698000Y-92936000D01*
X157698000Y-92936000D02*
X157698000Y-95596000D01*
X149966000Y-109096000D02*
X149966000Y-107376000D01*
X149966000Y-107376000D02*
X146246000Y-107376000D01*
X146246000Y-107376000D02*
X146246000Y-109096000D01*
X146246000Y-109096000D02*
X149966000Y-109096000D01*
X151036000Y-108236000D02*
X149966000Y-108236000D01*
X145176000Y-108236000D02*
X146246000Y-108236000D01*
X175284000Y-109896000D02*
X175284000Y-108826000D01*
X175284000Y-104036000D02*
X175284000Y-105106000D01*
X176144000Y-108826000D02*
X176144000Y-105106000D01*
X174424000Y-108826000D02*
X176144000Y-108826000D01*
X174424000Y-105106000D02*
X174424000Y-108826000D01*
X176144000Y-105106000D02*
X174424000Y-105106000D01*
X168254000Y-116716000D02*
X168254000Y-114996000D01*
X168254000Y-114996000D02*
X164534000Y-114996000D01*
X164534000Y-114996000D02*
X164534000Y-116716000D01*
X164534000Y-116716000D02*
X168254000Y-116716000D01*
X169324000Y-115856000D02*
X168254000Y-115856000D01*
X163464000Y-115856000D02*
X164534000Y-115856000D01*
X157914000Y-103746000D02*
X159634000Y-103746000D01*
X159634000Y-103746000D02*
X159634000Y-100026000D01*
X159634000Y-100026000D02*
X157914000Y-100026000D01*
X157914000Y-100026000D02*
X157914000Y-103746000D01*
X158774000Y-104816000D02*
X158774000Y-103746000D01*
X158774000Y-98956000D02*
X158774000Y-100026000D01*
X157753011Y-108676000D02*
X156826364Y-109211000D01*
X152678102Y-111606000D02*
X153604750Y-111071000D01*
X156396364Y-108466218D02*
X153174750Y-110326218D01*
X157256364Y-109955782D02*
X156396364Y-108466218D01*
X154034750Y-111815782D02*
X157256364Y-109955782D01*
X153174750Y-110326218D02*
X154034750Y-111815782D01*
X169324000Y-98584000D02*
X168254000Y-98584000D01*
X163464000Y-98584000D02*
X164534000Y-98584000D01*
X168254000Y-97724000D02*
X164534000Y-97724000D01*
X168254000Y-99444000D02*
X168254000Y-97724000D01*
X164534000Y-99444000D02*
X168254000Y-99444000D01*
X164534000Y-97724000D02*
X164534000Y-99444000D01*
X143178000Y-101206000D02*
X144898000Y-101206000D01*
X144898000Y-101206000D02*
X144898000Y-97486000D01*
X144898000Y-97486000D02*
X143178000Y-97486000D01*
X143178000Y-97486000D02*
X143178000Y-101206000D01*
X144038000Y-102276000D02*
X144038000Y-101206000D01*
X144038000Y-96416000D02*
X144038000Y-97486000D01*
X139352000Y-103156000D02*
X138282000Y-103156000D01*
X133492000Y-103156000D02*
X134562000Y-103156000D01*
X138282000Y-102296000D02*
X134562000Y-102296000D01*
X138282000Y-104016000D02*
X138282000Y-102296000D01*
X134562000Y-104016000D02*
X138282000Y-104016000D01*
X134562000Y-102296000D02*
X134562000Y-104016000D01*
X168622000Y-101826000D02*
X167372000Y-101826000D01*
X168622000Y-112106000D02*
X168622000Y-101826000D01*
X164122000Y-112106000D02*
X168622000Y-112106000D01*
X164122000Y-101826000D02*
X164122000Y-112106000D01*
X165372000Y-101826000D02*
X164122000Y-101826000D01*
X167372000Y-101826000D02*
G75*
G02X165372000Y-101826000I-1000000J0D01*
G01*
D11*
X141859142Y-114264666D02*
X141906761Y-114312285D01*
X141954380Y-114455142D01*
X141954380Y-114550380D01*
X141906761Y-114693238D01*
X141811523Y-114788476D01*
X141716285Y-114836095D01*
X141525809Y-114883714D01*
X141382952Y-114883714D01*
X141192476Y-114836095D01*
X141097238Y-114788476D01*
X141002000Y-114693238D01*
X140954380Y-114550380D01*
X140954380Y-114455142D01*
X141002000Y-114312285D01*
X141049619Y-114264666D01*
X141954380Y-113312285D02*
X141954380Y-113883714D01*
X141954380Y-113598000D02*
X140954380Y-113598000D01*
X141097238Y-113693238D01*
X141192476Y-113788476D01*
X141240095Y-113883714D01*
X129159142Y-96952666D02*
X129206761Y-97000285D01*
X129254380Y-97143142D01*
X129254380Y-97238380D01*
X129206761Y-97381238D01*
X129111523Y-97476476D01*
X129016285Y-97524095D01*
X128825809Y-97571714D01*
X128682952Y-97571714D01*
X128492476Y-97524095D01*
X128397238Y-97476476D01*
X128302000Y-97381238D01*
X128254380Y-97238380D01*
X128254380Y-97143142D01*
X128302000Y-97000285D01*
X128349619Y-96952666D01*
X128349619Y-96571714D02*
X128302000Y-96524095D01*
X128254380Y-96428857D01*
X128254380Y-96190761D01*
X128302000Y-96095523D01*
X128349619Y-96047904D01*
X128444857Y-96000285D01*
X128540095Y-96000285D01*
X128682952Y-96047904D01*
X129254380Y-96619333D01*
X129254380Y-96000285D01*
X151109904Y-101198380D02*
X151109904Y-100198380D01*
X151348000Y-100198380D01*
X151490857Y-100246000D01*
X151586095Y-100341238D01*
X151633714Y-100436476D01*
X151681333Y-100626952D01*
X151681333Y-100769809D01*
X151633714Y-100960285D01*
X151586095Y-101055523D01*
X151490857Y-101150761D01*
X151348000Y-101198380D01*
X151109904Y-101198380D01*
X152633714Y-101198380D02*
X152062285Y-101198380D01*
X152348000Y-101198380D02*
X152348000Y-100198380D01*
X152252761Y-100341238D01*
X152157523Y-100436476D01*
X152062285Y-100484095D01*
X136592380Y-108569333D02*
X137306666Y-108569333D01*
X137449523Y-108616952D01*
X137544761Y-108712190D01*
X137592380Y-108855047D01*
X137592380Y-108950285D01*
X137592380Y-107569333D02*
X137592380Y-108140761D01*
X137592380Y-107855047D02*
X136592380Y-107855047D01*
X136735238Y-107950285D01*
X136830476Y-108045523D01*
X136878095Y-108140761D01*
X150308380Y-116951333D02*
X151022666Y-116951333D01*
X151165523Y-116998952D01*
X151260761Y-117094190D01*
X151308380Y-117237047D01*
X151308380Y-117332285D01*
X150403619Y-116522761D02*
X150356000Y-116475142D01*
X150308380Y-116379904D01*
X150308380Y-116141809D01*
X150356000Y-116046571D01*
X150403619Y-115998952D01*
X150498857Y-115951333D01*
X150594095Y-115951333D01*
X150736952Y-115998952D01*
X151308380Y-116570380D01*
X151308380Y-115951333D01*
X129734380Y-108569333D02*
X130448666Y-108569333D01*
X130591523Y-108616952D01*
X130686761Y-108712190D01*
X130734380Y-108855047D01*
X130734380Y-108950285D01*
X129734380Y-107664571D02*
X129734380Y-107855047D01*
X129782000Y-107950285D01*
X129829619Y-107997904D01*
X129972476Y-108093142D01*
X130162952Y-108140761D01*
X130543904Y-108140761D01*
X130639142Y-108093142D01*
X130686761Y-108045523D01*
X130734380Y-107950285D01*
X130734380Y-107759809D01*
X130686761Y-107664571D01*
X130639142Y-107616952D01*
X130543904Y-107569333D01*
X130305809Y-107569333D01*
X130210571Y-107616952D01*
X130162952Y-107664571D01*
X130115333Y-107759809D01*
X130115333Y-107950285D01*
X130162952Y-108045523D01*
X130210571Y-108093142D01*
X130305809Y-108140761D01*
X138827142Y-110930380D02*
X138350952Y-110930380D01*
X138350952Y-109930380D01*
X139112857Y-110882761D02*
X139255714Y-110930380D01*
X139493809Y-110930380D01*
X139589047Y-110882761D01*
X139636666Y-110835142D01*
X139684285Y-110739904D01*
X139684285Y-110644666D01*
X139636666Y-110549428D01*
X139589047Y-110501809D01*
X139493809Y-110454190D01*
X139303333Y-110406571D01*
X139208095Y-110358952D01*
X139160476Y-110311333D01*
X139112857Y-110216095D01*
X139112857Y-110120857D01*
X139160476Y-110025619D01*
X139208095Y-109978000D01*
X139303333Y-109930380D01*
X139541428Y-109930380D01*
X139684285Y-109978000D01*
X140636666Y-110930380D02*
X140065238Y-110930380D01*
X140350952Y-110930380D02*
X140350952Y-109930380D01*
X140255714Y-110073238D01*
X140160476Y-110168476D01*
X140065238Y-110216095D01*
X164350380Y-94908857D02*
X164350380Y-95385047D01*
X163350380Y-95385047D01*
X164302761Y-94623142D02*
X164350380Y-94480285D01*
X164350380Y-94242190D01*
X164302761Y-94146952D01*
X164255142Y-94099333D01*
X164159904Y-94051714D01*
X164064666Y-94051714D01*
X163969428Y-94099333D01*
X163921809Y-94146952D01*
X163874190Y-94242190D01*
X163826571Y-94432666D01*
X163778952Y-94527904D01*
X163731333Y-94575523D01*
X163636095Y-94623142D01*
X163540857Y-94623142D01*
X163445619Y-94575523D01*
X163398000Y-94527904D01*
X163350380Y-94432666D01*
X163350380Y-94194571D01*
X163398000Y-94051714D01*
X163445619Y-93670761D02*
X163398000Y-93623142D01*
X163350380Y-93527904D01*
X163350380Y-93289809D01*
X163398000Y-93194571D01*
X163445619Y-93146952D01*
X163540857Y-93099333D01*
X163636095Y-93099333D01*
X163778952Y-93146952D01*
X164350380Y-93718380D01*
X164350380Y-93099333D01*
X147939333Y-110548380D02*
X147606000Y-110072190D01*
X147367904Y-110548380D02*
X147367904Y-109548380D01*
X147748857Y-109548380D01*
X147844095Y-109596000D01*
X147891714Y-109643619D01*
X147939333Y-109738857D01*
X147939333Y-109881714D01*
X147891714Y-109976952D01*
X147844095Y-110024571D01*
X147748857Y-110072190D01*
X147367904Y-110072190D01*
X148891714Y-110548380D02*
X148320285Y-110548380D01*
X148606000Y-110548380D02*
X148606000Y-109548380D01*
X148510761Y-109691238D01*
X148415523Y-109786476D01*
X148320285Y-109834095D01*
X177596380Y-107132666D02*
X177120190Y-107466000D01*
X177596380Y-107704095D02*
X176596380Y-107704095D01*
X176596380Y-107323142D01*
X176644000Y-107227904D01*
X176691619Y-107180285D01*
X176786857Y-107132666D01*
X176929714Y-107132666D01*
X177024952Y-107180285D01*
X177072571Y-107227904D01*
X177120190Y-107323142D01*
X177120190Y-107704095D01*
X176691619Y-106751714D02*
X176644000Y-106704095D01*
X176596380Y-106608857D01*
X176596380Y-106370761D01*
X176644000Y-106275523D01*
X176691619Y-106227904D01*
X176786857Y-106180285D01*
X176882095Y-106180285D01*
X177024952Y-106227904D01*
X177596380Y-106799333D01*
X177596380Y-106180285D01*
X166227333Y-118168380D02*
X165894000Y-117692190D01*
X165655904Y-118168380D02*
X165655904Y-117168380D01*
X166036857Y-117168380D01*
X166132095Y-117216000D01*
X166179714Y-117263619D01*
X166227333Y-117358857D01*
X166227333Y-117501714D01*
X166179714Y-117596952D01*
X166132095Y-117644571D01*
X166036857Y-117692190D01*
X165655904Y-117692190D01*
X166560666Y-117168380D02*
X167179714Y-117168380D01*
X166846380Y-117549333D01*
X166989238Y-117549333D01*
X167084476Y-117596952D01*
X167132095Y-117644571D01*
X167179714Y-117739809D01*
X167179714Y-117977904D01*
X167132095Y-118073142D01*
X167084476Y-118120761D01*
X166989238Y-118168380D01*
X166703523Y-118168380D01*
X166608285Y-118120761D01*
X166560666Y-118073142D01*
X157366380Y-102052666D02*
X156890190Y-102386000D01*
X157366380Y-102624095D02*
X156366380Y-102624095D01*
X156366380Y-102243142D01*
X156414000Y-102147904D01*
X156461619Y-102100285D01*
X156556857Y-102052666D01*
X156699714Y-102052666D01*
X156794952Y-102100285D01*
X156842571Y-102147904D01*
X156890190Y-102243142D01*
X156890190Y-102624095D01*
X156699714Y-101195523D02*
X157366380Y-101195523D01*
X156318761Y-101433619D02*
X157033047Y-101671714D01*
X157033047Y-101052666D01*
X154367409Y-109005299D02*
X153840639Y-108759573D01*
X153872538Y-109291014D02*
X153372538Y-108424988D01*
X153702452Y-108234512D01*
X153808740Y-108228132D01*
X153873789Y-108245562D01*
X153962648Y-108304231D01*
X154034076Y-108427949D01*
X154040456Y-108534237D01*
X154023026Y-108599286D01*
X153964357Y-108688144D01*
X153634443Y-108878620D01*
X154650956Y-107686893D02*
X154238563Y-107924988D01*
X154435419Y-108361191D01*
X154452849Y-108296142D01*
X154511518Y-108207284D01*
X154717714Y-108088236D01*
X154824003Y-108081856D01*
X154889051Y-108099286D01*
X154977910Y-108157955D01*
X155096957Y-108364152D01*
X155103337Y-108470440D01*
X155085907Y-108535488D01*
X155027238Y-108624347D01*
X154821042Y-108743394D01*
X154714754Y-108749774D01*
X154649705Y-108732344D01*
X166227333Y-97176380D02*
X165894000Y-96700190D01*
X165655904Y-97176380D02*
X165655904Y-96176380D01*
X166036857Y-96176380D01*
X166132095Y-96224000D01*
X166179714Y-96271619D01*
X166227333Y-96366857D01*
X166227333Y-96509714D01*
X166179714Y-96604952D01*
X166132095Y-96652571D01*
X166036857Y-96700190D01*
X165655904Y-96700190D01*
X167084476Y-96176380D02*
X166894000Y-96176380D01*
X166798761Y-96224000D01*
X166751142Y-96271619D01*
X166655904Y-96414476D01*
X166608285Y-96604952D01*
X166608285Y-96985904D01*
X166655904Y-97081142D01*
X166703523Y-97128761D01*
X166798761Y-97176380D01*
X166989238Y-97176380D01*
X167084476Y-97128761D01*
X167132095Y-97081142D01*
X167179714Y-96985904D01*
X167179714Y-96747809D01*
X167132095Y-96652571D01*
X167084476Y-96604952D01*
X166989238Y-96557333D01*
X166798761Y-96557333D01*
X166703523Y-96604952D01*
X166655904Y-96652571D01*
X166608285Y-96747809D01*
X142630380Y-99512666D02*
X142154190Y-99846000D01*
X142630380Y-100084095D02*
X141630380Y-100084095D01*
X141630380Y-99703142D01*
X141678000Y-99607904D01*
X141725619Y-99560285D01*
X141820857Y-99512666D01*
X141963714Y-99512666D01*
X142058952Y-99560285D01*
X142106571Y-99607904D01*
X142154190Y-99703142D01*
X142154190Y-100084095D01*
X141630380Y-99179333D02*
X141630380Y-98512666D01*
X142630380Y-98941238D01*
X136255333Y-101748380D02*
X135922000Y-101272190D01*
X135683904Y-101748380D02*
X135683904Y-100748380D01*
X136064857Y-100748380D01*
X136160095Y-100796000D01*
X136207714Y-100843619D01*
X136255333Y-100938857D01*
X136255333Y-101081714D01*
X136207714Y-101176952D01*
X136160095Y-101224571D01*
X136064857Y-101272190D01*
X135683904Y-101272190D01*
X136826761Y-101176952D02*
X136731523Y-101129333D01*
X136683904Y-101081714D01*
X136636285Y-100986476D01*
X136636285Y-100938857D01*
X136683904Y-100843619D01*
X136731523Y-100796000D01*
X136826761Y-100748380D01*
X137017238Y-100748380D01*
X137112476Y-100796000D01*
X137160095Y-100843619D01*
X137207714Y-100938857D01*
X137207714Y-100986476D01*
X137160095Y-101081714D01*
X137112476Y-101129333D01*
X137017238Y-101176952D01*
X136826761Y-101176952D01*
X136731523Y-101224571D01*
X136683904Y-101272190D01*
X136636285Y-101367428D01*
X136636285Y-101557904D01*
X136683904Y-101653142D01*
X136731523Y-101700761D01*
X136826761Y-101748380D01*
X137017238Y-101748380D01*
X137112476Y-101700761D01*
X137160095Y-101653142D01*
X137207714Y-101557904D01*
X137207714Y-101367428D01*
X137160095Y-101272190D01*
X137112476Y-101224571D01*
X137017238Y-101176952D01*
X165610095Y-100278380D02*
X165610095Y-101087904D01*
X165657714Y-101183142D01*
X165705333Y-101230761D01*
X165800571Y-101278380D01*
X165991047Y-101278380D01*
X166086285Y-101230761D01*
X166133904Y-101183142D01*
X166181523Y-101087904D01*
X166181523Y-100278380D01*
X167181523Y-101278380D02*
X166610095Y-101278380D01*
X166895809Y-101278380D02*
X166895809Y-100278380D01*
X166800571Y-100421238D01*
X166705333Y-100516476D01*
X166610095Y-100564095D01*
M02*
