M48
; DRILL file {KiCad (5.1.2)-2} date 2019/11/28   10:38:44
; FORMAT={-:-/ absolute / inch / decimal}
; #@! TF.CreationDate,2019-11-28T10:38:44+11:00
; #@! TF.GenerationSoftware,Kicad,Pcbnew,(5.1.2)-2
FMAT,2
INCH
T1C0.0276
T2C0.0315
T3C0.0354
T4C0.0394
%
G90
G05
T1
X5.5209Y-4.0613
X6.2509Y-3.8613
X6.2509Y-4.1613
X5.6708Y-3.7613
X5.6708Y-4.0613
X6.4009Y-4.5613
X6.7009Y-4.5613
X6.4009Y-3.8813
X6.7009Y-3.8813
X6.9009Y-4.0613
X6.9009Y-4.3613
X5.9809Y-4.4113
X6.2408Y-4.2613
X5.2209Y-4.0613
X5.6809Y-4.2613
X5.9809Y-4.2613
T2
X6.4001Y-4.0613
X6.4001Y-4.1613
X6.4001Y-4.2613
X6.4001Y-4.3613
X6.7001Y-4.0613
X6.7001Y-4.1613
X6.7001Y-4.2613
X6.7001Y-4.3613
X5.2209Y-3.7613
X5.2209Y-3.8597
X5.7209Y-4.4428
X5.7209Y-4.5413
T3
X5.8283Y-4.0613
X6.1283Y-4.0613
T4
X6.0309Y-4.5913
X6.1309Y-4.5913
X5.4909Y-4.2613
X6.2609Y-3.7113
X6.3609Y-3.7113
X5.4909Y-4.4413
X5.4909Y-4.5413
X5.2209Y-4.2613
T0
M30
