G04 #@! TF.GenerationSoftware,KiCad,Pcbnew,(5.1.2)-2*
G04 #@! TF.CreationDate,2019-11-28T10:38:42+11:00*
G04 #@! TF.ProjectId,AM Demodulator,414d2044-656d-46f6-9475-6c61746f722e,rev 0.1*
G04 #@! TF.SameCoordinates,Original*
G04 #@! TF.FileFunction,Copper,L1,Top*
G04 #@! TF.FilePolarity,Positive*
%FSLAX46Y46*%
G04 Gerber Fmt 4.6, Leading zero omitted, Abs format (unit mm)*
G04 Created by KiCad (PCBNEW (5.1.2)-2) date 2019-11-28 10:38:42*
%MOMM*%
%LPD*%
G04 APERTURE LIST*
%ADD10C,1.600000*%
%ADD11R,1.600000X1.600000*%
%ADD12O,1.800000X1.800000*%
%ADD13R,1.800000X1.800000*%
%ADD14R,1.700000X1.700000*%
%ADD15O,1.700000X1.700000*%
%ADD16C,1.400000*%
%ADD17O,1.400000X1.400000*%
%ADD18C,1.400000*%
%ADD19O,2.400000X1.600000*%
%ADD20R,2.400000X1.600000*%
%ADD21C,0.600000*%
%ADD22C,0.800000*%
G04 APERTURE END LIST*
D10*
X145312000Y-112848000D03*
D11*
X145312000Y-115348000D03*
X132612000Y-98036000D03*
D10*
X132612000Y-95536000D03*
D12*
X155658000Y-103156000D03*
D13*
X148038000Y-103156000D03*
D14*
X139470000Y-108236000D03*
D15*
X155726000Y-116618000D03*
D14*
X153186000Y-116618000D03*
X132612000Y-108236000D03*
X139470000Y-112808000D03*
D15*
X139470000Y-115348000D03*
X159028000Y-94266000D03*
D14*
X161568000Y-94266000D03*
D16*
X151916000Y-108236000D03*
D17*
X144296000Y-108236000D03*
X175284000Y-110776000D03*
D16*
X175284000Y-103156000D03*
X170204000Y-115856000D03*
D17*
X162584000Y-115856000D03*
D16*
X158774000Y-105696000D03*
D17*
X158774000Y-98076000D03*
D16*
X158515114Y-108236000D03*
D18*
X158515114Y-108236000D02*
X158515114Y-108236000D01*
D16*
X151916000Y-112046000D03*
D17*
X170204000Y-98584000D03*
D16*
X162584000Y-98584000D03*
X144038000Y-103156000D03*
D17*
X144038000Y-95536000D03*
X140232000Y-103156000D03*
D16*
X132612000Y-103156000D03*
D19*
X170182000Y-103156000D03*
X162562000Y-110776000D03*
X170182000Y-105696000D03*
X162562000Y-108236000D03*
X170182000Y-108236000D03*
X162562000Y-105696000D03*
X170182000Y-110776000D03*
D20*
X162562000Y-103156000D03*
D21*
X144296000Y-111832000D02*
X145312000Y-112848000D01*
X144296000Y-108236000D02*
X144296000Y-111832000D01*
X139470000Y-108236000D02*
X144296000Y-108236000D01*
X139470000Y-108236000D02*
X139470000Y-112808000D01*
D22*
X145312000Y-115348000D02*
X139470000Y-115348000D01*
X145312000Y-115348000D02*
X148360000Y-115348000D01*
X149630000Y-116618000D02*
X153186000Y-116618000D01*
X148360000Y-115348000D02*
X149630000Y-116618000D01*
X157378000Y-110776000D02*
X162562000Y-110776000D01*
X153186000Y-116618000D02*
X153186000Y-114968000D01*
X153186000Y-114968000D02*
X157378000Y-110776000D01*
D21*
X162562000Y-115834000D02*
X162584000Y-115856000D01*
X162562000Y-110776000D02*
X162562000Y-115834000D01*
X132612000Y-108236000D02*
X132612000Y-103156000D01*
X132612000Y-103156000D02*
X132612000Y-98036000D01*
D22*
X170182000Y-105696000D02*
X170182000Y-108236000D01*
X149630000Y-106712000D02*
X151662000Y-104680000D01*
X151662000Y-104680000D02*
X151662000Y-97822000D01*
X149376000Y-95536000D02*
X144038000Y-95536000D01*
X151662000Y-97822000D02*
X149376000Y-95536000D01*
X133743370Y-95536000D02*
X144038000Y-95536000D01*
X132612000Y-95536000D02*
X133743370Y-95536000D01*
X154710000Y-100870000D02*
X151662000Y-97822000D01*
X159028000Y-100870000D02*
X154710000Y-100870000D01*
X161314000Y-96552000D02*
X160552000Y-97314000D01*
X160552000Y-99346000D02*
X159028000Y-100870000D01*
X160552000Y-97314000D02*
X160552000Y-99346000D01*
X172490000Y-98076000D02*
X170966000Y-96552000D01*
X172490000Y-99346000D02*
X172490000Y-98076000D01*
X171220000Y-100616000D02*
X172490000Y-99346000D01*
X169950000Y-100616000D02*
X171220000Y-100616000D01*
X170966000Y-96552000D02*
X161314000Y-96552000D01*
X169782000Y-105696000D02*
X168182000Y-104096000D01*
X168182000Y-104096000D02*
X168182000Y-102384000D01*
X170182000Y-105696000D02*
X169782000Y-105696000D01*
X168182000Y-102384000D02*
X169950000Y-100616000D01*
X149630000Y-109760000D02*
X149630000Y-109370000D01*
X151916000Y-112046000D02*
X149630000Y-109760000D01*
X149630000Y-109370000D02*
X149630000Y-106712000D01*
D21*
X156930792Y-103156000D02*
X162562000Y-103156000D01*
X155658000Y-103156000D02*
X156930792Y-103156000D01*
X162584000Y-103134000D02*
X162562000Y-103156000D01*
X162584000Y-98584000D02*
X162584000Y-103134000D01*
X140232000Y-103156000D02*
X144038000Y-103156000D01*
X144038000Y-103156000D02*
X148038000Y-103156000D01*
D22*
X170182000Y-103156000D02*
X175284000Y-103156000D01*
X170182000Y-103156000D02*
X170582000Y-103156000D01*
X155726000Y-116618000D02*
X156996000Y-117888000D01*
X156996000Y-117888000D02*
X172744000Y-117888000D01*
X172744000Y-117888000D02*
X177062000Y-113570000D01*
X177062000Y-104934000D02*
X175284000Y-103156000D01*
X177062000Y-113570000D02*
X177062000Y-104934000D01*
X175284000Y-98076000D02*
X175284000Y-103156000D01*
X161568000Y-94266000D02*
X171474000Y-94266000D01*
X171474000Y-94266000D02*
X175284000Y-98076000D01*
D21*
X158774000Y-94520000D02*
X159028000Y-94266000D01*
X158774000Y-98076000D02*
X158774000Y-94520000D01*
X151998000Y-108318000D02*
X151916000Y-108236000D01*
X152905949Y-108236000D02*
X158515114Y-108236000D01*
X151916000Y-108236000D02*
X152905949Y-108236000D01*
X158515114Y-108236000D02*
X162562000Y-108236000D01*
X170182000Y-110776000D02*
X175284000Y-110776000D01*
X170182000Y-110776000D02*
X170182000Y-112176000D01*
X170204000Y-112198000D02*
X170204000Y-115856000D01*
X170182000Y-112176000D02*
X170204000Y-112198000D01*
X158774000Y-105696000D02*
X162562000Y-105696000D01*
X170204000Y-98584000D02*
X166140000Y-102648000D01*
X166140000Y-102648000D02*
X166140000Y-104934000D01*
X166140000Y-104934000D02*
X165378000Y-105696000D01*
X165378000Y-105696000D02*
X162562000Y-105696000D01*
M02*
