G04 #@! TF.GenerationSoftware,KiCad,Pcbnew,(5.1.5)-3*
G04 #@! TF.CreationDate,2020-08-04T19:08:33+10:00*
G04 #@! TF.ProjectId,Interconnect,496e7465-7263-46f6-9e6e-6563742e6b69,rev 0.2*
G04 #@! TF.SameCoordinates,Original*
G04 #@! TF.FileFunction,Soldermask,Bot*
G04 #@! TF.FilePolarity,Negative*
%FSLAX46Y46*%
G04 Gerber Fmt 4.6, Leading zero omitted, Abs format (unit mm)*
G04 Created by KiCad (PCBNEW (5.1.5)-3) date 2020-08-04 19:08:33*
%MOMM*%
%LPD*%
G04 APERTURE LIST*
%ADD10C,0.020000*%
G04 APERTURE END LIST*
D10*
G36*
X150735512Y-101211927D02*
G01*
X150884812Y-101241624D01*
X151048784Y-101309544D01*
X151196354Y-101408147D01*
X151321853Y-101533646D01*
X151420456Y-101681216D01*
X151488376Y-101845188D01*
X151523000Y-102019259D01*
X151523000Y-102196741D01*
X151488376Y-102370812D01*
X151420456Y-102534784D01*
X151321853Y-102682354D01*
X151196354Y-102807853D01*
X151048784Y-102906456D01*
X150884812Y-102974376D01*
X150735512Y-103004073D01*
X150710742Y-103009000D01*
X150533258Y-103009000D01*
X150508488Y-103004073D01*
X150359188Y-102974376D01*
X150195216Y-102906456D01*
X150047646Y-102807853D01*
X149922147Y-102682354D01*
X149823544Y-102534784D01*
X149755624Y-102370812D01*
X149721000Y-102196741D01*
X149721000Y-102019259D01*
X149755624Y-101845188D01*
X149823544Y-101681216D01*
X149922147Y-101533646D01*
X150047646Y-101408147D01*
X150195216Y-101309544D01*
X150359188Y-101241624D01*
X150508488Y-101211927D01*
X150533258Y-101207000D01*
X150710742Y-101207000D01*
X150735512Y-101211927D01*
G37*
G36*
X168541000Y-103009000D02*
G01*
X166739000Y-103009000D01*
X166739000Y-101207000D01*
X168541000Y-101207000D01*
X168541000Y-103009000D01*
G37*
G36*
X150735512Y-98671927D02*
G01*
X150884812Y-98701624D01*
X151048784Y-98769544D01*
X151196354Y-98868147D01*
X151321853Y-98993646D01*
X151420456Y-99141216D01*
X151488376Y-99305188D01*
X151523000Y-99479259D01*
X151523000Y-99656741D01*
X151488376Y-99830812D01*
X151420456Y-99994784D01*
X151321853Y-100142354D01*
X151196354Y-100267853D01*
X151048784Y-100366456D01*
X150884812Y-100434376D01*
X150735512Y-100464073D01*
X150710742Y-100469000D01*
X150533258Y-100469000D01*
X150508488Y-100464073D01*
X150359188Y-100434376D01*
X150195216Y-100366456D01*
X150047646Y-100267853D01*
X149922147Y-100142354D01*
X149823544Y-99994784D01*
X149755624Y-99830812D01*
X149721000Y-99656741D01*
X149721000Y-99479259D01*
X149755624Y-99305188D01*
X149823544Y-99141216D01*
X149922147Y-98993646D01*
X150047646Y-98868147D01*
X150195216Y-98769544D01*
X150359188Y-98701624D01*
X150508488Y-98671927D01*
X150533258Y-98667000D01*
X150710742Y-98667000D01*
X150735512Y-98671927D01*
G37*
G36*
X167753512Y-98671927D02*
G01*
X167902812Y-98701624D01*
X168066784Y-98769544D01*
X168214354Y-98868147D01*
X168339853Y-98993646D01*
X168438456Y-99141216D01*
X168506376Y-99305188D01*
X168541000Y-99479259D01*
X168541000Y-99656741D01*
X168506376Y-99830812D01*
X168438456Y-99994784D01*
X168339853Y-100142354D01*
X168214354Y-100267853D01*
X168066784Y-100366456D01*
X167902812Y-100434376D01*
X167753512Y-100464073D01*
X167728742Y-100469000D01*
X167551258Y-100469000D01*
X167526488Y-100464073D01*
X167377188Y-100434376D01*
X167213216Y-100366456D01*
X167065646Y-100267853D01*
X166940147Y-100142354D01*
X166841544Y-99994784D01*
X166773624Y-99830812D01*
X166739000Y-99656741D01*
X166739000Y-99479259D01*
X166773624Y-99305188D01*
X166841544Y-99141216D01*
X166940147Y-98993646D01*
X167065646Y-98868147D01*
X167213216Y-98769544D01*
X167377188Y-98701624D01*
X167526488Y-98671927D01*
X167551258Y-98667000D01*
X167728742Y-98667000D01*
X167753512Y-98671927D01*
G37*
G36*
X150735512Y-96131927D02*
G01*
X150884812Y-96161624D01*
X151048784Y-96229544D01*
X151196354Y-96328147D01*
X151321853Y-96453646D01*
X151420456Y-96601216D01*
X151488376Y-96765188D01*
X151523000Y-96939259D01*
X151523000Y-97116741D01*
X151488376Y-97290812D01*
X151420456Y-97454784D01*
X151321853Y-97602354D01*
X151196354Y-97727853D01*
X151048784Y-97826456D01*
X150884812Y-97894376D01*
X150735512Y-97924073D01*
X150710742Y-97929000D01*
X150533258Y-97929000D01*
X150508488Y-97924073D01*
X150359188Y-97894376D01*
X150195216Y-97826456D01*
X150047646Y-97727853D01*
X149922147Y-97602354D01*
X149823544Y-97454784D01*
X149755624Y-97290812D01*
X149721000Y-97116741D01*
X149721000Y-96939259D01*
X149755624Y-96765188D01*
X149823544Y-96601216D01*
X149922147Y-96453646D01*
X150047646Y-96328147D01*
X150195216Y-96229544D01*
X150359188Y-96161624D01*
X150508488Y-96131927D01*
X150533258Y-96127000D01*
X150710742Y-96127000D01*
X150735512Y-96131927D01*
G37*
G36*
X167753512Y-96131927D02*
G01*
X167902812Y-96161624D01*
X168066784Y-96229544D01*
X168214354Y-96328147D01*
X168339853Y-96453646D01*
X168438456Y-96601216D01*
X168506376Y-96765188D01*
X168541000Y-96939259D01*
X168541000Y-97116741D01*
X168506376Y-97290812D01*
X168438456Y-97454784D01*
X168339853Y-97602354D01*
X168214354Y-97727853D01*
X168066784Y-97826456D01*
X167902812Y-97894376D01*
X167753512Y-97924073D01*
X167728742Y-97929000D01*
X167551258Y-97929000D01*
X167526488Y-97924073D01*
X167377188Y-97894376D01*
X167213216Y-97826456D01*
X167065646Y-97727853D01*
X166940147Y-97602354D01*
X166841544Y-97454784D01*
X166773624Y-97290812D01*
X166739000Y-97116741D01*
X166739000Y-96939259D01*
X166773624Y-96765188D01*
X166841544Y-96601216D01*
X166940147Y-96453646D01*
X167065646Y-96328147D01*
X167213216Y-96229544D01*
X167377188Y-96161624D01*
X167526488Y-96131927D01*
X167551258Y-96127000D01*
X167728742Y-96127000D01*
X167753512Y-96131927D01*
G37*
G36*
X167753512Y-93591927D02*
G01*
X167902812Y-93621624D01*
X168066784Y-93689544D01*
X168214354Y-93788147D01*
X168339853Y-93913646D01*
X168438456Y-94061216D01*
X168506376Y-94225188D01*
X168541000Y-94399259D01*
X168541000Y-94576741D01*
X168506376Y-94750812D01*
X168438456Y-94914784D01*
X168339853Y-95062354D01*
X168214354Y-95187853D01*
X168066784Y-95286456D01*
X167902812Y-95354376D01*
X167753512Y-95384073D01*
X167728742Y-95389000D01*
X167551258Y-95389000D01*
X167526488Y-95384073D01*
X167377188Y-95354376D01*
X167213216Y-95286456D01*
X167065646Y-95187853D01*
X166940147Y-95062354D01*
X166841544Y-94914784D01*
X166773624Y-94750812D01*
X166739000Y-94576741D01*
X166739000Y-94399259D01*
X166773624Y-94225188D01*
X166841544Y-94061216D01*
X166940147Y-93913646D01*
X167065646Y-93788147D01*
X167213216Y-93689544D01*
X167377188Y-93621624D01*
X167526488Y-93591927D01*
X167551258Y-93587000D01*
X167728742Y-93587000D01*
X167753512Y-93591927D01*
G37*
G36*
X150735512Y-93591927D02*
G01*
X150884812Y-93621624D01*
X151048784Y-93689544D01*
X151196354Y-93788147D01*
X151321853Y-93913646D01*
X151420456Y-94061216D01*
X151488376Y-94225188D01*
X151523000Y-94399259D01*
X151523000Y-94576741D01*
X151488376Y-94750812D01*
X151420456Y-94914784D01*
X151321853Y-95062354D01*
X151196354Y-95187853D01*
X151048784Y-95286456D01*
X150884812Y-95354376D01*
X150735512Y-95384073D01*
X150710742Y-95389000D01*
X150533258Y-95389000D01*
X150508488Y-95384073D01*
X150359188Y-95354376D01*
X150195216Y-95286456D01*
X150047646Y-95187853D01*
X149922147Y-95062354D01*
X149823544Y-94914784D01*
X149755624Y-94750812D01*
X149721000Y-94576741D01*
X149721000Y-94399259D01*
X149755624Y-94225188D01*
X149823544Y-94061216D01*
X149922147Y-93913646D01*
X150047646Y-93788147D01*
X150195216Y-93689544D01*
X150359188Y-93621624D01*
X150508488Y-93591927D01*
X150533258Y-93587000D01*
X150710742Y-93587000D01*
X150735512Y-93591927D01*
G37*
G36*
X167753512Y-91051927D02*
G01*
X167902812Y-91081624D01*
X168066784Y-91149544D01*
X168214354Y-91248147D01*
X168339853Y-91373646D01*
X168438456Y-91521216D01*
X168506376Y-91685188D01*
X168541000Y-91859259D01*
X168541000Y-92036741D01*
X168506376Y-92210812D01*
X168438456Y-92374784D01*
X168339853Y-92522354D01*
X168214354Y-92647853D01*
X168066784Y-92746456D01*
X167902812Y-92814376D01*
X167753512Y-92844073D01*
X167728742Y-92849000D01*
X167551258Y-92849000D01*
X167526488Y-92844073D01*
X167377188Y-92814376D01*
X167213216Y-92746456D01*
X167065646Y-92647853D01*
X166940147Y-92522354D01*
X166841544Y-92374784D01*
X166773624Y-92210812D01*
X166739000Y-92036741D01*
X166739000Y-91859259D01*
X166773624Y-91685188D01*
X166841544Y-91521216D01*
X166940147Y-91373646D01*
X167065646Y-91248147D01*
X167213216Y-91149544D01*
X167377188Y-91081624D01*
X167526488Y-91051927D01*
X167551258Y-91047000D01*
X167728742Y-91047000D01*
X167753512Y-91051927D01*
G37*
G36*
X150735512Y-91051927D02*
G01*
X150884812Y-91081624D01*
X151048784Y-91149544D01*
X151196354Y-91248147D01*
X151321853Y-91373646D01*
X151420456Y-91521216D01*
X151488376Y-91685188D01*
X151523000Y-91859259D01*
X151523000Y-92036741D01*
X151488376Y-92210812D01*
X151420456Y-92374784D01*
X151321853Y-92522354D01*
X151196354Y-92647853D01*
X151048784Y-92746456D01*
X150884812Y-92814376D01*
X150735512Y-92844073D01*
X150710742Y-92849000D01*
X150533258Y-92849000D01*
X150508488Y-92844073D01*
X150359188Y-92814376D01*
X150195216Y-92746456D01*
X150047646Y-92647853D01*
X149922147Y-92522354D01*
X149823544Y-92374784D01*
X149755624Y-92210812D01*
X149721000Y-92036741D01*
X149721000Y-91859259D01*
X149755624Y-91685188D01*
X149823544Y-91521216D01*
X149922147Y-91373646D01*
X150047646Y-91248147D01*
X150195216Y-91149544D01*
X150359188Y-91081624D01*
X150508488Y-91051927D01*
X150533258Y-91047000D01*
X150710742Y-91047000D01*
X150735512Y-91051927D01*
G37*
G36*
X150735512Y-88511927D02*
G01*
X150884812Y-88541624D01*
X151048784Y-88609544D01*
X151196354Y-88708147D01*
X151321853Y-88833646D01*
X151420456Y-88981216D01*
X151488376Y-89145188D01*
X151523000Y-89319259D01*
X151523000Y-89496741D01*
X151488376Y-89670812D01*
X151420456Y-89834784D01*
X151321853Y-89982354D01*
X151196354Y-90107853D01*
X151048784Y-90206456D01*
X150884812Y-90274376D01*
X150735512Y-90304073D01*
X150710742Y-90309000D01*
X150533258Y-90309000D01*
X150508488Y-90304073D01*
X150359188Y-90274376D01*
X150195216Y-90206456D01*
X150047646Y-90107853D01*
X149922147Y-89982354D01*
X149823544Y-89834784D01*
X149755624Y-89670812D01*
X149721000Y-89496741D01*
X149721000Y-89319259D01*
X149755624Y-89145188D01*
X149823544Y-88981216D01*
X149922147Y-88833646D01*
X150047646Y-88708147D01*
X150195216Y-88609544D01*
X150359188Y-88541624D01*
X150508488Y-88511927D01*
X150533258Y-88507000D01*
X150710742Y-88507000D01*
X150735512Y-88511927D01*
G37*
G36*
X167753512Y-88511927D02*
G01*
X167902812Y-88541624D01*
X168066784Y-88609544D01*
X168214354Y-88708147D01*
X168339853Y-88833646D01*
X168438456Y-88981216D01*
X168506376Y-89145188D01*
X168541000Y-89319259D01*
X168541000Y-89496741D01*
X168506376Y-89670812D01*
X168438456Y-89834784D01*
X168339853Y-89982354D01*
X168214354Y-90107853D01*
X168066784Y-90206456D01*
X167902812Y-90274376D01*
X167753512Y-90304073D01*
X167728742Y-90309000D01*
X167551258Y-90309000D01*
X167526488Y-90304073D01*
X167377188Y-90274376D01*
X167213216Y-90206456D01*
X167065646Y-90107853D01*
X166940147Y-89982354D01*
X166841544Y-89834784D01*
X166773624Y-89670812D01*
X166739000Y-89496741D01*
X166739000Y-89319259D01*
X166773624Y-89145188D01*
X166841544Y-88981216D01*
X166940147Y-88833646D01*
X167065646Y-88708147D01*
X167213216Y-88609544D01*
X167377188Y-88541624D01*
X167526488Y-88511927D01*
X167551258Y-88507000D01*
X167728742Y-88507000D01*
X167753512Y-88511927D01*
G37*
G36*
X155233000Y-88640500D02*
G01*
X153631000Y-88640500D01*
X153631000Y-86238500D01*
X155233000Y-86238500D01*
X155233000Y-88640500D01*
G37*
G36*
X151523000Y-87769000D02*
G01*
X149721000Y-87769000D01*
X149721000Y-85967000D01*
X151523000Y-85967000D01*
X151523000Y-87769000D01*
G37*
M02*
