G04 #@! TF.GenerationSoftware,KiCad,Pcbnew,(5.1.5)-3*
G04 #@! TF.CreationDate,2020-08-04T19:08:33+10:00*
G04 #@! TF.ProjectId,Interconnect,496e7465-7263-46f6-9e6e-6563742e6b69,rev 0.2*
G04 #@! TF.SameCoordinates,Original*
G04 #@! TF.FileFunction,Legend,Bot*
G04 #@! TF.FilePolarity,Positive*
%FSLAX46Y46*%
G04 Gerber Fmt 4.6, Leading zero omitted, Abs format (unit mm)*
G04 Created by KiCad (PCBNEW (5.1.5)-3) date 2020-08-04 19:08:33*
%MOMM*%
%LPD*%
G04 APERTURE LIST*
%ADD10C,0.150000*%
%ADD11C,0.125000*%
%ADD12C,0.120000*%
G04 APERTURE END LIST*
D10*
X151883904Y-84764571D02*
X151741047Y-84812190D01*
X151693428Y-84859809D01*
X151645809Y-84955047D01*
X151645809Y-85097904D01*
X151693428Y-85193142D01*
X151741047Y-85240761D01*
X151836285Y-85288380D01*
X152217238Y-85288380D01*
X152217238Y-84288380D01*
X151883904Y-84288380D01*
X151788666Y-84336000D01*
X151741047Y-84383619D01*
X151693428Y-84478857D01*
X151693428Y-84574095D01*
X151741047Y-84669333D01*
X151788666Y-84716952D01*
X151883904Y-84764571D01*
X152217238Y-84764571D01*
X151074380Y-85288380D02*
X151169619Y-85240761D01*
X151217238Y-85193142D01*
X151264857Y-85097904D01*
X151264857Y-84812190D01*
X151217238Y-84716952D01*
X151169619Y-84669333D01*
X151074380Y-84621714D01*
X150931523Y-84621714D01*
X150836285Y-84669333D01*
X150788666Y-84716952D01*
X150741047Y-84812190D01*
X150741047Y-85097904D01*
X150788666Y-85193142D01*
X150836285Y-85240761D01*
X150931523Y-85288380D01*
X151074380Y-85288380D01*
X150360095Y-85240761D02*
X150217238Y-85288380D01*
X149979142Y-85288380D01*
X149883904Y-85240761D01*
X149836285Y-85193142D01*
X149788666Y-85097904D01*
X149788666Y-85002666D01*
X149836285Y-84907428D01*
X149883904Y-84859809D01*
X149979142Y-84812190D01*
X150169619Y-84764571D01*
X150264857Y-84716952D01*
X150312476Y-84669333D01*
X150360095Y-84574095D01*
X150360095Y-84478857D01*
X150312476Y-84383619D01*
X150264857Y-84336000D01*
X150169619Y-84288380D01*
X149931523Y-84288380D01*
X149788666Y-84336000D01*
X148883904Y-85288380D02*
X149360095Y-85288380D01*
X149360095Y-84288380D01*
X168703476Y-86701380D02*
X168370142Y-87701380D01*
X168036809Y-86701380D01*
X167703476Y-87177571D02*
X167370142Y-87177571D01*
X167227285Y-87701380D02*
X167703476Y-87701380D01*
X167703476Y-86701380D01*
X167227285Y-86701380D01*
X166322523Y-87701380D02*
X166798714Y-87701380D01*
X166798714Y-86701380D01*
D11*
X156332071Y-85622047D02*
X156355880Y-85598238D01*
X156379690Y-85526809D01*
X156379690Y-85479190D01*
X156355880Y-85407761D01*
X156308261Y-85360142D01*
X156260642Y-85336333D01*
X156165404Y-85312523D01*
X156093976Y-85312523D01*
X155998738Y-85336333D01*
X155951119Y-85360142D01*
X155903500Y-85407761D01*
X155879690Y-85479190D01*
X155879690Y-85526809D01*
X155903500Y-85598238D01*
X155927309Y-85622047D01*
X156379690Y-86074428D02*
X156379690Y-85836333D01*
X155879690Y-85836333D01*
X155879690Y-86336333D02*
X155879690Y-86431571D01*
X155903500Y-86479190D01*
X155951119Y-86526809D01*
X156046357Y-86550619D01*
X156213023Y-86550619D01*
X156308261Y-86526809D01*
X156355880Y-86479190D01*
X156379690Y-86431571D01*
X156379690Y-86336333D01*
X156355880Y-86288714D01*
X156308261Y-86241095D01*
X156213023Y-86217285D01*
X156046357Y-86217285D01*
X155951119Y-86241095D01*
X155903500Y-86288714D01*
X155879690Y-86336333D01*
X156355880Y-86741095D02*
X156379690Y-86812523D01*
X156379690Y-86931571D01*
X156355880Y-86979190D01*
X156332071Y-87003000D01*
X156284452Y-87026809D01*
X156236833Y-87026809D01*
X156189214Y-87003000D01*
X156165404Y-86979190D01*
X156141595Y-86931571D01*
X156117785Y-86836333D01*
X156093976Y-86788714D01*
X156070166Y-86764904D01*
X156022547Y-86741095D01*
X155974928Y-86741095D01*
X155927309Y-86764904D01*
X155903500Y-86788714D01*
X155879690Y-86836333D01*
X155879690Y-86955380D01*
X155903500Y-87026809D01*
X156117785Y-87241095D02*
X156117785Y-87407761D01*
X156379690Y-87479190D02*
X156379690Y-87241095D01*
X155879690Y-87241095D01*
X155879690Y-87479190D01*
X156117785Y-88241095D02*
X156117785Y-88074428D01*
X156379690Y-88074428D02*
X155879690Y-88074428D01*
X155879690Y-88312523D01*
X155879690Y-88598238D02*
X155879690Y-88693476D01*
X155903500Y-88741095D01*
X155951119Y-88788714D01*
X156046357Y-88812523D01*
X156213023Y-88812523D01*
X156308261Y-88788714D01*
X156355880Y-88741095D01*
X156379690Y-88693476D01*
X156379690Y-88598238D01*
X156355880Y-88550619D01*
X156308261Y-88503000D01*
X156213023Y-88479190D01*
X156046357Y-88479190D01*
X155951119Y-88503000D01*
X155903500Y-88550619D01*
X155879690Y-88598238D01*
X156379690Y-89312523D02*
X156141595Y-89145857D01*
X156379690Y-89026809D02*
X155879690Y-89026809D01*
X155879690Y-89217285D01*
X155903500Y-89264904D01*
X155927309Y-89288714D01*
X155974928Y-89312523D01*
X156046357Y-89312523D01*
X156093976Y-89288714D01*
X156117785Y-89264904D01*
X156141595Y-89217285D01*
X156141595Y-89026809D01*
X157254690Y-84943476D02*
X156754690Y-84943476D01*
X156754690Y-85133952D01*
X156778500Y-85181571D01*
X156802309Y-85205380D01*
X156849928Y-85229190D01*
X156921357Y-85229190D01*
X156968976Y-85205380D01*
X156992785Y-85181571D01*
X157016595Y-85133952D01*
X157016595Y-84943476D01*
X156754690Y-85443476D02*
X157159452Y-85443476D01*
X157207071Y-85467285D01*
X157230880Y-85491095D01*
X157254690Y-85538714D01*
X157254690Y-85633952D01*
X157230880Y-85681571D01*
X157207071Y-85705380D01*
X157159452Y-85729190D01*
X156754690Y-85729190D01*
X157254690Y-86205380D02*
X157254690Y-85967285D01*
X156754690Y-85967285D01*
X157254690Y-86610142D02*
X157254690Y-86372047D01*
X156754690Y-86372047D01*
X156992785Y-87157761D02*
X156992785Y-87324428D01*
X157254690Y-87395857D02*
X157254690Y-87157761D01*
X156754690Y-87157761D01*
X156754690Y-87395857D01*
X157254690Y-87610142D02*
X156754690Y-87610142D01*
X157254690Y-87895857D01*
X156754690Y-87895857D01*
X157254690Y-88514904D02*
X156754690Y-88514904D01*
X156992785Y-88514904D02*
X156992785Y-88800619D01*
X157254690Y-88800619D02*
X156754690Y-88800619D01*
X157254690Y-89038714D02*
X156754690Y-89038714D01*
X156778500Y-89538714D02*
X156754690Y-89491095D01*
X156754690Y-89419666D01*
X156778500Y-89348238D01*
X156826119Y-89300619D01*
X156873738Y-89276809D01*
X156968976Y-89253000D01*
X157040404Y-89253000D01*
X157135642Y-89276809D01*
X157183261Y-89300619D01*
X157230880Y-89348238D01*
X157254690Y-89419666D01*
X157254690Y-89467285D01*
X157230880Y-89538714D01*
X157207071Y-89562523D01*
X157040404Y-89562523D01*
X157040404Y-89467285D01*
X157254690Y-89776809D02*
X156754690Y-89776809D01*
X156992785Y-89776809D02*
X156992785Y-90062523D01*
X157254690Y-90062523D02*
X156754690Y-90062523D01*
D10*
X166099952Y-101560380D02*
X165861857Y-102560380D01*
X165671380Y-101846095D01*
X165480904Y-102560380D01*
X165242809Y-101560380D01*
X164861857Y-102560380D02*
X164861857Y-101560380D01*
X164290428Y-102560380D02*
X164719000Y-101988952D01*
X164290428Y-101560380D02*
X164861857Y-102131809D01*
X163861857Y-102036571D02*
X163528523Y-102036571D01*
X163385666Y-102560380D02*
X163861857Y-102560380D01*
X163861857Y-101560380D01*
X163385666Y-101560380D01*
X165480904Y-98893380D02*
X164909476Y-98893380D01*
X165195190Y-99893380D02*
X165195190Y-98893380D01*
X164671380Y-98893380D02*
X164004714Y-99893380D01*
X164004714Y-98893380D02*
X164671380Y-99893380D01*
X164885666Y-97480380D02*
X165219000Y-97004190D01*
X165457095Y-97480380D02*
X165457095Y-96480380D01*
X165076142Y-96480380D01*
X164980904Y-96528000D01*
X164933285Y-96575619D01*
X164885666Y-96670857D01*
X164885666Y-96813714D01*
X164933285Y-96908952D01*
X164980904Y-96956571D01*
X165076142Y-97004190D01*
X165457095Y-97004190D01*
X164552333Y-96480380D02*
X163885666Y-97480380D01*
X163885666Y-96480380D02*
X164552333Y-97480380D01*
X165266619Y-94940380D02*
X165599952Y-94464190D01*
X165838047Y-94940380D02*
X165838047Y-93940380D01*
X165457095Y-93940380D01*
X165361857Y-93988000D01*
X165314238Y-94035619D01*
X165266619Y-94130857D01*
X165266619Y-94273714D01*
X165314238Y-94368952D01*
X165361857Y-94416571D01*
X165457095Y-94464190D01*
X165838047Y-94464190D01*
X164885666Y-94892761D02*
X164742809Y-94940380D01*
X164504714Y-94940380D01*
X164409476Y-94892761D01*
X164361857Y-94845142D01*
X164314238Y-94749904D01*
X164314238Y-94654666D01*
X164361857Y-94559428D01*
X164409476Y-94511809D01*
X164504714Y-94464190D01*
X164695190Y-94416571D01*
X164790428Y-94368952D01*
X164838047Y-94321333D01*
X164885666Y-94226095D01*
X164885666Y-94130857D01*
X164838047Y-94035619D01*
X164790428Y-93988000D01*
X164695190Y-93940380D01*
X164457095Y-93940380D01*
X164314238Y-93988000D01*
X164028523Y-93940380D02*
X163457095Y-93940380D01*
X163742809Y-94940380D02*
X163742809Y-93940380D01*
X165480904Y-91448000D02*
X165576142Y-91400380D01*
X165719000Y-91400380D01*
X165861857Y-91448000D01*
X165957095Y-91543238D01*
X166004714Y-91638476D01*
X166052333Y-91828952D01*
X166052333Y-91971809D01*
X166004714Y-92162285D01*
X165957095Y-92257523D01*
X165861857Y-92352761D01*
X165719000Y-92400380D01*
X165623761Y-92400380D01*
X165480904Y-92352761D01*
X165433285Y-92305142D01*
X165433285Y-91971809D01*
X165623761Y-91971809D01*
X165004714Y-92400380D02*
X165004714Y-91400380D01*
X164433285Y-92400380D01*
X164433285Y-91400380D01*
X163957095Y-92400380D02*
X163957095Y-91400380D01*
X163719000Y-91400380D01*
X163576142Y-91448000D01*
X163480904Y-91543238D01*
X163433285Y-91638476D01*
X163385666Y-91828952D01*
X163385666Y-91971809D01*
X163433285Y-92162285D01*
X163480904Y-92257523D01*
X163576142Y-92352761D01*
X163719000Y-92400380D01*
X163957095Y-92400380D01*
X164909476Y-88860380D02*
X165385666Y-88860380D01*
X165433285Y-89336571D01*
X165385666Y-89288952D01*
X165290428Y-89241333D01*
X165052333Y-89241333D01*
X164957095Y-89288952D01*
X164909476Y-89336571D01*
X164861857Y-89431809D01*
X164861857Y-89669904D01*
X164909476Y-89765142D01*
X164957095Y-89812761D01*
X165052333Y-89860380D01*
X165290428Y-89860380D01*
X165385666Y-89812761D01*
X165433285Y-89765142D01*
X164576142Y-88860380D02*
X164242809Y-89860380D01*
X163909476Y-88860380D01*
X154408095Y-90228571D02*
X154074761Y-90228571D01*
X153931904Y-90752380D02*
X154408095Y-90752380D01*
X154408095Y-89752380D01*
X153931904Y-89752380D01*
X153503333Y-90752380D02*
X153503333Y-89752380D01*
X152931904Y-90752380D01*
X152931904Y-89752380D01*
X155003333Y-91402380D02*
X154670000Y-92402380D01*
X154336666Y-91402380D01*
X154003333Y-92402380D02*
X154003333Y-91402380D01*
X153622380Y-91402380D01*
X153527142Y-91450000D01*
X153479523Y-91497619D01*
X153431904Y-91592857D01*
X153431904Y-91735714D01*
X153479523Y-91830952D01*
X153527142Y-91878571D01*
X153622380Y-91926190D01*
X154003333Y-91926190D01*
X153003333Y-92402380D02*
X153003333Y-91402380D01*
X152622380Y-91402380D01*
X152527142Y-91450000D01*
X152479523Y-91497619D01*
X152431904Y-91592857D01*
X152431904Y-91735714D01*
X152479523Y-91830952D01*
X152527142Y-91878571D01*
X152622380Y-91926190D01*
X153003333Y-91926190D01*
X154431904Y-93100000D02*
X154527142Y-93052380D01*
X154670000Y-93052380D01*
X154812857Y-93100000D01*
X154908095Y-93195238D01*
X154955714Y-93290476D01*
X155003333Y-93480952D01*
X155003333Y-93623809D01*
X154955714Y-93814285D01*
X154908095Y-93909523D01*
X154812857Y-94004761D01*
X154670000Y-94052380D01*
X154574761Y-94052380D01*
X154431904Y-94004761D01*
X154384285Y-93957142D01*
X154384285Y-93623809D01*
X154574761Y-93623809D01*
X153955714Y-94052380D02*
X153955714Y-93052380D01*
X153384285Y-94052380D01*
X153384285Y-93052380D01*
X152908095Y-94052380D02*
X152908095Y-93052380D01*
X152670000Y-93052380D01*
X152527142Y-93100000D01*
X152431904Y-93195238D01*
X152384285Y-93290476D01*
X152336666Y-93480952D01*
X152336666Y-93623809D01*
X152384285Y-93814285D01*
X152431904Y-93909523D01*
X152527142Y-94004761D01*
X152670000Y-94052380D01*
X152908095Y-94052380D01*
X154217619Y-95702380D02*
X154550952Y-95226190D01*
X154789047Y-95702380D02*
X154789047Y-94702380D01*
X154408095Y-94702380D01*
X154312857Y-94750000D01*
X154265238Y-94797619D01*
X154217619Y-94892857D01*
X154217619Y-95035714D01*
X154265238Y-95130952D01*
X154312857Y-95178571D01*
X154408095Y-95226190D01*
X154789047Y-95226190D01*
X153836666Y-95654761D02*
X153693809Y-95702380D01*
X153455714Y-95702380D01*
X153360476Y-95654761D01*
X153312857Y-95607142D01*
X153265238Y-95511904D01*
X153265238Y-95416666D01*
X153312857Y-95321428D01*
X153360476Y-95273809D01*
X153455714Y-95226190D01*
X153646190Y-95178571D01*
X153741428Y-95130952D01*
X153789047Y-95083333D01*
X153836666Y-94988095D01*
X153836666Y-94892857D01*
X153789047Y-94797619D01*
X153741428Y-94750000D01*
X153646190Y-94702380D01*
X153408095Y-94702380D01*
X153265238Y-94750000D01*
X152979523Y-94702380D02*
X152408095Y-94702380D01*
X152693809Y-95702380D02*
X152693809Y-94702380D01*
X153836666Y-97352380D02*
X154170000Y-96876190D01*
X154408095Y-97352380D02*
X154408095Y-96352380D01*
X154027142Y-96352380D01*
X153931904Y-96400000D01*
X153884285Y-96447619D01*
X153836666Y-96542857D01*
X153836666Y-96685714D01*
X153884285Y-96780952D01*
X153931904Y-96828571D01*
X154027142Y-96876190D01*
X154408095Y-96876190D01*
X153503333Y-96352380D02*
X152836666Y-97352380D01*
X152836666Y-96352380D02*
X153503333Y-97352380D01*
X154431904Y-98002380D02*
X153860476Y-98002380D01*
X154146190Y-99002380D02*
X154146190Y-98002380D01*
X153622380Y-98002380D02*
X152955714Y-99002380D01*
X152955714Y-98002380D02*
X153622380Y-99002380D01*
X155050952Y-99652380D02*
X154812857Y-100652380D01*
X154622380Y-99938095D01*
X154431904Y-100652380D01*
X154193809Y-99652380D01*
X153812857Y-100652380D02*
X153812857Y-99652380D01*
X153241428Y-100652380D02*
X153670000Y-100080952D01*
X153241428Y-99652380D02*
X153812857Y-100223809D01*
X152812857Y-100128571D02*
X152479523Y-100128571D01*
X152336666Y-100652380D02*
X152812857Y-100652380D01*
X152812857Y-99652380D01*
X152336666Y-99652380D01*
X161311000Y-101716857D02*
X161211000Y-101754952D01*
X161177666Y-101793047D01*
X161144333Y-101869238D01*
X161144333Y-101983523D01*
X161177666Y-102059714D01*
X161211000Y-102097809D01*
X161277666Y-102135904D01*
X161544333Y-102135904D01*
X161544333Y-101335904D01*
X161311000Y-101335904D01*
X161244333Y-101374000D01*
X161211000Y-101412095D01*
X161177666Y-101488285D01*
X161177666Y-101564476D01*
X161211000Y-101640666D01*
X161244333Y-101678761D01*
X161311000Y-101716857D01*
X161544333Y-101716857D01*
X160744333Y-102135904D02*
X160811000Y-102097809D01*
X160844333Y-102059714D01*
X160877666Y-101983523D01*
X160877666Y-101754952D01*
X160844333Y-101678761D01*
X160811000Y-101640666D01*
X160744333Y-101602571D01*
X160644333Y-101602571D01*
X160577666Y-101640666D01*
X160544333Y-101678761D01*
X160511000Y-101754952D01*
X160511000Y-101983523D01*
X160544333Y-102059714D01*
X160577666Y-102097809D01*
X160644333Y-102135904D01*
X160744333Y-102135904D01*
X160244333Y-102097809D02*
X160144333Y-102135904D01*
X159977666Y-102135904D01*
X159911000Y-102097809D01*
X159877666Y-102059714D01*
X159844333Y-101983523D01*
X159844333Y-101907333D01*
X159877666Y-101831142D01*
X159911000Y-101793047D01*
X159977666Y-101754952D01*
X160111000Y-101716857D01*
X160177666Y-101678761D01*
X160211000Y-101640666D01*
X160244333Y-101564476D01*
X160244333Y-101488285D01*
X160211000Y-101412095D01*
X160177666Y-101374000D01*
X160111000Y-101335904D01*
X159944333Y-101335904D01*
X159844333Y-101374000D01*
X159211000Y-102135904D02*
X159544333Y-102135904D01*
X159544333Y-101335904D01*
X158544333Y-101335904D02*
X158311000Y-102135904D01*
X158077666Y-101335904D01*
X157577666Y-102097809D02*
X157644333Y-102135904D01*
X157777666Y-102135904D01*
X157844333Y-102097809D01*
X157877666Y-102021619D01*
X157877666Y-101716857D01*
X157844333Y-101640666D01*
X157777666Y-101602571D01*
X157644333Y-101602571D01*
X157577666Y-101640666D01*
X157544333Y-101716857D01*
X157544333Y-101793047D01*
X157877666Y-101869238D01*
X157144333Y-102135904D02*
X157211000Y-102097809D01*
X157244333Y-102021619D01*
X157244333Y-101335904D01*
X156777666Y-102135904D02*
X156844333Y-102097809D01*
X156877666Y-102059714D01*
X156911000Y-101983523D01*
X156911000Y-101754952D01*
X156877666Y-101678761D01*
X156844333Y-101640666D01*
X156777666Y-101602571D01*
X156677666Y-101602571D01*
X156611000Y-101640666D01*
X156577666Y-101678761D01*
X156544333Y-101754952D01*
X156544333Y-101983523D01*
X156577666Y-102059714D01*
X156611000Y-102097809D01*
X156677666Y-102135904D01*
X156777666Y-102135904D01*
X155944333Y-102097809D02*
X156011000Y-102135904D01*
X156144333Y-102135904D01*
X156211000Y-102097809D01*
X156244333Y-102059714D01*
X156277666Y-101983523D01*
X156277666Y-101754952D01*
X156244333Y-101678761D01*
X156211000Y-101640666D01*
X156144333Y-101602571D01*
X156011000Y-101602571D01*
X155944333Y-101640666D01*
X155644333Y-102135904D02*
X155644333Y-101602571D01*
X155644333Y-101335904D02*
X155677666Y-101374000D01*
X155644333Y-101412095D01*
X155611000Y-101374000D01*
X155644333Y-101335904D01*
X155644333Y-101412095D01*
X155411000Y-101602571D02*
X155144333Y-101602571D01*
X155311000Y-101335904D02*
X155311000Y-102021619D01*
X155277666Y-102097809D01*
X155211000Y-102135904D01*
X155144333Y-102135904D01*
X154977666Y-101602571D02*
X154811000Y-102135904D01*
X154644333Y-101602571D02*
X154811000Y-102135904D01*
X154877666Y-102326380D01*
X154911000Y-102364476D01*
X154977666Y-102402571D01*
X162544333Y-102685904D02*
X162111000Y-102685904D01*
X162344333Y-102990666D01*
X162244333Y-102990666D01*
X162177666Y-103028761D01*
X162144333Y-103066857D01*
X162111000Y-103143047D01*
X162111000Y-103333523D01*
X162144333Y-103409714D01*
X162177666Y-103447809D01*
X162244333Y-103485904D01*
X162444333Y-103485904D01*
X162511000Y-103447809D01*
X162544333Y-103409714D01*
X161911000Y-102685904D02*
X161677666Y-103485904D01*
X161444333Y-102685904D01*
X161277666Y-102685904D02*
X160844333Y-102685904D01*
X161077666Y-102990666D01*
X160977666Y-102990666D01*
X160911000Y-103028761D01*
X160877666Y-103066857D01*
X160844333Y-103143047D01*
X160844333Y-103333523D01*
X160877666Y-103409714D01*
X160911000Y-103447809D01*
X160977666Y-103485904D01*
X161177666Y-103485904D01*
X161244333Y-103447809D01*
X161277666Y-103409714D01*
X160544333Y-103181142D02*
X160011000Y-103181142D01*
X159344333Y-102685904D02*
X159677666Y-102685904D01*
X159711000Y-103066857D01*
X159677666Y-103028761D01*
X159611000Y-102990666D01*
X159444333Y-102990666D01*
X159377666Y-103028761D01*
X159344333Y-103066857D01*
X159311000Y-103143047D01*
X159311000Y-103333523D01*
X159344333Y-103409714D01*
X159377666Y-103447809D01*
X159444333Y-103485904D01*
X159611000Y-103485904D01*
X159677666Y-103447809D01*
X159711000Y-103409714D01*
X159111000Y-102685904D02*
X158877666Y-103485904D01*
X158644333Y-102685904D01*
X157477666Y-103409714D02*
X157511000Y-103447809D01*
X157611000Y-103485904D01*
X157677666Y-103485904D01*
X157777666Y-103447809D01*
X157844333Y-103371619D01*
X157877666Y-103295428D01*
X157911000Y-103143047D01*
X157911000Y-103028761D01*
X157877666Y-102876380D01*
X157844333Y-102800190D01*
X157777666Y-102724000D01*
X157677666Y-102685904D01*
X157611000Y-102685904D01*
X157511000Y-102724000D01*
X157477666Y-102762095D01*
X157077666Y-103485904D02*
X157144333Y-103447809D01*
X157177666Y-103409714D01*
X157211000Y-103333523D01*
X157211000Y-103104952D01*
X157177666Y-103028761D01*
X157144333Y-102990666D01*
X157077666Y-102952571D01*
X156977666Y-102952571D01*
X156911000Y-102990666D01*
X156877666Y-103028761D01*
X156844333Y-103104952D01*
X156844333Y-103333523D01*
X156877666Y-103409714D01*
X156911000Y-103447809D01*
X156977666Y-103485904D01*
X157077666Y-103485904D01*
X156544333Y-102952571D02*
X156544333Y-103485904D01*
X156544333Y-103028761D02*
X156511000Y-102990666D01*
X156444333Y-102952571D01*
X156344333Y-102952571D01*
X156277666Y-102990666D01*
X156244333Y-103066857D01*
X156244333Y-103485904D01*
X155977666Y-102952571D02*
X155811000Y-103485904D01*
X155644333Y-102952571D01*
X155111000Y-103447809D02*
X155177666Y-103485904D01*
X155311000Y-103485904D01*
X155377666Y-103447809D01*
X155411000Y-103371619D01*
X155411000Y-103066857D01*
X155377666Y-102990666D01*
X155311000Y-102952571D01*
X155177666Y-102952571D01*
X155111000Y-102990666D01*
X155077666Y-103066857D01*
X155077666Y-103143047D01*
X155411000Y-103219238D01*
X154777666Y-103485904D02*
X154777666Y-102952571D01*
X154777666Y-103104952D02*
X154744333Y-103028761D01*
X154711000Y-102990666D01*
X154644333Y-102952571D01*
X154577666Y-102952571D01*
X154444333Y-102952571D02*
X154177666Y-102952571D01*
X154344333Y-102685904D02*
X154344333Y-103371619D01*
X154311000Y-103447809D01*
X154244333Y-103485904D01*
X154177666Y-103485904D01*
X153677666Y-103447809D02*
X153744333Y-103485904D01*
X153877666Y-103485904D01*
X153944333Y-103447809D01*
X153977666Y-103371619D01*
X153977666Y-103066857D01*
X153944333Y-102990666D01*
X153877666Y-102952571D01*
X153744333Y-102952571D01*
X153677666Y-102990666D01*
X153644333Y-103066857D01*
X153644333Y-103143047D01*
X153977666Y-103219238D01*
X153344333Y-103485904D02*
X153344333Y-102952571D01*
X153344333Y-103104952D02*
X153311000Y-103028761D01*
X153277666Y-102990666D01*
X153211000Y-102952571D01*
X153144333Y-102952571D01*
X159577666Y-104835904D02*
X159577666Y-104302571D01*
X159577666Y-104454952D02*
X159544333Y-104378761D01*
X159511000Y-104340666D01*
X159444333Y-104302571D01*
X159377666Y-104302571D01*
X158877666Y-104797809D02*
X158944333Y-104835904D01*
X159077666Y-104835904D01*
X159144333Y-104797809D01*
X159177666Y-104721619D01*
X159177666Y-104416857D01*
X159144333Y-104340666D01*
X159077666Y-104302571D01*
X158944333Y-104302571D01*
X158877666Y-104340666D01*
X158844333Y-104416857D01*
X158844333Y-104493047D01*
X159177666Y-104569238D01*
X158611000Y-104302571D02*
X158444333Y-104835904D01*
X158277666Y-104302571D01*
X157344333Y-104035904D02*
X157277666Y-104035904D01*
X157211000Y-104074000D01*
X157177666Y-104112095D01*
X157144333Y-104188285D01*
X157111000Y-104340666D01*
X157111000Y-104531142D01*
X157144333Y-104683523D01*
X157177666Y-104759714D01*
X157211000Y-104797809D01*
X157277666Y-104835904D01*
X157344333Y-104835904D01*
X157411000Y-104797809D01*
X157444333Y-104759714D01*
X157477666Y-104683523D01*
X157511000Y-104531142D01*
X157511000Y-104340666D01*
X157477666Y-104188285D01*
X157444333Y-104112095D01*
X157411000Y-104074000D01*
X157344333Y-104035904D01*
X156811000Y-104759714D02*
X156777666Y-104797809D01*
X156811000Y-104835904D01*
X156844333Y-104797809D01*
X156811000Y-104759714D01*
X156811000Y-104835904D01*
X156511000Y-104112095D02*
X156477666Y-104074000D01*
X156411000Y-104035904D01*
X156244333Y-104035904D01*
X156177666Y-104074000D01*
X156144333Y-104112095D01*
X156111000Y-104188285D01*
X156111000Y-104264476D01*
X156144333Y-104378761D01*
X156544333Y-104835904D01*
X156111000Y-104835904D01*
D12*
X153432000Y-86039500D02*
X153432000Y-88839500D01*
X153432000Y-88839500D02*
X155432000Y-88839500D01*
X155432000Y-88839500D02*
X155432000Y-86039500D01*
X155432000Y-86039500D02*
X153432000Y-86039500D01*
D10*
X152084380Y-86606166D02*
X152798666Y-86606166D01*
X152941523Y-86558547D01*
X153036761Y-86463309D01*
X153084380Y-86320452D01*
X153084380Y-86225214D01*
X153084380Y-87082357D02*
X152084380Y-87082357D01*
X152084380Y-87463309D01*
X152132000Y-87558547D01*
X152179619Y-87606166D01*
X152274857Y-87653785D01*
X152417714Y-87653785D01*
X152512952Y-87606166D01*
X152560571Y-87558547D01*
X152608190Y-87463309D01*
X152608190Y-87082357D01*
X153084380Y-88606166D02*
X153084380Y-88034738D01*
X153084380Y-88320452D02*
X152084380Y-88320452D01*
X152227238Y-88225214D01*
X152322476Y-88129976D01*
X152370095Y-88034738D01*
M02*
