M48
; DRILL file {KiCad (5.1.5)-3} date 2020/08/04 19:08:34
; FORMAT={-:-/ absolute / inch / decimal}
; #@! TF.CreationDate,2020-08-04T19:08:34+10:00
; #@! TF.GenerationSoftware,Kicad,Pcbnew,(5.1.5)-3
FMAT,2
INCH
T1C0.0157
T2C0.0394
%
G90
G05
T1
X6.07Y-3.345
X6.125Y-3.665
X6.165Y-3.92
X6.165Y-3.4883
X6.1965Y-3.6591
X6.2044Y-3.478
X6.2517Y-3.6591
X6.2959Y-3.5301
X6.345Y-4.01
X6.35Y-3.66
X6.35Y-3.815
X6.41Y-3.51
X6.425Y-3.685
X6.48Y-3.46
X6.535Y-4.1
X6.54Y-3.87
T2
X6.6Y-3.52
X6.6Y-3.62
X6.6Y-3.72
X6.6Y-3.82
X6.6Y-3.92
X6.6Y-4.02
X5.93Y-3.42
X5.93Y-3.52
X5.93Y-3.62
X5.93Y-3.72
X5.93Y-3.82
X5.93Y-3.92
X5.93Y-4.02
T0
M30
