G04 #@! TF.GenerationSoftware,KiCad,Pcbnew,(5.1.5)-3*
G04 #@! TF.CreationDate,2020-08-04T19:08:33+10:00*
G04 #@! TF.ProjectId,Interconnect,496e7465-7263-46f6-9e6e-6563742e6b69,rev 0.2*
G04 #@! TF.SameCoordinates,Original*
G04 #@! TF.FileFunction,Legend,Top*
G04 #@! TF.FilePolarity,Positive*
%FSLAX46Y46*%
G04 Gerber Fmt 4.6, Leading zero omitted, Abs format (unit mm)*
G04 Created by KiCad (PCBNEW (5.1.5)-3) date 2020-08-04 19:08:33*
%MOMM*%
%LPD*%
G04 APERTURE LIST*
%ADD10C,0.120000*%
%ADD11C,0.150000*%
G04 APERTURE END LIST*
D10*
X166243000Y-99568000D02*
X166497000Y-99568000D01*
X165735000Y-100584000D02*
X166243000Y-99568000D01*
X165100000Y-100584000D02*
X165735000Y-100584000D01*
X166243000Y-97028000D02*
X166497000Y-97028000D01*
X165735000Y-95758000D02*
X166243000Y-97028000D01*
X165100000Y-95758000D02*
X165735000Y-95758000D01*
D11*
X166535238Y-103955904D02*
X166725714Y-104755904D01*
X166878095Y-104184476D01*
X167030476Y-104755904D01*
X167220952Y-103955904D01*
X167525714Y-104755904D02*
X167525714Y-103955904D01*
X167982857Y-104755904D02*
X167640000Y-104298761D01*
X167982857Y-103955904D02*
X167525714Y-104413047D01*
X168325714Y-104336857D02*
X168592380Y-104336857D01*
X168706666Y-104755904D02*
X168325714Y-104755904D01*
X168325714Y-103955904D01*
X168706666Y-103955904D01*
X163220476Y-100145904D02*
X163677619Y-100145904D01*
X163449047Y-100945904D02*
X163449047Y-100145904D01*
X163868095Y-100145904D02*
X164401428Y-100945904D01*
X164401428Y-100145904D02*
X163868095Y-100945904D01*
X163696666Y-96119904D02*
X163430000Y-95738952D01*
X163239523Y-96119904D02*
X163239523Y-95319904D01*
X163544285Y-95319904D01*
X163620476Y-95358000D01*
X163658571Y-95396095D01*
X163696666Y-95472285D01*
X163696666Y-95586571D01*
X163658571Y-95662761D01*
X163620476Y-95700857D01*
X163544285Y-95738952D01*
X163239523Y-95738952D01*
X163963333Y-95319904D02*
X164496666Y-96119904D01*
X164496666Y-95319904D02*
X163963333Y-96119904D01*
X152760000Y-103153857D02*
X152860000Y-103191952D01*
X152893333Y-103230047D01*
X152926666Y-103306238D01*
X152926666Y-103420523D01*
X152893333Y-103496714D01*
X152860000Y-103534809D01*
X152793333Y-103572904D01*
X152526666Y-103572904D01*
X152526666Y-102772904D01*
X152760000Y-102772904D01*
X152826666Y-102811000D01*
X152860000Y-102849095D01*
X152893333Y-102925285D01*
X152893333Y-103001476D01*
X152860000Y-103077666D01*
X152826666Y-103115761D01*
X152760000Y-103153857D01*
X152526666Y-103153857D01*
X153326666Y-103572904D02*
X153260000Y-103534809D01*
X153226666Y-103496714D01*
X153193333Y-103420523D01*
X153193333Y-103191952D01*
X153226666Y-103115761D01*
X153260000Y-103077666D01*
X153326666Y-103039571D01*
X153426666Y-103039571D01*
X153493333Y-103077666D01*
X153526666Y-103115761D01*
X153560000Y-103191952D01*
X153560000Y-103420523D01*
X153526666Y-103496714D01*
X153493333Y-103534809D01*
X153426666Y-103572904D01*
X153326666Y-103572904D01*
X153826666Y-103534809D02*
X153926666Y-103572904D01*
X154093333Y-103572904D01*
X154160000Y-103534809D01*
X154193333Y-103496714D01*
X154226666Y-103420523D01*
X154226666Y-103344333D01*
X154193333Y-103268142D01*
X154160000Y-103230047D01*
X154093333Y-103191952D01*
X153960000Y-103153857D01*
X153893333Y-103115761D01*
X153860000Y-103077666D01*
X153826666Y-103001476D01*
X153826666Y-102925285D01*
X153860000Y-102849095D01*
X153893333Y-102811000D01*
X153960000Y-102772904D01*
X154126666Y-102772904D01*
X154226666Y-102811000D01*
X154860000Y-103572904D02*
X154526666Y-103572904D01*
X154526666Y-102772904D01*
X155526666Y-102772904D02*
X155760000Y-103572904D01*
X155993333Y-102772904D01*
X156493333Y-103534809D02*
X156426666Y-103572904D01*
X156293333Y-103572904D01*
X156226666Y-103534809D01*
X156193333Y-103458619D01*
X156193333Y-103153857D01*
X156226666Y-103077666D01*
X156293333Y-103039571D01*
X156426666Y-103039571D01*
X156493333Y-103077666D01*
X156526666Y-103153857D01*
X156526666Y-103230047D01*
X156193333Y-103306238D01*
X156926666Y-103572904D02*
X156860000Y-103534809D01*
X156826666Y-103458619D01*
X156826666Y-102772904D01*
X157293333Y-103572904D02*
X157226666Y-103534809D01*
X157193333Y-103496714D01*
X157160000Y-103420523D01*
X157160000Y-103191952D01*
X157193333Y-103115761D01*
X157226666Y-103077666D01*
X157293333Y-103039571D01*
X157393333Y-103039571D01*
X157460000Y-103077666D01*
X157493333Y-103115761D01*
X157526666Y-103191952D01*
X157526666Y-103420523D01*
X157493333Y-103496714D01*
X157460000Y-103534809D01*
X157393333Y-103572904D01*
X157293333Y-103572904D01*
X158126666Y-103534809D02*
X158060000Y-103572904D01*
X157926666Y-103572904D01*
X157860000Y-103534809D01*
X157826666Y-103496714D01*
X157793333Y-103420523D01*
X157793333Y-103191952D01*
X157826666Y-103115761D01*
X157860000Y-103077666D01*
X157926666Y-103039571D01*
X158060000Y-103039571D01*
X158126666Y-103077666D01*
X158426666Y-103572904D02*
X158426666Y-103039571D01*
X158426666Y-102772904D02*
X158393333Y-102811000D01*
X158426666Y-102849095D01*
X158460000Y-102811000D01*
X158426666Y-102772904D01*
X158426666Y-102849095D01*
X158660000Y-103039571D02*
X158926666Y-103039571D01*
X158760000Y-102772904D02*
X158760000Y-103458619D01*
X158793333Y-103534809D01*
X158860000Y-103572904D01*
X158926666Y-103572904D01*
X159093333Y-103039571D02*
X159260000Y-103572904D01*
X159426666Y-103039571D02*
X159260000Y-103572904D01*
X159193333Y-103763380D01*
X159160000Y-103801476D01*
X159093333Y-103839571D01*
X151526666Y-104122904D02*
X151960000Y-104122904D01*
X151726666Y-104427666D01*
X151826666Y-104427666D01*
X151893333Y-104465761D01*
X151926666Y-104503857D01*
X151960000Y-104580047D01*
X151960000Y-104770523D01*
X151926666Y-104846714D01*
X151893333Y-104884809D01*
X151826666Y-104922904D01*
X151626666Y-104922904D01*
X151560000Y-104884809D01*
X151526666Y-104846714D01*
X152160000Y-104122904D02*
X152393333Y-104922904D01*
X152626666Y-104122904D01*
X152793333Y-104122904D02*
X153226666Y-104122904D01*
X152993333Y-104427666D01*
X153093333Y-104427666D01*
X153160000Y-104465761D01*
X153193333Y-104503857D01*
X153226666Y-104580047D01*
X153226666Y-104770523D01*
X153193333Y-104846714D01*
X153160000Y-104884809D01*
X153093333Y-104922904D01*
X152893333Y-104922904D01*
X152826666Y-104884809D01*
X152793333Y-104846714D01*
X153526666Y-104618142D02*
X154060000Y-104618142D01*
X154726666Y-104122904D02*
X154393333Y-104122904D01*
X154360000Y-104503857D01*
X154393333Y-104465761D01*
X154460000Y-104427666D01*
X154626666Y-104427666D01*
X154693333Y-104465761D01*
X154726666Y-104503857D01*
X154760000Y-104580047D01*
X154760000Y-104770523D01*
X154726666Y-104846714D01*
X154693333Y-104884809D01*
X154626666Y-104922904D01*
X154460000Y-104922904D01*
X154393333Y-104884809D01*
X154360000Y-104846714D01*
X154960000Y-104122904D02*
X155193333Y-104922904D01*
X155426666Y-104122904D01*
X156593333Y-104846714D02*
X156560000Y-104884809D01*
X156460000Y-104922904D01*
X156393333Y-104922904D01*
X156293333Y-104884809D01*
X156226666Y-104808619D01*
X156193333Y-104732428D01*
X156160000Y-104580047D01*
X156160000Y-104465761D01*
X156193333Y-104313380D01*
X156226666Y-104237190D01*
X156293333Y-104161000D01*
X156393333Y-104122904D01*
X156460000Y-104122904D01*
X156560000Y-104161000D01*
X156593333Y-104199095D01*
X156993333Y-104922904D02*
X156926666Y-104884809D01*
X156893333Y-104846714D01*
X156860000Y-104770523D01*
X156860000Y-104541952D01*
X156893333Y-104465761D01*
X156926666Y-104427666D01*
X156993333Y-104389571D01*
X157093333Y-104389571D01*
X157160000Y-104427666D01*
X157193333Y-104465761D01*
X157226666Y-104541952D01*
X157226666Y-104770523D01*
X157193333Y-104846714D01*
X157160000Y-104884809D01*
X157093333Y-104922904D01*
X156993333Y-104922904D01*
X157526666Y-104389571D02*
X157526666Y-104922904D01*
X157526666Y-104465761D02*
X157560000Y-104427666D01*
X157626666Y-104389571D01*
X157726666Y-104389571D01*
X157793333Y-104427666D01*
X157826666Y-104503857D01*
X157826666Y-104922904D01*
X158093333Y-104389571D02*
X158260000Y-104922904D01*
X158426666Y-104389571D01*
X158960000Y-104884809D02*
X158893333Y-104922904D01*
X158760000Y-104922904D01*
X158693333Y-104884809D01*
X158660000Y-104808619D01*
X158660000Y-104503857D01*
X158693333Y-104427666D01*
X158760000Y-104389571D01*
X158893333Y-104389571D01*
X158960000Y-104427666D01*
X158993333Y-104503857D01*
X158993333Y-104580047D01*
X158660000Y-104656238D01*
X159293333Y-104922904D02*
X159293333Y-104389571D01*
X159293333Y-104541952D02*
X159326666Y-104465761D01*
X159360000Y-104427666D01*
X159426666Y-104389571D01*
X159493333Y-104389571D01*
X159626666Y-104389571D02*
X159893333Y-104389571D01*
X159726666Y-104122904D02*
X159726666Y-104808619D01*
X159760000Y-104884809D01*
X159826666Y-104922904D01*
X159893333Y-104922904D01*
X160393333Y-104884809D02*
X160326666Y-104922904D01*
X160193333Y-104922904D01*
X160126666Y-104884809D01*
X160093333Y-104808619D01*
X160093333Y-104503857D01*
X160126666Y-104427666D01*
X160193333Y-104389571D01*
X160326666Y-104389571D01*
X160393333Y-104427666D01*
X160426666Y-104503857D01*
X160426666Y-104580047D01*
X160093333Y-104656238D01*
X160726666Y-104922904D02*
X160726666Y-104389571D01*
X160726666Y-104541952D02*
X160760000Y-104465761D01*
X160793333Y-104427666D01*
X160860000Y-104389571D01*
X160926666Y-104389571D01*
X152931904Y-90228571D02*
X153265238Y-90228571D01*
X153408095Y-90752380D02*
X152931904Y-90752380D01*
X152931904Y-89752380D01*
X153408095Y-89752380D01*
X153836666Y-90752380D02*
X153836666Y-89752380D01*
X154408095Y-90752380D01*
X154408095Y-89752380D01*
X152336666Y-91402380D02*
X152670000Y-92402380D01*
X153003333Y-91402380D01*
X153336666Y-92402380D02*
X153336666Y-91402380D01*
X153717619Y-91402380D01*
X153812857Y-91450000D01*
X153860476Y-91497619D01*
X153908095Y-91592857D01*
X153908095Y-91735714D01*
X153860476Y-91830952D01*
X153812857Y-91878571D01*
X153717619Y-91926190D01*
X153336666Y-91926190D01*
X154336666Y-92402380D02*
X154336666Y-91402380D01*
X154717619Y-91402380D01*
X154812857Y-91450000D01*
X154860476Y-91497619D01*
X154908095Y-91592857D01*
X154908095Y-91735714D01*
X154860476Y-91830952D01*
X154812857Y-91878571D01*
X154717619Y-91926190D01*
X154336666Y-91926190D01*
X152908095Y-93100000D02*
X152812857Y-93052380D01*
X152670000Y-93052380D01*
X152527142Y-93100000D01*
X152431904Y-93195238D01*
X152384285Y-93290476D01*
X152336666Y-93480952D01*
X152336666Y-93623809D01*
X152384285Y-93814285D01*
X152431904Y-93909523D01*
X152527142Y-94004761D01*
X152670000Y-94052380D01*
X152765238Y-94052380D01*
X152908095Y-94004761D01*
X152955714Y-93957142D01*
X152955714Y-93623809D01*
X152765238Y-93623809D01*
X153384285Y-94052380D02*
X153384285Y-93052380D01*
X153955714Y-94052380D01*
X153955714Y-93052380D01*
X154431904Y-94052380D02*
X154431904Y-93052380D01*
X154670000Y-93052380D01*
X154812857Y-93100000D01*
X154908095Y-93195238D01*
X154955714Y-93290476D01*
X155003333Y-93480952D01*
X155003333Y-93623809D01*
X154955714Y-93814285D01*
X154908095Y-93909523D01*
X154812857Y-94004761D01*
X154670000Y-94052380D01*
X154431904Y-94052380D01*
X153122380Y-95702380D02*
X152789047Y-95226190D01*
X152550952Y-95702380D02*
X152550952Y-94702380D01*
X152931904Y-94702380D01*
X153027142Y-94750000D01*
X153074761Y-94797619D01*
X153122380Y-94892857D01*
X153122380Y-95035714D01*
X153074761Y-95130952D01*
X153027142Y-95178571D01*
X152931904Y-95226190D01*
X152550952Y-95226190D01*
X153503333Y-95654761D02*
X153646190Y-95702380D01*
X153884285Y-95702380D01*
X153979523Y-95654761D01*
X154027142Y-95607142D01*
X154074761Y-95511904D01*
X154074761Y-95416666D01*
X154027142Y-95321428D01*
X153979523Y-95273809D01*
X153884285Y-95226190D01*
X153693809Y-95178571D01*
X153598571Y-95130952D01*
X153550952Y-95083333D01*
X153503333Y-94988095D01*
X153503333Y-94892857D01*
X153550952Y-94797619D01*
X153598571Y-94750000D01*
X153693809Y-94702380D01*
X153931904Y-94702380D01*
X154074761Y-94750000D01*
X154360476Y-94702380D02*
X154931904Y-94702380D01*
X154646190Y-95702380D02*
X154646190Y-94702380D01*
X153503333Y-97352380D02*
X153170000Y-96876190D01*
X152931904Y-97352380D02*
X152931904Y-96352380D01*
X153312857Y-96352380D01*
X153408095Y-96400000D01*
X153455714Y-96447619D01*
X153503333Y-96542857D01*
X153503333Y-96685714D01*
X153455714Y-96780952D01*
X153408095Y-96828571D01*
X153312857Y-96876190D01*
X152931904Y-96876190D01*
X153836666Y-96352380D02*
X154503333Y-97352380D01*
X154503333Y-96352380D02*
X153836666Y-97352380D01*
X152908095Y-98002380D02*
X153479523Y-98002380D01*
X153193809Y-99002380D02*
X153193809Y-98002380D01*
X153717619Y-98002380D02*
X154384285Y-99002380D01*
X154384285Y-98002380D02*
X153717619Y-99002380D01*
X152289047Y-99652380D02*
X152527142Y-100652380D01*
X152717619Y-99938095D01*
X152908095Y-100652380D01*
X153146190Y-99652380D01*
X153527142Y-100652380D02*
X153527142Y-99652380D01*
X154098571Y-100652380D02*
X153670000Y-100080952D01*
X154098571Y-99652380D02*
X153527142Y-100223809D01*
X154527142Y-100128571D02*
X154860476Y-100128571D01*
X155003333Y-100652380D02*
X154527142Y-100652380D01*
X154527142Y-99652380D01*
X155003333Y-99652380D01*
X167487619Y-84063904D02*
X167106666Y-84063904D01*
X167068571Y-84444857D01*
X167106666Y-84406761D01*
X167182857Y-84368666D01*
X167373333Y-84368666D01*
X167449523Y-84406761D01*
X167487619Y-84444857D01*
X167525714Y-84521047D01*
X167525714Y-84711523D01*
X167487619Y-84787714D01*
X167449523Y-84825809D01*
X167373333Y-84863904D01*
X167182857Y-84863904D01*
X167106666Y-84825809D01*
X167068571Y-84787714D01*
X167754285Y-84063904D02*
X168020952Y-84863904D01*
X168287619Y-84063904D01*
X167030476Y-85452000D02*
X166954285Y-85413904D01*
X166840000Y-85413904D01*
X166725714Y-85452000D01*
X166649523Y-85528190D01*
X166611428Y-85604380D01*
X166573333Y-85756761D01*
X166573333Y-85871047D01*
X166611428Y-86023428D01*
X166649523Y-86099619D01*
X166725714Y-86175809D01*
X166840000Y-86213904D01*
X166916190Y-86213904D01*
X167030476Y-86175809D01*
X167068571Y-86137714D01*
X167068571Y-85871047D01*
X166916190Y-85871047D01*
X167411428Y-86213904D02*
X167411428Y-85413904D01*
X167868571Y-86213904D01*
X167868571Y-85413904D01*
X168249523Y-86213904D02*
X168249523Y-85413904D01*
X168440000Y-85413904D01*
X168554285Y-85452000D01*
X168630476Y-85528190D01*
X168668571Y-85604380D01*
X168706666Y-85756761D01*
X168706666Y-85871047D01*
X168668571Y-86023428D01*
X168630476Y-86099619D01*
X168554285Y-86175809D01*
X168440000Y-86213904D01*
X168249523Y-86213904D01*
X167201904Y-87563904D02*
X166935238Y-87182952D01*
X166744761Y-87563904D02*
X166744761Y-86763904D01*
X167049523Y-86763904D01*
X167125714Y-86802000D01*
X167163809Y-86840095D01*
X167201904Y-86916285D01*
X167201904Y-87030571D01*
X167163809Y-87106761D01*
X167125714Y-87144857D01*
X167049523Y-87182952D01*
X166744761Y-87182952D01*
X167506666Y-87525809D02*
X167620952Y-87563904D01*
X167811428Y-87563904D01*
X167887619Y-87525809D01*
X167925714Y-87487714D01*
X167963809Y-87411523D01*
X167963809Y-87335333D01*
X167925714Y-87259142D01*
X167887619Y-87221047D01*
X167811428Y-87182952D01*
X167659047Y-87144857D01*
X167582857Y-87106761D01*
X167544761Y-87068666D01*
X167506666Y-86992476D01*
X167506666Y-86916285D01*
X167544761Y-86840095D01*
X167582857Y-86802000D01*
X167659047Y-86763904D01*
X167849523Y-86763904D01*
X167963809Y-86802000D01*
X168192380Y-86763904D02*
X168649523Y-86763904D01*
X168420952Y-87563904D02*
X168420952Y-86763904D01*
D10*
X167640000Y-103438000D02*
X166530000Y-103438000D01*
X166530000Y-103438000D02*
X166530000Y-102108000D01*
X177730000Y-103438000D02*
X177730000Y-88078000D01*
X177730000Y-88078000D02*
X169100000Y-88078000D01*
X169100000Y-103438000D02*
X169100000Y-88078000D01*
X177730000Y-103438000D02*
X169100000Y-103438000D01*
X177730000Y-90678000D02*
X169100000Y-90678000D01*
X177730000Y-93218000D02*
X169100000Y-93218000D01*
X177730000Y-95758000D02*
X169100000Y-95758000D01*
X177730000Y-98298000D02*
X169100000Y-98298000D01*
X177730000Y-100838000D02*
X169100000Y-100838000D01*
X169100000Y-89048000D02*
X168690000Y-89048000D01*
X169100000Y-89768000D02*
X168690000Y-89768000D01*
X169100000Y-91588000D02*
X168690000Y-91588000D01*
X169100000Y-92308000D02*
X168690000Y-92308000D01*
X169100000Y-94128000D02*
X168690000Y-94128000D01*
X169100000Y-94848000D02*
X168690000Y-94848000D01*
X169100000Y-96668000D02*
X168690000Y-96668000D01*
X169100000Y-97388000D02*
X168690000Y-97388000D01*
X169100000Y-99208000D02*
X168690000Y-99208000D01*
X169100000Y-99928000D02*
X168690000Y-99928000D01*
X169100000Y-101748000D02*
X168750000Y-101748000D01*
X169100000Y-102468000D02*
X168750000Y-102468000D01*
X177730000Y-100956100D02*
X169100000Y-100956100D01*
X177730000Y-101074195D02*
X169100000Y-101074195D01*
X177730000Y-101192290D02*
X169100000Y-101192290D01*
X177730000Y-101310385D02*
X169100000Y-101310385D01*
X177730000Y-101428480D02*
X169100000Y-101428480D01*
X177730000Y-101546575D02*
X169100000Y-101546575D01*
X177730000Y-101664670D02*
X169100000Y-101664670D01*
X177730000Y-101782765D02*
X169100000Y-101782765D01*
X177730000Y-101900860D02*
X169100000Y-101900860D01*
X177730000Y-102018955D02*
X169100000Y-102018955D01*
X177730000Y-102137050D02*
X169100000Y-102137050D01*
X177730000Y-102255145D02*
X169100000Y-102255145D01*
X177730000Y-102373240D02*
X169100000Y-102373240D01*
X177730000Y-102491335D02*
X169100000Y-102491335D01*
X177730000Y-102609430D02*
X169100000Y-102609430D01*
X177730000Y-102727525D02*
X169100000Y-102727525D01*
X177730000Y-102845620D02*
X169100000Y-102845620D01*
X177730000Y-102963715D02*
X169100000Y-102963715D01*
X177730000Y-103081810D02*
X169100000Y-103081810D01*
X177730000Y-103199905D02*
X169100000Y-103199905D01*
X177730000Y-103318000D02*
X169100000Y-103318000D01*
X150622000Y-85538000D02*
X151732000Y-85538000D01*
X151732000Y-85538000D02*
X151732000Y-86868000D01*
X140532000Y-85538000D02*
X140532000Y-103438000D01*
X140532000Y-103438000D02*
X149162000Y-103438000D01*
X149162000Y-85538000D02*
X149162000Y-103438000D01*
X140532000Y-85538000D02*
X149162000Y-85538000D01*
X140532000Y-100838000D02*
X149162000Y-100838000D01*
X140532000Y-98298000D02*
X149162000Y-98298000D01*
X140532000Y-95758000D02*
X149162000Y-95758000D01*
X140532000Y-93218000D02*
X149162000Y-93218000D01*
X140532000Y-90678000D02*
X149162000Y-90678000D01*
X140532000Y-88138000D02*
X149162000Y-88138000D01*
X149162000Y-102468000D02*
X149572000Y-102468000D01*
X149162000Y-101748000D02*
X149572000Y-101748000D01*
X149162000Y-99928000D02*
X149572000Y-99928000D01*
X149162000Y-99208000D02*
X149572000Y-99208000D01*
X149162000Y-97388000D02*
X149572000Y-97388000D01*
X149162000Y-96668000D02*
X149572000Y-96668000D01*
X149162000Y-94848000D02*
X149572000Y-94848000D01*
X149162000Y-94128000D02*
X149572000Y-94128000D01*
X149162000Y-92308000D02*
X149572000Y-92308000D01*
X149162000Y-91588000D02*
X149572000Y-91588000D01*
X149162000Y-89768000D02*
X149572000Y-89768000D01*
X149162000Y-89048000D02*
X149572000Y-89048000D01*
X149162000Y-87228000D02*
X149512000Y-87228000D01*
X149162000Y-86508000D02*
X149512000Y-86508000D01*
X140532000Y-88019900D02*
X149162000Y-88019900D01*
X140532000Y-87901805D02*
X149162000Y-87901805D01*
X140532000Y-87783710D02*
X149162000Y-87783710D01*
X140532000Y-87665615D02*
X149162000Y-87665615D01*
X140532000Y-87547520D02*
X149162000Y-87547520D01*
X140532000Y-87429425D02*
X149162000Y-87429425D01*
X140532000Y-87311330D02*
X149162000Y-87311330D01*
X140532000Y-87193235D02*
X149162000Y-87193235D01*
X140532000Y-87075140D02*
X149162000Y-87075140D01*
X140532000Y-86957045D02*
X149162000Y-86957045D01*
X140532000Y-86838950D02*
X149162000Y-86838950D01*
X140532000Y-86720855D02*
X149162000Y-86720855D01*
X140532000Y-86602760D02*
X149162000Y-86602760D01*
X140532000Y-86484665D02*
X149162000Y-86484665D01*
X140532000Y-86366570D02*
X149162000Y-86366570D01*
X140532000Y-86248475D02*
X149162000Y-86248475D01*
X140532000Y-86130380D02*
X149162000Y-86130380D01*
X140532000Y-86012285D02*
X149162000Y-86012285D01*
X140532000Y-85894190D02*
X149162000Y-85894190D01*
X140532000Y-85776095D02*
X149162000Y-85776095D01*
X140532000Y-85658000D02*
X149162000Y-85658000D01*
X164336000Y-91355721D02*
X164336000Y-91681279D01*
X165356000Y-91355721D02*
X165356000Y-91681279D01*
X163705000Y-91704279D02*
X163705000Y-91378721D01*
X162685000Y-91704279D02*
X162685000Y-91378721D01*
X153989721Y-87378000D02*
X154315279Y-87378000D01*
X153989721Y-86358000D02*
X154315279Y-86358000D01*
X160832000Y-86240000D02*
X160832000Y-87640000D01*
X163152000Y-87640000D02*
X163152000Y-85740000D01*
X163882000Y-86687922D02*
X163882000Y-87205078D01*
X165302000Y-86687922D02*
X165302000Y-87205078D01*
X161966000Y-102308000D02*
X161966000Y-104758000D01*
X165186000Y-104108000D02*
X165186000Y-102308000D01*
X157222000Y-99768000D02*
X157222000Y-102218000D01*
X160442000Y-101568000D02*
X160442000Y-99768000D01*
X162032000Y-97228000D02*
X162032000Y-99678000D01*
X165252000Y-99028000D02*
X165252000Y-97228000D01*
X157222000Y-94688000D02*
X157222000Y-97138000D01*
X160442000Y-96488000D02*
X160442000Y-94688000D01*
X159952000Y-91240000D02*
X159952000Y-89840000D01*
X157632000Y-89840000D02*
X157632000Y-91740000D01*
X156192000Y-87940000D02*
X159192000Y-87940000D01*
X156192000Y-84740000D02*
X159192000Y-84740000D01*
X160482000Y-90343922D02*
X160482000Y-90861078D01*
X161902000Y-90343922D02*
X161902000Y-90861078D01*
X154882000Y-90281422D02*
X154882000Y-90798578D01*
X156302000Y-90281422D02*
X156302000Y-90798578D01*
D11*
X170291166Y-86764880D02*
X170291166Y-87479166D01*
X170243547Y-87622023D01*
X170148309Y-87717261D01*
X170005452Y-87764880D01*
X169910214Y-87764880D01*
X170719738Y-86860119D02*
X170767357Y-86812500D01*
X170862595Y-86764880D01*
X171100690Y-86764880D01*
X171195928Y-86812500D01*
X171243547Y-86860119D01*
X171291166Y-86955357D01*
X171291166Y-87050595D01*
X171243547Y-87193452D01*
X170672119Y-87764880D01*
X171291166Y-87764880D01*
X147812166Y-84288380D02*
X147812166Y-85002666D01*
X147764547Y-85145523D01*
X147669309Y-85240761D01*
X147526452Y-85288380D01*
X147431214Y-85288380D01*
X148812166Y-85288380D02*
X148240738Y-85288380D01*
X148526452Y-85288380D02*
X148526452Y-84288380D01*
X148431214Y-84431238D01*
X148335976Y-84526476D01*
X148240738Y-84574095D01*
X165298380Y-94400666D02*
X164822190Y-94734000D01*
X165298380Y-94972095D02*
X164298380Y-94972095D01*
X164298380Y-94591142D01*
X164346000Y-94495904D01*
X164393619Y-94448285D01*
X164488857Y-94400666D01*
X164631714Y-94400666D01*
X164726952Y-94448285D01*
X164774571Y-94495904D01*
X164822190Y-94591142D01*
X164822190Y-94972095D01*
X164298380Y-94067333D02*
X164298380Y-93448285D01*
X164679333Y-93781619D01*
X164679333Y-93638761D01*
X164726952Y-93543523D01*
X164774571Y-93495904D01*
X164869809Y-93448285D01*
X165107904Y-93448285D01*
X165203142Y-93495904D01*
X165250761Y-93543523D01*
X165298380Y-93638761D01*
X165298380Y-93924476D01*
X165250761Y-94019714D01*
X165203142Y-94067333D01*
X163774380Y-94146666D02*
X163298190Y-94480000D01*
X163774380Y-94718095D02*
X162774380Y-94718095D01*
X162774380Y-94337142D01*
X162822000Y-94241904D01*
X162869619Y-94194285D01*
X162964857Y-94146666D01*
X163107714Y-94146666D01*
X163202952Y-94194285D01*
X163250571Y-94241904D01*
X163298190Y-94337142D01*
X163298190Y-94718095D01*
X162869619Y-93765714D02*
X162822000Y-93718095D01*
X162774380Y-93622857D01*
X162774380Y-93384761D01*
X162822000Y-93289523D01*
X162869619Y-93241904D01*
X162964857Y-93194285D01*
X163060095Y-93194285D01*
X163202952Y-93241904D01*
X163774380Y-93813333D01*
X163774380Y-93194285D01*
X153985833Y-85890380D02*
X153652500Y-85414190D01*
X153414404Y-85890380D02*
X153414404Y-84890380D01*
X153795357Y-84890380D01*
X153890595Y-84938000D01*
X153938214Y-84985619D01*
X153985833Y-85080857D01*
X153985833Y-85223714D01*
X153938214Y-85318952D01*
X153890595Y-85366571D01*
X153795357Y-85414190D01*
X153414404Y-85414190D01*
X154938214Y-85890380D02*
X154366785Y-85890380D01*
X154652500Y-85890380D02*
X154652500Y-84890380D01*
X154557261Y-85033238D01*
X154462023Y-85128476D01*
X154366785Y-85176095D01*
X162560095Y-84288380D02*
X162560095Y-85097904D01*
X162607714Y-85193142D01*
X162655333Y-85240761D01*
X162750571Y-85288380D01*
X162941047Y-85288380D01*
X163036285Y-85240761D01*
X163083904Y-85193142D01*
X163131523Y-85097904D01*
X163131523Y-84288380D01*
X164036285Y-84288380D02*
X163845809Y-84288380D01*
X163750571Y-84336000D01*
X163702952Y-84383619D01*
X163607714Y-84526476D01*
X163560095Y-84716952D01*
X163560095Y-85097904D01*
X163607714Y-85193142D01*
X163655333Y-85240761D01*
X163750571Y-85288380D01*
X163941047Y-85288380D01*
X164036285Y-85240761D01*
X164083904Y-85193142D01*
X164131523Y-85097904D01*
X164131523Y-84859809D01*
X164083904Y-84764571D01*
X164036285Y-84716952D01*
X163941047Y-84669333D01*
X163750571Y-84669333D01*
X163655333Y-84716952D01*
X163607714Y-84764571D01*
X163560095Y-84859809D01*
X165965142Y-85510666D02*
X166012761Y-85558285D01*
X166060380Y-85701142D01*
X166060380Y-85796380D01*
X166012761Y-85939238D01*
X165917523Y-86034476D01*
X165822285Y-86082095D01*
X165631809Y-86129714D01*
X165488952Y-86129714D01*
X165298476Y-86082095D01*
X165203238Y-86034476D01*
X165108000Y-85939238D01*
X165060380Y-85796380D01*
X165060380Y-85701142D01*
X165108000Y-85558285D01*
X165155619Y-85510666D01*
X165060380Y-85177333D02*
X165060380Y-84558285D01*
X165441333Y-84891619D01*
X165441333Y-84748761D01*
X165488952Y-84653523D01*
X165536571Y-84605904D01*
X165631809Y-84558285D01*
X165869904Y-84558285D01*
X165965142Y-84605904D01*
X166012761Y-84653523D01*
X166060380Y-84748761D01*
X166060380Y-85034476D01*
X166012761Y-85129714D01*
X165965142Y-85177333D01*
X160128380Y-103969904D02*
X160937904Y-103969904D01*
X161033142Y-103922285D01*
X161080761Y-103874666D01*
X161128380Y-103779428D01*
X161128380Y-103588952D01*
X161080761Y-103493714D01*
X161033142Y-103446095D01*
X160937904Y-103398476D01*
X160128380Y-103398476D01*
X160128380Y-102446095D02*
X160128380Y-102922285D01*
X160604571Y-102969904D01*
X160556952Y-102922285D01*
X160509333Y-102827047D01*
X160509333Y-102588952D01*
X160556952Y-102493714D01*
X160604571Y-102446095D01*
X160699809Y-102398476D01*
X160937904Y-102398476D01*
X161033142Y-102446095D01*
X161080761Y-102493714D01*
X161128380Y-102588952D01*
X161128380Y-102827047D01*
X161080761Y-102922285D01*
X161033142Y-102969904D01*
X155384380Y-101429904D02*
X156193904Y-101429904D01*
X156289142Y-101382285D01*
X156336761Y-101334666D01*
X156384380Y-101239428D01*
X156384380Y-101048952D01*
X156336761Y-100953714D01*
X156289142Y-100906095D01*
X156193904Y-100858476D01*
X155384380Y-100858476D01*
X155717714Y-99953714D02*
X156384380Y-99953714D01*
X155336761Y-100191809D02*
X156051047Y-100429904D01*
X156051047Y-99810857D01*
X160194380Y-98889904D02*
X161003904Y-98889904D01*
X161099142Y-98842285D01*
X161146761Y-98794666D01*
X161194380Y-98699428D01*
X161194380Y-98508952D01*
X161146761Y-98413714D01*
X161099142Y-98366095D01*
X161003904Y-98318476D01*
X160194380Y-98318476D01*
X160194380Y-97937523D02*
X160194380Y-97318476D01*
X160575333Y-97651809D01*
X160575333Y-97508952D01*
X160622952Y-97413714D01*
X160670571Y-97366095D01*
X160765809Y-97318476D01*
X161003904Y-97318476D01*
X161099142Y-97366095D01*
X161146761Y-97413714D01*
X161194380Y-97508952D01*
X161194380Y-97794666D01*
X161146761Y-97889904D01*
X161099142Y-97937523D01*
X155384380Y-96349904D02*
X156193904Y-96349904D01*
X156289142Y-96302285D01*
X156336761Y-96254666D01*
X156384380Y-96159428D01*
X156384380Y-95968952D01*
X156336761Y-95873714D01*
X156289142Y-95826095D01*
X156193904Y-95778476D01*
X155384380Y-95778476D01*
X155479619Y-95349904D02*
X155432000Y-95302285D01*
X155384380Y-95207047D01*
X155384380Y-94968952D01*
X155432000Y-94873714D01*
X155479619Y-94826095D01*
X155574857Y-94778476D01*
X155670095Y-94778476D01*
X155812952Y-94826095D01*
X156384380Y-95397523D01*
X156384380Y-94778476D01*
X156444380Y-94101904D02*
X157253904Y-94101904D01*
X157349142Y-94054285D01*
X157396761Y-94006666D01*
X157444380Y-93911428D01*
X157444380Y-93720952D01*
X157396761Y-93625714D01*
X157349142Y-93578095D01*
X157253904Y-93530476D01*
X156444380Y-93530476D01*
X157444380Y-92530476D02*
X157444380Y-93101904D01*
X157444380Y-92816190D02*
X156444380Y-92816190D01*
X156587238Y-92911428D01*
X156682476Y-93006666D01*
X156730095Y-93101904D01*
X160107333Y-85034380D02*
X159631142Y-85034380D01*
X159631142Y-84034380D01*
X160964476Y-85034380D02*
X160393047Y-85034380D01*
X160678761Y-85034380D02*
X160678761Y-84034380D01*
X160583523Y-84177238D01*
X160488285Y-84272476D01*
X160393047Y-84320095D01*
X161647142Y-93384666D02*
X161694761Y-93432285D01*
X161742380Y-93575142D01*
X161742380Y-93670380D01*
X161694761Y-93813238D01*
X161599523Y-93908476D01*
X161504285Y-93956095D01*
X161313809Y-94003714D01*
X161170952Y-94003714D01*
X160980476Y-93956095D01*
X160885238Y-93908476D01*
X160790000Y-93813238D01*
X160742380Y-93670380D01*
X160742380Y-93575142D01*
X160790000Y-93432285D01*
X160837619Y-93384666D01*
X160837619Y-93003714D02*
X160790000Y-92956095D01*
X160742380Y-92860857D01*
X160742380Y-92622761D01*
X160790000Y-92527523D01*
X160837619Y-92479904D01*
X160932857Y-92432285D01*
X161028095Y-92432285D01*
X161170952Y-92479904D01*
X161742380Y-93051333D01*
X161742380Y-92432285D01*
X155551142Y-87796666D02*
X155598761Y-87844285D01*
X155646380Y-87987142D01*
X155646380Y-88082380D01*
X155598761Y-88225238D01*
X155503523Y-88320476D01*
X155408285Y-88368095D01*
X155217809Y-88415714D01*
X155074952Y-88415714D01*
X154884476Y-88368095D01*
X154789238Y-88320476D01*
X154694000Y-88225238D01*
X154646380Y-88082380D01*
X154646380Y-87987142D01*
X154694000Y-87844285D01*
X154741619Y-87796666D01*
X155646380Y-86844285D02*
X155646380Y-87415714D01*
X155646380Y-87130000D02*
X154646380Y-87130000D01*
X154789238Y-87225238D01*
X154884476Y-87320476D01*
X154932095Y-87415714D01*
M02*
