G04 #@! TF.GenerationSoftware,KiCad,Pcbnew,(5.1.5)-3*
G04 #@! TF.CreationDate,2020-07-02T11:34:45+10:00*
G04 #@! TF.ProjectId,Heterodyne,48657465-726f-4647-996e-652e6b696361,rev?*
G04 #@! TF.SameCoordinates,Original*
G04 #@! TF.FileFunction,Copper,L3,Inr*
G04 #@! TF.FilePolarity,Positive*
%FSLAX46Y46*%
G04 Gerber Fmt 4.6, Leading zero omitted, Abs format (unit mm)*
G04 Created by KiCad (PCBNEW (5.1.5)-3) date 2020-07-02 11:34:45*
%MOMM*%
%LPD*%
G04 APERTURE LIST*
%ADD10O,1.700000X1.700000*%
%ADD11R,1.700000X1.700000*%
%ADD12C,0.800000*%
%ADD13C,0.254000*%
G04 APERTURE END LIST*
D10*
X136020000Y-49500000D03*
X133480000Y-49500000D03*
X130940000Y-49500000D03*
X128400000Y-49500000D03*
X125860000Y-49500000D03*
D11*
X123320000Y-49500000D03*
X105500000Y-55000000D03*
X105500000Y-51400000D03*
D10*
X105500000Y-48860000D03*
X136800000Y-64300000D03*
D11*
X134260000Y-64300000D03*
D12*
X110000000Y-53000000D03*
X110500000Y-57500000D03*
X137875000Y-56800000D03*
X133823897Y-55323897D03*
X130800000Y-53800000D03*
X124500000Y-59500000D03*
X117600000Y-60400000D03*
X129600000Y-62800000D03*
X120800000Y-53299996D03*
X113900000Y-53400000D03*
X122500000Y-64500000D03*
X117600000Y-64900000D03*
X128400000Y-60550000D03*
X115700000Y-49500000D03*
X137500000Y-50700000D03*
X124500000Y-62400000D03*
X114055553Y-63419447D03*
X112800000Y-63874990D03*
X122900000Y-56100000D03*
X121032641Y-55132641D03*
X111400000Y-64600000D03*
X117000000Y-49500000D03*
D13*
G36*
X121873000Y-48430538D02*
G01*
X121844188Y-48525518D01*
X121831928Y-48650000D01*
X121835000Y-49214250D01*
X121993750Y-49373000D01*
X123193000Y-49373000D01*
X123193000Y-49353000D01*
X123447000Y-49353000D01*
X123447000Y-49373000D01*
X123467000Y-49373000D01*
X123467000Y-49627000D01*
X123447000Y-49627000D01*
X123447000Y-50826250D01*
X123605750Y-50985000D01*
X124170000Y-50988072D01*
X124294482Y-50975812D01*
X124414180Y-50939502D01*
X124524494Y-50880537D01*
X124621185Y-50801185D01*
X124700537Y-50704494D01*
X124759502Y-50594180D01*
X124781513Y-50521620D01*
X124913368Y-50653475D01*
X125156589Y-50815990D01*
X125426842Y-50927932D01*
X125713740Y-50985000D01*
X126006260Y-50985000D01*
X126293158Y-50927932D01*
X126563411Y-50815990D01*
X126806632Y-50653475D01*
X127013475Y-50446632D01*
X127130000Y-50272240D01*
X127246525Y-50446632D01*
X127453368Y-50653475D01*
X127696589Y-50815990D01*
X127966842Y-50927932D01*
X128253740Y-50985000D01*
X128546260Y-50985000D01*
X128833158Y-50927932D01*
X129103411Y-50815990D01*
X129346632Y-50653475D01*
X129553475Y-50446632D01*
X129670000Y-50272240D01*
X129786525Y-50446632D01*
X129993368Y-50653475D01*
X130236589Y-50815990D01*
X130506842Y-50927932D01*
X130793740Y-50985000D01*
X131086260Y-50985000D01*
X131373158Y-50927932D01*
X131643411Y-50815990D01*
X131886632Y-50653475D01*
X132093475Y-50446632D01*
X132210000Y-50272240D01*
X132326525Y-50446632D01*
X132533368Y-50653475D01*
X132776589Y-50815990D01*
X133046842Y-50927932D01*
X133333740Y-50985000D01*
X133626260Y-50985000D01*
X133913158Y-50927932D01*
X134183411Y-50815990D01*
X134426632Y-50653475D01*
X134633475Y-50446632D01*
X134750000Y-50272240D01*
X134866525Y-50446632D01*
X135073368Y-50653475D01*
X135316589Y-50815990D01*
X135586842Y-50927932D01*
X135873740Y-50985000D01*
X136166260Y-50985000D01*
X136453158Y-50927932D01*
X136487252Y-50913810D01*
X136504774Y-51001898D01*
X136582795Y-51190256D01*
X136696063Y-51359774D01*
X136840226Y-51503937D01*
X137009744Y-51617205D01*
X137198102Y-51695226D01*
X137398061Y-51735000D01*
X137601939Y-51735000D01*
X137801898Y-51695226D01*
X137990256Y-51617205D01*
X138159774Y-51503937D01*
X138303937Y-51359774D01*
X138340001Y-51305801D01*
X138340001Y-55872334D01*
X138176898Y-55804774D01*
X137976939Y-55765000D01*
X137773061Y-55765000D01*
X137573102Y-55804774D01*
X137384744Y-55882795D01*
X137215226Y-55996063D01*
X137071063Y-56140226D01*
X136957795Y-56309744D01*
X136879774Y-56498102D01*
X136840000Y-56698061D01*
X136840000Y-56901939D01*
X136879774Y-57101898D01*
X136957795Y-57290256D01*
X137071063Y-57459774D01*
X137215226Y-57603937D01*
X137384744Y-57717205D01*
X137573102Y-57795226D01*
X137773061Y-57835000D01*
X137976939Y-57835000D01*
X138176898Y-57795226D01*
X138340000Y-57727666D01*
X138340000Y-64967721D01*
X138330420Y-65065424D01*
X138311420Y-65128357D01*
X138280554Y-65186406D01*
X138239011Y-65237343D01*
X138188356Y-65279248D01*
X138130529Y-65310515D01*
X138067728Y-65329956D01*
X137972165Y-65340000D01*
X137860107Y-65340000D01*
X137953475Y-65246632D01*
X138115990Y-65003411D01*
X138227932Y-64733158D01*
X138285000Y-64446260D01*
X138285000Y-64153740D01*
X138227932Y-63866842D01*
X138115990Y-63596589D01*
X137953475Y-63353368D01*
X137746632Y-63146525D01*
X137503411Y-62984010D01*
X137233158Y-62872068D01*
X136946260Y-62815000D01*
X136653740Y-62815000D01*
X136366842Y-62872068D01*
X136096589Y-62984010D01*
X135853368Y-63146525D01*
X135721513Y-63278380D01*
X135699502Y-63205820D01*
X135640537Y-63095506D01*
X135561185Y-62998815D01*
X135464494Y-62919463D01*
X135354180Y-62860498D01*
X135234482Y-62824188D01*
X135110000Y-62811928D01*
X133410000Y-62811928D01*
X133285518Y-62824188D01*
X133165820Y-62860498D01*
X133055506Y-62919463D01*
X132958815Y-62998815D01*
X132879463Y-63095506D01*
X132820498Y-63205820D01*
X132784188Y-63325518D01*
X132771928Y-63450000D01*
X132771928Y-65150000D01*
X132784188Y-65274482D01*
X132804063Y-65340000D01*
X112123711Y-65340000D01*
X112203937Y-65259774D01*
X112317205Y-65090256D01*
X112395226Y-64901898D01*
X112408879Y-64833258D01*
X112498102Y-64870216D01*
X112698061Y-64909990D01*
X112901939Y-64909990D01*
X113101898Y-64870216D01*
X113290256Y-64792195D01*
X113459774Y-64678927D01*
X113603937Y-64534764D01*
X113699240Y-64392133D01*
X113753655Y-64414673D01*
X113953614Y-64454447D01*
X114157492Y-64454447D01*
X114357451Y-64414673D01*
X114545809Y-64336652D01*
X114715327Y-64223384D01*
X114859490Y-64079221D01*
X114972758Y-63909703D01*
X115050779Y-63721345D01*
X115090553Y-63521386D01*
X115090553Y-63317508D01*
X115050779Y-63117549D01*
X114972758Y-62929191D01*
X114859490Y-62759673D01*
X114715327Y-62615510D01*
X114545809Y-62502242D01*
X114357451Y-62424221D01*
X114157492Y-62384447D01*
X113953614Y-62384447D01*
X113753655Y-62424221D01*
X113565297Y-62502242D01*
X113395779Y-62615510D01*
X113251616Y-62759673D01*
X113156313Y-62902304D01*
X113101898Y-62879764D01*
X112901939Y-62839990D01*
X112698061Y-62839990D01*
X112498102Y-62879764D01*
X112309744Y-62957785D01*
X112140226Y-63071053D01*
X111996063Y-63215216D01*
X111882795Y-63384734D01*
X111804774Y-63573092D01*
X111791121Y-63641732D01*
X111701898Y-63604774D01*
X111501939Y-63565000D01*
X111298061Y-63565000D01*
X111098102Y-63604774D01*
X110909744Y-63682795D01*
X110740226Y-63796063D01*
X110596063Y-63940226D01*
X110482795Y-64109744D01*
X110404774Y-64298102D01*
X110365000Y-64498061D01*
X110365000Y-64701939D01*
X110404774Y-64901898D01*
X110482795Y-65090256D01*
X110596063Y-65259774D01*
X110676289Y-65340000D01*
X104532279Y-65340000D01*
X104434576Y-65330420D01*
X104371643Y-65311420D01*
X104313594Y-65280554D01*
X104262657Y-65239011D01*
X104220752Y-65188356D01*
X104189485Y-65130529D01*
X104170044Y-65067728D01*
X104160000Y-64972165D01*
X104160000Y-62298061D01*
X123465000Y-62298061D01*
X123465000Y-62501939D01*
X123504774Y-62701898D01*
X123582795Y-62890256D01*
X123696063Y-63059774D01*
X123840226Y-63203937D01*
X124009744Y-63317205D01*
X124198102Y-63395226D01*
X124398061Y-63435000D01*
X124601939Y-63435000D01*
X124801898Y-63395226D01*
X124990256Y-63317205D01*
X125159774Y-63203937D01*
X125303937Y-63059774D01*
X125417205Y-62890256D01*
X125495226Y-62701898D01*
X125495989Y-62698061D01*
X128565000Y-62698061D01*
X128565000Y-62901939D01*
X128604774Y-63101898D01*
X128682795Y-63290256D01*
X128796063Y-63459774D01*
X128940226Y-63603937D01*
X129109744Y-63717205D01*
X129298102Y-63795226D01*
X129498061Y-63835000D01*
X129701939Y-63835000D01*
X129901898Y-63795226D01*
X130090256Y-63717205D01*
X130259774Y-63603937D01*
X130403937Y-63459774D01*
X130517205Y-63290256D01*
X130595226Y-63101898D01*
X130635000Y-62901939D01*
X130635000Y-62698061D01*
X130595226Y-62498102D01*
X130517205Y-62309744D01*
X130403937Y-62140226D01*
X130259774Y-61996063D01*
X130090256Y-61882795D01*
X129901898Y-61804774D01*
X129701939Y-61765000D01*
X129498061Y-61765000D01*
X129298102Y-61804774D01*
X129109744Y-61882795D01*
X128940226Y-61996063D01*
X128796063Y-62140226D01*
X128682795Y-62309744D01*
X128604774Y-62498102D01*
X128565000Y-62698061D01*
X125495989Y-62698061D01*
X125535000Y-62501939D01*
X125535000Y-62298061D01*
X125495226Y-62098102D01*
X125417205Y-61909744D01*
X125303937Y-61740226D01*
X125159774Y-61596063D01*
X124990256Y-61482795D01*
X124801898Y-61404774D01*
X124601939Y-61365000D01*
X124398061Y-61365000D01*
X124198102Y-61404774D01*
X124009744Y-61482795D01*
X123840226Y-61596063D01*
X123696063Y-61740226D01*
X123582795Y-61909744D01*
X123504774Y-62098102D01*
X123465000Y-62298061D01*
X104160000Y-62298061D01*
X104160000Y-60298061D01*
X116565000Y-60298061D01*
X116565000Y-60501939D01*
X116604774Y-60701898D01*
X116682795Y-60890256D01*
X116796063Y-61059774D01*
X116940226Y-61203937D01*
X117109744Y-61317205D01*
X117298102Y-61395226D01*
X117498061Y-61435000D01*
X117701939Y-61435000D01*
X117901898Y-61395226D01*
X118090256Y-61317205D01*
X118259774Y-61203937D01*
X118403937Y-61059774D01*
X118517205Y-60890256D01*
X118595226Y-60701898D01*
X118635000Y-60501939D01*
X118635000Y-60298061D01*
X118595226Y-60098102D01*
X118517205Y-59909744D01*
X118403937Y-59740226D01*
X118259774Y-59596063D01*
X118090256Y-59482795D01*
X117901898Y-59404774D01*
X117868150Y-59398061D01*
X123465000Y-59398061D01*
X123465000Y-59601939D01*
X123504774Y-59801898D01*
X123582795Y-59990256D01*
X123696063Y-60159774D01*
X123840226Y-60303937D01*
X124009744Y-60417205D01*
X124198102Y-60495226D01*
X124398061Y-60535000D01*
X124601939Y-60535000D01*
X124801898Y-60495226D01*
X124990256Y-60417205D01*
X125159774Y-60303937D01*
X125303937Y-60159774D01*
X125417205Y-59990256D01*
X125495226Y-59801898D01*
X125535000Y-59601939D01*
X125535000Y-59398061D01*
X125495226Y-59198102D01*
X125417205Y-59009744D01*
X125303937Y-58840226D01*
X125159774Y-58696063D01*
X124990256Y-58582795D01*
X124801898Y-58504774D01*
X124601939Y-58465000D01*
X124398061Y-58465000D01*
X124198102Y-58504774D01*
X124009744Y-58582795D01*
X123840226Y-58696063D01*
X123696063Y-58840226D01*
X123582795Y-59009744D01*
X123504774Y-59198102D01*
X123465000Y-59398061D01*
X117868150Y-59398061D01*
X117701939Y-59365000D01*
X117498061Y-59365000D01*
X117298102Y-59404774D01*
X117109744Y-59482795D01*
X116940226Y-59596063D01*
X116796063Y-59740226D01*
X116682795Y-59909744D01*
X116604774Y-60098102D01*
X116565000Y-60298061D01*
X104160000Y-60298061D01*
X104160000Y-57398061D01*
X109465000Y-57398061D01*
X109465000Y-57601939D01*
X109504774Y-57801898D01*
X109582795Y-57990256D01*
X109696063Y-58159774D01*
X109840226Y-58303937D01*
X110009744Y-58417205D01*
X110198102Y-58495226D01*
X110398061Y-58535000D01*
X110601939Y-58535000D01*
X110801898Y-58495226D01*
X110990256Y-58417205D01*
X111159774Y-58303937D01*
X111303937Y-58159774D01*
X111417205Y-57990256D01*
X111495226Y-57801898D01*
X111535000Y-57601939D01*
X111535000Y-57398061D01*
X111495226Y-57198102D01*
X111417205Y-57009744D01*
X111303937Y-56840226D01*
X111159774Y-56696063D01*
X110990256Y-56582795D01*
X110801898Y-56504774D01*
X110601939Y-56465000D01*
X110398061Y-56465000D01*
X110198102Y-56504774D01*
X110009744Y-56582795D01*
X109840226Y-56696063D01*
X109696063Y-56840226D01*
X109582795Y-57009744D01*
X109504774Y-57198102D01*
X109465000Y-57398061D01*
X104160000Y-57398061D01*
X104160000Y-56253889D01*
X104198815Y-56301185D01*
X104295506Y-56380537D01*
X104405820Y-56439502D01*
X104525518Y-56475812D01*
X104650000Y-56488072D01*
X106350000Y-56488072D01*
X106474482Y-56475812D01*
X106594180Y-56439502D01*
X106704494Y-56380537D01*
X106801185Y-56301185D01*
X106880537Y-56204494D01*
X106939502Y-56094180D01*
X106975812Y-55974482D01*
X106988072Y-55850000D01*
X106988072Y-54150000D01*
X106975812Y-54025518D01*
X106939502Y-53905820D01*
X106880537Y-53795506D01*
X106801185Y-53698815D01*
X106704494Y-53619463D01*
X106594180Y-53560498D01*
X106474482Y-53524188D01*
X106350000Y-53511928D01*
X104650000Y-53511928D01*
X104525518Y-53524188D01*
X104405820Y-53560498D01*
X104295506Y-53619463D01*
X104198815Y-53698815D01*
X104160000Y-53746111D01*
X104160000Y-52898061D01*
X108965000Y-52898061D01*
X108965000Y-53101939D01*
X109004774Y-53301898D01*
X109082795Y-53490256D01*
X109196063Y-53659774D01*
X109340226Y-53803937D01*
X109509744Y-53917205D01*
X109698102Y-53995226D01*
X109898061Y-54035000D01*
X110101939Y-54035000D01*
X110301898Y-53995226D01*
X110490256Y-53917205D01*
X110659774Y-53803937D01*
X110803937Y-53659774D01*
X110917205Y-53490256D01*
X110995226Y-53301898D01*
X110995989Y-53298061D01*
X112865000Y-53298061D01*
X112865000Y-53501939D01*
X112904774Y-53701898D01*
X112982795Y-53890256D01*
X113096063Y-54059774D01*
X113240226Y-54203937D01*
X113409744Y-54317205D01*
X113598102Y-54395226D01*
X113798061Y-54435000D01*
X114001939Y-54435000D01*
X114201898Y-54395226D01*
X114390256Y-54317205D01*
X114559774Y-54203937D01*
X114703937Y-54059774D01*
X114817205Y-53890256D01*
X114895226Y-53701898D01*
X114935000Y-53501939D01*
X114935000Y-53298061D01*
X114915109Y-53198057D01*
X119765000Y-53198057D01*
X119765000Y-53401935D01*
X119804774Y-53601894D01*
X119882795Y-53790252D01*
X119996063Y-53959770D01*
X120140226Y-54103933D01*
X120309744Y-54217201D01*
X120451726Y-54276012D01*
X120372867Y-54328704D01*
X120228704Y-54472867D01*
X120115436Y-54642385D01*
X120037415Y-54830743D01*
X119997641Y-55030702D01*
X119997641Y-55234580D01*
X120037415Y-55434539D01*
X120115436Y-55622897D01*
X120228704Y-55792415D01*
X120372867Y-55936578D01*
X120542385Y-56049846D01*
X120730743Y-56127867D01*
X120930702Y-56167641D01*
X121134580Y-56167641D01*
X121334539Y-56127867D01*
X121522897Y-56049846D01*
X121600398Y-55998061D01*
X121865000Y-55998061D01*
X121865000Y-56201939D01*
X121904774Y-56401898D01*
X121982795Y-56590256D01*
X122096063Y-56759774D01*
X122240226Y-56903937D01*
X122409744Y-57017205D01*
X122598102Y-57095226D01*
X122798061Y-57135000D01*
X123001939Y-57135000D01*
X123201898Y-57095226D01*
X123390256Y-57017205D01*
X123559774Y-56903937D01*
X123703937Y-56759774D01*
X123817205Y-56590256D01*
X123895226Y-56401898D01*
X123935000Y-56201939D01*
X123935000Y-55998061D01*
X123895226Y-55798102D01*
X123817205Y-55609744D01*
X123703937Y-55440226D01*
X123559774Y-55296063D01*
X123448868Y-55221958D01*
X132788897Y-55221958D01*
X132788897Y-55425836D01*
X132828671Y-55625795D01*
X132906692Y-55814153D01*
X133019960Y-55983671D01*
X133164123Y-56127834D01*
X133333641Y-56241102D01*
X133521999Y-56319123D01*
X133721958Y-56358897D01*
X133925836Y-56358897D01*
X134125795Y-56319123D01*
X134314153Y-56241102D01*
X134483671Y-56127834D01*
X134627834Y-55983671D01*
X134741102Y-55814153D01*
X134819123Y-55625795D01*
X134858897Y-55425836D01*
X134858897Y-55221958D01*
X134819123Y-55021999D01*
X134741102Y-54833641D01*
X134627834Y-54664123D01*
X134483671Y-54519960D01*
X134314153Y-54406692D01*
X134125795Y-54328671D01*
X133925836Y-54288897D01*
X133721958Y-54288897D01*
X133521999Y-54328671D01*
X133333641Y-54406692D01*
X133164123Y-54519960D01*
X133019960Y-54664123D01*
X132906692Y-54833641D01*
X132828671Y-55021999D01*
X132788897Y-55221958D01*
X123448868Y-55221958D01*
X123390256Y-55182795D01*
X123201898Y-55104774D01*
X123001939Y-55065000D01*
X122798061Y-55065000D01*
X122598102Y-55104774D01*
X122409744Y-55182795D01*
X122240226Y-55296063D01*
X122096063Y-55440226D01*
X121982795Y-55609744D01*
X121904774Y-55798102D01*
X121865000Y-55998061D01*
X121600398Y-55998061D01*
X121692415Y-55936578D01*
X121836578Y-55792415D01*
X121949846Y-55622897D01*
X122027867Y-55434539D01*
X122067641Y-55234580D01*
X122067641Y-55030702D01*
X122027867Y-54830743D01*
X121949846Y-54642385D01*
X121836578Y-54472867D01*
X121692415Y-54328704D01*
X121522897Y-54215436D01*
X121380915Y-54156625D01*
X121459774Y-54103933D01*
X121603937Y-53959770D01*
X121717205Y-53790252D01*
X121755392Y-53698061D01*
X129765000Y-53698061D01*
X129765000Y-53901939D01*
X129804774Y-54101898D01*
X129882795Y-54290256D01*
X129996063Y-54459774D01*
X130140226Y-54603937D01*
X130309744Y-54717205D01*
X130498102Y-54795226D01*
X130698061Y-54835000D01*
X130901939Y-54835000D01*
X131101898Y-54795226D01*
X131290256Y-54717205D01*
X131459774Y-54603937D01*
X131603937Y-54459774D01*
X131717205Y-54290256D01*
X131795226Y-54101898D01*
X131835000Y-53901939D01*
X131835000Y-53698061D01*
X131795226Y-53498102D01*
X131717205Y-53309744D01*
X131603937Y-53140226D01*
X131459774Y-52996063D01*
X131290256Y-52882795D01*
X131101898Y-52804774D01*
X130901939Y-52765000D01*
X130698061Y-52765000D01*
X130498102Y-52804774D01*
X130309744Y-52882795D01*
X130140226Y-52996063D01*
X129996063Y-53140226D01*
X129882795Y-53309744D01*
X129804774Y-53498102D01*
X129765000Y-53698061D01*
X121755392Y-53698061D01*
X121795226Y-53601894D01*
X121835000Y-53401935D01*
X121835000Y-53198057D01*
X121795226Y-52998098D01*
X121717205Y-52809740D01*
X121603937Y-52640222D01*
X121459774Y-52496059D01*
X121290256Y-52382791D01*
X121101898Y-52304770D01*
X120901939Y-52264996D01*
X120698061Y-52264996D01*
X120498102Y-52304770D01*
X120309744Y-52382791D01*
X120140226Y-52496059D01*
X119996063Y-52640222D01*
X119882795Y-52809740D01*
X119804774Y-52998098D01*
X119765000Y-53198057D01*
X114915109Y-53198057D01*
X114895226Y-53098102D01*
X114817205Y-52909744D01*
X114703937Y-52740226D01*
X114559774Y-52596063D01*
X114390256Y-52482795D01*
X114201898Y-52404774D01*
X114001939Y-52365000D01*
X113798061Y-52365000D01*
X113598102Y-52404774D01*
X113409744Y-52482795D01*
X113240226Y-52596063D01*
X113096063Y-52740226D01*
X112982795Y-52909744D01*
X112904774Y-53098102D01*
X112865000Y-53298061D01*
X110995989Y-53298061D01*
X111035000Y-53101939D01*
X111035000Y-52898061D01*
X110995226Y-52698102D01*
X110917205Y-52509744D01*
X110803937Y-52340226D01*
X110659774Y-52196063D01*
X110490256Y-52082795D01*
X110301898Y-52004774D01*
X110101939Y-51965000D01*
X109898061Y-51965000D01*
X109698102Y-52004774D01*
X109509744Y-52082795D01*
X109340226Y-52196063D01*
X109196063Y-52340226D01*
X109082795Y-52509744D01*
X109004774Y-52698102D01*
X108965000Y-52898061D01*
X104160000Y-52898061D01*
X104160000Y-52653889D01*
X104198815Y-52701185D01*
X104295506Y-52780537D01*
X104405820Y-52839502D01*
X104525518Y-52875812D01*
X104650000Y-52888072D01*
X106350000Y-52888072D01*
X106474482Y-52875812D01*
X106594180Y-52839502D01*
X106704494Y-52780537D01*
X106801185Y-52701185D01*
X106880537Y-52604494D01*
X106939502Y-52494180D01*
X106975812Y-52374482D01*
X106988072Y-52250000D01*
X106988072Y-50550000D01*
X106975812Y-50425518D01*
X106939502Y-50305820D01*
X106880537Y-50195506D01*
X106801185Y-50098815D01*
X106704494Y-50019463D01*
X106594180Y-49960498D01*
X106521620Y-49938487D01*
X106653475Y-49806632D01*
X106815990Y-49563411D01*
X106884479Y-49398061D01*
X115965000Y-49398061D01*
X115965000Y-49601939D01*
X116004774Y-49801898D01*
X116082795Y-49990256D01*
X116196063Y-50159774D01*
X116340226Y-50303937D01*
X116509744Y-50417205D01*
X116698102Y-50495226D01*
X116898061Y-50535000D01*
X117101939Y-50535000D01*
X117301898Y-50495226D01*
X117490256Y-50417205D01*
X117590835Y-50350000D01*
X121831928Y-50350000D01*
X121844188Y-50474482D01*
X121880498Y-50594180D01*
X121939463Y-50704494D01*
X122018815Y-50801185D01*
X122115506Y-50880537D01*
X122225820Y-50939502D01*
X122345518Y-50975812D01*
X122470000Y-50988072D01*
X123034250Y-50985000D01*
X123193000Y-50826250D01*
X123193000Y-49627000D01*
X121993750Y-49627000D01*
X121835000Y-49785750D01*
X121831928Y-50350000D01*
X117590835Y-50350000D01*
X117659774Y-50303937D01*
X117803937Y-50159774D01*
X117917205Y-49990256D01*
X117995226Y-49801898D01*
X118035000Y-49601939D01*
X118035000Y-49398061D01*
X117995226Y-49198102D01*
X117917205Y-49009744D01*
X117803937Y-48840226D01*
X117659774Y-48696063D01*
X117490256Y-48582795D01*
X117301898Y-48504774D01*
X117101939Y-48465000D01*
X116898061Y-48465000D01*
X116698102Y-48504774D01*
X116509744Y-48582795D01*
X116340226Y-48696063D01*
X116196063Y-48840226D01*
X116082795Y-49009744D01*
X116004774Y-49198102D01*
X115965000Y-49398061D01*
X106884479Y-49398061D01*
X106927932Y-49293158D01*
X106985000Y-49006260D01*
X106985000Y-48713740D01*
X106927932Y-48426842D01*
X106815990Y-48156589D01*
X106653475Y-47913368D01*
X106446632Y-47706525D01*
X106377002Y-47660000D01*
X121873000Y-47660000D01*
X121873000Y-48430538D01*
G37*
X121873000Y-48430538D02*
X121844188Y-48525518D01*
X121831928Y-48650000D01*
X121835000Y-49214250D01*
X121993750Y-49373000D01*
X123193000Y-49373000D01*
X123193000Y-49353000D01*
X123447000Y-49353000D01*
X123447000Y-49373000D01*
X123467000Y-49373000D01*
X123467000Y-49627000D01*
X123447000Y-49627000D01*
X123447000Y-50826250D01*
X123605750Y-50985000D01*
X124170000Y-50988072D01*
X124294482Y-50975812D01*
X124414180Y-50939502D01*
X124524494Y-50880537D01*
X124621185Y-50801185D01*
X124700537Y-50704494D01*
X124759502Y-50594180D01*
X124781513Y-50521620D01*
X124913368Y-50653475D01*
X125156589Y-50815990D01*
X125426842Y-50927932D01*
X125713740Y-50985000D01*
X126006260Y-50985000D01*
X126293158Y-50927932D01*
X126563411Y-50815990D01*
X126806632Y-50653475D01*
X127013475Y-50446632D01*
X127130000Y-50272240D01*
X127246525Y-50446632D01*
X127453368Y-50653475D01*
X127696589Y-50815990D01*
X127966842Y-50927932D01*
X128253740Y-50985000D01*
X128546260Y-50985000D01*
X128833158Y-50927932D01*
X129103411Y-50815990D01*
X129346632Y-50653475D01*
X129553475Y-50446632D01*
X129670000Y-50272240D01*
X129786525Y-50446632D01*
X129993368Y-50653475D01*
X130236589Y-50815990D01*
X130506842Y-50927932D01*
X130793740Y-50985000D01*
X131086260Y-50985000D01*
X131373158Y-50927932D01*
X131643411Y-50815990D01*
X131886632Y-50653475D01*
X132093475Y-50446632D01*
X132210000Y-50272240D01*
X132326525Y-50446632D01*
X132533368Y-50653475D01*
X132776589Y-50815990D01*
X133046842Y-50927932D01*
X133333740Y-50985000D01*
X133626260Y-50985000D01*
X133913158Y-50927932D01*
X134183411Y-50815990D01*
X134426632Y-50653475D01*
X134633475Y-50446632D01*
X134750000Y-50272240D01*
X134866525Y-50446632D01*
X135073368Y-50653475D01*
X135316589Y-50815990D01*
X135586842Y-50927932D01*
X135873740Y-50985000D01*
X136166260Y-50985000D01*
X136453158Y-50927932D01*
X136487252Y-50913810D01*
X136504774Y-51001898D01*
X136582795Y-51190256D01*
X136696063Y-51359774D01*
X136840226Y-51503937D01*
X137009744Y-51617205D01*
X137198102Y-51695226D01*
X137398061Y-51735000D01*
X137601939Y-51735000D01*
X137801898Y-51695226D01*
X137990256Y-51617205D01*
X138159774Y-51503937D01*
X138303937Y-51359774D01*
X138340001Y-51305801D01*
X138340001Y-55872334D01*
X138176898Y-55804774D01*
X137976939Y-55765000D01*
X137773061Y-55765000D01*
X137573102Y-55804774D01*
X137384744Y-55882795D01*
X137215226Y-55996063D01*
X137071063Y-56140226D01*
X136957795Y-56309744D01*
X136879774Y-56498102D01*
X136840000Y-56698061D01*
X136840000Y-56901939D01*
X136879774Y-57101898D01*
X136957795Y-57290256D01*
X137071063Y-57459774D01*
X137215226Y-57603937D01*
X137384744Y-57717205D01*
X137573102Y-57795226D01*
X137773061Y-57835000D01*
X137976939Y-57835000D01*
X138176898Y-57795226D01*
X138340000Y-57727666D01*
X138340000Y-64967721D01*
X138330420Y-65065424D01*
X138311420Y-65128357D01*
X138280554Y-65186406D01*
X138239011Y-65237343D01*
X138188356Y-65279248D01*
X138130529Y-65310515D01*
X138067728Y-65329956D01*
X137972165Y-65340000D01*
X137860107Y-65340000D01*
X137953475Y-65246632D01*
X138115990Y-65003411D01*
X138227932Y-64733158D01*
X138285000Y-64446260D01*
X138285000Y-64153740D01*
X138227932Y-63866842D01*
X138115990Y-63596589D01*
X137953475Y-63353368D01*
X137746632Y-63146525D01*
X137503411Y-62984010D01*
X137233158Y-62872068D01*
X136946260Y-62815000D01*
X136653740Y-62815000D01*
X136366842Y-62872068D01*
X136096589Y-62984010D01*
X135853368Y-63146525D01*
X135721513Y-63278380D01*
X135699502Y-63205820D01*
X135640537Y-63095506D01*
X135561185Y-62998815D01*
X135464494Y-62919463D01*
X135354180Y-62860498D01*
X135234482Y-62824188D01*
X135110000Y-62811928D01*
X133410000Y-62811928D01*
X133285518Y-62824188D01*
X133165820Y-62860498D01*
X133055506Y-62919463D01*
X132958815Y-62998815D01*
X132879463Y-63095506D01*
X132820498Y-63205820D01*
X132784188Y-63325518D01*
X132771928Y-63450000D01*
X132771928Y-65150000D01*
X132784188Y-65274482D01*
X132804063Y-65340000D01*
X112123711Y-65340000D01*
X112203937Y-65259774D01*
X112317205Y-65090256D01*
X112395226Y-64901898D01*
X112408879Y-64833258D01*
X112498102Y-64870216D01*
X112698061Y-64909990D01*
X112901939Y-64909990D01*
X113101898Y-64870216D01*
X113290256Y-64792195D01*
X113459774Y-64678927D01*
X113603937Y-64534764D01*
X113699240Y-64392133D01*
X113753655Y-64414673D01*
X113953614Y-64454447D01*
X114157492Y-64454447D01*
X114357451Y-64414673D01*
X114545809Y-64336652D01*
X114715327Y-64223384D01*
X114859490Y-64079221D01*
X114972758Y-63909703D01*
X115050779Y-63721345D01*
X115090553Y-63521386D01*
X115090553Y-63317508D01*
X115050779Y-63117549D01*
X114972758Y-62929191D01*
X114859490Y-62759673D01*
X114715327Y-62615510D01*
X114545809Y-62502242D01*
X114357451Y-62424221D01*
X114157492Y-62384447D01*
X113953614Y-62384447D01*
X113753655Y-62424221D01*
X113565297Y-62502242D01*
X113395779Y-62615510D01*
X113251616Y-62759673D01*
X113156313Y-62902304D01*
X113101898Y-62879764D01*
X112901939Y-62839990D01*
X112698061Y-62839990D01*
X112498102Y-62879764D01*
X112309744Y-62957785D01*
X112140226Y-63071053D01*
X111996063Y-63215216D01*
X111882795Y-63384734D01*
X111804774Y-63573092D01*
X111791121Y-63641732D01*
X111701898Y-63604774D01*
X111501939Y-63565000D01*
X111298061Y-63565000D01*
X111098102Y-63604774D01*
X110909744Y-63682795D01*
X110740226Y-63796063D01*
X110596063Y-63940226D01*
X110482795Y-64109744D01*
X110404774Y-64298102D01*
X110365000Y-64498061D01*
X110365000Y-64701939D01*
X110404774Y-64901898D01*
X110482795Y-65090256D01*
X110596063Y-65259774D01*
X110676289Y-65340000D01*
X104532279Y-65340000D01*
X104434576Y-65330420D01*
X104371643Y-65311420D01*
X104313594Y-65280554D01*
X104262657Y-65239011D01*
X104220752Y-65188356D01*
X104189485Y-65130529D01*
X104170044Y-65067728D01*
X104160000Y-64972165D01*
X104160000Y-62298061D01*
X123465000Y-62298061D01*
X123465000Y-62501939D01*
X123504774Y-62701898D01*
X123582795Y-62890256D01*
X123696063Y-63059774D01*
X123840226Y-63203937D01*
X124009744Y-63317205D01*
X124198102Y-63395226D01*
X124398061Y-63435000D01*
X124601939Y-63435000D01*
X124801898Y-63395226D01*
X124990256Y-63317205D01*
X125159774Y-63203937D01*
X125303937Y-63059774D01*
X125417205Y-62890256D01*
X125495226Y-62701898D01*
X125495989Y-62698061D01*
X128565000Y-62698061D01*
X128565000Y-62901939D01*
X128604774Y-63101898D01*
X128682795Y-63290256D01*
X128796063Y-63459774D01*
X128940226Y-63603937D01*
X129109744Y-63717205D01*
X129298102Y-63795226D01*
X129498061Y-63835000D01*
X129701939Y-63835000D01*
X129901898Y-63795226D01*
X130090256Y-63717205D01*
X130259774Y-63603937D01*
X130403937Y-63459774D01*
X130517205Y-63290256D01*
X130595226Y-63101898D01*
X130635000Y-62901939D01*
X130635000Y-62698061D01*
X130595226Y-62498102D01*
X130517205Y-62309744D01*
X130403937Y-62140226D01*
X130259774Y-61996063D01*
X130090256Y-61882795D01*
X129901898Y-61804774D01*
X129701939Y-61765000D01*
X129498061Y-61765000D01*
X129298102Y-61804774D01*
X129109744Y-61882795D01*
X128940226Y-61996063D01*
X128796063Y-62140226D01*
X128682795Y-62309744D01*
X128604774Y-62498102D01*
X128565000Y-62698061D01*
X125495989Y-62698061D01*
X125535000Y-62501939D01*
X125535000Y-62298061D01*
X125495226Y-62098102D01*
X125417205Y-61909744D01*
X125303937Y-61740226D01*
X125159774Y-61596063D01*
X124990256Y-61482795D01*
X124801898Y-61404774D01*
X124601939Y-61365000D01*
X124398061Y-61365000D01*
X124198102Y-61404774D01*
X124009744Y-61482795D01*
X123840226Y-61596063D01*
X123696063Y-61740226D01*
X123582795Y-61909744D01*
X123504774Y-62098102D01*
X123465000Y-62298061D01*
X104160000Y-62298061D01*
X104160000Y-60298061D01*
X116565000Y-60298061D01*
X116565000Y-60501939D01*
X116604774Y-60701898D01*
X116682795Y-60890256D01*
X116796063Y-61059774D01*
X116940226Y-61203937D01*
X117109744Y-61317205D01*
X117298102Y-61395226D01*
X117498061Y-61435000D01*
X117701939Y-61435000D01*
X117901898Y-61395226D01*
X118090256Y-61317205D01*
X118259774Y-61203937D01*
X118403937Y-61059774D01*
X118517205Y-60890256D01*
X118595226Y-60701898D01*
X118635000Y-60501939D01*
X118635000Y-60298061D01*
X118595226Y-60098102D01*
X118517205Y-59909744D01*
X118403937Y-59740226D01*
X118259774Y-59596063D01*
X118090256Y-59482795D01*
X117901898Y-59404774D01*
X117868150Y-59398061D01*
X123465000Y-59398061D01*
X123465000Y-59601939D01*
X123504774Y-59801898D01*
X123582795Y-59990256D01*
X123696063Y-60159774D01*
X123840226Y-60303937D01*
X124009744Y-60417205D01*
X124198102Y-60495226D01*
X124398061Y-60535000D01*
X124601939Y-60535000D01*
X124801898Y-60495226D01*
X124990256Y-60417205D01*
X125159774Y-60303937D01*
X125303937Y-60159774D01*
X125417205Y-59990256D01*
X125495226Y-59801898D01*
X125535000Y-59601939D01*
X125535000Y-59398061D01*
X125495226Y-59198102D01*
X125417205Y-59009744D01*
X125303937Y-58840226D01*
X125159774Y-58696063D01*
X124990256Y-58582795D01*
X124801898Y-58504774D01*
X124601939Y-58465000D01*
X124398061Y-58465000D01*
X124198102Y-58504774D01*
X124009744Y-58582795D01*
X123840226Y-58696063D01*
X123696063Y-58840226D01*
X123582795Y-59009744D01*
X123504774Y-59198102D01*
X123465000Y-59398061D01*
X117868150Y-59398061D01*
X117701939Y-59365000D01*
X117498061Y-59365000D01*
X117298102Y-59404774D01*
X117109744Y-59482795D01*
X116940226Y-59596063D01*
X116796063Y-59740226D01*
X116682795Y-59909744D01*
X116604774Y-60098102D01*
X116565000Y-60298061D01*
X104160000Y-60298061D01*
X104160000Y-57398061D01*
X109465000Y-57398061D01*
X109465000Y-57601939D01*
X109504774Y-57801898D01*
X109582795Y-57990256D01*
X109696063Y-58159774D01*
X109840226Y-58303937D01*
X110009744Y-58417205D01*
X110198102Y-58495226D01*
X110398061Y-58535000D01*
X110601939Y-58535000D01*
X110801898Y-58495226D01*
X110990256Y-58417205D01*
X111159774Y-58303937D01*
X111303937Y-58159774D01*
X111417205Y-57990256D01*
X111495226Y-57801898D01*
X111535000Y-57601939D01*
X111535000Y-57398061D01*
X111495226Y-57198102D01*
X111417205Y-57009744D01*
X111303937Y-56840226D01*
X111159774Y-56696063D01*
X110990256Y-56582795D01*
X110801898Y-56504774D01*
X110601939Y-56465000D01*
X110398061Y-56465000D01*
X110198102Y-56504774D01*
X110009744Y-56582795D01*
X109840226Y-56696063D01*
X109696063Y-56840226D01*
X109582795Y-57009744D01*
X109504774Y-57198102D01*
X109465000Y-57398061D01*
X104160000Y-57398061D01*
X104160000Y-56253889D01*
X104198815Y-56301185D01*
X104295506Y-56380537D01*
X104405820Y-56439502D01*
X104525518Y-56475812D01*
X104650000Y-56488072D01*
X106350000Y-56488072D01*
X106474482Y-56475812D01*
X106594180Y-56439502D01*
X106704494Y-56380537D01*
X106801185Y-56301185D01*
X106880537Y-56204494D01*
X106939502Y-56094180D01*
X106975812Y-55974482D01*
X106988072Y-55850000D01*
X106988072Y-54150000D01*
X106975812Y-54025518D01*
X106939502Y-53905820D01*
X106880537Y-53795506D01*
X106801185Y-53698815D01*
X106704494Y-53619463D01*
X106594180Y-53560498D01*
X106474482Y-53524188D01*
X106350000Y-53511928D01*
X104650000Y-53511928D01*
X104525518Y-53524188D01*
X104405820Y-53560498D01*
X104295506Y-53619463D01*
X104198815Y-53698815D01*
X104160000Y-53746111D01*
X104160000Y-52898061D01*
X108965000Y-52898061D01*
X108965000Y-53101939D01*
X109004774Y-53301898D01*
X109082795Y-53490256D01*
X109196063Y-53659774D01*
X109340226Y-53803937D01*
X109509744Y-53917205D01*
X109698102Y-53995226D01*
X109898061Y-54035000D01*
X110101939Y-54035000D01*
X110301898Y-53995226D01*
X110490256Y-53917205D01*
X110659774Y-53803937D01*
X110803937Y-53659774D01*
X110917205Y-53490256D01*
X110995226Y-53301898D01*
X110995989Y-53298061D01*
X112865000Y-53298061D01*
X112865000Y-53501939D01*
X112904774Y-53701898D01*
X112982795Y-53890256D01*
X113096063Y-54059774D01*
X113240226Y-54203937D01*
X113409744Y-54317205D01*
X113598102Y-54395226D01*
X113798061Y-54435000D01*
X114001939Y-54435000D01*
X114201898Y-54395226D01*
X114390256Y-54317205D01*
X114559774Y-54203937D01*
X114703937Y-54059774D01*
X114817205Y-53890256D01*
X114895226Y-53701898D01*
X114935000Y-53501939D01*
X114935000Y-53298061D01*
X114915109Y-53198057D01*
X119765000Y-53198057D01*
X119765000Y-53401935D01*
X119804774Y-53601894D01*
X119882795Y-53790252D01*
X119996063Y-53959770D01*
X120140226Y-54103933D01*
X120309744Y-54217201D01*
X120451726Y-54276012D01*
X120372867Y-54328704D01*
X120228704Y-54472867D01*
X120115436Y-54642385D01*
X120037415Y-54830743D01*
X119997641Y-55030702D01*
X119997641Y-55234580D01*
X120037415Y-55434539D01*
X120115436Y-55622897D01*
X120228704Y-55792415D01*
X120372867Y-55936578D01*
X120542385Y-56049846D01*
X120730743Y-56127867D01*
X120930702Y-56167641D01*
X121134580Y-56167641D01*
X121334539Y-56127867D01*
X121522897Y-56049846D01*
X121600398Y-55998061D01*
X121865000Y-55998061D01*
X121865000Y-56201939D01*
X121904774Y-56401898D01*
X121982795Y-56590256D01*
X122096063Y-56759774D01*
X122240226Y-56903937D01*
X122409744Y-57017205D01*
X122598102Y-57095226D01*
X122798061Y-57135000D01*
X123001939Y-57135000D01*
X123201898Y-57095226D01*
X123390256Y-57017205D01*
X123559774Y-56903937D01*
X123703937Y-56759774D01*
X123817205Y-56590256D01*
X123895226Y-56401898D01*
X123935000Y-56201939D01*
X123935000Y-55998061D01*
X123895226Y-55798102D01*
X123817205Y-55609744D01*
X123703937Y-55440226D01*
X123559774Y-55296063D01*
X123448868Y-55221958D01*
X132788897Y-55221958D01*
X132788897Y-55425836D01*
X132828671Y-55625795D01*
X132906692Y-55814153D01*
X133019960Y-55983671D01*
X133164123Y-56127834D01*
X133333641Y-56241102D01*
X133521999Y-56319123D01*
X133721958Y-56358897D01*
X133925836Y-56358897D01*
X134125795Y-56319123D01*
X134314153Y-56241102D01*
X134483671Y-56127834D01*
X134627834Y-55983671D01*
X134741102Y-55814153D01*
X134819123Y-55625795D01*
X134858897Y-55425836D01*
X134858897Y-55221958D01*
X134819123Y-55021999D01*
X134741102Y-54833641D01*
X134627834Y-54664123D01*
X134483671Y-54519960D01*
X134314153Y-54406692D01*
X134125795Y-54328671D01*
X133925836Y-54288897D01*
X133721958Y-54288897D01*
X133521999Y-54328671D01*
X133333641Y-54406692D01*
X133164123Y-54519960D01*
X133019960Y-54664123D01*
X132906692Y-54833641D01*
X132828671Y-55021999D01*
X132788897Y-55221958D01*
X123448868Y-55221958D01*
X123390256Y-55182795D01*
X123201898Y-55104774D01*
X123001939Y-55065000D01*
X122798061Y-55065000D01*
X122598102Y-55104774D01*
X122409744Y-55182795D01*
X122240226Y-55296063D01*
X122096063Y-55440226D01*
X121982795Y-55609744D01*
X121904774Y-55798102D01*
X121865000Y-55998061D01*
X121600398Y-55998061D01*
X121692415Y-55936578D01*
X121836578Y-55792415D01*
X121949846Y-55622897D01*
X122027867Y-55434539D01*
X122067641Y-55234580D01*
X122067641Y-55030702D01*
X122027867Y-54830743D01*
X121949846Y-54642385D01*
X121836578Y-54472867D01*
X121692415Y-54328704D01*
X121522897Y-54215436D01*
X121380915Y-54156625D01*
X121459774Y-54103933D01*
X121603937Y-53959770D01*
X121717205Y-53790252D01*
X121755392Y-53698061D01*
X129765000Y-53698061D01*
X129765000Y-53901939D01*
X129804774Y-54101898D01*
X129882795Y-54290256D01*
X129996063Y-54459774D01*
X130140226Y-54603937D01*
X130309744Y-54717205D01*
X130498102Y-54795226D01*
X130698061Y-54835000D01*
X130901939Y-54835000D01*
X131101898Y-54795226D01*
X131290256Y-54717205D01*
X131459774Y-54603937D01*
X131603937Y-54459774D01*
X131717205Y-54290256D01*
X131795226Y-54101898D01*
X131835000Y-53901939D01*
X131835000Y-53698061D01*
X131795226Y-53498102D01*
X131717205Y-53309744D01*
X131603937Y-53140226D01*
X131459774Y-52996063D01*
X131290256Y-52882795D01*
X131101898Y-52804774D01*
X130901939Y-52765000D01*
X130698061Y-52765000D01*
X130498102Y-52804774D01*
X130309744Y-52882795D01*
X130140226Y-52996063D01*
X129996063Y-53140226D01*
X129882795Y-53309744D01*
X129804774Y-53498102D01*
X129765000Y-53698061D01*
X121755392Y-53698061D01*
X121795226Y-53601894D01*
X121835000Y-53401935D01*
X121835000Y-53198057D01*
X121795226Y-52998098D01*
X121717205Y-52809740D01*
X121603937Y-52640222D01*
X121459774Y-52496059D01*
X121290256Y-52382791D01*
X121101898Y-52304770D01*
X120901939Y-52264996D01*
X120698061Y-52264996D01*
X120498102Y-52304770D01*
X120309744Y-52382791D01*
X120140226Y-52496059D01*
X119996063Y-52640222D01*
X119882795Y-52809740D01*
X119804774Y-52998098D01*
X119765000Y-53198057D01*
X114915109Y-53198057D01*
X114895226Y-53098102D01*
X114817205Y-52909744D01*
X114703937Y-52740226D01*
X114559774Y-52596063D01*
X114390256Y-52482795D01*
X114201898Y-52404774D01*
X114001939Y-52365000D01*
X113798061Y-52365000D01*
X113598102Y-52404774D01*
X113409744Y-52482795D01*
X113240226Y-52596063D01*
X113096063Y-52740226D01*
X112982795Y-52909744D01*
X112904774Y-53098102D01*
X112865000Y-53298061D01*
X110995989Y-53298061D01*
X111035000Y-53101939D01*
X111035000Y-52898061D01*
X110995226Y-52698102D01*
X110917205Y-52509744D01*
X110803937Y-52340226D01*
X110659774Y-52196063D01*
X110490256Y-52082795D01*
X110301898Y-52004774D01*
X110101939Y-51965000D01*
X109898061Y-51965000D01*
X109698102Y-52004774D01*
X109509744Y-52082795D01*
X109340226Y-52196063D01*
X109196063Y-52340226D01*
X109082795Y-52509744D01*
X109004774Y-52698102D01*
X108965000Y-52898061D01*
X104160000Y-52898061D01*
X104160000Y-52653889D01*
X104198815Y-52701185D01*
X104295506Y-52780537D01*
X104405820Y-52839502D01*
X104525518Y-52875812D01*
X104650000Y-52888072D01*
X106350000Y-52888072D01*
X106474482Y-52875812D01*
X106594180Y-52839502D01*
X106704494Y-52780537D01*
X106801185Y-52701185D01*
X106880537Y-52604494D01*
X106939502Y-52494180D01*
X106975812Y-52374482D01*
X106988072Y-52250000D01*
X106988072Y-50550000D01*
X106975812Y-50425518D01*
X106939502Y-50305820D01*
X106880537Y-50195506D01*
X106801185Y-50098815D01*
X106704494Y-50019463D01*
X106594180Y-49960498D01*
X106521620Y-49938487D01*
X106653475Y-49806632D01*
X106815990Y-49563411D01*
X106884479Y-49398061D01*
X115965000Y-49398061D01*
X115965000Y-49601939D01*
X116004774Y-49801898D01*
X116082795Y-49990256D01*
X116196063Y-50159774D01*
X116340226Y-50303937D01*
X116509744Y-50417205D01*
X116698102Y-50495226D01*
X116898061Y-50535000D01*
X117101939Y-50535000D01*
X117301898Y-50495226D01*
X117490256Y-50417205D01*
X117590835Y-50350000D01*
X121831928Y-50350000D01*
X121844188Y-50474482D01*
X121880498Y-50594180D01*
X121939463Y-50704494D01*
X122018815Y-50801185D01*
X122115506Y-50880537D01*
X122225820Y-50939502D01*
X122345518Y-50975812D01*
X122470000Y-50988072D01*
X123034250Y-50985000D01*
X123193000Y-50826250D01*
X123193000Y-49627000D01*
X121993750Y-49627000D01*
X121835000Y-49785750D01*
X121831928Y-50350000D01*
X117590835Y-50350000D01*
X117659774Y-50303937D01*
X117803937Y-50159774D01*
X117917205Y-49990256D01*
X117995226Y-49801898D01*
X118035000Y-49601939D01*
X118035000Y-49398061D01*
X117995226Y-49198102D01*
X117917205Y-49009744D01*
X117803937Y-48840226D01*
X117659774Y-48696063D01*
X117490256Y-48582795D01*
X117301898Y-48504774D01*
X117101939Y-48465000D01*
X116898061Y-48465000D01*
X116698102Y-48504774D01*
X116509744Y-48582795D01*
X116340226Y-48696063D01*
X116196063Y-48840226D01*
X116082795Y-49009744D01*
X116004774Y-49198102D01*
X115965000Y-49398061D01*
X106884479Y-49398061D01*
X106927932Y-49293158D01*
X106985000Y-49006260D01*
X106985000Y-48713740D01*
X106927932Y-48426842D01*
X106815990Y-48156589D01*
X106653475Y-47913368D01*
X106446632Y-47706525D01*
X106377002Y-47660000D01*
X121873000Y-47660000D01*
X121873000Y-48430538D01*
M02*
