G04 #@! TF.GenerationSoftware,KiCad,Pcbnew,(5.1.2)-2*
G04 #@! TF.CreationDate,2020-05-20T23:18:15+10:00*
G04 #@! TF.ProjectId,Heterodyne,48657465-726f-4647-996e-652e6b696361,rev?*
G04 #@! TF.SameCoordinates,Original*
G04 #@! TF.FileFunction,Soldermask,Top*
G04 #@! TF.FilePolarity,Negative*
%FSLAX46Y46*%
G04 Gerber Fmt 4.6, Leading zero omitted, Abs format (unit mm)*
G04 Created by KiCad (PCBNEW (5.1.2)-2) date 2020-05-20 23:18:15*
%MOMM*%
%LPD*%
G04 APERTURE LIST*
%ADD10C,0.100000*%
G04 APERTURE END LIST*
D10*
G36*
X140020443Y-65355519D02*
G01*
X140086627Y-65362037D01*
X140256466Y-65413557D01*
X140412991Y-65497222D01*
X140438702Y-65518323D01*
X140550186Y-65609814D01*
X140633448Y-65711271D01*
X140662778Y-65747009D01*
X140746443Y-65903534D01*
X140797963Y-66073373D01*
X140815359Y-66250000D01*
X140797963Y-66426627D01*
X140746443Y-66596466D01*
X140662778Y-66752991D01*
X140633448Y-66788729D01*
X140550186Y-66890186D01*
X140448729Y-66973448D01*
X140412991Y-67002778D01*
X140256466Y-67086443D01*
X140086627Y-67137963D01*
X140020442Y-67144482D01*
X139954260Y-67151000D01*
X139865740Y-67151000D01*
X139799558Y-67144482D01*
X139733373Y-67137963D01*
X139563534Y-67086443D01*
X139407009Y-67002778D01*
X139371271Y-66973448D01*
X139269814Y-66890186D01*
X139186552Y-66788729D01*
X139157222Y-66752991D01*
X139073557Y-66596466D01*
X139022037Y-66426627D01*
X139004641Y-66250000D01*
X139022037Y-66073373D01*
X139073557Y-65903534D01*
X139157222Y-65747009D01*
X139186552Y-65711271D01*
X139269814Y-65609814D01*
X139381298Y-65518323D01*
X139407009Y-65497222D01*
X139563534Y-65413557D01*
X139733373Y-65362037D01*
X139799557Y-65355519D01*
X139865740Y-65349000D01*
X139954260Y-65349000D01*
X140020443Y-65355519D01*
X140020443Y-65355519D01*
G37*
G36*
X137480443Y-65355519D02*
G01*
X137546627Y-65362037D01*
X137716466Y-65413557D01*
X137872991Y-65497222D01*
X137898702Y-65518323D01*
X138010186Y-65609814D01*
X138093448Y-65711271D01*
X138122778Y-65747009D01*
X138206443Y-65903534D01*
X138257963Y-66073373D01*
X138275359Y-66250000D01*
X138257963Y-66426627D01*
X138206443Y-66596466D01*
X138122778Y-66752991D01*
X138093448Y-66788729D01*
X138010186Y-66890186D01*
X137908729Y-66973448D01*
X137872991Y-67002778D01*
X137716466Y-67086443D01*
X137546627Y-67137963D01*
X137480442Y-67144482D01*
X137414260Y-67151000D01*
X137325740Y-67151000D01*
X137259558Y-67144482D01*
X137193373Y-67137963D01*
X137023534Y-67086443D01*
X136867009Y-67002778D01*
X136831271Y-66973448D01*
X136729814Y-66890186D01*
X136646552Y-66788729D01*
X136617222Y-66752991D01*
X136533557Y-66596466D01*
X136482037Y-66426627D01*
X136464641Y-66250000D01*
X136482037Y-66073373D01*
X136533557Y-65903534D01*
X136617222Y-65747009D01*
X136646552Y-65711271D01*
X136729814Y-65609814D01*
X136841298Y-65518323D01*
X136867009Y-65497222D01*
X137023534Y-65413557D01*
X137193373Y-65362037D01*
X137259557Y-65355519D01*
X137325740Y-65349000D01*
X137414260Y-65349000D01*
X137480443Y-65355519D01*
X137480443Y-65355519D01*
G37*
G36*
X130651000Y-67151000D02*
G01*
X128849000Y-67151000D01*
X128849000Y-65349000D01*
X130651000Y-65349000D01*
X130651000Y-67151000D01*
X130651000Y-67151000D01*
G37*
G36*
X132400443Y-65355519D02*
G01*
X132466627Y-65362037D01*
X132636466Y-65413557D01*
X132792991Y-65497222D01*
X132818702Y-65518323D01*
X132930186Y-65609814D01*
X133013448Y-65711271D01*
X133042778Y-65747009D01*
X133126443Y-65903534D01*
X133177963Y-66073373D01*
X133195359Y-66250000D01*
X133177963Y-66426627D01*
X133126443Y-66596466D01*
X133042778Y-66752991D01*
X133013448Y-66788729D01*
X132930186Y-66890186D01*
X132828729Y-66973448D01*
X132792991Y-67002778D01*
X132636466Y-67086443D01*
X132466627Y-67137963D01*
X132400442Y-67144482D01*
X132334260Y-67151000D01*
X132245740Y-67151000D01*
X132179558Y-67144482D01*
X132113373Y-67137963D01*
X131943534Y-67086443D01*
X131787009Y-67002778D01*
X131751271Y-66973448D01*
X131649814Y-66890186D01*
X131566552Y-66788729D01*
X131537222Y-66752991D01*
X131453557Y-66596466D01*
X131402037Y-66426627D01*
X131384641Y-66250000D01*
X131402037Y-66073373D01*
X131453557Y-65903534D01*
X131537222Y-65747009D01*
X131566552Y-65711271D01*
X131649814Y-65609814D01*
X131761298Y-65518323D01*
X131787009Y-65497222D01*
X131943534Y-65413557D01*
X132113373Y-65362037D01*
X132179557Y-65355519D01*
X132245740Y-65349000D01*
X132334260Y-65349000D01*
X132400443Y-65355519D01*
X132400443Y-65355519D01*
G37*
G36*
X124401000Y-67151000D02*
G01*
X122599000Y-67151000D01*
X122599000Y-65349000D01*
X124401000Y-65349000D01*
X124401000Y-67151000D01*
X124401000Y-67151000D01*
G37*
G36*
X134940443Y-65355519D02*
G01*
X135006627Y-65362037D01*
X135176466Y-65413557D01*
X135332991Y-65497222D01*
X135358702Y-65518323D01*
X135470186Y-65609814D01*
X135553448Y-65711271D01*
X135582778Y-65747009D01*
X135666443Y-65903534D01*
X135717963Y-66073373D01*
X135735359Y-66250000D01*
X135717963Y-66426627D01*
X135666443Y-66596466D01*
X135582778Y-66752991D01*
X135553448Y-66788729D01*
X135470186Y-66890186D01*
X135368729Y-66973448D01*
X135332991Y-67002778D01*
X135176466Y-67086443D01*
X135006627Y-67137963D01*
X134940442Y-67144482D01*
X134874260Y-67151000D01*
X134785740Y-67151000D01*
X134719558Y-67144482D01*
X134653373Y-67137963D01*
X134483534Y-67086443D01*
X134327009Y-67002778D01*
X134291271Y-66973448D01*
X134189814Y-66890186D01*
X134106552Y-66788729D01*
X134077222Y-66752991D01*
X133993557Y-66596466D01*
X133942037Y-66426627D01*
X133924641Y-66250000D01*
X133942037Y-66073373D01*
X133993557Y-65903534D01*
X134077222Y-65747009D01*
X134106552Y-65711271D01*
X134189814Y-65609814D01*
X134301298Y-65518323D01*
X134327009Y-65497222D01*
X134483534Y-65413557D01*
X134653373Y-65362037D01*
X134719557Y-65355519D01*
X134785740Y-65349000D01*
X134874260Y-65349000D01*
X134940443Y-65355519D01*
X134940443Y-65355519D01*
G37*
G36*
X126150443Y-65355519D02*
G01*
X126216627Y-65362037D01*
X126386466Y-65413557D01*
X126542991Y-65497222D01*
X126568702Y-65518323D01*
X126680186Y-65609814D01*
X126763448Y-65711271D01*
X126792778Y-65747009D01*
X126876443Y-65903534D01*
X126927963Y-66073373D01*
X126945359Y-66250000D01*
X126927963Y-66426627D01*
X126876443Y-66596466D01*
X126792778Y-66752991D01*
X126763448Y-66788729D01*
X126680186Y-66890186D01*
X126578729Y-66973448D01*
X126542991Y-67002778D01*
X126386466Y-67086443D01*
X126216627Y-67137963D01*
X126150442Y-67144482D01*
X126084260Y-67151000D01*
X125995740Y-67151000D01*
X125929558Y-67144482D01*
X125863373Y-67137963D01*
X125693534Y-67086443D01*
X125537009Y-67002778D01*
X125501271Y-66973448D01*
X125399814Y-66890186D01*
X125316552Y-66788729D01*
X125287222Y-66752991D01*
X125203557Y-66596466D01*
X125152037Y-66426627D01*
X125134641Y-66250000D01*
X125152037Y-66073373D01*
X125203557Y-65903534D01*
X125287222Y-65747009D01*
X125316552Y-65711271D01*
X125399814Y-65609814D01*
X125511298Y-65518323D01*
X125537009Y-65497222D01*
X125693534Y-65413557D01*
X125863373Y-65362037D01*
X125929557Y-65355519D01*
X125995740Y-65349000D01*
X126084260Y-65349000D01*
X126150443Y-65355519D01*
X126150443Y-65355519D01*
G37*
G36*
X106151000Y-67101000D02*
G01*
X104349000Y-67101000D01*
X104349000Y-65299000D01*
X106151000Y-65299000D01*
X106151000Y-67101000D01*
X106151000Y-67101000D01*
G37*
G36*
X112939499Y-65478445D02*
G01*
X112976995Y-65489820D01*
X113011554Y-65508292D01*
X113041847Y-65533153D01*
X113066708Y-65563446D01*
X113085180Y-65598005D01*
X113096555Y-65635501D01*
X113101000Y-65680638D01*
X113101000Y-66319362D01*
X113096555Y-66364499D01*
X113085180Y-66401995D01*
X113066708Y-66436554D01*
X113041847Y-66466847D01*
X113011554Y-66491708D01*
X112976995Y-66510180D01*
X112939499Y-66521555D01*
X112894362Y-66526000D01*
X112155638Y-66526000D01*
X112110501Y-66521555D01*
X112073005Y-66510180D01*
X112038446Y-66491708D01*
X112008153Y-66466847D01*
X111983292Y-66436554D01*
X111964820Y-66401995D01*
X111953445Y-66364499D01*
X111949000Y-66319362D01*
X111949000Y-65680638D01*
X111953445Y-65635501D01*
X111964820Y-65598005D01*
X111983292Y-65563446D01*
X112008153Y-65533153D01*
X112038446Y-65508292D01*
X112073005Y-65489820D01*
X112110501Y-65478445D01*
X112155638Y-65474000D01*
X112894362Y-65474000D01*
X112939499Y-65478445D01*
X112939499Y-65478445D01*
G37*
G36*
X114689499Y-65478445D02*
G01*
X114726995Y-65489820D01*
X114761554Y-65508292D01*
X114791847Y-65533153D01*
X114816708Y-65563446D01*
X114835180Y-65598005D01*
X114846555Y-65635501D01*
X114851000Y-65680638D01*
X114851000Y-66319362D01*
X114846555Y-66364499D01*
X114835180Y-66401995D01*
X114816708Y-66436554D01*
X114791847Y-66466847D01*
X114761554Y-66491708D01*
X114726995Y-66510180D01*
X114689499Y-66521555D01*
X114644362Y-66526000D01*
X113905638Y-66526000D01*
X113860501Y-66521555D01*
X113823005Y-66510180D01*
X113788446Y-66491708D01*
X113758153Y-66466847D01*
X113733292Y-66436554D01*
X113714820Y-66401995D01*
X113703445Y-66364499D01*
X113699000Y-66319362D01*
X113699000Y-65680638D01*
X113703445Y-65635501D01*
X113714820Y-65598005D01*
X113733292Y-65563446D01*
X113758153Y-65533153D01*
X113788446Y-65508292D01*
X113823005Y-65489820D01*
X113860501Y-65478445D01*
X113905638Y-65474000D01*
X114644362Y-65474000D01*
X114689499Y-65478445D01*
X114689499Y-65478445D01*
G37*
G36*
X114614928Y-62801764D02*
G01*
X114636009Y-62808160D01*
X114655445Y-62818548D01*
X114672476Y-62832524D01*
X114686452Y-62849555D01*
X114696840Y-62868991D01*
X114703236Y-62890072D01*
X114706000Y-62918140D01*
X114706000Y-64731860D01*
X114703236Y-64759928D01*
X114696840Y-64781009D01*
X114686452Y-64800445D01*
X114672476Y-64817476D01*
X114655445Y-64831452D01*
X114636009Y-64841840D01*
X114614928Y-64848236D01*
X114586860Y-64851000D01*
X114123140Y-64851000D01*
X114095072Y-64848236D01*
X114073991Y-64841840D01*
X114054555Y-64831452D01*
X114037524Y-64817476D01*
X114023548Y-64800445D01*
X114013160Y-64781009D01*
X114006764Y-64759928D01*
X114004000Y-64731860D01*
X114004000Y-62918140D01*
X114006764Y-62890072D01*
X114013160Y-62868991D01*
X114023548Y-62849555D01*
X114037524Y-62832524D01*
X114054555Y-62818548D01*
X114073991Y-62808160D01*
X114095072Y-62801764D01*
X114123140Y-62799000D01*
X114586860Y-62799000D01*
X114614928Y-62801764D01*
X114614928Y-62801764D01*
G37*
G36*
X113344928Y-62801764D02*
G01*
X113366009Y-62808160D01*
X113385445Y-62818548D01*
X113402476Y-62832524D01*
X113416452Y-62849555D01*
X113426840Y-62868991D01*
X113433236Y-62890072D01*
X113436000Y-62918140D01*
X113436000Y-64731860D01*
X113433236Y-64759928D01*
X113426840Y-64781009D01*
X113416452Y-64800445D01*
X113402476Y-64817476D01*
X113385445Y-64831452D01*
X113366009Y-64841840D01*
X113344928Y-64848236D01*
X113316860Y-64851000D01*
X112853140Y-64851000D01*
X112825072Y-64848236D01*
X112803991Y-64841840D01*
X112784555Y-64831452D01*
X112767524Y-64817476D01*
X112753548Y-64800445D01*
X112743160Y-64781009D01*
X112736764Y-64759928D01*
X112734000Y-64731860D01*
X112734000Y-62918140D01*
X112736764Y-62890072D01*
X112743160Y-62868991D01*
X112753548Y-62849555D01*
X112767524Y-62832524D01*
X112784555Y-62818548D01*
X112803991Y-62808160D01*
X112825072Y-62801764D01*
X112853140Y-62799000D01*
X113316860Y-62799000D01*
X113344928Y-62801764D01*
X113344928Y-62801764D01*
G37*
G36*
X112074928Y-62801764D02*
G01*
X112096009Y-62808160D01*
X112115445Y-62818548D01*
X112132476Y-62832524D01*
X112146452Y-62849555D01*
X112156840Y-62868991D01*
X112163236Y-62890072D01*
X112166000Y-62918140D01*
X112166000Y-64731860D01*
X112163236Y-64759928D01*
X112156840Y-64781009D01*
X112146452Y-64800445D01*
X112132476Y-64817476D01*
X112115445Y-64831452D01*
X112096009Y-64841840D01*
X112074928Y-64848236D01*
X112046860Y-64851000D01*
X111583140Y-64851000D01*
X111555072Y-64848236D01*
X111533991Y-64841840D01*
X111514555Y-64831452D01*
X111497524Y-64817476D01*
X111483548Y-64800445D01*
X111473160Y-64781009D01*
X111466764Y-64759928D01*
X111464000Y-64731860D01*
X111464000Y-62918140D01*
X111466764Y-62890072D01*
X111473160Y-62868991D01*
X111483548Y-62849555D01*
X111497524Y-62832524D01*
X111514555Y-62818548D01*
X111533991Y-62808160D01*
X111555072Y-62801764D01*
X111583140Y-62799000D01*
X112046860Y-62799000D01*
X112074928Y-62801764D01*
X112074928Y-62801764D01*
G37*
G36*
X110804928Y-62801764D02*
G01*
X110826009Y-62808160D01*
X110845445Y-62818548D01*
X110862476Y-62832524D01*
X110876452Y-62849555D01*
X110886840Y-62868991D01*
X110893236Y-62890072D01*
X110896000Y-62918140D01*
X110896000Y-64731860D01*
X110893236Y-64759928D01*
X110886840Y-64781009D01*
X110876452Y-64800445D01*
X110862476Y-64817476D01*
X110845445Y-64831452D01*
X110826009Y-64841840D01*
X110804928Y-64848236D01*
X110776860Y-64851000D01*
X110313140Y-64851000D01*
X110285072Y-64848236D01*
X110263991Y-64841840D01*
X110244555Y-64831452D01*
X110227524Y-64817476D01*
X110213548Y-64800445D01*
X110203160Y-64781009D01*
X110196764Y-64759928D01*
X110194000Y-64731860D01*
X110194000Y-62918140D01*
X110196764Y-62890072D01*
X110203160Y-62868991D01*
X110213548Y-62849555D01*
X110227524Y-62832524D01*
X110244555Y-62818548D01*
X110263991Y-62808160D01*
X110285072Y-62801764D01*
X110313140Y-62799000D01*
X110776860Y-62799000D01*
X110804928Y-62801764D01*
X110804928Y-62801764D01*
G37*
G36*
X105360443Y-62765519D02*
G01*
X105426627Y-62772037D01*
X105596466Y-62823557D01*
X105596468Y-62823558D01*
X105646691Y-62850403D01*
X105752991Y-62907222D01*
X105788729Y-62936552D01*
X105890186Y-63019814D01*
X105958090Y-63102557D01*
X106002778Y-63157009D01*
X106086443Y-63313534D01*
X106137963Y-63483373D01*
X106155359Y-63660000D01*
X106137963Y-63836627D01*
X106086443Y-64006466D01*
X106002778Y-64162991D01*
X105973448Y-64198729D01*
X105890186Y-64300186D01*
X105788729Y-64383448D01*
X105752991Y-64412778D01*
X105596466Y-64496443D01*
X105426627Y-64547963D01*
X105360442Y-64554482D01*
X105294260Y-64561000D01*
X105205740Y-64561000D01*
X105139558Y-64554482D01*
X105073373Y-64547963D01*
X104903534Y-64496443D01*
X104747009Y-64412778D01*
X104711271Y-64383448D01*
X104609814Y-64300186D01*
X104526552Y-64198729D01*
X104497222Y-64162991D01*
X104413557Y-64006466D01*
X104362037Y-63836627D01*
X104344641Y-63660000D01*
X104362037Y-63483373D01*
X104413557Y-63313534D01*
X104497222Y-63157009D01*
X104541910Y-63102557D01*
X104609814Y-63019814D01*
X104711271Y-62936552D01*
X104747009Y-62907222D01*
X104853309Y-62850403D01*
X104903532Y-62823558D01*
X104903534Y-62823557D01*
X105073373Y-62772037D01*
X105139557Y-62765519D01*
X105205740Y-62759000D01*
X105294260Y-62759000D01*
X105360443Y-62765519D01*
X105360443Y-62765519D01*
G37*
G36*
X116564499Y-63003445D02*
G01*
X116601995Y-63014820D01*
X116636554Y-63033292D01*
X116666847Y-63058153D01*
X116691708Y-63088446D01*
X116710180Y-63123005D01*
X116721555Y-63160501D01*
X116726000Y-63205638D01*
X116726000Y-63944362D01*
X116721555Y-63989499D01*
X116710180Y-64026995D01*
X116691708Y-64061554D01*
X116666847Y-64091847D01*
X116636554Y-64116708D01*
X116601995Y-64135180D01*
X116564499Y-64146555D01*
X116519362Y-64151000D01*
X115880638Y-64151000D01*
X115835501Y-64146555D01*
X115798005Y-64135180D01*
X115763446Y-64116708D01*
X115733153Y-64091847D01*
X115708292Y-64061554D01*
X115689820Y-64026995D01*
X115678445Y-63989499D01*
X115674000Y-63944362D01*
X115674000Y-63205638D01*
X115678445Y-63160501D01*
X115689820Y-63123005D01*
X115708292Y-63088446D01*
X115733153Y-63058153D01*
X115763446Y-63033292D01*
X115798005Y-63014820D01*
X115835501Y-63003445D01*
X115880638Y-62999000D01*
X116519362Y-62999000D01*
X116564499Y-63003445D01*
X116564499Y-63003445D01*
G37*
G36*
X130821938Y-62431716D02*
G01*
X130842557Y-62437971D01*
X130861553Y-62448124D01*
X130878208Y-62461792D01*
X130891876Y-62478447D01*
X130902029Y-62497443D01*
X130908284Y-62518062D01*
X130911000Y-62545640D01*
X130911000Y-63054360D01*
X130908284Y-63081938D01*
X130902029Y-63102557D01*
X130891876Y-63121553D01*
X130878208Y-63138208D01*
X130861553Y-63151876D01*
X130842557Y-63162029D01*
X130821938Y-63168284D01*
X130794360Y-63171000D01*
X130335640Y-63171000D01*
X130308062Y-63168284D01*
X130287443Y-63162029D01*
X130268447Y-63151876D01*
X130251792Y-63138208D01*
X130238124Y-63121553D01*
X130227971Y-63102557D01*
X130221716Y-63081938D01*
X130219000Y-63054360D01*
X130219000Y-62545640D01*
X130221716Y-62518062D01*
X130227971Y-62497443D01*
X130238124Y-62478447D01*
X130251792Y-62461792D01*
X130268447Y-62448124D01*
X130287443Y-62437971D01*
X130308062Y-62431716D01*
X130335640Y-62429000D01*
X130794360Y-62429000D01*
X130821938Y-62431716D01*
X130821938Y-62431716D01*
G37*
G36*
X131791938Y-62431716D02*
G01*
X131812557Y-62437971D01*
X131831553Y-62448124D01*
X131848208Y-62461792D01*
X131861876Y-62478447D01*
X131872029Y-62497443D01*
X131878284Y-62518062D01*
X131881000Y-62545640D01*
X131881000Y-63054360D01*
X131878284Y-63081938D01*
X131872029Y-63102557D01*
X131861876Y-63121553D01*
X131848208Y-63138208D01*
X131831553Y-63151876D01*
X131812557Y-63162029D01*
X131791938Y-63168284D01*
X131764360Y-63171000D01*
X131305640Y-63171000D01*
X131278062Y-63168284D01*
X131257443Y-63162029D01*
X131238447Y-63151876D01*
X131221792Y-63138208D01*
X131208124Y-63121553D01*
X131197971Y-63102557D01*
X131191716Y-63081938D01*
X131189000Y-63054360D01*
X131189000Y-62545640D01*
X131191716Y-62518062D01*
X131197971Y-62497443D01*
X131208124Y-62478447D01*
X131221792Y-62461792D01*
X131238447Y-62448124D01*
X131257443Y-62437971D01*
X131278062Y-62431716D01*
X131305640Y-62429000D01*
X131764360Y-62429000D01*
X131791938Y-62431716D01*
X131791938Y-62431716D01*
G37*
G36*
X116564499Y-61253445D02*
G01*
X116601995Y-61264820D01*
X116636554Y-61283292D01*
X116666847Y-61308153D01*
X116691708Y-61338446D01*
X116710180Y-61373005D01*
X116721555Y-61410501D01*
X116726000Y-61455638D01*
X116726000Y-62194362D01*
X116721555Y-62239499D01*
X116710180Y-62276995D01*
X116691708Y-62311554D01*
X116666847Y-62341847D01*
X116636554Y-62366708D01*
X116601995Y-62385180D01*
X116564499Y-62396555D01*
X116519362Y-62401000D01*
X115880638Y-62401000D01*
X115835501Y-62396555D01*
X115798005Y-62385180D01*
X115763446Y-62366708D01*
X115733153Y-62341847D01*
X115708292Y-62311554D01*
X115689820Y-62276995D01*
X115678445Y-62239499D01*
X115674000Y-62194362D01*
X115674000Y-61455638D01*
X115678445Y-61410501D01*
X115689820Y-61373005D01*
X115708292Y-61338446D01*
X115733153Y-61308153D01*
X115763446Y-61283292D01*
X115798005Y-61264820D01*
X115835501Y-61253445D01*
X115880638Y-61249000D01*
X116519362Y-61249000D01*
X116564499Y-61253445D01*
X116564499Y-61253445D01*
G37*
G36*
X125656553Y-60452934D02*
G01*
X125678164Y-60464485D01*
X125701613Y-60471598D01*
X125725999Y-60474000D01*
X131101000Y-60474000D01*
X131101000Y-62026000D01*
X125654333Y-62026000D01*
X125643447Y-62017066D01*
X125621836Y-62005515D01*
X125598387Y-61998402D01*
X125574001Y-61996000D01*
X125199000Y-61996000D01*
X125199000Y-60444000D01*
X125645667Y-60444000D01*
X125656553Y-60452934D01*
X125656553Y-60452934D01*
G37*
G36*
X116464499Y-59403445D02*
G01*
X116501995Y-59414820D01*
X116536554Y-59433292D01*
X116566847Y-59458153D01*
X116591708Y-59488446D01*
X116610180Y-59523005D01*
X116621555Y-59560501D01*
X116626000Y-59605638D01*
X116626000Y-60344362D01*
X116621555Y-60389499D01*
X116610180Y-60426995D01*
X116591708Y-60461554D01*
X116566847Y-60491847D01*
X116536554Y-60516708D01*
X116501995Y-60535180D01*
X116464499Y-60546555D01*
X116419362Y-60551000D01*
X115780638Y-60551000D01*
X115735501Y-60546555D01*
X115698005Y-60535180D01*
X115663446Y-60516708D01*
X115633153Y-60491847D01*
X115608292Y-60461554D01*
X115589820Y-60426995D01*
X115578445Y-60389499D01*
X115574000Y-60344362D01*
X115574000Y-59605638D01*
X115578445Y-59560501D01*
X115589820Y-59523005D01*
X115608292Y-59488446D01*
X115633153Y-59458153D01*
X115663446Y-59433292D01*
X115698005Y-59414820D01*
X115735501Y-59403445D01*
X115780638Y-59399000D01*
X116419362Y-59399000D01*
X116464499Y-59403445D01*
X116464499Y-59403445D01*
G37*
G36*
X118264499Y-59403445D02*
G01*
X118301995Y-59414820D01*
X118336554Y-59433292D01*
X118366847Y-59458153D01*
X118391708Y-59488446D01*
X118410180Y-59523005D01*
X118421555Y-59560501D01*
X118426000Y-59605638D01*
X118426000Y-60344362D01*
X118421555Y-60389499D01*
X118410180Y-60426995D01*
X118391708Y-60461554D01*
X118366847Y-60491847D01*
X118336554Y-60516708D01*
X118301995Y-60535180D01*
X118264499Y-60546555D01*
X118219362Y-60551000D01*
X117580638Y-60551000D01*
X117535501Y-60546555D01*
X117498005Y-60535180D01*
X117463446Y-60516708D01*
X117433153Y-60491847D01*
X117408292Y-60461554D01*
X117389820Y-60426995D01*
X117378445Y-60389499D01*
X117374000Y-60344362D01*
X117374000Y-59605638D01*
X117378445Y-59560501D01*
X117389820Y-59523005D01*
X117408292Y-59488446D01*
X117433153Y-59458153D01*
X117463446Y-59433292D01*
X117498005Y-59414820D01*
X117535501Y-59403445D01*
X117580638Y-59399000D01*
X118219362Y-59399000D01*
X118264499Y-59403445D01*
X118264499Y-59403445D01*
G37*
G36*
X137004928Y-58501764D02*
G01*
X137026009Y-58508160D01*
X137045445Y-58518548D01*
X137062476Y-58532524D01*
X137076452Y-58549555D01*
X137086840Y-58568991D01*
X137093236Y-58590072D01*
X137096000Y-58618140D01*
X137096000Y-60431860D01*
X137093236Y-60459928D01*
X137086840Y-60481009D01*
X137076452Y-60500445D01*
X137062476Y-60517476D01*
X137045445Y-60531452D01*
X137026009Y-60541840D01*
X137004928Y-60548236D01*
X136976860Y-60551000D01*
X136513140Y-60551000D01*
X136485072Y-60548236D01*
X136463991Y-60541840D01*
X136444555Y-60531452D01*
X136427524Y-60517476D01*
X136413548Y-60500445D01*
X136403160Y-60481009D01*
X136396764Y-60459928D01*
X136394000Y-60431860D01*
X136394000Y-58618140D01*
X136396764Y-58590072D01*
X136403160Y-58568991D01*
X136413548Y-58549555D01*
X136427524Y-58532524D01*
X136444555Y-58518548D01*
X136463991Y-58508160D01*
X136485072Y-58501764D01*
X136513140Y-58499000D01*
X136976860Y-58499000D01*
X137004928Y-58501764D01*
X137004928Y-58501764D01*
G37*
G36*
X139544928Y-58501764D02*
G01*
X139566009Y-58508160D01*
X139585445Y-58518548D01*
X139602476Y-58532524D01*
X139616452Y-58549555D01*
X139626840Y-58568991D01*
X139633236Y-58590072D01*
X139636000Y-58618140D01*
X139636000Y-60431860D01*
X139633236Y-60459928D01*
X139626840Y-60481009D01*
X139616452Y-60500445D01*
X139602476Y-60517476D01*
X139585445Y-60531452D01*
X139566009Y-60541840D01*
X139544928Y-60548236D01*
X139516860Y-60551000D01*
X139053140Y-60551000D01*
X139025072Y-60548236D01*
X139003991Y-60541840D01*
X138984555Y-60531452D01*
X138967524Y-60517476D01*
X138953548Y-60500445D01*
X138943160Y-60481009D01*
X138936764Y-60459928D01*
X138934000Y-60431860D01*
X138934000Y-58618140D01*
X138936764Y-58590072D01*
X138943160Y-58568991D01*
X138953548Y-58549555D01*
X138967524Y-58532524D01*
X138984555Y-58518548D01*
X139003991Y-58508160D01*
X139025072Y-58501764D01*
X139053140Y-58499000D01*
X139516860Y-58499000D01*
X139544928Y-58501764D01*
X139544928Y-58501764D01*
G37*
G36*
X140814928Y-58501764D02*
G01*
X140836009Y-58508160D01*
X140855445Y-58518548D01*
X140872476Y-58532524D01*
X140886452Y-58549555D01*
X140896840Y-58568991D01*
X140903236Y-58590072D01*
X140906000Y-58618140D01*
X140906000Y-60431860D01*
X140903236Y-60459928D01*
X140896840Y-60481009D01*
X140886452Y-60500445D01*
X140872476Y-60517476D01*
X140855445Y-60531452D01*
X140836009Y-60541840D01*
X140814928Y-60548236D01*
X140786860Y-60551000D01*
X140323140Y-60551000D01*
X140295072Y-60548236D01*
X140273991Y-60541840D01*
X140254555Y-60531452D01*
X140237524Y-60517476D01*
X140223548Y-60500445D01*
X140213160Y-60481009D01*
X140206764Y-60459928D01*
X140204000Y-60431860D01*
X140204000Y-58618140D01*
X140206764Y-58590072D01*
X140213160Y-58568991D01*
X140223548Y-58549555D01*
X140237524Y-58532524D01*
X140254555Y-58518548D01*
X140273991Y-58508160D01*
X140295072Y-58501764D01*
X140323140Y-58499000D01*
X140786860Y-58499000D01*
X140814928Y-58501764D01*
X140814928Y-58501764D01*
G37*
G36*
X138274928Y-58501764D02*
G01*
X138296009Y-58508160D01*
X138315445Y-58518548D01*
X138332476Y-58532524D01*
X138346452Y-58549555D01*
X138356840Y-58568991D01*
X138363236Y-58590072D01*
X138366000Y-58618140D01*
X138366000Y-60431860D01*
X138363236Y-60459928D01*
X138356840Y-60481009D01*
X138346452Y-60500445D01*
X138332476Y-60517476D01*
X138315445Y-60531452D01*
X138296009Y-60541840D01*
X138274928Y-60548236D01*
X138246860Y-60551000D01*
X137783140Y-60551000D01*
X137755072Y-60548236D01*
X137733991Y-60541840D01*
X137714555Y-60531452D01*
X137697524Y-60517476D01*
X137683548Y-60500445D01*
X137673160Y-60481009D01*
X137666764Y-60459928D01*
X137664000Y-60431860D01*
X137664000Y-58618140D01*
X137666764Y-58590072D01*
X137673160Y-58568991D01*
X137683548Y-58549555D01*
X137697524Y-58532524D01*
X137714555Y-58518548D01*
X137733991Y-58508160D01*
X137755072Y-58501764D01*
X137783140Y-58499000D01*
X138246860Y-58499000D01*
X138274928Y-58501764D01*
X138274928Y-58501764D01*
G37*
G36*
X133126000Y-60001000D02*
G01*
X131574000Y-60001000D01*
X131574000Y-54099000D01*
X133126000Y-54099000D01*
X133126000Y-60001000D01*
X133126000Y-60001000D01*
G37*
G36*
X124726000Y-60001000D02*
G01*
X123174000Y-60001000D01*
X123174000Y-54099000D01*
X124726000Y-54099000D01*
X124726000Y-60001000D01*
X124726000Y-60001000D01*
G37*
G36*
X114614928Y-57851764D02*
G01*
X114636009Y-57858160D01*
X114655445Y-57868548D01*
X114672476Y-57882524D01*
X114686452Y-57899555D01*
X114696840Y-57918991D01*
X114703236Y-57940072D01*
X114706000Y-57968140D01*
X114706000Y-59781860D01*
X114703236Y-59809928D01*
X114696840Y-59831009D01*
X114686452Y-59850445D01*
X114672476Y-59867476D01*
X114655445Y-59881452D01*
X114636009Y-59891840D01*
X114614928Y-59898236D01*
X114586860Y-59901000D01*
X114123140Y-59901000D01*
X114095072Y-59898236D01*
X114073991Y-59891840D01*
X114054555Y-59881452D01*
X114037524Y-59867476D01*
X114023548Y-59850445D01*
X114013160Y-59831009D01*
X114006764Y-59809928D01*
X114004000Y-59781860D01*
X114004000Y-57968140D01*
X114006764Y-57940072D01*
X114013160Y-57918991D01*
X114023548Y-57899555D01*
X114037524Y-57882524D01*
X114054555Y-57868548D01*
X114073991Y-57858160D01*
X114095072Y-57851764D01*
X114123140Y-57849000D01*
X114586860Y-57849000D01*
X114614928Y-57851764D01*
X114614928Y-57851764D01*
G37*
G36*
X113344928Y-57851764D02*
G01*
X113366009Y-57858160D01*
X113385445Y-57868548D01*
X113402476Y-57882524D01*
X113416452Y-57899555D01*
X113426840Y-57918991D01*
X113433236Y-57940072D01*
X113436000Y-57968140D01*
X113436000Y-59781860D01*
X113433236Y-59809928D01*
X113426840Y-59831009D01*
X113416452Y-59850445D01*
X113402476Y-59867476D01*
X113385445Y-59881452D01*
X113366009Y-59891840D01*
X113344928Y-59898236D01*
X113316860Y-59901000D01*
X112853140Y-59901000D01*
X112825072Y-59898236D01*
X112803991Y-59891840D01*
X112784555Y-59881452D01*
X112767524Y-59867476D01*
X112753548Y-59850445D01*
X112743160Y-59831009D01*
X112736764Y-59809928D01*
X112734000Y-59781860D01*
X112734000Y-57968140D01*
X112736764Y-57940072D01*
X112743160Y-57918991D01*
X112753548Y-57899555D01*
X112767524Y-57882524D01*
X112784555Y-57868548D01*
X112803991Y-57858160D01*
X112825072Y-57851764D01*
X112853140Y-57849000D01*
X113316860Y-57849000D01*
X113344928Y-57851764D01*
X113344928Y-57851764D01*
G37*
G36*
X112074928Y-57851764D02*
G01*
X112096009Y-57858160D01*
X112115445Y-57868548D01*
X112132476Y-57882524D01*
X112146452Y-57899555D01*
X112156840Y-57918991D01*
X112163236Y-57940072D01*
X112166000Y-57968140D01*
X112166000Y-59781860D01*
X112163236Y-59809928D01*
X112156840Y-59831009D01*
X112146452Y-59850445D01*
X112132476Y-59867476D01*
X112115445Y-59881452D01*
X112096009Y-59891840D01*
X112074928Y-59898236D01*
X112046860Y-59901000D01*
X111583140Y-59901000D01*
X111555072Y-59898236D01*
X111533991Y-59891840D01*
X111514555Y-59881452D01*
X111497524Y-59867476D01*
X111483548Y-59850445D01*
X111473160Y-59831009D01*
X111466764Y-59809928D01*
X111464000Y-59781860D01*
X111464000Y-57968140D01*
X111466764Y-57940072D01*
X111473160Y-57918991D01*
X111483548Y-57899555D01*
X111497524Y-57882524D01*
X111514555Y-57868548D01*
X111533991Y-57858160D01*
X111555072Y-57851764D01*
X111583140Y-57849000D01*
X112046860Y-57849000D01*
X112074928Y-57851764D01*
X112074928Y-57851764D01*
G37*
G36*
X110804928Y-57851764D02*
G01*
X110826009Y-57858160D01*
X110845445Y-57868548D01*
X110862476Y-57882524D01*
X110876452Y-57899555D01*
X110886840Y-57918991D01*
X110893236Y-57940072D01*
X110896000Y-57968140D01*
X110896000Y-59781860D01*
X110893236Y-59809928D01*
X110886840Y-59831009D01*
X110876452Y-59850445D01*
X110862476Y-59867476D01*
X110845445Y-59881452D01*
X110826009Y-59891840D01*
X110804928Y-59898236D01*
X110776860Y-59901000D01*
X110313140Y-59901000D01*
X110285072Y-59898236D01*
X110263991Y-59891840D01*
X110244555Y-59881452D01*
X110227524Y-59867476D01*
X110213548Y-59850445D01*
X110203160Y-59831009D01*
X110196764Y-59809928D01*
X110194000Y-59781860D01*
X110194000Y-57968140D01*
X110196764Y-57940072D01*
X110203160Y-57918991D01*
X110213548Y-57899555D01*
X110227524Y-57882524D01*
X110244555Y-57868548D01*
X110263991Y-57858160D01*
X110285072Y-57851764D01*
X110313140Y-57849000D01*
X110776860Y-57849000D01*
X110804928Y-57851764D01*
X110804928Y-57851764D01*
G37*
G36*
X118264499Y-57653445D02*
G01*
X118301995Y-57664820D01*
X118336554Y-57683292D01*
X118366847Y-57708153D01*
X118391708Y-57738446D01*
X118410180Y-57773005D01*
X118421555Y-57810501D01*
X118426000Y-57855638D01*
X118426000Y-58594362D01*
X118421555Y-58639499D01*
X118410180Y-58676995D01*
X118391708Y-58711554D01*
X118366847Y-58741847D01*
X118336554Y-58766708D01*
X118301995Y-58785180D01*
X118264499Y-58796555D01*
X118219362Y-58801000D01*
X117580638Y-58801000D01*
X117535501Y-58796555D01*
X117498005Y-58785180D01*
X117463446Y-58766708D01*
X117433153Y-58741847D01*
X117408292Y-58711554D01*
X117389820Y-58676995D01*
X117378445Y-58639499D01*
X117374000Y-58594362D01*
X117374000Y-57855638D01*
X117378445Y-57810501D01*
X117389820Y-57773005D01*
X117408292Y-57738446D01*
X117433153Y-57708153D01*
X117463446Y-57683292D01*
X117498005Y-57664820D01*
X117535501Y-57653445D01*
X117580638Y-57649000D01*
X118219362Y-57649000D01*
X118264499Y-57653445D01*
X118264499Y-57653445D01*
G37*
G36*
X116464499Y-57653445D02*
G01*
X116501995Y-57664820D01*
X116536554Y-57683292D01*
X116566847Y-57708153D01*
X116591708Y-57738446D01*
X116610180Y-57773005D01*
X116621555Y-57810501D01*
X116626000Y-57855638D01*
X116626000Y-58594362D01*
X116621555Y-58639499D01*
X116610180Y-58676995D01*
X116591708Y-58711554D01*
X116566847Y-58741847D01*
X116536554Y-58766708D01*
X116501995Y-58785180D01*
X116464499Y-58796555D01*
X116419362Y-58801000D01*
X115780638Y-58801000D01*
X115735501Y-58796555D01*
X115698005Y-58785180D01*
X115663446Y-58766708D01*
X115633153Y-58741847D01*
X115608292Y-58711554D01*
X115589820Y-58676995D01*
X115578445Y-58639499D01*
X115574000Y-58594362D01*
X115574000Y-57855638D01*
X115578445Y-57810501D01*
X115589820Y-57773005D01*
X115608292Y-57738446D01*
X115633153Y-57708153D01*
X115663446Y-57683292D01*
X115698005Y-57664820D01*
X115735501Y-57653445D01*
X115780638Y-57649000D01*
X116419362Y-57649000D01*
X116464499Y-57653445D01*
X116464499Y-57653445D01*
G37*
G36*
X135291938Y-56781716D02*
G01*
X135312557Y-56787971D01*
X135331553Y-56798124D01*
X135348208Y-56811792D01*
X135361876Y-56828447D01*
X135372029Y-56847443D01*
X135378284Y-56868062D01*
X135381000Y-56895640D01*
X135381000Y-57404360D01*
X135378284Y-57431938D01*
X135372029Y-57452557D01*
X135361876Y-57471553D01*
X135348208Y-57488208D01*
X135331553Y-57501876D01*
X135312557Y-57512029D01*
X135291938Y-57518284D01*
X135264360Y-57521000D01*
X134805640Y-57521000D01*
X134778062Y-57518284D01*
X134757443Y-57512029D01*
X134738447Y-57501876D01*
X134721792Y-57488208D01*
X134708124Y-57471553D01*
X134697971Y-57452557D01*
X134691716Y-57431938D01*
X134689000Y-57404360D01*
X134689000Y-56895640D01*
X134691716Y-56868062D01*
X134697971Y-56847443D01*
X134708124Y-56828447D01*
X134721792Y-56811792D01*
X134738447Y-56798124D01*
X134757443Y-56787971D01*
X134778062Y-56781716D01*
X134805640Y-56779000D01*
X135264360Y-56779000D01*
X135291938Y-56781716D01*
X135291938Y-56781716D01*
G37*
G36*
X134321938Y-56781716D02*
G01*
X134342557Y-56787971D01*
X134361553Y-56798124D01*
X134378208Y-56811792D01*
X134391876Y-56828447D01*
X134402029Y-56847443D01*
X134408284Y-56868062D01*
X134411000Y-56895640D01*
X134411000Y-57404360D01*
X134408284Y-57431938D01*
X134402029Y-57452557D01*
X134391876Y-57471553D01*
X134378208Y-57488208D01*
X134361553Y-57501876D01*
X134342557Y-57512029D01*
X134321938Y-57518284D01*
X134294360Y-57521000D01*
X133835640Y-57521000D01*
X133808062Y-57518284D01*
X133787443Y-57512029D01*
X133768447Y-57501876D01*
X133751792Y-57488208D01*
X133738124Y-57471553D01*
X133727971Y-57452557D01*
X133721716Y-57431938D01*
X133719000Y-57404360D01*
X133719000Y-56895640D01*
X133721716Y-56868062D01*
X133727971Y-56847443D01*
X133738124Y-56828447D01*
X133751792Y-56811792D01*
X133768447Y-56798124D01*
X133787443Y-56787971D01*
X133808062Y-56781716D01*
X133835640Y-56779000D01*
X134294360Y-56779000D01*
X134321938Y-56781716D01*
X134321938Y-56781716D01*
G37*
G36*
X122631938Y-56791716D02*
G01*
X122652557Y-56797971D01*
X122671553Y-56808124D01*
X122688208Y-56821792D01*
X122701876Y-56838447D01*
X122712029Y-56857443D01*
X122718284Y-56878062D01*
X122721000Y-56905640D01*
X122721000Y-57364360D01*
X122718284Y-57391938D01*
X122712029Y-57412557D01*
X122701876Y-57431553D01*
X122688208Y-57448208D01*
X122671553Y-57461876D01*
X122652557Y-57472029D01*
X122631938Y-57478284D01*
X122604360Y-57481000D01*
X122095640Y-57481000D01*
X122068062Y-57478284D01*
X122047443Y-57472029D01*
X122028447Y-57461876D01*
X122011792Y-57448208D01*
X121998124Y-57431553D01*
X121987971Y-57412557D01*
X121981716Y-57391938D01*
X121979000Y-57364360D01*
X121979000Y-56905640D01*
X121981716Y-56878062D01*
X121987971Y-56857443D01*
X121998124Y-56838447D01*
X122011792Y-56821792D01*
X122028447Y-56808124D01*
X122047443Y-56797971D01*
X122068062Y-56791716D01*
X122095640Y-56789000D01*
X122604360Y-56789000D01*
X122631938Y-56791716D01*
X122631938Y-56791716D01*
G37*
G36*
X113739499Y-56178445D02*
G01*
X113776995Y-56189820D01*
X113811554Y-56208292D01*
X113841847Y-56233153D01*
X113866708Y-56263446D01*
X113885180Y-56298005D01*
X113896555Y-56335501D01*
X113901000Y-56380638D01*
X113901000Y-57019362D01*
X113896555Y-57064499D01*
X113885180Y-57101995D01*
X113866708Y-57136554D01*
X113841847Y-57166847D01*
X113811554Y-57191708D01*
X113776995Y-57210180D01*
X113739499Y-57221555D01*
X113694362Y-57226000D01*
X112955638Y-57226000D01*
X112910501Y-57221555D01*
X112873005Y-57210180D01*
X112838446Y-57191708D01*
X112808153Y-57166847D01*
X112783292Y-57136554D01*
X112764820Y-57101995D01*
X112753445Y-57064499D01*
X112749000Y-57019362D01*
X112749000Y-56380638D01*
X112753445Y-56335501D01*
X112764820Y-56298005D01*
X112783292Y-56263446D01*
X112808153Y-56233153D01*
X112838446Y-56208292D01*
X112873005Y-56189820D01*
X112910501Y-56178445D01*
X112955638Y-56174000D01*
X113694362Y-56174000D01*
X113739499Y-56178445D01*
X113739499Y-56178445D01*
G37*
G36*
X111989499Y-56178445D02*
G01*
X112026995Y-56189820D01*
X112061554Y-56208292D01*
X112091847Y-56233153D01*
X112116708Y-56263446D01*
X112135180Y-56298005D01*
X112146555Y-56335501D01*
X112151000Y-56380638D01*
X112151000Y-57019362D01*
X112146555Y-57064499D01*
X112135180Y-57101995D01*
X112116708Y-57136554D01*
X112091847Y-57166847D01*
X112061554Y-57191708D01*
X112026995Y-57210180D01*
X111989499Y-57221555D01*
X111944362Y-57226000D01*
X111205638Y-57226000D01*
X111160501Y-57221555D01*
X111123005Y-57210180D01*
X111088446Y-57191708D01*
X111058153Y-57166847D01*
X111033292Y-57136554D01*
X111014820Y-57101995D01*
X111003445Y-57064499D01*
X110999000Y-57019362D01*
X110999000Y-56380638D01*
X111003445Y-56335501D01*
X111014820Y-56298005D01*
X111033292Y-56263446D01*
X111058153Y-56233153D01*
X111088446Y-56208292D01*
X111123005Y-56189820D01*
X111160501Y-56178445D01*
X111205638Y-56174000D01*
X111944362Y-56174000D01*
X111989499Y-56178445D01*
X111989499Y-56178445D01*
G37*
G36*
X122631938Y-55821716D02*
G01*
X122652557Y-55827971D01*
X122671553Y-55838124D01*
X122688208Y-55851792D01*
X122701876Y-55868447D01*
X122712029Y-55887443D01*
X122718284Y-55908062D01*
X122721000Y-55935640D01*
X122721000Y-56394360D01*
X122718284Y-56421938D01*
X122712029Y-56442557D01*
X122701876Y-56461553D01*
X122688208Y-56478208D01*
X122671553Y-56491876D01*
X122652557Y-56502029D01*
X122631938Y-56508284D01*
X122604360Y-56511000D01*
X122095640Y-56511000D01*
X122068062Y-56508284D01*
X122047443Y-56502029D01*
X122028447Y-56491876D01*
X122011792Y-56478208D01*
X121998124Y-56461553D01*
X121987971Y-56442557D01*
X121981716Y-56421938D01*
X121979000Y-56394360D01*
X121979000Y-55935640D01*
X121981716Y-55908062D01*
X121987971Y-55887443D01*
X121998124Y-55868447D01*
X122011792Y-55851792D01*
X122028447Y-55838124D01*
X122047443Y-55827971D01*
X122068062Y-55821716D01*
X122095640Y-55819000D01*
X122604360Y-55819000D01*
X122631938Y-55821716D01*
X122631938Y-55821716D01*
G37*
G36*
X134321938Y-55581716D02*
G01*
X134342557Y-55587971D01*
X134361553Y-55598124D01*
X134378208Y-55611792D01*
X134391876Y-55628447D01*
X134402029Y-55647443D01*
X134408284Y-55668062D01*
X134411000Y-55695640D01*
X134411000Y-56204360D01*
X134408284Y-56231938D01*
X134402029Y-56252557D01*
X134391876Y-56271553D01*
X134378208Y-56288208D01*
X134361553Y-56301876D01*
X134342557Y-56312029D01*
X134321938Y-56318284D01*
X134294360Y-56321000D01*
X133835640Y-56321000D01*
X133808062Y-56318284D01*
X133787443Y-56312029D01*
X133768447Y-56301876D01*
X133751792Y-56288208D01*
X133738124Y-56271553D01*
X133727971Y-56252557D01*
X133721716Y-56231938D01*
X133719000Y-56204360D01*
X133719000Y-55695640D01*
X133721716Y-55668062D01*
X133727971Y-55647443D01*
X133738124Y-55628447D01*
X133751792Y-55611792D01*
X133768447Y-55598124D01*
X133787443Y-55587971D01*
X133808062Y-55581716D01*
X133835640Y-55579000D01*
X134294360Y-55579000D01*
X134321938Y-55581716D01*
X134321938Y-55581716D01*
G37*
G36*
X135291938Y-55581716D02*
G01*
X135312557Y-55587971D01*
X135331553Y-55598124D01*
X135348208Y-55611792D01*
X135361876Y-55628447D01*
X135372029Y-55647443D01*
X135378284Y-55668062D01*
X135381000Y-55695640D01*
X135381000Y-56204360D01*
X135378284Y-56231938D01*
X135372029Y-56252557D01*
X135361876Y-56271553D01*
X135348208Y-56288208D01*
X135331553Y-56301876D01*
X135312557Y-56312029D01*
X135291938Y-56318284D01*
X135264360Y-56321000D01*
X134805640Y-56321000D01*
X134778062Y-56318284D01*
X134757443Y-56312029D01*
X134738447Y-56301876D01*
X134721792Y-56288208D01*
X134708124Y-56271553D01*
X134697971Y-56252557D01*
X134691716Y-56231938D01*
X134689000Y-56204360D01*
X134689000Y-55695640D01*
X134691716Y-55668062D01*
X134697971Y-55647443D01*
X134708124Y-55628447D01*
X134721792Y-55611792D01*
X134738447Y-55598124D01*
X134757443Y-55587971D01*
X134778062Y-55581716D01*
X134805640Y-55579000D01*
X135264360Y-55579000D01*
X135291938Y-55581716D01*
X135291938Y-55581716D01*
G37*
G36*
X106401000Y-55901000D02*
G01*
X104599000Y-55901000D01*
X104599000Y-54099000D01*
X106401000Y-54099000D01*
X106401000Y-55901000D01*
X106401000Y-55901000D01*
G37*
G36*
X139544928Y-53551764D02*
G01*
X139566009Y-53558160D01*
X139585445Y-53568548D01*
X139602476Y-53582524D01*
X139616452Y-53599555D01*
X139626840Y-53618991D01*
X139633236Y-53640072D01*
X139636000Y-53668140D01*
X139636000Y-55481860D01*
X139633236Y-55509928D01*
X139626840Y-55531009D01*
X139616452Y-55550445D01*
X139602476Y-55567476D01*
X139585445Y-55581452D01*
X139566009Y-55591840D01*
X139544928Y-55598236D01*
X139516860Y-55601000D01*
X139053140Y-55601000D01*
X139025072Y-55598236D01*
X139003991Y-55591840D01*
X138984555Y-55581452D01*
X138967524Y-55567476D01*
X138953548Y-55550445D01*
X138943160Y-55531009D01*
X138936764Y-55509928D01*
X138934000Y-55481860D01*
X138934000Y-53668140D01*
X138936764Y-53640072D01*
X138943160Y-53618991D01*
X138953548Y-53599555D01*
X138967524Y-53582524D01*
X138984555Y-53568548D01*
X139003991Y-53558160D01*
X139025072Y-53551764D01*
X139053140Y-53549000D01*
X139516860Y-53549000D01*
X139544928Y-53551764D01*
X139544928Y-53551764D01*
G37*
G36*
X140814928Y-53551764D02*
G01*
X140836009Y-53558160D01*
X140855445Y-53568548D01*
X140872476Y-53582524D01*
X140886452Y-53599555D01*
X140896840Y-53618991D01*
X140903236Y-53640072D01*
X140906000Y-53668140D01*
X140906000Y-55481860D01*
X140903236Y-55509928D01*
X140896840Y-55531009D01*
X140886452Y-55550445D01*
X140872476Y-55567476D01*
X140855445Y-55581452D01*
X140836009Y-55591840D01*
X140814928Y-55598236D01*
X140786860Y-55601000D01*
X140323140Y-55601000D01*
X140295072Y-55598236D01*
X140273991Y-55591840D01*
X140254555Y-55581452D01*
X140237524Y-55567476D01*
X140223548Y-55550445D01*
X140213160Y-55531009D01*
X140206764Y-55509928D01*
X140204000Y-55481860D01*
X140204000Y-53668140D01*
X140206764Y-53640072D01*
X140213160Y-53618991D01*
X140223548Y-53599555D01*
X140237524Y-53582524D01*
X140254555Y-53568548D01*
X140273991Y-53558160D01*
X140295072Y-53551764D01*
X140323140Y-53549000D01*
X140786860Y-53549000D01*
X140814928Y-53551764D01*
X140814928Y-53551764D01*
G37*
G36*
X137004928Y-53551764D02*
G01*
X137026009Y-53558160D01*
X137045445Y-53568548D01*
X137062476Y-53582524D01*
X137076452Y-53599555D01*
X137086840Y-53618991D01*
X137093236Y-53640072D01*
X137096000Y-53668140D01*
X137096000Y-55481860D01*
X137093236Y-55509928D01*
X137086840Y-55531009D01*
X137076452Y-55550445D01*
X137062476Y-55567476D01*
X137045445Y-55581452D01*
X137026009Y-55591840D01*
X137004928Y-55598236D01*
X136976860Y-55601000D01*
X136513140Y-55601000D01*
X136485072Y-55598236D01*
X136463991Y-55591840D01*
X136444555Y-55581452D01*
X136427524Y-55567476D01*
X136413548Y-55550445D01*
X136403160Y-55531009D01*
X136396764Y-55509928D01*
X136394000Y-55481860D01*
X136394000Y-53668140D01*
X136396764Y-53640072D01*
X136403160Y-53618991D01*
X136413548Y-53599555D01*
X136427524Y-53582524D01*
X136444555Y-53568548D01*
X136463991Y-53558160D01*
X136485072Y-53551764D01*
X136513140Y-53549000D01*
X136976860Y-53549000D01*
X137004928Y-53551764D01*
X137004928Y-53551764D01*
G37*
G36*
X138274928Y-53551764D02*
G01*
X138296009Y-53558160D01*
X138315445Y-53568548D01*
X138332476Y-53582524D01*
X138346452Y-53599555D01*
X138356840Y-53618991D01*
X138363236Y-53640072D01*
X138366000Y-53668140D01*
X138366000Y-55481860D01*
X138363236Y-55509928D01*
X138356840Y-55531009D01*
X138346452Y-55550445D01*
X138332476Y-55567476D01*
X138315445Y-55581452D01*
X138296009Y-55591840D01*
X138274928Y-55598236D01*
X138246860Y-55601000D01*
X137783140Y-55601000D01*
X137755072Y-55598236D01*
X137733991Y-55591840D01*
X137714555Y-55581452D01*
X137697524Y-55567476D01*
X137683548Y-55550445D01*
X137673160Y-55531009D01*
X137666764Y-55509928D01*
X137664000Y-55481860D01*
X137664000Y-53668140D01*
X137666764Y-53640072D01*
X137673160Y-53618991D01*
X137683548Y-53599555D01*
X137697524Y-53582524D01*
X137714555Y-53568548D01*
X137733991Y-53558160D01*
X137755072Y-53551764D01*
X137783140Y-53549000D01*
X138246860Y-53549000D01*
X138274928Y-53551764D01*
X138274928Y-53551764D01*
G37*
G36*
X110764499Y-54303445D02*
G01*
X110801995Y-54314820D01*
X110836554Y-54333292D01*
X110866847Y-54358153D01*
X110891708Y-54388446D01*
X110910180Y-54423005D01*
X110921555Y-54460501D01*
X110926000Y-54505638D01*
X110926000Y-55244362D01*
X110921555Y-55289499D01*
X110910180Y-55326995D01*
X110891708Y-55361554D01*
X110866847Y-55391847D01*
X110836554Y-55416708D01*
X110801995Y-55435180D01*
X110764499Y-55446555D01*
X110719362Y-55451000D01*
X110080638Y-55451000D01*
X110035501Y-55446555D01*
X109998005Y-55435180D01*
X109963446Y-55416708D01*
X109933153Y-55391847D01*
X109908292Y-55361554D01*
X109889820Y-55326995D01*
X109878445Y-55289499D01*
X109874000Y-55244362D01*
X109874000Y-54505638D01*
X109878445Y-54460501D01*
X109889820Y-54423005D01*
X109908292Y-54388446D01*
X109933153Y-54358153D01*
X109963446Y-54333292D01*
X109998005Y-54314820D01*
X110035501Y-54303445D01*
X110080638Y-54299000D01*
X110719362Y-54299000D01*
X110764499Y-54303445D01*
X110764499Y-54303445D01*
G37*
G36*
X116739499Y-54378445D02*
G01*
X116776995Y-54389820D01*
X116811554Y-54408292D01*
X116841847Y-54433153D01*
X116866708Y-54463446D01*
X116885180Y-54498005D01*
X116896555Y-54535501D01*
X116901000Y-54580638D01*
X116901000Y-55219362D01*
X116896555Y-55264499D01*
X116885180Y-55301995D01*
X116866708Y-55336554D01*
X116841847Y-55366847D01*
X116811554Y-55391708D01*
X116776995Y-55410180D01*
X116739499Y-55421555D01*
X116694362Y-55426000D01*
X115955638Y-55426000D01*
X115910501Y-55421555D01*
X115873005Y-55410180D01*
X115838446Y-55391708D01*
X115808153Y-55366847D01*
X115783292Y-55336554D01*
X115764820Y-55301995D01*
X115753445Y-55264499D01*
X115749000Y-55219362D01*
X115749000Y-54580638D01*
X115753445Y-54535501D01*
X115764820Y-54498005D01*
X115783292Y-54463446D01*
X115808153Y-54433153D01*
X115838446Y-54408292D01*
X115873005Y-54389820D01*
X115910501Y-54378445D01*
X115955638Y-54374000D01*
X116694362Y-54374000D01*
X116739499Y-54378445D01*
X116739499Y-54378445D01*
G37*
G36*
X118489499Y-54378445D02*
G01*
X118526995Y-54389820D01*
X118561554Y-54408292D01*
X118591847Y-54433153D01*
X118616708Y-54463446D01*
X118635180Y-54498005D01*
X118646555Y-54535501D01*
X118651000Y-54580638D01*
X118651000Y-55219362D01*
X118646555Y-55264499D01*
X118635180Y-55301995D01*
X118616708Y-55336554D01*
X118591847Y-55366847D01*
X118561554Y-55391708D01*
X118526995Y-55410180D01*
X118489499Y-55421555D01*
X118444362Y-55426000D01*
X117705638Y-55426000D01*
X117660501Y-55421555D01*
X117623005Y-55410180D01*
X117588446Y-55391708D01*
X117558153Y-55366847D01*
X117533292Y-55336554D01*
X117514820Y-55301995D01*
X117503445Y-55264499D01*
X117499000Y-55219362D01*
X117499000Y-54580638D01*
X117503445Y-54535501D01*
X117514820Y-54498005D01*
X117533292Y-54463446D01*
X117558153Y-54433153D01*
X117588446Y-54408292D01*
X117623005Y-54389820D01*
X117660501Y-54378445D01*
X117705638Y-54374000D01*
X118444362Y-54374000D01*
X118489499Y-54378445D01*
X118489499Y-54378445D01*
G37*
G36*
X112839499Y-54378445D02*
G01*
X112876995Y-54389820D01*
X112911554Y-54408292D01*
X112941847Y-54433153D01*
X112966708Y-54463446D01*
X112985180Y-54498005D01*
X112996555Y-54535501D01*
X113001000Y-54580638D01*
X113001000Y-55219362D01*
X112996555Y-55264499D01*
X112985180Y-55301995D01*
X112966708Y-55336554D01*
X112941847Y-55366847D01*
X112911554Y-55391708D01*
X112876995Y-55410180D01*
X112839499Y-55421555D01*
X112794362Y-55426000D01*
X112055638Y-55426000D01*
X112010501Y-55421555D01*
X111973005Y-55410180D01*
X111938446Y-55391708D01*
X111908153Y-55366847D01*
X111883292Y-55336554D01*
X111864820Y-55301995D01*
X111853445Y-55264499D01*
X111849000Y-55219362D01*
X111849000Y-54580638D01*
X111853445Y-54535501D01*
X111864820Y-54498005D01*
X111883292Y-54463446D01*
X111908153Y-54433153D01*
X111938446Y-54408292D01*
X111973005Y-54389820D01*
X112010501Y-54378445D01*
X112055638Y-54374000D01*
X112794362Y-54374000D01*
X112839499Y-54378445D01*
X112839499Y-54378445D01*
G37*
G36*
X114589499Y-54378445D02*
G01*
X114626995Y-54389820D01*
X114661554Y-54408292D01*
X114691847Y-54433153D01*
X114716708Y-54463446D01*
X114735180Y-54498005D01*
X114746555Y-54535501D01*
X114751000Y-54580638D01*
X114751000Y-55219362D01*
X114746555Y-55264499D01*
X114735180Y-55301995D01*
X114716708Y-55336554D01*
X114691847Y-55366847D01*
X114661554Y-55391708D01*
X114626995Y-55410180D01*
X114589499Y-55421555D01*
X114544362Y-55426000D01*
X113805638Y-55426000D01*
X113760501Y-55421555D01*
X113723005Y-55410180D01*
X113688446Y-55391708D01*
X113658153Y-55366847D01*
X113633292Y-55336554D01*
X113614820Y-55301995D01*
X113603445Y-55264499D01*
X113599000Y-55219362D01*
X113599000Y-54580638D01*
X113603445Y-54535501D01*
X113614820Y-54498005D01*
X113633292Y-54463446D01*
X113658153Y-54433153D01*
X113688446Y-54408292D01*
X113723005Y-54389820D01*
X113760501Y-54378445D01*
X113805638Y-54374000D01*
X114544362Y-54374000D01*
X114589499Y-54378445D01*
X114589499Y-54378445D01*
G37*
G36*
X110764499Y-52553445D02*
G01*
X110801995Y-52564820D01*
X110836554Y-52583292D01*
X110866847Y-52608153D01*
X110891708Y-52638446D01*
X110910180Y-52673005D01*
X110921555Y-52710501D01*
X110926000Y-52755638D01*
X110926000Y-53494362D01*
X110921555Y-53539499D01*
X110910180Y-53576995D01*
X110891708Y-53611554D01*
X110866847Y-53641847D01*
X110836554Y-53666708D01*
X110801995Y-53685180D01*
X110764499Y-53696555D01*
X110719362Y-53701000D01*
X110080638Y-53701000D01*
X110035501Y-53696555D01*
X109998005Y-53685180D01*
X109963446Y-53666708D01*
X109933153Y-53641847D01*
X109908292Y-53611554D01*
X109889820Y-53576995D01*
X109878445Y-53539499D01*
X109874000Y-53494362D01*
X109874000Y-52755638D01*
X109878445Y-52710501D01*
X109889820Y-52673005D01*
X109908292Y-52638446D01*
X109933153Y-52608153D01*
X109963446Y-52583292D01*
X109998005Y-52564820D01*
X110035501Y-52553445D01*
X110080638Y-52549000D01*
X110719362Y-52549000D01*
X110764499Y-52553445D01*
X110764499Y-52553445D01*
G37*
G36*
X131101000Y-53626000D02*
G01*
X125199000Y-53626000D01*
X125199000Y-52074000D01*
X131101000Y-52074000D01*
X131101000Y-53626000D01*
X131101000Y-53626000D01*
G37*
G36*
X120609928Y-52556764D02*
G01*
X120631009Y-52563160D01*
X120650445Y-52573548D01*
X120667476Y-52587524D01*
X120681452Y-52604555D01*
X120691840Y-52623991D01*
X120698236Y-52645072D01*
X120701000Y-52673140D01*
X120701000Y-53136860D01*
X120698236Y-53164928D01*
X120691840Y-53186009D01*
X120681452Y-53205445D01*
X120667476Y-53222476D01*
X120650445Y-53236452D01*
X120631009Y-53246840D01*
X120609928Y-53253236D01*
X120581860Y-53256000D01*
X119118140Y-53256000D01*
X119090072Y-53253236D01*
X119068991Y-53246840D01*
X119049555Y-53236452D01*
X119032524Y-53222476D01*
X119018548Y-53205445D01*
X119008160Y-53186009D01*
X119001764Y-53164928D01*
X118999000Y-53136860D01*
X118999000Y-52673140D01*
X119001764Y-52645072D01*
X119008160Y-52623991D01*
X119018548Y-52604555D01*
X119032524Y-52587524D01*
X119049555Y-52573548D01*
X119068991Y-52563160D01*
X119090072Y-52556764D01*
X119118140Y-52554000D01*
X120581860Y-52554000D01*
X120609928Y-52556764D01*
X120609928Y-52556764D01*
G37*
G36*
X113409928Y-52556764D02*
G01*
X113431009Y-52563160D01*
X113450445Y-52573548D01*
X113467476Y-52587524D01*
X113481452Y-52604555D01*
X113491840Y-52623991D01*
X113498236Y-52645072D01*
X113501000Y-52673140D01*
X113501000Y-53136860D01*
X113498236Y-53164928D01*
X113491840Y-53186009D01*
X113481452Y-53205445D01*
X113467476Y-53222476D01*
X113450445Y-53236452D01*
X113431009Y-53246840D01*
X113409928Y-53253236D01*
X113381860Y-53256000D01*
X111918140Y-53256000D01*
X111890072Y-53253236D01*
X111868991Y-53246840D01*
X111849555Y-53236452D01*
X111832524Y-53222476D01*
X111818548Y-53205445D01*
X111808160Y-53186009D01*
X111801764Y-53164928D01*
X111799000Y-53136860D01*
X111799000Y-52673140D01*
X111801764Y-52645072D01*
X111808160Y-52623991D01*
X111818548Y-52604555D01*
X111832524Y-52587524D01*
X111849555Y-52573548D01*
X111868991Y-52563160D01*
X111890072Y-52556764D01*
X111918140Y-52554000D01*
X113381860Y-52554000D01*
X113409928Y-52556764D01*
X113409928Y-52556764D01*
G37*
G36*
X136639499Y-52028445D02*
G01*
X136676995Y-52039820D01*
X136711554Y-52058292D01*
X136741847Y-52083153D01*
X136766708Y-52113446D01*
X136785180Y-52148005D01*
X136796555Y-52185501D01*
X136801000Y-52230638D01*
X136801000Y-52869362D01*
X136796555Y-52914499D01*
X136785180Y-52951995D01*
X136766708Y-52986554D01*
X136741847Y-53016847D01*
X136711554Y-53041708D01*
X136676995Y-53060180D01*
X136639499Y-53071555D01*
X136594362Y-53076000D01*
X135855638Y-53076000D01*
X135810501Y-53071555D01*
X135773005Y-53060180D01*
X135738446Y-53041708D01*
X135708153Y-53016847D01*
X135683292Y-52986554D01*
X135664820Y-52951995D01*
X135653445Y-52914499D01*
X135649000Y-52869362D01*
X135649000Y-52230638D01*
X135653445Y-52185501D01*
X135664820Y-52148005D01*
X135683292Y-52113446D01*
X135708153Y-52083153D01*
X135738446Y-52058292D01*
X135773005Y-52039820D01*
X135810501Y-52028445D01*
X135855638Y-52024000D01*
X136594362Y-52024000D01*
X136639499Y-52028445D01*
X136639499Y-52028445D01*
G37*
G36*
X134889499Y-52028445D02*
G01*
X134926995Y-52039820D01*
X134961554Y-52058292D01*
X134991847Y-52083153D01*
X135016708Y-52113446D01*
X135035180Y-52148005D01*
X135046555Y-52185501D01*
X135051000Y-52230638D01*
X135051000Y-52869362D01*
X135046555Y-52914499D01*
X135035180Y-52951995D01*
X135016708Y-52986554D01*
X134991847Y-53016847D01*
X134961554Y-53041708D01*
X134926995Y-53060180D01*
X134889499Y-53071555D01*
X134844362Y-53076000D01*
X134105638Y-53076000D01*
X134060501Y-53071555D01*
X134023005Y-53060180D01*
X133988446Y-53041708D01*
X133958153Y-53016847D01*
X133933292Y-52986554D01*
X133914820Y-52951995D01*
X133903445Y-52914499D01*
X133899000Y-52869362D01*
X133899000Y-52230638D01*
X133903445Y-52185501D01*
X133914820Y-52148005D01*
X133933292Y-52113446D01*
X133958153Y-52083153D01*
X133988446Y-52058292D01*
X134023005Y-52039820D01*
X134060501Y-52028445D01*
X134105638Y-52024000D01*
X134844362Y-52024000D01*
X134889499Y-52028445D01*
X134889499Y-52028445D01*
G37*
G36*
X140551000Y-52351000D02*
G01*
X138749000Y-52351000D01*
X138749000Y-50549000D01*
X140551000Y-50549000D01*
X140551000Y-52351000D01*
X140551000Y-52351000D01*
G37*
G36*
X106401000Y-52301000D02*
G01*
X104599000Y-52301000D01*
X104599000Y-50499000D01*
X106401000Y-50499000D01*
X106401000Y-52301000D01*
X106401000Y-52301000D01*
G37*
G36*
X120609928Y-51286764D02*
G01*
X120631009Y-51293160D01*
X120650445Y-51303548D01*
X120667476Y-51317524D01*
X120681452Y-51334555D01*
X120691840Y-51353991D01*
X120698236Y-51375072D01*
X120701000Y-51403140D01*
X120701000Y-51866860D01*
X120698236Y-51894928D01*
X120691840Y-51916009D01*
X120681452Y-51935445D01*
X120667476Y-51952476D01*
X120650445Y-51966452D01*
X120631009Y-51976840D01*
X120609928Y-51983236D01*
X120581860Y-51986000D01*
X119118140Y-51986000D01*
X119090072Y-51983236D01*
X119068991Y-51976840D01*
X119049555Y-51966452D01*
X119032524Y-51952476D01*
X119018548Y-51935445D01*
X119008160Y-51916009D01*
X119001764Y-51894928D01*
X118999000Y-51866860D01*
X118999000Y-51403140D01*
X119001764Y-51375072D01*
X119008160Y-51353991D01*
X119018548Y-51334555D01*
X119032524Y-51317524D01*
X119049555Y-51303548D01*
X119068991Y-51293160D01*
X119090072Y-51286764D01*
X119118140Y-51284000D01*
X120581860Y-51284000D01*
X120609928Y-51286764D01*
X120609928Y-51286764D01*
G37*
G36*
X113409928Y-51286764D02*
G01*
X113431009Y-51293160D01*
X113450445Y-51303548D01*
X113467476Y-51317524D01*
X113481452Y-51334555D01*
X113491840Y-51353991D01*
X113498236Y-51375072D01*
X113501000Y-51403140D01*
X113501000Y-51866860D01*
X113498236Y-51894928D01*
X113491840Y-51916009D01*
X113481452Y-51935445D01*
X113467476Y-51952476D01*
X113450445Y-51966452D01*
X113431009Y-51976840D01*
X113409928Y-51983236D01*
X113381860Y-51986000D01*
X111918140Y-51986000D01*
X111890072Y-51983236D01*
X111868991Y-51976840D01*
X111849555Y-51966452D01*
X111832524Y-51952476D01*
X111818548Y-51935445D01*
X111808160Y-51916009D01*
X111801764Y-51894928D01*
X111799000Y-51866860D01*
X111799000Y-51403140D01*
X111801764Y-51375072D01*
X111808160Y-51353991D01*
X111818548Y-51334555D01*
X111832524Y-51317524D01*
X111849555Y-51303548D01*
X111868991Y-51293160D01*
X111890072Y-51286764D01*
X111918140Y-51284000D01*
X113381860Y-51284000D01*
X113409928Y-51286764D01*
X113409928Y-51286764D01*
G37*
G36*
X108539499Y-50578445D02*
G01*
X108576995Y-50589820D01*
X108611554Y-50608292D01*
X108641847Y-50633153D01*
X108666708Y-50663446D01*
X108685180Y-50698005D01*
X108696555Y-50735501D01*
X108701000Y-50780638D01*
X108701000Y-51419362D01*
X108696555Y-51464499D01*
X108685180Y-51501995D01*
X108666708Y-51536554D01*
X108641847Y-51566847D01*
X108611554Y-51591708D01*
X108576995Y-51610180D01*
X108539499Y-51621555D01*
X108494362Y-51626000D01*
X107755638Y-51626000D01*
X107710501Y-51621555D01*
X107673005Y-51610180D01*
X107638446Y-51591708D01*
X107608153Y-51566847D01*
X107583292Y-51536554D01*
X107564820Y-51501995D01*
X107553445Y-51464499D01*
X107549000Y-51419362D01*
X107549000Y-50780638D01*
X107553445Y-50735501D01*
X107564820Y-50698005D01*
X107583292Y-50663446D01*
X107608153Y-50633153D01*
X107638446Y-50608292D01*
X107673005Y-50589820D01*
X107710501Y-50578445D01*
X107755638Y-50574000D01*
X108494362Y-50574000D01*
X108539499Y-50578445D01*
X108539499Y-50578445D01*
G37*
G36*
X110289499Y-50578445D02*
G01*
X110326995Y-50589820D01*
X110361554Y-50608292D01*
X110391847Y-50633153D01*
X110416708Y-50663446D01*
X110435180Y-50698005D01*
X110446555Y-50735501D01*
X110451000Y-50780638D01*
X110451000Y-51419362D01*
X110446555Y-51464499D01*
X110435180Y-51501995D01*
X110416708Y-51536554D01*
X110391847Y-51566847D01*
X110361554Y-51591708D01*
X110326995Y-51610180D01*
X110289499Y-51621555D01*
X110244362Y-51626000D01*
X109505638Y-51626000D01*
X109460501Y-51621555D01*
X109423005Y-51610180D01*
X109388446Y-51591708D01*
X109358153Y-51566847D01*
X109333292Y-51536554D01*
X109314820Y-51501995D01*
X109303445Y-51464499D01*
X109299000Y-51419362D01*
X109299000Y-50780638D01*
X109303445Y-50735501D01*
X109314820Y-50698005D01*
X109333292Y-50663446D01*
X109358153Y-50633153D01*
X109388446Y-50608292D01*
X109423005Y-50589820D01*
X109460501Y-50578445D01*
X109505638Y-50574000D01*
X110244362Y-50574000D01*
X110289499Y-50578445D01*
X110289499Y-50578445D01*
G37*
G36*
X128421938Y-50781716D02*
G01*
X128442557Y-50787971D01*
X128461553Y-50798124D01*
X128478208Y-50811792D01*
X128491876Y-50828447D01*
X128502029Y-50847443D01*
X128508284Y-50868062D01*
X128511000Y-50895640D01*
X128511000Y-51404360D01*
X128508284Y-51431938D01*
X128502029Y-51452557D01*
X128491876Y-51471553D01*
X128478208Y-51488208D01*
X128461553Y-51501876D01*
X128442557Y-51512029D01*
X128421938Y-51518284D01*
X128394360Y-51521000D01*
X127935640Y-51521000D01*
X127908062Y-51518284D01*
X127887443Y-51512029D01*
X127868447Y-51501876D01*
X127851792Y-51488208D01*
X127838124Y-51471553D01*
X127827971Y-51452557D01*
X127821716Y-51431938D01*
X127819000Y-51404360D01*
X127819000Y-50895640D01*
X127821716Y-50868062D01*
X127827971Y-50847443D01*
X127838124Y-50828447D01*
X127851792Y-50811792D01*
X127868447Y-50798124D01*
X127887443Y-50787971D01*
X127908062Y-50781716D01*
X127935640Y-50779000D01*
X128394360Y-50779000D01*
X128421938Y-50781716D01*
X128421938Y-50781716D01*
G37*
G36*
X129391938Y-50781716D02*
G01*
X129412557Y-50787971D01*
X129431553Y-50798124D01*
X129448208Y-50811792D01*
X129461876Y-50828447D01*
X129472029Y-50847443D01*
X129478284Y-50868062D01*
X129481000Y-50895640D01*
X129481000Y-51404360D01*
X129478284Y-51431938D01*
X129472029Y-51452557D01*
X129461876Y-51471553D01*
X129448208Y-51488208D01*
X129431553Y-51501876D01*
X129412557Y-51512029D01*
X129391938Y-51518284D01*
X129364360Y-51521000D01*
X128905640Y-51521000D01*
X128878062Y-51518284D01*
X128857443Y-51512029D01*
X128838447Y-51501876D01*
X128821792Y-51488208D01*
X128808124Y-51471553D01*
X128797971Y-51452557D01*
X128791716Y-51431938D01*
X128789000Y-51404360D01*
X128789000Y-50895640D01*
X128791716Y-50868062D01*
X128797971Y-50847443D01*
X128808124Y-50828447D01*
X128821792Y-50811792D01*
X128838447Y-50798124D01*
X128857443Y-50787971D01*
X128878062Y-50781716D01*
X128905640Y-50779000D01*
X129364360Y-50779000D01*
X129391938Y-50781716D01*
X129391938Y-50781716D01*
G37*
G36*
X122614499Y-50303445D02*
G01*
X122651995Y-50314820D01*
X122686554Y-50333292D01*
X122716847Y-50358153D01*
X122741708Y-50388446D01*
X122760180Y-50423005D01*
X122771555Y-50460501D01*
X122776000Y-50505638D01*
X122776000Y-51244362D01*
X122771555Y-51289499D01*
X122760180Y-51326995D01*
X122741708Y-51361554D01*
X122716847Y-51391847D01*
X122686554Y-51416708D01*
X122651995Y-51435180D01*
X122614499Y-51446555D01*
X122569362Y-51451000D01*
X121930638Y-51451000D01*
X121885501Y-51446555D01*
X121848005Y-51435180D01*
X121813446Y-51416708D01*
X121783153Y-51391847D01*
X121758292Y-51361554D01*
X121739820Y-51326995D01*
X121728445Y-51289499D01*
X121724000Y-51244362D01*
X121724000Y-50505638D01*
X121728445Y-50460501D01*
X121739820Y-50423005D01*
X121758292Y-50388446D01*
X121783153Y-50358153D01*
X121813446Y-50333292D01*
X121848005Y-50314820D01*
X121885501Y-50303445D01*
X121930638Y-50299000D01*
X122569362Y-50299000D01*
X122614499Y-50303445D01*
X122614499Y-50303445D01*
G37*
G36*
X131551000Y-51351000D02*
G01*
X130149000Y-51351000D01*
X130149000Y-49049000D01*
X131551000Y-49049000D01*
X131551000Y-51351000D01*
X131551000Y-51351000D01*
G37*
G36*
X135751000Y-51351000D02*
G01*
X134349000Y-51351000D01*
X134349000Y-49049000D01*
X135751000Y-49049000D01*
X135751000Y-51351000D01*
X135751000Y-51351000D01*
G37*
G36*
X113409928Y-50016764D02*
G01*
X113431009Y-50023160D01*
X113450445Y-50033548D01*
X113467476Y-50047524D01*
X113481452Y-50064555D01*
X113491840Y-50083991D01*
X113498236Y-50105072D01*
X113501000Y-50133140D01*
X113501000Y-50596860D01*
X113498236Y-50624928D01*
X113491840Y-50646009D01*
X113481452Y-50665445D01*
X113467476Y-50682476D01*
X113450445Y-50696452D01*
X113431009Y-50706840D01*
X113409928Y-50713236D01*
X113381860Y-50716000D01*
X111918140Y-50716000D01*
X111890072Y-50713236D01*
X111868991Y-50706840D01*
X111849555Y-50696452D01*
X111832524Y-50682476D01*
X111818548Y-50665445D01*
X111808160Y-50646009D01*
X111801764Y-50624928D01*
X111799000Y-50596860D01*
X111799000Y-50133140D01*
X111801764Y-50105072D01*
X111808160Y-50083991D01*
X111818548Y-50064555D01*
X111832524Y-50047524D01*
X111849555Y-50033548D01*
X111868991Y-50023160D01*
X111890072Y-50016764D01*
X111918140Y-50014000D01*
X113381860Y-50014000D01*
X113409928Y-50016764D01*
X113409928Y-50016764D01*
G37*
G36*
X120609928Y-50016764D02*
G01*
X120631009Y-50023160D01*
X120650445Y-50033548D01*
X120667476Y-50047524D01*
X120681452Y-50064555D01*
X120691840Y-50083991D01*
X120698236Y-50105072D01*
X120701000Y-50133140D01*
X120701000Y-50596860D01*
X120698236Y-50624928D01*
X120691840Y-50646009D01*
X120681452Y-50665445D01*
X120667476Y-50682476D01*
X120650445Y-50696452D01*
X120631009Y-50706840D01*
X120609928Y-50713236D01*
X120581860Y-50716000D01*
X119118140Y-50716000D01*
X119090072Y-50713236D01*
X119068991Y-50706840D01*
X119049555Y-50696452D01*
X119032524Y-50682476D01*
X119018548Y-50665445D01*
X119008160Y-50646009D01*
X119001764Y-50624928D01*
X118999000Y-50596860D01*
X118999000Y-50133140D01*
X119001764Y-50105072D01*
X119008160Y-50083991D01*
X119018548Y-50064555D01*
X119032524Y-50047524D01*
X119049555Y-50033548D01*
X119068991Y-50023160D01*
X119090072Y-50016764D01*
X119118140Y-50014000D01*
X120581860Y-50014000D01*
X120609928Y-50016764D01*
X120609928Y-50016764D01*
G37*
G36*
X128129591Y-49228085D02*
G01*
X128163569Y-49238393D01*
X128194890Y-49255134D01*
X128222339Y-49277661D01*
X128244866Y-49305110D01*
X128261607Y-49336431D01*
X128271915Y-49370409D01*
X128276000Y-49411890D01*
X128276000Y-50088110D01*
X128271915Y-50129591D01*
X128261607Y-50163569D01*
X128244866Y-50194890D01*
X128222339Y-50222339D01*
X128194890Y-50244866D01*
X128163569Y-50261607D01*
X128129591Y-50271915D01*
X128088110Y-50276000D01*
X127486890Y-50276000D01*
X127445409Y-50271915D01*
X127411431Y-50261607D01*
X127380110Y-50244866D01*
X127352661Y-50222339D01*
X127330134Y-50194890D01*
X127313393Y-50163569D01*
X127303085Y-50129591D01*
X127299000Y-50088110D01*
X127299000Y-49411890D01*
X127303085Y-49370409D01*
X127313393Y-49336431D01*
X127330134Y-49305110D01*
X127352661Y-49277661D01*
X127380110Y-49255134D01*
X127411431Y-49238393D01*
X127445409Y-49228085D01*
X127486890Y-49224000D01*
X128088110Y-49224000D01*
X128129591Y-49228085D01*
X128129591Y-49228085D01*
G37*
G36*
X126554591Y-49228085D02*
G01*
X126588569Y-49238393D01*
X126619890Y-49255134D01*
X126647339Y-49277661D01*
X126669866Y-49305110D01*
X126686607Y-49336431D01*
X126696915Y-49370409D01*
X126701000Y-49411890D01*
X126701000Y-50088110D01*
X126696915Y-50129591D01*
X126686607Y-50163569D01*
X126669866Y-50194890D01*
X126647339Y-50222339D01*
X126619890Y-50244866D01*
X126588569Y-50261607D01*
X126554591Y-50271915D01*
X126513110Y-50276000D01*
X125911890Y-50276000D01*
X125870409Y-50271915D01*
X125836431Y-50261607D01*
X125805110Y-50244866D01*
X125777661Y-50222339D01*
X125755134Y-50194890D01*
X125738393Y-50163569D01*
X125728085Y-50129591D01*
X125724000Y-50088110D01*
X125724000Y-49411890D01*
X125728085Y-49370409D01*
X125738393Y-49336431D01*
X125755134Y-49305110D01*
X125777661Y-49277661D01*
X125805110Y-49255134D01*
X125836431Y-49238393D01*
X125870409Y-49228085D01*
X125911890Y-49224000D01*
X126513110Y-49224000D01*
X126554591Y-49228085D01*
X126554591Y-49228085D01*
G37*
G36*
X139760442Y-48015518D02*
G01*
X139826627Y-48022037D01*
X139996466Y-48073557D01*
X140152991Y-48157222D01*
X140188729Y-48186552D01*
X140290186Y-48269814D01*
X140367191Y-48363646D01*
X140402778Y-48407009D01*
X140486443Y-48563534D01*
X140537963Y-48733373D01*
X140555359Y-48910000D01*
X140537963Y-49086627D01*
X140486443Y-49256466D01*
X140402778Y-49412991D01*
X140383205Y-49436840D01*
X140290186Y-49550186D01*
X140213916Y-49612778D01*
X140152991Y-49662778D01*
X139996466Y-49746443D01*
X139826627Y-49797963D01*
X139760442Y-49804482D01*
X139694260Y-49811000D01*
X139605740Y-49811000D01*
X139539558Y-49804482D01*
X139473373Y-49797963D01*
X139303534Y-49746443D01*
X139147009Y-49662778D01*
X139086084Y-49612778D01*
X139009814Y-49550186D01*
X138916795Y-49436840D01*
X138897222Y-49412991D01*
X138813557Y-49256466D01*
X138762037Y-49086627D01*
X138744641Y-48910000D01*
X138762037Y-48733373D01*
X138813557Y-48563534D01*
X138897222Y-48407009D01*
X138932809Y-48363646D01*
X139009814Y-48269814D01*
X139111271Y-48186552D01*
X139147009Y-48157222D01*
X139303534Y-48073557D01*
X139473373Y-48022037D01*
X139539557Y-48015519D01*
X139605740Y-48009000D01*
X139694260Y-48009000D01*
X139760442Y-48015518D01*
X139760442Y-48015518D01*
G37*
G36*
X105610443Y-47965519D02*
G01*
X105676627Y-47972037D01*
X105846466Y-48023557D01*
X106002991Y-48107222D01*
X106038729Y-48136552D01*
X106140186Y-48219814D01*
X106217735Y-48314309D01*
X106252778Y-48357009D01*
X106262512Y-48375220D01*
X106321104Y-48484836D01*
X106336443Y-48513534D01*
X106387963Y-48683373D01*
X106405359Y-48860000D01*
X106387963Y-49036627D01*
X106336443Y-49206466D01*
X106252778Y-49362991D01*
X106223448Y-49398729D01*
X106140186Y-49500186D01*
X106040887Y-49581677D01*
X106002991Y-49612778D01*
X105948607Y-49641847D01*
X105867538Y-49685180D01*
X105846466Y-49696443D01*
X105676627Y-49747963D01*
X105610442Y-49754482D01*
X105544260Y-49761000D01*
X105455740Y-49761000D01*
X105389558Y-49754482D01*
X105323373Y-49747963D01*
X105153534Y-49696443D01*
X105132463Y-49685180D01*
X105051393Y-49641847D01*
X104997009Y-49612778D01*
X104959113Y-49581677D01*
X104859814Y-49500186D01*
X104776552Y-49398729D01*
X104747222Y-49362991D01*
X104663557Y-49206466D01*
X104612037Y-49036627D01*
X104594641Y-48860000D01*
X104612037Y-48683373D01*
X104663557Y-48513534D01*
X104678897Y-48484836D01*
X104737488Y-48375220D01*
X104747222Y-48357009D01*
X104782265Y-48314309D01*
X104859814Y-48219814D01*
X104961271Y-48136552D01*
X104997009Y-48107222D01*
X105153534Y-48023557D01*
X105323373Y-47972037D01*
X105389558Y-47965518D01*
X105455740Y-47959000D01*
X105544260Y-47959000D01*
X105610443Y-47965519D01*
X105610443Y-47965519D01*
G37*
G36*
X122614499Y-48553445D02*
G01*
X122651995Y-48564820D01*
X122686554Y-48583292D01*
X122716847Y-48608153D01*
X122741708Y-48638446D01*
X122760180Y-48673005D01*
X122771555Y-48710501D01*
X122776000Y-48755638D01*
X122776000Y-49494362D01*
X122771555Y-49539499D01*
X122760180Y-49576995D01*
X122741708Y-49611554D01*
X122716847Y-49641847D01*
X122686554Y-49666708D01*
X122651995Y-49685180D01*
X122614499Y-49696555D01*
X122569362Y-49701000D01*
X121930638Y-49701000D01*
X121885501Y-49696555D01*
X121848005Y-49685180D01*
X121813446Y-49666708D01*
X121783153Y-49641847D01*
X121758292Y-49611554D01*
X121739820Y-49576995D01*
X121728445Y-49539499D01*
X121724000Y-49494362D01*
X121724000Y-48755638D01*
X121728445Y-48710501D01*
X121739820Y-48673005D01*
X121758292Y-48638446D01*
X121783153Y-48608153D01*
X121813446Y-48583292D01*
X121848005Y-48564820D01*
X121885501Y-48553445D01*
X121930638Y-48549000D01*
X122569362Y-48549000D01*
X122614499Y-48553445D01*
X122614499Y-48553445D01*
G37*
G36*
X110289499Y-48578445D02*
G01*
X110326995Y-48589820D01*
X110361554Y-48608292D01*
X110391847Y-48633153D01*
X110416708Y-48663446D01*
X110435180Y-48698005D01*
X110446555Y-48735501D01*
X110451000Y-48780638D01*
X110451000Y-49419362D01*
X110446555Y-49464499D01*
X110435180Y-49501995D01*
X110416708Y-49536554D01*
X110391847Y-49566847D01*
X110361554Y-49591708D01*
X110326995Y-49610180D01*
X110289499Y-49621555D01*
X110244362Y-49626000D01*
X109505638Y-49626000D01*
X109460501Y-49621555D01*
X109423005Y-49610180D01*
X109388446Y-49591708D01*
X109358153Y-49566847D01*
X109333292Y-49536554D01*
X109314820Y-49501995D01*
X109303445Y-49464499D01*
X109299000Y-49419362D01*
X109299000Y-48780638D01*
X109303445Y-48735501D01*
X109314820Y-48698005D01*
X109333292Y-48663446D01*
X109358153Y-48633153D01*
X109388446Y-48608292D01*
X109423005Y-48589820D01*
X109460501Y-48578445D01*
X109505638Y-48574000D01*
X110244362Y-48574000D01*
X110289499Y-48578445D01*
X110289499Y-48578445D01*
G37*
G36*
X108539499Y-48578445D02*
G01*
X108576995Y-48589820D01*
X108611554Y-48608292D01*
X108641847Y-48633153D01*
X108666708Y-48663446D01*
X108685180Y-48698005D01*
X108696555Y-48735501D01*
X108701000Y-48780638D01*
X108701000Y-49419362D01*
X108696555Y-49464499D01*
X108685180Y-49501995D01*
X108666708Y-49536554D01*
X108641847Y-49566847D01*
X108611554Y-49591708D01*
X108576995Y-49610180D01*
X108539499Y-49621555D01*
X108494362Y-49626000D01*
X107755638Y-49626000D01*
X107710501Y-49621555D01*
X107673005Y-49610180D01*
X107638446Y-49591708D01*
X107608153Y-49566847D01*
X107583292Y-49536554D01*
X107564820Y-49501995D01*
X107553445Y-49464499D01*
X107549000Y-49419362D01*
X107549000Y-48780638D01*
X107553445Y-48735501D01*
X107564820Y-48698005D01*
X107583292Y-48663446D01*
X107608153Y-48633153D01*
X107638446Y-48608292D01*
X107673005Y-48589820D01*
X107710501Y-48578445D01*
X107755638Y-48574000D01*
X108494362Y-48574000D01*
X108539499Y-48578445D01*
X108539499Y-48578445D01*
G37*
G36*
X120609928Y-48746764D02*
G01*
X120631009Y-48753160D01*
X120650445Y-48763548D01*
X120667476Y-48777524D01*
X120681452Y-48794555D01*
X120691840Y-48813991D01*
X120698236Y-48835072D01*
X120701000Y-48863140D01*
X120701000Y-49326860D01*
X120698236Y-49354928D01*
X120691840Y-49376009D01*
X120681452Y-49395445D01*
X120667476Y-49412476D01*
X120650445Y-49426452D01*
X120631009Y-49436840D01*
X120609928Y-49443236D01*
X120581860Y-49446000D01*
X119118140Y-49446000D01*
X119090072Y-49443236D01*
X119068991Y-49436840D01*
X119049555Y-49426452D01*
X119032524Y-49412476D01*
X119018548Y-49395445D01*
X119008160Y-49376009D01*
X119001764Y-49354928D01*
X118999000Y-49326860D01*
X118999000Y-48863140D01*
X119001764Y-48835072D01*
X119008160Y-48813991D01*
X119018548Y-48794555D01*
X119032524Y-48777524D01*
X119049555Y-48763548D01*
X119068991Y-48753160D01*
X119090072Y-48746764D01*
X119118140Y-48744000D01*
X120581860Y-48744000D01*
X120609928Y-48746764D01*
X120609928Y-48746764D01*
G37*
G36*
X113409928Y-48746764D02*
G01*
X113431009Y-48753160D01*
X113450445Y-48763548D01*
X113467476Y-48777524D01*
X113481452Y-48794555D01*
X113491840Y-48813991D01*
X113498236Y-48835072D01*
X113501000Y-48863140D01*
X113501000Y-49326860D01*
X113498236Y-49354928D01*
X113491840Y-49376009D01*
X113481452Y-49395445D01*
X113467476Y-49412476D01*
X113450445Y-49426452D01*
X113431009Y-49436840D01*
X113409928Y-49443236D01*
X113381860Y-49446000D01*
X111918140Y-49446000D01*
X111890072Y-49443236D01*
X111868991Y-49436840D01*
X111849555Y-49426452D01*
X111832524Y-49412476D01*
X111818548Y-49395445D01*
X111808160Y-49376009D01*
X111801764Y-49354928D01*
X111799000Y-49326860D01*
X111799000Y-48863140D01*
X111801764Y-48835072D01*
X111808160Y-48813991D01*
X111818548Y-48794555D01*
X111832524Y-48777524D01*
X111849555Y-48763548D01*
X111868991Y-48753160D01*
X111890072Y-48746764D01*
X111918140Y-48744000D01*
X113381860Y-48744000D01*
X113409928Y-48746764D01*
X113409928Y-48746764D01*
G37*
G36*
X128629591Y-47478085D02*
G01*
X128663569Y-47488393D01*
X128694890Y-47505134D01*
X128722339Y-47527661D01*
X128744866Y-47555110D01*
X128761607Y-47586431D01*
X128771915Y-47620409D01*
X128776000Y-47661890D01*
X128776000Y-48338110D01*
X128771915Y-48379591D01*
X128761607Y-48413569D01*
X128744866Y-48444890D01*
X128722339Y-48472339D01*
X128694890Y-48494866D01*
X128663569Y-48511607D01*
X128629591Y-48521915D01*
X128588110Y-48526000D01*
X127986890Y-48526000D01*
X127945409Y-48521915D01*
X127911431Y-48511607D01*
X127880110Y-48494866D01*
X127852661Y-48472339D01*
X127830134Y-48444890D01*
X127813393Y-48413569D01*
X127803085Y-48379591D01*
X127799000Y-48338110D01*
X127799000Y-47661890D01*
X127803085Y-47620409D01*
X127813393Y-47586431D01*
X127830134Y-47555110D01*
X127852661Y-47527661D01*
X127880110Y-47505134D01*
X127911431Y-47488393D01*
X127945409Y-47478085D01*
X127986890Y-47474000D01*
X128588110Y-47474000D01*
X128629591Y-47478085D01*
X128629591Y-47478085D01*
G37*
G36*
X127054591Y-47478085D02*
G01*
X127088569Y-47488393D01*
X127119890Y-47505134D01*
X127147339Y-47527661D01*
X127169866Y-47555110D01*
X127186607Y-47586431D01*
X127196915Y-47620409D01*
X127201000Y-47661890D01*
X127201000Y-48338110D01*
X127196915Y-48379591D01*
X127186607Y-48413569D01*
X127169866Y-48444890D01*
X127147339Y-48472339D01*
X127119890Y-48494866D01*
X127088569Y-48511607D01*
X127054591Y-48521915D01*
X127013110Y-48526000D01*
X126411890Y-48526000D01*
X126370409Y-48521915D01*
X126336431Y-48511607D01*
X126305110Y-48494866D01*
X126277661Y-48472339D01*
X126255134Y-48444890D01*
X126238393Y-48413569D01*
X126228085Y-48379591D01*
X126224000Y-48338110D01*
X126224000Y-47661890D01*
X126228085Y-47620409D01*
X126238393Y-47586431D01*
X126255134Y-47555110D01*
X126277661Y-47527661D01*
X126305110Y-47505134D01*
X126336431Y-47488393D01*
X126370409Y-47478085D01*
X126411890Y-47474000D01*
X127013110Y-47474000D01*
X127054591Y-47478085D01*
X127054591Y-47478085D01*
G37*
G36*
X130789499Y-47478445D02*
G01*
X130826995Y-47489820D01*
X130861554Y-47508292D01*
X130891847Y-47533153D01*
X130916708Y-47563446D01*
X130935180Y-47598005D01*
X130946555Y-47635501D01*
X130951000Y-47680638D01*
X130951000Y-48319362D01*
X130946555Y-48364499D01*
X130935180Y-48401995D01*
X130916708Y-48436554D01*
X130891847Y-48466847D01*
X130861554Y-48491708D01*
X130826995Y-48510180D01*
X130789499Y-48521555D01*
X130744362Y-48526000D01*
X130005638Y-48526000D01*
X129960501Y-48521555D01*
X129923005Y-48510180D01*
X129888446Y-48491708D01*
X129858153Y-48466847D01*
X129833292Y-48436554D01*
X129814820Y-48401995D01*
X129803445Y-48364499D01*
X129799000Y-48319362D01*
X129799000Y-47680638D01*
X129803445Y-47635501D01*
X129814820Y-47598005D01*
X129833292Y-47563446D01*
X129858153Y-47533153D01*
X129888446Y-47508292D01*
X129923005Y-47489820D01*
X129960501Y-47478445D01*
X130005638Y-47474000D01*
X130744362Y-47474000D01*
X130789499Y-47478445D01*
X130789499Y-47478445D01*
G37*
G36*
X132539499Y-47478445D02*
G01*
X132576995Y-47489820D01*
X132611554Y-47508292D01*
X132641847Y-47533153D01*
X132666708Y-47563446D01*
X132685180Y-47598005D01*
X132696555Y-47635501D01*
X132701000Y-47680638D01*
X132701000Y-48319362D01*
X132696555Y-48364499D01*
X132685180Y-48401995D01*
X132666708Y-48436554D01*
X132641847Y-48466847D01*
X132611554Y-48491708D01*
X132576995Y-48510180D01*
X132539499Y-48521555D01*
X132494362Y-48526000D01*
X131755638Y-48526000D01*
X131710501Y-48521555D01*
X131673005Y-48510180D01*
X131638446Y-48491708D01*
X131608153Y-48466847D01*
X131583292Y-48436554D01*
X131564820Y-48401995D01*
X131553445Y-48364499D01*
X131549000Y-48319362D01*
X131549000Y-47680638D01*
X131553445Y-47635501D01*
X131564820Y-47598005D01*
X131583292Y-47563446D01*
X131608153Y-47533153D01*
X131638446Y-47508292D01*
X131673005Y-47489820D01*
X131710501Y-47478445D01*
X131755638Y-47474000D01*
X132494362Y-47474000D01*
X132539499Y-47478445D01*
X132539499Y-47478445D01*
G37*
M02*
