G04 #@! TF.GenerationSoftware,KiCad,Pcbnew,(5.1.5)-3*
G04 #@! TF.CreationDate,2020-07-02T11:34:45+10:00*
G04 #@! TF.ProjectId,Heterodyne,48657465-726f-4647-996e-652e6b696361,rev?*
G04 #@! TF.SameCoordinates,Original*
G04 #@! TF.FileFunction,Copper,L2,Inr*
G04 #@! TF.FilePolarity,Positive*
%FSLAX46Y46*%
G04 Gerber Fmt 4.6, Leading zero omitted, Abs format (unit mm)*
G04 Created by KiCad (PCBNEW (5.1.5)-3) date 2020-07-02 11:34:45*
%MOMM*%
%LPD*%
G04 APERTURE LIST*
%ADD10O,1.700000X1.700000*%
%ADD11R,1.700000X1.700000*%
%ADD12C,0.800000*%
%ADD13C,0.254000*%
G04 APERTURE END LIST*
D10*
X136020000Y-49500000D03*
X133480000Y-49500000D03*
X130940000Y-49500000D03*
X128400000Y-49500000D03*
X125860000Y-49500000D03*
D11*
X123320000Y-49500000D03*
X105500000Y-55000000D03*
X105500000Y-51400000D03*
D10*
X105500000Y-48860000D03*
X136800000Y-64300000D03*
D11*
X134260000Y-64300000D03*
D12*
X110000000Y-53000000D03*
X110500000Y-57500000D03*
X137875000Y-56800000D03*
X133823897Y-55323897D03*
X130800000Y-53800000D03*
X124500000Y-59500000D03*
X117600000Y-60400000D03*
X129600000Y-62800000D03*
X120800000Y-53299996D03*
X113900000Y-53400000D03*
X122500000Y-64500000D03*
X117600000Y-64900000D03*
X128400000Y-60550000D03*
X115700000Y-49500000D03*
X137500000Y-50700000D03*
X124500000Y-62400000D03*
X114055553Y-63419447D03*
X112800000Y-63874990D03*
X122900000Y-56100000D03*
X121032641Y-55132641D03*
X111400000Y-64600000D03*
X117000000Y-49500000D03*
D13*
G36*
X121873000Y-48430538D02*
G01*
X121844188Y-48525518D01*
X121831928Y-48650000D01*
X121831928Y-50350000D01*
X121844188Y-50474482D01*
X121880498Y-50594180D01*
X121939463Y-50704494D01*
X122018815Y-50801185D01*
X122115506Y-50880537D01*
X122225820Y-50939502D01*
X122345518Y-50975812D01*
X122470000Y-50988072D01*
X124170000Y-50988072D01*
X124294482Y-50975812D01*
X124414180Y-50939502D01*
X124524494Y-50880537D01*
X124621185Y-50801185D01*
X124700537Y-50704494D01*
X124759502Y-50594180D01*
X124783966Y-50513534D01*
X124859731Y-50597588D01*
X125093080Y-50771641D01*
X125355901Y-50896825D01*
X125503110Y-50941476D01*
X125733000Y-50820155D01*
X125733000Y-49627000D01*
X125713000Y-49627000D01*
X125713000Y-49373000D01*
X125733000Y-49373000D01*
X125733000Y-49353000D01*
X125987000Y-49353000D01*
X125987000Y-49373000D01*
X126007000Y-49373000D01*
X126007000Y-49627000D01*
X125987000Y-49627000D01*
X125987000Y-50820155D01*
X126216890Y-50941476D01*
X126364099Y-50896825D01*
X126626920Y-50771641D01*
X126860269Y-50597588D01*
X127055178Y-50381355D01*
X127124805Y-50264466D01*
X127246525Y-50446632D01*
X127453368Y-50653475D01*
X127696589Y-50815990D01*
X127966842Y-50927932D01*
X128253740Y-50985000D01*
X128546260Y-50985000D01*
X128833158Y-50927932D01*
X129103411Y-50815990D01*
X129346632Y-50653475D01*
X129553475Y-50446632D01*
X129670000Y-50272240D01*
X129786525Y-50446632D01*
X129993368Y-50653475D01*
X130236589Y-50815990D01*
X130506842Y-50927932D01*
X130793740Y-50985000D01*
X131086260Y-50985000D01*
X131373158Y-50927932D01*
X131643411Y-50815990D01*
X131886632Y-50653475D01*
X132093475Y-50446632D01*
X132210000Y-50272240D01*
X132326525Y-50446632D01*
X132533368Y-50653475D01*
X132776589Y-50815990D01*
X133046842Y-50927932D01*
X133333740Y-50985000D01*
X133626260Y-50985000D01*
X133913158Y-50927932D01*
X134183411Y-50815990D01*
X134426632Y-50653475D01*
X134633475Y-50446632D01*
X134750000Y-50272240D01*
X134866525Y-50446632D01*
X135073368Y-50653475D01*
X135316589Y-50815990D01*
X135586842Y-50927932D01*
X135873740Y-50985000D01*
X136166260Y-50985000D01*
X136453158Y-50927932D01*
X136487252Y-50913810D01*
X136504774Y-51001898D01*
X136582795Y-51190256D01*
X136696063Y-51359774D01*
X136840226Y-51503937D01*
X137009744Y-51617205D01*
X137198102Y-51695226D01*
X137398061Y-51735000D01*
X137601939Y-51735000D01*
X137801898Y-51695226D01*
X137990256Y-51617205D01*
X138159774Y-51503937D01*
X138303937Y-51359774D01*
X138340001Y-51305801D01*
X138340000Y-64967721D01*
X138330420Y-65065424D01*
X138311420Y-65128357D01*
X138280554Y-65186406D01*
X138239011Y-65237343D01*
X138188356Y-65279248D01*
X138130529Y-65310515D01*
X138067728Y-65329956D01*
X137972165Y-65340000D01*
X137852178Y-65340000D01*
X137995178Y-65181355D01*
X138144157Y-64931252D01*
X138241481Y-64656891D01*
X138120814Y-64427000D01*
X136927000Y-64427000D01*
X136927000Y-64447000D01*
X136673000Y-64447000D01*
X136673000Y-64427000D01*
X136653000Y-64427000D01*
X136653000Y-64173000D01*
X136673000Y-64173000D01*
X136673000Y-62979845D01*
X136927000Y-62979845D01*
X136927000Y-64173000D01*
X138120814Y-64173000D01*
X138241481Y-63943109D01*
X138144157Y-63668748D01*
X137995178Y-63418645D01*
X137800269Y-63202412D01*
X137566920Y-63028359D01*
X137304099Y-62903175D01*
X137156890Y-62858524D01*
X136927000Y-62979845D01*
X136673000Y-62979845D01*
X136443110Y-62858524D01*
X136295901Y-62903175D01*
X136033080Y-63028359D01*
X135799731Y-63202412D01*
X135723966Y-63286466D01*
X135699502Y-63205820D01*
X135640537Y-63095506D01*
X135561185Y-62998815D01*
X135464494Y-62919463D01*
X135354180Y-62860498D01*
X135234482Y-62824188D01*
X135110000Y-62811928D01*
X133410000Y-62811928D01*
X133285518Y-62824188D01*
X133165820Y-62860498D01*
X133055506Y-62919463D01*
X132958815Y-62998815D01*
X132879463Y-63095506D01*
X132820498Y-63205820D01*
X132784188Y-63325518D01*
X132771928Y-63450000D01*
X132771928Y-65150000D01*
X132784188Y-65274482D01*
X132804063Y-65340000D01*
X123105802Y-65340000D01*
X123159774Y-65303937D01*
X123303937Y-65159774D01*
X123417205Y-64990256D01*
X123495226Y-64801898D01*
X123535000Y-64601939D01*
X123535000Y-64398061D01*
X123495226Y-64198102D01*
X123417205Y-64009744D01*
X123303937Y-63840226D01*
X123159774Y-63696063D01*
X122990256Y-63582795D01*
X122801898Y-63504774D01*
X122601939Y-63465000D01*
X122398061Y-63465000D01*
X122198102Y-63504774D01*
X122009744Y-63582795D01*
X121840226Y-63696063D01*
X121696063Y-63840226D01*
X121582795Y-64009744D01*
X121504774Y-64198102D01*
X121465000Y-64398061D01*
X121465000Y-64601939D01*
X121504774Y-64801898D01*
X121582795Y-64990256D01*
X121696063Y-65159774D01*
X121840226Y-65303937D01*
X121894198Y-65340000D01*
X118538022Y-65340000D01*
X118595226Y-65201898D01*
X118635000Y-65001939D01*
X118635000Y-64798061D01*
X118595226Y-64598102D01*
X118517205Y-64409744D01*
X118403937Y-64240226D01*
X118259774Y-64096063D01*
X118090256Y-63982795D01*
X117901898Y-63904774D01*
X117701939Y-63865000D01*
X117498061Y-63865000D01*
X117298102Y-63904774D01*
X117109744Y-63982795D01*
X116940226Y-64096063D01*
X116796063Y-64240226D01*
X116682795Y-64409744D01*
X116604774Y-64598102D01*
X116565000Y-64798061D01*
X116565000Y-65001939D01*
X116604774Y-65201898D01*
X116661978Y-65340000D01*
X112123711Y-65340000D01*
X112203937Y-65259774D01*
X112317205Y-65090256D01*
X112395226Y-64901898D01*
X112408879Y-64833258D01*
X112498102Y-64870216D01*
X112698061Y-64909990D01*
X112901939Y-64909990D01*
X113101898Y-64870216D01*
X113290256Y-64792195D01*
X113459774Y-64678927D01*
X113603937Y-64534764D01*
X113699240Y-64392133D01*
X113753655Y-64414673D01*
X113953614Y-64454447D01*
X114157492Y-64454447D01*
X114357451Y-64414673D01*
X114545809Y-64336652D01*
X114715327Y-64223384D01*
X114859490Y-64079221D01*
X114972758Y-63909703D01*
X115050779Y-63721345D01*
X115090553Y-63521386D01*
X115090553Y-63317508D01*
X115050779Y-63117549D01*
X114972758Y-62929191D01*
X114859490Y-62759673D01*
X114715327Y-62615510D01*
X114545809Y-62502242D01*
X114357451Y-62424221D01*
X114157492Y-62384447D01*
X113953614Y-62384447D01*
X113753655Y-62424221D01*
X113565297Y-62502242D01*
X113395779Y-62615510D01*
X113251616Y-62759673D01*
X113156313Y-62902304D01*
X113101898Y-62879764D01*
X112901939Y-62839990D01*
X112698061Y-62839990D01*
X112498102Y-62879764D01*
X112309744Y-62957785D01*
X112140226Y-63071053D01*
X111996063Y-63215216D01*
X111882795Y-63384734D01*
X111804774Y-63573092D01*
X111791121Y-63641732D01*
X111701898Y-63604774D01*
X111501939Y-63565000D01*
X111298061Y-63565000D01*
X111098102Y-63604774D01*
X110909744Y-63682795D01*
X110740226Y-63796063D01*
X110596063Y-63940226D01*
X110482795Y-64109744D01*
X110404774Y-64298102D01*
X110365000Y-64498061D01*
X110365000Y-64701939D01*
X110404774Y-64901898D01*
X110482795Y-65090256D01*
X110596063Y-65259774D01*
X110676289Y-65340000D01*
X104532279Y-65340000D01*
X104434576Y-65330420D01*
X104371643Y-65311420D01*
X104313594Y-65280554D01*
X104262657Y-65239011D01*
X104220752Y-65188356D01*
X104189485Y-65130529D01*
X104170044Y-65067728D01*
X104160000Y-64972165D01*
X104160000Y-62298061D01*
X123465000Y-62298061D01*
X123465000Y-62501939D01*
X123504774Y-62701898D01*
X123582795Y-62890256D01*
X123696063Y-63059774D01*
X123840226Y-63203937D01*
X124009744Y-63317205D01*
X124198102Y-63395226D01*
X124398061Y-63435000D01*
X124601939Y-63435000D01*
X124801898Y-63395226D01*
X124990256Y-63317205D01*
X125159774Y-63203937D01*
X125303937Y-63059774D01*
X125417205Y-62890256D01*
X125495226Y-62701898D01*
X125535000Y-62501939D01*
X125535000Y-62298061D01*
X125495226Y-62098102D01*
X125417205Y-61909744D01*
X125303937Y-61740226D01*
X125159774Y-61596063D01*
X124990256Y-61482795D01*
X124801898Y-61404774D01*
X124601939Y-61365000D01*
X124398061Y-61365000D01*
X124198102Y-61404774D01*
X124009744Y-61482795D01*
X123840226Y-61596063D01*
X123696063Y-61740226D01*
X123582795Y-61909744D01*
X123504774Y-62098102D01*
X123465000Y-62298061D01*
X104160000Y-62298061D01*
X104160000Y-60448061D01*
X127365000Y-60448061D01*
X127365000Y-60651939D01*
X127404774Y-60851898D01*
X127482795Y-61040256D01*
X127596063Y-61209774D01*
X127740226Y-61353937D01*
X127909744Y-61467205D01*
X128098102Y-61545226D01*
X128298061Y-61585000D01*
X128501939Y-61585000D01*
X128701898Y-61545226D01*
X128890256Y-61467205D01*
X129059774Y-61353937D01*
X129203937Y-61209774D01*
X129317205Y-61040256D01*
X129395226Y-60851898D01*
X129435000Y-60651939D01*
X129435000Y-60448061D01*
X129395226Y-60248102D01*
X129317205Y-60059744D01*
X129203937Y-59890226D01*
X129059774Y-59746063D01*
X128890256Y-59632795D01*
X128701898Y-59554774D01*
X128501939Y-59515000D01*
X128298061Y-59515000D01*
X128098102Y-59554774D01*
X127909744Y-59632795D01*
X127740226Y-59746063D01*
X127596063Y-59890226D01*
X127482795Y-60059744D01*
X127404774Y-60248102D01*
X127365000Y-60448061D01*
X104160000Y-60448061D01*
X104160000Y-56253889D01*
X104198815Y-56301185D01*
X104295506Y-56380537D01*
X104405820Y-56439502D01*
X104525518Y-56475812D01*
X104650000Y-56488072D01*
X105214250Y-56485000D01*
X105373000Y-56326250D01*
X105373000Y-55127000D01*
X105627000Y-55127000D01*
X105627000Y-56326250D01*
X105785750Y-56485000D01*
X106350000Y-56488072D01*
X106474482Y-56475812D01*
X106594180Y-56439502D01*
X106704494Y-56380537D01*
X106801185Y-56301185D01*
X106880537Y-56204494D01*
X106939502Y-56094180D01*
X106975812Y-55974482D01*
X106988072Y-55850000D01*
X106985000Y-55285750D01*
X106826250Y-55127000D01*
X105627000Y-55127000D01*
X105373000Y-55127000D01*
X105353000Y-55127000D01*
X105353000Y-55030702D01*
X119997641Y-55030702D01*
X119997641Y-55234580D01*
X120037415Y-55434539D01*
X120115436Y-55622897D01*
X120228704Y-55792415D01*
X120372867Y-55936578D01*
X120542385Y-56049846D01*
X120730743Y-56127867D01*
X120930702Y-56167641D01*
X121134580Y-56167641D01*
X121334539Y-56127867D01*
X121522897Y-56049846D01*
X121600398Y-55998061D01*
X121865000Y-55998061D01*
X121865000Y-56201939D01*
X121904774Y-56401898D01*
X121982795Y-56590256D01*
X122096063Y-56759774D01*
X122240226Y-56903937D01*
X122409744Y-57017205D01*
X122598102Y-57095226D01*
X122798061Y-57135000D01*
X123001939Y-57135000D01*
X123201898Y-57095226D01*
X123390256Y-57017205D01*
X123559774Y-56903937D01*
X123703937Y-56759774D01*
X123817205Y-56590256D01*
X123895226Y-56401898D01*
X123935000Y-56201939D01*
X123935000Y-55998061D01*
X123895226Y-55798102D01*
X123817205Y-55609744D01*
X123703937Y-55440226D01*
X123559774Y-55296063D01*
X123390256Y-55182795D01*
X123201898Y-55104774D01*
X123001939Y-55065000D01*
X122798061Y-55065000D01*
X122598102Y-55104774D01*
X122409744Y-55182795D01*
X122240226Y-55296063D01*
X122096063Y-55440226D01*
X121982795Y-55609744D01*
X121904774Y-55798102D01*
X121865000Y-55998061D01*
X121600398Y-55998061D01*
X121692415Y-55936578D01*
X121836578Y-55792415D01*
X121949846Y-55622897D01*
X122027867Y-55434539D01*
X122067641Y-55234580D01*
X122067641Y-55030702D01*
X122027867Y-54830743D01*
X121949846Y-54642385D01*
X121836578Y-54472867D01*
X121692415Y-54328704D01*
X121522897Y-54215436D01*
X121334539Y-54137415D01*
X121134580Y-54097641D01*
X120930702Y-54097641D01*
X120730743Y-54137415D01*
X120542385Y-54215436D01*
X120372867Y-54328704D01*
X120228704Y-54472867D01*
X120115436Y-54642385D01*
X120037415Y-54830743D01*
X119997641Y-55030702D01*
X105353000Y-55030702D01*
X105353000Y-54873000D01*
X105373000Y-54873000D01*
X105373000Y-53673750D01*
X105627000Y-53673750D01*
X105627000Y-54873000D01*
X106826250Y-54873000D01*
X106985000Y-54714250D01*
X106988072Y-54150000D01*
X106975812Y-54025518D01*
X106939502Y-53905820D01*
X106880537Y-53795506D01*
X106801185Y-53698815D01*
X106704494Y-53619463D01*
X106594180Y-53560498D01*
X106474482Y-53524188D01*
X106350000Y-53511928D01*
X105785750Y-53515000D01*
X105627000Y-53673750D01*
X105373000Y-53673750D01*
X105214250Y-53515000D01*
X104650000Y-53511928D01*
X104525518Y-53524188D01*
X104405820Y-53560498D01*
X104295506Y-53619463D01*
X104198815Y-53698815D01*
X104160000Y-53746111D01*
X104160000Y-52653889D01*
X104198815Y-52701185D01*
X104295506Y-52780537D01*
X104405820Y-52839502D01*
X104525518Y-52875812D01*
X104650000Y-52888072D01*
X106350000Y-52888072D01*
X106474482Y-52875812D01*
X106594180Y-52839502D01*
X106704494Y-52780537D01*
X106801185Y-52701185D01*
X106880537Y-52604494D01*
X106939502Y-52494180D01*
X106975812Y-52374482D01*
X106988072Y-52250000D01*
X106988072Y-50550000D01*
X106975812Y-50425518D01*
X106939502Y-50305820D01*
X106880537Y-50195506D01*
X106801185Y-50098815D01*
X106704494Y-50019463D01*
X106594180Y-49960498D01*
X106521620Y-49938487D01*
X106653475Y-49806632D01*
X106815990Y-49563411D01*
X106884479Y-49398061D01*
X114665000Y-49398061D01*
X114665000Y-49601939D01*
X114704774Y-49801898D01*
X114782795Y-49990256D01*
X114896063Y-50159774D01*
X115040226Y-50303937D01*
X115209744Y-50417205D01*
X115398102Y-50495226D01*
X115598061Y-50535000D01*
X115801939Y-50535000D01*
X116001898Y-50495226D01*
X116190256Y-50417205D01*
X116350000Y-50310468D01*
X116509744Y-50417205D01*
X116698102Y-50495226D01*
X116898061Y-50535000D01*
X117101939Y-50535000D01*
X117301898Y-50495226D01*
X117490256Y-50417205D01*
X117659774Y-50303937D01*
X117803937Y-50159774D01*
X117917205Y-49990256D01*
X117995226Y-49801898D01*
X118035000Y-49601939D01*
X118035000Y-49398061D01*
X117995226Y-49198102D01*
X117917205Y-49009744D01*
X117803937Y-48840226D01*
X117659774Y-48696063D01*
X117490256Y-48582795D01*
X117301898Y-48504774D01*
X117101939Y-48465000D01*
X116898061Y-48465000D01*
X116698102Y-48504774D01*
X116509744Y-48582795D01*
X116350000Y-48689532D01*
X116190256Y-48582795D01*
X116001898Y-48504774D01*
X115801939Y-48465000D01*
X115598061Y-48465000D01*
X115398102Y-48504774D01*
X115209744Y-48582795D01*
X115040226Y-48696063D01*
X114896063Y-48840226D01*
X114782795Y-49009744D01*
X114704774Y-49198102D01*
X114665000Y-49398061D01*
X106884479Y-49398061D01*
X106927932Y-49293158D01*
X106985000Y-49006260D01*
X106985000Y-48713740D01*
X106927932Y-48426842D01*
X106815990Y-48156589D01*
X106653475Y-47913368D01*
X106446632Y-47706525D01*
X106377002Y-47660000D01*
X121873000Y-47660000D01*
X121873000Y-48430538D01*
G37*
X121873000Y-48430538D02*
X121844188Y-48525518D01*
X121831928Y-48650000D01*
X121831928Y-50350000D01*
X121844188Y-50474482D01*
X121880498Y-50594180D01*
X121939463Y-50704494D01*
X122018815Y-50801185D01*
X122115506Y-50880537D01*
X122225820Y-50939502D01*
X122345518Y-50975812D01*
X122470000Y-50988072D01*
X124170000Y-50988072D01*
X124294482Y-50975812D01*
X124414180Y-50939502D01*
X124524494Y-50880537D01*
X124621185Y-50801185D01*
X124700537Y-50704494D01*
X124759502Y-50594180D01*
X124783966Y-50513534D01*
X124859731Y-50597588D01*
X125093080Y-50771641D01*
X125355901Y-50896825D01*
X125503110Y-50941476D01*
X125733000Y-50820155D01*
X125733000Y-49627000D01*
X125713000Y-49627000D01*
X125713000Y-49373000D01*
X125733000Y-49373000D01*
X125733000Y-49353000D01*
X125987000Y-49353000D01*
X125987000Y-49373000D01*
X126007000Y-49373000D01*
X126007000Y-49627000D01*
X125987000Y-49627000D01*
X125987000Y-50820155D01*
X126216890Y-50941476D01*
X126364099Y-50896825D01*
X126626920Y-50771641D01*
X126860269Y-50597588D01*
X127055178Y-50381355D01*
X127124805Y-50264466D01*
X127246525Y-50446632D01*
X127453368Y-50653475D01*
X127696589Y-50815990D01*
X127966842Y-50927932D01*
X128253740Y-50985000D01*
X128546260Y-50985000D01*
X128833158Y-50927932D01*
X129103411Y-50815990D01*
X129346632Y-50653475D01*
X129553475Y-50446632D01*
X129670000Y-50272240D01*
X129786525Y-50446632D01*
X129993368Y-50653475D01*
X130236589Y-50815990D01*
X130506842Y-50927932D01*
X130793740Y-50985000D01*
X131086260Y-50985000D01*
X131373158Y-50927932D01*
X131643411Y-50815990D01*
X131886632Y-50653475D01*
X132093475Y-50446632D01*
X132210000Y-50272240D01*
X132326525Y-50446632D01*
X132533368Y-50653475D01*
X132776589Y-50815990D01*
X133046842Y-50927932D01*
X133333740Y-50985000D01*
X133626260Y-50985000D01*
X133913158Y-50927932D01*
X134183411Y-50815990D01*
X134426632Y-50653475D01*
X134633475Y-50446632D01*
X134750000Y-50272240D01*
X134866525Y-50446632D01*
X135073368Y-50653475D01*
X135316589Y-50815990D01*
X135586842Y-50927932D01*
X135873740Y-50985000D01*
X136166260Y-50985000D01*
X136453158Y-50927932D01*
X136487252Y-50913810D01*
X136504774Y-51001898D01*
X136582795Y-51190256D01*
X136696063Y-51359774D01*
X136840226Y-51503937D01*
X137009744Y-51617205D01*
X137198102Y-51695226D01*
X137398061Y-51735000D01*
X137601939Y-51735000D01*
X137801898Y-51695226D01*
X137990256Y-51617205D01*
X138159774Y-51503937D01*
X138303937Y-51359774D01*
X138340001Y-51305801D01*
X138340000Y-64967721D01*
X138330420Y-65065424D01*
X138311420Y-65128357D01*
X138280554Y-65186406D01*
X138239011Y-65237343D01*
X138188356Y-65279248D01*
X138130529Y-65310515D01*
X138067728Y-65329956D01*
X137972165Y-65340000D01*
X137852178Y-65340000D01*
X137995178Y-65181355D01*
X138144157Y-64931252D01*
X138241481Y-64656891D01*
X138120814Y-64427000D01*
X136927000Y-64427000D01*
X136927000Y-64447000D01*
X136673000Y-64447000D01*
X136673000Y-64427000D01*
X136653000Y-64427000D01*
X136653000Y-64173000D01*
X136673000Y-64173000D01*
X136673000Y-62979845D01*
X136927000Y-62979845D01*
X136927000Y-64173000D01*
X138120814Y-64173000D01*
X138241481Y-63943109D01*
X138144157Y-63668748D01*
X137995178Y-63418645D01*
X137800269Y-63202412D01*
X137566920Y-63028359D01*
X137304099Y-62903175D01*
X137156890Y-62858524D01*
X136927000Y-62979845D01*
X136673000Y-62979845D01*
X136443110Y-62858524D01*
X136295901Y-62903175D01*
X136033080Y-63028359D01*
X135799731Y-63202412D01*
X135723966Y-63286466D01*
X135699502Y-63205820D01*
X135640537Y-63095506D01*
X135561185Y-62998815D01*
X135464494Y-62919463D01*
X135354180Y-62860498D01*
X135234482Y-62824188D01*
X135110000Y-62811928D01*
X133410000Y-62811928D01*
X133285518Y-62824188D01*
X133165820Y-62860498D01*
X133055506Y-62919463D01*
X132958815Y-62998815D01*
X132879463Y-63095506D01*
X132820498Y-63205820D01*
X132784188Y-63325518D01*
X132771928Y-63450000D01*
X132771928Y-65150000D01*
X132784188Y-65274482D01*
X132804063Y-65340000D01*
X123105802Y-65340000D01*
X123159774Y-65303937D01*
X123303937Y-65159774D01*
X123417205Y-64990256D01*
X123495226Y-64801898D01*
X123535000Y-64601939D01*
X123535000Y-64398061D01*
X123495226Y-64198102D01*
X123417205Y-64009744D01*
X123303937Y-63840226D01*
X123159774Y-63696063D01*
X122990256Y-63582795D01*
X122801898Y-63504774D01*
X122601939Y-63465000D01*
X122398061Y-63465000D01*
X122198102Y-63504774D01*
X122009744Y-63582795D01*
X121840226Y-63696063D01*
X121696063Y-63840226D01*
X121582795Y-64009744D01*
X121504774Y-64198102D01*
X121465000Y-64398061D01*
X121465000Y-64601939D01*
X121504774Y-64801898D01*
X121582795Y-64990256D01*
X121696063Y-65159774D01*
X121840226Y-65303937D01*
X121894198Y-65340000D01*
X118538022Y-65340000D01*
X118595226Y-65201898D01*
X118635000Y-65001939D01*
X118635000Y-64798061D01*
X118595226Y-64598102D01*
X118517205Y-64409744D01*
X118403937Y-64240226D01*
X118259774Y-64096063D01*
X118090256Y-63982795D01*
X117901898Y-63904774D01*
X117701939Y-63865000D01*
X117498061Y-63865000D01*
X117298102Y-63904774D01*
X117109744Y-63982795D01*
X116940226Y-64096063D01*
X116796063Y-64240226D01*
X116682795Y-64409744D01*
X116604774Y-64598102D01*
X116565000Y-64798061D01*
X116565000Y-65001939D01*
X116604774Y-65201898D01*
X116661978Y-65340000D01*
X112123711Y-65340000D01*
X112203937Y-65259774D01*
X112317205Y-65090256D01*
X112395226Y-64901898D01*
X112408879Y-64833258D01*
X112498102Y-64870216D01*
X112698061Y-64909990D01*
X112901939Y-64909990D01*
X113101898Y-64870216D01*
X113290256Y-64792195D01*
X113459774Y-64678927D01*
X113603937Y-64534764D01*
X113699240Y-64392133D01*
X113753655Y-64414673D01*
X113953614Y-64454447D01*
X114157492Y-64454447D01*
X114357451Y-64414673D01*
X114545809Y-64336652D01*
X114715327Y-64223384D01*
X114859490Y-64079221D01*
X114972758Y-63909703D01*
X115050779Y-63721345D01*
X115090553Y-63521386D01*
X115090553Y-63317508D01*
X115050779Y-63117549D01*
X114972758Y-62929191D01*
X114859490Y-62759673D01*
X114715327Y-62615510D01*
X114545809Y-62502242D01*
X114357451Y-62424221D01*
X114157492Y-62384447D01*
X113953614Y-62384447D01*
X113753655Y-62424221D01*
X113565297Y-62502242D01*
X113395779Y-62615510D01*
X113251616Y-62759673D01*
X113156313Y-62902304D01*
X113101898Y-62879764D01*
X112901939Y-62839990D01*
X112698061Y-62839990D01*
X112498102Y-62879764D01*
X112309744Y-62957785D01*
X112140226Y-63071053D01*
X111996063Y-63215216D01*
X111882795Y-63384734D01*
X111804774Y-63573092D01*
X111791121Y-63641732D01*
X111701898Y-63604774D01*
X111501939Y-63565000D01*
X111298061Y-63565000D01*
X111098102Y-63604774D01*
X110909744Y-63682795D01*
X110740226Y-63796063D01*
X110596063Y-63940226D01*
X110482795Y-64109744D01*
X110404774Y-64298102D01*
X110365000Y-64498061D01*
X110365000Y-64701939D01*
X110404774Y-64901898D01*
X110482795Y-65090256D01*
X110596063Y-65259774D01*
X110676289Y-65340000D01*
X104532279Y-65340000D01*
X104434576Y-65330420D01*
X104371643Y-65311420D01*
X104313594Y-65280554D01*
X104262657Y-65239011D01*
X104220752Y-65188356D01*
X104189485Y-65130529D01*
X104170044Y-65067728D01*
X104160000Y-64972165D01*
X104160000Y-62298061D01*
X123465000Y-62298061D01*
X123465000Y-62501939D01*
X123504774Y-62701898D01*
X123582795Y-62890256D01*
X123696063Y-63059774D01*
X123840226Y-63203937D01*
X124009744Y-63317205D01*
X124198102Y-63395226D01*
X124398061Y-63435000D01*
X124601939Y-63435000D01*
X124801898Y-63395226D01*
X124990256Y-63317205D01*
X125159774Y-63203937D01*
X125303937Y-63059774D01*
X125417205Y-62890256D01*
X125495226Y-62701898D01*
X125535000Y-62501939D01*
X125535000Y-62298061D01*
X125495226Y-62098102D01*
X125417205Y-61909744D01*
X125303937Y-61740226D01*
X125159774Y-61596063D01*
X124990256Y-61482795D01*
X124801898Y-61404774D01*
X124601939Y-61365000D01*
X124398061Y-61365000D01*
X124198102Y-61404774D01*
X124009744Y-61482795D01*
X123840226Y-61596063D01*
X123696063Y-61740226D01*
X123582795Y-61909744D01*
X123504774Y-62098102D01*
X123465000Y-62298061D01*
X104160000Y-62298061D01*
X104160000Y-60448061D01*
X127365000Y-60448061D01*
X127365000Y-60651939D01*
X127404774Y-60851898D01*
X127482795Y-61040256D01*
X127596063Y-61209774D01*
X127740226Y-61353937D01*
X127909744Y-61467205D01*
X128098102Y-61545226D01*
X128298061Y-61585000D01*
X128501939Y-61585000D01*
X128701898Y-61545226D01*
X128890256Y-61467205D01*
X129059774Y-61353937D01*
X129203937Y-61209774D01*
X129317205Y-61040256D01*
X129395226Y-60851898D01*
X129435000Y-60651939D01*
X129435000Y-60448061D01*
X129395226Y-60248102D01*
X129317205Y-60059744D01*
X129203937Y-59890226D01*
X129059774Y-59746063D01*
X128890256Y-59632795D01*
X128701898Y-59554774D01*
X128501939Y-59515000D01*
X128298061Y-59515000D01*
X128098102Y-59554774D01*
X127909744Y-59632795D01*
X127740226Y-59746063D01*
X127596063Y-59890226D01*
X127482795Y-60059744D01*
X127404774Y-60248102D01*
X127365000Y-60448061D01*
X104160000Y-60448061D01*
X104160000Y-56253889D01*
X104198815Y-56301185D01*
X104295506Y-56380537D01*
X104405820Y-56439502D01*
X104525518Y-56475812D01*
X104650000Y-56488072D01*
X105214250Y-56485000D01*
X105373000Y-56326250D01*
X105373000Y-55127000D01*
X105627000Y-55127000D01*
X105627000Y-56326250D01*
X105785750Y-56485000D01*
X106350000Y-56488072D01*
X106474482Y-56475812D01*
X106594180Y-56439502D01*
X106704494Y-56380537D01*
X106801185Y-56301185D01*
X106880537Y-56204494D01*
X106939502Y-56094180D01*
X106975812Y-55974482D01*
X106988072Y-55850000D01*
X106985000Y-55285750D01*
X106826250Y-55127000D01*
X105627000Y-55127000D01*
X105373000Y-55127000D01*
X105353000Y-55127000D01*
X105353000Y-55030702D01*
X119997641Y-55030702D01*
X119997641Y-55234580D01*
X120037415Y-55434539D01*
X120115436Y-55622897D01*
X120228704Y-55792415D01*
X120372867Y-55936578D01*
X120542385Y-56049846D01*
X120730743Y-56127867D01*
X120930702Y-56167641D01*
X121134580Y-56167641D01*
X121334539Y-56127867D01*
X121522897Y-56049846D01*
X121600398Y-55998061D01*
X121865000Y-55998061D01*
X121865000Y-56201939D01*
X121904774Y-56401898D01*
X121982795Y-56590256D01*
X122096063Y-56759774D01*
X122240226Y-56903937D01*
X122409744Y-57017205D01*
X122598102Y-57095226D01*
X122798061Y-57135000D01*
X123001939Y-57135000D01*
X123201898Y-57095226D01*
X123390256Y-57017205D01*
X123559774Y-56903937D01*
X123703937Y-56759774D01*
X123817205Y-56590256D01*
X123895226Y-56401898D01*
X123935000Y-56201939D01*
X123935000Y-55998061D01*
X123895226Y-55798102D01*
X123817205Y-55609744D01*
X123703937Y-55440226D01*
X123559774Y-55296063D01*
X123390256Y-55182795D01*
X123201898Y-55104774D01*
X123001939Y-55065000D01*
X122798061Y-55065000D01*
X122598102Y-55104774D01*
X122409744Y-55182795D01*
X122240226Y-55296063D01*
X122096063Y-55440226D01*
X121982795Y-55609744D01*
X121904774Y-55798102D01*
X121865000Y-55998061D01*
X121600398Y-55998061D01*
X121692415Y-55936578D01*
X121836578Y-55792415D01*
X121949846Y-55622897D01*
X122027867Y-55434539D01*
X122067641Y-55234580D01*
X122067641Y-55030702D01*
X122027867Y-54830743D01*
X121949846Y-54642385D01*
X121836578Y-54472867D01*
X121692415Y-54328704D01*
X121522897Y-54215436D01*
X121334539Y-54137415D01*
X121134580Y-54097641D01*
X120930702Y-54097641D01*
X120730743Y-54137415D01*
X120542385Y-54215436D01*
X120372867Y-54328704D01*
X120228704Y-54472867D01*
X120115436Y-54642385D01*
X120037415Y-54830743D01*
X119997641Y-55030702D01*
X105353000Y-55030702D01*
X105353000Y-54873000D01*
X105373000Y-54873000D01*
X105373000Y-53673750D01*
X105627000Y-53673750D01*
X105627000Y-54873000D01*
X106826250Y-54873000D01*
X106985000Y-54714250D01*
X106988072Y-54150000D01*
X106975812Y-54025518D01*
X106939502Y-53905820D01*
X106880537Y-53795506D01*
X106801185Y-53698815D01*
X106704494Y-53619463D01*
X106594180Y-53560498D01*
X106474482Y-53524188D01*
X106350000Y-53511928D01*
X105785750Y-53515000D01*
X105627000Y-53673750D01*
X105373000Y-53673750D01*
X105214250Y-53515000D01*
X104650000Y-53511928D01*
X104525518Y-53524188D01*
X104405820Y-53560498D01*
X104295506Y-53619463D01*
X104198815Y-53698815D01*
X104160000Y-53746111D01*
X104160000Y-52653889D01*
X104198815Y-52701185D01*
X104295506Y-52780537D01*
X104405820Y-52839502D01*
X104525518Y-52875812D01*
X104650000Y-52888072D01*
X106350000Y-52888072D01*
X106474482Y-52875812D01*
X106594180Y-52839502D01*
X106704494Y-52780537D01*
X106801185Y-52701185D01*
X106880537Y-52604494D01*
X106939502Y-52494180D01*
X106975812Y-52374482D01*
X106988072Y-52250000D01*
X106988072Y-50550000D01*
X106975812Y-50425518D01*
X106939502Y-50305820D01*
X106880537Y-50195506D01*
X106801185Y-50098815D01*
X106704494Y-50019463D01*
X106594180Y-49960498D01*
X106521620Y-49938487D01*
X106653475Y-49806632D01*
X106815990Y-49563411D01*
X106884479Y-49398061D01*
X114665000Y-49398061D01*
X114665000Y-49601939D01*
X114704774Y-49801898D01*
X114782795Y-49990256D01*
X114896063Y-50159774D01*
X115040226Y-50303937D01*
X115209744Y-50417205D01*
X115398102Y-50495226D01*
X115598061Y-50535000D01*
X115801939Y-50535000D01*
X116001898Y-50495226D01*
X116190256Y-50417205D01*
X116350000Y-50310468D01*
X116509744Y-50417205D01*
X116698102Y-50495226D01*
X116898061Y-50535000D01*
X117101939Y-50535000D01*
X117301898Y-50495226D01*
X117490256Y-50417205D01*
X117659774Y-50303937D01*
X117803937Y-50159774D01*
X117917205Y-49990256D01*
X117995226Y-49801898D01*
X118035000Y-49601939D01*
X118035000Y-49398061D01*
X117995226Y-49198102D01*
X117917205Y-49009744D01*
X117803937Y-48840226D01*
X117659774Y-48696063D01*
X117490256Y-48582795D01*
X117301898Y-48504774D01*
X117101939Y-48465000D01*
X116898061Y-48465000D01*
X116698102Y-48504774D01*
X116509744Y-48582795D01*
X116350000Y-48689532D01*
X116190256Y-48582795D01*
X116001898Y-48504774D01*
X115801939Y-48465000D01*
X115598061Y-48465000D01*
X115398102Y-48504774D01*
X115209744Y-48582795D01*
X115040226Y-48696063D01*
X114896063Y-48840226D01*
X114782795Y-49009744D01*
X114704774Y-49198102D01*
X114665000Y-49398061D01*
X106884479Y-49398061D01*
X106927932Y-49293158D01*
X106985000Y-49006260D01*
X106985000Y-48713740D01*
X106927932Y-48426842D01*
X106815990Y-48156589D01*
X106653475Y-47913368D01*
X106446632Y-47706525D01*
X106377002Y-47660000D01*
X121873000Y-47660000D01*
X121873000Y-48430538D01*
M02*
