G04 #@! TF.GenerationSoftware,KiCad,Pcbnew,(5.1.2)-2*
G04 #@! TF.CreationDate,2020-05-20T23:18:15+10:00*
G04 #@! TF.ProjectId,Heterodyne,48657465-726f-4647-996e-652e6b696361,rev?*
G04 #@! TF.SameCoordinates,Original*
G04 #@! TF.FileFunction,Soldermask,Bot*
G04 #@! TF.FilePolarity,Negative*
%FSLAX46Y46*%
G04 Gerber Fmt 4.6, Leading zero omitted, Abs format (unit mm)*
G04 Created by KiCad (PCBNEW (5.1.2)-2) date 2020-05-20 23:18:15*
%MOMM*%
%LPD*%
G04 APERTURE LIST*
%ADD10C,0.100000*%
G04 APERTURE END LIST*
D10*
G36*
X126200000Y-65900000D02*
G01*
X123200000Y-65900000D01*
X123200000Y-65300000D01*
X126200000Y-65300000D01*
X126200000Y-65900000D01*
G37*
X126200000Y-65900000D02*
X123200000Y-65900000D01*
X123200000Y-65300000D01*
X126200000Y-65300000D01*
X126200000Y-65900000D01*
G36*
X108264499Y-66203445D02*
G01*
X108301995Y-66214820D01*
X108336554Y-66233292D01*
X108366847Y-66258153D01*
X108391708Y-66288446D01*
X108410180Y-66323005D01*
X108421555Y-66360501D01*
X108426000Y-66405638D01*
X108426000Y-67144362D01*
X108421555Y-67189499D01*
X108410180Y-67226995D01*
X108391708Y-67261554D01*
X108366847Y-67291847D01*
X108336554Y-67316708D01*
X108301995Y-67335180D01*
X108264499Y-67346555D01*
X108219362Y-67351000D01*
X107580638Y-67351000D01*
X107535501Y-67346555D01*
X107498005Y-67335180D01*
X107463446Y-67316708D01*
X107433153Y-67291847D01*
X107408292Y-67261554D01*
X107389820Y-67226995D01*
X107378445Y-67189499D01*
X107374000Y-67144362D01*
X107374000Y-66405638D01*
X107378445Y-66360501D01*
X107389820Y-66323005D01*
X107408292Y-66288446D01*
X107433153Y-66258153D01*
X107463446Y-66233292D01*
X107498005Y-66214820D01*
X107535501Y-66203445D01*
X107580638Y-66199000D01*
X108219362Y-66199000D01*
X108264499Y-66203445D01*
X108264499Y-66203445D01*
G37*
G36*
X119889499Y-66278445D02*
G01*
X119926995Y-66289820D01*
X119961554Y-66308292D01*
X119991847Y-66333153D01*
X120016708Y-66363446D01*
X120035180Y-66398005D01*
X120046555Y-66435501D01*
X120051000Y-66480638D01*
X120051000Y-67119362D01*
X120046555Y-67164499D01*
X120035180Y-67201995D01*
X120016708Y-67236554D01*
X119991847Y-67266847D01*
X119961554Y-67291708D01*
X119926995Y-67310180D01*
X119889499Y-67321555D01*
X119844362Y-67326000D01*
X119105638Y-67326000D01*
X119060501Y-67321555D01*
X119023005Y-67310180D01*
X118988446Y-67291708D01*
X118958153Y-67266847D01*
X118933292Y-67236554D01*
X118914820Y-67201995D01*
X118903445Y-67164499D01*
X118899000Y-67119362D01*
X118899000Y-66480638D01*
X118903445Y-66435501D01*
X118914820Y-66398005D01*
X118933292Y-66363446D01*
X118958153Y-66333153D01*
X118988446Y-66308292D01*
X119023005Y-66289820D01*
X119060501Y-66278445D01*
X119105638Y-66274000D01*
X119844362Y-66274000D01*
X119889499Y-66278445D01*
X119889499Y-66278445D01*
G37*
G36*
X118139499Y-66278445D02*
G01*
X118176995Y-66289820D01*
X118211554Y-66308292D01*
X118241847Y-66333153D01*
X118266708Y-66363446D01*
X118285180Y-66398005D01*
X118296555Y-66435501D01*
X118301000Y-66480638D01*
X118301000Y-67119362D01*
X118296555Y-67164499D01*
X118285180Y-67201995D01*
X118266708Y-67236554D01*
X118241847Y-67266847D01*
X118211554Y-67291708D01*
X118176995Y-67310180D01*
X118139499Y-67321555D01*
X118094362Y-67326000D01*
X117355638Y-67326000D01*
X117310501Y-67321555D01*
X117273005Y-67310180D01*
X117238446Y-67291708D01*
X117208153Y-67266847D01*
X117183292Y-67236554D01*
X117164820Y-67201995D01*
X117153445Y-67164499D01*
X117149000Y-67119362D01*
X117149000Y-66480638D01*
X117153445Y-66435501D01*
X117164820Y-66398005D01*
X117183292Y-66363446D01*
X117208153Y-66333153D01*
X117238446Y-66308292D01*
X117273005Y-66289820D01*
X117310501Y-66278445D01*
X117355638Y-66274000D01*
X118094362Y-66274000D01*
X118139499Y-66278445D01*
X118139499Y-66278445D01*
G37*
G36*
X132400443Y-65355519D02*
G01*
X132466627Y-65362037D01*
X132636466Y-65413557D01*
X132636468Y-65413558D01*
X132712991Y-65454461D01*
X132792991Y-65497222D01*
X132810454Y-65511554D01*
X132930186Y-65609814D01*
X133013448Y-65711271D01*
X133042778Y-65747009D01*
X133126443Y-65903534D01*
X133177963Y-66073373D01*
X133195359Y-66250000D01*
X133177963Y-66426627D01*
X133126443Y-66596466D01*
X133042778Y-66752991D01*
X133036205Y-66761000D01*
X132930186Y-66890186D01*
X132828729Y-66973448D01*
X132792991Y-67002778D01*
X132636466Y-67086443D01*
X132466627Y-67137963D01*
X132401656Y-67144362D01*
X132334260Y-67151000D01*
X132245740Y-67151000D01*
X132178344Y-67144362D01*
X132113373Y-67137963D01*
X131943534Y-67086443D01*
X131787009Y-67002778D01*
X131751271Y-66973448D01*
X131649814Y-66890186D01*
X131543795Y-66761000D01*
X131537222Y-66752991D01*
X131453557Y-66596466D01*
X131402037Y-66426627D01*
X131384641Y-66250000D01*
X131402037Y-66073373D01*
X131453557Y-65903534D01*
X131537222Y-65747009D01*
X131566552Y-65711271D01*
X131649814Y-65609814D01*
X131769546Y-65511554D01*
X131787009Y-65497222D01*
X131867009Y-65454461D01*
X131943532Y-65413558D01*
X131943534Y-65413557D01*
X132113373Y-65362037D01*
X132179557Y-65355519D01*
X132245740Y-65349000D01*
X132334260Y-65349000D01*
X132400443Y-65355519D01*
X132400443Y-65355519D01*
G37*
G36*
X130651000Y-67151000D02*
G01*
X128849000Y-67151000D01*
X128849000Y-65349000D01*
X130651000Y-65349000D01*
X130651000Y-67151000D01*
X130651000Y-67151000D01*
G37*
G36*
X134940443Y-65355519D02*
G01*
X135006627Y-65362037D01*
X135176466Y-65413557D01*
X135176468Y-65413558D01*
X135252991Y-65454461D01*
X135332991Y-65497222D01*
X135350454Y-65511554D01*
X135470186Y-65609814D01*
X135553448Y-65711271D01*
X135582778Y-65747009D01*
X135666443Y-65903534D01*
X135717963Y-66073373D01*
X135735359Y-66250000D01*
X135717963Y-66426627D01*
X135666443Y-66596466D01*
X135582778Y-66752991D01*
X135576205Y-66761000D01*
X135470186Y-66890186D01*
X135368729Y-66973448D01*
X135332991Y-67002778D01*
X135176466Y-67086443D01*
X135006627Y-67137963D01*
X134941656Y-67144362D01*
X134874260Y-67151000D01*
X134785740Y-67151000D01*
X134718344Y-67144362D01*
X134653373Y-67137963D01*
X134483534Y-67086443D01*
X134327009Y-67002778D01*
X134291271Y-66973448D01*
X134189814Y-66890186D01*
X134083795Y-66761000D01*
X134077222Y-66752991D01*
X133993557Y-66596466D01*
X133942037Y-66426627D01*
X133924641Y-66250000D01*
X133942037Y-66073373D01*
X133993557Y-65903534D01*
X134077222Y-65747009D01*
X134106552Y-65711271D01*
X134189814Y-65609814D01*
X134309546Y-65511554D01*
X134327009Y-65497222D01*
X134407009Y-65454461D01*
X134483532Y-65413558D01*
X134483534Y-65413557D01*
X134653373Y-65362037D01*
X134719557Y-65355519D01*
X134785740Y-65349000D01*
X134874260Y-65349000D01*
X134940443Y-65355519D01*
X134940443Y-65355519D01*
G37*
G36*
X124401000Y-67151000D02*
G01*
X122599000Y-67151000D01*
X122599000Y-65349000D01*
X124401000Y-65349000D01*
X124401000Y-67151000D01*
X124401000Y-67151000D01*
G37*
G36*
X137480443Y-65355519D02*
G01*
X137546627Y-65362037D01*
X137716466Y-65413557D01*
X137716468Y-65413558D01*
X137792991Y-65454461D01*
X137872991Y-65497222D01*
X137890454Y-65511554D01*
X138010186Y-65609814D01*
X138093448Y-65711271D01*
X138122778Y-65747009D01*
X138206443Y-65903534D01*
X138257963Y-66073373D01*
X138275359Y-66250000D01*
X138257963Y-66426627D01*
X138206443Y-66596466D01*
X138122778Y-66752991D01*
X138116205Y-66761000D01*
X138010186Y-66890186D01*
X137908729Y-66973448D01*
X137872991Y-67002778D01*
X137716466Y-67086443D01*
X137546627Y-67137963D01*
X137481656Y-67144362D01*
X137414260Y-67151000D01*
X137325740Y-67151000D01*
X137258344Y-67144362D01*
X137193373Y-67137963D01*
X137023534Y-67086443D01*
X136867009Y-67002778D01*
X136831271Y-66973448D01*
X136729814Y-66890186D01*
X136623795Y-66761000D01*
X136617222Y-66752991D01*
X136533557Y-66596466D01*
X136482037Y-66426627D01*
X136464641Y-66250000D01*
X136482037Y-66073373D01*
X136533557Y-65903534D01*
X136617222Y-65747009D01*
X136646552Y-65711271D01*
X136729814Y-65609814D01*
X136849546Y-65511554D01*
X136867009Y-65497222D01*
X136947009Y-65454461D01*
X137023532Y-65413558D01*
X137023534Y-65413557D01*
X137193373Y-65362037D01*
X137259557Y-65355519D01*
X137325740Y-65349000D01*
X137414260Y-65349000D01*
X137480443Y-65355519D01*
X137480443Y-65355519D01*
G37*
G36*
X140020443Y-65355519D02*
G01*
X140086627Y-65362037D01*
X140256466Y-65413557D01*
X140256468Y-65413558D01*
X140332991Y-65454461D01*
X140412991Y-65497222D01*
X140430454Y-65511554D01*
X140550186Y-65609814D01*
X140633448Y-65711271D01*
X140662778Y-65747009D01*
X140746443Y-65903534D01*
X140797963Y-66073373D01*
X140815359Y-66250000D01*
X140797963Y-66426627D01*
X140746443Y-66596466D01*
X140662778Y-66752991D01*
X140656205Y-66761000D01*
X140550186Y-66890186D01*
X140448729Y-66973448D01*
X140412991Y-67002778D01*
X140256466Y-67086443D01*
X140086627Y-67137963D01*
X140021656Y-67144362D01*
X139954260Y-67151000D01*
X139865740Y-67151000D01*
X139798344Y-67144362D01*
X139733373Y-67137963D01*
X139563534Y-67086443D01*
X139407009Y-67002778D01*
X139371271Y-66973448D01*
X139269814Y-66890186D01*
X139163795Y-66761000D01*
X139157222Y-66752991D01*
X139073557Y-66596466D01*
X139022037Y-66426627D01*
X139004641Y-66250000D01*
X139022037Y-66073373D01*
X139073557Y-65903534D01*
X139157222Y-65747009D01*
X139186552Y-65711271D01*
X139269814Y-65609814D01*
X139389546Y-65511554D01*
X139407009Y-65497222D01*
X139487009Y-65454461D01*
X139563532Y-65413558D01*
X139563534Y-65413557D01*
X139733373Y-65362037D01*
X139799557Y-65355519D01*
X139865740Y-65349000D01*
X139954260Y-65349000D01*
X140020443Y-65355519D01*
X140020443Y-65355519D01*
G37*
G36*
X126150443Y-65355519D02*
G01*
X126216627Y-65362037D01*
X126386466Y-65413557D01*
X126386468Y-65413558D01*
X126462991Y-65454461D01*
X126542991Y-65497222D01*
X126560454Y-65511554D01*
X126680186Y-65609814D01*
X126763448Y-65711271D01*
X126792778Y-65747009D01*
X126876443Y-65903534D01*
X126927963Y-66073373D01*
X126945359Y-66250000D01*
X126927963Y-66426627D01*
X126876443Y-66596466D01*
X126792778Y-66752991D01*
X126786205Y-66761000D01*
X126680186Y-66890186D01*
X126578729Y-66973448D01*
X126542991Y-67002778D01*
X126386466Y-67086443D01*
X126216627Y-67137963D01*
X126151656Y-67144362D01*
X126084260Y-67151000D01*
X125995740Y-67151000D01*
X125928344Y-67144362D01*
X125863373Y-67137963D01*
X125693534Y-67086443D01*
X125537009Y-67002778D01*
X125501271Y-66973448D01*
X125399814Y-66890186D01*
X125293795Y-66761000D01*
X125287222Y-66752991D01*
X125203557Y-66596466D01*
X125152037Y-66426627D01*
X125134641Y-66250000D01*
X125152037Y-66073373D01*
X125203557Y-65903534D01*
X125287222Y-65747009D01*
X125316552Y-65711271D01*
X125399814Y-65609814D01*
X125519546Y-65511554D01*
X125537009Y-65497222D01*
X125617009Y-65454461D01*
X125693532Y-65413558D01*
X125693534Y-65413557D01*
X125863373Y-65362037D01*
X125929557Y-65355519D01*
X125995740Y-65349000D01*
X126084260Y-65349000D01*
X126150443Y-65355519D01*
X126150443Y-65355519D01*
G37*
G36*
X106151000Y-67101000D02*
G01*
X104349000Y-67101000D01*
X104349000Y-65299000D01*
X106151000Y-65299000D01*
X106151000Y-67101000D01*
X106151000Y-67101000D01*
G37*
G36*
X111159928Y-66061764D02*
G01*
X111181009Y-66068160D01*
X111200445Y-66078548D01*
X111217476Y-66092524D01*
X111231452Y-66109555D01*
X111241840Y-66128991D01*
X111248236Y-66150072D01*
X111251000Y-66178140D01*
X111251000Y-66641860D01*
X111248236Y-66669928D01*
X111241840Y-66691009D01*
X111231452Y-66710445D01*
X111217476Y-66727476D01*
X111200445Y-66741452D01*
X111181009Y-66751840D01*
X111159928Y-66758236D01*
X111131860Y-66761000D01*
X109318140Y-66761000D01*
X109290072Y-66758236D01*
X109268991Y-66751840D01*
X109249555Y-66741452D01*
X109232524Y-66727476D01*
X109218548Y-66710445D01*
X109208160Y-66691009D01*
X109201764Y-66669928D01*
X109199000Y-66641860D01*
X109199000Y-66178140D01*
X109201764Y-66150072D01*
X109208160Y-66128991D01*
X109218548Y-66109555D01*
X109232524Y-66092524D01*
X109249555Y-66078548D01*
X109268991Y-66068160D01*
X109290072Y-66061764D01*
X109318140Y-66059000D01*
X111131860Y-66059000D01*
X111159928Y-66061764D01*
X111159928Y-66061764D01*
G37*
G36*
X116109928Y-66061764D02*
G01*
X116131009Y-66068160D01*
X116150445Y-66078548D01*
X116167476Y-66092524D01*
X116181452Y-66109555D01*
X116191840Y-66128991D01*
X116198236Y-66150072D01*
X116201000Y-66178140D01*
X116201000Y-66641860D01*
X116198236Y-66669928D01*
X116191840Y-66691009D01*
X116181452Y-66710445D01*
X116167476Y-66727476D01*
X116150445Y-66741452D01*
X116131009Y-66751840D01*
X116109928Y-66758236D01*
X116081860Y-66761000D01*
X114268140Y-66761000D01*
X114240072Y-66758236D01*
X114218991Y-66751840D01*
X114199555Y-66741452D01*
X114182524Y-66727476D01*
X114168548Y-66710445D01*
X114158160Y-66691009D01*
X114151764Y-66669928D01*
X114149000Y-66641860D01*
X114149000Y-66178140D01*
X114151764Y-66150072D01*
X114158160Y-66128991D01*
X114168548Y-66109555D01*
X114182524Y-66092524D01*
X114199555Y-66078548D01*
X114218991Y-66068160D01*
X114240072Y-66061764D01*
X114268140Y-66059000D01*
X116081860Y-66059000D01*
X116109928Y-66061764D01*
X116109928Y-66061764D01*
G37*
G36*
X108264499Y-64453445D02*
G01*
X108301995Y-64464820D01*
X108336554Y-64483292D01*
X108366847Y-64508153D01*
X108391708Y-64538446D01*
X108410180Y-64573005D01*
X108421555Y-64610501D01*
X108426000Y-64655638D01*
X108426000Y-65394362D01*
X108421555Y-65439499D01*
X108410180Y-65476995D01*
X108391708Y-65511554D01*
X108366847Y-65541847D01*
X108336554Y-65566708D01*
X108301995Y-65585180D01*
X108264499Y-65596555D01*
X108219362Y-65601000D01*
X107580638Y-65601000D01*
X107535501Y-65596555D01*
X107498005Y-65585180D01*
X107463446Y-65566708D01*
X107433153Y-65541847D01*
X107408292Y-65511554D01*
X107389820Y-65476995D01*
X107378445Y-65439499D01*
X107374000Y-65394362D01*
X107374000Y-64655638D01*
X107378445Y-64610501D01*
X107389820Y-64573005D01*
X107408292Y-64538446D01*
X107433153Y-64508153D01*
X107463446Y-64483292D01*
X107498005Y-64464820D01*
X107535501Y-64453445D01*
X107580638Y-64449000D01*
X108219362Y-64449000D01*
X108264499Y-64453445D01*
X108264499Y-64453445D01*
G37*
G36*
X119729591Y-64478085D02*
G01*
X119763569Y-64488393D01*
X119794890Y-64505134D01*
X119822339Y-64527661D01*
X119844866Y-64555110D01*
X119861607Y-64586431D01*
X119871915Y-64620409D01*
X119876000Y-64661890D01*
X119876000Y-65338110D01*
X119871915Y-65379591D01*
X119861607Y-65413569D01*
X119844866Y-65444890D01*
X119822339Y-65472339D01*
X119794890Y-65494866D01*
X119763569Y-65511607D01*
X119729591Y-65521915D01*
X119688110Y-65526000D01*
X119086890Y-65526000D01*
X119045409Y-65521915D01*
X119011431Y-65511607D01*
X118980110Y-65494866D01*
X118952661Y-65472339D01*
X118930134Y-65444890D01*
X118913393Y-65413569D01*
X118903085Y-65379591D01*
X118899000Y-65338110D01*
X118899000Y-64661890D01*
X118903085Y-64620409D01*
X118913393Y-64586431D01*
X118930134Y-64555110D01*
X118952661Y-64527661D01*
X118980110Y-64505134D01*
X119011431Y-64488393D01*
X119045409Y-64478085D01*
X119086890Y-64474000D01*
X119688110Y-64474000D01*
X119729591Y-64478085D01*
X119729591Y-64478085D01*
G37*
G36*
X118154591Y-64478085D02*
G01*
X118188569Y-64488393D01*
X118219890Y-64505134D01*
X118247339Y-64527661D01*
X118269866Y-64555110D01*
X118286607Y-64586431D01*
X118296915Y-64620409D01*
X118301000Y-64661890D01*
X118301000Y-65338110D01*
X118296915Y-65379591D01*
X118286607Y-65413569D01*
X118269866Y-65444890D01*
X118247339Y-65472339D01*
X118219890Y-65494866D01*
X118188569Y-65511607D01*
X118154591Y-65521915D01*
X118113110Y-65526000D01*
X117511890Y-65526000D01*
X117470409Y-65521915D01*
X117436431Y-65511607D01*
X117405110Y-65494866D01*
X117377661Y-65472339D01*
X117355134Y-65444890D01*
X117338393Y-65413569D01*
X117328085Y-65379591D01*
X117324000Y-65338110D01*
X117324000Y-64661890D01*
X117328085Y-64620409D01*
X117338393Y-64586431D01*
X117355134Y-64555110D01*
X117377661Y-64527661D01*
X117405110Y-64505134D01*
X117436431Y-64488393D01*
X117470409Y-64478085D01*
X117511890Y-64474000D01*
X118113110Y-64474000D01*
X118154591Y-64478085D01*
X118154591Y-64478085D01*
G37*
G36*
X111159928Y-64791764D02*
G01*
X111181009Y-64798160D01*
X111200445Y-64808548D01*
X111217476Y-64822524D01*
X111231452Y-64839555D01*
X111241840Y-64858991D01*
X111248236Y-64880072D01*
X111251000Y-64908140D01*
X111251000Y-65371860D01*
X111248236Y-65399928D01*
X111241840Y-65421009D01*
X111231452Y-65440445D01*
X111217476Y-65457476D01*
X111200445Y-65471452D01*
X111181009Y-65481840D01*
X111159928Y-65488236D01*
X111131860Y-65491000D01*
X109318140Y-65491000D01*
X109290072Y-65488236D01*
X109268991Y-65481840D01*
X109249555Y-65471452D01*
X109232524Y-65457476D01*
X109218548Y-65440445D01*
X109208160Y-65421009D01*
X109201764Y-65399928D01*
X109199000Y-65371860D01*
X109199000Y-64908140D01*
X109201764Y-64880072D01*
X109208160Y-64858991D01*
X109218548Y-64839555D01*
X109232524Y-64822524D01*
X109249555Y-64808548D01*
X109268991Y-64798160D01*
X109290072Y-64791764D01*
X109318140Y-64789000D01*
X111131860Y-64789000D01*
X111159928Y-64791764D01*
X111159928Y-64791764D01*
G37*
G36*
X116109928Y-64791764D02*
G01*
X116131009Y-64798160D01*
X116150445Y-64808548D01*
X116167476Y-64822524D01*
X116181452Y-64839555D01*
X116191840Y-64858991D01*
X116198236Y-64880072D01*
X116201000Y-64908140D01*
X116201000Y-65371860D01*
X116198236Y-65399928D01*
X116191840Y-65421009D01*
X116181452Y-65440445D01*
X116167476Y-65457476D01*
X116150445Y-65471452D01*
X116131009Y-65481840D01*
X116109928Y-65488236D01*
X116081860Y-65491000D01*
X114268140Y-65491000D01*
X114240072Y-65488236D01*
X114218991Y-65481840D01*
X114199555Y-65471452D01*
X114182524Y-65457476D01*
X114168548Y-65440445D01*
X114158160Y-65421009D01*
X114151764Y-65399928D01*
X114149000Y-65371860D01*
X114149000Y-64908140D01*
X114151764Y-64880072D01*
X114158160Y-64858991D01*
X114168548Y-64839555D01*
X114182524Y-64822524D01*
X114199555Y-64808548D01*
X114218991Y-64798160D01*
X114240072Y-64791764D01*
X114268140Y-64789000D01*
X116081860Y-64789000D01*
X116109928Y-64791764D01*
X116109928Y-64791764D01*
G37*
G36*
X105360443Y-62765519D02*
G01*
X105426627Y-62772037D01*
X105596466Y-62823557D01*
X105596468Y-62823558D01*
X105605611Y-62828445D01*
X105752991Y-62907222D01*
X105782515Y-62931452D01*
X105890186Y-63019814D01*
X105945323Y-63087000D01*
X106002778Y-63157009D01*
X106086443Y-63313534D01*
X106137963Y-63483373D01*
X106155359Y-63660000D01*
X106137963Y-63836627D01*
X106086443Y-64006466D01*
X106002778Y-64162991D01*
X105979444Y-64191423D01*
X105890186Y-64300186D01*
X105788729Y-64383448D01*
X105752991Y-64412778D01*
X105596466Y-64496443D01*
X105426627Y-64547963D01*
X105360442Y-64554482D01*
X105294260Y-64561000D01*
X105205740Y-64561000D01*
X105139558Y-64554482D01*
X105073373Y-64547963D01*
X104903534Y-64496443D01*
X104747009Y-64412778D01*
X104711271Y-64383448D01*
X104609814Y-64300186D01*
X104520556Y-64191423D01*
X104497222Y-64162991D01*
X104413557Y-64006466D01*
X104362037Y-63836627D01*
X104344641Y-63660000D01*
X104362037Y-63483373D01*
X104413557Y-63313534D01*
X104497222Y-63157009D01*
X104554677Y-63087000D01*
X104609814Y-63019814D01*
X104717485Y-62931452D01*
X104747009Y-62907222D01*
X104894389Y-62828445D01*
X104903532Y-62823558D01*
X104903534Y-62823557D01*
X105073373Y-62772037D01*
X105139557Y-62765519D01*
X105205740Y-62759000D01*
X105294260Y-62759000D01*
X105360443Y-62765519D01*
X105360443Y-62765519D01*
G37*
G36*
X111159928Y-63521764D02*
G01*
X111181009Y-63528160D01*
X111200445Y-63538548D01*
X111217476Y-63552524D01*
X111231452Y-63569555D01*
X111241840Y-63588991D01*
X111248236Y-63610072D01*
X111251000Y-63638140D01*
X111251000Y-64101860D01*
X111248236Y-64129928D01*
X111241840Y-64151009D01*
X111231452Y-64170445D01*
X111217476Y-64187476D01*
X111200445Y-64201452D01*
X111181009Y-64211840D01*
X111159928Y-64218236D01*
X111131860Y-64221000D01*
X109318140Y-64221000D01*
X109290072Y-64218236D01*
X109268991Y-64211840D01*
X109249555Y-64201452D01*
X109232524Y-64187476D01*
X109218548Y-64170445D01*
X109208160Y-64151009D01*
X109201764Y-64129928D01*
X109199000Y-64101860D01*
X109199000Y-63638140D01*
X109201764Y-63610072D01*
X109208160Y-63588991D01*
X109218548Y-63569555D01*
X109232524Y-63552524D01*
X109249555Y-63538548D01*
X109268991Y-63528160D01*
X109290072Y-63521764D01*
X109318140Y-63519000D01*
X111131860Y-63519000D01*
X111159928Y-63521764D01*
X111159928Y-63521764D01*
G37*
G36*
X116109928Y-63521764D02*
G01*
X116131009Y-63528160D01*
X116150445Y-63538548D01*
X116167476Y-63552524D01*
X116181452Y-63569555D01*
X116191840Y-63588991D01*
X116198236Y-63610072D01*
X116201000Y-63638140D01*
X116201000Y-64101860D01*
X116198236Y-64129928D01*
X116191840Y-64151009D01*
X116181452Y-64170445D01*
X116167476Y-64187476D01*
X116150445Y-64201452D01*
X116131009Y-64211840D01*
X116109928Y-64218236D01*
X116081860Y-64221000D01*
X114268140Y-64221000D01*
X114240072Y-64218236D01*
X114218991Y-64211840D01*
X114199555Y-64201452D01*
X114182524Y-64187476D01*
X114168548Y-64170445D01*
X114158160Y-64151009D01*
X114151764Y-64129928D01*
X114149000Y-64101860D01*
X114149000Y-63638140D01*
X114151764Y-63610072D01*
X114158160Y-63588991D01*
X114168548Y-63569555D01*
X114182524Y-63552524D01*
X114199555Y-63538548D01*
X114218991Y-63528160D01*
X114240072Y-63521764D01*
X114268140Y-63519000D01*
X116081860Y-63519000D01*
X116109928Y-63521764D01*
X116109928Y-63521764D01*
G37*
G36*
X123684468Y-62503565D02*
G01*
X123723138Y-62515296D01*
X123758777Y-62534346D01*
X123790017Y-62559983D01*
X123815654Y-62591223D01*
X123834704Y-62626862D01*
X123846435Y-62665532D01*
X123851000Y-62711888D01*
X123851000Y-63788112D01*
X123846435Y-63834468D01*
X123834704Y-63873138D01*
X123815654Y-63908777D01*
X123790017Y-63940017D01*
X123758777Y-63965654D01*
X123723138Y-63984704D01*
X123684468Y-63996435D01*
X123638112Y-64001000D01*
X122986888Y-64001000D01*
X122940532Y-63996435D01*
X122901862Y-63984704D01*
X122866223Y-63965654D01*
X122834983Y-63940017D01*
X122809346Y-63908777D01*
X122790296Y-63873138D01*
X122778565Y-63834468D01*
X122774000Y-63788112D01*
X122774000Y-62711888D01*
X122778565Y-62665532D01*
X122790296Y-62626862D01*
X122809346Y-62591223D01*
X122834983Y-62559983D01*
X122866223Y-62534346D01*
X122901862Y-62515296D01*
X122940532Y-62503565D01*
X122986888Y-62499000D01*
X123638112Y-62499000D01*
X123684468Y-62503565D01*
X123684468Y-62503565D01*
G37*
G36*
X125559468Y-62503565D02*
G01*
X125598138Y-62515296D01*
X125633777Y-62534346D01*
X125665017Y-62559983D01*
X125690654Y-62591223D01*
X125709704Y-62626862D01*
X125721435Y-62665532D01*
X125726000Y-62711888D01*
X125726000Y-63788112D01*
X125721435Y-63834468D01*
X125709704Y-63873138D01*
X125690654Y-63908777D01*
X125665017Y-63940017D01*
X125633777Y-63965654D01*
X125598138Y-63984704D01*
X125559468Y-63996435D01*
X125513112Y-64001000D01*
X124861888Y-64001000D01*
X124815532Y-63996435D01*
X124776862Y-63984704D01*
X124741223Y-63965654D01*
X124709983Y-63940017D01*
X124684346Y-63908777D01*
X124665296Y-63873138D01*
X124653565Y-63834468D01*
X124649000Y-63788112D01*
X124649000Y-62711888D01*
X124653565Y-62665532D01*
X124665296Y-62626862D01*
X124684346Y-62591223D01*
X124709983Y-62559983D01*
X124741223Y-62534346D01*
X124776862Y-62515296D01*
X124815532Y-62503565D01*
X124861888Y-62499000D01*
X125513112Y-62499000D01*
X125559468Y-62503565D01*
X125559468Y-62503565D01*
G37*
G36*
X135114499Y-62803445D02*
G01*
X135151995Y-62814820D01*
X135186554Y-62833292D01*
X135216847Y-62858153D01*
X135241708Y-62888446D01*
X135260180Y-62923005D01*
X135271555Y-62960501D01*
X135276000Y-63005638D01*
X135276000Y-63744362D01*
X135271555Y-63789499D01*
X135260180Y-63826995D01*
X135241708Y-63861554D01*
X135216847Y-63891847D01*
X135186554Y-63916708D01*
X135151995Y-63935180D01*
X135114499Y-63946555D01*
X135069362Y-63951000D01*
X134430638Y-63951000D01*
X134385501Y-63946555D01*
X134348005Y-63935180D01*
X134313446Y-63916708D01*
X134283153Y-63891847D01*
X134258292Y-63861554D01*
X134239820Y-63826995D01*
X134228445Y-63789499D01*
X134224000Y-63744362D01*
X134224000Y-63005638D01*
X134228445Y-62960501D01*
X134239820Y-62923005D01*
X134258292Y-62888446D01*
X134283153Y-62858153D01*
X134313446Y-62833292D01*
X134348005Y-62814820D01*
X134385501Y-62803445D01*
X134430638Y-62799000D01*
X135069362Y-62799000D01*
X135114499Y-62803445D01*
X135114499Y-62803445D01*
G37*
G36*
X139189499Y-62828445D02*
G01*
X139226995Y-62839820D01*
X139261554Y-62858292D01*
X139291847Y-62883153D01*
X139316708Y-62913446D01*
X139335180Y-62948005D01*
X139346555Y-62985501D01*
X139351000Y-63030638D01*
X139351000Y-63669362D01*
X139346555Y-63714499D01*
X139335180Y-63751995D01*
X139316708Y-63786554D01*
X139291847Y-63816847D01*
X139261554Y-63841708D01*
X139226995Y-63860180D01*
X139189499Y-63871555D01*
X139144362Y-63876000D01*
X138405638Y-63876000D01*
X138360501Y-63871555D01*
X138323005Y-63860180D01*
X138288446Y-63841708D01*
X138258153Y-63816847D01*
X138233292Y-63786554D01*
X138214820Y-63751995D01*
X138203445Y-63714499D01*
X138199000Y-63669362D01*
X138199000Y-63030638D01*
X138203445Y-62985501D01*
X138214820Y-62948005D01*
X138233292Y-62913446D01*
X138258153Y-62883153D01*
X138288446Y-62858292D01*
X138323005Y-62839820D01*
X138360501Y-62828445D01*
X138405638Y-62824000D01*
X139144362Y-62824000D01*
X139189499Y-62828445D01*
X139189499Y-62828445D01*
G37*
G36*
X140939499Y-62828445D02*
G01*
X140976995Y-62839820D01*
X141011554Y-62858292D01*
X141041847Y-62883153D01*
X141066708Y-62913446D01*
X141085180Y-62948005D01*
X141096555Y-62985501D01*
X141101000Y-63030638D01*
X141101000Y-63669362D01*
X141096555Y-63714499D01*
X141085180Y-63751995D01*
X141066708Y-63786554D01*
X141041847Y-63816847D01*
X141011554Y-63841708D01*
X140976995Y-63860180D01*
X140939499Y-63871555D01*
X140894362Y-63876000D01*
X140155638Y-63876000D01*
X140110501Y-63871555D01*
X140073005Y-63860180D01*
X140038446Y-63841708D01*
X140008153Y-63816847D01*
X139983292Y-63786554D01*
X139964820Y-63751995D01*
X139953445Y-63714499D01*
X139949000Y-63669362D01*
X139949000Y-63030638D01*
X139953445Y-62985501D01*
X139964820Y-62948005D01*
X139983292Y-62913446D01*
X140008153Y-62883153D01*
X140038446Y-62858292D01*
X140073005Y-62839820D01*
X140110501Y-62828445D01*
X140155638Y-62824000D01*
X140894362Y-62824000D01*
X140939499Y-62828445D01*
X140939499Y-62828445D01*
G37*
G36*
X116109928Y-62251764D02*
G01*
X116131009Y-62258160D01*
X116150445Y-62268548D01*
X116167476Y-62282524D01*
X116181452Y-62299555D01*
X116191840Y-62318991D01*
X116198236Y-62340072D01*
X116201000Y-62368140D01*
X116201000Y-62831860D01*
X116198236Y-62859928D01*
X116191840Y-62881009D01*
X116181452Y-62900445D01*
X116167476Y-62917476D01*
X116150445Y-62931452D01*
X116131009Y-62941840D01*
X116109928Y-62948236D01*
X116081860Y-62951000D01*
X114268140Y-62951000D01*
X114240072Y-62948236D01*
X114218991Y-62941840D01*
X114199555Y-62931452D01*
X114182524Y-62917476D01*
X114168548Y-62900445D01*
X114158160Y-62881009D01*
X114151764Y-62859928D01*
X114149000Y-62831860D01*
X114149000Y-62368140D01*
X114151764Y-62340072D01*
X114158160Y-62318991D01*
X114168548Y-62299555D01*
X114182524Y-62282524D01*
X114199555Y-62268548D01*
X114218991Y-62258160D01*
X114240072Y-62251764D01*
X114268140Y-62249000D01*
X116081860Y-62249000D01*
X116109928Y-62251764D01*
X116109928Y-62251764D01*
G37*
G36*
X111159928Y-62251764D02*
G01*
X111181009Y-62258160D01*
X111200445Y-62268548D01*
X111217476Y-62282524D01*
X111231452Y-62299555D01*
X111241840Y-62318991D01*
X111248236Y-62340072D01*
X111251000Y-62368140D01*
X111251000Y-62831860D01*
X111248236Y-62859928D01*
X111241840Y-62881009D01*
X111231452Y-62900445D01*
X111217476Y-62917476D01*
X111200445Y-62931452D01*
X111181009Y-62941840D01*
X111159928Y-62948236D01*
X111131860Y-62951000D01*
X109318140Y-62951000D01*
X109290072Y-62948236D01*
X109268991Y-62941840D01*
X109249555Y-62931452D01*
X109232524Y-62917476D01*
X109218548Y-62900445D01*
X109208160Y-62881009D01*
X109201764Y-62859928D01*
X109199000Y-62831860D01*
X109199000Y-62368140D01*
X109201764Y-62340072D01*
X109208160Y-62318991D01*
X109218548Y-62299555D01*
X109232524Y-62282524D01*
X109249555Y-62268548D01*
X109268991Y-62258160D01*
X109290072Y-62251764D01*
X109318140Y-62249000D01*
X111131860Y-62249000D01*
X111159928Y-62251764D01*
X111159928Y-62251764D01*
G37*
G36*
X130151000Y-62826000D02*
G01*
X126649000Y-62826000D01*
X126649000Y-61744000D01*
X130151000Y-61744000D01*
X130151000Y-62826000D01*
X130151000Y-62826000D01*
G37*
G36*
X121834468Y-61653565D02*
G01*
X121873138Y-61665296D01*
X121908777Y-61684346D01*
X121940017Y-61709983D01*
X121965654Y-61741223D01*
X121984704Y-61776862D01*
X121996435Y-61815532D01*
X122001000Y-61861888D01*
X122001000Y-62513112D01*
X121996435Y-62559468D01*
X121984704Y-62598138D01*
X121965654Y-62633777D01*
X121940017Y-62665017D01*
X121908777Y-62690654D01*
X121873138Y-62709704D01*
X121834468Y-62721435D01*
X121788112Y-62726000D01*
X120711888Y-62726000D01*
X120665532Y-62721435D01*
X120626862Y-62709704D01*
X120591223Y-62690654D01*
X120559983Y-62665017D01*
X120534346Y-62633777D01*
X120515296Y-62598138D01*
X120503565Y-62559468D01*
X120499000Y-62513112D01*
X120499000Y-61861888D01*
X120503565Y-61815532D01*
X120515296Y-61776862D01*
X120534346Y-61741223D01*
X120559983Y-61709983D01*
X120591223Y-61684346D01*
X120626862Y-61665296D01*
X120665532Y-61653565D01*
X120711888Y-61649000D01*
X121788112Y-61649000D01*
X121834468Y-61653565D01*
X121834468Y-61653565D01*
G37*
G36*
X119614499Y-61553445D02*
G01*
X119651995Y-61564820D01*
X119686554Y-61583292D01*
X119716847Y-61608153D01*
X119741708Y-61638446D01*
X119760180Y-61673005D01*
X119771555Y-61710501D01*
X119776000Y-61755638D01*
X119776000Y-62494362D01*
X119771555Y-62539499D01*
X119760180Y-62576995D01*
X119741708Y-62611554D01*
X119716847Y-62641847D01*
X119686554Y-62666708D01*
X119651995Y-62685180D01*
X119614499Y-62696555D01*
X119569362Y-62701000D01*
X118930638Y-62701000D01*
X118885501Y-62696555D01*
X118848005Y-62685180D01*
X118813446Y-62666708D01*
X118783153Y-62641847D01*
X118758292Y-62611554D01*
X118739820Y-62576995D01*
X118728445Y-62539499D01*
X118724000Y-62494362D01*
X118724000Y-61755638D01*
X118728445Y-61710501D01*
X118739820Y-61673005D01*
X118758292Y-61638446D01*
X118783153Y-61608153D01*
X118813446Y-61583292D01*
X118848005Y-61564820D01*
X118885501Y-61553445D01*
X118930638Y-61549000D01*
X119569362Y-61549000D01*
X119614499Y-61553445D01*
X119614499Y-61553445D01*
G37*
G36*
X138739499Y-61228445D02*
G01*
X138776995Y-61239820D01*
X138811554Y-61258292D01*
X138841847Y-61283153D01*
X138866708Y-61313446D01*
X138885180Y-61348005D01*
X138896555Y-61385501D01*
X138901000Y-61430638D01*
X138901000Y-62069362D01*
X138896555Y-62114499D01*
X138885180Y-62151995D01*
X138866708Y-62186554D01*
X138841847Y-62216847D01*
X138811554Y-62241708D01*
X138776995Y-62260180D01*
X138739499Y-62271555D01*
X138694362Y-62276000D01*
X137955638Y-62276000D01*
X137910501Y-62271555D01*
X137873005Y-62260180D01*
X137838446Y-62241708D01*
X137808153Y-62216847D01*
X137783292Y-62186554D01*
X137764820Y-62151995D01*
X137753445Y-62114499D01*
X137749000Y-62069362D01*
X137749000Y-61430638D01*
X137753445Y-61385501D01*
X137764820Y-61348005D01*
X137783292Y-61313446D01*
X137808153Y-61283153D01*
X137838446Y-61258292D01*
X137873005Y-61239820D01*
X137910501Y-61228445D01*
X137955638Y-61224000D01*
X138694362Y-61224000D01*
X138739499Y-61228445D01*
X138739499Y-61228445D01*
G37*
G36*
X136989499Y-61228445D02*
G01*
X137026995Y-61239820D01*
X137061554Y-61258292D01*
X137091847Y-61283153D01*
X137116708Y-61313446D01*
X137135180Y-61348005D01*
X137146555Y-61385501D01*
X137151000Y-61430638D01*
X137151000Y-62069362D01*
X137146555Y-62114499D01*
X137135180Y-62151995D01*
X137116708Y-62186554D01*
X137091847Y-62216847D01*
X137061554Y-62241708D01*
X137026995Y-62260180D01*
X136989499Y-62271555D01*
X136944362Y-62276000D01*
X136205638Y-62276000D01*
X136160501Y-62271555D01*
X136123005Y-62260180D01*
X136088446Y-62241708D01*
X136058153Y-62216847D01*
X136033292Y-62186554D01*
X136014820Y-62151995D01*
X136003445Y-62114499D01*
X135999000Y-62069362D01*
X135999000Y-61430638D01*
X136003445Y-61385501D01*
X136014820Y-61348005D01*
X136033292Y-61313446D01*
X136058153Y-61283153D01*
X136088446Y-61258292D01*
X136123005Y-61239820D01*
X136160501Y-61228445D01*
X136205638Y-61224000D01*
X136944362Y-61224000D01*
X136989499Y-61228445D01*
X136989499Y-61228445D01*
G37*
G36*
X135114499Y-61053445D02*
G01*
X135151995Y-61064820D01*
X135186554Y-61083292D01*
X135216847Y-61108153D01*
X135241708Y-61138446D01*
X135260180Y-61173005D01*
X135271555Y-61210501D01*
X135276000Y-61255638D01*
X135276000Y-61994362D01*
X135271555Y-62039499D01*
X135260180Y-62076995D01*
X135241708Y-62111554D01*
X135216847Y-62141847D01*
X135186554Y-62166708D01*
X135151995Y-62185180D01*
X135114499Y-62196555D01*
X135069362Y-62201000D01*
X134430638Y-62201000D01*
X134385501Y-62196555D01*
X134348005Y-62185180D01*
X134313446Y-62166708D01*
X134283153Y-62141847D01*
X134258292Y-62111554D01*
X134239820Y-62076995D01*
X134228445Y-62039499D01*
X134224000Y-61994362D01*
X134224000Y-61255638D01*
X134228445Y-61210501D01*
X134239820Y-61173005D01*
X134258292Y-61138446D01*
X134283153Y-61108153D01*
X134313446Y-61083292D01*
X134348005Y-61064820D01*
X134385501Y-61053445D01*
X134430638Y-61049000D01*
X135069362Y-61049000D01*
X135114499Y-61053445D01*
X135114499Y-61053445D01*
G37*
G36*
X124851000Y-61826000D02*
G01*
X123049000Y-61826000D01*
X123049000Y-61074000D01*
X124851000Y-61074000D01*
X124851000Y-61826000D01*
X124851000Y-61826000D01*
G37*
G36*
X116109928Y-60981764D02*
G01*
X116131009Y-60988160D01*
X116150445Y-60998548D01*
X116167476Y-61012524D01*
X116181452Y-61029555D01*
X116191840Y-61048991D01*
X116198236Y-61070072D01*
X116201000Y-61098140D01*
X116201000Y-61561860D01*
X116198236Y-61589928D01*
X116191840Y-61611009D01*
X116181452Y-61630445D01*
X116167476Y-61647476D01*
X116150445Y-61661452D01*
X116131009Y-61671840D01*
X116109928Y-61678236D01*
X116081860Y-61681000D01*
X114268140Y-61681000D01*
X114240072Y-61678236D01*
X114218991Y-61671840D01*
X114199555Y-61661452D01*
X114182524Y-61647476D01*
X114168548Y-61630445D01*
X114158160Y-61611009D01*
X114151764Y-61589928D01*
X114149000Y-61561860D01*
X114149000Y-61098140D01*
X114151764Y-61070072D01*
X114158160Y-61048991D01*
X114168548Y-61029555D01*
X114182524Y-61012524D01*
X114199555Y-60998548D01*
X114218991Y-60988160D01*
X114240072Y-60981764D01*
X114268140Y-60979000D01*
X116081860Y-60979000D01*
X116109928Y-60981764D01*
X116109928Y-60981764D01*
G37*
G36*
X111159928Y-60981764D02*
G01*
X111181009Y-60988160D01*
X111200445Y-60998548D01*
X111217476Y-61012524D01*
X111231452Y-61029555D01*
X111241840Y-61048991D01*
X111248236Y-61070072D01*
X111251000Y-61098140D01*
X111251000Y-61561860D01*
X111248236Y-61589928D01*
X111241840Y-61611009D01*
X111231452Y-61630445D01*
X111217476Y-61647476D01*
X111200445Y-61661452D01*
X111181009Y-61671840D01*
X111159928Y-61678236D01*
X111131860Y-61681000D01*
X109318140Y-61681000D01*
X109290072Y-61678236D01*
X109268991Y-61671840D01*
X109249555Y-61661452D01*
X109232524Y-61647476D01*
X109218548Y-61630445D01*
X109208160Y-61611009D01*
X109201764Y-61589928D01*
X109199000Y-61561860D01*
X109199000Y-61098140D01*
X109201764Y-61070072D01*
X109208160Y-61048991D01*
X109218548Y-61029555D01*
X109232524Y-61012524D01*
X109249555Y-60998548D01*
X109268991Y-60988160D01*
X109290072Y-60981764D01*
X109318140Y-60979000D01*
X111131860Y-60979000D01*
X111159928Y-60981764D01*
X111159928Y-60981764D01*
G37*
G36*
X117864499Y-59928445D02*
G01*
X117901995Y-59939820D01*
X117936554Y-59958292D01*
X117966847Y-59983153D01*
X117991708Y-60013446D01*
X118010180Y-60048005D01*
X118021555Y-60085501D01*
X118026000Y-60130638D01*
X118026000Y-60869362D01*
X118021555Y-60914499D01*
X118010180Y-60951995D01*
X117991708Y-60986554D01*
X117966847Y-61016847D01*
X117936554Y-61041708D01*
X117901995Y-61060180D01*
X117864499Y-61071555D01*
X117819362Y-61076000D01*
X117180638Y-61076000D01*
X117135501Y-61071555D01*
X117098005Y-61060180D01*
X117063446Y-61041708D01*
X117033153Y-61016847D01*
X117008292Y-60986554D01*
X116989820Y-60951995D01*
X116978445Y-60914499D01*
X116974000Y-60869362D01*
X116974000Y-60130638D01*
X116978445Y-60085501D01*
X116989820Y-60048005D01*
X117008292Y-60013446D01*
X117033153Y-59983153D01*
X117063446Y-59958292D01*
X117098005Y-59939820D01*
X117135501Y-59928445D01*
X117180638Y-59924000D01*
X117819362Y-59924000D01*
X117864499Y-59928445D01*
X117864499Y-59928445D01*
G37*
G36*
X119614499Y-59803445D02*
G01*
X119651995Y-59814820D01*
X119686554Y-59833292D01*
X119716847Y-59858153D01*
X119741708Y-59888446D01*
X119760180Y-59923005D01*
X119771555Y-59960501D01*
X119776000Y-60005638D01*
X119776000Y-60744362D01*
X119771555Y-60789499D01*
X119760180Y-60826995D01*
X119741708Y-60861554D01*
X119716847Y-60891847D01*
X119686554Y-60916708D01*
X119651995Y-60935180D01*
X119614499Y-60946555D01*
X119569362Y-60951000D01*
X118930638Y-60951000D01*
X118885501Y-60946555D01*
X118848005Y-60935180D01*
X118813446Y-60916708D01*
X118783153Y-60891847D01*
X118758292Y-60861554D01*
X118739820Y-60826995D01*
X118728445Y-60789499D01*
X118724000Y-60744362D01*
X118724000Y-60005638D01*
X118728445Y-59960501D01*
X118739820Y-59923005D01*
X118758292Y-59888446D01*
X118783153Y-59858153D01*
X118813446Y-59833292D01*
X118848005Y-59814820D01*
X118885501Y-59803445D01*
X118930638Y-59799000D01*
X119569362Y-59799000D01*
X119614499Y-59803445D01*
X119614499Y-59803445D01*
G37*
G36*
X121834468Y-59778565D02*
G01*
X121873138Y-59790296D01*
X121908777Y-59809346D01*
X121940017Y-59834983D01*
X121965654Y-59866223D01*
X121984704Y-59901862D01*
X121996435Y-59940532D01*
X122001000Y-59986888D01*
X122001000Y-60638112D01*
X121996435Y-60684468D01*
X121984704Y-60723138D01*
X121965654Y-60758777D01*
X121940017Y-60790017D01*
X121908777Y-60815654D01*
X121873138Y-60834704D01*
X121834468Y-60846435D01*
X121788112Y-60851000D01*
X120711888Y-60851000D01*
X120665532Y-60846435D01*
X120626862Y-60834704D01*
X120591223Y-60815654D01*
X120559983Y-60790017D01*
X120534346Y-60758777D01*
X120515296Y-60723138D01*
X120503565Y-60684468D01*
X120499000Y-60638112D01*
X120499000Y-59986888D01*
X120503565Y-59940532D01*
X120515296Y-59901862D01*
X120534346Y-59866223D01*
X120559983Y-59834983D01*
X120591223Y-59809346D01*
X120626862Y-59790296D01*
X120665532Y-59778565D01*
X120711888Y-59774000D01*
X121788112Y-59774000D01*
X121834468Y-59778565D01*
X121834468Y-59778565D01*
G37*
G36*
X130151000Y-60456000D02*
G01*
X126649000Y-60456000D01*
X126649000Y-59374000D01*
X130151000Y-59374000D01*
X130151000Y-60456000D01*
X130151000Y-60456000D01*
G37*
G36*
X136054591Y-59378085D02*
G01*
X136088569Y-59388393D01*
X136119890Y-59405134D01*
X136147339Y-59427661D01*
X136169866Y-59455110D01*
X136186607Y-59486431D01*
X136196915Y-59520409D01*
X136201000Y-59561890D01*
X136201000Y-60238110D01*
X136196915Y-60279591D01*
X136186607Y-60313569D01*
X136169866Y-60344890D01*
X136147339Y-60372339D01*
X136119890Y-60394866D01*
X136088569Y-60411607D01*
X136054591Y-60421915D01*
X136013110Y-60426000D01*
X135411890Y-60426000D01*
X135370409Y-60421915D01*
X135336431Y-60411607D01*
X135305110Y-60394866D01*
X135277661Y-60372339D01*
X135255134Y-60344890D01*
X135238393Y-60313569D01*
X135228085Y-60279591D01*
X135224000Y-60238110D01*
X135224000Y-59561890D01*
X135228085Y-59520409D01*
X135238393Y-59486431D01*
X135255134Y-59455110D01*
X135277661Y-59427661D01*
X135305110Y-59405134D01*
X135336431Y-59388393D01*
X135370409Y-59378085D01*
X135411890Y-59374000D01*
X136013110Y-59374000D01*
X136054591Y-59378085D01*
X136054591Y-59378085D01*
G37*
G36*
X137629591Y-59378085D02*
G01*
X137663569Y-59388393D01*
X137694890Y-59405134D01*
X137722339Y-59427661D01*
X137744866Y-59455110D01*
X137761607Y-59486431D01*
X137771915Y-59520409D01*
X137776000Y-59561890D01*
X137776000Y-60238110D01*
X137771915Y-60279591D01*
X137761607Y-60313569D01*
X137744866Y-60344890D01*
X137722339Y-60372339D01*
X137694890Y-60394866D01*
X137663569Y-60411607D01*
X137629591Y-60421915D01*
X137588110Y-60426000D01*
X136986890Y-60426000D01*
X136945409Y-60421915D01*
X136911431Y-60411607D01*
X136880110Y-60394866D01*
X136852661Y-60372339D01*
X136830134Y-60344890D01*
X136813393Y-60313569D01*
X136803085Y-60279591D01*
X136799000Y-60238110D01*
X136799000Y-59561890D01*
X136803085Y-59520409D01*
X136813393Y-59486431D01*
X136830134Y-59455110D01*
X136852661Y-59427661D01*
X136880110Y-59405134D01*
X136911431Y-59388393D01*
X136945409Y-59378085D01*
X136986890Y-59374000D01*
X137588110Y-59374000D01*
X137629591Y-59378085D01*
X137629591Y-59378085D01*
G37*
G36*
X116109928Y-59711764D02*
G01*
X116131009Y-59718160D01*
X116150445Y-59728548D01*
X116167476Y-59742524D01*
X116181452Y-59759555D01*
X116191840Y-59778991D01*
X116198236Y-59800072D01*
X116201000Y-59828140D01*
X116201000Y-60291860D01*
X116198236Y-60319928D01*
X116191840Y-60341009D01*
X116181452Y-60360445D01*
X116167476Y-60377476D01*
X116150445Y-60391452D01*
X116131009Y-60401840D01*
X116109928Y-60408236D01*
X116081860Y-60411000D01*
X114268140Y-60411000D01*
X114240072Y-60408236D01*
X114218991Y-60401840D01*
X114199555Y-60391452D01*
X114182524Y-60377476D01*
X114168548Y-60360445D01*
X114158160Y-60341009D01*
X114151764Y-60319928D01*
X114149000Y-60291860D01*
X114149000Y-59828140D01*
X114151764Y-59800072D01*
X114158160Y-59778991D01*
X114168548Y-59759555D01*
X114182524Y-59742524D01*
X114199555Y-59728548D01*
X114218991Y-59718160D01*
X114240072Y-59711764D01*
X114268140Y-59709000D01*
X116081860Y-59709000D01*
X116109928Y-59711764D01*
X116109928Y-59711764D01*
G37*
G36*
X111159928Y-59711764D02*
G01*
X111181009Y-59718160D01*
X111200445Y-59728548D01*
X111217476Y-59742524D01*
X111231452Y-59759555D01*
X111241840Y-59778991D01*
X111248236Y-59800072D01*
X111251000Y-59828140D01*
X111251000Y-60291860D01*
X111248236Y-60319928D01*
X111241840Y-60341009D01*
X111231452Y-60360445D01*
X111217476Y-60377476D01*
X111200445Y-60391452D01*
X111181009Y-60401840D01*
X111159928Y-60408236D01*
X111131860Y-60411000D01*
X109318140Y-60411000D01*
X109290072Y-60408236D01*
X109268991Y-60401840D01*
X109249555Y-60391452D01*
X109232524Y-60377476D01*
X109218548Y-60360445D01*
X109208160Y-60341009D01*
X109201764Y-60319928D01*
X109199000Y-60291860D01*
X109199000Y-59828140D01*
X109201764Y-59800072D01*
X109208160Y-59778991D01*
X109218548Y-59759555D01*
X109232524Y-59742524D01*
X109249555Y-59728548D01*
X109268991Y-59718160D01*
X109290072Y-59711764D01*
X109318140Y-59709000D01*
X111131860Y-59709000D01*
X111159928Y-59711764D01*
X111159928Y-59711764D01*
G37*
G36*
X106664499Y-59203445D02*
G01*
X106701995Y-59214820D01*
X106736554Y-59233292D01*
X106766847Y-59258153D01*
X106791708Y-59288446D01*
X106810180Y-59323005D01*
X106821555Y-59360501D01*
X106826000Y-59405638D01*
X106826000Y-60144362D01*
X106821555Y-60189499D01*
X106810180Y-60226995D01*
X106791708Y-60261554D01*
X106766847Y-60291847D01*
X106736554Y-60316708D01*
X106701995Y-60335180D01*
X106664499Y-60346555D01*
X106619362Y-60351000D01*
X105980638Y-60351000D01*
X105935501Y-60346555D01*
X105898005Y-60335180D01*
X105863446Y-60316708D01*
X105833153Y-60291847D01*
X105808292Y-60261554D01*
X105789820Y-60226995D01*
X105778445Y-60189499D01*
X105774000Y-60144362D01*
X105774000Y-59405638D01*
X105778445Y-59360501D01*
X105789820Y-59323005D01*
X105808292Y-59288446D01*
X105833153Y-59258153D01*
X105863446Y-59233292D01*
X105898005Y-59214820D01*
X105935501Y-59203445D01*
X105980638Y-59199000D01*
X106619362Y-59199000D01*
X106664499Y-59203445D01*
X106664499Y-59203445D01*
G37*
G36*
X108464499Y-59203445D02*
G01*
X108501995Y-59214820D01*
X108536554Y-59233292D01*
X108566847Y-59258153D01*
X108591708Y-59288446D01*
X108610180Y-59323005D01*
X108621555Y-59360501D01*
X108626000Y-59405638D01*
X108626000Y-60144362D01*
X108621555Y-60189499D01*
X108610180Y-60226995D01*
X108591708Y-60261554D01*
X108566847Y-60291847D01*
X108536554Y-60316708D01*
X108501995Y-60335180D01*
X108464499Y-60346555D01*
X108419362Y-60351000D01*
X107780638Y-60351000D01*
X107735501Y-60346555D01*
X107698005Y-60335180D01*
X107663446Y-60316708D01*
X107633153Y-60291847D01*
X107608292Y-60261554D01*
X107589820Y-60226995D01*
X107578445Y-60189499D01*
X107574000Y-60144362D01*
X107574000Y-59405638D01*
X107578445Y-59360501D01*
X107589820Y-59323005D01*
X107608292Y-59288446D01*
X107633153Y-59258153D01*
X107663446Y-59233292D01*
X107698005Y-59214820D01*
X107735501Y-59203445D01*
X107780638Y-59199000D01*
X108419362Y-59199000D01*
X108464499Y-59203445D01*
X108464499Y-59203445D01*
G37*
G36*
X104864499Y-59203445D02*
G01*
X104901995Y-59214820D01*
X104936554Y-59233292D01*
X104966847Y-59258153D01*
X104991708Y-59288446D01*
X105010180Y-59323005D01*
X105021555Y-59360501D01*
X105026000Y-59405638D01*
X105026000Y-60144362D01*
X105021555Y-60189499D01*
X105010180Y-60226995D01*
X104991708Y-60261554D01*
X104966847Y-60291847D01*
X104936554Y-60316708D01*
X104901995Y-60335180D01*
X104864499Y-60346555D01*
X104819362Y-60351000D01*
X104180638Y-60351000D01*
X104135501Y-60346555D01*
X104098005Y-60335180D01*
X104063446Y-60316708D01*
X104033153Y-60291847D01*
X104008292Y-60261554D01*
X103989820Y-60226995D01*
X103978445Y-60189499D01*
X103974000Y-60144362D01*
X103974000Y-59405638D01*
X103978445Y-59360501D01*
X103989820Y-59323005D01*
X104008292Y-59288446D01*
X104033153Y-59258153D01*
X104063446Y-59233292D01*
X104098005Y-59214820D01*
X104135501Y-59203445D01*
X104180638Y-59199000D01*
X104819362Y-59199000D01*
X104864499Y-59203445D01*
X104864499Y-59203445D01*
G37*
G36*
X124851000Y-59926000D02*
G01*
X123049000Y-59926000D01*
X123049000Y-59174000D01*
X124851000Y-59174000D01*
X124851000Y-59926000D01*
X124851000Y-59926000D01*
G37*
G36*
X117864499Y-58178445D02*
G01*
X117901995Y-58189820D01*
X117936554Y-58208292D01*
X117966847Y-58233153D01*
X117991708Y-58263446D01*
X118010180Y-58298005D01*
X118021555Y-58335501D01*
X118026000Y-58380638D01*
X118026000Y-59119362D01*
X118021555Y-59164499D01*
X118010180Y-59201995D01*
X117991708Y-59236554D01*
X117966847Y-59266847D01*
X117936554Y-59291708D01*
X117901995Y-59310180D01*
X117864499Y-59321555D01*
X117819362Y-59326000D01*
X117180638Y-59326000D01*
X117135501Y-59321555D01*
X117098005Y-59310180D01*
X117063446Y-59291708D01*
X117033153Y-59266847D01*
X117008292Y-59236554D01*
X116989820Y-59201995D01*
X116978445Y-59164499D01*
X116974000Y-59119362D01*
X116974000Y-58380638D01*
X116978445Y-58335501D01*
X116989820Y-58298005D01*
X117008292Y-58263446D01*
X117033153Y-58233153D01*
X117063446Y-58208292D01*
X117098005Y-58189820D01*
X117135501Y-58178445D01*
X117180638Y-58174000D01*
X117819362Y-58174000D01*
X117864499Y-58178445D01*
X117864499Y-58178445D01*
G37*
G36*
X121289499Y-58228445D02*
G01*
X121326995Y-58239820D01*
X121361554Y-58258292D01*
X121391847Y-58283153D01*
X121416708Y-58313446D01*
X121435180Y-58348005D01*
X121446555Y-58385501D01*
X121451000Y-58430638D01*
X121451000Y-59069362D01*
X121446555Y-59114499D01*
X121435180Y-59151995D01*
X121416708Y-59186554D01*
X121391847Y-59216847D01*
X121361554Y-59241708D01*
X121326995Y-59260180D01*
X121289499Y-59271555D01*
X121244362Y-59276000D01*
X120505638Y-59276000D01*
X120460501Y-59271555D01*
X120423005Y-59260180D01*
X120388446Y-59241708D01*
X120358153Y-59216847D01*
X120333292Y-59186554D01*
X120314820Y-59151995D01*
X120303445Y-59114499D01*
X120299000Y-59069362D01*
X120299000Y-58430638D01*
X120303445Y-58385501D01*
X120314820Y-58348005D01*
X120333292Y-58313446D01*
X120358153Y-58283153D01*
X120388446Y-58258292D01*
X120423005Y-58239820D01*
X120460501Y-58228445D01*
X120505638Y-58224000D01*
X121244362Y-58224000D01*
X121289499Y-58228445D01*
X121289499Y-58228445D01*
G37*
G36*
X119539499Y-58228445D02*
G01*
X119576995Y-58239820D01*
X119611554Y-58258292D01*
X119641847Y-58283153D01*
X119666708Y-58313446D01*
X119685180Y-58348005D01*
X119696555Y-58385501D01*
X119701000Y-58430638D01*
X119701000Y-59069362D01*
X119696555Y-59114499D01*
X119685180Y-59151995D01*
X119666708Y-59186554D01*
X119641847Y-59216847D01*
X119611554Y-59241708D01*
X119576995Y-59260180D01*
X119539499Y-59271555D01*
X119494362Y-59276000D01*
X118755638Y-59276000D01*
X118710501Y-59271555D01*
X118673005Y-59260180D01*
X118638446Y-59241708D01*
X118608153Y-59216847D01*
X118583292Y-59186554D01*
X118564820Y-59151995D01*
X118553445Y-59114499D01*
X118549000Y-59069362D01*
X118549000Y-58430638D01*
X118553445Y-58385501D01*
X118564820Y-58348005D01*
X118583292Y-58313446D01*
X118608153Y-58283153D01*
X118638446Y-58258292D01*
X118673005Y-58239820D01*
X118710501Y-58228445D01*
X118755638Y-58224000D01*
X119494362Y-58224000D01*
X119539499Y-58228445D01*
X119539499Y-58228445D01*
G37*
G36*
X116109928Y-58441764D02*
G01*
X116131009Y-58448160D01*
X116150445Y-58458548D01*
X116167476Y-58472524D01*
X116181452Y-58489555D01*
X116191840Y-58508991D01*
X116198236Y-58530072D01*
X116201000Y-58558140D01*
X116201000Y-59021860D01*
X116198236Y-59049928D01*
X116191840Y-59071009D01*
X116181452Y-59090445D01*
X116167476Y-59107476D01*
X116150445Y-59121452D01*
X116131009Y-59131840D01*
X116109928Y-59138236D01*
X116081860Y-59141000D01*
X114268140Y-59141000D01*
X114240072Y-59138236D01*
X114218991Y-59131840D01*
X114199555Y-59121452D01*
X114182524Y-59107476D01*
X114168548Y-59090445D01*
X114158160Y-59071009D01*
X114151764Y-59049928D01*
X114149000Y-59021860D01*
X114149000Y-58558140D01*
X114151764Y-58530072D01*
X114158160Y-58508991D01*
X114168548Y-58489555D01*
X114182524Y-58472524D01*
X114199555Y-58458548D01*
X114218991Y-58448160D01*
X114240072Y-58441764D01*
X114268140Y-58439000D01*
X116081860Y-58439000D01*
X116109928Y-58441764D01*
X116109928Y-58441764D01*
G37*
G36*
X111159928Y-58441764D02*
G01*
X111181009Y-58448160D01*
X111200445Y-58458548D01*
X111217476Y-58472524D01*
X111231452Y-58489555D01*
X111241840Y-58508991D01*
X111248236Y-58530072D01*
X111251000Y-58558140D01*
X111251000Y-59021860D01*
X111248236Y-59049928D01*
X111241840Y-59071009D01*
X111231452Y-59090445D01*
X111217476Y-59107476D01*
X111200445Y-59121452D01*
X111181009Y-59131840D01*
X111159928Y-59138236D01*
X111131860Y-59141000D01*
X109318140Y-59141000D01*
X109290072Y-59138236D01*
X109268991Y-59131840D01*
X109249555Y-59121452D01*
X109232524Y-59107476D01*
X109218548Y-59090445D01*
X109208160Y-59071009D01*
X109201764Y-59049928D01*
X109199000Y-59021860D01*
X109199000Y-58558140D01*
X109201764Y-58530072D01*
X109208160Y-58508991D01*
X109218548Y-58489555D01*
X109232524Y-58472524D01*
X109249555Y-58458548D01*
X109268991Y-58448160D01*
X109290072Y-58441764D01*
X109318140Y-58439000D01*
X111131860Y-58439000D01*
X111159928Y-58441764D01*
X111159928Y-58441764D01*
G37*
G36*
X108464499Y-57453445D02*
G01*
X108501995Y-57464820D01*
X108536554Y-57483292D01*
X108566847Y-57508153D01*
X108591708Y-57538446D01*
X108610180Y-57573005D01*
X108621555Y-57610501D01*
X108626000Y-57655638D01*
X108626000Y-58394362D01*
X108621555Y-58439499D01*
X108610180Y-58476995D01*
X108591708Y-58511554D01*
X108566847Y-58541847D01*
X108536554Y-58566708D01*
X108501995Y-58585180D01*
X108464499Y-58596555D01*
X108419362Y-58601000D01*
X107780638Y-58601000D01*
X107735501Y-58596555D01*
X107698005Y-58585180D01*
X107663446Y-58566708D01*
X107633153Y-58541847D01*
X107608292Y-58511554D01*
X107589820Y-58476995D01*
X107578445Y-58439499D01*
X107574000Y-58394362D01*
X107574000Y-57655638D01*
X107578445Y-57610501D01*
X107589820Y-57573005D01*
X107608292Y-57538446D01*
X107633153Y-57508153D01*
X107663446Y-57483292D01*
X107698005Y-57464820D01*
X107735501Y-57453445D01*
X107780638Y-57449000D01*
X108419362Y-57449000D01*
X108464499Y-57453445D01*
X108464499Y-57453445D01*
G37*
G36*
X106664499Y-57453445D02*
G01*
X106701995Y-57464820D01*
X106736554Y-57483292D01*
X106766847Y-57508153D01*
X106791708Y-57538446D01*
X106810180Y-57573005D01*
X106821555Y-57610501D01*
X106826000Y-57655638D01*
X106826000Y-58394362D01*
X106821555Y-58439499D01*
X106810180Y-58476995D01*
X106791708Y-58511554D01*
X106766847Y-58541847D01*
X106736554Y-58566708D01*
X106701995Y-58585180D01*
X106664499Y-58596555D01*
X106619362Y-58601000D01*
X105980638Y-58601000D01*
X105935501Y-58596555D01*
X105898005Y-58585180D01*
X105863446Y-58566708D01*
X105833153Y-58541847D01*
X105808292Y-58511554D01*
X105789820Y-58476995D01*
X105778445Y-58439499D01*
X105774000Y-58394362D01*
X105774000Y-57655638D01*
X105778445Y-57610501D01*
X105789820Y-57573005D01*
X105808292Y-57538446D01*
X105833153Y-57508153D01*
X105863446Y-57483292D01*
X105898005Y-57464820D01*
X105935501Y-57453445D01*
X105980638Y-57449000D01*
X106619362Y-57449000D01*
X106664499Y-57453445D01*
X106664499Y-57453445D01*
G37*
G36*
X104864499Y-57453445D02*
G01*
X104901995Y-57464820D01*
X104936554Y-57483292D01*
X104966847Y-57508153D01*
X104991708Y-57538446D01*
X105010180Y-57573005D01*
X105021555Y-57610501D01*
X105026000Y-57655638D01*
X105026000Y-58394362D01*
X105021555Y-58439499D01*
X105010180Y-58476995D01*
X104991708Y-58511554D01*
X104966847Y-58541847D01*
X104936554Y-58566708D01*
X104901995Y-58585180D01*
X104864499Y-58596555D01*
X104819362Y-58601000D01*
X104180638Y-58601000D01*
X104135501Y-58596555D01*
X104098005Y-58585180D01*
X104063446Y-58566708D01*
X104033153Y-58541847D01*
X104008292Y-58511554D01*
X103989820Y-58476995D01*
X103978445Y-58439499D01*
X103974000Y-58394362D01*
X103974000Y-57655638D01*
X103978445Y-57610501D01*
X103989820Y-57573005D01*
X104008292Y-57538446D01*
X104033153Y-57508153D01*
X104063446Y-57483292D01*
X104098005Y-57464820D01*
X104135501Y-57453445D01*
X104180638Y-57449000D01*
X104819362Y-57449000D01*
X104864499Y-57453445D01*
X104864499Y-57453445D01*
G37*
G36*
X129189499Y-56678445D02*
G01*
X129226995Y-56689820D01*
X129261554Y-56708292D01*
X129291847Y-56733153D01*
X129316708Y-56763446D01*
X129335180Y-56798005D01*
X129346555Y-56835501D01*
X129351000Y-56880638D01*
X129351000Y-57519362D01*
X129346555Y-57564499D01*
X129335180Y-57601995D01*
X129316708Y-57636554D01*
X129291847Y-57666847D01*
X129261554Y-57691708D01*
X129226995Y-57710180D01*
X129189499Y-57721555D01*
X129144362Y-57726000D01*
X128405638Y-57726000D01*
X128360501Y-57721555D01*
X128323005Y-57710180D01*
X128288446Y-57691708D01*
X128258153Y-57666847D01*
X128233292Y-57636554D01*
X128214820Y-57601995D01*
X128203445Y-57564499D01*
X128199000Y-57519362D01*
X128199000Y-56880638D01*
X128203445Y-56835501D01*
X128214820Y-56798005D01*
X128233292Y-56763446D01*
X128258153Y-56733153D01*
X128288446Y-56708292D01*
X128323005Y-56689820D01*
X128360501Y-56678445D01*
X128405638Y-56674000D01*
X129144362Y-56674000D01*
X129189499Y-56678445D01*
X129189499Y-56678445D01*
G37*
G36*
X127439499Y-56678445D02*
G01*
X127476995Y-56689820D01*
X127511554Y-56708292D01*
X127541847Y-56733153D01*
X127566708Y-56763446D01*
X127585180Y-56798005D01*
X127596555Y-56835501D01*
X127601000Y-56880638D01*
X127601000Y-57519362D01*
X127596555Y-57564499D01*
X127585180Y-57601995D01*
X127566708Y-57636554D01*
X127541847Y-57666847D01*
X127511554Y-57691708D01*
X127476995Y-57710180D01*
X127439499Y-57721555D01*
X127394362Y-57726000D01*
X126655638Y-57726000D01*
X126610501Y-57721555D01*
X126573005Y-57710180D01*
X126538446Y-57691708D01*
X126508153Y-57666847D01*
X126483292Y-57636554D01*
X126464820Y-57601995D01*
X126453445Y-57564499D01*
X126449000Y-57519362D01*
X126449000Y-56880638D01*
X126453445Y-56835501D01*
X126464820Y-56798005D01*
X126483292Y-56763446D01*
X126508153Y-56733153D01*
X126538446Y-56708292D01*
X126573005Y-56689820D01*
X126610501Y-56678445D01*
X126655638Y-56674000D01*
X127394362Y-56674000D01*
X127439499Y-56678445D01*
X127439499Y-56678445D01*
G37*
G36*
X117509468Y-56153565D02*
G01*
X117548138Y-56165296D01*
X117583777Y-56184346D01*
X117615017Y-56209983D01*
X117640654Y-56241223D01*
X117659704Y-56276862D01*
X117671435Y-56315532D01*
X117676000Y-56361888D01*
X117676000Y-57438112D01*
X117671435Y-57484468D01*
X117659704Y-57523138D01*
X117640654Y-57558777D01*
X117615017Y-57590017D01*
X117583777Y-57615654D01*
X117548138Y-57634704D01*
X117509468Y-57646435D01*
X117463112Y-57651000D01*
X116811888Y-57651000D01*
X116765532Y-57646435D01*
X116726862Y-57634704D01*
X116691223Y-57615654D01*
X116659983Y-57590017D01*
X116634346Y-57558777D01*
X116615296Y-57523138D01*
X116603565Y-57484468D01*
X116599000Y-57438112D01*
X116599000Y-56361888D01*
X116603565Y-56315532D01*
X116615296Y-56276862D01*
X116634346Y-56241223D01*
X116659983Y-56209983D01*
X116691223Y-56184346D01*
X116726862Y-56165296D01*
X116765532Y-56153565D01*
X116811888Y-56149000D01*
X117463112Y-56149000D01*
X117509468Y-56153565D01*
X117509468Y-56153565D01*
G37*
G36*
X115634468Y-56153565D02*
G01*
X115673138Y-56165296D01*
X115708777Y-56184346D01*
X115740017Y-56209983D01*
X115765654Y-56241223D01*
X115784704Y-56276862D01*
X115796435Y-56315532D01*
X115801000Y-56361888D01*
X115801000Y-57438112D01*
X115796435Y-57484468D01*
X115784704Y-57523138D01*
X115765654Y-57558777D01*
X115740017Y-57590017D01*
X115708777Y-57615654D01*
X115673138Y-57634704D01*
X115634468Y-57646435D01*
X115588112Y-57651000D01*
X114936888Y-57651000D01*
X114890532Y-57646435D01*
X114851862Y-57634704D01*
X114816223Y-57615654D01*
X114784983Y-57590017D01*
X114759346Y-57558777D01*
X114740296Y-57523138D01*
X114728565Y-57484468D01*
X114724000Y-57438112D01*
X114724000Y-56361888D01*
X114728565Y-56315532D01*
X114740296Y-56276862D01*
X114759346Y-56241223D01*
X114784983Y-56209983D01*
X114816223Y-56184346D01*
X114851862Y-56165296D01*
X114890532Y-56153565D01*
X114936888Y-56149000D01*
X115588112Y-56149000D01*
X115634468Y-56153565D01*
X115634468Y-56153565D01*
G37*
G36*
X123314499Y-56053445D02*
G01*
X123351995Y-56064820D01*
X123386554Y-56083292D01*
X123416847Y-56108153D01*
X123441708Y-56138446D01*
X123460180Y-56173005D01*
X123471555Y-56210501D01*
X123476000Y-56255638D01*
X123476000Y-56994362D01*
X123471555Y-57039499D01*
X123460180Y-57076995D01*
X123441708Y-57111554D01*
X123416847Y-57141847D01*
X123386554Y-57166708D01*
X123351995Y-57185180D01*
X123314499Y-57196555D01*
X123269362Y-57201000D01*
X122630638Y-57201000D01*
X122585501Y-57196555D01*
X122548005Y-57185180D01*
X122513446Y-57166708D01*
X122483153Y-57141847D01*
X122458292Y-57111554D01*
X122439820Y-57076995D01*
X122428445Y-57039499D01*
X122424000Y-56994362D01*
X122424000Y-56255638D01*
X122428445Y-56210501D01*
X122439820Y-56173005D01*
X122458292Y-56138446D01*
X122483153Y-56108153D01*
X122513446Y-56083292D01*
X122548005Y-56064820D01*
X122585501Y-56053445D01*
X122630638Y-56049000D01*
X123269362Y-56049000D01*
X123314499Y-56053445D01*
X123314499Y-56053445D01*
G37*
G36*
X121514499Y-56053445D02*
G01*
X121551995Y-56064820D01*
X121586554Y-56083292D01*
X121616847Y-56108153D01*
X121641708Y-56138446D01*
X121660180Y-56173005D01*
X121671555Y-56210501D01*
X121676000Y-56255638D01*
X121676000Y-56994362D01*
X121671555Y-57039499D01*
X121660180Y-57076995D01*
X121641708Y-57111554D01*
X121616847Y-57141847D01*
X121586554Y-57166708D01*
X121551995Y-57185180D01*
X121514499Y-57196555D01*
X121469362Y-57201000D01*
X120830638Y-57201000D01*
X120785501Y-57196555D01*
X120748005Y-57185180D01*
X120713446Y-57166708D01*
X120683153Y-57141847D01*
X120658292Y-57111554D01*
X120639820Y-57076995D01*
X120628445Y-57039499D01*
X120624000Y-56994362D01*
X120624000Y-56255638D01*
X120628445Y-56210501D01*
X120639820Y-56173005D01*
X120658292Y-56138446D01*
X120683153Y-56108153D01*
X120713446Y-56083292D01*
X120748005Y-56064820D01*
X120785501Y-56053445D01*
X120830638Y-56049000D01*
X121469362Y-56049000D01*
X121514499Y-56053445D01*
X121514499Y-56053445D01*
G37*
G36*
X126989499Y-55078445D02*
G01*
X127026995Y-55089820D01*
X127061554Y-55108292D01*
X127091847Y-55133153D01*
X127116708Y-55163446D01*
X127135180Y-55198005D01*
X127146555Y-55235501D01*
X127151000Y-55280638D01*
X127151000Y-55919362D01*
X127146555Y-55964499D01*
X127135180Y-56001995D01*
X127116708Y-56036554D01*
X127091847Y-56066847D01*
X127061554Y-56091708D01*
X127026995Y-56110180D01*
X126989499Y-56121555D01*
X126944362Y-56126000D01*
X126205638Y-56126000D01*
X126160501Y-56121555D01*
X126123005Y-56110180D01*
X126088446Y-56091708D01*
X126058153Y-56066847D01*
X126033292Y-56036554D01*
X126014820Y-56001995D01*
X126003445Y-55964499D01*
X125999000Y-55919362D01*
X125999000Y-55280638D01*
X126003445Y-55235501D01*
X126014820Y-55198005D01*
X126033292Y-55163446D01*
X126058153Y-55133153D01*
X126088446Y-55108292D01*
X126123005Y-55089820D01*
X126160501Y-55078445D01*
X126205638Y-55074000D01*
X126944362Y-55074000D01*
X126989499Y-55078445D01*
X126989499Y-55078445D01*
G37*
G36*
X125239499Y-55078445D02*
G01*
X125276995Y-55089820D01*
X125311554Y-55108292D01*
X125341847Y-55133153D01*
X125366708Y-55163446D01*
X125385180Y-55198005D01*
X125396555Y-55235501D01*
X125401000Y-55280638D01*
X125401000Y-55919362D01*
X125396555Y-55964499D01*
X125385180Y-56001995D01*
X125366708Y-56036554D01*
X125341847Y-56066847D01*
X125311554Y-56091708D01*
X125276995Y-56110180D01*
X125239499Y-56121555D01*
X125194362Y-56126000D01*
X124455638Y-56126000D01*
X124410501Y-56121555D01*
X124373005Y-56110180D01*
X124338446Y-56091708D01*
X124308153Y-56066847D01*
X124283292Y-56036554D01*
X124264820Y-56001995D01*
X124253445Y-55964499D01*
X124249000Y-55919362D01*
X124249000Y-55280638D01*
X124253445Y-55235501D01*
X124264820Y-55198005D01*
X124283292Y-55163446D01*
X124308153Y-55133153D01*
X124338446Y-55108292D01*
X124373005Y-55089820D01*
X124410501Y-55078445D01*
X124455638Y-55074000D01*
X125194362Y-55074000D01*
X125239499Y-55078445D01*
X125239499Y-55078445D01*
G37*
G36*
X110884468Y-54903565D02*
G01*
X110923138Y-54915296D01*
X110958777Y-54934346D01*
X110990017Y-54959983D01*
X111015654Y-54991223D01*
X111034704Y-55026862D01*
X111046435Y-55065532D01*
X111051000Y-55111888D01*
X111051000Y-55763112D01*
X111046435Y-55809468D01*
X111034704Y-55848138D01*
X111015654Y-55883777D01*
X110990017Y-55915017D01*
X110958777Y-55940654D01*
X110923138Y-55959704D01*
X110884468Y-55971435D01*
X110838112Y-55976000D01*
X109761888Y-55976000D01*
X109715532Y-55971435D01*
X109676862Y-55959704D01*
X109641223Y-55940654D01*
X109609983Y-55915017D01*
X109584346Y-55883777D01*
X109565296Y-55848138D01*
X109553565Y-55809468D01*
X109549000Y-55763112D01*
X109549000Y-55111888D01*
X109553565Y-55065532D01*
X109565296Y-55026862D01*
X109584346Y-54991223D01*
X109609983Y-54959983D01*
X109641223Y-54934346D01*
X109676862Y-54915296D01*
X109715532Y-54903565D01*
X109761888Y-54899000D01*
X110838112Y-54899000D01*
X110884468Y-54903565D01*
X110884468Y-54903565D01*
G37*
G36*
X106401000Y-55901000D02*
G01*
X104599000Y-55901000D01*
X104599000Y-54099000D01*
X106401000Y-54099000D01*
X106401000Y-55901000D01*
X106401000Y-55901000D01*
G37*
G36*
X112964499Y-54703445D02*
G01*
X113001995Y-54714820D01*
X113036554Y-54733292D01*
X113066847Y-54758153D01*
X113091708Y-54788446D01*
X113110180Y-54823005D01*
X113121555Y-54860501D01*
X113126000Y-54905638D01*
X113126000Y-55644362D01*
X113121555Y-55689499D01*
X113110180Y-55726995D01*
X113091708Y-55761554D01*
X113066847Y-55791847D01*
X113036554Y-55816708D01*
X113001995Y-55835180D01*
X112964499Y-55846555D01*
X112919362Y-55851000D01*
X112280638Y-55851000D01*
X112235501Y-55846555D01*
X112198005Y-55835180D01*
X112163446Y-55816708D01*
X112133153Y-55791847D01*
X112108292Y-55761554D01*
X112089820Y-55726995D01*
X112078445Y-55689499D01*
X112074000Y-55644362D01*
X112074000Y-54905638D01*
X112078445Y-54860501D01*
X112089820Y-54823005D01*
X112108292Y-54788446D01*
X112133153Y-54758153D01*
X112163446Y-54733292D01*
X112198005Y-54714820D01*
X112235501Y-54703445D01*
X112280638Y-54699000D01*
X112919362Y-54699000D01*
X112964499Y-54703445D01*
X112964499Y-54703445D01*
G37*
G36*
X117684468Y-54503565D02*
G01*
X117723138Y-54515296D01*
X117758777Y-54534346D01*
X117790017Y-54559983D01*
X117815654Y-54591223D01*
X117834704Y-54626862D01*
X117846435Y-54665532D01*
X117851000Y-54711888D01*
X117851000Y-55363112D01*
X117846435Y-55409468D01*
X117834704Y-55448138D01*
X117815654Y-55483777D01*
X117790017Y-55515017D01*
X117758777Y-55540654D01*
X117723138Y-55559704D01*
X117684468Y-55571435D01*
X117638112Y-55576000D01*
X116561888Y-55576000D01*
X116515532Y-55571435D01*
X116476862Y-55559704D01*
X116441223Y-55540654D01*
X116409983Y-55515017D01*
X116384346Y-55483777D01*
X116365296Y-55448138D01*
X116353565Y-55409468D01*
X116349000Y-55363112D01*
X116349000Y-54711888D01*
X116353565Y-54665532D01*
X116365296Y-54626862D01*
X116384346Y-54591223D01*
X116409983Y-54559983D01*
X116441223Y-54534346D01*
X116476862Y-54515296D01*
X116515532Y-54503565D01*
X116561888Y-54499000D01*
X117638112Y-54499000D01*
X117684468Y-54503565D01*
X117684468Y-54503565D01*
G37*
G36*
X123314499Y-54303445D02*
G01*
X123351995Y-54314820D01*
X123386554Y-54333292D01*
X123416847Y-54358153D01*
X123441708Y-54388446D01*
X123460180Y-54423005D01*
X123471555Y-54460501D01*
X123476000Y-54505638D01*
X123476000Y-55244362D01*
X123471555Y-55289499D01*
X123460180Y-55326995D01*
X123441708Y-55361554D01*
X123416847Y-55391847D01*
X123386554Y-55416708D01*
X123351995Y-55435180D01*
X123314499Y-55446555D01*
X123269362Y-55451000D01*
X122630638Y-55451000D01*
X122585501Y-55446555D01*
X122548005Y-55435180D01*
X122513446Y-55416708D01*
X122483153Y-55391847D01*
X122458292Y-55361554D01*
X122439820Y-55326995D01*
X122428445Y-55289499D01*
X122424000Y-55244362D01*
X122424000Y-54505638D01*
X122428445Y-54460501D01*
X122439820Y-54423005D01*
X122458292Y-54388446D01*
X122483153Y-54358153D01*
X122513446Y-54333292D01*
X122548005Y-54314820D01*
X122585501Y-54303445D01*
X122630638Y-54299000D01*
X123269362Y-54299000D01*
X123314499Y-54303445D01*
X123314499Y-54303445D01*
G37*
G36*
X121514499Y-54303445D02*
G01*
X121551995Y-54314820D01*
X121586554Y-54333292D01*
X121616847Y-54358153D01*
X121641708Y-54388446D01*
X121660180Y-54423005D01*
X121671555Y-54460501D01*
X121676000Y-54505638D01*
X121676000Y-55244362D01*
X121671555Y-55289499D01*
X121660180Y-55326995D01*
X121641708Y-55361554D01*
X121616847Y-55391847D01*
X121586554Y-55416708D01*
X121551995Y-55435180D01*
X121514499Y-55446555D01*
X121469362Y-55451000D01*
X120830638Y-55451000D01*
X120785501Y-55446555D01*
X120748005Y-55435180D01*
X120713446Y-55416708D01*
X120683153Y-55391847D01*
X120658292Y-55361554D01*
X120639820Y-55326995D01*
X120628445Y-55289499D01*
X120624000Y-55244362D01*
X120624000Y-54505638D01*
X120628445Y-54460501D01*
X120639820Y-54423005D01*
X120658292Y-54388446D01*
X120683153Y-54358153D01*
X120713446Y-54333292D01*
X120748005Y-54314820D01*
X120785501Y-54303445D01*
X120830638Y-54299000D01*
X121469362Y-54299000D01*
X121514499Y-54303445D01*
X121514499Y-54303445D01*
G37*
G36*
X126664499Y-53303445D02*
G01*
X126701995Y-53314820D01*
X126736554Y-53333292D01*
X126766847Y-53358153D01*
X126791708Y-53388446D01*
X126810180Y-53423005D01*
X126821555Y-53460501D01*
X126826000Y-53505638D01*
X126826000Y-54244362D01*
X126821555Y-54289499D01*
X126810180Y-54326995D01*
X126791708Y-54361554D01*
X126766847Y-54391847D01*
X126736554Y-54416708D01*
X126701995Y-54435180D01*
X126664499Y-54446555D01*
X126619362Y-54451000D01*
X125980638Y-54451000D01*
X125935501Y-54446555D01*
X125898005Y-54435180D01*
X125863446Y-54416708D01*
X125833153Y-54391847D01*
X125808292Y-54361554D01*
X125789820Y-54326995D01*
X125778445Y-54289499D01*
X125774000Y-54244362D01*
X125774000Y-53505638D01*
X125778445Y-53460501D01*
X125789820Y-53423005D01*
X125808292Y-53388446D01*
X125833153Y-53358153D01*
X125863446Y-53333292D01*
X125898005Y-53314820D01*
X125935501Y-53303445D01*
X125980638Y-53299000D01*
X126619362Y-53299000D01*
X126664499Y-53303445D01*
X126664499Y-53303445D01*
G37*
G36*
X125014499Y-53303445D02*
G01*
X125051995Y-53314820D01*
X125086554Y-53333292D01*
X125116847Y-53358153D01*
X125141708Y-53388446D01*
X125160180Y-53423005D01*
X125171555Y-53460501D01*
X125176000Y-53505638D01*
X125176000Y-54244362D01*
X125171555Y-54289499D01*
X125160180Y-54326995D01*
X125141708Y-54361554D01*
X125116847Y-54391847D01*
X125086554Y-54416708D01*
X125051995Y-54435180D01*
X125014499Y-54446555D01*
X124969362Y-54451000D01*
X124330638Y-54451000D01*
X124285501Y-54446555D01*
X124248005Y-54435180D01*
X124213446Y-54416708D01*
X124183153Y-54391847D01*
X124158292Y-54361554D01*
X124139820Y-54326995D01*
X124128445Y-54289499D01*
X124124000Y-54244362D01*
X124124000Y-53505638D01*
X124128445Y-53460501D01*
X124139820Y-53423005D01*
X124158292Y-53388446D01*
X124183153Y-53358153D01*
X124213446Y-53333292D01*
X124248005Y-53314820D01*
X124285501Y-53303445D01*
X124330638Y-53299000D01*
X124969362Y-53299000D01*
X125014499Y-53303445D01*
X125014499Y-53303445D01*
G37*
G36*
X110884468Y-53028565D02*
G01*
X110923138Y-53040296D01*
X110958777Y-53059346D01*
X110990017Y-53084983D01*
X111015654Y-53116223D01*
X111034704Y-53151862D01*
X111046435Y-53190532D01*
X111051000Y-53236888D01*
X111051000Y-53888112D01*
X111046435Y-53934468D01*
X111034704Y-53973138D01*
X111015654Y-54008777D01*
X110990017Y-54040017D01*
X110958777Y-54065654D01*
X110923138Y-54084704D01*
X110884468Y-54096435D01*
X110838112Y-54101000D01*
X109761888Y-54101000D01*
X109715532Y-54096435D01*
X109676862Y-54084704D01*
X109641223Y-54065654D01*
X109609983Y-54040017D01*
X109584346Y-54008777D01*
X109565296Y-53973138D01*
X109553565Y-53934468D01*
X109549000Y-53888112D01*
X109549000Y-53236888D01*
X109553565Y-53190532D01*
X109565296Y-53151862D01*
X109584346Y-53116223D01*
X109609983Y-53084983D01*
X109641223Y-53059346D01*
X109676862Y-53040296D01*
X109715532Y-53028565D01*
X109761888Y-53024000D01*
X110838112Y-53024000D01*
X110884468Y-53028565D01*
X110884468Y-53028565D01*
G37*
G36*
X112964499Y-52953445D02*
G01*
X113001995Y-52964820D01*
X113036554Y-52983292D01*
X113066847Y-53008153D01*
X113091708Y-53038446D01*
X113110180Y-53073005D01*
X113121555Y-53110501D01*
X113126000Y-53155638D01*
X113126000Y-53894362D01*
X113121555Y-53939499D01*
X113110180Y-53976995D01*
X113091708Y-54011554D01*
X113066847Y-54041847D01*
X113036554Y-54066708D01*
X113001995Y-54085180D01*
X112964499Y-54096555D01*
X112919362Y-54101000D01*
X112280638Y-54101000D01*
X112235501Y-54096555D01*
X112198005Y-54085180D01*
X112163446Y-54066708D01*
X112133153Y-54041847D01*
X112108292Y-54011554D01*
X112089820Y-53976995D01*
X112078445Y-53939499D01*
X112074000Y-53894362D01*
X112074000Y-53155638D01*
X112078445Y-53110501D01*
X112089820Y-53073005D01*
X112108292Y-53038446D01*
X112133153Y-53008153D01*
X112163446Y-52983292D01*
X112198005Y-52964820D01*
X112235501Y-52953445D01*
X112280638Y-52949000D01*
X112919362Y-52949000D01*
X112964499Y-52953445D01*
X112964499Y-52953445D01*
G37*
G36*
X129071000Y-53826000D02*
G01*
X127469000Y-53826000D01*
X127469000Y-53274000D01*
X129071000Y-53274000D01*
X129071000Y-53826000D01*
X129071000Y-53826000D01*
G37*
G36*
X117684468Y-52628565D02*
G01*
X117723138Y-52640296D01*
X117758777Y-52659346D01*
X117790017Y-52684983D01*
X117815654Y-52716223D01*
X117834704Y-52751862D01*
X117846435Y-52790532D01*
X117851000Y-52836888D01*
X117851000Y-53488112D01*
X117846435Y-53534468D01*
X117834704Y-53573138D01*
X117815654Y-53608777D01*
X117790017Y-53640017D01*
X117758777Y-53665654D01*
X117723138Y-53684704D01*
X117684468Y-53696435D01*
X117638112Y-53701000D01*
X116561888Y-53701000D01*
X116515532Y-53696435D01*
X116476862Y-53684704D01*
X116441223Y-53665654D01*
X116409983Y-53640017D01*
X116384346Y-53608777D01*
X116365296Y-53573138D01*
X116353565Y-53534468D01*
X116349000Y-53488112D01*
X116349000Y-52836888D01*
X116353565Y-52790532D01*
X116365296Y-52751862D01*
X116384346Y-52716223D01*
X116409983Y-52684983D01*
X116441223Y-52659346D01*
X116476862Y-52640296D01*
X116515532Y-52628565D01*
X116561888Y-52624000D01*
X117638112Y-52624000D01*
X117684468Y-52628565D01*
X117684468Y-52628565D01*
G37*
G36*
X131731000Y-53176000D02*
G01*
X130129000Y-53176000D01*
X130129000Y-52624000D01*
X131731000Y-52624000D01*
X131731000Y-53176000D01*
X131731000Y-53176000D01*
G37*
G36*
X125014499Y-51553445D02*
G01*
X125051995Y-51564820D01*
X125086554Y-51583292D01*
X125116847Y-51608153D01*
X125141708Y-51638446D01*
X125160180Y-51673005D01*
X125171555Y-51710501D01*
X125176000Y-51755638D01*
X125176000Y-52494362D01*
X125171555Y-52539499D01*
X125160180Y-52576995D01*
X125141708Y-52611554D01*
X125116847Y-52641847D01*
X125086554Y-52666708D01*
X125051995Y-52685180D01*
X125014499Y-52696555D01*
X124969362Y-52701000D01*
X124330638Y-52701000D01*
X124285501Y-52696555D01*
X124248005Y-52685180D01*
X124213446Y-52666708D01*
X124183153Y-52641847D01*
X124158292Y-52611554D01*
X124139820Y-52576995D01*
X124128445Y-52539499D01*
X124124000Y-52494362D01*
X124124000Y-51755638D01*
X124128445Y-51710501D01*
X124139820Y-51673005D01*
X124158292Y-51638446D01*
X124183153Y-51608153D01*
X124213446Y-51583292D01*
X124248005Y-51564820D01*
X124285501Y-51553445D01*
X124330638Y-51549000D01*
X124969362Y-51549000D01*
X125014499Y-51553445D01*
X125014499Y-51553445D01*
G37*
G36*
X126664499Y-51553445D02*
G01*
X126701995Y-51564820D01*
X126736554Y-51583292D01*
X126766847Y-51608153D01*
X126791708Y-51638446D01*
X126810180Y-51673005D01*
X126821555Y-51710501D01*
X126826000Y-51755638D01*
X126826000Y-52494362D01*
X126821555Y-52539499D01*
X126810180Y-52576995D01*
X126791708Y-52611554D01*
X126766847Y-52641847D01*
X126736554Y-52666708D01*
X126701995Y-52685180D01*
X126664499Y-52696555D01*
X126619362Y-52701000D01*
X125980638Y-52701000D01*
X125935501Y-52696555D01*
X125898005Y-52685180D01*
X125863446Y-52666708D01*
X125833153Y-52641847D01*
X125808292Y-52611554D01*
X125789820Y-52576995D01*
X125778445Y-52539499D01*
X125774000Y-52494362D01*
X125774000Y-51755638D01*
X125778445Y-51710501D01*
X125789820Y-51673005D01*
X125808292Y-51638446D01*
X125833153Y-51608153D01*
X125863446Y-51583292D01*
X125898005Y-51564820D01*
X125935501Y-51553445D01*
X125980638Y-51549000D01*
X126619362Y-51549000D01*
X126664499Y-51553445D01*
X126664499Y-51553445D01*
G37*
G36*
X129071000Y-52526000D02*
G01*
X127469000Y-52526000D01*
X127469000Y-51974000D01*
X129071000Y-51974000D01*
X129071000Y-52526000D01*
X129071000Y-52526000D01*
G37*
G36*
X140551000Y-52351000D02*
G01*
X138749000Y-52351000D01*
X138749000Y-50549000D01*
X140551000Y-50549000D01*
X140551000Y-52351000D01*
X140551000Y-52351000D01*
G37*
G36*
X106401000Y-52301000D02*
G01*
X104599000Y-52301000D01*
X104599000Y-50499000D01*
X106401000Y-50499000D01*
X106401000Y-52301000D01*
X106401000Y-52301000D01*
G37*
G36*
X116079591Y-50603085D02*
G01*
X116113569Y-50613393D01*
X116144890Y-50630134D01*
X116172339Y-50652661D01*
X116194866Y-50680110D01*
X116211607Y-50711431D01*
X116221915Y-50745409D01*
X116226000Y-50786890D01*
X116226000Y-51388110D01*
X116221915Y-51429591D01*
X116211607Y-51463569D01*
X116194866Y-51494890D01*
X116172339Y-51522339D01*
X116144890Y-51544866D01*
X116113569Y-51561607D01*
X116079591Y-51571915D01*
X116038110Y-51576000D01*
X115361890Y-51576000D01*
X115320409Y-51571915D01*
X115286431Y-51561607D01*
X115255110Y-51544866D01*
X115227661Y-51522339D01*
X115205134Y-51494890D01*
X115188393Y-51463569D01*
X115178085Y-51429591D01*
X115174000Y-51388110D01*
X115174000Y-50786890D01*
X115178085Y-50745409D01*
X115188393Y-50711431D01*
X115205134Y-50680110D01*
X115227661Y-50652661D01*
X115255110Y-50630134D01*
X115286431Y-50613393D01*
X115320409Y-50603085D01*
X115361890Y-50599000D01*
X116038110Y-50599000D01*
X116079591Y-50603085D01*
X116079591Y-50603085D01*
G37*
G36*
X132229591Y-49578085D02*
G01*
X132263569Y-49588393D01*
X132294890Y-49605134D01*
X132322339Y-49627661D01*
X132344866Y-49655110D01*
X132361607Y-49686431D01*
X132371915Y-49720409D01*
X132376000Y-49761890D01*
X132376000Y-50438110D01*
X132371915Y-50479591D01*
X132361607Y-50513569D01*
X132344866Y-50544890D01*
X132322339Y-50572339D01*
X132294890Y-50594866D01*
X132263569Y-50611607D01*
X132229591Y-50621915D01*
X132188110Y-50626000D01*
X131586890Y-50626000D01*
X131545409Y-50621915D01*
X131511431Y-50611607D01*
X131480110Y-50594866D01*
X131452661Y-50572339D01*
X131430134Y-50544890D01*
X131413393Y-50513569D01*
X131403085Y-50479591D01*
X131399000Y-50438110D01*
X131399000Y-49761890D01*
X131403085Y-49720409D01*
X131413393Y-49686431D01*
X131430134Y-49655110D01*
X131452661Y-49627661D01*
X131480110Y-49605134D01*
X131511431Y-49588393D01*
X131545409Y-49578085D01*
X131586890Y-49574000D01*
X132188110Y-49574000D01*
X132229591Y-49578085D01*
X132229591Y-49578085D01*
G37*
G36*
X130654591Y-49578085D02*
G01*
X130688569Y-49588393D01*
X130719890Y-49605134D01*
X130747339Y-49627661D01*
X130769866Y-49655110D01*
X130786607Y-49686431D01*
X130796915Y-49720409D01*
X130801000Y-49761890D01*
X130801000Y-50438110D01*
X130796915Y-50479591D01*
X130786607Y-50513569D01*
X130769866Y-50544890D01*
X130747339Y-50572339D01*
X130719890Y-50594866D01*
X130688569Y-50611607D01*
X130654591Y-50621915D01*
X130613110Y-50626000D01*
X130011890Y-50626000D01*
X129970409Y-50621915D01*
X129936431Y-50611607D01*
X129905110Y-50594866D01*
X129877661Y-50572339D01*
X129855134Y-50544890D01*
X129838393Y-50513569D01*
X129828085Y-50479591D01*
X129824000Y-50438110D01*
X129824000Y-49761890D01*
X129828085Y-49720409D01*
X129838393Y-49686431D01*
X129855134Y-49655110D01*
X129877661Y-49627661D01*
X129905110Y-49605134D01*
X129936431Y-49588393D01*
X129970409Y-49578085D01*
X130011890Y-49574000D01*
X130613110Y-49574000D01*
X130654591Y-49578085D01*
X130654591Y-49578085D01*
G37*
G36*
X116079591Y-49028085D02*
G01*
X116113569Y-49038393D01*
X116144890Y-49055134D01*
X116172339Y-49077661D01*
X116194866Y-49105110D01*
X116211607Y-49136431D01*
X116221915Y-49170409D01*
X116226000Y-49211890D01*
X116226000Y-49813110D01*
X116221915Y-49854591D01*
X116211607Y-49888569D01*
X116194866Y-49919890D01*
X116172339Y-49947339D01*
X116144890Y-49969866D01*
X116113569Y-49986607D01*
X116079591Y-49996915D01*
X116038110Y-50001000D01*
X115361890Y-50001000D01*
X115320409Y-49996915D01*
X115286431Y-49986607D01*
X115255110Y-49969866D01*
X115227661Y-49947339D01*
X115205134Y-49919890D01*
X115188393Y-49888569D01*
X115178085Y-49854591D01*
X115174000Y-49813110D01*
X115174000Y-49211890D01*
X115178085Y-49170409D01*
X115188393Y-49136431D01*
X115205134Y-49105110D01*
X115227661Y-49077661D01*
X115255110Y-49055134D01*
X115286431Y-49038393D01*
X115320409Y-49028085D01*
X115361890Y-49024000D01*
X116038110Y-49024000D01*
X116079591Y-49028085D01*
X116079591Y-49028085D01*
G37*
G36*
X139760442Y-48015518D02*
G01*
X139826627Y-48022037D01*
X139996466Y-48073557D01*
X140152991Y-48157222D01*
X140188729Y-48186552D01*
X140290186Y-48269814D01*
X140373448Y-48371271D01*
X140402778Y-48407009D01*
X140486443Y-48563534D01*
X140537963Y-48733373D01*
X140555359Y-48910000D01*
X140537963Y-49086627D01*
X140486443Y-49256466D01*
X140402778Y-49412991D01*
X140373448Y-49448729D01*
X140290186Y-49550186D01*
X140195781Y-49627661D01*
X140152991Y-49662778D01*
X139996466Y-49746443D01*
X139826627Y-49797963D01*
X139761260Y-49804401D01*
X139694260Y-49811000D01*
X139605740Y-49811000D01*
X139538740Y-49804401D01*
X139473373Y-49797963D01*
X139303534Y-49746443D01*
X139147009Y-49662778D01*
X139104219Y-49627661D01*
X139009814Y-49550186D01*
X138926552Y-49448729D01*
X138897222Y-49412991D01*
X138813557Y-49256466D01*
X138762037Y-49086627D01*
X138744641Y-48910000D01*
X138762037Y-48733373D01*
X138813557Y-48563534D01*
X138897222Y-48407009D01*
X138926552Y-48371271D01*
X139009814Y-48269814D01*
X139111271Y-48186552D01*
X139147009Y-48157222D01*
X139303534Y-48073557D01*
X139473373Y-48022037D01*
X139539557Y-48015519D01*
X139605740Y-48009000D01*
X139694260Y-48009000D01*
X139760442Y-48015518D01*
X139760442Y-48015518D01*
G37*
G36*
X105610443Y-47965519D02*
G01*
X105676627Y-47972037D01*
X105846466Y-48023557D01*
X106002991Y-48107222D01*
X106038729Y-48136552D01*
X106140186Y-48219814D01*
X106223448Y-48321271D01*
X106252778Y-48357009D01*
X106336443Y-48513534D01*
X106387963Y-48683373D01*
X106405359Y-48860000D01*
X106387963Y-49036627D01*
X106336443Y-49206466D01*
X106252778Y-49362991D01*
X106223448Y-49398729D01*
X106140186Y-49500186D01*
X106038729Y-49583448D01*
X106002991Y-49612778D01*
X105846466Y-49696443D01*
X105676627Y-49747963D01*
X105610442Y-49754482D01*
X105544260Y-49761000D01*
X105455740Y-49761000D01*
X105389558Y-49754482D01*
X105323373Y-49747963D01*
X105153534Y-49696443D01*
X104997009Y-49612778D01*
X104961271Y-49583448D01*
X104859814Y-49500186D01*
X104776552Y-49398729D01*
X104747222Y-49362991D01*
X104663557Y-49206466D01*
X104612037Y-49036627D01*
X104594641Y-48860000D01*
X104612037Y-48683373D01*
X104663557Y-48513534D01*
X104747222Y-48357009D01*
X104776552Y-48321271D01*
X104859814Y-48219814D01*
X104961271Y-48136552D01*
X104997009Y-48107222D01*
X105153534Y-48023557D01*
X105323373Y-47972037D01*
X105389558Y-47965518D01*
X105455740Y-47959000D01*
X105544260Y-47959000D01*
X105610443Y-47965519D01*
X105610443Y-47965519D01*
G37*
M02*
