G04 #@! TF.GenerationSoftware,KiCad,Pcbnew,(5.1.2)-2*
G04 #@! TF.CreationDate,2020-05-20T23:18:15+10:00*
G04 #@! TF.ProjectId,Heterodyne,48657465-726f-4647-996e-652e6b696361,rev?*
G04 #@! TF.SameCoordinates,Original*
G04 #@! TF.FileFunction,Legend,Bot*
G04 #@! TF.FilePolarity,Positive*
%FSLAX46Y46*%
G04 Gerber Fmt 4.6, Leading zero omitted, Abs format (unit mm)*
G04 Created by KiCad (PCBNEW (5.1.2)-2) date 2020-05-20 23:18:15*
%MOMM*%
%LPD*%
G04 APERTURE LIST*
%ADD10C,0.200000*%
%ADD11C,0.120000*%
%ADD12C,0.150000*%
G04 APERTURE END LIST*
D10*
X108201428Y-51671428D02*
X108344285Y-51623809D01*
X108391904Y-51576190D01*
X108439523Y-51480952D01*
X108439523Y-51338095D01*
X108391904Y-51242857D01*
X108344285Y-51195238D01*
X108249047Y-51147619D01*
X107868095Y-51147619D01*
X107868095Y-52147619D01*
X108201428Y-52147619D01*
X108296666Y-52100000D01*
X108344285Y-52052380D01*
X108391904Y-51957142D01*
X108391904Y-51861904D01*
X108344285Y-51766666D01*
X108296666Y-51719047D01*
X108201428Y-51671428D01*
X107868095Y-51671428D01*
X109010952Y-51147619D02*
X108915714Y-51195238D01*
X108868095Y-51242857D01*
X108820476Y-51338095D01*
X108820476Y-51623809D01*
X108868095Y-51719047D01*
X108915714Y-51766666D01*
X109010952Y-51814285D01*
X109153809Y-51814285D01*
X109249047Y-51766666D01*
X109296666Y-51719047D01*
X109344285Y-51623809D01*
X109344285Y-51338095D01*
X109296666Y-51242857D01*
X109249047Y-51195238D01*
X109153809Y-51147619D01*
X109010952Y-51147619D01*
X109725238Y-51195238D02*
X109868095Y-51147619D01*
X110106190Y-51147619D01*
X110201428Y-51195238D01*
X110249047Y-51242857D01*
X110296666Y-51338095D01*
X110296666Y-51433333D01*
X110249047Y-51528571D01*
X110201428Y-51576190D01*
X110106190Y-51623809D01*
X109915714Y-51671428D01*
X109820476Y-51719047D01*
X109772857Y-51766666D01*
X109725238Y-51861904D01*
X109725238Y-51957142D01*
X109772857Y-52052380D01*
X109820476Y-52100000D01*
X109915714Y-52147619D01*
X110153809Y-52147619D01*
X110296666Y-52100000D01*
X111201428Y-51147619D02*
X110725238Y-51147619D01*
X110725238Y-52147619D01*
X107725238Y-50447619D02*
X108058571Y-49447619D01*
X108391904Y-50447619D01*
X109106190Y-49495238D02*
X109010952Y-49447619D01*
X108820476Y-49447619D01*
X108725238Y-49495238D01*
X108677619Y-49590476D01*
X108677619Y-49971428D01*
X108725238Y-50066666D01*
X108820476Y-50114285D01*
X109010952Y-50114285D01*
X109106190Y-50066666D01*
X109153809Y-49971428D01*
X109153809Y-49876190D01*
X108677619Y-49780952D01*
X109725238Y-49447619D02*
X109630000Y-49495238D01*
X109582380Y-49590476D01*
X109582380Y-50447619D01*
X110249047Y-49447619D02*
X110153809Y-49495238D01*
X110106190Y-49542857D01*
X110058571Y-49638095D01*
X110058571Y-49923809D01*
X110106190Y-50019047D01*
X110153809Y-50066666D01*
X110249047Y-50114285D01*
X110391904Y-50114285D01*
X110487142Y-50066666D01*
X110534761Y-50019047D01*
X110582380Y-49923809D01*
X110582380Y-49638095D01*
X110534761Y-49542857D01*
X110487142Y-49495238D01*
X110391904Y-49447619D01*
X110249047Y-49447619D01*
X111439523Y-49495238D02*
X111344285Y-49447619D01*
X111153809Y-49447619D01*
X111058571Y-49495238D01*
X111010952Y-49542857D01*
X110963333Y-49638095D01*
X110963333Y-49923809D01*
X111010952Y-50019047D01*
X111058571Y-50066666D01*
X111153809Y-50114285D01*
X111344285Y-50114285D01*
X111439523Y-50066666D01*
X111868095Y-49447619D02*
X111868095Y-50114285D01*
X111868095Y-50447619D02*
X111820476Y-50400000D01*
X111868095Y-50352380D01*
X111915714Y-50400000D01*
X111868095Y-50447619D01*
X111868095Y-50352380D01*
X112201428Y-50114285D02*
X112582380Y-50114285D01*
X112344285Y-50447619D02*
X112344285Y-49590476D01*
X112391904Y-49495238D01*
X112487142Y-49447619D01*
X112582380Y-49447619D01*
X112820476Y-50114285D02*
X113058571Y-49447619D01*
X113296666Y-50114285D02*
X113058571Y-49447619D01*
X112963333Y-49209523D01*
X112915714Y-49161904D01*
X112820476Y-49114285D01*
X108439523Y-47747619D02*
X108106190Y-48223809D01*
X107868095Y-47747619D02*
X107868095Y-48747619D01*
X108249047Y-48747619D01*
X108344285Y-48700000D01*
X108391904Y-48652380D01*
X108439523Y-48557142D01*
X108439523Y-48414285D01*
X108391904Y-48319047D01*
X108344285Y-48271428D01*
X108249047Y-48223809D01*
X107868095Y-48223809D01*
X109249047Y-47795238D02*
X109153809Y-47747619D01*
X108963333Y-47747619D01*
X108868095Y-47795238D01*
X108820476Y-47890476D01*
X108820476Y-48271428D01*
X108868095Y-48366666D01*
X108963333Y-48414285D01*
X109153809Y-48414285D01*
X109249047Y-48366666D01*
X109296666Y-48271428D01*
X109296666Y-48176190D01*
X108820476Y-48080952D01*
X109630000Y-48414285D02*
X109868095Y-47747619D01*
X110106190Y-48414285D01*
X111439523Y-48747619D02*
X111534761Y-48747619D01*
X111630000Y-48700000D01*
X111677619Y-48652380D01*
X111725238Y-48557142D01*
X111772857Y-48366666D01*
X111772857Y-48128571D01*
X111725238Y-47938095D01*
X111677619Y-47842857D01*
X111630000Y-47795238D01*
X111534761Y-47747619D01*
X111439523Y-47747619D01*
X111344285Y-47795238D01*
X111296666Y-47842857D01*
X111249047Y-47938095D01*
X111201428Y-48128571D01*
X111201428Y-48366666D01*
X111249047Y-48557142D01*
X111296666Y-48652380D01*
X111344285Y-48700000D01*
X111439523Y-48747619D01*
X112201428Y-47842857D02*
X112249047Y-47795238D01*
X112201428Y-47747619D01*
X112153809Y-47795238D01*
X112201428Y-47842857D01*
X112201428Y-47747619D01*
X112630000Y-48652380D02*
X112677619Y-48700000D01*
X112772857Y-48747619D01*
X113010952Y-48747619D01*
X113106190Y-48700000D01*
X113153809Y-48652380D01*
X113201428Y-48557142D01*
X113201428Y-48461904D01*
X113153809Y-48319047D01*
X112582380Y-47747619D01*
X113201428Y-47747619D01*
D11*
X131262779Y-50610000D02*
X130937221Y-50610000D01*
X131262779Y-49590000D02*
X130937221Y-49590000D01*
X118437221Y-64490000D02*
X118762779Y-64490000D01*
X118437221Y-65510000D02*
X118762779Y-65510000D01*
X116210000Y-50137221D02*
X116210000Y-50462779D01*
X115190000Y-50137221D02*
X115190000Y-50462779D01*
X116458578Y-57610000D02*
X115941422Y-57610000D01*
X116458578Y-56190000D02*
X115941422Y-56190000D01*
X113110000Y-54228733D02*
X113110000Y-54571267D01*
X112090000Y-54228733D02*
X112090000Y-54571267D01*
X135260000Y-62328733D02*
X135260000Y-62671267D01*
X134240000Y-62328733D02*
X134240000Y-62671267D01*
X130554000Y-63254000D02*
X130554000Y-58946000D01*
X126246000Y-58946000D02*
X126246000Y-63254000D01*
X122790000Y-61200000D02*
X122790000Y-59800000D01*
X125110000Y-59800000D02*
X125110000Y-61700000D01*
X112700000Y-58165000D02*
X116150000Y-58165000D01*
X112700000Y-58165000D02*
X110750000Y-58165000D01*
X112700000Y-67035000D02*
X114650000Y-67035000D01*
X112700000Y-67035000D02*
X110750000Y-67035000D01*
X107390000Y-66071267D02*
X107390000Y-65728733D01*
X108410000Y-66071267D02*
X108410000Y-65728733D01*
X118428733Y-66290000D02*
X118771267Y-66290000D01*
X118428733Y-67310000D02*
X118771267Y-67310000D01*
X119828733Y-58240000D02*
X120171267Y-58240000D01*
X119828733Y-59260000D02*
X120171267Y-59260000D01*
X118740000Y-61421267D02*
X118740000Y-61078733D01*
X119760000Y-61421267D02*
X119760000Y-61078733D01*
X128071267Y-57710000D02*
X127728733Y-57710000D01*
X128071267Y-56690000D02*
X127728733Y-56690000D01*
X139478733Y-62840000D02*
X139821267Y-62840000D01*
X139478733Y-63860000D02*
X139821267Y-63860000D01*
X137278733Y-61240000D02*
X137621267Y-61240000D01*
X137278733Y-62260000D02*
X137621267Y-62260000D01*
X120540000Y-61508578D02*
X120540000Y-60991422D01*
X121960000Y-61508578D02*
X121960000Y-60991422D01*
X118010000Y-59453733D02*
X118010000Y-59796267D01*
X116990000Y-59453733D02*
X116990000Y-59796267D01*
X128925000Y-51740000D02*
X130335000Y-51740000D01*
X130335000Y-54060000D02*
X127600000Y-54060000D01*
X130335000Y-54070000D02*
X130335000Y-53400000D01*
X130335000Y-52400000D02*
X130335000Y-51740000D01*
X105790000Y-59071267D02*
X105790000Y-58728733D01*
X106810000Y-59071267D02*
X106810000Y-58728733D01*
X123460000Y-55578733D02*
X123460000Y-55921267D01*
X122440000Y-55578733D02*
X122440000Y-55921267D01*
X108610000Y-58728733D02*
X108610000Y-59071267D01*
X107590000Y-58728733D02*
X107590000Y-59071267D01*
X136337221Y-59390000D02*
X136662779Y-59390000D01*
X136337221Y-60410000D02*
X136662779Y-60410000D01*
X126810000Y-52828733D02*
X126810000Y-53171267D01*
X125790000Y-52828733D02*
X125790000Y-53171267D01*
X116390000Y-54358578D02*
X116390000Y-53841422D01*
X117810000Y-54358578D02*
X117810000Y-53841422D01*
X124508578Y-63960000D02*
X123991422Y-63960000D01*
X124508578Y-62540000D02*
X123991422Y-62540000D01*
X105010000Y-58728733D02*
X105010000Y-59071267D01*
X103990000Y-58728733D02*
X103990000Y-59071267D01*
X124140000Y-53171267D02*
X124140000Y-52828733D01*
X125160000Y-53171267D02*
X125160000Y-52828733D01*
X111010000Y-54241422D02*
X111010000Y-54758578D01*
X109590000Y-54241422D02*
X109590000Y-54758578D01*
X125871267Y-56110000D02*
X125528733Y-56110000D01*
X125871267Y-55090000D02*
X125528733Y-55090000D01*
X120640000Y-55921267D02*
X120640000Y-55578733D01*
X121660000Y-55921267D02*
X121660000Y-55578733D01*
D12*
X131742857Y-49027142D02*
X131790476Y-49074761D01*
X131933333Y-49122380D01*
X132028571Y-49122380D01*
X132171428Y-49074761D01*
X132266666Y-48979523D01*
X132314285Y-48884285D01*
X132361904Y-48693809D01*
X132361904Y-48550952D01*
X132314285Y-48360476D01*
X132266666Y-48265238D01*
X132171428Y-48170000D01*
X132028571Y-48122380D01*
X131933333Y-48122380D01*
X131790476Y-48170000D01*
X131742857Y-48217619D01*
X131361904Y-48217619D02*
X131314285Y-48170000D01*
X131219047Y-48122380D01*
X130980952Y-48122380D01*
X130885714Y-48170000D01*
X130838095Y-48217619D01*
X130790476Y-48312857D01*
X130790476Y-48408095D01*
X130838095Y-48550952D01*
X131409523Y-49122380D01*
X130790476Y-49122380D01*
X130457142Y-48122380D02*
X129838095Y-48122380D01*
X130171428Y-48503333D01*
X130028571Y-48503333D01*
X129933333Y-48550952D01*
X129885714Y-48598571D01*
X129838095Y-48693809D01*
X129838095Y-48931904D01*
X129885714Y-49027142D01*
X129933333Y-49074761D01*
X130028571Y-49122380D01*
X130314285Y-49122380D01*
X130409523Y-49074761D01*
X130457142Y-49027142D01*
X119242857Y-66787142D02*
X119290476Y-66834761D01*
X119433333Y-66882380D01*
X119528571Y-66882380D01*
X119671428Y-66834761D01*
X119766666Y-66739523D01*
X119814285Y-66644285D01*
X119861904Y-66453809D01*
X119861904Y-66310952D01*
X119814285Y-66120476D01*
X119766666Y-66025238D01*
X119671428Y-65930000D01*
X119528571Y-65882380D01*
X119433333Y-65882380D01*
X119290476Y-65930000D01*
X119242857Y-65977619D01*
X118861904Y-65977619D02*
X118814285Y-65930000D01*
X118719047Y-65882380D01*
X118480952Y-65882380D01*
X118385714Y-65930000D01*
X118338095Y-65977619D01*
X118290476Y-66072857D01*
X118290476Y-66168095D01*
X118338095Y-66310952D01*
X118909523Y-66882380D01*
X118290476Y-66882380D01*
X117385714Y-65882380D02*
X117861904Y-65882380D01*
X117909523Y-66358571D01*
X117861904Y-66310952D01*
X117766666Y-66263333D01*
X117528571Y-66263333D01*
X117433333Y-66310952D01*
X117385714Y-66358571D01*
X117338095Y-66453809D01*
X117338095Y-66691904D01*
X117385714Y-66787142D01*
X117433333Y-66834761D01*
X117528571Y-66882380D01*
X117766666Y-66882380D01*
X117861904Y-66834761D01*
X117909523Y-66787142D01*
X114627142Y-49657142D02*
X114674761Y-49609523D01*
X114722380Y-49466666D01*
X114722380Y-49371428D01*
X114674761Y-49228571D01*
X114579523Y-49133333D01*
X114484285Y-49085714D01*
X114293809Y-49038095D01*
X114150952Y-49038095D01*
X113960476Y-49085714D01*
X113865238Y-49133333D01*
X113770000Y-49228571D01*
X113722380Y-49371428D01*
X113722380Y-49466666D01*
X113770000Y-49609523D01*
X113817619Y-49657142D01*
X113817619Y-50038095D02*
X113770000Y-50085714D01*
X113722380Y-50180952D01*
X113722380Y-50419047D01*
X113770000Y-50514285D01*
X113817619Y-50561904D01*
X113912857Y-50609523D01*
X114008095Y-50609523D01*
X114150952Y-50561904D01*
X114722380Y-49990476D01*
X114722380Y-50609523D01*
X114055714Y-51466666D02*
X114722380Y-51466666D01*
X113674761Y-51228571D02*
X114389047Y-50990476D01*
X114389047Y-51609523D01*
X116842857Y-55607142D02*
X116890476Y-55654761D01*
X117033333Y-55702380D01*
X117128571Y-55702380D01*
X117271428Y-55654761D01*
X117366666Y-55559523D01*
X117414285Y-55464285D01*
X117461904Y-55273809D01*
X117461904Y-55130952D01*
X117414285Y-54940476D01*
X117366666Y-54845238D01*
X117271428Y-54750000D01*
X117128571Y-54702380D01*
X117033333Y-54702380D01*
X116890476Y-54750000D01*
X116842857Y-54797619D01*
X116461904Y-54797619D02*
X116414285Y-54750000D01*
X116319047Y-54702380D01*
X116080952Y-54702380D01*
X115985714Y-54750000D01*
X115938095Y-54797619D01*
X115890476Y-54892857D01*
X115890476Y-54988095D01*
X115938095Y-55130952D01*
X116509523Y-55702380D01*
X115890476Y-55702380D01*
X115557142Y-54702380D02*
X114890476Y-54702380D01*
X115319047Y-55702380D01*
X111527142Y-53757142D02*
X111574761Y-53709523D01*
X111622380Y-53566666D01*
X111622380Y-53471428D01*
X111574761Y-53328571D01*
X111479523Y-53233333D01*
X111384285Y-53185714D01*
X111193809Y-53138095D01*
X111050952Y-53138095D01*
X110860476Y-53185714D01*
X110765238Y-53233333D01*
X110670000Y-53328571D01*
X110622380Y-53471428D01*
X110622380Y-53566666D01*
X110670000Y-53709523D01*
X110717619Y-53757142D01*
X110717619Y-54138095D02*
X110670000Y-54185714D01*
X110622380Y-54280952D01*
X110622380Y-54519047D01*
X110670000Y-54614285D01*
X110717619Y-54661904D01*
X110812857Y-54709523D01*
X110908095Y-54709523D01*
X111050952Y-54661904D01*
X111622380Y-54090476D01*
X111622380Y-54709523D01*
X111622380Y-55661904D02*
X111622380Y-55090476D01*
X111622380Y-55376190D02*
X110622380Y-55376190D01*
X110765238Y-55280952D01*
X110860476Y-55185714D01*
X110908095Y-55090476D01*
X133772380Y-62333333D02*
X133296190Y-62000000D01*
X133772380Y-61761904D02*
X132772380Y-61761904D01*
X132772380Y-62142857D01*
X132820000Y-62238095D01*
X132867619Y-62285714D01*
X132962857Y-62333333D01*
X133105714Y-62333333D01*
X133200952Y-62285714D01*
X133248571Y-62238095D01*
X133296190Y-62142857D01*
X133296190Y-61761904D01*
X133200952Y-62904761D02*
X133153333Y-62809523D01*
X133105714Y-62761904D01*
X133010476Y-62714285D01*
X132962857Y-62714285D01*
X132867619Y-62761904D01*
X132820000Y-62809523D01*
X132772380Y-62904761D01*
X132772380Y-63095238D01*
X132820000Y-63190476D01*
X132867619Y-63238095D01*
X132962857Y-63285714D01*
X133010476Y-63285714D01*
X133105714Y-63238095D01*
X133153333Y-63190476D01*
X133200952Y-63095238D01*
X133200952Y-62904761D01*
X133248571Y-62809523D01*
X133296190Y-62761904D01*
X133391428Y-62714285D01*
X133581904Y-62714285D01*
X133677142Y-62761904D01*
X133724761Y-62809523D01*
X133772380Y-62904761D01*
X133772380Y-63095238D01*
X133724761Y-63190476D01*
X133677142Y-63238095D01*
X133581904Y-63285714D01*
X133391428Y-63285714D01*
X133296190Y-63238095D01*
X133248571Y-63190476D01*
X133200952Y-63095238D01*
X131852380Y-60933333D02*
X131852380Y-60457142D01*
X130852380Y-60457142D01*
X130947619Y-61219047D02*
X130900000Y-61266666D01*
X130852380Y-61361904D01*
X130852380Y-61600000D01*
X130900000Y-61695238D01*
X130947619Y-61742857D01*
X131042857Y-61790476D01*
X131138095Y-61790476D01*
X131280952Y-61742857D01*
X131852380Y-61171428D01*
X131852380Y-61790476D01*
X125402380Y-59738095D02*
X126211904Y-59738095D01*
X126307142Y-59785714D01*
X126354761Y-59833333D01*
X126402380Y-59928571D01*
X126402380Y-60119047D01*
X126354761Y-60214285D01*
X126307142Y-60261904D01*
X126211904Y-60309523D01*
X125402380Y-60309523D01*
X125402380Y-61261904D02*
X125402380Y-60785714D01*
X125878571Y-60738095D01*
X125830952Y-60785714D01*
X125783333Y-60880952D01*
X125783333Y-61119047D01*
X125830952Y-61214285D01*
X125878571Y-61261904D01*
X125973809Y-61309523D01*
X126211904Y-61309523D01*
X126307142Y-61261904D01*
X126354761Y-61214285D01*
X126402380Y-61119047D01*
X126402380Y-60880952D01*
X126354761Y-60785714D01*
X126307142Y-60738095D01*
X113461904Y-56772380D02*
X113461904Y-57581904D01*
X113414285Y-57677142D01*
X113366666Y-57724761D01*
X113271428Y-57772380D01*
X113080952Y-57772380D01*
X112985714Y-57724761D01*
X112938095Y-57677142D01*
X112890476Y-57581904D01*
X112890476Y-56772380D01*
X112461904Y-56867619D02*
X112414285Y-56820000D01*
X112319047Y-56772380D01*
X112080952Y-56772380D01*
X111985714Y-56820000D01*
X111938095Y-56867619D01*
X111890476Y-56962857D01*
X111890476Y-57058095D01*
X111938095Y-57200952D01*
X112509523Y-57772380D01*
X111890476Y-57772380D01*
X109782380Y-65257142D02*
X109306190Y-64923809D01*
X109782380Y-64685714D02*
X108782380Y-64685714D01*
X108782380Y-65066666D01*
X108830000Y-65161904D01*
X108877619Y-65209523D01*
X108972857Y-65257142D01*
X109115714Y-65257142D01*
X109210952Y-65209523D01*
X109258571Y-65161904D01*
X109306190Y-65066666D01*
X109306190Y-64685714D01*
X109782380Y-66209523D02*
X109782380Y-65638095D01*
X109782380Y-65923809D02*
X108782380Y-65923809D01*
X108925238Y-65828571D01*
X109020476Y-65733333D01*
X109068095Y-65638095D01*
X108782380Y-66542857D02*
X108782380Y-67209523D01*
X109782380Y-66780952D01*
X119242857Y-68682380D02*
X119576190Y-68206190D01*
X119814285Y-68682380D02*
X119814285Y-67682380D01*
X119433333Y-67682380D01*
X119338095Y-67730000D01*
X119290476Y-67777619D01*
X119242857Y-67872857D01*
X119242857Y-68015714D01*
X119290476Y-68110952D01*
X119338095Y-68158571D01*
X119433333Y-68206190D01*
X119814285Y-68206190D01*
X118290476Y-68682380D02*
X118861904Y-68682380D01*
X118576190Y-68682380D02*
X118576190Y-67682380D01*
X118671428Y-67825238D01*
X118766666Y-67920476D01*
X118861904Y-67968095D01*
X117433333Y-67682380D02*
X117623809Y-67682380D01*
X117719047Y-67730000D01*
X117766666Y-67777619D01*
X117861904Y-67920476D01*
X117909523Y-68110952D01*
X117909523Y-68491904D01*
X117861904Y-68587142D01*
X117814285Y-68634761D01*
X117719047Y-68682380D01*
X117528571Y-68682380D01*
X117433333Y-68634761D01*
X117385714Y-68587142D01*
X117338095Y-68491904D01*
X117338095Y-68253809D01*
X117385714Y-68158571D01*
X117433333Y-68110952D01*
X117528571Y-68063333D01*
X117719047Y-68063333D01*
X117814285Y-68110952D01*
X117861904Y-68158571D01*
X117909523Y-68253809D01*
X120642857Y-60632380D02*
X120976190Y-60156190D01*
X121214285Y-60632380D02*
X121214285Y-59632380D01*
X120833333Y-59632380D01*
X120738095Y-59680000D01*
X120690476Y-59727619D01*
X120642857Y-59822857D01*
X120642857Y-59965714D01*
X120690476Y-60060952D01*
X120738095Y-60108571D01*
X120833333Y-60156190D01*
X121214285Y-60156190D01*
X119690476Y-60632380D02*
X120261904Y-60632380D01*
X119976190Y-60632380D02*
X119976190Y-59632380D01*
X120071428Y-59775238D01*
X120166666Y-59870476D01*
X120261904Y-59918095D01*
X118785714Y-59632380D02*
X119261904Y-59632380D01*
X119309523Y-60108571D01*
X119261904Y-60060952D01*
X119166666Y-60013333D01*
X118928571Y-60013333D01*
X118833333Y-60060952D01*
X118785714Y-60108571D01*
X118738095Y-60203809D01*
X118738095Y-60441904D01*
X118785714Y-60537142D01*
X118833333Y-60584761D01*
X118928571Y-60632380D01*
X119166666Y-60632380D01*
X119261904Y-60584761D01*
X119309523Y-60537142D01*
X121132380Y-60607142D02*
X120656190Y-60273809D01*
X121132380Y-60035714D02*
X120132380Y-60035714D01*
X120132380Y-60416666D01*
X120180000Y-60511904D01*
X120227619Y-60559523D01*
X120322857Y-60607142D01*
X120465714Y-60607142D01*
X120560952Y-60559523D01*
X120608571Y-60511904D01*
X120656190Y-60416666D01*
X120656190Y-60035714D01*
X121132380Y-61559523D02*
X121132380Y-60988095D01*
X121132380Y-61273809D02*
X120132380Y-61273809D01*
X120275238Y-61178571D01*
X120370476Y-61083333D01*
X120418095Y-60988095D01*
X120465714Y-62416666D02*
X121132380Y-62416666D01*
X120084761Y-62178571D02*
X120799047Y-61940476D01*
X120799047Y-62559523D01*
X128066666Y-56222380D02*
X128400000Y-55746190D01*
X128638095Y-56222380D02*
X128638095Y-55222380D01*
X128257142Y-55222380D01*
X128161904Y-55270000D01*
X128114285Y-55317619D01*
X128066666Y-55412857D01*
X128066666Y-55555714D01*
X128114285Y-55650952D01*
X128161904Y-55698571D01*
X128257142Y-55746190D01*
X128638095Y-55746190D01*
X127209523Y-55555714D02*
X127209523Y-56222380D01*
X127447619Y-55174761D02*
X127685714Y-55889047D01*
X127066666Y-55889047D01*
X139816666Y-65232380D02*
X140150000Y-64756190D01*
X140388095Y-65232380D02*
X140388095Y-64232380D01*
X140007142Y-64232380D01*
X139911904Y-64280000D01*
X139864285Y-64327619D01*
X139816666Y-64422857D01*
X139816666Y-64565714D01*
X139864285Y-64660952D01*
X139911904Y-64708571D01*
X140007142Y-64756190D01*
X140388095Y-64756190D01*
X139483333Y-64232380D02*
X138864285Y-64232380D01*
X139197619Y-64613333D01*
X139054761Y-64613333D01*
X138959523Y-64660952D01*
X138911904Y-64708571D01*
X138864285Y-64803809D01*
X138864285Y-65041904D01*
X138911904Y-65137142D01*
X138959523Y-65184761D01*
X139054761Y-65232380D01*
X139340476Y-65232380D01*
X139435714Y-65184761D01*
X139483333Y-65137142D01*
X137616666Y-63632380D02*
X137950000Y-63156190D01*
X138188095Y-63632380D02*
X138188095Y-62632380D01*
X137807142Y-62632380D01*
X137711904Y-62680000D01*
X137664285Y-62727619D01*
X137616666Y-62822857D01*
X137616666Y-62965714D01*
X137664285Y-63060952D01*
X137711904Y-63108571D01*
X137807142Y-63156190D01*
X138188095Y-63156190D01*
X136664285Y-63632380D02*
X137235714Y-63632380D01*
X136950000Y-63632380D02*
X136950000Y-62632380D01*
X137045238Y-62775238D01*
X137140476Y-62870476D01*
X137235714Y-62918095D01*
X123257142Y-60607142D02*
X123304761Y-60559523D01*
X123352380Y-60416666D01*
X123352380Y-60321428D01*
X123304761Y-60178571D01*
X123209523Y-60083333D01*
X123114285Y-60035714D01*
X122923809Y-59988095D01*
X122780952Y-59988095D01*
X122590476Y-60035714D01*
X122495238Y-60083333D01*
X122400000Y-60178571D01*
X122352380Y-60321428D01*
X122352380Y-60416666D01*
X122400000Y-60559523D01*
X122447619Y-60607142D01*
X122447619Y-60988095D02*
X122400000Y-61035714D01*
X122352380Y-61130952D01*
X122352380Y-61369047D01*
X122400000Y-61464285D01*
X122447619Y-61511904D01*
X122542857Y-61559523D01*
X122638095Y-61559523D01*
X122780952Y-61511904D01*
X123352380Y-60940476D01*
X123352380Y-61559523D01*
X122780952Y-62130952D02*
X122733333Y-62035714D01*
X122685714Y-61988095D01*
X122590476Y-61940476D01*
X122542857Y-61940476D01*
X122447619Y-61988095D01*
X122400000Y-62035714D01*
X122352380Y-62130952D01*
X122352380Y-62321428D01*
X122400000Y-62416666D01*
X122447619Y-62464285D01*
X122542857Y-62511904D01*
X122590476Y-62511904D01*
X122685714Y-62464285D01*
X122733333Y-62416666D01*
X122780952Y-62321428D01*
X122780952Y-62130952D01*
X122828571Y-62035714D01*
X122876190Y-61988095D01*
X122971428Y-61940476D01*
X123161904Y-61940476D01*
X123257142Y-61988095D01*
X123304761Y-62035714D01*
X123352380Y-62130952D01*
X123352380Y-62321428D01*
X123304761Y-62416666D01*
X123257142Y-62464285D01*
X123161904Y-62511904D01*
X122971428Y-62511904D01*
X122876190Y-62464285D01*
X122828571Y-62416666D01*
X122780952Y-62321428D01*
X116427142Y-58982142D02*
X116474761Y-58934523D01*
X116522380Y-58791666D01*
X116522380Y-58696428D01*
X116474761Y-58553571D01*
X116379523Y-58458333D01*
X116284285Y-58410714D01*
X116093809Y-58363095D01*
X115950952Y-58363095D01*
X115760476Y-58410714D01*
X115665238Y-58458333D01*
X115570000Y-58553571D01*
X115522380Y-58696428D01*
X115522380Y-58791666D01*
X115570000Y-58934523D01*
X115617619Y-58982142D01*
X115617619Y-59363095D02*
X115570000Y-59410714D01*
X115522380Y-59505952D01*
X115522380Y-59744047D01*
X115570000Y-59839285D01*
X115617619Y-59886904D01*
X115712857Y-59934523D01*
X115808095Y-59934523D01*
X115950952Y-59886904D01*
X116522380Y-59315476D01*
X116522380Y-59934523D01*
X115617619Y-60315476D02*
X115570000Y-60363095D01*
X115522380Y-60458333D01*
X115522380Y-60696428D01*
X115570000Y-60791666D01*
X115617619Y-60839285D01*
X115712857Y-60886904D01*
X115808095Y-60886904D01*
X115950952Y-60839285D01*
X116522380Y-60267857D01*
X116522380Y-60886904D01*
X130361904Y-54352380D02*
X130361904Y-55161904D01*
X130314285Y-55257142D01*
X130266666Y-55304761D01*
X130171428Y-55352380D01*
X129980952Y-55352380D01*
X129885714Y-55304761D01*
X129838095Y-55257142D01*
X129790476Y-55161904D01*
X129790476Y-54352380D01*
X129409523Y-54352380D02*
X128790476Y-54352380D01*
X129123809Y-54733333D01*
X128980952Y-54733333D01*
X128885714Y-54780952D01*
X128838095Y-54828571D01*
X128790476Y-54923809D01*
X128790476Y-55161904D01*
X128838095Y-55257142D01*
X128885714Y-55304761D01*
X128980952Y-55352380D01*
X129266666Y-55352380D01*
X129361904Y-55304761D01*
X129409523Y-55257142D01*
X108182380Y-58257142D02*
X107706190Y-57923809D01*
X108182380Y-57685714D02*
X107182380Y-57685714D01*
X107182380Y-58066666D01*
X107230000Y-58161904D01*
X107277619Y-58209523D01*
X107372857Y-58257142D01*
X107515714Y-58257142D01*
X107610952Y-58209523D01*
X107658571Y-58161904D01*
X107706190Y-58066666D01*
X107706190Y-57685714D01*
X108182380Y-59209523D02*
X108182380Y-58638095D01*
X108182380Y-58923809D02*
X107182380Y-58923809D01*
X107325238Y-58828571D01*
X107420476Y-58733333D01*
X107468095Y-58638095D01*
X108182380Y-60161904D02*
X108182380Y-59590476D01*
X108182380Y-59876190D02*
X107182380Y-59876190D01*
X107325238Y-59780952D01*
X107420476Y-59685714D01*
X107468095Y-59590476D01*
X121972380Y-55107142D02*
X121496190Y-54773809D01*
X121972380Y-54535714D02*
X120972380Y-54535714D01*
X120972380Y-54916666D01*
X121020000Y-55011904D01*
X121067619Y-55059523D01*
X121162857Y-55107142D01*
X121305714Y-55107142D01*
X121400952Y-55059523D01*
X121448571Y-55011904D01*
X121496190Y-54916666D01*
X121496190Y-54535714D01*
X121972380Y-56059523D02*
X121972380Y-55488095D01*
X121972380Y-55773809D02*
X120972380Y-55773809D01*
X121115238Y-55678571D01*
X121210476Y-55583333D01*
X121258095Y-55488095D01*
X120972380Y-56678571D02*
X120972380Y-56773809D01*
X121020000Y-56869047D01*
X121067619Y-56916666D01*
X121162857Y-56964285D01*
X121353333Y-57011904D01*
X121591428Y-57011904D01*
X121781904Y-56964285D01*
X121877142Y-56916666D01*
X121924761Y-56869047D01*
X121972380Y-56773809D01*
X121972380Y-56678571D01*
X121924761Y-56583333D01*
X121877142Y-56535714D01*
X121781904Y-56488095D01*
X121591428Y-56440476D01*
X121353333Y-56440476D01*
X121162857Y-56488095D01*
X121067619Y-56535714D01*
X121020000Y-56583333D01*
X120972380Y-56678571D01*
X107122380Y-58733333D02*
X106646190Y-58400000D01*
X107122380Y-58161904D02*
X106122380Y-58161904D01*
X106122380Y-58542857D01*
X106170000Y-58638095D01*
X106217619Y-58685714D01*
X106312857Y-58733333D01*
X106455714Y-58733333D01*
X106550952Y-58685714D01*
X106598571Y-58638095D01*
X106646190Y-58542857D01*
X106646190Y-58161904D01*
X106122380Y-59590476D02*
X106122380Y-59400000D01*
X106170000Y-59304761D01*
X106217619Y-59257142D01*
X106360476Y-59161904D01*
X106550952Y-59114285D01*
X106931904Y-59114285D01*
X107027142Y-59161904D01*
X107074761Y-59209523D01*
X107122380Y-59304761D01*
X107122380Y-59495238D01*
X107074761Y-59590476D01*
X107027142Y-59638095D01*
X106931904Y-59685714D01*
X106693809Y-59685714D01*
X106598571Y-59638095D01*
X106550952Y-59590476D01*
X106503333Y-59495238D01*
X106503333Y-59304761D01*
X106550952Y-59209523D01*
X106598571Y-59161904D01*
X106693809Y-59114285D01*
X136666666Y-61782380D02*
X137000000Y-61306190D01*
X137238095Y-61782380D02*
X137238095Y-60782380D01*
X136857142Y-60782380D01*
X136761904Y-60830000D01*
X136714285Y-60877619D01*
X136666666Y-60972857D01*
X136666666Y-61115714D01*
X136714285Y-61210952D01*
X136761904Y-61258571D01*
X136857142Y-61306190D01*
X137238095Y-61306190D01*
X135761904Y-60782380D02*
X136238095Y-60782380D01*
X136285714Y-61258571D01*
X136238095Y-61210952D01*
X136142857Y-61163333D01*
X135904761Y-61163333D01*
X135809523Y-61210952D01*
X135761904Y-61258571D01*
X135714285Y-61353809D01*
X135714285Y-61591904D01*
X135761904Y-61687142D01*
X135809523Y-61734761D01*
X135904761Y-61782380D01*
X136142857Y-61782380D01*
X136238095Y-61734761D01*
X136285714Y-61687142D01*
X125322380Y-52833333D02*
X124846190Y-52500000D01*
X125322380Y-52261904D02*
X124322380Y-52261904D01*
X124322380Y-52642857D01*
X124370000Y-52738095D01*
X124417619Y-52785714D01*
X124512857Y-52833333D01*
X124655714Y-52833333D01*
X124750952Y-52785714D01*
X124798571Y-52738095D01*
X124846190Y-52642857D01*
X124846190Y-52261904D01*
X124417619Y-53214285D02*
X124370000Y-53261904D01*
X124322380Y-53357142D01*
X124322380Y-53595238D01*
X124370000Y-53690476D01*
X124417619Y-53738095D01*
X124512857Y-53785714D01*
X124608095Y-53785714D01*
X124750952Y-53738095D01*
X125322380Y-53166666D01*
X125322380Y-53785714D01*
X119107142Y-53457142D02*
X119154761Y-53409523D01*
X119202380Y-53266666D01*
X119202380Y-53171428D01*
X119154761Y-53028571D01*
X119059523Y-52933333D01*
X118964285Y-52885714D01*
X118773809Y-52838095D01*
X118630952Y-52838095D01*
X118440476Y-52885714D01*
X118345238Y-52933333D01*
X118250000Y-53028571D01*
X118202380Y-53171428D01*
X118202380Y-53266666D01*
X118250000Y-53409523D01*
X118297619Y-53457142D01*
X118297619Y-53838095D02*
X118250000Y-53885714D01*
X118202380Y-53980952D01*
X118202380Y-54219047D01*
X118250000Y-54314285D01*
X118297619Y-54361904D01*
X118392857Y-54409523D01*
X118488095Y-54409523D01*
X118630952Y-54361904D01*
X119202380Y-53790476D01*
X119202380Y-54409523D01*
X118297619Y-54790476D02*
X118250000Y-54838095D01*
X118202380Y-54933333D01*
X118202380Y-55171428D01*
X118250000Y-55266666D01*
X118297619Y-55314285D01*
X118392857Y-55361904D01*
X118488095Y-55361904D01*
X118630952Y-55314285D01*
X119202380Y-54742857D01*
X119202380Y-55361904D01*
X124892857Y-61957142D02*
X124940476Y-62004761D01*
X125083333Y-62052380D01*
X125178571Y-62052380D01*
X125321428Y-62004761D01*
X125416666Y-61909523D01*
X125464285Y-61814285D01*
X125511904Y-61623809D01*
X125511904Y-61480952D01*
X125464285Y-61290476D01*
X125416666Y-61195238D01*
X125321428Y-61100000D01*
X125178571Y-61052380D01*
X125083333Y-61052380D01*
X124940476Y-61100000D01*
X124892857Y-61147619D01*
X124511904Y-61147619D02*
X124464285Y-61100000D01*
X124369047Y-61052380D01*
X124130952Y-61052380D01*
X124035714Y-61100000D01*
X123988095Y-61147619D01*
X123940476Y-61242857D01*
X123940476Y-61338095D01*
X123988095Y-61480952D01*
X124559523Y-62052380D01*
X123940476Y-62052380D01*
X123083333Y-61052380D02*
X123273809Y-61052380D01*
X123369047Y-61100000D01*
X123416666Y-61147619D01*
X123511904Y-61290476D01*
X123559523Y-61480952D01*
X123559523Y-61861904D01*
X123511904Y-61957142D01*
X123464285Y-62004761D01*
X123369047Y-62052380D01*
X123178571Y-62052380D01*
X123083333Y-62004761D01*
X123035714Y-61957142D01*
X122988095Y-61861904D01*
X122988095Y-61623809D01*
X123035714Y-61528571D01*
X123083333Y-61480952D01*
X123178571Y-61433333D01*
X123369047Y-61433333D01*
X123464285Y-61480952D01*
X123511904Y-61528571D01*
X123559523Y-61623809D01*
X103427142Y-58257142D02*
X103474761Y-58209523D01*
X103522380Y-58066666D01*
X103522380Y-57971428D01*
X103474761Y-57828571D01*
X103379523Y-57733333D01*
X103284285Y-57685714D01*
X103093809Y-57638095D01*
X102950952Y-57638095D01*
X102760476Y-57685714D01*
X102665238Y-57733333D01*
X102570000Y-57828571D01*
X102522380Y-57971428D01*
X102522380Y-58066666D01*
X102570000Y-58209523D01*
X102617619Y-58257142D01*
X103522380Y-59209523D02*
X103522380Y-58638095D01*
X103522380Y-58923809D02*
X102522380Y-58923809D01*
X102665238Y-58828571D01*
X102760476Y-58733333D01*
X102808095Y-58638095D01*
X103522380Y-59685714D02*
X103522380Y-59876190D01*
X103474761Y-59971428D01*
X103427142Y-60019047D01*
X103284285Y-60114285D01*
X103093809Y-60161904D01*
X102712857Y-60161904D01*
X102617619Y-60114285D01*
X102570000Y-60066666D01*
X102522380Y-59971428D01*
X102522380Y-59780952D01*
X102570000Y-59685714D01*
X102617619Y-59638095D01*
X102712857Y-59590476D01*
X102950952Y-59590476D01*
X103046190Y-59638095D01*
X103093809Y-59685714D01*
X103141428Y-59780952D01*
X103141428Y-59971428D01*
X103093809Y-60066666D01*
X103046190Y-60114285D01*
X102950952Y-60161904D01*
X126437142Y-52357142D02*
X126484761Y-52309523D01*
X126532380Y-52166666D01*
X126532380Y-52071428D01*
X126484761Y-51928571D01*
X126389523Y-51833333D01*
X126294285Y-51785714D01*
X126103809Y-51738095D01*
X125960952Y-51738095D01*
X125770476Y-51785714D01*
X125675238Y-51833333D01*
X125580000Y-51928571D01*
X125532380Y-52071428D01*
X125532380Y-52166666D01*
X125580000Y-52309523D01*
X125627619Y-52357142D01*
X126532380Y-53309523D02*
X126532380Y-52738095D01*
X126532380Y-53023809D02*
X125532380Y-53023809D01*
X125675238Y-52928571D01*
X125770476Y-52833333D01*
X125818095Y-52738095D01*
X125532380Y-54214285D02*
X125532380Y-53738095D01*
X126008571Y-53690476D01*
X125960952Y-53738095D01*
X125913333Y-53833333D01*
X125913333Y-54071428D01*
X125960952Y-54166666D01*
X126008571Y-54214285D01*
X126103809Y-54261904D01*
X126341904Y-54261904D01*
X126437142Y-54214285D01*
X126484761Y-54166666D01*
X126532380Y-54071428D01*
X126532380Y-53833333D01*
X126484761Y-53738095D01*
X126437142Y-53690476D01*
X109007142Y-53857142D02*
X109054761Y-53809523D01*
X109102380Y-53666666D01*
X109102380Y-53571428D01*
X109054761Y-53428571D01*
X108959523Y-53333333D01*
X108864285Y-53285714D01*
X108673809Y-53238095D01*
X108530952Y-53238095D01*
X108340476Y-53285714D01*
X108245238Y-53333333D01*
X108150000Y-53428571D01*
X108102380Y-53571428D01*
X108102380Y-53666666D01*
X108150000Y-53809523D01*
X108197619Y-53857142D01*
X109102380Y-54809523D02*
X109102380Y-54238095D01*
X109102380Y-54523809D02*
X108102380Y-54523809D01*
X108245238Y-54428571D01*
X108340476Y-54333333D01*
X108388095Y-54238095D01*
X108530952Y-55380952D02*
X108483333Y-55285714D01*
X108435714Y-55238095D01*
X108340476Y-55190476D01*
X108292857Y-55190476D01*
X108197619Y-55238095D01*
X108150000Y-55285714D01*
X108102380Y-55380952D01*
X108102380Y-55571428D01*
X108150000Y-55666666D01*
X108197619Y-55714285D01*
X108292857Y-55761904D01*
X108340476Y-55761904D01*
X108435714Y-55714285D01*
X108483333Y-55666666D01*
X108530952Y-55571428D01*
X108530952Y-55380952D01*
X108578571Y-55285714D01*
X108626190Y-55238095D01*
X108721428Y-55190476D01*
X108911904Y-55190476D01*
X109007142Y-55238095D01*
X109054761Y-55285714D01*
X109102380Y-55380952D01*
X109102380Y-55571428D01*
X109054761Y-55666666D01*
X109007142Y-55714285D01*
X108911904Y-55761904D01*
X108721428Y-55761904D01*
X108626190Y-55714285D01*
X108578571Y-55666666D01*
X108530952Y-55571428D01*
X126342857Y-54527142D02*
X126390476Y-54574761D01*
X126533333Y-54622380D01*
X126628571Y-54622380D01*
X126771428Y-54574761D01*
X126866666Y-54479523D01*
X126914285Y-54384285D01*
X126961904Y-54193809D01*
X126961904Y-54050952D01*
X126914285Y-53860476D01*
X126866666Y-53765238D01*
X126771428Y-53670000D01*
X126628571Y-53622380D01*
X126533333Y-53622380D01*
X126390476Y-53670000D01*
X126342857Y-53717619D01*
X125390476Y-54622380D02*
X125961904Y-54622380D01*
X125676190Y-54622380D02*
X125676190Y-53622380D01*
X125771428Y-53765238D01*
X125866666Y-53860476D01*
X125961904Y-53908095D01*
X124533333Y-53622380D02*
X124723809Y-53622380D01*
X124819047Y-53670000D01*
X124866666Y-53717619D01*
X124961904Y-53860476D01*
X125009523Y-54050952D01*
X125009523Y-54431904D01*
X124961904Y-54527142D01*
X124914285Y-54574761D01*
X124819047Y-54622380D01*
X124628571Y-54622380D01*
X124533333Y-54574761D01*
X124485714Y-54527142D01*
X124438095Y-54431904D01*
X124438095Y-54193809D01*
X124485714Y-54098571D01*
X124533333Y-54050952D01*
X124628571Y-54003333D01*
X124819047Y-54003333D01*
X124914285Y-54050952D01*
X124961904Y-54098571D01*
X125009523Y-54193809D01*
X122937142Y-55107142D02*
X122984761Y-55059523D01*
X123032380Y-54916666D01*
X123032380Y-54821428D01*
X122984761Y-54678571D01*
X122889523Y-54583333D01*
X122794285Y-54535714D01*
X122603809Y-54488095D01*
X122460952Y-54488095D01*
X122270476Y-54535714D01*
X122175238Y-54583333D01*
X122080000Y-54678571D01*
X122032380Y-54821428D01*
X122032380Y-54916666D01*
X122080000Y-55059523D01*
X122127619Y-55107142D01*
X123032380Y-56059523D02*
X123032380Y-55488095D01*
X123032380Y-55773809D02*
X122032380Y-55773809D01*
X122175238Y-55678571D01*
X122270476Y-55583333D01*
X122318095Y-55488095D01*
X122032380Y-56392857D02*
X122032380Y-57059523D01*
X123032380Y-56630952D01*
M02*
