G04 #@! TF.GenerationSoftware,KiCad,Pcbnew,(5.1.2)-2*
G04 #@! TF.CreationDate,2020-05-20T23:18:15+10:00*
G04 #@! TF.ProjectId,Heterodyne,48657465-726f-4647-996e-652e6b696361,rev?*
G04 #@! TF.SameCoordinates,Original*
G04 #@! TF.FileFunction,Copper,L4,Bot*
G04 #@! TF.FilePolarity,Positive*
%FSLAX46Y46*%
G04 Gerber Fmt 4.6, Leading zero omitted, Abs format (unit mm)*
G04 Created by KiCad (PCBNEW (5.1.2)-2) date 2020-05-20 23:18:15*
%MOMM*%
%LPD*%
G04 APERTURE LIST*
%ADD10C,0.100000*%
%ADD11C,0.875000*%
%ADD12C,0.975000*%
%ADD13C,0.950000*%
%ADD14R,3.400000X0.980000*%
%ADD15R,0.400000X0.650000*%
%ADD16C,0.600000*%
%ADD17R,1.500000X0.450000*%
%ADD18O,1.700000X1.700000*%
%ADD19R,1.700000X1.700000*%
%ADD20C,0.800000*%
%ADD21C,0.250000*%
G04 APERTURE END LIST*
D10*
G36*
X130552691Y-49626053D02*
G01*
X130573926Y-49629203D01*
X130594750Y-49634419D01*
X130614962Y-49641651D01*
X130634368Y-49650830D01*
X130652781Y-49661866D01*
X130670024Y-49674654D01*
X130685930Y-49689070D01*
X130700346Y-49704976D01*
X130713134Y-49722219D01*
X130724170Y-49740632D01*
X130733349Y-49760038D01*
X130740581Y-49780250D01*
X130745797Y-49801074D01*
X130748947Y-49822309D01*
X130750000Y-49843750D01*
X130750000Y-50356250D01*
X130748947Y-50377691D01*
X130745797Y-50398926D01*
X130740581Y-50419750D01*
X130733349Y-50439962D01*
X130724170Y-50459368D01*
X130713134Y-50477781D01*
X130700346Y-50495024D01*
X130685930Y-50510930D01*
X130670024Y-50525346D01*
X130652781Y-50538134D01*
X130634368Y-50549170D01*
X130614962Y-50558349D01*
X130594750Y-50565581D01*
X130573926Y-50570797D01*
X130552691Y-50573947D01*
X130531250Y-50575000D01*
X130093750Y-50575000D01*
X130072309Y-50573947D01*
X130051074Y-50570797D01*
X130030250Y-50565581D01*
X130010038Y-50558349D01*
X129990632Y-50549170D01*
X129972219Y-50538134D01*
X129954976Y-50525346D01*
X129939070Y-50510930D01*
X129924654Y-50495024D01*
X129911866Y-50477781D01*
X129900830Y-50459368D01*
X129891651Y-50439962D01*
X129884419Y-50419750D01*
X129879203Y-50398926D01*
X129876053Y-50377691D01*
X129875000Y-50356250D01*
X129875000Y-49843750D01*
X129876053Y-49822309D01*
X129879203Y-49801074D01*
X129884419Y-49780250D01*
X129891651Y-49760038D01*
X129900830Y-49740632D01*
X129911866Y-49722219D01*
X129924654Y-49704976D01*
X129939070Y-49689070D01*
X129954976Y-49674654D01*
X129972219Y-49661866D01*
X129990632Y-49650830D01*
X130010038Y-49641651D01*
X130030250Y-49634419D01*
X130051074Y-49629203D01*
X130072309Y-49626053D01*
X130093750Y-49625000D01*
X130531250Y-49625000D01*
X130552691Y-49626053D01*
X130552691Y-49626053D01*
G37*
D11*
X130312500Y-50100000D03*
D10*
G36*
X132127691Y-49626053D02*
G01*
X132148926Y-49629203D01*
X132169750Y-49634419D01*
X132189962Y-49641651D01*
X132209368Y-49650830D01*
X132227781Y-49661866D01*
X132245024Y-49674654D01*
X132260930Y-49689070D01*
X132275346Y-49704976D01*
X132288134Y-49722219D01*
X132299170Y-49740632D01*
X132308349Y-49760038D01*
X132315581Y-49780250D01*
X132320797Y-49801074D01*
X132323947Y-49822309D01*
X132325000Y-49843750D01*
X132325000Y-50356250D01*
X132323947Y-50377691D01*
X132320797Y-50398926D01*
X132315581Y-50419750D01*
X132308349Y-50439962D01*
X132299170Y-50459368D01*
X132288134Y-50477781D01*
X132275346Y-50495024D01*
X132260930Y-50510930D01*
X132245024Y-50525346D01*
X132227781Y-50538134D01*
X132209368Y-50549170D01*
X132189962Y-50558349D01*
X132169750Y-50565581D01*
X132148926Y-50570797D01*
X132127691Y-50573947D01*
X132106250Y-50575000D01*
X131668750Y-50575000D01*
X131647309Y-50573947D01*
X131626074Y-50570797D01*
X131605250Y-50565581D01*
X131585038Y-50558349D01*
X131565632Y-50549170D01*
X131547219Y-50538134D01*
X131529976Y-50525346D01*
X131514070Y-50510930D01*
X131499654Y-50495024D01*
X131486866Y-50477781D01*
X131475830Y-50459368D01*
X131466651Y-50439962D01*
X131459419Y-50419750D01*
X131454203Y-50398926D01*
X131451053Y-50377691D01*
X131450000Y-50356250D01*
X131450000Y-49843750D01*
X131451053Y-49822309D01*
X131454203Y-49801074D01*
X131459419Y-49780250D01*
X131466651Y-49760038D01*
X131475830Y-49740632D01*
X131486866Y-49722219D01*
X131499654Y-49704976D01*
X131514070Y-49689070D01*
X131529976Y-49674654D01*
X131547219Y-49661866D01*
X131565632Y-49650830D01*
X131585038Y-49641651D01*
X131605250Y-49634419D01*
X131626074Y-49629203D01*
X131647309Y-49626053D01*
X131668750Y-49625000D01*
X132106250Y-49625000D01*
X132127691Y-49626053D01*
X132127691Y-49626053D01*
G37*
D11*
X131887500Y-50100000D03*
D10*
G36*
X119627691Y-64526053D02*
G01*
X119648926Y-64529203D01*
X119669750Y-64534419D01*
X119689962Y-64541651D01*
X119709368Y-64550830D01*
X119727781Y-64561866D01*
X119745024Y-64574654D01*
X119760930Y-64589070D01*
X119775346Y-64604976D01*
X119788134Y-64622219D01*
X119799170Y-64640632D01*
X119808349Y-64660038D01*
X119815581Y-64680250D01*
X119820797Y-64701074D01*
X119823947Y-64722309D01*
X119825000Y-64743750D01*
X119825000Y-65256250D01*
X119823947Y-65277691D01*
X119820797Y-65298926D01*
X119815581Y-65319750D01*
X119808349Y-65339962D01*
X119799170Y-65359368D01*
X119788134Y-65377781D01*
X119775346Y-65395024D01*
X119760930Y-65410930D01*
X119745024Y-65425346D01*
X119727781Y-65438134D01*
X119709368Y-65449170D01*
X119689962Y-65458349D01*
X119669750Y-65465581D01*
X119648926Y-65470797D01*
X119627691Y-65473947D01*
X119606250Y-65475000D01*
X119168750Y-65475000D01*
X119147309Y-65473947D01*
X119126074Y-65470797D01*
X119105250Y-65465581D01*
X119085038Y-65458349D01*
X119065632Y-65449170D01*
X119047219Y-65438134D01*
X119029976Y-65425346D01*
X119014070Y-65410930D01*
X118999654Y-65395024D01*
X118986866Y-65377781D01*
X118975830Y-65359368D01*
X118966651Y-65339962D01*
X118959419Y-65319750D01*
X118954203Y-65298926D01*
X118951053Y-65277691D01*
X118950000Y-65256250D01*
X118950000Y-64743750D01*
X118951053Y-64722309D01*
X118954203Y-64701074D01*
X118959419Y-64680250D01*
X118966651Y-64660038D01*
X118975830Y-64640632D01*
X118986866Y-64622219D01*
X118999654Y-64604976D01*
X119014070Y-64589070D01*
X119029976Y-64574654D01*
X119047219Y-64561866D01*
X119065632Y-64550830D01*
X119085038Y-64541651D01*
X119105250Y-64534419D01*
X119126074Y-64529203D01*
X119147309Y-64526053D01*
X119168750Y-64525000D01*
X119606250Y-64525000D01*
X119627691Y-64526053D01*
X119627691Y-64526053D01*
G37*
D11*
X119387500Y-65000000D03*
D10*
G36*
X118052691Y-64526053D02*
G01*
X118073926Y-64529203D01*
X118094750Y-64534419D01*
X118114962Y-64541651D01*
X118134368Y-64550830D01*
X118152781Y-64561866D01*
X118170024Y-64574654D01*
X118185930Y-64589070D01*
X118200346Y-64604976D01*
X118213134Y-64622219D01*
X118224170Y-64640632D01*
X118233349Y-64660038D01*
X118240581Y-64680250D01*
X118245797Y-64701074D01*
X118248947Y-64722309D01*
X118250000Y-64743750D01*
X118250000Y-65256250D01*
X118248947Y-65277691D01*
X118245797Y-65298926D01*
X118240581Y-65319750D01*
X118233349Y-65339962D01*
X118224170Y-65359368D01*
X118213134Y-65377781D01*
X118200346Y-65395024D01*
X118185930Y-65410930D01*
X118170024Y-65425346D01*
X118152781Y-65438134D01*
X118134368Y-65449170D01*
X118114962Y-65458349D01*
X118094750Y-65465581D01*
X118073926Y-65470797D01*
X118052691Y-65473947D01*
X118031250Y-65475000D01*
X117593750Y-65475000D01*
X117572309Y-65473947D01*
X117551074Y-65470797D01*
X117530250Y-65465581D01*
X117510038Y-65458349D01*
X117490632Y-65449170D01*
X117472219Y-65438134D01*
X117454976Y-65425346D01*
X117439070Y-65410930D01*
X117424654Y-65395024D01*
X117411866Y-65377781D01*
X117400830Y-65359368D01*
X117391651Y-65339962D01*
X117384419Y-65319750D01*
X117379203Y-65298926D01*
X117376053Y-65277691D01*
X117375000Y-65256250D01*
X117375000Y-64743750D01*
X117376053Y-64722309D01*
X117379203Y-64701074D01*
X117384419Y-64680250D01*
X117391651Y-64660038D01*
X117400830Y-64640632D01*
X117411866Y-64622219D01*
X117424654Y-64604976D01*
X117439070Y-64589070D01*
X117454976Y-64574654D01*
X117472219Y-64561866D01*
X117490632Y-64550830D01*
X117510038Y-64541651D01*
X117530250Y-64534419D01*
X117551074Y-64529203D01*
X117572309Y-64526053D01*
X117593750Y-64525000D01*
X118031250Y-64525000D01*
X118052691Y-64526053D01*
X118052691Y-64526053D01*
G37*
D11*
X117812500Y-65000000D03*
D10*
G36*
X115977691Y-50651053D02*
G01*
X115998926Y-50654203D01*
X116019750Y-50659419D01*
X116039962Y-50666651D01*
X116059368Y-50675830D01*
X116077781Y-50686866D01*
X116095024Y-50699654D01*
X116110930Y-50714070D01*
X116125346Y-50729976D01*
X116138134Y-50747219D01*
X116149170Y-50765632D01*
X116158349Y-50785038D01*
X116165581Y-50805250D01*
X116170797Y-50826074D01*
X116173947Y-50847309D01*
X116175000Y-50868750D01*
X116175000Y-51306250D01*
X116173947Y-51327691D01*
X116170797Y-51348926D01*
X116165581Y-51369750D01*
X116158349Y-51389962D01*
X116149170Y-51409368D01*
X116138134Y-51427781D01*
X116125346Y-51445024D01*
X116110930Y-51460930D01*
X116095024Y-51475346D01*
X116077781Y-51488134D01*
X116059368Y-51499170D01*
X116039962Y-51508349D01*
X116019750Y-51515581D01*
X115998926Y-51520797D01*
X115977691Y-51523947D01*
X115956250Y-51525000D01*
X115443750Y-51525000D01*
X115422309Y-51523947D01*
X115401074Y-51520797D01*
X115380250Y-51515581D01*
X115360038Y-51508349D01*
X115340632Y-51499170D01*
X115322219Y-51488134D01*
X115304976Y-51475346D01*
X115289070Y-51460930D01*
X115274654Y-51445024D01*
X115261866Y-51427781D01*
X115250830Y-51409368D01*
X115241651Y-51389962D01*
X115234419Y-51369750D01*
X115229203Y-51348926D01*
X115226053Y-51327691D01*
X115225000Y-51306250D01*
X115225000Y-50868750D01*
X115226053Y-50847309D01*
X115229203Y-50826074D01*
X115234419Y-50805250D01*
X115241651Y-50785038D01*
X115250830Y-50765632D01*
X115261866Y-50747219D01*
X115274654Y-50729976D01*
X115289070Y-50714070D01*
X115304976Y-50699654D01*
X115322219Y-50686866D01*
X115340632Y-50675830D01*
X115360038Y-50666651D01*
X115380250Y-50659419D01*
X115401074Y-50654203D01*
X115422309Y-50651053D01*
X115443750Y-50650000D01*
X115956250Y-50650000D01*
X115977691Y-50651053D01*
X115977691Y-50651053D01*
G37*
D11*
X115700000Y-51087500D03*
D10*
G36*
X115977691Y-49076053D02*
G01*
X115998926Y-49079203D01*
X116019750Y-49084419D01*
X116039962Y-49091651D01*
X116059368Y-49100830D01*
X116077781Y-49111866D01*
X116095024Y-49124654D01*
X116110930Y-49139070D01*
X116125346Y-49154976D01*
X116138134Y-49172219D01*
X116149170Y-49190632D01*
X116158349Y-49210038D01*
X116165581Y-49230250D01*
X116170797Y-49251074D01*
X116173947Y-49272309D01*
X116175000Y-49293750D01*
X116175000Y-49731250D01*
X116173947Y-49752691D01*
X116170797Y-49773926D01*
X116165581Y-49794750D01*
X116158349Y-49814962D01*
X116149170Y-49834368D01*
X116138134Y-49852781D01*
X116125346Y-49870024D01*
X116110930Y-49885930D01*
X116095024Y-49900346D01*
X116077781Y-49913134D01*
X116059368Y-49924170D01*
X116039962Y-49933349D01*
X116019750Y-49940581D01*
X115998926Y-49945797D01*
X115977691Y-49948947D01*
X115956250Y-49950000D01*
X115443750Y-49950000D01*
X115422309Y-49948947D01*
X115401074Y-49945797D01*
X115380250Y-49940581D01*
X115360038Y-49933349D01*
X115340632Y-49924170D01*
X115322219Y-49913134D01*
X115304976Y-49900346D01*
X115289070Y-49885930D01*
X115274654Y-49870024D01*
X115261866Y-49852781D01*
X115250830Y-49834368D01*
X115241651Y-49814962D01*
X115234419Y-49794750D01*
X115229203Y-49773926D01*
X115226053Y-49752691D01*
X115225000Y-49731250D01*
X115225000Y-49293750D01*
X115226053Y-49272309D01*
X115229203Y-49251074D01*
X115234419Y-49230250D01*
X115241651Y-49210038D01*
X115250830Y-49190632D01*
X115261866Y-49172219D01*
X115274654Y-49154976D01*
X115289070Y-49139070D01*
X115304976Y-49124654D01*
X115322219Y-49111866D01*
X115340632Y-49100830D01*
X115360038Y-49091651D01*
X115380250Y-49084419D01*
X115401074Y-49079203D01*
X115422309Y-49076053D01*
X115443750Y-49075000D01*
X115956250Y-49075000D01*
X115977691Y-49076053D01*
X115977691Y-49076053D01*
G37*
D11*
X115700000Y-49512500D03*
D10*
G36*
X115530142Y-56201174D02*
G01*
X115553803Y-56204684D01*
X115577007Y-56210496D01*
X115599529Y-56218554D01*
X115621153Y-56228782D01*
X115641670Y-56241079D01*
X115660883Y-56255329D01*
X115678607Y-56271393D01*
X115694671Y-56289117D01*
X115708921Y-56308330D01*
X115721218Y-56328847D01*
X115731446Y-56350471D01*
X115739504Y-56372993D01*
X115745316Y-56396197D01*
X115748826Y-56419858D01*
X115750000Y-56443750D01*
X115750000Y-57356250D01*
X115748826Y-57380142D01*
X115745316Y-57403803D01*
X115739504Y-57427007D01*
X115731446Y-57449529D01*
X115721218Y-57471153D01*
X115708921Y-57491670D01*
X115694671Y-57510883D01*
X115678607Y-57528607D01*
X115660883Y-57544671D01*
X115641670Y-57558921D01*
X115621153Y-57571218D01*
X115599529Y-57581446D01*
X115577007Y-57589504D01*
X115553803Y-57595316D01*
X115530142Y-57598826D01*
X115506250Y-57600000D01*
X115018750Y-57600000D01*
X114994858Y-57598826D01*
X114971197Y-57595316D01*
X114947993Y-57589504D01*
X114925471Y-57581446D01*
X114903847Y-57571218D01*
X114883330Y-57558921D01*
X114864117Y-57544671D01*
X114846393Y-57528607D01*
X114830329Y-57510883D01*
X114816079Y-57491670D01*
X114803782Y-57471153D01*
X114793554Y-57449529D01*
X114785496Y-57427007D01*
X114779684Y-57403803D01*
X114776174Y-57380142D01*
X114775000Y-57356250D01*
X114775000Y-56443750D01*
X114776174Y-56419858D01*
X114779684Y-56396197D01*
X114785496Y-56372993D01*
X114793554Y-56350471D01*
X114803782Y-56328847D01*
X114816079Y-56308330D01*
X114830329Y-56289117D01*
X114846393Y-56271393D01*
X114864117Y-56255329D01*
X114883330Y-56241079D01*
X114903847Y-56228782D01*
X114925471Y-56218554D01*
X114947993Y-56210496D01*
X114971197Y-56204684D01*
X114994858Y-56201174D01*
X115018750Y-56200000D01*
X115506250Y-56200000D01*
X115530142Y-56201174D01*
X115530142Y-56201174D01*
G37*
D12*
X115262500Y-56900000D03*
D10*
G36*
X117405142Y-56201174D02*
G01*
X117428803Y-56204684D01*
X117452007Y-56210496D01*
X117474529Y-56218554D01*
X117496153Y-56228782D01*
X117516670Y-56241079D01*
X117535883Y-56255329D01*
X117553607Y-56271393D01*
X117569671Y-56289117D01*
X117583921Y-56308330D01*
X117596218Y-56328847D01*
X117606446Y-56350471D01*
X117614504Y-56372993D01*
X117620316Y-56396197D01*
X117623826Y-56419858D01*
X117625000Y-56443750D01*
X117625000Y-57356250D01*
X117623826Y-57380142D01*
X117620316Y-57403803D01*
X117614504Y-57427007D01*
X117606446Y-57449529D01*
X117596218Y-57471153D01*
X117583921Y-57491670D01*
X117569671Y-57510883D01*
X117553607Y-57528607D01*
X117535883Y-57544671D01*
X117516670Y-57558921D01*
X117496153Y-57571218D01*
X117474529Y-57581446D01*
X117452007Y-57589504D01*
X117428803Y-57595316D01*
X117405142Y-57598826D01*
X117381250Y-57600000D01*
X116893750Y-57600000D01*
X116869858Y-57598826D01*
X116846197Y-57595316D01*
X116822993Y-57589504D01*
X116800471Y-57581446D01*
X116778847Y-57571218D01*
X116758330Y-57558921D01*
X116739117Y-57544671D01*
X116721393Y-57528607D01*
X116705329Y-57510883D01*
X116691079Y-57491670D01*
X116678782Y-57471153D01*
X116668554Y-57449529D01*
X116660496Y-57427007D01*
X116654684Y-57403803D01*
X116651174Y-57380142D01*
X116650000Y-57356250D01*
X116650000Y-56443750D01*
X116651174Y-56419858D01*
X116654684Y-56396197D01*
X116660496Y-56372993D01*
X116668554Y-56350471D01*
X116678782Y-56328847D01*
X116691079Y-56308330D01*
X116705329Y-56289117D01*
X116721393Y-56271393D01*
X116739117Y-56255329D01*
X116758330Y-56241079D01*
X116778847Y-56228782D01*
X116800471Y-56218554D01*
X116822993Y-56210496D01*
X116846197Y-56204684D01*
X116869858Y-56201174D01*
X116893750Y-56200000D01*
X117381250Y-56200000D01*
X117405142Y-56201174D01*
X117405142Y-56201174D01*
G37*
D12*
X117137500Y-56900000D03*
D10*
G36*
X112860779Y-54751144D02*
G01*
X112883834Y-54754563D01*
X112906443Y-54760227D01*
X112928387Y-54768079D01*
X112949457Y-54778044D01*
X112969448Y-54790026D01*
X112988168Y-54803910D01*
X113005438Y-54819562D01*
X113021090Y-54836832D01*
X113034974Y-54855552D01*
X113046956Y-54875543D01*
X113056921Y-54896613D01*
X113064773Y-54918557D01*
X113070437Y-54941166D01*
X113073856Y-54964221D01*
X113075000Y-54987500D01*
X113075000Y-55562500D01*
X113073856Y-55585779D01*
X113070437Y-55608834D01*
X113064773Y-55631443D01*
X113056921Y-55653387D01*
X113046956Y-55674457D01*
X113034974Y-55694448D01*
X113021090Y-55713168D01*
X113005438Y-55730438D01*
X112988168Y-55746090D01*
X112969448Y-55759974D01*
X112949457Y-55771956D01*
X112928387Y-55781921D01*
X112906443Y-55789773D01*
X112883834Y-55795437D01*
X112860779Y-55798856D01*
X112837500Y-55800000D01*
X112362500Y-55800000D01*
X112339221Y-55798856D01*
X112316166Y-55795437D01*
X112293557Y-55789773D01*
X112271613Y-55781921D01*
X112250543Y-55771956D01*
X112230552Y-55759974D01*
X112211832Y-55746090D01*
X112194562Y-55730438D01*
X112178910Y-55713168D01*
X112165026Y-55694448D01*
X112153044Y-55674457D01*
X112143079Y-55653387D01*
X112135227Y-55631443D01*
X112129563Y-55608834D01*
X112126144Y-55585779D01*
X112125000Y-55562500D01*
X112125000Y-54987500D01*
X112126144Y-54964221D01*
X112129563Y-54941166D01*
X112135227Y-54918557D01*
X112143079Y-54896613D01*
X112153044Y-54875543D01*
X112165026Y-54855552D01*
X112178910Y-54836832D01*
X112194562Y-54819562D01*
X112211832Y-54803910D01*
X112230552Y-54790026D01*
X112250543Y-54778044D01*
X112271613Y-54768079D01*
X112293557Y-54760227D01*
X112316166Y-54754563D01*
X112339221Y-54751144D01*
X112362500Y-54750000D01*
X112837500Y-54750000D01*
X112860779Y-54751144D01*
X112860779Y-54751144D01*
G37*
D13*
X112600000Y-55275000D03*
D10*
G36*
X112860779Y-53001144D02*
G01*
X112883834Y-53004563D01*
X112906443Y-53010227D01*
X112928387Y-53018079D01*
X112949457Y-53028044D01*
X112969448Y-53040026D01*
X112988168Y-53053910D01*
X113005438Y-53069562D01*
X113021090Y-53086832D01*
X113034974Y-53105552D01*
X113046956Y-53125543D01*
X113056921Y-53146613D01*
X113064773Y-53168557D01*
X113070437Y-53191166D01*
X113073856Y-53214221D01*
X113075000Y-53237500D01*
X113075000Y-53812500D01*
X113073856Y-53835779D01*
X113070437Y-53858834D01*
X113064773Y-53881443D01*
X113056921Y-53903387D01*
X113046956Y-53924457D01*
X113034974Y-53944448D01*
X113021090Y-53963168D01*
X113005438Y-53980438D01*
X112988168Y-53996090D01*
X112969448Y-54009974D01*
X112949457Y-54021956D01*
X112928387Y-54031921D01*
X112906443Y-54039773D01*
X112883834Y-54045437D01*
X112860779Y-54048856D01*
X112837500Y-54050000D01*
X112362500Y-54050000D01*
X112339221Y-54048856D01*
X112316166Y-54045437D01*
X112293557Y-54039773D01*
X112271613Y-54031921D01*
X112250543Y-54021956D01*
X112230552Y-54009974D01*
X112211832Y-53996090D01*
X112194562Y-53980438D01*
X112178910Y-53963168D01*
X112165026Y-53944448D01*
X112153044Y-53924457D01*
X112143079Y-53903387D01*
X112135227Y-53881443D01*
X112129563Y-53858834D01*
X112126144Y-53835779D01*
X112125000Y-53812500D01*
X112125000Y-53237500D01*
X112126144Y-53214221D01*
X112129563Y-53191166D01*
X112135227Y-53168557D01*
X112143079Y-53146613D01*
X112153044Y-53125543D01*
X112165026Y-53105552D01*
X112178910Y-53086832D01*
X112194562Y-53069562D01*
X112211832Y-53053910D01*
X112230552Y-53040026D01*
X112250543Y-53028044D01*
X112271613Y-53018079D01*
X112293557Y-53010227D01*
X112316166Y-53004563D01*
X112339221Y-53001144D01*
X112362500Y-53000000D01*
X112837500Y-53000000D01*
X112860779Y-53001144D01*
X112860779Y-53001144D01*
G37*
D13*
X112600000Y-53525000D03*
D10*
G36*
X135010779Y-62851144D02*
G01*
X135033834Y-62854563D01*
X135056443Y-62860227D01*
X135078387Y-62868079D01*
X135099457Y-62878044D01*
X135119448Y-62890026D01*
X135138168Y-62903910D01*
X135155438Y-62919562D01*
X135171090Y-62936832D01*
X135184974Y-62955552D01*
X135196956Y-62975543D01*
X135206921Y-62996613D01*
X135214773Y-63018557D01*
X135220437Y-63041166D01*
X135223856Y-63064221D01*
X135225000Y-63087500D01*
X135225000Y-63662500D01*
X135223856Y-63685779D01*
X135220437Y-63708834D01*
X135214773Y-63731443D01*
X135206921Y-63753387D01*
X135196956Y-63774457D01*
X135184974Y-63794448D01*
X135171090Y-63813168D01*
X135155438Y-63830438D01*
X135138168Y-63846090D01*
X135119448Y-63859974D01*
X135099457Y-63871956D01*
X135078387Y-63881921D01*
X135056443Y-63889773D01*
X135033834Y-63895437D01*
X135010779Y-63898856D01*
X134987500Y-63900000D01*
X134512500Y-63900000D01*
X134489221Y-63898856D01*
X134466166Y-63895437D01*
X134443557Y-63889773D01*
X134421613Y-63881921D01*
X134400543Y-63871956D01*
X134380552Y-63859974D01*
X134361832Y-63846090D01*
X134344562Y-63830438D01*
X134328910Y-63813168D01*
X134315026Y-63794448D01*
X134303044Y-63774457D01*
X134293079Y-63753387D01*
X134285227Y-63731443D01*
X134279563Y-63708834D01*
X134276144Y-63685779D01*
X134275000Y-63662500D01*
X134275000Y-63087500D01*
X134276144Y-63064221D01*
X134279563Y-63041166D01*
X134285227Y-63018557D01*
X134293079Y-62996613D01*
X134303044Y-62975543D01*
X134315026Y-62955552D01*
X134328910Y-62936832D01*
X134344562Y-62919562D01*
X134361832Y-62903910D01*
X134380552Y-62890026D01*
X134400543Y-62878044D01*
X134421613Y-62868079D01*
X134443557Y-62860227D01*
X134466166Y-62854563D01*
X134489221Y-62851144D01*
X134512500Y-62850000D01*
X134987500Y-62850000D01*
X135010779Y-62851144D01*
X135010779Y-62851144D01*
G37*
D13*
X134750000Y-63375000D03*
D10*
G36*
X135010779Y-61101144D02*
G01*
X135033834Y-61104563D01*
X135056443Y-61110227D01*
X135078387Y-61118079D01*
X135099457Y-61128044D01*
X135119448Y-61140026D01*
X135138168Y-61153910D01*
X135155438Y-61169562D01*
X135171090Y-61186832D01*
X135184974Y-61205552D01*
X135196956Y-61225543D01*
X135206921Y-61246613D01*
X135214773Y-61268557D01*
X135220437Y-61291166D01*
X135223856Y-61314221D01*
X135225000Y-61337500D01*
X135225000Y-61912500D01*
X135223856Y-61935779D01*
X135220437Y-61958834D01*
X135214773Y-61981443D01*
X135206921Y-62003387D01*
X135196956Y-62024457D01*
X135184974Y-62044448D01*
X135171090Y-62063168D01*
X135155438Y-62080438D01*
X135138168Y-62096090D01*
X135119448Y-62109974D01*
X135099457Y-62121956D01*
X135078387Y-62131921D01*
X135056443Y-62139773D01*
X135033834Y-62145437D01*
X135010779Y-62148856D01*
X134987500Y-62150000D01*
X134512500Y-62150000D01*
X134489221Y-62148856D01*
X134466166Y-62145437D01*
X134443557Y-62139773D01*
X134421613Y-62131921D01*
X134400543Y-62121956D01*
X134380552Y-62109974D01*
X134361832Y-62096090D01*
X134344562Y-62080438D01*
X134328910Y-62063168D01*
X134315026Y-62044448D01*
X134303044Y-62024457D01*
X134293079Y-62003387D01*
X134285227Y-61981443D01*
X134279563Y-61958834D01*
X134276144Y-61935779D01*
X134275000Y-61912500D01*
X134275000Y-61337500D01*
X134276144Y-61314221D01*
X134279563Y-61291166D01*
X134285227Y-61268557D01*
X134293079Y-61246613D01*
X134303044Y-61225543D01*
X134315026Y-61205552D01*
X134328910Y-61186832D01*
X134344562Y-61169562D01*
X134361832Y-61153910D01*
X134380552Y-61140026D01*
X134400543Y-61128044D01*
X134421613Y-61118079D01*
X134443557Y-61110227D01*
X134466166Y-61104563D01*
X134489221Y-61101144D01*
X134512500Y-61100000D01*
X134987500Y-61100000D01*
X135010779Y-61101144D01*
X135010779Y-61101144D01*
G37*
D13*
X134750000Y-61625000D03*
D14*
X128400000Y-59915000D03*
X128400000Y-62285000D03*
D15*
X124600000Y-59550000D03*
X123300000Y-59550000D03*
X123950000Y-61450000D03*
X123950000Y-59550000D03*
X123300000Y-61450000D03*
X124600000Y-61450000D03*
D10*
G36*
X111064703Y-58490722D02*
G01*
X111079264Y-58492882D01*
X111093543Y-58496459D01*
X111107403Y-58501418D01*
X111120710Y-58507712D01*
X111133336Y-58515280D01*
X111145159Y-58524048D01*
X111156066Y-58533934D01*
X111165952Y-58544841D01*
X111174720Y-58556664D01*
X111182288Y-58569290D01*
X111188582Y-58582597D01*
X111193541Y-58596457D01*
X111197118Y-58610736D01*
X111199278Y-58625297D01*
X111200000Y-58640000D01*
X111200000Y-58940000D01*
X111199278Y-58954703D01*
X111197118Y-58969264D01*
X111193541Y-58983543D01*
X111188582Y-58997403D01*
X111182288Y-59010710D01*
X111174720Y-59023336D01*
X111165952Y-59035159D01*
X111156066Y-59046066D01*
X111145159Y-59055952D01*
X111133336Y-59064720D01*
X111120710Y-59072288D01*
X111107403Y-59078582D01*
X111093543Y-59083541D01*
X111079264Y-59087118D01*
X111064703Y-59089278D01*
X111050000Y-59090000D01*
X109400000Y-59090000D01*
X109385297Y-59089278D01*
X109370736Y-59087118D01*
X109356457Y-59083541D01*
X109342597Y-59078582D01*
X109329290Y-59072288D01*
X109316664Y-59064720D01*
X109304841Y-59055952D01*
X109293934Y-59046066D01*
X109284048Y-59035159D01*
X109275280Y-59023336D01*
X109267712Y-59010710D01*
X109261418Y-58997403D01*
X109256459Y-58983543D01*
X109252882Y-58969264D01*
X109250722Y-58954703D01*
X109250000Y-58940000D01*
X109250000Y-58640000D01*
X109250722Y-58625297D01*
X109252882Y-58610736D01*
X109256459Y-58596457D01*
X109261418Y-58582597D01*
X109267712Y-58569290D01*
X109275280Y-58556664D01*
X109284048Y-58544841D01*
X109293934Y-58533934D01*
X109304841Y-58524048D01*
X109316664Y-58515280D01*
X109329290Y-58507712D01*
X109342597Y-58501418D01*
X109356457Y-58496459D01*
X109370736Y-58492882D01*
X109385297Y-58490722D01*
X109400000Y-58490000D01*
X111050000Y-58490000D01*
X111064703Y-58490722D01*
X111064703Y-58490722D01*
G37*
D16*
X110225000Y-58790000D03*
D10*
G36*
X111064703Y-59760722D02*
G01*
X111079264Y-59762882D01*
X111093543Y-59766459D01*
X111107403Y-59771418D01*
X111120710Y-59777712D01*
X111133336Y-59785280D01*
X111145159Y-59794048D01*
X111156066Y-59803934D01*
X111165952Y-59814841D01*
X111174720Y-59826664D01*
X111182288Y-59839290D01*
X111188582Y-59852597D01*
X111193541Y-59866457D01*
X111197118Y-59880736D01*
X111199278Y-59895297D01*
X111200000Y-59910000D01*
X111200000Y-60210000D01*
X111199278Y-60224703D01*
X111197118Y-60239264D01*
X111193541Y-60253543D01*
X111188582Y-60267403D01*
X111182288Y-60280710D01*
X111174720Y-60293336D01*
X111165952Y-60305159D01*
X111156066Y-60316066D01*
X111145159Y-60325952D01*
X111133336Y-60334720D01*
X111120710Y-60342288D01*
X111107403Y-60348582D01*
X111093543Y-60353541D01*
X111079264Y-60357118D01*
X111064703Y-60359278D01*
X111050000Y-60360000D01*
X109400000Y-60360000D01*
X109385297Y-60359278D01*
X109370736Y-60357118D01*
X109356457Y-60353541D01*
X109342597Y-60348582D01*
X109329290Y-60342288D01*
X109316664Y-60334720D01*
X109304841Y-60325952D01*
X109293934Y-60316066D01*
X109284048Y-60305159D01*
X109275280Y-60293336D01*
X109267712Y-60280710D01*
X109261418Y-60267403D01*
X109256459Y-60253543D01*
X109252882Y-60239264D01*
X109250722Y-60224703D01*
X109250000Y-60210000D01*
X109250000Y-59910000D01*
X109250722Y-59895297D01*
X109252882Y-59880736D01*
X109256459Y-59866457D01*
X109261418Y-59852597D01*
X109267712Y-59839290D01*
X109275280Y-59826664D01*
X109284048Y-59814841D01*
X109293934Y-59803934D01*
X109304841Y-59794048D01*
X109316664Y-59785280D01*
X109329290Y-59777712D01*
X109342597Y-59771418D01*
X109356457Y-59766459D01*
X109370736Y-59762882D01*
X109385297Y-59760722D01*
X109400000Y-59760000D01*
X111050000Y-59760000D01*
X111064703Y-59760722D01*
X111064703Y-59760722D01*
G37*
D16*
X110225000Y-60060000D03*
D10*
G36*
X111064703Y-61030722D02*
G01*
X111079264Y-61032882D01*
X111093543Y-61036459D01*
X111107403Y-61041418D01*
X111120710Y-61047712D01*
X111133336Y-61055280D01*
X111145159Y-61064048D01*
X111156066Y-61073934D01*
X111165952Y-61084841D01*
X111174720Y-61096664D01*
X111182288Y-61109290D01*
X111188582Y-61122597D01*
X111193541Y-61136457D01*
X111197118Y-61150736D01*
X111199278Y-61165297D01*
X111200000Y-61180000D01*
X111200000Y-61480000D01*
X111199278Y-61494703D01*
X111197118Y-61509264D01*
X111193541Y-61523543D01*
X111188582Y-61537403D01*
X111182288Y-61550710D01*
X111174720Y-61563336D01*
X111165952Y-61575159D01*
X111156066Y-61586066D01*
X111145159Y-61595952D01*
X111133336Y-61604720D01*
X111120710Y-61612288D01*
X111107403Y-61618582D01*
X111093543Y-61623541D01*
X111079264Y-61627118D01*
X111064703Y-61629278D01*
X111050000Y-61630000D01*
X109400000Y-61630000D01*
X109385297Y-61629278D01*
X109370736Y-61627118D01*
X109356457Y-61623541D01*
X109342597Y-61618582D01*
X109329290Y-61612288D01*
X109316664Y-61604720D01*
X109304841Y-61595952D01*
X109293934Y-61586066D01*
X109284048Y-61575159D01*
X109275280Y-61563336D01*
X109267712Y-61550710D01*
X109261418Y-61537403D01*
X109256459Y-61523543D01*
X109252882Y-61509264D01*
X109250722Y-61494703D01*
X109250000Y-61480000D01*
X109250000Y-61180000D01*
X109250722Y-61165297D01*
X109252882Y-61150736D01*
X109256459Y-61136457D01*
X109261418Y-61122597D01*
X109267712Y-61109290D01*
X109275280Y-61096664D01*
X109284048Y-61084841D01*
X109293934Y-61073934D01*
X109304841Y-61064048D01*
X109316664Y-61055280D01*
X109329290Y-61047712D01*
X109342597Y-61041418D01*
X109356457Y-61036459D01*
X109370736Y-61032882D01*
X109385297Y-61030722D01*
X109400000Y-61030000D01*
X111050000Y-61030000D01*
X111064703Y-61030722D01*
X111064703Y-61030722D01*
G37*
D16*
X110225000Y-61330000D03*
D10*
G36*
X111064703Y-62300722D02*
G01*
X111079264Y-62302882D01*
X111093543Y-62306459D01*
X111107403Y-62311418D01*
X111120710Y-62317712D01*
X111133336Y-62325280D01*
X111145159Y-62334048D01*
X111156066Y-62343934D01*
X111165952Y-62354841D01*
X111174720Y-62366664D01*
X111182288Y-62379290D01*
X111188582Y-62392597D01*
X111193541Y-62406457D01*
X111197118Y-62420736D01*
X111199278Y-62435297D01*
X111200000Y-62450000D01*
X111200000Y-62750000D01*
X111199278Y-62764703D01*
X111197118Y-62779264D01*
X111193541Y-62793543D01*
X111188582Y-62807403D01*
X111182288Y-62820710D01*
X111174720Y-62833336D01*
X111165952Y-62845159D01*
X111156066Y-62856066D01*
X111145159Y-62865952D01*
X111133336Y-62874720D01*
X111120710Y-62882288D01*
X111107403Y-62888582D01*
X111093543Y-62893541D01*
X111079264Y-62897118D01*
X111064703Y-62899278D01*
X111050000Y-62900000D01*
X109400000Y-62900000D01*
X109385297Y-62899278D01*
X109370736Y-62897118D01*
X109356457Y-62893541D01*
X109342597Y-62888582D01*
X109329290Y-62882288D01*
X109316664Y-62874720D01*
X109304841Y-62865952D01*
X109293934Y-62856066D01*
X109284048Y-62845159D01*
X109275280Y-62833336D01*
X109267712Y-62820710D01*
X109261418Y-62807403D01*
X109256459Y-62793543D01*
X109252882Y-62779264D01*
X109250722Y-62764703D01*
X109250000Y-62750000D01*
X109250000Y-62450000D01*
X109250722Y-62435297D01*
X109252882Y-62420736D01*
X109256459Y-62406457D01*
X109261418Y-62392597D01*
X109267712Y-62379290D01*
X109275280Y-62366664D01*
X109284048Y-62354841D01*
X109293934Y-62343934D01*
X109304841Y-62334048D01*
X109316664Y-62325280D01*
X109329290Y-62317712D01*
X109342597Y-62311418D01*
X109356457Y-62306459D01*
X109370736Y-62302882D01*
X109385297Y-62300722D01*
X109400000Y-62300000D01*
X111050000Y-62300000D01*
X111064703Y-62300722D01*
X111064703Y-62300722D01*
G37*
D16*
X110225000Y-62600000D03*
D10*
G36*
X111064703Y-63570722D02*
G01*
X111079264Y-63572882D01*
X111093543Y-63576459D01*
X111107403Y-63581418D01*
X111120710Y-63587712D01*
X111133336Y-63595280D01*
X111145159Y-63604048D01*
X111156066Y-63613934D01*
X111165952Y-63624841D01*
X111174720Y-63636664D01*
X111182288Y-63649290D01*
X111188582Y-63662597D01*
X111193541Y-63676457D01*
X111197118Y-63690736D01*
X111199278Y-63705297D01*
X111200000Y-63720000D01*
X111200000Y-64020000D01*
X111199278Y-64034703D01*
X111197118Y-64049264D01*
X111193541Y-64063543D01*
X111188582Y-64077403D01*
X111182288Y-64090710D01*
X111174720Y-64103336D01*
X111165952Y-64115159D01*
X111156066Y-64126066D01*
X111145159Y-64135952D01*
X111133336Y-64144720D01*
X111120710Y-64152288D01*
X111107403Y-64158582D01*
X111093543Y-64163541D01*
X111079264Y-64167118D01*
X111064703Y-64169278D01*
X111050000Y-64170000D01*
X109400000Y-64170000D01*
X109385297Y-64169278D01*
X109370736Y-64167118D01*
X109356457Y-64163541D01*
X109342597Y-64158582D01*
X109329290Y-64152288D01*
X109316664Y-64144720D01*
X109304841Y-64135952D01*
X109293934Y-64126066D01*
X109284048Y-64115159D01*
X109275280Y-64103336D01*
X109267712Y-64090710D01*
X109261418Y-64077403D01*
X109256459Y-64063543D01*
X109252882Y-64049264D01*
X109250722Y-64034703D01*
X109250000Y-64020000D01*
X109250000Y-63720000D01*
X109250722Y-63705297D01*
X109252882Y-63690736D01*
X109256459Y-63676457D01*
X109261418Y-63662597D01*
X109267712Y-63649290D01*
X109275280Y-63636664D01*
X109284048Y-63624841D01*
X109293934Y-63613934D01*
X109304841Y-63604048D01*
X109316664Y-63595280D01*
X109329290Y-63587712D01*
X109342597Y-63581418D01*
X109356457Y-63576459D01*
X109370736Y-63572882D01*
X109385297Y-63570722D01*
X109400000Y-63570000D01*
X111050000Y-63570000D01*
X111064703Y-63570722D01*
X111064703Y-63570722D01*
G37*
D16*
X110225000Y-63870000D03*
D10*
G36*
X111064703Y-64840722D02*
G01*
X111079264Y-64842882D01*
X111093543Y-64846459D01*
X111107403Y-64851418D01*
X111120710Y-64857712D01*
X111133336Y-64865280D01*
X111145159Y-64874048D01*
X111156066Y-64883934D01*
X111165952Y-64894841D01*
X111174720Y-64906664D01*
X111182288Y-64919290D01*
X111188582Y-64932597D01*
X111193541Y-64946457D01*
X111197118Y-64960736D01*
X111199278Y-64975297D01*
X111200000Y-64990000D01*
X111200000Y-65290000D01*
X111199278Y-65304703D01*
X111197118Y-65319264D01*
X111193541Y-65333543D01*
X111188582Y-65347403D01*
X111182288Y-65360710D01*
X111174720Y-65373336D01*
X111165952Y-65385159D01*
X111156066Y-65396066D01*
X111145159Y-65405952D01*
X111133336Y-65414720D01*
X111120710Y-65422288D01*
X111107403Y-65428582D01*
X111093543Y-65433541D01*
X111079264Y-65437118D01*
X111064703Y-65439278D01*
X111050000Y-65440000D01*
X109400000Y-65440000D01*
X109385297Y-65439278D01*
X109370736Y-65437118D01*
X109356457Y-65433541D01*
X109342597Y-65428582D01*
X109329290Y-65422288D01*
X109316664Y-65414720D01*
X109304841Y-65405952D01*
X109293934Y-65396066D01*
X109284048Y-65385159D01*
X109275280Y-65373336D01*
X109267712Y-65360710D01*
X109261418Y-65347403D01*
X109256459Y-65333543D01*
X109252882Y-65319264D01*
X109250722Y-65304703D01*
X109250000Y-65290000D01*
X109250000Y-64990000D01*
X109250722Y-64975297D01*
X109252882Y-64960736D01*
X109256459Y-64946457D01*
X109261418Y-64932597D01*
X109267712Y-64919290D01*
X109275280Y-64906664D01*
X109284048Y-64894841D01*
X109293934Y-64883934D01*
X109304841Y-64874048D01*
X109316664Y-64865280D01*
X109329290Y-64857712D01*
X109342597Y-64851418D01*
X109356457Y-64846459D01*
X109370736Y-64842882D01*
X109385297Y-64840722D01*
X109400000Y-64840000D01*
X111050000Y-64840000D01*
X111064703Y-64840722D01*
X111064703Y-64840722D01*
G37*
D16*
X110225000Y-65140000D03*
D10*
G36*
X111064703Y-66110722D02*
G01*
X111079264Y-66112882D01*
X111093543Y-66116459D01*
X111107403Y-66121418D01*
X111120710Y-66127712D01*
X111133336Y-66135280D01*
X111145159Y-66144048D01*
X111156066Y-66153934D01*
X111165952Y-66164841D01*
X111174720Y-66176664D01*
X111182288Y-66189290D01*
X111188582Y-66202597D01*
X111193541Y-66216457D01*
X111197118Y-66230736D01*
X111199278Y-66245297D01*
X111200000Y-66260000D01*
X111200000Y-66560000D01*
X111199278Y-66574703D01*
X111197118Y-66589264D01*
X111193541Y-66603543D01*
X111188582Y-66617403D01*
X111182288Y-66630710D01*
X111174720Y-66643336D01*
X111165952Y-66655159D01*
X111156066Y-66666066D01*
X111145159Y-66675952D01*
X111133336Y-66684720D01*
X111120710Y-66692288D01*
X111107403Y-66698582D01*
X111093543Y-66703541D01*
X111079264Y-66707118D01*
X111064703Y-66709278D01*
X111050000Y-66710000D01*
X109400000Y-66710000D01*
X109385297Y-66709278D01*
X109370736Y-66707118D01*
X109356457Y-66703541D01*
X109342597Y-66698582D01*
X109329290Y-66692288D01*
X109316664Y-66684720D01*
X109304841Y-66675952D01*
X109293934Y-66666066D01*
X109284048Y-66655159D01*
X109275280Y-66643336D01*
X109267712Y-66630710D01*
X109261418Y-66617403D01*
X109256459Y-66603543D01*
X109252882Y-66589264D01*
X109250722Y-66574703D01*
X109250000Y-66560000D01*
X109250000Y-66260000D01*
X109250722Y-66245297D01*
X109252882Y-66230736D01*
X109256459Y-66216457D01*
X109261418Y-66202597D01*
X109267712Y-66189290D01*
X109275280Y-66176664D01*
X109284048Y-66164841D01*
X109293934Y-66153934D01*
X109304841Y-66144048D01*
X109316664Y-66135280D01*
X109329290Y-66127712D01*
X109342597Y-66121418D01*
X109356457Y-66116459D01*
X109370736Y-66112882D01*
X109385297Y-66110722D01*
X109400000Y-66110000D01*
X111050000Y-66110000D01*
X111064703Y-66110722D01*
X111064703Y-66110722D01*
G37*
D16*
X110225000Y-66410000D03*
D10*
G36*
X116014703Y-66110722D02*
G01*
X116029264Y-66112882D01*
X116043543Y-66116459D01*
X116057403Y-66121418D01*
X116070710Y-66127712D01*
X116083336Y-66135280D01*
X116095159Y-66144048D01*
X116106066Y-66153934D01*
X116115952Y-66164841D01*
X116124720Y-66176664D01*
X116132288Y-66189290D01*
X116138582Y-66202597D01*
X116143541Y-66216457D01*
X116147118Y-66230736D01*
X116149278Y-66245297D01*
X116150000Y-66260000D01*
X116150000Y-66560000D01*
X116149278Y-66574703D01*
X116147118Y-66589264D01*
X116143541Y-66603543D01*
X116138582Y-66617403D01*
X116132288Y-66630710D01*
X116124720Y-66643336D01*
X116115952Y-66655159D01*
X116106066Y-66666066D01*
X116095159Y-66675952D01*
X116083336Y-66684720D01*
X116070710Y-66692288D01*
X116057403Y-66698582D01*
X116043543Y-66703541D01*
X116029264Y-66707118D01*
X116014703Y-66709278D01*
X116000000Y-66710000D01*
X114350000Y-66710000D01*
X114335297Y-66709278D01*
X114320736Y-66707118D01*
X114306457Y-66703541D01*
X114292597Y-66698582D01*
X114279290Y-66692288D01*
X114266664Y-66684720D01*
X114254841Y-66675952D01*
X114243934Y-66666066D01*
X114234048Y-66655159D01*
X114225280Y-66643336D01*
X114217712Y-66630710D01*
X114211418Y-66617403D01*
X114206459Y-66603543D01*
X114202882Y-66589264D01*
X114200722Y-66574703D01*
X114200000Y-66560000D01*
X114200000Y-66260000D01*
X114200722Y-66245297D01*
X114202882Y-66230736D01*
X114206459Y-66216457D01*
X114211418Y-66202597D01*
X114217712Y-66189290D01*
X114225280Y-66176664D01*
X114234048Y-66164841D01*
X114243934Y-66153934D01*
X114254841Y-66144048D01*
X114266664Y-66135280D01*
X114279290Y-66127712D01*
X114292597Y-66121418D01*
X114306457Y-66116459D01*
X114320736Y-66112882D01*
X114335297Y-66110722D01*
X114350000Y-66110000D01*
X116000000Y-66110000D01*
X116014703Y-66110722D01*
X116014703Y-66110722D01*
G37*
D16*
X115175000Y-66410000D03*
D10*
G36*
X116014703Y-64840722D02*
G01*
X116029264Y-64842882D01*
X116043543Y-64846459D01*
X116057403Y-64851418D01*
X116070710Y-64857712D01*
X116083336Y-64865280D01*
X116095159Y-64874048D01*
X116106066Y-64883934D01*
X116115952Y-64894841D01*
X116124720Y-64906664D01*
X116132288Y-64919290D01*
X116138582Y-64932597D01*
X116143541Y-64946457D01*
X116147118Y-64960736D01*
X116149278Y-64975297D01*
X116150000Y-64990000D01*
X116150000Y-65290000D01*
X116149278Y-65304703D01*
X116147118Y-65319264D01*
X116143541Y-65333543D01*
X116138582Y-65347403D01*
X116132288Y-65360710D01*
X116124720Y-65373336D01*
X116115952Y-65385159D01*
X116106066Y-65396066D01*
X116095159Y-65405952D01*
X116083336Y-65414720D01*
X116070710Y-65422288D01*
X116057403Y-65428582D01*
X116043543Y-65433541D01*
X116029264Y-65437118D01*
X116014703Y-65439278D01*
X116000000Y-65440000D01*
X114350000Y-65440000D01*
X114335297Y-65439278D01*
X114320736Y-65437118D01*
X114306457Y-65433541D01*
X114292597Y-65428582D01*
X114279290Y-65422288D01*
X114266664Y-65414720D01*
X114254841Y-65405952D01*
X114243934Y-65396066D01*
X114234048Y-65385159D01*
X114225280Y-65373336D01*
X114217712Y-65360710D01*
X114211418Y-65347403D01*
X114206459Y-65333543D01*
X114202882Y-65319264D01*
X114200722Y-65304703D01*
X114200000Y-65290000D01*
X114200000Y-64990000D01*
X114200722Y-64975297D01*
X114202882Y-64960736D01*
X114206459Y-64946457D01*
X114211418Y-64932597D01*
X114217712Y-64919290D01*
X114225280Y-64906664D01*
X114234048Y-64894841D01*
X114243934Y-64883934D01*
X114254841Y-64874048D01*
X114266664Y-64865280D01*
X114279290Y-64857712D01*
X114292597Y-64851418D01*
X114306457Y-64846459D01*
X114320736Y-64842882D01*
X114335297Y-64840722D01*
X114350000Y-64840000D01*
X116000000Y-64840000D01*
X116014703Y-64840722D01*
X116014703Y-64840722D01*
G37*
D16*
X115175000Y-65140000D03*
D10*
G36*
X116014703Y-63570722D02*
G01*
X116029264Y-63572882D01*
X116043543Y-63576459D01*
X116057403Y-63581418D01*
X116070710Y-63587712D01*
X116083336Y-63595280D01*
X116095159Y-63604048D01*
X116106066Y-63613934D01*
X116115952Y-63624841D01*
X116124720Y-63636664D01*
X116132288Y-63649290D01*
X116138582Y-63662597D01*
X116143541Y-63676457D01*
X116147118Y-63690736D01*
X116149278Y-63705297D01*
X116150000Y-63720000D01*
X116150000Y-64020000D01*
X116149278Y-64034703D01*
X116147118Y-64049264D01*
X116143541Y-64063543D01*
X116138582Y-64077403D01*
X116132288Y-64090710D01*
X116124720Y-64103336D01*
X116115952Y-64115159D01*
X116106066Y-64126066D01*
X116095159Y-64135952D01*
X116083336Y-64144720D01*
X116070710Y-64152288D01*
X116057403Y-64158582D01*
X116043543Y-64163541D01*
X116029264Y-64167118D01*
X116014703Y-64169278D01*
X116000000Y-64170000D01*
X114350000Y-64170000D01*
X114335297Y-64169278D01*
X114320736Y-64167118D01*
X114306457Y-64163541D01*
X114292597Y-64158582D01*
X114279290Y-64152288D01*
X114266664Y-64144720D01*
X114254841Y-64135952D01*
X114243934Y-64126066D01*
X114234048Y-64115159D01*
X114225280Y-64103336D01*
X114217712Y-64090710D01*
X114211418Y-64077403D01*
X114206459Y-64063543D01*
X114202882Y-64049264D01*
X114200722Y-64034703D01*
X114200000Y-64020000D01*
X114200000Y-63720000D01*
X114200722Y-63705297D01*
X114202882Y-63690736D01*
X114206459Y-63676457D01*
X114211418Y-63662597D01*
X114217712Y-63649290D01*
X114225280Y-63636664D01*
X114234048Y-63624841D01*
X114243934Y-63613934D01*
X114254841Y-63604048D01*
X114266664Y-63595280D01*
X114279290Y-63587712D01*
X114292597Y-63581418D01*
X114306457Y-63576459D01*
X114320736Y-63572882D01*
X114335297Y-63570722D01*
X114350000Y-63570000D01*
X116000000Y-63570000D01*
X116014703Y-63570722D01*
X116014703Y-63570722D01*
G37*
D16*
X115175000Y-63870000D03*
D10*
G36*
X116014703Y-62300722D02*
G01*
X116029264Y-62302882D01*
X116043543Y-62306459D01*
X116057403Y-62311418D01*
X116070710Y-62317712D01*
X116083336Y-62325280D01*
X116095159Y-62334048D01*
X116106066Y-62343934D01*
X116115952Y-62354841D01*
X116124720Y-62366664D01*
X116132288Y-62379290D01*
X116138582Y-62392597D01*
X116143541Y-62406457D01*
X116147118Y-62420736D01*
X116149278Y-62435297D01*
X116150000Y-62450000D01*
X116150000Y-62750000D01*
X116149278Y-62764703D01*
X116147118Y-62779264D01*
X116143541Y-62793543D01*
X116138582Y-62807403D01*
X116132288Y-62820710D01*
X116124720Y-62833336D01*
X116115952Y-62845159D01*
X116106066Y-62856066D01*
X116095159Y-62865952D01*
X116083336Y-62874720D01*
X116070710Y-62882288D01*
X116057403Y-62888582D01*
X116043543Y-62893541D01*
X116029264Y-62897118D01*
X116014703Y-62899278D01*
X116000000Y-62900000D01*
X114350000Y-62900000D01*
X114335297Y-62899278D01*
X114320736Y-62897118D01*
X114306457Y-62893541D01*
X114292597Y-62888582D01*
X114279290Y-62882288D01*
X114266664Y-62874720D01*
X114254841Y-62865952D01*
X114243934Y-62856066D01*
X114234048Y-62845159D01*
X114225280Y-62833336D01*
X114217712Y-62820710D01*
X114211418Y-62807403D01*
X114206459Y-62793543D01*
X114202882Y-62779264D01*
X114200722Y-62764703D01*
X114200000Y-62750000D01*
X114200000Y-62450000D01*
X114200722Y-62435297D01*
X114202882Y-62420736D01*
X114206459Y-62406457D01*
X114211418Y-62392597D01*
X114217712Y-62379290D01*
X114225280Y-62366664D01*
X114234048Y-62354841D01*
X114243934Y-62343934D01*
X114254841Y-62334048D01*
X114266664Y-62325280D01*
X114279290Y-62317712D01*
X114292597Y-62311418D01*
X114306457Y-62306459D01*
X114320736Y-62302882D01*
X114335297Y-62300722D01*
X114350000Y-62300000D01*
X116000000Y-62300000D01*
X116014703Y-62300722D01*
X116014703Y-62300722D01*
G37*
D16*
X115175000Y-62600000D03*
D10*
G36*
X116014703Y-61030722D02*
G01*
X116029264Y-61032882D01*
X116043543Y-61036459D01*
X116057403Y-61041418D01*
X116070710Y-61047712D01*
X116083336Y-61055280D01*
X116095159Y-61064048D01*
X116106066Y-61073934D01*
X116115952Y-61084841D01*
X116124720Y-61096664D01*
X116132288Y-61109290D01*
X116138582Y-61122597D01*
X116143541Y-61136457D01*
X116147118Y-61150736D01*
X116149278Y-61165297D01*
X116150000Y-61180000D01*
X116150000Y-61480000D01*
X116149278Y-61494703D01*
X116147118Y-61509264D01*
X116143541Y-61523543D01*
X116138582Y-61537403D01*
X116132288Y-61550710D01*
X116124720Y-61563336D01*
X116115952Y-61575159D01*
X116106066Y-61586066D01*
X116095159Y-61595952D01*
X116083336Y-61604720D01*
X116070710Y-61612288D01*
X116057403Y-61618582D01*
X116043543Y-61623541D01*
X116029264Y-61627118D01*
X116014703Y-61629278D01*
X116000000Y-61630000D01*
X114350000Y-61630000D01*
X114335297Y-61629278D01*
X114320736Y-61627118D01*
X114306457Y-61623541D01*
X114292597Y-61618582D01*
X114279290Y-61612288D01*
X114266664Y-61604720D01*
X114254841Y-61595952D01*
X114243934Y-61586066D01*
X114234048Y-61575159D01*
X114225280Y-61563336D01*
X114217712Y-61550710D01*
X114211418Y-61537403D01*
X114206459Y-61523543D01*
X114202882Y-61509264D01*
X114200722Y-61494703D01*
X114200000Y-61480000D01*
X114200000Y-61180000D01*
X114200722Y-61165297D01*
X114202882Y-61150736D01*
X114206459Y-61136457D01*
X114211418Y-61122597D01*
X114217712Y-61109290D01*
X114225280Y-61096664D01*
X114234048Y-61084841D01*
X114243934Y-61073934D01*
X114254841Y-61064048D01*
X114266664Y-61055280D01*
X114279290Y-61047712D01*
X114292597Y-61041418D01*
X114306457Y-61036459D01*
X114320736Y-61032882D01*
X114335297Y-61030722D01*
X114350000Y-61030000D01*
X116000000Y-61030000D01*
X116014703Y-61030722D01*
X116014703Y-61030722D01*
G37*
D16*
X115175000Y-61330000D03*
D10*
G36*
X116014703Y-59760722D02*
G01*
X116029264Y-59762882D01*
X116043543Y-59766459D01*
X116057403Y-59771418D01*
X116070710Y-59777712D01*
X116083336Y-59785280D01*
X116095159Y-59794048D01*
X116106066Y-59803934D01*
X116115952Y-59814841D01*
X116124720Y-59826664D01*
X116132288Y-59839290D01*
X116138582Y-59852597D01*
X116143541Y-59866457D01*
X116147118Y-59880736D01*
X116149278Y-59895297D01*
X116150000Y-59910000D01*
X116150000Y-60210000D01*
X116149278Y-60224703D01*
X116147118Y-60239264D01*
X116143541Y-60253543D01*
X116138582Y-60267403D01*
X116132288Y-60280710D01*
X116124720Y-60293336D01*
X116115952Y-60305159D01*
X116106066Y-60316066D01*
X116095159Y-60325952D01*
X116083336Y-60334720D01*
X116070710Y-60342288D01*
X116057403Y-60348582D01*
X116043543Y-60353541D01*
X116029264Y-60357118D01*
X116014703Y-60359278D01*
X116000000Y-60360000D01*
X114350000Y-60360000D01*
X114335297Y-60359278D01*
X114320736Y-60357118D01*
X114306457Y-60353541D01*
X114292597Y-60348582D01*
X114279290Y-60342288D01*
X114266664Y-60334720D01*
X114254841Y-60325952D01*
X114243934Y-60316066D01*
X114234048Y-60305159D01*
X114225280Y-60293336D01*
X114217712Y-60280710D01*
X114211418Y-60267403D01*
X114206459Y-60253543D01*
X114202882Y-60239264D01*
X114200722Y-60224703D01*
X114200000Y-60210000D01*
X114200000Y-59910000D01*
X114200722Y-59895297D01*
X114202882Y-59880736D01*
X114206459Y-59866457D01*
X114211418Y-59852597D01*
X114217712Y-59839290D01*
X114225280Y-59826664D01*
X114234048Y-59814841D01*
X114243934Y-59803934D01*
X114254841Y-59794048D01*
X114266664Y-59785280D01*
X114279290Y-59777712D01*
X114292597Y-59771418D01*
X114306457Y-59766459D01*
X114320736Y-59762882D01*
X114335297Y-59760722D01*
X114350000Y-59760000D01*
X116000000Y-59760000D01*
X116014703Y-59760722D01*
X116014703Y-59760722D01*
G37*
D16*
X115175000Y-60060000D03*
D10*
G36*
X116014703Y-58490722D02*
G01*
X116029264Y-58492882D01*
X116043543Y-58496459D01*
X116057403Y-58501418D01*
X116070710Y-58507712D01*
X116083336Y-58515280D01*
X116095159Y-58524048D01*
X116106066Y-58533934D01*
X116115952Y-58544841D01*
X116124720Y-58556664D01*
X116132288Y-58569290D01*
X116138582Y-58582597D01*
X116143541Y-58596457D01*
X116147118Y-58610736D01*
X116149278Y-58625297D01*
X116150000Y-58640000D01*
X116150000Y-58940000D01*
X116149278Y-58954703D01*
X116147118Y-58969264D01*
X116143541Y-58983543D01*
X116138582Y-58997403D01*
X116132288Y-59010710D01*
X116124720Y-59023336D01*
X116115952Y-59035159D01*
X116106066Y-59046066D01*
X116095159Y-59055952D01*
X116083336Y-59064720D01*
X116070710Y-59072288D01*
X116057403Y-59078582D01*
X116043543Y-59083541D01*
X116029264Y-59087118D01*
X116014703Y-59089278D01*
X116000000Y-59090000D01*
X114350000Y-59090000D01*
X114335297Y-59089278D01*
X114320736Y-59087118D01*
X114306457Y-59083541D01*
X114292597Y-59078582D01*
X114279290Y-59072288D01*
X114266664Y-59064720D01*
X114254841Y-59055952D01*
X114243934Y-59046066D01*
X114234048Y-59035159D01*
X114225280Y-59023336D01*
X114217712Y-59010710D01*
X114211418Y-58997403D01*
X114206459Y-58983543D01*
X114202882Y-58969264D01*
X114200722Y-58954703D01*
X114200000Y-58940000D01*
X114200000Y-58640000D01*
X114200722Y-58625297D01*
X114202882Y-58610736D01*
X114206459Y-58596457D01*
X114211418Y-58582597D01*
X114217712Y-58569290D01*
X114225280Y-58556664D01*
X114234048Y-58544841D01*
X114243934Y-58533934D01*
X114254841Y-58524048D01*
X114266664Y-58515280D01*
X114279290Y-58507712D01*
X114292597Y-58501418D01*
X114306457Y-58496459D01*
X114320736Y-58492882D01*
X114335297Y-58490722D01*
X114350000Y-58490000D01*
X116000000Y-58490000D01*
X116014703Y-58490722D01*
X116014703Y-58490722D01*
G37*
D16*
X115175000Y-58790000D03*
D10*
G36*
X108160779Y-64501144D02*
G01*
X108183834Y-64504563D01*
X108206443Y-64510227D01*
X108228387Y-64518079D01*
X108249457Y-64528044D01*
X108269448Y-64540026D01*
X108288168Y-64553910D01*
X108305438Y-64569562D01*
X108321090Y-64586832D01*
X108334974Y-64605552D01*
X108346956Y-64625543D01*
X108356921Y-64646613D01*
X108364773Y-64668557D01*
X108370437Y-64691166D01*
X108373856Y-64714221D01*
X108375000Y-64737500D01*
X108375000Y-65312500D01*
X108373856Y-65335779D01*
X108370437Y-65358834D01*
X108364773Y-65381443D01*
X108356921Y-65403387D01*
X108346956Y-65424457D01*
X108334974Y-65444448D01*
X108321090Y-65463168D01*
X108305438Y-65480438D01*
X108288168Y-65496090D01*
X108269448Y-65509974D01*
X108249457Y-65521956D01*
X108228387Y-65531921D01*
X108206443Y-65539773D01*
X108183834Y-65545437D01*
X108160779Y-65548856D01*
X108137500Y-65550000D01*
X107662500Y-65550000D01*
X107639221Y-65548856D01*
X107616166Y-65545437D01*
X107593557Y-65539773D01*
X107571613Y-65531921D01*
X107550543Y-65521956D01*
X107530552Y-65509974D01*
X107511832Y-65496090D01*
X107494562Y-65480438D01*
X107478910Y-65463168D01*
X107465026Y-65444448D01*
X107453044Y-65424457D01*
X107443079Y-65403387D01*
X107435227Y-65381443D01*
X107429563Y-65358834D01*
X107426144Y-65335779D01*
X107425000Y-65312500D01*
X107425000Y-64737500D01*
X107426144Y-64714221D01*
X107429563Y-64691166D01*
X107435227Y-64668557D01*
X107443079Y-64646613D01*
X107453044Y-64625543D01*
X107465026Y-64605552D01*
X107478910Y-64586832D01*
X107494562Y-64569562D01*
X107511832Y-64553910D01*
X107530552Y-64540026D01*
X107550543Y-64528044D01*
X107571613Y-64518079D01*
X107593557Y-64510227D01*
X107616166Y-64504563D01*
X107639221Y-64501144D01*
X107662500Y-64500000D01*
X108137500Y-64500000D01*
X108160779Y-64501144D01*
X108160779Y-64501144D01*
G37*
D13*
X107900000Y-65025000D03*
D10*
G36*
X108160779Y-66251144D02*
G01*
X108183834Y-66254563D01*
X108206443Y-66260227D01*
X108228387Y-66268079D01*
X108249457Y-66278044D01*
X108269448Y-66290026D01*
X108288168Y-66303910D01*
X108305438Y-66319562D01*
X108321090Y-66336832D01*
X108334974Y-66355552D01*
X108346956Y-66375543D01*
X108356921Y-66396613D01*
X108364773Y-66418557D01*
X108370437Y-66441166D01*
X108373856Y-66464221D01*
X108375000Y-66487500D01*
X108375000Y-67062500D01*
X108373856Y-67085779D01*
X108370437Y-67108834D01*
X108364773Y-67131443D01*
X108356921Y-67153387D01*
X108346956Y-67174457D01*
X108334974Y-67194448D01*
X108321090Y-67213168D01*
X108305438Y-67230438D01*
X108288168Y-67246090D01*
X108269448Y-67259974D01*
X108249457Y-67271956D01*
X108228387Y-67281921D01*
X108206443Y-67289773D01*
X108183834Y-67295437D01*
X108160779Y-67298856D01*
X108137500Y-67300000D01*
X107662500Y-67300000D01*
X107639221Y-67298856D01*
X107616166Y-67295437D01*
X107593557Y-67289773D01*
X107571613Y-67281921D01*
X107550543Y-67271956D01*
X107530552Y-67259974D01*
X107511832Y-67246090D01*
X107494562Y-67230438D01*
X107478910Y-67213168D01*
X107465026Y-67194448D01*
X107453044Y-67174457D01*
X107443079Y-67153387D01*
X107435227Y-67131443D01*
X107429563Y-67108834D01*
X107426144Y-67085779D01*
X107425000Y-67062500D01*
X107425000Y-66487500D01*
X107426144Y-66464221D01*
X107429563Y-66441166D01*
X107435227Y-66418557D01*
X107443079Y-66396613D01*
X107453044Y-66375543D01*
X107465026Y-66355552D01*
X107478910Y-66336832D01*
X107494562Y-66319562D01*
X107511832Y-66303910D01*
X107530552Y-66290026D01*
X107550543Y-66278044D01*
X107571613Y-66268079D01*
X107593557Y-66260227D01*
X107616166Y-66254563D01*
X107639221Y-66251144D01*
X107662500Y-66250000D01*
X108137500Y-66250000D01*
X108160779Y-66251144D01*
X108160779Y-66251144D01*
G37*
D13*
X107900000Y-66775000D03*
D10*
G36*
X119785779Y-66326144D02*
G01*
X119808834Y-66329563D01*
X119831443Y-66335227D01*
X119853387Y-66343079D01*
X119874457Y-66353044D01*
X119894448Y-66365026D01*
X119913168Y-66378910D01*
X119930438Y-66394562D01*
X119946090Y-66411832D01*
X119959974Y-66430552D01*
X119971956Y-66450543D01*
X119981921Y-66471613D01*
X119989773Y-66493557D01*
X119995437Y-66516166D01*
X119998856Y-66539221D01*
X120000000Y-66562500D01*
X120000000Y-67037500D01*
X119998856Y-67060779D01*
X119995437Y-67083834D01*
X119989773Y-67106443D01*
X119981921Y-67128387D01*
X119971956Y-67149457D01*
X119959974Y-67169448D01*
X119946090Y-67188168D01*
X119930438Y-67205438D01*
X119913168Y-67221090D01*
X119894448Y-67234974D01*
X119874457Y-67246956D01*
X119853387Y-67256921D01*
X119831443Y-67264773D01*
X119808834Y-67270437D01*
X119785779Y-67273856D01*
X119762500Y-67275000D01*
X119187500Y-67275000D01*
X119164221Y-67273856D01*
X119141166Y-67270437D01*
X119118557Y-67264773D01*
X119096613Y-67256921D01*
X119075543Y-67246956D01*
X119055552Y-67234974D01*
X119036832Y-67221090D01*
X119019562Y-67205438D01*
X119003910Y-67188168D01*
X118990026Y-67169448D01*
X118978044Y-67149457D01*
X118968079Y-67128387D01*
X118960227Y-67106443D01*
X118954563Y-67083834D01*
X118951144Y-67060779D01*
X118950000Y-67037500D01*
X118950000Y-66562500D01*
X118951144Y-66539221D01*
X118954563Y-66516166D01*
X118960227Y-66493557D01*
X118968079Y-66471613D01*
X118978044Y-66450543D01*
X118990026Y-66430552D01*
X119003910Y-66411832D01*
X119019562Y-66394562D01*
X119036832Y-66378910D01*
X119055552Y-66365026D01*
X119075543Y-66353044D01*
X119096613Y-66343079D01*
X119118557Y-66335227D01*
X119141166Y-66329563D01*
X119164221Y-66326144D01*
X119187500Y-66325000D01*
X119762500Y-66325000D01*
X119785779Y-66326144D01*
X119785779Y-66326144D01*
G37*
D13*
X119475000Y-66800000D03*
D10*
G36*
X118035779Y-66326144D02*
G01*
X118058834Y-66329563D01*
X118081443Y-66335227D01*
X118103387Y-66343079D01*
X118124457Y-66353044D01*
X118144448Y-66365026D01*
X118163168Y-66378910D01*
X118180438Y-66394562D01*
X118196090Y-66411832D01*
X118209974Y-66430552D01*
X118221956Y-66450543D01*
X118231921Y-66471613D01*
X118239773Y-66493557D01*
X118245437Y-66516166D01*
X118248856Y-66539221D01*
X118250000Y-66562500D01*
X118250000Y-67037500D01*
X118248856Y-67060779D01*
X118245437Y-67083834D01*
X118239773Y-67106443D01*
X118231921Y-67128387D01*
X118221956Y-67149457D01*
X118209974Y-67169448D01*
X118196090Y-67188168D01*
X118180438Y-67205438D01*
X118163168Y-67221090D01*
X118144448Y-67234974D01*
X118124457Y-67246956D01*
X118103387Y-67256921D01*
X118081443Y-67264773D01*
X118058834Y-67270437D01*
X118035779Y-67273856D01*
X118012500Y-67275000D01*
X117437500Y-67275000D01*
X117414221Y-67273856D01*
X117391166Y-67270437D01*
X117368557Y-67264773D01*
X117346613Y-67256921D01*
X117325543Y-67246956D01*
X117305552Y-67234974D01*
X117286832Y-67221090D01*
X117269562Y-67205438D01*
X117253910Y-67188168D01*
X117240026Y-67169448D01*
X117228044Y-67149457D01*
X117218079Y-67128387D01*
X117210227Y-67106443D01*
X117204563Y-67083834D01*
X117201144Y-67060779D01*
X117200000Y-67037500D01*
X117200000Y-66562500D01*
X117201144Y-66539221D01*
X117204563Y-66516166D01*
X117210227Y-66493557D01*
X117218079Y-66471613D01*
X117228044Y-66450543D01*
X117240026Y-66430552D01*
X117253910Y-66411832D01*
X117269562Y-66394562D01*
X117286832Y-66378910D01*
X117305552Y-66365026D01*
X117325543Y-66353044D01*
X117346613Y-66343079D01*
X117368557Y-66335227D01*
X117391166Y-66329563D01*
X117414221Y-66326144D01*
X117437500Y-66325000D01*
X118012500Y-66325000D01*
X118035779Y-66326144D01*
X118035779Y-66326144D01*
G37*
D13*
X117725000Y-66800000D03*
D10*
G36*
X121185779Y-58276144D02*
G01*
X121208834Y-58279563D01*
X121231443Y-58285227D01*
X121253387Y-58293079D01*
X121274457Y-58303044D01*
X121294448Y-58315026D01*
X121313168Y-58328910D01*
X121330438Y-58344562D01*
X121346090Y-58361832D01*
X121359974Y-58380552D01*
X121371956Y-58400543D01*
X121381921Y-58421613D01*
X121389773Y-58443557D01*
X121395437Y-58466166D01*
X121398856Y-58489221D01*
X121400000Y-58512500D01*
X121400000Y-58987500D01*
X121398856Y-59010779D01*
X121395437Y-59033834D01*
X121389773Y-59056443D01*
X121381921Y-59078387D01*
X121371956Y-59099457D01*
X121359974Y-59119448D01*
X121346090Y-59138168D01*
X121330438Y-59155438D01*
X121313168Y-59171090D01*
X121294448Y-59184974D01*
X121274457Y-59196956D01*
X121253387Y-59206921D01*
X121231443Y-59214773D01*
X121208834Y-59220437D01*
X121185779Y-59223856D01*
X121162500Y-59225000D01*
X120587500Y-59225000D01*
X120564221Y-59223856D01*
X120541166Y-59220437D01*
X120518557Y-59214773D01*
X120496613Y-59206921D01*
X120475543Y-59196956D01*
X120455552Y-59184974D01*
X120436832Y-59171090D01*
X120419562Y-59155438D01*
X120403910Y-59138168D01*
X120390026Y-59119448D01*
X120378044Y-59099457D01*
X120368079Y-59078387D01*
X120360227Y-59056443D01*
X120354563Y-59033834D01*
X120351144Y-59010779D01*
X120350000Y-58987500D01*
X120350000Y-58512500D01*
X120351144Y-58489221D01*
X120354563Y-58466166D01*
X120360227Y-58443557D01*
X120368079Y-58421613D01*
X120378044Y-58400543D01*
X120390026Y-58380552D01*
X120403910Y-58361832D01*
X120419562Y-58344562D01*
X120436832Y-58328910D01*
X120455552Y-58315026D01*
X120475543Y-58303044D01*
X120496613Y-58293079D01*
X120518557Y-58285227D01*
X120541166Y-58279563D01*
X120564221Y-58276144D01*
X120587500Y-58275000D01*
X121162500Y-58275000D01*
X121185779Y-58276144D01*
X121185779Y-58276144D01*
G37*
D13*
X120875000Y-58750000D03*
D10*
G36*
X119435779Y-58276144D02*
G01*
X119458834Y-58279563D01*
X119481443Y-58285227D01*
X119503387Y-58293079D01*
X119524457Y-58303044D01*
X119544448Y-58315026D01*
X119563168Y-58328910D01*
X119580438Y-58344562D01*
X119596090Y-58361832D01*
X119609974Y-58380552D01*
X119621956Y-58400543D01*
X119631921Y-58421613D01*
X119639773Y-58443557D01*
X119645437Y-58466166D01*
X119648856Y-58489221D01*
X119650000Y-58512500D01*
X119650000Y-58987500D01*
X119648856Y-59010779D01*
X119645437Y-59033834D01*
X119639773Y-59056443D01*
X119631921Y-59078387D01*
X119621956Y-59099457D01*
X119609974Y-59119448D01*
X119596090Y-59138168D01*
X119580438Y-59155438D01*
X119563168Y-59171090D01*
X119544448Y-59184974D01*
X119524457Y-59196956D01*
X119503387Y-59206921D01*
X119481443Y-59214773D01*
X119458834Y-59220437D01*
X119435779Y-59223856D01*
X119412500Y-59225000D01*
X118837500Y-59225000D01*
X118814221Y-59223856D01*
X118791166Y-59220437D01*
X118768557Y-59214773D01*
X118746613Y-59206921D01*
X118725543Y-59196956D01*
X118705552Y-59184974D01*
X118686832Y-59171090D01*
X118669562Y-59155438D01*
X118653910Y-59138168D01*
X118640026Y-59119448D01*
X118628044Y-59099457D01*
X118618079Y-59078387D01*
X118610227Y-59056443D01*
X118604563Y-59033834D01*
X118601144Y-59010779D01*
X118600000Y-58987500D01*
X118600000Y-58512500D01*
X118601144Y-58489221D01*
X118604563Y-58466166D01*
X118610227Y-58443557D01*
X118618079Y-58421613D01*
X118628044Y-58400543D01*
X118640026Y-58380552D01*
X118653910Y-58361832D01*
X118669562Y-58344562D01*
X118686832Y-58328910D01*
X118705552Y-58315026D01*
X118725543Y-58303044D01*
X118746613Y-58293079D01*
X118768557Y-58285227D01*
X118791166Y-58279563D01*
X118814221Y-58276144D01*
X118837500Y-58275000D01*
X119412500Y-58275000D01*
X119435779Y-58276144D01*
X119435779Y-58276144D01*
G37*
D13*
X119125000Y-58750000D03*
D10*
G36*
X119510779Y-59851144D02*
G01*
X119533834Y-59854563D01*
X119556443Y-59860227D01*
X119578387Y-59868079D01*
X119599457Y-59878044D01*
X119619448Y-59890026D01*
X119638168Y-59903910D01*
X119655438Y-59919562D01*
X119671090Y-59936832D01*
X119684974Y-59955552D01*
X119696956Y-59975543D01*
X119706921Y-59996613D01*
X119714773Y-60018557D01*
X119720437Y-60041166D01*
X119723856Y-60064221D01*
X119725000Y-60087500D01*
X119725000Y-60662500D01*
X119723856Y-60685779D01*
X119720437Y-60708834D01*
X119714773Y-60731443D01*
X119706921Y-60753387D01*
X119696956Y-60774457D01*
X119684974Y-60794448D01*
X119671090Y-60813168D01*
X119655438Y-60830438D01*
X119638168Y-60846090D01*
X119619448Y-60859974D01*
X119599457Y-60871956D01*
X119578387Y-60881921D01*
X119556443Y-60889773D01*
X119533834Y-60895437D01*
X119510779Y-60898856D01*
X119487500Y-60900000D01*
X119012500Y-60900000D01*
X118989221Y-60898856D01*
X118966166Y-60895437D01*
X118943557Y-60889773D01*
X118921613Y-60881921D01*
X118900543Y-60871956D01*
X118880552Y-60859974D01*
X118861832Y-60846090D01*
X118844562Y-60830438D01*
X118828910Y-60813168D01*
X118815026Y-60794448D01*
X118803044Y-60774457D01*
X118793079Y-60753387D01*
X118785227Y-60731443D01*
X118779563Y-60708834D01*
X118776144Y-60685779D01*
X118775000Y-60662500D01*
X118775000Y-60087500D01*
X118776144Y-60064221D01*
X118779563Y-60041166D01*
X118785227Y-60018557D01*
X118793079Y-59996613D01*
X118803044Y-59975543D01*
X118815026Y-59955552D01*
X118828910Y-59936832D01*
X118844562Y-59919562D01*
X118861832Y-59903910D01*
X118880552Y-59890026D01*
X118900543Y-59878044D01*
X118921613Y-59868079D01*
X118943557Y-59860227D01*
X118966166Y-59854563D01*
X118989221Y-59851144D01*
X119012500Y-59850000D01*
X119487500Y-59850000D01*
X119510779Y-59851144D01*
X119510779Y-59851144D01*
G37*
D13*
X119250000Y-60375000D03*
D10*
G36*
X119510779Y-61601144D02*
G01*
X119533834Y-61604563D01*
X119556443Y-61610227D01*
X119578387Y-61618079D01*
X119599457Y-61628044D01*
X119619448Y-61640026D01*
X119638168Y-61653910D01*
X119655438Y-61669562D01*
X119671090Y-61686832D01*
X119684974Y-61705552D01*
X119696956Y-61725543D01*
X119706921Y-61746613D01*
X119714773Y-61768557D01*
X119720437Y-61791166D01*
X119723856Y-61814221D01*
X119725000Y-61837500D01*
X119725000Y-62412500D01*
X119723856Y-62435779D01*
X119720437Y-62458834D01*
X119714773Y-62481443D01*
X119706921Y-62503387D01*
X119696956Y-62524457D01*
X119684974Y-62544448D01*
X119671090Y-62563168D01*
X119655438Y-62580438D01*
X119638168Y-62596090D01*
X119619448Y-62609974D01*
X119599457Y-62621956D01*
X119578387Y-62631921D01*
X119556443Y-62639773D01*
X119533834Y-62645437D01*
X119510779Y-62648856D01*
X119487500Y-62650000D01*
X119012500Y-62650000D01*
X118989221Y-62648856D01*
X118966166Y-62645437D01*
X118943557Y-62639773D01*
X118921613Y-62631921D01*
X118900543Y-62621956D01*
X118880552Y-62609974D01*
X118861832Y-62596090D01*
X118844562Y-62580438D01*
X118828910Y-62563168D01*
X118815026Y-62544448D01*
X118803044Y-62524457D01*
X118793079Y-62503387D01*
X118785227Y-62481443D01*
X118779563Y-62458834D01*
X118776144Y-62435779D01*
X118775000Y-62412500D01*
X118775000Y-61837500D01*
X118776144Y-61814221D01*
X118779563Y-61791166D01*
X118785227Y-61768557D01*
X118793079Y-61746613D01*
X118803044Y-61725543D01*
X118815026Y-61705552D01*
X118828910Y-61686832D01*
X118844562Y-61669562D01*
X118861832Y-61653910D01*
X118880552Y-61640026D01*
X118900543Y-61628044D01*
X118921613Y-61618079D01*
X118943557Y-61610227D01*
X118966166Y-61604563D01*
X118989221Y-61601144D01*
X119012500Y-61600000D01*
X119487500Y-61600000D01*
X119510779Y-61601144D01*
X119510779Y-61601144D01*
G37*
D13*
X119250000Y-62125000D03*
D10*
G36*
X127335779Y-56726144D02*
G01*
X127358834Y-56729563D01*
X127381443Y-56735227D01*
X127403387Y-56743079D01*
X127424457Y-56753044D01*
X127444448Y-56765026D01*
X127463168Y-56778910D01*
X127480438Y-56794562D01*
X127496090Y-56811832D01*
X127509974Y-56830552D01*
X127521956Y-56850543D01*
X127531921Y-56871613D01*
X127539773Y-56893557D01*
X127545437Y-56916166D01*
X127548856Y-56939221D01*
X127550000Y-56962500D01*
X127550000Y-57437500D01*
X127548856Y-57460779D01*
X127545437Y-57483834D01*
X127539773Y-57506443D01*
X127531921Y-57528387D01*
X127521956Y-57549457D01*
X127509974Y-57569448D01*
X127496090Y-57588168D01*
X127480438Y-57605438D01*
X127463168Y-57621090D01*
X127444448Y-57634974D01*
X127424457Y-57646956D01*
X127403387Y-57656921D01*
X127381443Y-57664773D01*
X127358834Y-57670437D01*
X127335779Y-57673856D01*
X127312500Y-57675000D01*
X126737500Y-57675000D01*
X126714221Y-57673856D01*
X126691166Y-57670437D01*
X126668557Y-57664773D01*
X126646613Y-57656921D01*
X126625543Y-57646956D01*
X126605552Y-57634974D01*
X126586832Y-57621090D01*
X126569562Y-57605438D01*
X126553910Y-57588168D01*
X126540026Y-57569448D01*
X126528044Y-57549457D01*
X126518079Y-57528387D01*
X126510227Y-57506443D01*
X126504563Y-57483834D01*
X126501144Y-57460779D01*
X126500000Y-57437500D01*
X126500000Y-56962500D01*
X126501144Y-56939221D01*
X126504563Y-56916166D01*
X126510227Y-56893557D01*
X126518079Y-56871613D01*
X126528044Y-56850543D01*
X126540026Y-56830552D01*
X126553910Y-56811832D01*
X126569562Y-56794562D01*
X126586832Y-56778910D01*
X126605552Y-56765026D01*
X126625543Y-56753044D01*
X126646613Y-56743079D01*
X126668557Y-56735227D01*
X126691166Y-56729563D01*
X126714221Y-56726144D01*
X126737500Y-56725000D01*
X127312500Y-56725000D01*
X127335779Y-56726144D01*
X127335779Y-56726144D01*
G37*
D13*
X127025000Y-57200000D03*
D10*
G36*
X129085779Y-56726144D02*
G01*
X129108834Y-56729563D01*
X129131443Y-56735227D01*
X129153387Y-56743079D01*
X129174457Y-56753044D01*
X129194448Y-56765026D01*
X129213168Y-56778910D01*
X129230438Y-56794562D01*
X129246090Y-56811832D01*
X129259974Y-56830552D01*
X129271956Y-56850543D01*
X129281921Y-56871613D01*
X129289773Y-56893557D01*
X129295437Y-56916166D01*
X129298856Y-56939221D01*
X129300000Y-56962500D01*
X129300000Y-57437500D01*
X129298856Y-57460779D01*
X129295437Y-57483834D01*
X129289773Y-57506443D01*
X129281921Y-57528387D01*
X129271956Y-57549457D01*
X129259974Y-57569448D01*
X129246090Y-57588168D01*
X129230438Y-57605438D01*
X129213168Y-57621090D01*
X129194448Y-57634974D01*
X129174457Y-57646956D01*
X129153387Y-57656921D01*
X129131443Y-57664773D01*
X129108834Y-57670437D01*
X129085779Y-57673856D01*
X129062500Y-57675000D01*
X128487500Y-57675000D01*
X128464221Y-57673856D01*
X128441166Y-57670437D01*
X128418557Y-57664773D01*
X128396613Y-57656921D01*
X128375543Y-57646956D01*
X128355552Y-57634974D01*
X128336832Y-57621090D01*
X128319562Y-57605438D01*
X128303910Y-57588168D01*
X128290026Y-57569448D01*
X128278044Y-57549457D01*
X128268079Y-57528387D01*
X128260227Y-57506443D01*
X128254563Y-57483834D01*
X128251144Y-57460779D01*
X128250000Y-57437500D01*
X128250000Y-56962500D01*
X128251144Y-56939221D01*
X128254563Y-56916166D01*
X128260227Y-56893557D01*
X128268079Y-56871613D01*
X128278044Y-56850543D01*
X128290026Y-56830552D01*
X128303910Y-56811832D01*
X128319562Y-56794562D01*
X128336832Y-56778910D01*
X128355552Y-56765026D01*
X128375543Y-56753044D01*
X128396613Y-56743079D01*
X128418557Y-56735227D01*
X128441166Y-56729563D01*
X128464221Y-56726144D01*
X128487500Y-56725000D01*
X129062500Y-56725000D01*
X129085779Y-56726144D01*
X129085779Y-56726144D01*
G37*
D13*
X128775000Y-57200000D03*
D10*
G36*
X140835779Y-62876144D02*
G01*
X140858834Y-62879563D01*
X140881443Y-62885227D01*
X140903387Y-62893079D01*
X140924457Y-62903044D01*
X140944448Y-62915026D01*
X140963168Y-62928910D01*
X140980438Y-62944562D01*
X140996090Y-62961832D01*
X141009974Y-62980552D01*
X141021956Y-63000543D01*
X141031921Y-63021613D01*
X141039773Y-63043557D01*
X141045437Y-63066166D01*
X141048856Y-63089221D01*
X141050000Y-63112500D01*
X141050000Y-63587500D01*
X141048856Y-63610779D01*
X141045437Y-63633834D01*
X141039773Y-63656443D01*
X141031921Y-63678387D01*
X141021956Y-63699457D01*
X141009974Y-63719448D01*
X140996090Y-63738168D01*
X140980438Y-63755438D01*
X140963168Y-63771090D01*
X140944448Y-63784974D01*
X140924457Y-63796956D01*
X140903387Y-63806921D01*
X140881443Y-63814773D01*
X140858834Y-63820437D01*
X140835779Y-63823856D01*
X140812500Y-63825000D01*
X140237500Y-63825000D01*
X140214221Y-63823856D01*
X140191166Y-63820437D01*
X140168557Y-63814773D01*
X140146613Y-63806921D01*
X140125543Y-63796956D01*
X140105552Y-63784974D01*
X140086832Y-63771090D01*
X140069562Y-63755438D01*
X140053910Y-63738168D01*
X140040026Y-63719448D01*
X140028044Y-63699457D01*
X140018079Y-63678387D01*
X140010227Y-63656443D01*
X140004563Y-63633834D01*
X140001144Y-63610779D01*
X140000000Y-63587500D01*
X140000000Y-63112500D01*
X140001144Y-63089221D01*
X140004563Y-63066166D01*
X140010227Y-63043557D01*
X140018079Y-63021613D01*
X140028044Y-63000543D01*
X140040026Y-62980552D01*
X140053910Y-62961832D01*
X140069562Y-62944562D01*
X140086832Y-62928910D01*
X140105552Y-62915026D01*
X140125543Y-62903044D01*
X140146613Y-62893079D01*
X140168557Y-62885227D01*
X140191166Y-62879563D01*
X140214221Y-62876144D01*
X140237500Y-62875000D01*
X140812500Y-62875000D01*
X140835779Y-62876144D01*
X140835779Y-62876144D01*
G37*
D13*
X140525000Y-63350000D03*
D10*
G36*
X139085779Y-62876144D02*
G01*
X139108834Y-62879563D01*
X139131443Y-62885227D01*
X139153387Y-62893079D01*
X139174457Y-62903044D01*
X139194448Y-62915026D01*
X139213168Y-62928910D01*
X139230438Y-62944562D01*
X139246090Y-62961832D01*
X139259974Y-62980552D01*
X139271956Y-63000543D01*
X139281921Y-63021613D01*
X139289773Y-63043557D01*
X139295437Y-63066166D01*
X139298856Y-63089221D01*
X139300000Y-63112500D01*
X139300000Y-63587500D01*
X139298856Y-63610779D01*
X139295437Y-63633834D01*
X139289773Y-63656443D01*
X139281921Y-63678387D01*
X139271956Y-63699457D01*
X139259974Y-63719448D01*
X139246090Y-63738168D01*
X139230438Y-63755438D01*
X139213168Y-63771090D01*
X139194448Y-63784974D01*
X139174457Y-63796956D01*
X139153387Y-63806921D01*
X139131443Y-63814773D01*
X139108834Y-63820437D01*
X139085779Y-63823856D01*
X139062500Y-63825000D01*
X138487500Y-63825000D01*
X138464221Y-63823856D01*
X138441166Y-63820437D01*
X138418557Y-63814773D01*
X138396613Y-63806921D01*
X138375543Y-63796956D01*
X138355552Y-63784974D01*
X138336832Y-63771090D01*
X138319562Y-63755438D01*
X138303910Y-63738168D01*
X138290026Y-63719448D01*
X138278044Y-63699457D01*
X138268079Y-63678387D01*
X138260227Y-63656443D01*
X138254563Y-63633834D01*
X138251144Y-63610779D01*
X138250000Y-63587500D01*
X138250000Y-63112500D01*
X138251144Y-63089221D01*
X138254563Y-63066166D01*
X138260227Y-63043557D01*
X138268079Y-63021613D01*
X138278044Y-63000543D01*
X138290026Y-62980552D01*
X138303910Y-62961832D01*
X138319562Y-62944562D01*
X138336832Y-62928910D01*
X138355552Y-62915026D01*
X138375543Y-62903044D01*
X138396613Y-62893079D01*
X138418557Y-62885227D01*
X138441166Y-62879563D01*
X138464221Y-62876144D01*
X138487500Y-62875000D01*
X139062500Y-62875000D01*
X139085779Y-62876144D01*
X139085779Y-62876144D01*
G37*
D13*
X138775000Y-63350000D03*
D10*
G36*
X138635779Y-61276144D02*
G01*
X138658834Y-61279563D01*
X138681443Y-61285227D01*
X138703387Y-61293079D01*
X138724457Y-61303044D01*
X138744448Y-61315026D01*
X138763168Y-61328910D01*
X138780438Y-61344562D01*
X138796090Y-61361832D01*
X138809974Y-61380552D01*
X138821956Y-61400543D01*
X138831921Y-61421613D01*
X138839773Y-61443557D01*
X138845437Y-61466166D01*
X138848856Y-61489221D01*
X138850000Y-61512500D01*
X138850000Y-61987500D01*
X138848856Y-62010779D01*
X138845437Y-62033834D01*
X138839773Y-62056443D01*
X138831921Y-62078387D01*
X138821956Y-62099457D01*
X138809974Y-62119448D01*
X138796090Y-62138168D01*
X138780438Y-62155438D01*
X138763168Y-62171090D01*
X138744448Y-62184974D01*
X138724457Y-62196956D01*
X138703387Y-62206921D01*
X138681443Y-62214773D01*
X138658834Y-62220437D01*
X138635779Y-62223856D01*
X138612500Y-62225000D01*
X138037500Y-62225000D01*
X138014221Y-62223856D01*
X137991166Y-62220437D01*
X137968557Y-62214773D01*
X137946613Y-62206921D01*
X137925543Y-62196956D01*
X137905552Y-62184974D01*
X137886832Y-62171090D01*
X137869562Y-62155438D01*
X137853910Y-62138168D01*
X137840026Y-62119448D01*
X137828044Y-62099457D01*
X137818079Y-62078387D01*
X137810227Y-62056443D01*
X137804563Y-62033834D01*
X137801144Y-62010779D01*
X137800000Y-61987500D01*
X137800000Y-61512500D01*
X137801144Y-61489221D01*
X137804563Y-61466166D01*
X137810227Y-61443557D01*
X137818079Y-61421613D01*
X137828044Y-61400543D01*
X137840026Y-61380552D01*
X137853910Y-61361832D01*
X137869562Y-61344562D01*
X137886832Y-61328910D01*
X137905552Y-61315026D01*
X137925543Y-61303044D01*
X137946613Y-61293079D01*
X137968557Y-61285227D01*
X137991166Y-61279563D01*
X138014221Y-61276144D01*
X138037500Y-61275000D01*
X138612500Y-61275000D01*
X138635779Y-61276144D01*
X138635779Y-61276144D01*
G37*
D13*
X138325000Y-61750000D03*
D10*
G36*
X136885779Y-61276144D02*
G01*
X136908834Y-61279563D01*
X136931443Y-61285227D01*
X136953387Y-61293079D01*
X136974457Y-61303044D01*
X136994448Y-61315026D01*
X137013168Y-61328910D01*
X137030438Y-61344562D01*
X137046090Y-61361832D01*
X137059974Y-61380552D01*
X137071956Y-61400543D01*
X137081921Y-61421613D01*
X137089773Y-61443557D01*
X137095437Y-61466166D01*
X137098856Y-61489221D01*
X137100000Y-61512500D01*
X137100000Y-61987500D01*
X137098856Y-62010779D01*
X137095437Y-62033834D01*
X137089773Y-62056443D01*
X137081921Y-62078387D01*
X137071956Y-62099457D01*
X137059974Y-62119448D01*
X137046090Y-62138168D01*
X137030438Y-62155438D01*
X137013168Y-62171090D01*
X136994448Y-62184974D01*
X136974457Y-62196956D01*
X136953387Y-62206921D01*
X136931443Y-62214773D01*
X136908834Y-62220437D01*
X136885779Y-62223856D01*
X136862500Y-62225000D01*
X136287500Y-62225000D01*
X136264221Y-62223856D01*
X136241166Y-62220437D01*
X136218557Y-62214773D01*
X136196613Y-62206921D01*
X136175543Y-62196956D01*
X136155552Y-62184974D01*
X136136832Y-62171090D01*
X136119562Y-62155438D01*
X136103910Y-62138168D01*
X136090026Y-62119448D01*
X136078044Y-62099457D01*
X136068079Y-62078387D01*
X136060227Y-62056443D01*
X136054563Y-62033834D01*
X136051144Y-62010779D01*
X136050000Y-61987500D01*
X136050000Y-61512500D01*
X136051144Y-61489221D01*
X136054563Y-61466166D01*
X136060227Y-61443557D01*
X136068079Y-61421613D01*
X136078044Y-61400543D01*
X136090026Y-61380552D01*
X136103910Y-61361832D01*
X136119562Y-61344562D01*
X136136832Y-61328910D01*
X136155552Y-61315026D01*
X136175543Y-61303044D01*
X136196613Y-61293079D01*
X136218557Y-61285227D01*
X136241166Y-61279563D01*
X136264221Y-61276144D01*
X136287500Y-61275000D01*
X136862500Y-61275000D01*
X136885779Y-61276144D01*
X136885779Y-61276144D01*
G37*
D13*
X136575000Y-61750000D03*
D10*
G36*
X121730142Y-59826174D02*
G01*
X121753803Y-59829684D01*
X121777007Y-59835496D01*
X121799529Y-59843554D01*
X121821153Y-59853782D01*
X121841670Y-59866079D01*
X121860883Y-59880329D01*
X121878607Y-59896393D01*
X121894671Y-59914117D01*
X121908921Y-59933330D01*
X121921218Y-59953847D01*
X121931446Y-59975471D01*
X121939504Y-59997993D01*
X121945316Y-60021197D01*
X121948826Y-60044858D01*
X121950000Y-60068750D01*
X121950000Y-60556250D01*
X121948826Y-60580142D01*
X121945316Y-60603803D01*
X121939504Y-60627007D01*
X121931446Y-60649529D01*
X121921218Y-60671153D01*
X121908921Y-60691670D01*
X121894671Y-60710883D01*
X121878607Y-60728607D01*
X121860883Y-60744671D01*
X121841670Y-60758921D01*
X121821153Y-60771218D01*
X121799529Y-60781446D01*
X121777007Y-60789504D01*
X121753803Y-60795316D01*
X121730142Y-60798826D01*
X121706250Y-60800000D01*
X120793750Y-60800000D01*
X120769858Y-60798826D01*
X120746197Y-60795316D01*
X120722993Y-60789504D01*
X120700471Y-60781446D01*
X120678847Y-60771218D01*
X120658330Y-60758921D01*
X120639117Y-60744671D01*
X120621393Y-60728607D01*
X120605329Y-60710883D01*
X120591079Y-60691670D01*
X120578782Y-60671153D01*
X120568554Y-60649529D01*
X120560496Y-60627007D01*
X120554684Y-60603803D01*
X120551174Y-60580142D01*
X120550000Y-60556250D01*
X120550000Y-60068750D01*
X120551174Y-60044858D01*
X120554684Y-60021197D01*
X120560496Y-59997993D01*
X120568554Y-59975471D01*
X120578782Y-59953847D01*
X120591079Y-59933330D01*
X120605329Y-59914117D01*
X120621393Y-59896393D01*
X120639117Y-59880329D01*
X120658330Y-59866079D01*
X120678847Y-59853782D01*
X120700471Y-59843554D01*
X120722993Y-59835496D01*
X120746197Y-59829684D01*
X120769858Y-59826174D01*
X120793750Y-59825000D01*
X121706250Y-59825000D01*
X121730142Y-59826174D01*
X121730142Y-59826174D01*
G37*
D12*
X121250000Y-60312500D03*
D10*
G36*
X121730142Y-61701174D02*
G01*
X121753803Y-61704684D01*
X121777007Y-61710496D01*
X121799529Y-61718554D01*
X121821153Y-61728782D01*
X121841670Y-61741079D01*
X121860883Y-61755329D01*
X121878607Y-61771393D01*
X121894671Y-61789117D01*
X121908921Y-61808330D01*
X121921218Y-61828847D01*
X121931446Y-61850471D01*
X121939504Y-61872993D01*
X121945316Y-61896197D01*
X121948826Y-61919858D01*
X121950000Y-61943750D01*
X121950000Y-62431250D01*
X121948826Y-62455142D01*
X121945316Y-62478803D01*
X121939504Y-62502007D01*
X121931446Y-62524529D01*
X121921218Y-62546153D01*
X121908921Y-62566670D01*
X121894671Y-62585883D01*
X121878607Y-62603607D01*
X121860883Y-62619671D01*
X121841670Y-62633921D01*
X121821153Y-62646218D01*
X121799529Y-62656446D01*
X121777007Y-62664504D01*
X121753803Y-62670316D01*
X121730142Y-62673826D01*
X121706250Y-62675000D01*
X120793750Y-62675000D01*
X120769858Y-62673826D01*
X120746197Y-62670316D01*
X120722993Y-62664504D01*
X120700471Y-62656446D01*
X120678847Y-62646218D01*
X120658330Y-62633921D01*
X120639117Y-62619671D01*
X120621393Y-62603607D01*
X120605329Y-62585883D01*
X120591079Y-62566670D01*
X120578782Y-62546153D01*
X120568554Y-62524529D01*
X120560496Y-62502007D01*
X120554684Y-62478803D01*
X120551174Y-62455142D01*
X120550000Y-62431250D01*
X120550000Y-61943750D01*
X120551174Y-61919858D01*
X120554684Y-61896197D01*
X120560496Y-61872993D01*
X120568554Y-61850471D01*
X120578782Y-61828847D01*
X120591079Y-61808330D01*
X120605329Y-61789117D01*
X120621393Y-61771393D01*
X120639117Y-61755329D01*
X120658330Y-61741079D01*
X120678847Y-61728782D01*
X120700471Y-61718554D01*
X120722993Y-61710496D01*
X120746197Y-61704684D01*
X120769858Y-61701174D01*
X120793750Y-61700000D01*
X121706250Y-61700000D01*
X121730142Y-61701174D01*
X121730142Y-61701174D01*
G37*
D12*
X121250000Y-62187500D03*
D10*
G36*
X117760779Y-59976144D02*
G01*
X117783834Y-59979563D01*
X117806443Y-59985227D01*
X117828387Y-59993079D01*
X117849457Y-60003044D01*
X117869448Y-60015026D01*
X117888168Y-60028910D01*
X117905438Y-60044562D01*
X117921090Y-60061832D01*
X117934974Y-60080552D01*
X117946956Y-60100543D01*
X117956921Y-60121613D01*
X117964773Y-60143557D01*
X117970437Y-60166166D01*
X117973856Y-60189221D01*
X117975000Y-60212500D01*
X117975000Y-60787500D01*
X117973856Y-60810779D01*
X117970437Y-60833834D01*
X117964773Y-60856443D01*
X117956921Y-60878387D01*
X117946956Y-60899457D01*
X117934974Y-60919448D01*
X117921090Y-60938168D01*
X117905438Y-60955438D01*
X117888168Y-60971090D01*
X117869448Y-60984974D01*
X117849457Y-60996956D01*
X117828387Y-61006921D01*
X117806443Y-61014773D01*
X117783834Y-61020437D01*
X117760779Y-61023856D01*
X117737500Y-61025000D01*
X117262500Y-61025000D01*
X117239221Y-61023856D01*
X117216166Y-61020437D01*
X117193557Y-61014773D01*
X117171613Y-61006921D01*
X117150543Y-60996956D01*
X117130552Y-60984974D01*
X117111832Y-60971090D01*
X117094562Y-60955438D01*
X117078910Y-60938168D01*
X117065026Y-60919448D01*
X117053044Y-60899457D01*
X117043079Y-60878387D01*
X117035227Y-60856443D01*
X117029563Y-60833834D01*
X117026144Y-60810779D01*
X117025000Y-60787500D01*
X117025000Y-60212500D01*
X117026144Y-60189221D01*
X117029563Y-60166166D01*
X117035227Y-60143557D01*
X117043079Y-60121613D01*
X117053044Y-60100543D01*
X117065026Y-60080552D01*
X117078910Y-60061832D01*
X117094562Y-60044562D01*
X117111832Y-60028910D01*
X117130552Y-60015026D01*
X117150543Y-60003044D01*
X117171613Y-59993079D01*
X117193557Y-59985227D01*
X117216166Y-59979563D01*
X117239221Y-59976144D01*
X117262500Y-59975000D01*
X117737500Y-59975000D01*
X117760779Y-59976144D01*
X117760779Y-59976144D01*
G37*
D13*
X117500000Y-60500000D03*
D10*
G36*
X117760779Y-58226144D02*
G01*
X117783834Y-58229563D01*
X117806443Y-58235227D01*
X117828387Y-58243079D01*
X117849457Y-58253044D01*
X117869448Y-58265026D01*
X117888168Y-58278910D01*
X117905438Y-58294562D01*
X117921090Y-58311832D01*
X117934974Y-58330552D01*
X117946956Y-58350543D01*
X117956921Y-58371613D01*
X117964773Y-58393557D01*
X117970437Y-58416166D01*
X117973856Y-58439221D01*
X117975000Y-58462500D01*
X117975000Y-59037500D01*
X117973856Y-59060779D01*
X117970437Y-59083834D01*
X117964773Y-59106443D01*
X117956921Y-59128387D01*
X117946956Y-59149457D01*
X117934974Y-59169448D01*
X117921090Y-59188168D01*
X117905438Y-59205438D01*
X117888168Y-59221090D01*
X117869448Y-59234974D01*
X117849457Y-59246956D01*
X117828387Y-59256921D01*
X117806443Y-59264773D01*
X117783834Y-59270437D01*
X117760779Y-59273856D01*
X117737500Y-59275000D01*
X117262500Y-59275000D01*
X117239221Y-59273856D01*
X117216166Y-59270437D01*
X117193557Y-59264773D01*
X117171613Y-59256921D01*
X117150543Y-59246956D01*
X117130552Y-59234974D01*
X117111832Y-59221090D01*
X117094562Y-59205438D01*
X117078910Y-59188168D01*
X117065026Y-59169448D01*
X117053044Y-59149457D01*
X117043079Y-59128387D01*
X117035227Y-59106443D01*
X117029563Y-59083834D01*
X117026144Y-59060779D01*
X117025000Y-59037500D01*
X117025000Y-58462500D01*
X117026144Y-58439221D01*
X117029563Y-58416166D01*
X117035227Y-58393557D01*
X117043079Y-58371613D01*
X117053044Y-58350543D01*
X117065026Y-58330552D01*
X117078910Y-58311832D01*
X117094562Y-58294562D01*
X117111832Y-58278910D01*
X117130552Y-58265026D01*
X117150543Y-58253044D01*
X117171613Y-58243079D01*
X117193557Y-58235227D01*
X117216166Y-58229563D01*
X117239221Y-58226144D01*
X117262500Y-58225000D01*
X117737500Y-58225000D01*
X117760779Y-58226144D01*
X117760779Y-58226144D01*
G37*
D13*
X117500000Y-58750000D03*
D17*
X130930000Y-52900000D03*
X128270000Y-52250000D03*
X128270000Y-53550000D03*
D10*
G36*
X106560779Y-57501144D02*
G01*
X106583834Y-57504563D01*
X106606443Y-57510227D01*
X106628387Y-57518079D01*
X106649457Y-57528044D01*
X106669448Y-57540026D01*
X106688168Y-57553910D01*
X106705438Y-57569562D01*
X106721090Y-57586832D01*
X106734974Y-57605552D01*
X106746956Y-57625543D01*
X106756921Y-57646613D01*
X106764773Y-57668557D01*
X106770437Y-57691166D01*
X106773856Y-57714221D01*
X106775000Y-57737500D01*
X106775000Y-58312500D01*
X106773856Y-58335779D01*
X106770437Y-58358834D01*
X106764773Y-58381443D01*
X106756921Y-58403387D01*
X106746956Y-58424457D01*
X106734974Y-58444448D01*
X106721090Y-58463168D01*
X106705438Y-58480438D01*
X106688168Y-58496090D01*
X106669448Y-58509974D01*
X106649457Y-58521956D01*
X106628387Y-58531921D01*
X106606443Y-58539773D01*
X106583834Y-58545437D01*
X106560779Y-58548856D01*
X106537500Y-58550000D01*
X106062500Y-58550000D01*
X106039221Y-58548856D01*
X106016166Y-58545437D01*
X105993557Y-58539773D01*
X105971613Y-58531921D01*
X105950543Y-58521956D01*
X105930552Y-58509974D01*
X105911832Y-58496090D01*
X105894562Y-58480438D01*
X105878910Y-58463168D01*
X105865026Y-58444448D01*
X105853044Y-58424457D01*
X105843079Y-58403387D01*
X105835227Y-58381443D01*
X105829563Y-58358834D01*
X105826144Y-58335779D01*
X105825000Y-58312500D01*
X105825000Y-57737500D01*
X105826144Y-57714221D01*
X105829563Y-57691166D01*
X105835227Y-57668557D01*
X105843079Y-57646613D01*
X105853044Y-57625543D01*
X105865026Y-57605552D01*
X105878910Y-57586832D01*
X105894562Y-57569562D01*
X105911832Y-57553910D01*
X105930552Y-57540026D01*
X105950543Y-57528044D01*
X105971613Y-57518079D01*
X105993557Y-57510227D01*
X106016166Y-57504563D01*
X106039221Y-57501144D01*
X106062500Y-57500000D01*
X106537500Y-57500000D01*
X106560779Y-57501144D01*
X106560779Y-57501144D01*
G37*
D13*
X106300000Y-58025000D03*
D10*
G36*
X106560779Y-59251144D02*
G01*
X106583834Y-59254563D01*
X106606443Y-59260227D01*
X106628387Y-59268079D01*
X106649457Y-59278044D01*
X106669448Y-59290026D01*
X106688168Y-59303910D01*
X106705438Y-59319562D01*
X106721090Y-59336832D01*
X106734974Y-59355552D01*
X106746956Y-59375543D01*
X106756921Y-59396613D01*
X106764773Y-59418557D01*
X106770437Y-59441166D01*
X106773856Y-59464221D01*
X106775000Y-59487500D01*
X106775000Y-60062500D01*
X106773856Y-60085779D01*
X106770437Y-60108834D01*
X106764773Y-60131443D01*
X106756921Y-60153387D01*
X106746956Y-60174457D01*
X106734974Y-60194448D01*
X106721090Y-60213168D01*
X106705438Y-60230438D01*
X106688168Y-60246090D01*
X106669448Y-60259974D01*
X106649457Y-60271956D01*
X106628387Y-60281921D01*
X106606443Y-60289773D01*
X106583834Y-60295437D01*
X106560779Y-60298856D01*
X106537500Y-60300000D01*
X106062500Y-60300000D01*
X106039221Y-60298856D01*
X106016166Y-60295437D01*
X105993557Y-60289773D01*
X105971613Y-60281921D01*
X105950543Y-60271956D01*
X105930552Y-60259974D01*
X105911832Y-60246090D01*
X105894562Y-60230438D01*
X105878910Y-60213168D01*
X105865026Y-60194448D01*
X105853044Y-60174457D01*
X105843079Y-60153387D01*
X105835227Y-60131443D01*
X105829563Y-60108834D01*
X105826144Y-60085779D01*
X105825000Y-60062500D01*
X105825000Y-59487500D01*
X105826144Y-59464221D01*
X105829563Y-59441166D01*
X105835227Y-59418557D01*
X105843079Y-59396613D01*
X105853044Y-59375543D01*
X105865026Y-59355552D01*
X105878910Y-59336832D01*
X105894562Y-59319562D01*
X105911832Y-59303910D01*
X105930552Y-59290026D01*
X105950543Y-59278044D01*
X105971613Y-59268079D01*
X105993557Y-59260227D01*
X106016166Y-59254563D01*
X106039221Y-59251144D01*
X106062500Y-59250000D01*
X106537500Y-59250000D01*
X106560779Y-59251144D01*
X106560779Y-59251144D01*
G37*
D13*
X106300000Y-59775000D03*
D10*
G36*
X123210779Y-56101144D02*
G01*
X123233834Y-56104563D01*
X123256443Y-56110227D01*
X123278387Y-56118079D01*
X123299457Y-56128044D01*
X123319448Y-56140026D01*
X123338168Y-56153910D01*
X123355438Y-56169562D01*
X123371090Y-56186832D01*
X123384974Y-56205552D01*
X123396956Y-56225543D01*
X123406921Y-56246613D01*
X123414773Y-56268557D01*
X123420437Y-56291166D01*
X123423856Y-56314221D01*
X123425000Y-56337500D01*
X123425000Y-56912500D01*
X123423856Y-56935779D01*
X123420437Y-56958834D01*
X123414773Y-56981443D01*
X123406921Y-57003387D01*
X123396956Y-57024457D01*
X123384974Y-57044448D01*
X123371090Y-57063168D01*
X123355438Y-57080438D01*
X123338168Y-57096090D01*
X123319448Y-57109974D01*
X123299457Y-57121956D01*
X123278387Y-57131921D01*
X123256443Y-57139773D01*
X123233834Y-57145437D01*
X123210779Y-57148856D01*
X123187500Y-57150000D01*
X122712500Y-57150000D01*
X122689221Y-57148856D01*
X122666166Y-57145437D01*
X122643557Y-57139773D01*
X122621613Y-57131921D01*
X122600543Y-57121956D01*
X122580552Y-57109974D01*
X122561832Y-57096090D01*
X122544562Y-57080438D01*
X122528910Y-57063168D01*
X122515026Y-57044448D01*
X122503044Y-57024457D01*
X122493079Y-57003387D01*
X122485227Y-56981443D01*
X122479563Y-56958834D01*
X122476144Y-56935779D01*
X122475000Y-56912500D01*
X122475000Y-56337500D01*
X122476144Y-56314221D01*
X122479563Y-56291166D01*
X122485227Y-56268557D01*
X122493079Y-56246613D01*
X122503044Y-56225543D01*
X122515026Y-56205552D01*
X122528910Y-56186832D01*
X122544562Y-56169562D01*
X122561832Y-56153910D01*
X122580552Y-56140026D01*
X122600543Y-56128044D01*
X122621613Y-56118079D01*
X122643557Y-56110227D01*
X122666166Y-56104563D01*
X122689221Y-56101144D01*
X122712500Y-56100000D01*
X123187500Y-56100000D01*
X123210779Y-56101144D01*
X123210779Y-56101144D01*
G37*
D13*
X122950000Y-56625000D03*
D10*
G36*
X123210779Y-54351144D02*
G01*
X123233834Y-54354563D01*
X123256443Y-54360227D01*
X123278387Y-54368079D01*
X123299457Y-54378044D01*
X123319448Y-54390026D01*
X123338168Y-54403910D01*
X123355438Y-54419562D01*
X123371090Y-54436832D01*
X123384974Y-54455552D01*
X123396956Y-54475543D01*
X123406921Y-54496613D01*
X123414773Y-54518557D01*
X123420437Y-54541166D01*
X123423856Y-54564221D01*
X123425000Y-54587500D01*
X123425000Y-55162500D01*
X123423856Y-55185779D01*
X123420437Y-55208834D01*
X123414773Y-55231443D01*
X123406921Y-55253387D01*
X123396956Y-55274457D01*
X123384974Y-55294448D01*
X123371090Y-55313168D01*
X123355438Y-55330438D01*
X123338168Y-55346090D01*
X123319448Y-55359974D01*
X123299457Y-55371956D01*
X123278387Y-55381921D01*
X123256443Y-55389773D01*
X123233834Y-55395437D01*
X123210779Y-55398856D01*
X123187500Y-55400000D01*
X122712500Y-55400000D01*
X122689221Y-55398856D01*
X122666166Y-55395437D01*
X122643557Y-55389773D01*
X122621613Y-55381921D01*
X122600543Y-55371956D01*
X122580552Y-55359974D01*
X122561832Y-55346090D01*
X122544562Y-55330438D01*
X122528910Y-55313168D01*
X122515026Y-55294448D01*
X122503044Y-55274457D01*
X122493079Y-55253387D01*
X122485227Y-55231443D01*
X122479563Y-55208834D01*
X122476144Y-55185779D01*
X122475000Y-55162500D01*
X122475000Y-54587500D01*
X122476144Y-54564221D01*
X122479563Y-54541166D01*
X122485227Y-54518557D01*
X122493079Y-54496613D01*
X122503044Y-54475543D01*
X122515026Y-54455552D01*
X122528910Y-54436832D01*
X122544562Y-54419562D01*
X122561832Y-54403910D01*
X122580552Y-54390026D01*
X122600543Y-54378044D01*
X122621613Y-54368079D01*
X122643557Y-54360227D01*
X122666166Y-54354563D01*
X122689221Y-54351144D01*
X122712500Y-54350000D01*
X123187500Y-54350000D01*
X123210779Y-54351144D01*
X123210779Y-54351144D01*
G37*
D13*
X122950000Y-54875000D03*
D10*
G36*
X108360779Y-59251144D02*
G01*
X108383834Y-59254563D01*
X108406443Y-59260227D01*
X108428387Y-59268079D01*
X108449457Y-59278044D01*
X108469448Y-59290026D01*
X108488168Y-59303910D01*
X108505438Y-59319562D01*
X108521090Y-59336832D01*
X108534974Y-59355552D01*
X108546956Y-59375543D01*
X108556921Y-59396613D01*
X108564773Y-59418557D01*
X108570437Y-59441166D01*
X108573856Y-59464221D01*
X108575000Y-59487500D01*
X108575000Y-60062500D01*
X108573856Y-60085779D01*
X108570437Y-60108834D01*
X108564773Y-60131443D01*
X108556921Y-60153387D01*
X108546956Y-60174457D01*
X108534974Y-60194448D01*
X108521090Y-60213168D01*
X108505438Y-60230438D01*
X108488168Y-60246090D01*
X108469448Y-60259974D01*
X108449457Y-60271956D01*
X108428387Y-60281921D01*
X108406443Y-60289773D01*
X108383834Y-60295437D01*
X108360779Y-60298856D01*
X108337500Y-60300000D01*
X107862500Y-60300000D01*
X107839221Y-60298856D01*
X107816166Y-60295437D01*
X107793557Y-60289773D01*
X107771613Y-60281921D01*
X107750543Y-60271956D01*
X107730552Y-60259974D01*
X107711832Y-60246090D01*
X107694562Y-60230438D01*
X107678910Y-60213168D01*
X107665026Y-60194448D01*
X107653044Y-60174457D01*
X107643079Y-60153387D01*
X107635227Y-60131443D01*
X107629563Y-60108834D01*
X107626144Y-60085779D01*
X107625000Y-60062500D01*
X107625000Y-59487500D01*
X107626144Y-59464221D01*
X107629563Y-59441166D01*
X107635227Y-59418557D01*
X107643079Y-59396613D01*
X107653044Y-59375543D01*
X107665026Y-59355552D01*
X107678910Y-59336832D01*
X107694562Y-59319562D01*
X107711832Y-59303910D01*
X107730552Y-59290026D01*
X107750543Y-59278044D01*
X107771613Y-59268079D01*
X107793557Y-59260227D01*
X107816166Y-59254563D01*
X107839221Y-59251144D01*
X107862500Y-59250000D01*
X108337500Y-59250000D01*
X108360779Y-59251144D01*
X108360779Y-59251144D01*
G37*
D13*
X108100000Y-59775000D03*
D10*
G36*
X108360779Y-57501144D02*
G01*
X108383834Y-57504563D01*
X108406443Y-57510227D01*
X108428387Y-57518079D01*
X108449457Y-57528044D01*
X108469448Y-57540026D01*
X108488168Y-57553910D01*
X108505438Y-57569562D01*
X108521090Y-57586832D01*
X108534974Y-57605552D01*
X108546956Y-57625543D01*
X108556921Y-57646613D01*
X108564773Y-57668557D01*
X108570437Y-57691166D01*
X108573856Y-57714221D01*
X108575000Y-57737500D01*
X108575000Y-58312500D01*
X108573856Y-58335779D01*
X108570437Y-58358834D01*
X108564773Y-58381443D01*
X108556921Y-58403387D01*
X108546956Y-58424457D01*
X108534974Y-58444448D01*
X108521090Y-58463168D01*
X108505438Y-58480438D01*
X108488168Y-58496090D01*
X108469448Y-58509974D01*
X108449457Y-58521956D01*
X108428387Y-58531921D01*
X108406443Y-58539773D01*
X108383834Y-58545437D01*
X108360779Y-58548856D01*
X108337500Y-58550000D01*
X107862500Y-58550000D01*
X107839221Y-58548856D01*
X107816166Y-58545437D01*
X107793557Y-58539773D01*
X107771613Y-58531921D01*
X107750543Y-58521956D01*
X107730552Y-58509974D01*
X107711832Y-58496090D01*
X107694562Y-58480438D01*
X107678910Y-58463168D01*
X107665026Y-58444448D01*
X107653044Y-58424457D01*
X107643079Y-58403387D01*
X107635227Y-58381443D01*
X107629563Y-58358834D01*
X107626144Y-58335779D01*
X107625000Y-58312500D01*
X107625000Y-57737500D01*
X107626144Y-57714221D01*
X107629563Y-57691166D01*
X107635227Y-57668557D01*
X107643079Y-57646613D01*
X107653044Y-57625543D01*
X107665026Y-57605552D01*
X107678910Y-57586832D01*
X107694562Y-57569562D01*
X107711832Y-57553910D01*
X107730552Y-57540026D01*
X107750543Y-57528044D01*
X107771613Y-57518079D01*
X107793557Y-57510227D01*
X107816166Y-57504563D01*
X107839221Y-57501144D01*
X107862500Y-57500000D01*
X108337500Y-57500000D01*
X108360779Y-57501144D01*
X108360779Y-57501144D01*
G37*
D13*
X108100000Y-58025000D03*
D10*
G36*
X137527691Y-59426053D02*
G01*
X137548926Y-59429203D01*
X137569750Y-59434419D01*
X137589962Y-59441651D01*
X137609368Y-59450830D01*
X137627781Y-59461866D01*
X137645024Y-59474654D01*
X137660930Y-59489070D01*
X137675346Y-59504976D01*
X137688134Y-59522219D01*
X137699170Y-59540632D01*
X137708349Y-59560038D01*
X137715581Y-59580250D01*
X137720797Y-59601074D01*
X137723947Y-59622309D01*
X137725000Y-59643750D01*
X137725000Y-60156250D01*
X137723947Y-60177691D01*
X137720797Y-60198926D01*
X137715581Y-60219750D01*
X137708349Y-60239962D01*
X137699170Y-60259368D01*
X137688134Y-60277781D01*
X137675346Y-60295024D01*
X137660930Y-60310930D01*
X137645024Y-60325346D01*
X137627781Y-60338134D01*
X137609368Y-60349170D01*
X137589962Y-60358349D01*
X137569750Y-60365581D01*
X137548926Y-60370797D01*
X137527691Y-60373947D01*
X137506250Y-60375000D01*
X137068750Y-60375000D01*
X137047309Y-60373947D01*
X137026074Y-60370797D01*
X137005250Y-60365581D01*
X136985038Y-60358349D01*
X136965632Y-60349170D01*
X136947219Y-60338134D01*
X136929976Y-60325346D01*
X136914070Y-60310930D01*
X136899654Y-60295024D01*
X136886866Y-60277781D01*
X136875830Y-60259368D01*
X136866651Y-60239962D01*
X136859419Y-60219750D01*
X136854203Y-60198926D01*
X136851053Y-60177691D01*
X136850000Y-60156250D01*
X136850000Y-59643750D01*
X136851053Y-59622309D01*
X136854203Y-59601074D01*
X136859419Y-59580250D01*
X136866651Y-59560038D01*
X136875830Y-59540632D01*
X136886866Y-59522219D01*
X136899654Y-59504976D01*
X136914070Y-59489070D01*
X136929976Y-59474654D01*
X136947219Y-59461866D01*
X136965632Y-59450830D01*
X136985038Y-59441651D01*
X137005250Y-59434419D01*
X137026074Y-59429203D01*
X137047309Y-59426053D01*
X137068750Y-59425000D01*
X137506250Y-59425000D01*
X137527691Y-59426053D01*
X137527691Y-59426053D01*
G37*
D11*
X137287500Y-59900000D03*
D10*
G36*
X135952691Y-59426053D02*
G01*
X135973926Y-59429203D01*
X135994750Y-59434419D01*
X136014962Y-59441651D01*
X136034368Y-59450830D01*
X136052781Y-59461866D01*
X136070024Y-59474654D01*
X136085930Y-59489070D01*
X136100346Y-59504976D01*
X136113134Y-59522219D01*
X136124170Y-59540632D01*
X136133349Y-59560038D01*
X136140581Y-59580250D01*
X136145797Y-59601074D01*
X136148947Y-59622309D01*
X136150000Y-59643750D01*
X136150000Y-60156250D01*
X136148947Y-60177691D01*
X136145797Y-60198926D01*
X136140581Y-60219750D01*
X136133349Y-60239962D01*
X136124170Y-60259368D01*
X136113134Y-60277781D01*
X136100346Y-60295024D01*
X136085930Y-60310930D01*
X136070024Y-60325346D01*
X136052781Y-60338134D01*
X136034368Y-60349170D01*
X136014962Y-60358349D01*
X135994750Y-60365581D01*
X135973926Y-60370797D01*
X135952691Y-60373947D01*
X135931250Y-60375000D01*
X135493750Y-60375000D01*
X135472309Y-60373947D01*
X135451074Y-60370797D01*
X135430250Y-60365581D01*
X135410038Y-60358349D01*
X135390632Y-60349170D01*
X135372219Y-60338134D01*
X135354976Y-60325346D01*
X135339070Y-60310930D01*
X135324654Y-60295024D01*
X135311866Y-60277781D01*
X135300830Y-60259368D01*
X135291651Y-60239962D01*
X135284419Y-60219750D01*
X135279203Y-60198926D01*
X135276053Y-60177691D01*
X135275000Y-60156250D01*
X135275000Y-59643750D01*
X135276053Y-59622309D01*
X135279203Y-59601074D01*
X135284419Y-59580250D01*
X135291651Y-59560038D01*
X135300830Y-59540632D01*
X135311866Y-59522219D01*
X135324654Y-59504976D01*
X135339070Y-59489070D01*
X135354976Y-59474654D01*
X135372219Y-59461866D01*
X135390632Y-59450830D01*
X135410038Y-59441651D01*
X135430250Y-59434419D01*
X135451074Y-59429203D01*
X135472309Y-59426053D01*
X135493750Y-59425000D01*
X135931250Y-59425000D01*
X135952691Y-59426053D01*
X135952691Y-59426053D01*
G37*
D11*
X135712500Y-59900000D03*
D10*
G36*
X126560779Y-53351144D02*
G01*
X126583834Y-53354563D01*
X126606443Y-53360227D01*
X126628387Y-53368079D01*
X126649457Y-53378044D01*
X126669448Y-53390026D01*
X126688168Y-53403910D01*
X126705438Y-53419562D01*
X126721090Y-53436832D01*
X126734974Y-53455552D01*
X126746956Y-53475543D01*
X126756921Y-53496613D01*
X126764773Y-53518557D01*
X126770437Y-53541166D01*
X126773856Y-53564221D01*
X126775000Y-53587500D01*
X126775000Y-54162500D01*
X126773856Y-54185779D01*
X126770437Y-54208834D01*
X126764773Y-54231443D01*
X126756921Y-54253387D01*
X126746956Y-54274457D01*
X126734974Y-54294448D01*
X126721090Y-54313168D01*
X126705438Y-54330438D01*
X126688168Y-54346090D01*
X126669448Y-54359974D01*
X126649457Y-54371956D01*
X126628387Y-54381921D01*
X126606443Y-54389773D01*
X126583834Y-54395437D01*
X126560779Y-54398856D01*
X126537500Y-54400000D01*
X126062500Y-54400000D01*
X126039221Y-54398856D01*
X126016166Y-54395437D01*
X125993557Y-54389773D01*
X125971613Y-54381921D01*
X125950543Y-54371956D01*
X125930552Y-54359974D01*
X125911832Y-54346090D01*
X125894562Y-54330438D01*
X125878910Y-54313168D01*
X125865026Y-54294448D01*
X125853044Y-54274457D01*
X125843079Y-54253387D01*
X125835227Y-54231443D01*
X125829563Y-54208834D01*
X125826144Y-54185779D01*
X125825000Y-54162500D01*
X125825000Y-53587500D01*
X125826144Y-53564221D01*
X125829563Y-53541166D01*
X125835227Y-53518557D01*
X125843079Y-53496613D01*
X125853044Y-53475543D01*
X125865026Y-53455552D01*
X125878910Y-53436832D01*
X125894562Y-53419562D01*
X125911832Y-53403910D01*
X125930552Y-53390026D01*
X125950543Y-53378044D01*
X125971613Y-53368079D01*
X125993557Y-53360227D01*
X126016166Y-53354563D01*
X126039221Y-53351144D01*
X126062500Y-53350000D01*
X126537500Y-53350000D01*
X126560779Y-53351144D01*
X126560779Y-53351144D01*
G37*
D13*
X126300000Y-53875000D03*
D10*
G36*
X126560779Y-51601144D02*
G01*
X126583834Y-51604563D01*
X126606443Y-51610227D01*
X126628387Y-51618079D01*
X126649457Y-51628044D01*
X126669448Y-51640026D01*
X126688168Y-51653910D01*
X126705438Y-51669562D01*
X126721090Y-51686832D01*
X126734974Y-51705552D01*
X126746956Y-51725543D01*
X126756921Y-51746613D01*
X126764773Y-51768557D01*
X126770437Y-51791166D01*
X126773856Y-51814221D01*
X126775000Y-51837500D01*
X126775000Y-52412500D01*
X126773856Y-52435779D01*
X126770437Y-52458834D01*
X126764773Y-52481443D01*
X126756921Y-52503387D01*
X126746956Y-52524457D01*
X126734974Y-52544448D01*
X126721090Y-52563168D01*
X126705438Y-52580438D01*
X126688168Y-52596090D01*
X126669448Y-52609974D01*
X126649457Y-52621956D01*
X126628387Y-52631921D01*
X126606443Y-52639773D01*
X126583834Y-52645437D01*
X126560779Y-52648856D01*
X126537500Y-52650000D01*
X126062500Y-52650000D01*
X126039221Y-52648856D01*
X126016166Y-52645437D01*
X125993557Y-52639773D01*
X125971613Y-52631921D01*
X125950543Y-52621956D01*
X125930552Y-52609974D01*
X125911832Y-52596090D01*
X125894562Y-52580438D01*
X125878910Y-52563168D01*
X125865026Y-52544448D01*
X125853044Y-52524457D01*
X125843079Y-52503387D01*
X125835227Y-52481443D01*
X125829563Y-52458834D01*
X125826144Y-52435779D01*
X125825000Y-52412500D01*
X125825000Y-51837500D01*
X125826144Y-51814221D01*
X125829563Y-51791166D01*
X125835227Y-51768557D01*
X125843079Y-51746613D01*
X125853044Y-51725543D01*
X125865026Y-51705552D01*
X125878910Y-51686832D01*
X125894562Y-51669562D01*
X125911832Y-51653910D01*
X125930552Y-51640026D01*
X125950543Y-51628044D01*
X125971613Y-51618079D01*
X125993557Y-51610227D01*
X126016166Y-51604563D01*
X126039221Y-51601144D01*
X126062500Y-51600000D01*
X126537500Y-51600000D01*
X126560779Y-51601144D01*
X126560779Y-51601144D01*
G37*
D13*
X126300000Y-52125000D03*
D18*
X126040000Y-66250000D03*
D19*
X123500000Y-66250000D03*
D10*
G36*
X117580142Y-52676174D02*
G01*
X117603803Y-52679684D01*
X117627007Y-52685496D01*
X117649529Y-52693554D01*
X117671153Y-52703782D01*
X117691670Y-52716079D01*
X117710883Y-52730329D01*
X117728607Y-52746393D01*
X117744671Y-52764117D01*
X117758921Y-52783330D01*
X117771218Y-52803847D01*
X117781446Y-52825471D01*
X117789504Y-52847993D01*
X117795316Y-52871197D01*
X117798826Y-52894858D01*
X117800000Y-52918750D01*
X117800000Y-53406250D01*
X117798826Y-53430142D01*
X117795316Y-53453803D01*
X117789504Y-53477007D01*
X117781446Y-53499529D01*
X117771218Y-53521153D01*
X117758921Y-53541670D01*
X117744671Y-53560883D01*
X117728607Y-53578607D01*
X117710883Y-53594671D01*
X117691670Y-53608921D01*
X117671153Y-53621218D01*
X117649529Y-53631446D01*
X117627007Y-53639504D01*
X117603803Y-53645316D01*
X117580142Y-53648826D01*
X117556250Y-53650000D01*
X116643750Y-53650000D01*
X116619858Y-53648826D01*
X116596197Y-53645316D01*
X116572993Y-53639504D01*
X116550471Y-53631446D01*
X116528847Y-53621218D01*
X116508330Y-53608921D01*
X116489117Y-53594671D01*
X116471393Y-53578607D01*
X116455329Y-53560883D01*
X116441079Y-53541670D01*
X116428782Y-53521153D01*
X116418554Y-53499529D01*
X116410496Y-53477007D01*
X116404684Y-53453803D01*
X116401174Y-53430142D01*
X116400000Y-53406250D01*
X116400000Y-52918750D01*
X116401174Y-52894858D01*
X116404684Y-52871197D01*
X116410496Y-52847993D01*
X116418554Y-52825471D01*
X116428782Y-52803847D01*
X116441079Y-52783330D01*
X116455329Y-52764117D01*
X116471393Y-52746393D01*
X116489117Y-52730329D01*
X116508330Y-52716079D01*
X116528847Y-52703782D01*
X116550471Y-52693554D01*
X116572993Y-52685496D01*
X116596197Y-52679684D01*
X116619858Y-52676174D01*
X116643750Y-52675000D01*
X117556250Y-52675000D01*
X117580142Y-52676174D01*
X117580142Y-52676174D01*
G37*
D12*
X117100000Y-53162500D03*
D10*
G36*
X117580142Y-54551174D02*
G01*
X117603803Y-54554684D01*
X117627007Y-54560496D01*
X117649529Y-54568554D01*
X117671153Y-54578782D01*
X117691670Y-54591079D01*
X117710883Y-54605329D01*
X117728607Y-54621393D01*
X117744671Y-54639117D01*
X117758921Y-54658330D01*
X117771218Y-54678847D01*
X117781446Y-54700471D01*
X117789504Y-54722993D01*
X117795316Y-54746197D01*
X117798826Y-54769858D01*
X117800000Y-54793750D01*
X117800000Y-55281250D01*
X117798826Y-55305142D01*
X117795316Y-55328803D01*
X117789504Y-55352007D01*
X117781446Y-55374529D01*
X117771218Y-55396153D01*
X117758921Y-55416670D01*
X117744671Y-55435883D01*
X117728607Y-55453607D01*
X117710883Y-55469671D01*
X117691670Y-55483921D01*
X117671153Y-55496218D01*
X117649529Y-55506446D01*
X117627007Y-55514504D01*
X117603803Y-55520316D01*
X117580142Y-55523826D01*
X117556250Y-55525000D01*
X116643750Y-55525000D01*
X116619858Y-55523826D01*
X116596197Y-55520316D01*
X116572993Y-55514504D01*
X116550471Y-55506446D01*
X116528847Y-55496218D01*
X116508330Y-55483921D01*
X116489117Y-55469671D01*
X116471393Y-55453607D01*
X116455329Y-55435883D01*
X116441079Y-55416670D01*
X116428782Y-55396153D01*
X116418554Y-55374529D01*
X116410496Y-55352007D01*
X116404684Y-55328803D01*
X116401174Y-55305142D01*
X116400000Y-55281250D01*
X116400000Y-54793750D01*
X116401174Y-54769858D01*
X116404684Y-54746197D01*
X116410496Y-54722993D01*
X116418554Y-54700471D01*
X116428782Y-54678847D01*
X116441079Y-54658330D01*
X116455329Y-54639117D01*
X116471393Y-54621393D01*
X116489117Y-54605329D01*
X116508330Y-54591079D01*
X116528847Y-54578782D01*
X116550471Y-54568554D01*
X116572993Y-54560496D01*
X116596197Y-54554684D01*
X116619858Y-54551174D01*
X116643750Y-54550000D01*
X117556250Y-54550000D01*
X117580142Y-54551174D01*
X117580142Y-54551174D01*
G37*
D12*
X117100000Y-55037500D03*
D10*
G36*
X123580142Y-62551174D02*
G01*
X123603803Y-62554684D01*
X123627007Y-62560496D01*
X123649529Y-62568554D01*
X123671153Y-62578782D01*
X123691670Y-62591079D01*
X123710883Y-62605329D01*
X123728607Y-62621393D01*
X123744671Y-62639117D01*
X123758921Y-62658330D01*
X123771218Y-62678847D01*
X123781446Y-62700471D01*
X123789504Y-62722993D01*
X123795316Y-62746197D01*
X123798826Y-62769858D01*
X123800000Y-62793750D01*
X123800000Y-63706250D01*
X123798826Y-63730142D01*
X123795316Y-63753803D01*
X123789504Y-63777007D01*
X123781446Y-63799529D01*
X123771218Y-63821153D01*
X123758921Y-63841670D01*
X123744671Y-63860883D01*
X123728607Y-63878607D01*
X123710883Y-63894671D01*
X123691670Y-63908921D01*
X123671153Y-63921218D01*
X123649529Y-63931446D01*
X123627007Y-63939504D01*
X123603803Y-63945316D01*
X123580142Y-63948826D01*
X123556250Y-63950000D01*
X123068750Y-63950000D01*
X123044858Y-63948826D01*
X123021197Y-63945316D01*
X122997993Y-63939504D01*
X122975471Y-63931446D01*
X122953847Y-63921218D01*
X122933330Y-63908921D01*
X122914117Y-63894671D01*
X122896393Y-63878607D01*
X122880329Y-63860883D01*
X122866079Y-63841670D01*
X122853782Y-63821153D01*
X122843554Y-63799529D01*
X122835496Y-63777007D01*
X122829684Y-63753803D01*
X122826174Y-63730142D01*
X122825000Y-63706250D01*
X122825000Y-62793750D01*
X122826174Y-62769858D01*
X122829684Y-62746197D01*
X122835496Y-62722993D01*
X122843554Y-62700471D01*
X122853782Y-62678847D01*
X122866079Y-62658330D01*
X122880329Y-62639117D01*
X122896393Y-62621393D01*
X122914117Y-62605329D01*
X122933330Y-62591079D01*
X122953847Y-62578782D01*
X122975471Y-62568554D01*
X122997993Y-62560496D01*
X123021197Y-62554684D01*
X123044858Y-62551174D01*
X123068750Y-62550000D01*
X123556250Y-62550000D01*
X123580142Y-62551174D01*
X123580142Y-62551174D01*
G37*
D12*
X123312500Y-63250000D03*
D10*
G36*
X125455142Y-62551174D02*
G01*
X125478803Y-62554684D01*
X125502007Y-62560496D01*
X125524529Y-62568554D01*
X125546153Y-62578782D01*
X125566670Y-62591079D01*
X125585883Y-62605329D01*
X125603607Y-62621393D01*
X125619671Y-62639117D01*
X125633921Y-62658330D01*
X125646218Y-62678847D01*
X125656446Y-62700471D01*
X125664504Y-62722993D01*
X125670316Y-62746197D01*
X125673826Y-62769858D01*
X125675000Y-62793750D01*
X125675000Y-63706250D01*
X125673826Y-63730142D01*
X125670316Y-63753803D01*
X125664504Y-63777007D01*
X125656446Y-63799529D01*
X125646218Y-63821153D01*
X125633921Y-63841670D01*
X125619671Y-63860883D01*
X125603607Y-63878607D01*
X125585883Y-63894671D01*
X125566670Y-63908921D01*
X125546153Y-63921218D01*
X125524529Y-63931446D01*
X125502007Y-63939504D01*
X125478803Y-63945316D01*
X125455142Y-63948826D01*
X125431250Y-63950000D01*
X124943750Y-63950000D01*
X124919858Y-63948826D01*
X124896197Y-63945316D01*
X124872993Y-63939504D01*
X124850471Y-63931446D01*
X124828847Y-63921218D01*
X124808330Y-63908921D01*
X124789117Y-63894671D01*
X124771393Y-63878607D01*
X124755329Y-63860883D01*
X124741079Y-63841670D01*
X124728782Y-63821153D01*
X124718554Y-63799529D01*
X124710496Y-63777007D01*
X124704684Y-63753803D01*
X124701174Y-63730142D01*
X124700000Y-63706250D01*
X124700000Y-62793750D01*
X124701174Y-62769858D01*
X124704684Y-62746197D01*
X124710496Y-62722993D01*
X124718554Y-62700471D01*
X124728782Y-62678847D01*
X124741079Y-62658330D01*
X124755329Y-62639117D01*
X124771393Y-62621393D01*
X124789117Y-62605329D01*
X124808330Y-62591079D01*
X124828847Y-62578782D01*
X124850471Y-62568554D01*
X124872993Y-62560496D01*
X124896197Y-62554684D01*
X124919858Y-62551174D01*
X124943750Y-62550000D01*
X125431250Y-62550000D01*
X125455142Y-62551174D01*
X125455142Y-62551174D01*
G37*
D12*
X125187500Y-63250000D03*
D10*
G36*
X104760779Y-59251144D02*
G01*
X104783834Y-59254563D01*
X104806443Y-59260227D01*
X104828387Y-59268079D01*
X104849457Y-59278044D01*
X104869448Y-59290026D01*
X104888168Y-59303910D01*
X104905438Y-59319562D01*
X104921090Y-59336832D01*
X104934974Y-59355552D01*
X104946956Y-59375543D01*
X104956921Y-59396613D01*
X104964773Y-59418557D01*
X104970437Y-59441166D01*
X104973856Y-59464221D01*
X104975000Y-59487500D01*
X104975000Y-60062500D01*
X104973856Y-60085779D01*
X104970437Y-60108834D01*
X104964773Y-60131443D01*
X104956921Y-60153387D01*
X104946956Y-60174457D01*
X104934974Y-60194448D01*
X104921090Y-60213168D01*
X104905438Y-60230438D01*
X104888168Y-60246090D01*
X104869448Y-60259974D01*
X104849457Y-60271956D01*
X104828387Y-60281921D01*
X104806443Y-60289773D01*
X104783834Y-60295437D01*
X104760779Y-60298856D01*
X104737500Y-60300000D01*
X104262500Y-60300000D01*
X104239221Y-60298856D01*
X104216166Y-60295437D01*
X104193557Y-60289773D01*
X104171613Y-60281921D01*
X104150543Y-60271956D01*
X104130552Y-60259974D01*
X104111832Y-60246090D01*
X104094562Y-60230438D01*
X104078910Y-60213168D01*
X104065026Y-60194448D01*
X104053044Y-60174457D01*
X104043079Y-60153387D01*
X104035227Y-60131443D01*
X104029563Y-60108834D01*
X104026144Y-60085779D01*
X104025000Y-60062500D01*
X104025000Y-59487500D01*
X104026144Y-59464221D01*
X104029563Y-59441166D01*
X104035227Y-59418557D01*
X104043079Y-59396613D01*
X104053044Y-59375543D01*
X104065026Y-59355552D01*
X104078910Y-59336832D01*
X104094562Y-59319562D01*
X104111832Y-59303910D01*
X104130552Y-59290026D01*
X104150543Y-59278044D01*
X104171613Y-59268079D01*
X104193557Y-59260227D01*
X104216166Y-59254563D01*
X104239221Y-59251144D01*
X104262500Y-59250000D01*
X104737500Y-59250000D01*
X104760779Y-59251144D01*
X104760779Y-59251144D01*
G37*
D13*
X104500000Y-59775000D03*
D10*
G36*
X104760779Y-57501144D02*
G01*
X104783834Y-57504563D01*
X104806443Y-57510227D01*
X104828387Y-57518079D01*
X104849457Y-57528044D01*
X104869448Y-57540026D01*
X104888168Y-57553910D01*
X104905438Y-57569562D01*
X104921090Y-57586832D01*
X104934974Y-57605552D01*
X104946956Y-57625543D01*
X104956921Y-57646613D01*
X104964773Y-57668557D01*
X104970437Y-57691166D01*
X104973856Y-57714221D01*
X104975000Y-57737500D01*
X104975000Y-58312500D01*
X104973856Y-58335779D01*
X104970437Y-58358834D01*
X104964773Y-58381443D01*
X104956921Y-58403387D01*
X104946956Y-58424457D01*
X104934974Y-58444448D01*
X104921090Y-58463168D01*
X104905438Y-58480438D01*
X104888168Y-58496090D01*
X104869448Y-58509974D01*
X104849457Y-58521956D01*
X104828387Y-58531921D01*
X104806443Y-58539773D01*
X104783834Y-58545437D01*
X104760779Y-58548856D01*
X104737500Y-58550000D01*
X104262500Y-58550000D01*
X104239221Y-58548856D01*
X104216166Y-58545437D01*
X104193557Y-58539773D01*
X104171613Y-58531921D01*
X104150543Y-58521956D01*
X104130552Y-58509974D01*
X104111832Y-58496090D01*
X104094562Y-58480438D01*
X104078910Y-58463168D01*
X104065026Y-58444448D01*
X104053044Y-58424457D01*
X104043079Y-58403387D01*
X104035227Y-58381443D01*
X104029563Y-58358834D01*
X104026144Y-58335779D01*
X104025000Y-58312500D01*
X104025000Y-57737500D01*
X104026144Y-57714221D01*
X104029563Y-57691166D01*
X104035227Y-57668557D01*
X104043079Y-57646613D01*
X104053044Y-57625543D01*
X104065026Y-57605552D01*
X104078910Y-57586832D01*
X104094562Y-57569562D01*
X104111832Y-57553910D01*
X104130552Y-57540026D01*
X104150543Y-57528044D01*
X104171613Y-57518079D01*
X104193557Y-57510227D01*
X104216166Y-57504563D01*
X104239221Y-57501144D01*
X104262500Y-57500000D01*
X104737500Y-57500000D01*
X104760779Y-57501144D01*
X104760779Y-57501144D01*
G37*
D13*
X104500000Y-58025000D03*
D10*
G36*
X124910779Y-51601144D02*
G01*
X124933834Y-51604563D01*
X124956443Y-51610227D01*
X124978387Y-51618079D01*
X124999457Y-51628044D01*
X125019448Y-51640026D01*
X125038168Y-51653910D01*
X125055438Y-51669562D01*
X125071090Y-51686832D01*
X125084974Y-51705552D01*
X125096956Y-51725543D01*
X125106921Y-51746613D01*
X125114773Y-51768557D01*
X125120437Y-51791166D01*
X125123856Y-51814221D01*
X125125000Y-51837500D01*
X125125000Y-52412500D01*
X125123856Y-52435779D01*
X125120437Y-52458834D01*
X125114773Y-52481443D01*
X125106921Y-52503387D01*
X125096956Y-52524457D01*
X125084974Y-52544448D01*
X125071090Y-52563168D01*
X125055438Y-52580438D01*
X125038168Y-52596090D01*
X125019448Y-52609974D01*
X124999457Y-52621956D01*
X124978387Y-52631921D01*
X124956443Y-52639773D01*
X124933834Y-52645437D01*
X124910779Y-52648856D01*
X124887500Y-52650000D01*
X124412500Y-52650000D01*
X124389221Y-52648856D01*
X124366166Y-52645437D01*
X124343557Y-52639773D01*
X124321613Y-52631921D01*
X124300543Y-52621956D01*
X124280552Y-52609974D01*
X124261832Y-52596090D01*
X124244562Y-52580438D01*
X124228910Y-52563168D01*
X124215026Y-52544448D01*
X124203044Y-52524457D01*
X124193079Y-52503387D01*
X124185227Y-52481443D01*
X124179563Y-52458834D01*
X124176144Y-52435779D01*
X124175000Y-52412500D01*
X124175000Y-51837500D01*
X124176144Y-51814221D01*
X124179563Y-51791166D01*
X124185227Y-51768557D01*
X124193079Y-51746613D01*
X124203044Y-51725543D01*
X124215026Y-51705552D01*
X124228910Y-51686832D01*
X124244562Y-51669562D01*
X124261832Y-51653910D01*
X124280552Y-51640026D01*
X124300543Y-51628044D01*
X124321613Y-51618079D01*
X124343557Y-51610227D01*
X124366166Y-51604563D01*
X124389221Y-51601144D01*
X124412500Y-51600000D01*
X124887500Y-51600000D01*
X124910779Y-51601144D01*
X124910779Y-51601144D01*
G37*
D13*
X124650000Y-52125000D03*
D10*
G36*
X124910779Y-53351144D02*
G01*
X124933834Y-53354563D01*
X124956443Y-53360227D01*
X124978387Y-53368079D01*
X124999457Y-53378044D01*
X125019448Y-53390026D01*
X125038168Y-53403910D01*
X125055438Y-53419562D01*
X125071090Y-53436832D01*
X125084974Y-53455552D01*
X125096956Y-53475543D01*
X125106921Y-53496613D01*
X125114773Y-53518557D01*
X125120437Y-53541166D01*
X125123856Y-53564221D01*
X125125000Y-53587500D01*
X125125000Y-54162500D01*
X125123856Y-54185779D01*
X125120437Y-54208834D01*
X125114773Y-54231443D01*
X125106921Y-54253387D01*
X125096956Y-54274457D01*
X125084974Y-54294448D01*
X125071090Y-54313168D01*
X125055438Y-54330438D01*
X125038168Y-54346090D01*
X125019448Y-54359974D01*
X124999457Y-54371956D01*
X124978387Y-54381921D01*
X124956443Y-54389773D01*
X124933834Y-54395437D01*
X124910779Y-54398856D01*
X124887500Y-54400000D01*
X124412500Y-54400000D01*
X124389221Y-54398856D01*
X124366166Y-54395437D01*
X124343557Y-54389773D01*
X124321613Y-54381921D01*
X124300543Y-54371956D01*
X124280552Y-54359974D01*
X124261832Y-54346090D01*
X124244562Y-54330438D01*
X124228910Y-54313168D01*
X124215026Y-54294448D01*
X124203044Y-54274457D01*
X124193079Y-54253387D01*
X124185227Y-54231443D01*
X124179563Y-54208834D01*
X124176144Y-54185779D01*
X124175000Y-54162500D01*
X124175000Y-53587500D01*
X124176144Y-53564221D01*
X124179563Y-53541166D01*
X124185227Y-53518557D01*
X124193079Y-53496613D01*
X124203044Y-53475543D01*
X124215026Y-53455552D01*
X124228910Y-53436832D01*
X124244562Y-53419562D01*
X124261832Y-53403910D01*
X124280552Y-53390026D01*
X124300543Y-53378044D01*
X124321613Y-53368079D01*
X124343557Y-53360227D01*
X124366166Y-53354563D01*
X124389221Y-53351144D01*
X124412500Y-53350000D01*
X124887500Y-53350000D01*
X124910779Y-53351144D01*
X124910779Y-53351144D01*
G37*
D13*
X124650000Y-53875000D03*
D10*
G36*
X110780142Y-54951174D02*
G01*
X110803803Y-54954684D01*
X110827007Y-54960496D01*
X110849529Y-54968554D01*
X110871153Y-54978782D01*
X110891670Y-54991079D01*
X110910883Y-55005329D01*
X110928607Y-55021393D01*
X110944671Y-55039117D01*
X110958921Y-55058330D01*
X110971218Y-55078847D01*
X110981446Y-55100471D01*
X110989504Y-55122993D01*
X110995316Y-55146197D01*
X110998826Y-55169858D01*
X111000000Y-55193750D01*
X111000000Y-55681250D01*
X110998826Y-55705142D01*
X110995316Y-55728803D01*
X110989504Y-55752007D01*
X110981446Y-55774529D01*
X110971218Y-55796153D01*
X110958921Y-55816670D01*
X110944671Y-55835883D01*
X110928607Y-55853607D01*
X110910883Y-55869671D01*
X110891670Y-55883921D01*
X110871153Y-55896218D01*
X110849529Y-55906446D01*
X110827007Y-55914504D01*
X110803803Y-55920316D01*
X110780142Y-55923826D01*
X110756250Y-55925000D01*
X109843750Y-55925000D01*
X109819858Y-55923826D01*
X109796197Y-55920316D01*
X109772993Y-55914504D01*
X109750471Y-55906446D01*
X109728847Y-55896218D01*
X109708330Y-55883921D01*
X109689117Y-55869671D01*
X109671393Y-55853607D01*
X109655329Y-55835883D01*
X109641079Y-55816670D01*
X109628782Y-55796153D01*
X109618554Y-55774529D01*
X109610496Y-55752007D01*
X109604684Y-55728803D01*
X109601174Y-55705142D01*
X109600000Y-55681250D01*
X109600000Y-55193750D01*
X109601174Y-55169858D01*
X109604684Y-55146197D01*
X109610496Y-55122993D01*
X109618554Y-55100471D01*
X109628782Y-55078847D01*
X109641079Y-55058330D01*
X109655329Y-55039117D01*
X109671393Y-55021393D01*
X109689117Y-55005329D01*
X109708330Y-54991079D01*
X109728847Y-54978782D01*
X109750471Y-54968554D01*
X109772993Y-54960496D01*
X109796197Y-54954684D01*
X109819858Y-54951174D01*
X109843750Y-54950000D01*
X110756250Y-54950000D01*
X110780142Y-54951174D01*
X110780142Y-54951174D01*
G37*
D12*
X110300000Y-55437500D03*
D10*
G36*
X110780142Y-53076174D02*
G01*
X110803803Y-53079684D01*
X110827007Y-53085496D01*
X110849529Y-53093554D01*
X110871153Y-53103782D01*
X110891670Y-53116079D01*
X110910883Y-53130329D01*
X110928607Y-53146393D01*
X110944671Y-53164117D01*
X110958921Y-53183330D01*
X110971218Y-53203847D01*
X110981446Y-53225471D01*
X110989504Y-53247993D01*
X110995316Y-53271197D01*
X110998826Y-53294858D01*
X111000000Y-53318750D01*
X111000000Y-53806250D01*
X110998826Y-53830142D01*
X110995316Y-53853803D01*
X110989504Y-53877007D01*
X110981446Y-53899529D01*
X110971218Y-53921153D01*
X110958921Y-53941670D01*
X110944671Y-53960883D01*
X110928607Y-53978607D01*
X110910883Y-53994671D01*
X110891670Y-54008921D01*
X110871153Y-54021218D01*
X110849529Y-54031446D01*
X110827007Y-54039504D01*
X110803803Y-54045316D01*
X110780142Y-54048826D01*
X110756250Y-54050000D01*
X109843750Y-54050000D01*
X109819858Y-54048826D01*
X109796197Y-54045316D01*
X109772993Y-54039504D01*
X109750471Y-54031446D01*
X109728847Y-54021218D01*
X109708330Y-54008921D01*
X109689117Y-53994671D01*
X109671393Y-53978607D01*
X109655329Y-53960883D01*
X109641079Y-53941670D01*
X109628782Y-53921153D01*
X109618554Y-53899529D01*
X109610496Y-53877007D01*
X109604684Y-53853803D01*
X109601174Y-53830142D01*
X109600000Y-53806250D01*
X109600000Y-53318750D01*
X109601174Y-53294858D01*
X109604684Y-53271197D01*
X109610496Y-53247993D01*
X109618554Y-53225471D01*
X109628782Y-53203847D01*
X109641079Y-53183330D01*
X109655329Y-53164117D01*
X109671393Y-53146393D01*
X109689117Y-53130329D01*
X109708330Y-53116079D01*
X109728847Y-53103782D01*
X109750471Y-53093554D01*
X109772993Y-53085496D01*
X109796197Y-53079684D01*
X109819858Y-53076174D01*
X109843750Y-53075000D01*
X110756250Y-53075000D01*
X110780142Y-53076174D01*
X110780142Y-53076174D01*
G37*
D12*
X110300000Y-53562500D03*
D10*
G36*
X125135779Y-55126144D02*
G01*
X125158834Y-55129563D01*
X125181443Y-55135227D01*
X125203387Y-55143079D01*
X125224457Y-55153044D01*
X125244448Y-55165026D01*
X125263168Y-55178910D01*
X125280438Y-55194562D01*
X125296090Y-55211832D01*
X125309974Y-55230552D01*
X125321956Y-55250543D01*
X125331921Y-55271613D01*
X125339773Y-55293557D01*
X125345437Y-55316166D01*
X125348856Y-55339221D01*
X125350000Y-55362500D01*
X125350000Y-55837500D01*
X125348856Y-55860779D01*
X125345437Y-55883834D01*
X125339773Y-55906443D01*
X125331921Y-55928387D01*
X125321956Y-55949457D01*
X125309974Y-55969448D01*
X125296090Y-55988168D01*
X125280438Y-56005438D01*
X125263168Y-56021090D01*
X125244448Y-56034974D01*
X125224457Y-56046956D01*
X125203387Y-56056921D01*
X125181443Y-56064773D01*
X125158834Y-56070437D01*
X125135779Y-56073856D01*
X125112500Y-56075000D01*
X124537500Y-56075000D01*
X124514221Y-56073856D01*
X124491166Y-56070437D01*
X124468557Y-56064773D01*
X124446613Y-56056921D01*
X124425543Y-56046956D01*
X124405552Y-56034974D01*
X124386832Y-56021090D01*
X124369562Y-56005438D01*
X124353910Y-55988168D01*
X124340026Y-55969448D01*
X124328044Y-55949457D01*
X124318079Y-55928387D01*
X124310227Y-55906443D01*
X124304563Y-55883834D01*
X124301144Y-55860779D01*
X124300000Y-55837500D01*
X124300000Y-55362500D01*
X124301144Y-55339221D01*
X124304563Y-55316166D01*
X124310227Y-55293557D01*
X124318079Y-55271613D01*
X124328044Y-55250543D01*
X124340026Y-55230552D01*
X124353910Y-55211832D01*
X124369562Y-55194562D01*
X124386832Y-55178910D01*
X124405552Y-55165026D01*
X124425543Y-55153044D01*
X124446613Y-55143079D01*
X124468557Y-55135227D01*
X124491166Y-55129563D01*
X124514221Y-55126144D01*
X124537500Y-55125000D01*
X125112500Y-55125000D01*
X125135779Y-55126144D01*
X125135779Y-55126144D01*
G37*
D13*
X124825000Y-55600000D03*
D10*
G36*
X126885779Y-55126144D02*
G01*
X126908834Y-55129563D01*
X126931443Y-55135227D01*
X126953387Y-55143079D01*
X126974457Y-55153044D01*
X126994448Y-55165026D01*
X127013168Y-55178910D01*
X127030438Y-55194562D01*
X127046090Y-55211832D01*
X127059974Y-55230552D01*
X127071956Y-55250543D01*
X127081921Y-55271613D01*
X127089773Y-55293557D01*
X127095437Y-55316166D01*
X127098856Y-55339221D01*
X127100000Y-55362500D01*
X127100000Y-55837500D01*
X127098856Y-55860779D01*
X127095437Y-55883834D01*
X127089773Y-55906443D01*
X127081921Y-55928387D01*
X127071956Y-55949457D01*
X127059974Y-55969448D01*
X127046090Y-55988168D01*
X127030438Y-56005438D01*
X127013168Y-56021090D01*
X126994448Y-56034974D01*
X126974457Y-56046956D01*
X126953387Y-56056921D01*
X126931443Y-56064773D01*
X126908834Y-56070437D01*
X126885779Y-56073856D01*
X126862500Y-56075000D01*
X126287500Y-56075000D01*
X126264221Y-56073856D01*
X126241166Y-56070437D01*
X126218557Y-56064773D01*
X126196613Y-56056921D01*
X126175543Y-56046956D01*
X126155552Y-56034974D01*
X126136832Y-56021090D01*
X126119562Y-56005438D01*
X126103910Y-55988168D01*
X126090026Y-55969448D01*
X126078044Y-55949457D01*
X126068079Y-55928387D01*
X126060227Y-55906443D01*
X126054563Y-55883834D01*
X126051144Y-55860779D01*
X126050000Y-55837500D01*
X126050000Y-55362500D01*
X126051144Y-55339221D01*
X126054563Y-55316166D01*
X126060227Y-55293557D01*
X126068079Y-55271613D01*
X126078044Y-55250543D01*
X126090026Y-55230552D01*
X126103910Y-55211832D01*
X126119562Y-55194562D01*
X126136832Y-55178910D01*
X126155552Y-55165026D01*
X126175543Y-55153044D01*
X126196613Y-55143079D01*
X126218557Y-55135227D01*
X126241166Y-55129563D01*
X126264221Y-55126144D01*
X126287500Y-55125000D01*
X126862500Y-55125000D01*
X126885779Y-55126144D01*
X126885779Y-55126144D01*
G37*
D13*
X126575000Y-55600000D03*
D10*
G36*
X121410779Y-54351144D02*
G01*
X121433834Y-54354563D01*
X121456443Y-54360227D01*
X121478387Y-54368079D01*
X121499457Y-54378044D01*
X121519448Y-54390026D01*
X121538168Y-54403910D01*
X121555438Y-54419562D01*
X121571090Y-54436832D01*
X121584974Y-54455552D01*
X121596956Y-54475543D01*
X121606921Y-54496613D01*
X121614773Y-54518557D01*
X121620437Y-54541166D01*
X121623856Y-54564221D01*
X121625000Y-54587500D01*
X121625000Y-55162500D01*
X121623856Y-55185779D01*
X121620437Y-55208834D01*
X121614773Y-55231443D01*
X121606921Y-55253387D01*
X121596956Y-55274457D01*
X121584974Y-55294448D01*
X121571090Y-55313168D01*
X121555438Y-55330438D01*
X121538168Y-55346090D01*
X121519448Y-55359974D01*
X121499457Y-55371956D01*
X121478387Y-55381921D01*
X121456443Y-55389773D01*
X121433834Y-55395437D01*
X121410779Y-55398856D01*
X121387500Y-55400000D01*
X120912500Y-55400000D01*
X120889221Y-55398856D01*
X120866166Y-55395437D01*
X120843557Y-55389773D01*
X120821613Y-55381921D01*
X120800543Y-55371956D01*
X120780552Y-55359974D01*
X120761832Y-55346090D01*
X120744562Y-55330438D01*
X120728910Y-55313168D01*
X120715026Y-55294448D01*
X120703044Y-55274457D01*
X120693079Y-55253387D01*
X120685227Y-55231443D01*
X120679563Y-55208834D01*
X120676144Y-55185779D01*
X120675000Y-55162500D01*
X120675000Y-54587500D01*
X120676144Y-54564221D01*
X120679563Y-54541166D01*
X120685227Y-54518557D01*
X120693079Y-54496613D01*
X120703044Y-54475543D01*
X120715026Y-54455552D01*
X120728910Y-54436832D01*
X120744562Y-54419562D01*
X120761832Y-54403910D01*
X120780552Y-54390026D01*
X120800543Y-54378044D01*
X120821613Y-54368079D01*
X120843557Y-54360227D01*
X120866166Y-54354563D01*
X120889221Y-54351144D01*
X120912500Y-54350000D01*
X121387500Y-54350000D01*
X121410779Y-54351144D01*
X121410779Y-54351144D01*
G37*
D13*
X121150000Y-54875000D03*
D10*
G36*
X121410779Y-56101144D02*
G01*
X121433834Y-56104563D01*
X121456443Y-56110227D01*
X121478387Y-56118079D01*
X121499457Y-56128044D01*
X121519448Y-56140026D01*
X121538168Y-56153910D01*
X121555438Y-56169562D01*
X121571090Y-56186832D01*
X121584974Y-56205552D01*
X121596956Y-56225543D01*
X121606921Y-56246613D01*
X121614773Y-56268557D01*
X121620437Y-56291166D01*
X121623856Y-56314221D01*
X121625000Y-56337500D01*
X121625000Y-56912500D01*
X121623856Y-56935779D01*
X121620437Y-56958834D01*
X121614773Y-56981443D01*
X121606921Y-57003387D01*
X121596956Y-57024457D01*
X121584974Y-57044448D01*
X121571090Y-57063168D01*
X121555438Y-57080438D01*
X121538168Y-57096090D01*
X121519448Y-57109974D01*
X121499457Y-57121956D01*
X121478387Y-57131921D01*
X121456443Y-57139773D01*
X121433834Y-57145437D01*
X121410779Y-57148856D01*
X121387500Y-57150000D01*
X120912500Y-57150000D01*
X120889221Y-57148856D01*
X120866166Y-57145437D01*
X120843557Y-57139773D01*
X120821613Y-57131921D01*
X120800543Y-57121956D01*
X120780552Y-57109974D01*
X120761832Y-57096090D01*
X120744562Y-57080438D01*
X120728910Y-57063168D01*
X120715026Y-57044448D01*
X120703044Y-57024457D01*
X120693079Y-57003387D01*
X120685227Y-56981443D01*
X120679563Y-56958834D01*
X120676144Y-56935779D01*
X120675000Y-56912500D01*
X120675000Y-56337500D01*
X120676144Y-56314221D01*
X120679563Y-56291166D01*
X120685227Y-56268557D01*
X120693079Y-56246613D01*
X120703044Y-56225543D01*
X120715026Y-56205552D01*
X120728910Y-56186832D01*
X120744562Y-56169562D01*
X120761832Y-56153910D01*
X120780552Y-56140026D01*
X120800543Y-56128044D01*
X120821613Y-56118079D01*
X120843557Y-56110227D01*
X120866166Y-56104563D01*
X120889221Y-56101144D01*
X120912500Y-56100000D01*
X121387500Y-56100000D01*
X121410779Y-56101144D01*
X121410779Y-56101144D01*
G37*
D13*
X121150000Y-56625000D03*
D18*
X139910000Y-66250000D03*
X137370000Y-66250000D03*
X134830000Y-66250000D03*
X132290000Y-66250000D03*
D19*
X129750000Y-66250000D03*
D18*
X139650000Y-48910000D03*
D19*
X139650000Y-51450000D03*
D18*
X105250000Y-63660000D03*
D19*
X105250000Y-66200000D03*
X105500000Y-55000000D03*
D18*
X105500000Y-48860000D03*
D19*
X105500000Y-51400000D03*
D20*
X128212653Y-64787347D03*
X121700000Y-63700000D03*
X124300000Y-50300000D03*
X114600000Y-52500000D03*
X107800000Y-62300000D03*
X136800000Y-50800000D03*
X140600000Y-56900000D03*
X119700000Y-56600000D03*
X118100000Y-63000000D03*
X125900000Y-58025000D03*
X134501815Y-58513944D03*
X136100000Y-63100000D03*
X123100000Y-53200000D03*
X126700000Y-50700000D03*
X130800000Y-63900000D03*
X108200000Y-56650000D03*
X134152023Y-54741652D03*
X133700000Y-60800000D03*
X130175000Y-58100000D03*
X133300000Y-62650000D03*
X127500000Y-63975000D03*
X118300000Y-49300000D03*
X128800000Y-58500000D03*
X137600000Y-57400000D03*
X130309029Y-56034029D03*
X128700000Y-55300000D03*
X139100000Y-57500000D03*
X112200000Y-60900000D03*
X121400000Y-52500000D03*
D21*
X104500000Y-58025000D02*
X106300000Y-58025000D01*
X106300000Y-55800000D02*
X105500000Y-55000000D01*
X106300000Y-58025000D02*
X106300000Y-55800000D01*
X123300000Y-63237500D02*
X123312500Y-63250000D01*
X123300000Y-61450000D02*
X123300000Y-63237500D01*
X121987500Y-61450000D02*
X121250000Y-62187500D01*
X123300000Y-61450000D02*
X121987500Y-61450000D01*
X117000000Y-56925000D02*
X117075000Y-57000000D01*
X115700000Y-53937500D02*
X115700000Y-51237500D01*
X126750000Y-66250000D02*
X126040000Y-66250000D01*
X128212653Y-64787347D02*
X126750000Y-66250000D01*
X122862500Y-63700000D02*
X123312500Y-63250000D01*
X121700000Y-63700000D02*
X122862500Y-63700000D01*
X124650000Y-52125000D02*
X124650000Y-50650000D01*
X124650000Y-50650000D02*
X124300000Y-50300000D01*
X115700000Y-51237500D02*
X115700000Y-51400000D01*
X115700000Y-51400000D02*
X114600000Y-52500000D01*
X110225000Y-62600000D02*
X108100000Y-62600000D01*
X108100000Y-62600000D02*
X107800000Y-62300000D01*
X130930000Y-51207500D02*
X130930000Y-52900000D01*
X132037500Y-50100000D02*
X130930000Y-51207500D01*
X132037500Y-50100000D02*
X136100000Y-50100000D01*
X136100000Y-50100000D02*
X136800000Y-50800000D01*
X127074072Y-55100928D02*
X126575000Y-55600000D01*
X127100010Y-55074990D02*
X127074072Y-55100928D01*
X127100010Y-53354500D02*
X127100010Y-55074990D01*
X126770500Y-53024990D02*
X127100010Y-53354500D01*
X125549990Y-53024990D02*
X126770500Y-53024990D01*
X124650000Y-52125000D02*
X125549990Y-53024990D01*
X120074990Y-57949990D02*
X118300010Y-57949990D01*
X120875000Y-58750000D02*
X120074990Y-57949990D01*
X127025000Y-56050000D02*
X126575000Y-55600000D01*
X127025000Y-57200000D02*
X127025000Y-56050000D01*
X140525000Y-63350000D02*
X140525000Y-56975000D01*
X140525000Y-56975000D02*
X140600000Y-56900000D01*
X113625000Y-52500000D02*
X112600000Y-53525000D01*
X114600000Y-52500000D02*
X113625000Y-52500000D01*
X110337500Y-53525000D02*
X110300000Y-53562500D01*
X112600000Y-53525000D02*
X110337500Y-53525000D01*
X117500000Y-58750000D02*
X118300010Y-57949990D01*
X117137500Y-55375000D02*
X117000000Y-55237500D01*
X117100000Y-56862500D02*
X117137500Y-56900000D01*
X117100000Y-55037500D02*
X117100000Y-56862500D01*
X117806257Y-57456237D02*
X118300010Y-57949990D01*
X117693737Y-57456237D02*
X117806257Y-57456237D01*
X117137500Y-56900000D02*
X117693737Y-57456237D01*
X116243763Y-54481263D02*
X115700000Y-53937500D01*
X116543763Y-54481263D02*
X116243763Y-54481263D01*
X117100000Y-55037500D02*
X116543763Y-54481263D01*
X123125000Y-56800000D02*
X122950000Y-56625000D01*
X122950000Y-56625000D02*
X121150000Y-56625000D01*
X121150000Y-56625000D02*
X120475000Y-56625000D01*
X120475000Y-56625000D02*
X119725000Y-56625000D01*
X119725000Y-56625000D02*
X119700000Y-56600000D01*
X116250000Y-63870000D02*
X115175000Y-63870000D01*
X116364315Y-63870000D02*
X116250000Y-63870000D01*
X117034315Y-63200000D02*
X116364315Y-63870000D01*
X118100000Y-63000000D02*
X117900000Y-63200000D01*
X117900000Y-63200000D02*
X117034315Y-63200000D01*
X123975000Y-55600000D02*
X122950000Y-56625000D01*
X124825000Y-55600000D02*
X123975000Y-55600000D01*
X110225000Y-66410000D02*
X108265000Y-66410000D01*
X105275000Y-66775000D02*
X105000000Y-66500000D01*
X108265000Y-66410000D02*
X107900000Y-66775000D01*
X107900000Y-66775000D02*
X105275000Y-66775000D01*
X126425000Y-52250000D02*
X126300000Y-52125000D01*
X128270000Y-52250000D02*
X126425000Y-52250000D01*
X128795000Y-53550000D02*
X128270000Y-53550000D01*
X129606263Y-52738737D02*
X128795000Y-53550000D01*
X129606263Y-50656237D02*
X129606263Y-52738737D01*
X130162500Y-50100000D02*
X129606263Y-50656237D01*
X128270000Y-54025000D02*
X128270000Y-53550000D01*
X127924990Y-54370010D02*
X128270000Y-54025000D01*
X127924990Y-57620520D02*
X127924990Y-54370010D01*
X127520510Y-58025000D02*
X127924990Y-57620520D01*
X125900000Y-58025000D02*
X127520510Y-58025000D01*
X134501815Y-58513944D02*
X132900001Y-60115758D01*
X134175000Y-61625000D02*
X134750000Y-61625000D01*
X133451998Y-61625000D02*
X134175000Y-61625000D01*
X132900001Y-61073003D02*
X133451998Y-61625000D01*
X132900001Y-60115758D02*
X132900001Y-61073003D01*
X134750000Y-61625000D02*
X134750000Y-61650000D01*
X134750000Y-61625000D02*
X134750000Y-61750000D01*
X134750000Y-61750000D02*
X136100000Y-63100000D01*
X124600000Y-62662500D02*
X125187500Y-63250000D01*
X124600000Y-61450000D02*
X124600000Y-62662500D01*
X125252500Y-63185000D02*
X125187500Y-63250000D01*
X123500000Y-64937500D02*
X125187500Y-63250000D01*
X123500000Y-66250000D02*
X123500000Y-64937500D01*
X108100000Y-58025000D02*
X109275000Y-58025000D01*
X109275000Y-58025000D02*
X110000000Y-57300000D01*
X128400000Y-63025000D02*
X128400000Y-62285000D01*
X128175000Y-63250000D02*
X128400000Y-63025000D01*
X125187500Y-63250000D02*
X128175000Y-63250000D01*
X128400000Y-63025000D02*
X129275000Y-63900000D01*
X136575000Y-60612500D02*
X137287500Y-59900000D01*
X136575000Y-61750000D02*
X136575000Y-60612500D01*
X125574999Y-49574999D02*
X126700000Y-50700000D01*
X123951999Y-49574999D02*
X125574999Y-49574999D01*
X123100000Y-53200000D02*
X123100000Y-50426998D01*
X123100000Y-50426998D02*
X123951999Y-49574999D01*
X134975010Y-63349990D02*
X134750000Y-63349990D01*
X134750000Y-63375000D02*
X131325000Y-63375000D01*
X131325000Y-63375000D02*
X130800000Y-63900000D01*
X129275000Y-63900000D02*
X130800000Y-63900000D01*
X135249072Y-63874072D02*
X134750000Y-63375000D01*
X136398930Y-63874072D02*
X135249072Y-63874072D01*
X136825001Y-63448001D02*
X136398930Y-63874072D01*
X136825001Y-62751999D02*
X136825001Y-63448001D01*
X136575000Y-62501998D02*
X136825001Y-62751999D01*
X136575000Y-61750000D02*
X136575000Y-62501998D01*
X110462500Y-55275000D02*
X110300000Y-55437500D01*
X112600000Y-55275000D02*
X110462500Y-55275000D01*
X110300000Y-57000000D02*
X110000000Y-57300000D01*
X110300000Y-55437500D02*
X110300000Y-57000000D01*
X108200000Y-57925000D02*
X108100000Y-58025000D01*
X108200000Y-56650000D02*
X108200000Y-57925000D01*
X134812500Y-60800000D02*
X135712500Y-59900000D01*
X133700000Y-60800000D02*
X134812500Y-60800000D01*
X135712500Y-56302129D02*
X134152023Y-54741652D01*
X135712500Y-59900000D02*
X135712500Y-56302129D01*
X132963589Y-62650000D02*
X133300000Y-62650000D01*
X132449991Y-62136402D02*
X132963589Y-62650000D01*
X130175000Y-58100000D02*
X132449991Y-60374991D01*
X132449991Y-60374991D02*
X132449991Y-62136402D01*
X128713590Y-63975000D02*
X129363591Y-64625001D01*
X127500000Y-63975000D02*
X128713590Y-63975000D01*
X133205001Y-64625001D02*
X134830000Y-66250000D01*
X129363591Y-64625001D02*
X133205001Y-64625001D01*
X115650000Y-62125000D02*
X119250000Y-62125000D01*
X115175000Y-62600000D02*
X115650000Y-62125000D01*
X119437500Y-62125000D02*
X119250000Y-62125000D01*
X121250000Y-60312500D02*
X119437500Y-62125000D01*
X122012500Y-59550000D02*
X121250000Y-60312500D01*
X123300000Y-59550000D02*
X122012500Y-59550000D01*
X123300000Y-60111410D02*
X123300000Y-59550000D01*
X123950000Y-60761410D02*
X123300000Y-60111410D01*
X123950000Y-61450000D02*
X123950000Y-60761410D01*
X121350010Y-57475010D02*
X119502008Y-57475010D01*
X123300000Y-59425000D02*
X121350010Y-57475010D01*
X123300000Y-59550000D02*
X123300000Y-59425000D01*
X118300000Y-49300000D02*
X118300000Y-52062500D01*
X118237500Y-49362500D02*
X118300000Y-49300000D01*
X115700000Y-49362500D02*
X118237500Y-49362500D01*
X117756237Y-52606263D02*
X118300000Y-52062500D01*
X117656237Y-52606263D02*
X117756237Y-52606263D01*
X117100000Y-53162500D02*
X117656237Y-52606263D01*
X118125010Y-54187510D02*
X117656237Y-53718737D01*
X118125010Y-56098012D02*
X118125010Y-54187510D01*
X119351999Y-57325001D02*
X118125010Y-56098012D01*
X119475001Y-57325001D02*
X119351999Y-57325001D01*
X117656237Y-53718737D02*
X117100000Y-53162500D01*
X119502008Y-57352008D02*
X119475001Y-57325001D01*
X119502008Y-57475010D02*
X119502008Y-57352008D01*
X124600000Y-59550000D02*
X125050000Y-59550000D01*
X128775000Y-58475000D02*
X128800000Y-58500000D01*
X128775000Y-57200000D02*
X128775000Y-58475000D01*
X125500001Y-59099999D02*
X125050000Y-59550000D01*
X127450001Y-59099999D02*
X125500001Y-59099999D01*
X128775000Y-57775000D02*
X127450001Y-59099999D01*
X128775000Y-57200000D02*
X128775000Y-57775000D01*
X116925000Y-60500000D02*
X117500000Y-60500000D01*
X116465710Y-60959290D02*
X116925000Y-60500000D01*
X115545710Y-60959290D02*
X116465710Y-60959290D01*
X115175000Y-61330000D02*
X115545710Y-60959290D01*
X119125000Y-60500000D02*
X119250000Y-60375000D01*
X117500000Y-60500000D02*
X119125000Y-60500000D01*
X119250000Y-58875000D02*
X119125000Y-58750000D01*
X119250000Y-60375000D02*
X119250000Y-58875000D01*
X115175000Y-58790000D02*
X115175000Y-60060000D01*
X110595710Y-63499290D02*
X110225000Y-63870000D01*
X110972478Y-63499290D02*
X110595710Y-63499290D01*
X114041058Y-60430710D02*
X110972478Y-63499290D01*
X114804290Y-60430710D02*
X114041058Y-60430710D01*
X115175000Y-60060000D02*
X114804290Y-60430710D01*
X115175000Y-57150000D02*
X115325000Y-57000000D01*
X105090000Y-63870000D02*
X105000000Y-63960000D01*
X105460000Y-63870000D02*
X105250000Y-63660000D01*
X110225000Y-63870000D02*
X105460000Y-63870000D01*
X115262500Y-58702500D02*
X115175000Y-58790000D01*
X115262500Y-56900000D02*
X115262500Y-58702500D01*
X138325000Y-58125000D02*
X138325000Y-61750000D01*
X137600000Y-57400000D02*
X138325000Y-58125000D01*
X137600000Y-56834315D02*
X137600000Y-57400000D01*
X134782336Y-54016651D02*
X137600000Y-56834315D01*
X133804022Y-54016651D02*
X134782336Y-54016651D01*
X132186643Y-55634030D02*
X133804022Y-54016651D01*
X130709028Y-55634030D02*
X132186643Y-55634030D01*
X130309029Y-56034029D02*
X130709028Y-55634030D01*
X135616651Y-54016651D02*
X139100000Y-57500000D01*
X129099999Y-54900001D02*
X128700000Y-55300000D01*
X130433359Y-53566641D02*
X129099999Y-54900001D01*
X134968736Y-53566641D02*
X130433359Y-53566641D01*
X135418746Y-54016651D02*
X134968736Y-53566641D01*
X135616651Y-54016651D02*
X135418746Y-54016651D01*
X139499999Y-57899999D02*
X139100000Y-57500000D01*
X139500000Y-62625000D02*
X139499999Y-57899999D01*
X138775000Y-63350000D02*
X139500000Y-62625000D01*
X119425000Y-67000000D02*
X118131768Y-67000000D01*
X110110000Y-65025000D02*
X110225000Y-65140000D01*
X107900000Y-65025000D02*
X110110000Y-65025000D01*
X117225928Y-67299072D02*
X117725000Y-66800000D01*
X114099072Y-67299072D02*
X117225928Y-67299072D01*
X112310710Y-65510710D02*
X114099072Y-67299072D01*
X110595710Y-65510710D02*
X112310710Y-65510710D01*
X110225000Y-65140000D02*
X110595710Y-65510710D01*
X123950000Y-60125000D02*
X123950000Y-59550000D01*
X124025001Y-60200001D02*
X123950000Y-60125000D01*
X126164999Y-60200001D02*
X124025001Y-60200001D01*
X126450000Y-59915000D02*
X126164999Y-60200001D01*
X128400000Y-59915000D02*
X126450000Y-59915000D01*
X110225000Y-58790000D02*
X110225000Y-60060000D01*
X111360000Y-60060000D02*
X110225000Y-60060000D01*
X112200000Y-60900000D02*
X111360000Y-60060000D01*
X123650000Y-54875000D02*
X124650000Y-53875000D01*
X122950000Y-54875000D02*
X123650000Y-54875000D01*
X124650000Y-53875000D02*
X126300000Y-53875000D01*
X121400000Y-54625000D02*
X121150000Y-54875000D01*
X121400000Y-52500000D02*
X121400000Y-54625000D01*
X108599072Y-60274072D02*
X108100000Y-59775000D01*
X109284290Y-60959290D02*
X108599072Y-60274072D01*
X109854290Y-60959290D02*
X109284290Y-60959290D01*
X110225000Y-61330000D02*
X109854290Y-60959290D01*
X108100000Y-59775000D02*
X106300000Y-59775000D01*
X106300000Y-59775000D02*
X104500000Y-59775000D01*
X119537500Y-66487490D02*
X119475000Y-66549990D01*
X119537500Y-65000000D02*
X119537500Y-66487490D01*
X115175000Y-65140000D02*
X115175000Y-66410000D01*
X115315000Y-65000000D02*
X115175000Y-65140000D01*
X117662500Y-65000000D02*
X115315000Y-65000000D01*
M02*
