M48
; DRILL file {KiCad (5.1.2)-2} date 20/05/2020 11:18:13 PM
; FORMAT={-:-/ absolute / inch / decimal}
; #@! TF.CreationDate,2020-05-20T23:18:13+10:00
; #@! TF.GenerationSoftware,Kicad,Pcbnew,(5.1.2)-2
; #@! TF.FileFunction,Plated,1,4,PTH
FMAT,2
INCH
T1C0.0157
T2C0.0394
%
G90
G05
T1
X4.2441Y-2.4528
X4.2598Y-2.2303
X4.4173Y-2.3976
X4.5118Y-2.0669
X4.6496Y-2.4803
X4.6575Y-1.9409
X4.7126Y-2.2283
X4.7795Y-2.0669
X4.7913Y-2.5079
X4.8465Y-2.0945
X4.8937Y-1.9803
X4.9567Y-2.2844
X4.9882Y-1.9961
X5.0197Y-2.5187
X5.0477Y-2.5507
X5.0669Y-2.1772
X5.0709Y-2.3031
X5.125Y-2.2874
X5.1303Y-2.2061
X5.1496Y-2.5157
X5.248Y-2.4665
X5.2638Y-2.3937
X5.2816Y-2.1552
X5.2953Y-2.3037
X5.3583Y-2.4843
X5.3858Y-2.0
X5.4173Y-2.2598
X5.4764Y-2.2638
X5.5354Y-2.2402
T2
X4.8622Y-2.6083
X4.9622Y-2.6083
X5.1083Y-2.6083
X5.2083Y-2.6083
X5.3083Y-2.6083
X5.4083Y-2.6083
X5.5083Y-2.6083
X4.1437Y-2.5063
X4.1437Y-2.6063
X5.498Y-1.9256
X5.498Y-2.0256
X4.1535Y-2.1654
X4.1535Y-1.9236
X4.1535Y-2.0236
T0
M30
