G04 #@! TF.GenerationSoftware,KiCad,Pcbnew,(5.1.5)-3*
G04 #@! TF.CreationDate,2020-02-18T08:36:52+11:00*
G04 #@! TF.ProjectId,Heterodyne,48657465-726f-4647-996e-652e6b696361,rev?*
G04 #@! TF.SameCoordinates,Original*
G04 #@! TF.FileFunction,Legend,Bot*
G04 #@! TF.FilePolarity,Positive*
%FSLAX46Y46*%
G04 Gerber Fmt 4.6, Leading zero omitted, Abs format (unit mm)*
G04 Created by KiCad (PCBNEW (5.1.5)-3) date 2020-02-18 08:36:52*
%MOMM*%
%LPD*%
G04 APERTURE LIST*
%ADD10C,0.120000*%
%ADD11C,0.150000*%
G04 APERTURE END LIST*
D10*
X137390000Y-60346267D02*
X137390000Y-60003733D01*
X138410000Y-60346267D02*
X138410000Y-60003733D01*
X121010000Y-61953733D02*
X121010000Y-62296267D01*
X119990000Y-61953733D02*
X119990000Y-62296267D01*
X126799553Y-52179198D02*
X127041762Y-51936989D01*
X127520802Y-52900447D02*
X127763011Y-52658238D01*
X123603922Y-51890000D02*
X124121078Y-51890000D01*
X123603922Y-53310000D02*
X124121078Y-53310000D01*
X136096267Y-55410000D02*
X135753733Y-55410000D01*
X136096267Y-54390000D02*
X135753733Y-54390000D01*
D11*
X130725000Y-56575000D02*
X130725000Y-56800000D01*
X123475000Y-56575000D02*
X123475000Y-56900000D01*
X123475000Y-63825000D02*
X123475000Y-63500000D01*
X130725000Y-63825000D02*
X130725000Y-63500000D01*
X130725000Y-56575000D02*
X130400000Y-56575000D01*
X130725000Y-63825000D02*
X130400000Y-63825000D01*
X123475000Y-63825000D02*
X123800000Y-63825000D01*
X123475000Y-56575000D02*
X123800000Y-56575000D01*
X130725000Y-56800000D02*
X132150000Y-56800000D01*
D10*
X133300000Y-62050000D02*
X133300000Y-56300000D01*
X133300000Y-56300000D02*
X136900000Y-56300000D01*
X136900000Y-56300000D02*
X136900000Y-62050000D01*
D11*
X138166666Y-58157142D02*
X138214285Y-58204761D01*
X138357142Y-58252380D01*
X138452380Y-58252380D01*
X138595238Y-58204761D01*
X138690476Y-58109523D01*
X138738095Y-58014285D01*
X138785714Y-57823809D01*
X138785714Y-57680952D01*
X138738095Y-57490476D01*
X138690476Y-57395238D01*
X138595238Y-57300000D01*
X138452380Y-57252380D01*
X138357142Y-57252380D01*
X138214285Y-57300000D01*
X138166666Y-57347619D01*
X137309523Y-57252380D02*
X137500000Y-57252380D01*
X137595238Y-57300000D01*
X137642857Y-57347619D01*
X137738095Y-57490476D01*
X137785714Y-57680952D01*
X137785714Y-58061904D01*
X137738095Y-58157142D01*
X137690476Y-58204761D01*
X137595238Y-58252380D01*
X137404761Y-58252380D01*
X137309523Y-58204761D01*
X137261904Y-58157142D01*
X137214285Y-58061904D01*
X137214285Y-57823809D01*
X137261904Y-57728571D01*
X137309523Y-57680952D01*
X137404761Y-57633333D01*
X137595238Y-57633333D01*
X137690476Y-57680952D01*
X137738095Y-57728571D01*
X137785714Y-57823809D01*
X119522380Y-61482142D02*
X119046190Y-61148809D01*
X119522380Y-60910714D02*
X118522380Y-60910714D01*
X118522380Y-61291666D01*
X118570000Y-61386904D01*
X118617619Y-61434523D01*
X118712857Y-61482142D01*
X118855714Y-61482142D01*
X118950952Y-61434523D01*
X118998571Y-61386904D01*
X119046190Y-61291666D01*
X119046190Y-60910714D01*
X119522380Y-62434523D02*
X119522380Y-61863095D01*
X119522380Y-62148809D02*
X118522380Y-62148809D01*
X118665238Y-62053571D01*
X118760476Y-61958333D01*
X118808095Y-61863095D01*
X119522380Y-63386904D02*
X119522380Y-62815476D01*
X119522380Y-63101190D02*
X118522380Y-63101190D01*
X118665238Y-63005952D01*
X118760476Y-62910714D01*
X118808095Y-62815476D01*
X128730177Y-53631911D02*
X128629162Y-53059491D01*
X129134238Y-53227850D02*
X128427132Y-52520743D01*
X128157757Y-52790117D01*
X128124086Y-52891132D01*
X128124086Y-52958476D01*
X128157757Y-53059491D01*
X128258773Y-53160506D01*
X128359788Y-53194178D01*
X128427132Y-53194178D01*
X128528147Y-53160506D01*
X128797521Y-52891132D01*
X127922055Y-53631911D02*
X127955727Y-53530896D01*
X127955727Y-53463552D01*
X127922055Y-53362537D01*
X127888383Y-53328865D01*
X127787368Y-53295193D01*
X127720025Y-53295193D01*
X127619009Y-53328865D01*
X127484322Y-53463552D01*
X127450651Y-53564568D01*
X127450651Y-53631911D01*
X127484322Y-53732926D01*
X127517994Y-53766598D01*
X127619009Y-53800270D01*
X127686353Y-53800270D01*
X127787368Y-53766598D01*
X127922055Y-53631911D01*
X128023070Y-53598239D01*
X128090414Y-53598239D01*
X128191429Y-53631911D01*
X128326116Y-53766598D01*
X128359788Y-53867613D01*
X128359788Y-53934957D01*
X128326116Y-54035972D01*
X128191429Y-54170659D01*
X128090414Y-54204331D01*
X128023070Y-54204331D01*
X127922055Y-54170659D01*
X127787368Y-54035972D01*
X127753696Y-53934957D01*
X127753696Y-53867613D01*
X127787368Y-53766598D01*
X124505357Y-54607142D02*
X124552976Y-54654761D01*
X124695833Y-54702380D01*
X124791071Y-54702380D01*
X124933928Y-54654761D01*
X125029166Y-54559523D01*
X125076785Y-54464285D01*
X125124404Y-54273809D01*
X125124404Y-54130952D01*
X125076785Y-53940476D01*
X125029166Y-53845238D01*
X124933928Y-53750000D01*
X124791071Y-53702380D01*
X124695833Y-53702380D01*
X124552976Y-53750000D01*
X124505357Y-53797619D01*
X123552976Y-54702380D02*
X124124404Y-54702380D01*
X123838690Y-54702380D02*
X123838690Y-53702380D01*
X123933928Y-53845238D01*
X124029166Y-53940476D01*
X124124404Y-53988095D01*
X122600595Y-54702380D02*
X123172023Y-54702380D01*
X122886309Y-54702380D02*
X122886309Y-53702380D01*
X122981547Y-53845238D01*
X123076785Y-53940476D01*
X123172023Y-53988095D01*
X137966666Y-55957142D02*
X138014285Y-56004761D01*
X138157142Y-56052380D01*
X138252380Y-56052380D01*
X138395238Y-56004761D01*
X138490476Y-55909523D01*
X138538095Y-55814285D01*
X138585714Y-55623809D01*
X138585714Y-55480952D01*
X138538095Y-55290476D01*
X138490476Y-55195238D01*
X138395238Y-55100000D01*
X138252380Y-55052380D01*
X138157142Y-55052380D01*
X138014285Y-55100000D01*
X137966666Y-55147619D01*
X137061904Y-55052380D02*
X137538095Y-55052380D01*
X137585714Y-55528571D01*
X137538095Y-55480952D01*
X137442857Y-55433333D01*
X137204761Y-55433333D01*
X137109523Y-55480952D01*
X137061904Y-55528571D01*
X137014285Y-55623809D01*
X137014285Y-55861904D01*
X137061904Y-55957142D01*
X137109523Y-56004761D01*
X137204761Y-56052380D01*
X137442857Y-56052380D01*
X137538095Y-56004761D01*
X137585714Y-55957142D01*
X132061904Y-55352380D02*
X132061904Y-56161904D01*
X132014285Y-56257142D01*
X131966666Y-56304761D01*
X131871428Y-56352380D01*
X131680952Y-56352380D01*
X131585714Y-56304761D01*
X131538095Y-56257142D01*
X131490476Y-56161904D01*
X131490476Y-55352380D01*
X130538095Y-55352380D02*
X131014285Y-55352380D01*
X131061904Y-55828571D01*
X131014285Y-55780952D01*
X130919047Y-55733333D01*
X130680952Y-55733333D01*
X130585714Y-55780952D01*
X130538095Y-55828571D01*
X130490476Y-55923809D01*
X130490476Y-56161904D01*
X130538095Y-56257142D01*
X130585714Y-56304761D01*
X130680952Y-56352380D01*
X130919047Y-56352380D01*
X131014285Y-56304761D01*
X131061904Y-56257142D01*
X133576190Y-54676190D02*
X133576190Y-55152380D01*
X133909523Y-54152380D02*
X133576190Y-54676190D01*
X133242857Y-54152380D01*
X132385714Y-55152380D02*
X132957142Y-55152380D01*
X132671428Y-55152380D02*
X132671428Y-54152380D01*
X132766666Y-54295238D01*
X132861904Y-54390476D01*
X132957142Y-54438095D01*
M02*
