G04 #@! TF.GenerationSoftware,KiCad,Pcbnew,(5.1.5)-3*
G04 #@! TF.CreationDate,2020-07-02T11:34:45+10:00*
G04 #@! TF.ProjectId,Heterodyne,48657465-726f-4647-996e-652e6b696361,rev?*
G04 #@! TF.SameCoordinates,Original*
G04 #@! TF.FileFunction,Soldermask,Top*
G04 #@! TF.FilePolarity,Negative*
%FSLAX46Y46*%
G04 Gerber Fmt 4.6, Leading zero omitted, Abs format (unit mm)*
G04 Created by KiCad (PCBNEW (5.1.5)-3) date 2020-07-02 11:34:45*
%MOMM*%
%LPD*%
G04 APERTURE LIST*
%ADD10C,0.100000*%
G04 APERTURE END LIST*
D10*
G36*
X114155051Y-64151284D02*
G01*
X114171446Y-64156258D01*
X114191078Y-64166751D01*
X114213717Y-64176128D01*
X114237750Y-64180908D01*
X114262254Y-64180908D01*
X114286287Y-64176127D01*
X114308922Y-64166751D01*
X114328554Y-64156258D01*
X114344949Y-64151284D01*
X114368141Y-64149000D01*
X114781859Y-64149000D01*
X114805051Y-64151284D01*
X114821446Y-64156258D01*
X114841078Y-64166751D01*
X114863717Y-64176128D01*
X114887750Y-64180908D01*
X114912254Y-64180908D01*
X114936287Y-64176127D01*
X114958922Y-64166751D01*
X114978554Y-64156258D01*
X114994949Y-64151284D01*
X115018141Y-64149000D01*
X115431859Y-64149000D01*
X115455051Y-64151284D01*
X115471446Y-64156258D01*
X115491078Y-64166751D01*
X115513717Y-64176128D01*
X115537750Y-64180908D01*
X115562254Y-64180908D01*
X115586287Y-64176127D01*
X115608922Y-64166751D01*
X115628554Y-64156258D01*
X115644949Y-64151284D01*
X115668141Y-64149000D01*
X116081859Y-64149000D01*
X116105051Y-64151284D01*
X116121443Y-64156257D01*
X116136555Y-64164334D01*
X116149798Y-64175202D01*
X116160666Y-64188445D01*
X116168743Y-64203557D01*
X116173716Y-64219949D01*
X116176000Y-64243141D01*
X116176000Y-65781859D01*
X116173716Y-65805051D01*
X116168743Y-65821443D01*
X116160666Y-65836555D01*
X116149798Y-65849798D01*
X116136555Y-65860666D01*
X116121443Y-65868743D01*
X116105051Y-65873716D01*
X116081859Y-65876000D01*
X115668141Y-65876000D01*
X115644949Y-65873716D01*
X115628554Y-65868742D01*
X115608922Y-65858249D01*
X115586283Y-65848872D01*
X115562250Y-65844092D01*
X115537746Y-65844092D01*
X115513713Y-65848873D01*
X115491078Y-65858249D01*
X115471446Y-65868742D01*
X115455051Y-65873716D01*
X115431859Y-65876000D01*
X115018141Y-65876000D01*
X114994949Y-65873716D01*
X114978554Y-65868742D01*
X114958922Y-65858249D01*
X114936283Y-65848872D01*
X114912250Y-65844092D01*
X114887746Y-65844092D01*
X114863713Y-65848873D01*
X114841078Y-65858249D01*
X114821446Y-65868742D01*
X114805051Y-65873716D01*
X114781859Y-65876000D01*
X114368141Y-65876000D01*
X114344949Y-65873716D01*
X114328554Y-65868742D01*
X114308922Y-65858249D01*
X114286283Y-65848872D01*
X114262250Y-65844092D01*
X114237746Y-65844092D01*
X114213713Y-65848873D01*
X114191078Y-65858249D01*
X114171446Y-65868742D01*
X114155051Y-65873716D01*
X114131859Y-65876000D01*
X113718141Y-65876000D01*
X113694949Y-65873716D01*
X113678557Y-65868743D01*
X113663445Y-65860666D01*
X113650202Y-65849798D01*
X113639334Y-65836555D01*
X113631257Y-65821443D01*
X113626284Y-65805051D01*
X113624000Y-65781859D01*
X113624000Y-64243141D01*
X113626284Y-64219949D01*
X113631257Y-64203557D01*
X113639334Y-64188445D01*
X113650202Y-64175202D01*
X113663445Y-64164334D01*
X113678557Y-64156257D01*
X113694949Y-64151284D01*
X113718141Y-64149000D01*
X114131859Y-64149000D01*
X114155051Y-64151284D01*
G37*
G36*
X136913512Y-63403927D02*
G01*
X137062812Y-63433624D01*
X137226784Y-63501544D01*
X137374354Y-63600147D01*
X137499853Y-63725646D01*
X137598456Y-63873216D01*
X137666376Y-64037188D01*
X137701000Y-64211259D01*
X137701000Y-64388741D01*
X137666376Y-64562812D01*
X137598456Y-64726784D01*
X137499853Y-64874354D01*
X137374354Y-64999853D01*
X137226784Y-65098456D01*
X137062812Y-65166376D01*
X136913512Y-65196073D01*
X136888742Y-65201000D01*
X136711258Y-65201000D01*
X136686488Y-65196073D01*
X136537188Y-65166376D01*
X136373216Y-65098456D01*
X136225646Y-64999853D01*
X136100147Y-64874354D01*
X136001544Y-64726784D01*
X135933624Y-64562812D01*
X135899000Y-64388741D01*
X135899000Y-64211259D01*
X135933624Y-64037188D01*
X136001544Y-63873216D01*
X136100147Y-63725646D01*
X136225646Y-63600147D01*
X136373216Y-63501544D01*
X136537188Y-63433624D01*
X136686488Y-63403927D01*
X136711258Y-63399000D01*
X136888742Y-63399000D01*
X136913512Y-63403927D01*
G37*
G36*
X135161000Y-65201000D02*
G01*
X133359000Y-65201000D01*
X133359000Y-63399000D01*
X135161000Y-63399000D01*
X135161000Y-65201000D01*
G37*
G36*
X129317091Y-64078085D02*
G01*
X129351069Y-64088393D01*
X129382390Y-64105134D01*
X129409839Y-64127661D01*
X129432366Y-64155110D01*
X129449107Y-64186431D01*
X129459415Y-64220409D01*
X129463500Y-64261890D01*
X129463500Y-64938110D01*
X129459415Y-64979591D01*
X129449107Y-65013569D01*
X129432366Y-65044890D01*
X129409839Y-65072339D01*
X129382390Y-65094866D01*
X129351069Y-65111607D01*
X129317091Y-65121915D01*
X129275610Y-65126000D01*
X128674390Y-65126000D01*
X128632909Y-65121915D01*
X128598931Y-65111607D01*
X128567610Y-65094866D01*
X128540161Y-65072339D01*
X128517634Y-65044890D01*
X128500893Y-65013569D01*
X128490585Y-64979591D01*
X128486500Y-64938110D01*
X128486500Y-64261890D01*
X128490585Y-64220409D01*
X128500893Y-64186431D01*
X128517634Y-64155110D01*
X128540161Y-64127661D01*
X128567610Y-64105134D01*
X128598931Y-64088393D01*
X128632909Y-64078085D01*
X128674390Y-64074000D01*
X129275610Y-64074000D01*
X129317091Y-64078085D01*
G37*
G36*
X127742091Y-64078085D02*
G01*
X127776069Y-64088393D01*
X127807390Y-64105134D01*
X127834839Y-64127661D01*
X127857366Y-64155110D01*
X127874107Y-64186431D01*
X127884415Y-64220409D01*
X127888500Y-64261890D01*
X127888500Y-64938110D01*
X127884415Y-64979591D01*
X127874107Y-65013569D01*
X127857366Y-65044890D01*
X127834839Y-65072339D01*
X127807390Y-65094866D01*
X127776069Y-65111607D01*
X127742091Y-65121915D01*
X127700610Y-65126000D01*
X127099390Y-65126000D01*
X127057909Y-65121915D01*
X127023931Y-65111607D01*
X126992610Y-65094866D01*
X126965161Y-65072339D01*
X126942634Y-65044890D01*
X126925893Y-65013569D01*
X126915585Y-64979591D01*
X126911500Y-64938110D01*
X126911500Y-64261890D01*
X126915585Y-64220409D01*
X126925893Y-64186431D01*
X126942634Y-64155110D01*
X126965161Y-64127661D01*
X126992610Y-64105134D01*
X127023931Y-64088393D01*
X127057909Y-64078085D01*
X127099390Y-64074000D01*
X127700610Y-64074000D01*
X127742091Y-64078085D01*
G37*
G36*
X117979591Y-62903085D02*
G01*
X118013569Y-62913393D01*
X118044890Y-62930134D01*
X118072339Y-62952661D01*
X118094866Y-62980110D01*
X118111607Y-63011431D01*
X118121915Y-63045409D01*
X118126000Y-63086890D01*
X118126000Y-63688110D01*
X118121915Y-63729591D01*
X118111607Y-63763569D01*
X118094866Y-63794890D01*
X118072339Y-63822339D01*
X118044890Y-63844866D01*
X118013569Y-63861607D01*
X117979591Y-63871915D01*
X117938110Y-63876000D01*
X117261890Y-63876000D01*
X117220409Y-63871915D01*
X117186431Y-63861607D01*
X117155110Y-63844866D01*
X117127661Y-63822339D01*
X117105134Y-63794890D01*
X117088393Y-63763569D01*
X117078085Y-63729591D01*
X117074000Y-63688110D01*
X117074000Y-63086890D01*
X117078085Y-63045409D01*
X117088393Y-63011431D01*
X117105134Y-62980110D01*
X117127661Y-62952661D01*
X117155110Y-62930134D01*
X117186431Y-62913393D01*
X117220409Y-62903085D01*
X117261890Y-62899000D01*
X117938110Y-62899000D01*
X117979591Y-62903085D01*
G37*
G36*
X126167091Y-62328085D02*
G01*
X126201069Y-62338393D01*
X126232390Y-62355134D01*
X126259839Y-62377661D01*
X126282366Y-62405110D01*
X126299107Y-62436431D01*
X126309415Y-62470409D01*
X126313500Y-62511890D01*
X126313500Y-63188110D01*
X126309415Y-63229591D01*
X126299107Y-63263569D01*
X126282366Y-63294890D01*
X126259839Y-63322339D01*
X126232390Y-63344866D01*
X126201069Y-63361607D01*
X126167091Y-63371915D01*
X126125610Y-63376000D01*
X125524390Y-63376000D01*
X125482909Y-63371915D01*
X125448931Y-63361607D01*
X125417610Y-63344866D01*
X125390161Y-63322339D01*
X125367634Y-63294890D01*
X125350893Y-63263569D01*
X125340585Y-63229591D01*
X125336500Y-63188110D01*
X125336500Y-62511890D01*
X125340585Y-62470409D01*
X125350893Y-62436431D01*
X125367634Y-62405110D01*
X125390161Y-62377661D01*
X125417610Y-62355134D01*
X125448931Y-62338393D01*
X125482909Y-62328085D01*
X125524390Y-62324000D01*
X126125610Y-62324000D01*
X126167091Y-62328085D01*
G37*
G36*
X127742091Y-62328085D02*
G01*
X127776069Y-62338393D01*
X127807390Y-62355134D01*
X127834839Y-62377661D01*
X127857366Y-62405110D01*
X127874107Y-62436431D01*
X127884415Y-62470409D01*
X127888500Y-62511890D01*
X127888500Y-63188110D01*
X127884415Y-63229591D01*
X127874107Y-63263569D01*
X127857366Y-63294890D01*
X127834839Y-63322339D01*
X127807390Y-63344866D01*
X127776069Y-63361607D01*
X127742091Y-63371915D01*
X127700610Y-63376000D01*
X127099390Y-63376000D01*
X127057909Y-63371915D01*
X127023931Y-63361607D01*
X126992610Y-63344866D01*
X126965161Y-63322339D01*
X126942634Y-63294890D01*
X126925893Y-63263569D01*
X126915585Y-63229591D01*
X126911500Y-63188110D01*
X126911500Y-62511890D01*
X126915585Y-62470409D01*
X126925893Y-62436431D01*
X126942634Y-62405110D01*
X126965161Y-62377661D01*
X126992610Y-62355134D01*
X127023931Y-62338393D01*
X127057909Y-62328085D01*
X127099390Y-62324000D01*
X127700610Y-62324000D01*
X127742091Y-62328085D01*
G37*
G36*
X112479591Y-62003085D02*
G01*
X112513569Y-62013393D01*
X112544890Y-62030134D01*
X112572339Y-62052661D01*
X112594866Y-62080110D01*
X112611607Y-62111431D01*
X112621915Y-62145409D01*
X112626000Y-62186890D01*
X112626000Y-62788110D01*
X112621915Y-62829591D01*
X112611607Y-62863569D01*
X112594866Y-62894890D01*
X112572339Y-62922339D01*
X112544890Y-62944866D01*
X112513569Y-62961607D01*
X112479591Y-62971915D01*
X112438110Y-62976000D01*
X111761890Y-62976000D01*
X111720409Y-62971915D01*
X111686431Y-62961607D01*
X111655110Y-62944866D01*
X111627661Y-62922339D01*
X111605134Y-62894890D01*
X111588393Y-62863569D01*
X111578085Y-62829591D01*
X111574000Y-62788110D01*
X111574000Y-62186890D01*
X111578085Y-62145409D01*
X111588393Y-62111431D01*
X111605134Y-62080110D01*
X111627661Y-62052661D01*
X111655110Y-62030134D01*
X111686431Y-62013393D01*
X111720409Y-62003085D01*
X111761890Y-61999000D01*
X112438110Y-61999000D01*
X112479591Y-62003085D01*
G37*
G36*
X117979591Y-61328085D02*
G01*
X118013569Y-61338393D01*
X118044890Y-61355134D01*
X118072339Y-61377661D01*
X118094866Y-61405110D01*
X118111607Y-61436431D01*
X118121915Y-61470409D01*
X118126000Y-61511890D01*
X118126000Y-62113110D01*
X118121915Y-62154591D01*
X118111607Y-62188569D01*
X118094866Y-62219890D01*
X118072339Y-62247339D01*
X118044890Y-62269866D01*
X118013569Y-62286607D01*
X117979591Y-62296915D01*
X117938110Y-62301000D01*
X117261890Y-62301000D01*
X117220409Y-62296915D01*
X117186431Y-62286607D01*
X117155110Y-62269866D01*
X117127661Y-62247339D01*
X117105134Y-62219890D01*
X117088393Y-62188569D01*
X117078085Y-62154591D01*
X117074000Y-62113110D01*
X117074000Y-61511890D01*
X117078085Y-61470409D01*
X117088393Y-61436431D01*
X117105134Y-61405110D01*
X117127661Y-61377661D01*
X117155110Y-61355134D01*
X117186431Y-61338393D01*
X117220409Y-61328085D01*
X117261890Y-61324000D01*
X117938110Y-61324000D01*
X117979591Y-61328085D01*
G37*
G36*
X123484468Y-60953565D02*
G01*
X123523138Y-60965296D01*
X123558777Y-60984346D01*
X123590017Y-61009983D01*
X123615654Y-61041223D01*
X123634704Y-61076862D01*
X123646435Y-61115532D01*
X123651000Y-61161888D01*
X123651000Y-61813112D01*
X123646435Y-61859468D01*
X123634704Y-61898138D01*
X123615654Y-61933777D01*
X123590017Y-61965017D01*
X123558777Y-61990654D01*
X123523138Y-62009704D01*
X123484468Y-62021435D01*
X123438112Y-62026000D01*
X122361888Y-62026000D01*
X122315532Y-62021435D01*
X122276862Y-62009704D01*
X122241223Y-61990654D01*
X122209983Y-61965017D01*
X122184346Y-61933777D01*
X122165296Y-61898138D01*
X122153565Y-61859468D01*
X122149000Y-61813112D01*
X122149000Y-61161888D01*
X122153565Y-61115532D01*
X122165296Y-61076862D01*
X122184346Y-61041223D01*
X122209983Y-61009983D01*
X122241223Y-60984346D01*
X122276862Y-60965296D01*
X122315532Y-60953565D01*
X122361888Y-60949000D01*
X123438112Y-60949000D01*
X123484468Y-60953565D01*
G37*
G36*
X137229591Y-60853085D02*
G01*
X137263569Y-60863393D01*
X137294890Y-60880134D01*
X137322339Y-60902661D01*
X137344866Y-60930110D01*
X137361607Y-60961431D01*
X137371915Y-60995409D01*
X137376000Y-61036890D01*
X137376000Y-61638110D01*
X137371915Y-61679591D01*
X137361607Y-61713569D01*
X137344866Y-61744890D01*
X137322339Y-61772339D01*
X137294890Y-61794866D01*
X137263569Y-61811607D01*
X137229591Y-61821915D01*
X137188110Y-61826000D01*
X136511890Y-61826000D01*
X136470409Y-61821915D01*
X136436431Y-61811607D01*
X136405110Y-61794866D01*
X136377661Y-61772339D01*
X136355134Y-61744890D01*
X136338393Y-61713569D01*
X136328085Y-61679591D01*
X136324000Y-61638110D01*
X136324000Y-61036890D01*
X136328085Y-60995409D01*
X136338393Y-60961431D01*
X136355134Y-60930110D01*
X136377661Y-60902661D01*
X136405110Y-60880134D01*
X136436431Y-60863393D01*
X136470409Y-60853085D01*
X136511890Y-60849000D01*
X137188110Y-60849000D01*
X137229591Y-60853085D01*
G37*
G36*
X134579591Y-60765585D02*
G01*
X134613569Y-60775893D01*
X134644890Y-60792634D01*
X134672339Y-60815161D01*
X134694866Y-60842610D01*
X134711607Y-60873931D01*
X134721915Y-60907909D01*
X134726000Y-60949390D01*
X134726000Y-61550610D01*
X134721915Y-61592091D01*
X134711607Y-61626069D01*
X134694866Y-61657390D01*
X134672339Y-61684839D01*
X134644890Y-61707366D01*
X134613569Y-61724107D01*
X134579591Y-61734415D01*
X134538110Y-61738500D01*
X133861890Y-61738500D01*
X133820409Y-61734415D01*
X133786431Y-61724107D01*
X133755110Y-61707366D01*
X133727661Y-61684839D01*
X133705134Y-61657390D01*
X133688393Y-61626069D01*
X133678085Y-61592091D01*
X133674000Y-61550610D01*
X133674000Y-60949390D01*
X133678085Y-60907909D01*
X133688393Y-60873931D01*
X133705134Y-60842610D01*
X133727661Y-60815161D01*
X133755110Y-60792634D01*
X133786431Y-60775893D01*
X133820409Y-60765585D01*
X133861890Y-60761500D01*
X134538110Y-60761500D01*
X134579591Y-60765585D01*
G37*
G36*
X114155051Y-59926284D02*
G01*
X114171446Y-59931258D01*
X114191078Y-59941751D01*
X114213717Y-59951128D01*
X114237750Y-59955908D01*
X114262254Y-59955908D01*
X114286287Y-59951127D01*
X114308922Y-59941751D01*
X114328554Y-59931258D01*
X114344949Y-59926284D01*
X114368141Y-59924000D01*
X114781859Y-59924000D01*
X114805051Y-59926284D01*
X114821446Y-59931258D01*
X114841078Y-59941751D01*
X114863717Y-59951128D01*
X114887750Y-59955908D01*
X114912254Y-59955908D01*
X114936287Y-59951127D01*
X114958922Y-59941751D01*
X114978554Y-59931258D01*
X114994949Y-59926284D01*
X115018141Y-59924000D01*
X115431859Y-59924000D01*
X115455051Y-59926284D01*
X115471446Y-59931258D01*
X115491078Y-59941751D01*
X115513717Y-59951128D01*
X115537750Y-59955908D01*
X115562254Y-59955908D01*
X115586287Y-59951127D01*
X115608922Y-59941751D01*
X115628554Y-59931258D01*
X115644949Y-59926284D01*
X115668141Y-59924000D01*
X116081859Y-59924000D01*
X116105051Y-59926284D01*
X116121443Y-59931257D01*
X116136555Y-59939334D01*
X116149798Y-59950202D01*
X116160666Y-59963445D01*
X116168743Y-59978557D01*
X116173716Y-59994949D01*
X116176000Y-60018141D01*
X116176000Y-61556859D01*
X116173716Y-61580051D01*
X116168743Y-61596443D01*
X116160666Y-61611555D01*
X116149798Y-61624798D01*
X116136555Y-61635666D01*
X116121443Y-61643743D01*
X116105051Y-61648716D01*
X116081859Y-61651000D01*
X115668141Y-61651000D01*
X115644949Y-61648716D01*
X115628554Y-61643742D01*
X115608922Y-61633249D01*
X115586283Y-61623872D01*
X115562250Y-61619092D01*
X115537746Y-61619092D01*
X115513713Y-61623873D01*
X115491078Y-61633249D01*
X115471446Y-61643742D01*
X115455051Y-61648716D01*
X115431859Y-61651000D01*
X115018141Y-61651000D01*
X114994949Y-61648716D01*
X114978554Y-61643742D01*
X114958922Y-61633249D01*
X114936283Y-61623872D01*
X114912250Y-61619092D01*
X114887746Y-61619092D01*
X114863713Y-61623873D01*
X114841078Y-61633249D01*
X114821446Y-61643742D01*
X114805051Y-61648716D01*
X114781859Y-61651000D01*
X114368141Y-61651000D01*
X114344949Y-61648716D01*
X114328554Y-61643742D01*
X114308922Y-61633249D01*
X114286283Y-61623872D01*
X114262250Y-61619092D01*
X114237746Y-61619092D01*
X114213713Y-61623873D01*
X114191078Y-61633249D01*
X114171446Y-61643742D01*
X114155051Y-61648716D01*
X114131859Y-61651000D01*
X113718141Y-61651000D01*
X113694949Y-61648716D01*
X113678557Y-61643743D01*
X113663445Y-61635666D01*
X113650202Y-61624798D01*
X113639334Y-61611555D01*
X113631257Y-61596443D01*
X113626284Y-61580051D01*
X113624000Y-61556859D01*
X113624000Y-60018141D01*
X113626284Y-59994949D01*
X113631257Y-59978557D01*
X113639334Y-59963445D01*
X113650202Y-59950202D01*
X113663445Y-59939334D01*
X113678557Y-59931257D01*
X113694949Y-59926284D01*
X113718141Y-59924000D01*
X114131859Y-59924000D01*
X114155051Y-59926284D01*
G37*
G36*
X112479591Y-60428085D02*
G01*
X112513569Y-60438393D01*
X112544890Y-60455134D01*
X112572339Y-60477661D01*
X112594866Y-60505110D01*
X112611607Y-60536431D01*
X112621915Y-60570409D01*
X112626000Y-60611890D01*
X112626000Y-61213110D01*
X112621915Y-61254591D01*
X112611607Y-61288569D01*
X112594866Y-61319890D01*
X112572339Y-61347339D01*
X112544890Y-61369866D01*
X112513569Y-61386607D01*
X112479591Y-61396915D01*
X112438110Y-61401000D01*
X111761890Y-61401000D01*
X111720409Y-61396915D01*
X111686431Y-61386607D01*
X111655110Y-61369866D01*
X111627661Y-61347339D01*
X111605134Y-61319890D01*
X111588393Y-61288569D01*
X111578085Y-61254591D01*
X111574000Y-61213110D01*
X111574000Y-60611890D01*
X111578085Y-60570409D01*
X111588393Y-60536431D01*
X111605134Y-60505110D01*
X111627661Y-60477661D01*
X111655110Y-60455134D01*
X111686431Y-60438393D01*
X111720409Y-60428085D01*
X111761890Y-60424000D01*
X112438110Y-60424000D01*
X112479591Y-60428085D01*
G37*
G36*
X132284928Y-60611764D02*
G01*
X132306009Y-60618160D01*
X132325445Y-60628548D01*
X132342476Y-60642524D01*
X132356452Y-60659555D01*
X132366840Y-60678991D01*
X132373236Y-60700072D01*
X132376000Y-60728140D01*
X132376000Y-61191860D01*
X132373236Y-61219928D01*
X132366840Y-61241009D01*
X132356452Y-61260445D01*
X132342476Y-61277476D01*
X132325445Y-61291452D01*
X132306009Y-61301840D01*
X132284928Y-61308236D01*
X132256860Y-61311000D01*
X130443140Y-61311000D01*
X130415072Y-61308236D01*
X130393991Y-61301840D01*
X130374555Y-61291452D01*
X130357524Y-61277476D01*
X130343548Y-61260445D01*
X130333160Y-61241009D01*
X130326764Y-61219928D01*
X130324000Y-61191860D01*
X130324000Y-60728140D01*
X130326764Y-60700072D01*
X130333160Y-60678991D01*
X130343548Y-60659555D01*
X130357524Y-60642524D01*
X130374555Y-60628548D01*
X130393991Y-60618160D01*
X130415072Y-60611764D01*
X130443140Y-60609000D01*
X132256860Y-60609000D01*
X132284928Y-60611764D01*
G37*
G36*
X127334928Y-60611764D02*
G01*
X127356009Y-60618160D01*
X127375445Y-60628548D01*
X127392476Y-60642524D01*
X127406452Y-60659555D01*
X127416840Y-60678991D01*
X127423236Y-60700072D01*
X127426000Y-60728140D01*
X127426000Y-61191860D01*
X127423236Y-61219928D01*
X127416840Y-61241009D01*
X127406452Y-61260445D01*
X127392476Y-61277476D01*
X127375445Y-61291452D01*
X127356009Y-61301840D01*
X127334928Y-61308236D01*
X127306860Y-61311000D01*
X125493140Y-61311000D01*
X125465072Y-61308236D01*
X125443991Y-61301840D01*
X125424555Y-61291452D01*
X125407524Y-61277476D01*
X125393548Y-61260445D01*
X125383160Y-61241009D01*
X125376764Y-61219928D01*
X125374000Y-61191860D01*
X125374000Y-60728140D01*
X125376764Y-60700072D01*
X125383160Y-60678991D01*
X125393548Y-60659555D01*
X125407524Y-60642524D01*
X125424555Y-60628548D01*
X125443991Y-60618160D01*
X125465072Y-60611764D01*
X125493140Y-60609000D01*
X127306860Y-60609000D01*
X127334928Y-60611764D01*
G37*
G36*
X110879591Y-60203085D02*
G01*
X110913569Y-60213393D01*
X110944890Y-60230134D01*
X110972339Y-60252661D01*
X110994866Y-60280110D01*
X111011607Y-60311431D01*
X111021915Y-60345409D01*
X111026000Y-60386890D01*
X111026000Y-60988110D01*
X111021915Y-61029591D01*
X111011607Y-61063569D01*
X110994866Y-61094890D01*
X110972339Y-61122339D01*
X110944890Y-61144866D01*
X110913569Y-61161607D01*
X110879591Y-61171915D01*
X110838110Y-61176000D01*
X110161890Y-61176000D01*
X110120409Y-61171915D01*
X110086431Y-61161607D01*
X110055110Y-61144866D01*
X110027661Y-61122339D01*
X110005134Y-61094890D01*
X109988393Y-61063569D01*
X109978085Y-61029591D01*
X109974000Y-60988110D01*
X109974000Y-60386890D01*
X109978085Y-60345409D01*
X109988393Y-60311431D01*
X110005134Y-60280110D01*
X110027661Y-60252661D01*
X110055110Y-60230134D01*
X110086431Y-60213393D01*
X110120409Y-60203085D01*
X110161890Y-60199000D01*
X110838110Y-60199000D01*
X110879591Y-60203085D01*
G37*
G36*
X109229591Y-60203085D02*
G01*
X109263569Y-60213393D01*
X109294890Y-60230134D01*
X109322339Y-60252661D01*
X109344866Y-60280110D01*
X109361607Y-60311431D01*
X109371915Y-60345409D01*
X109376000Y-60386890D01*
X109376000Y-60988110D01*
X109371915Y-61029591D01*
X109361607Y-61063569D01*
X109344866Y-61094890D01*
X109322339Y-61122339D01*
X109294890Y-61144866D01*
X109263569Y-61161607D01*
X109229591Y-61171915D01*
X109188110Y-61176000D01*
X108511890Y-61176000D01*
X108470409Y-61171915D01*
X108436431Y-61161607D01*
X108405110Y-61144866D01*
X108377661Y-61122339D01*
X108355134Y-61094890D01*
X108338393Y-61063569D01*
X108328085Y-61029591D01*
X108324000Y-60988110D01*
X108324000Y-60386890D01*
X108328085Y-60345409D01*
X108338393Y-60311431D01*
X108355134Y-60280110D01*
X108377661Y-60252661D01*
X108405110Y-60230134D01*
X108436431Y-60213393D01*
X108470409Y-60203085D01*
X108511890Y-60199000D01*
X109188110Y-60199000D01*
X109229591Y-60203085D01*
G37*
G36*
X137229591Y-59278085D02*
G01*
X137263569Y-59288393D01*
X137294890Y-59305134D01*
X137322339Y-59327661D01*
X137344866Y-59355110D01*
X137361607Y-59386431D01*
X137371915Y-59420409D01*
X137376000Y-59461890D01*
X137376000Y-60063110D01*
X137371915Y-60104591D01*
X137361607Y-60138569D01*
X137344866Y-60169890D01*
X137322339Y-60197339D01*
X137294890Y-60219866D01*
X137263569Y-60236607D01*
X137229591Y-60246915D01*
X137188110Y-60251000D01*
X136511890Y-60251000D01*
X136470409Y-60246915D01*
X136436431Y-60236607D01*
X136405110Y-60219866D01*
X136377661Y-60197339D01*
X136355134Y-60169890D01*
X136338393Y-60138569D01*
X136328085Y-60104591D01*
X136324000Y-60063110D01*
X136324000Y-59461890D01*
X136328085Y-59420409D01*
X136338393Y-59386431D01*
X136355134Y-59355110D01*
X136377661Y-59327661D01*
X136405110Y-59305134D01*
X136436431Y-59288393D01*
X136470409Y-59278085D01*
X136511890Y-59274000D01*
X137188110Y-59274000D01*
X137229591Y-59278085D01*
G37*
G36*
X134579591Y-59190585D02*
G01*
X134613569Y-59200893D01*
X134644890Y-59217634D01*
X134672339Y-59240161D01*
X134694866Y-59267610D01*
X134711607Y-59298931D01*
X134721915Y-59332909D01*
X134726000Y-59374390D01*
X134726000Y-59975610D01*
X134721915Y-60017091D01*
X134711607Y-60051069D01*
X134694866Y-60082390D01*
X134672339Y-60109839D01*
X134644890Y-60132366D01*
X134613569Y-60149107D01*
X134579591Y-60159415D01*
X134538110Y-60163500D01*
X133861890Y-60163500D01*
X133820409Y-60159415D01*
X133786431Y-60149107D01*
X133755110Y-60132366D01*
X133727661Y-60109839D01*
X133705134Y-60082390D01*
X133688393Y-60051069D01*
X133678085Y-60017091D01*
X133674000Y-59975610D01*
X133674000Y-59374390D01*
X133678085Y-59332909D01*
X133688393Y-59298931D01*
X133705134Y-59267610D01*
X133727661Y-59240161D01*
X133755110Y-59217634D01*
X133786431Y-59200893D01*
X133820409Y-59190585D01*
X133861890Y-59186500D01*
X134538110Y-59186500D01*
X134579591Y-59190585D01*
G37*
G36*
X123484468Y-59078565D02*
G01*
X123523138Y-59090296D01*
X123558777Y-59109346D01*
X123590017Y-59134983D01*
X123615654Y-59166223D01*
X123634704Y-59201862D01*
X123646435Y-59240532D01*
X123651000Y-59286888D01*
X123651000Y-59938112D01*
X123646435Y-59984468D01*
X123634704Y-60023138D01*
X123615654Y-60058777D01*
X123590017Y-60090017D01*
X123558777Y-60115654D01*
X123523138Y-60134704D01*
X123484468Y-60146435D01*
X123438112Y-60151000D01*
X122361888Y-60151000D01*
X122315532Y-60146435D01*
X122276862Y-60134704D01*
X122241223Y-60115654D01*
X122209983Y-60090017D01*
X122184346Y-60058777D01*
X122165296Y-60023138D01*
X122153565Y-59984468D01*
X122149000Y-59938112D01*
X122149000Y-59286888D01*
X122153565Y-59240532D01*
X122165296Y-59201862D01*
X122184346Y-59166223D01*
X122209983Y-59134983D01*
X122241223Y-59109346D01*
X122276862Y-59090296D01*
X122315532Y-59078565D01*
X122361888Y-59074000D01*
X123438112Y-59074000D01*
X123484468Y-59078565D01*
G37*
G36*
X132284928Y-59341764D02*
G01*
X132306009Y-59348160D01*
X132325445Y-59358548D01*
X132342476Y-59372524D01*
X132356452Y-59389555D01*
X132366840Y-59408991D01*
X132373236Y-59430072D01*
X132376000Y-59458140D01*
X132376000Y-59921860D01*
X132373236Y-59949928D01*
X132366840Y-59971009D01*
X132356452Y-59990445D01*
X132342476Y-60007476D01*
X132325445Y-60021452D01*
X132306009Y-60031840D01*
X132284928Y-60038236D01*
X132256860Y-60041000D01*
X130443140Y-60041000D01*
X130415072Y-60038236D01*
X130393991Y-60031840D01*
X130374555Y-60021452D01*
X130357524Y-60007476D01*
X130343548Y-59990445D01*
X130333160Y-59971009D01*
X130326764Y-59949928D01*
X130324000Y-59921860D01*
X130324000Y-59458140D01*
X130326764Y-59430072D01*
X130333160Y-59408991D01*
X130343548Y-59389555D01*
X130357524Y-59372524D01*
X130374555Y-59358548D01*
X130393991Y-59348160D01*
X130415072Y-59341764D01*
X130443140Y-59339000D01*
X132256860Y-59339000D01*
X132284928Y-59341764D01*
G37*
G36*
X127334928Y-59341764D02*
G01*
X127356009Y-59348160D01*
X127375445Y-59358548D01*
X127392476Y-59372524D01*
X127406452Y-59389555D01*
X127416840Y-59408991D01*
X127423236Y-59430072D01*
X127426000Y-59458140D01*
X127426000Y-59921860D01*
X127423236Y-59949928D01*
X127416840Y-59971009D01*
X127406452Y-59990445D01*
X127392476Y-60007476D01*
X127375445Y-60021452D01*
X127356009Y-60031840D01*
X127334928Y-60038236D01*
X127306860Y-60041000D01*
X125493140Y-60041000D01*
X125465072Y-60038236D01*
X125443991Y-60031840D01*
X125424555Y-60021452D01*
X125407524Y-60007476D01*
X125393548Y-59990445D01*
X125383160Y-59971009D01*
X125376764Y-59949928D01*
X125374000Y-59921860D01*
X125374000Y-59458140D01*
X125376764Y-59430072D01*
X125383160Y-59408991D01*
X125393548Y-59389555D01*
X125407524Y-59372524D01*
X125424555Y-59358548D01*
X125443991Y-59348160D01*
X125465072Y-59341764D01*
X125493140Y-59339000D01*
X127306860Y-59339000D01*
X127334928Y-59341764D01*
G37*
G36*
X110879591Y-58628085D02*
G01*
X110913569Y-58638393D01*
X110944890Y-58655134D01*
X110972339Y-58677661D01*
X110994866Y-58705110D01*
X111011607Y-58736431D01*
X111021915Y-58770409D01*
X111026000Y-58811890D01*
X111026000Y-59413110D01*
X111021915Y-59454591D01*
X111011607Y-59488569D01*
X110994866Y-59519890D01*
X110972339Y-59547339D01*
X110944890Y-59569866D01*
X110913569Y-59586607D01*
X110879591Y-59596915D01*
X110838110Y-59601000D01*
X110161890Y-59601000D01*
X110120409Y-59596915D01*
X110086431Y-59586607D01*
X110055110Y-59569866D01*
X110027661Y-59547339D01*
X110005134Y-59519890D01*
X109988393Y-59488569D01*
X109978085Y-59454591D01*
X109974000Y-59413110D01*
X109974000Y-58811890D01*
X109978085Y-58770409D01*
X109988393Y-58736431D01*
X110005134Y-58705110D01*
X110027661Y-58677661D01*
X110055110Y-58655134D01*
X110086431Y-58638393D01*
X110120409Y-58628085D01*
X110161890Y-58624000D01*
X110838110Y-58624000D01*
X110879591Y-58628085D01*
G37*
G36*
X109229591Y-58628085D02*
G01*
X109263569Y-58638393D01*
X109294890Y-58655134D01*
X109322339Y-58677661D01*
X109344866Y-58705110D01*
X109361607Y-58736431D01*
X109371915Y-58770409D01*
X109376000Y-58811890D01*
X109376000Y-59413110D01*
X109371915Y-59454591D01*
X109361607Y-59488569D01*
X109344866Y-59519890D01*
X109322339Y-59547339D01*
X109294890Y-59569866D01*
X109263569Y-59586607D01*
X109229591Y-59596915D01*
X109188110Y-59601000D01*
X108511890Y-59601000D01*
X108470409Y-59596915D01*
X108436431Y-59586607D01*
X108405110Y-59569866D01*
X108377661Y-59547339D01*
X108355134Y-59519890D01*
X108338393Y-59488569D01*
X108328085Y-59454591D01*
X108324000Y-59413110D01*
X108324000Y-58811890D01*
X108328085Y-58770409D01*
X108338393Y-58736431D01*
X108355134Y-58705110D01*
X108377661Y-58677661D01*
X108405110Y-58655134D01*
X108436431Y-58638393D01*
X108470409Y-58628085D01*
X108511890Y-58624000D01*
X109188110Y-58624000D01*
X109229591Y-58628085D01*
G37*
G36*
X116629591Y-58178085D02*
G01*
X116663569Y-58188393D01*
X116694890Y-58205134D01*
X116722339Y-58227661D01*
X116744866Y-58255110D01*
X116761607Y-58286431D01*
X116771915Y-58320409D01*
X116776000Y-58361890D01*
X116776000Y-59038110D01*
X116771915Y-59079591D01*
X116761607Y-59113569D01*
X116744866Y-59144890D01*
X116722339Y-59172339D01*
X116694890Y-59194866D01*
X116663569Y-59211607D01*
X116629591Y-59221915D01*
X116588110Y-59226000D01*
X115986890Y-59226000D01*
X115945409Y-59221915D01*
X115911431Y-59211607D01*
X115880110Y-59194866D01*
X115852661Y-59172339D01*
X115830134Y-59144890D01*
X115813393Y-59113569D01*
X115803085Y-59079591D01*
X115799000Y-59038110D01*
X115799000Y-58361890D01*
X115803085Y-58320409D01*
X115813393Y-58286431D01*
X115830134Y-58255110D01*
X115852661Y-58227661D01*
X115880110Y-58205134D01*
X115911431Y-58188393D01*
X115945409Y-58178085D01*
X115986890Y-58174000D01*
X116588110Y-58174000D01*
X116629591Y-58178085D01*
G37*
G36*
X115054591Y-58178085D02*
G01*
X115088569Y-58188393D01*
X115119890Y-58205134D01*
X115147339Y-58227661D01*
X115169866Y-58255110D01*
X115186607Y-58286431D01*
X115196915Y-58320409D01*
X115201000Y-58361890D01*
X115201000Y-59038110D01*
X115196915Y-59079591D01*
X115186607Y-59113569D01*
X115169866Y-59144890D01*
X115147339Y-59172339D01*
X115119890Y-59194866D01*
X115088569Y-59211607D01*
X115054591Y-59221915D01*
X115013110Y-59226000D01*
X114411890Y-59226000D01*
X114370409Y-59221915D01*
X114336431Y-59211607D01*
X114305110Y-59194866D01*
X114277661Y-59172339D01*
X114255134Y-59144890D01*
X114238393Y-59113569D01*
X114228085Y-59079591D01*
X114224000Y-59038110D01*
X114224000Y-58361890D01*
X114228085Y-58320409D01*
X114238393Y-58286431D01*
X114255134Y-58255110D01*
X114277661Y-58227661D01*
X114305110Y-58205134D01*
X114336431Y-58188393D01*
X114370409Y-58178085D01*
X114411890Y-58174000D01*
X115013110Y-58174000D01*
X115054591Y-58178085D01*
G37*
G36*
X127334928Y-58071764D02*
G01*
X127356009Y-58078160D01*
X127375445Y-58088548D01*
X127392476Y-58102524D01*
X127406452Y-58119555D01*
X127416840Y-58138991D01*
X127423236Y-58160072D01*
X127426000Y-58188140D01*
X127426000Y-58651860D01*
X127423236Y-58679928D01*
X127416840Y-58701009D01*
X127406452Y-58720445D01*
X127392476Y-58737476D01*
X127375445Y-58751452D01*
X127356009Y-58761840D01*
X127334928Y-58768236D01*
X127306860Y-58771000D01*
X125493140Y-58771000D01*
X125465072Y-58768236D01*
X125443991Y-58761840D01*
X125424555Y-58751452D01*
X125407524Y-58737476D01*
X125393548Y-58720445D01*
X125383160Y-58701009D01*
X125376764Y-58679928D01*
X125374000Y-58651860D01*
X125374000Y-58188140D01*
X125376764Y-58160072D01*
X125383160Y-58138991D01*
X125393548Y-58119555D01*
X125407524Y-58102524D01*
X125424555Y-58088548D01*
X125443991Y-58078160D01*
X125465072Y-58071764D01*
X125493140Y-58069000D01*
X127306860Y-58069000D01*
X127334928Y-58071764D01*
G37*
G36*
X132284928Y-58071764D02*
G01*
X132306009Y-58078160D01*
X132325445Y-58088548D01*
X132342476Y-58102524D01*
X132356452Y-58119555D01*
X132366840Y-58138991D01*
X132373236Y-58160072D01*
X132376000Y-58188140D01*
X132376000Y-58651860D01*
X132373236Y-58679928D01*
X132366840Y-58701009D01*
X132356452Y-58720445D01*
X132342476Y-58737476D01*
X132325445Y-58751452D01*
X132306009Y-58761840D01*
X132284928Y-58768236D01*
X132256860Y-58771000D01*
X130443140Y-58771000D01*
X130415072Y-58768236D01*
X130393991Y-58761840D01*
X130374555Y-58751452D01*
X130357524Y-58737476D01*
X130343548Y-58720445D01*
X130333160Y-58701009D01*
X130326764Y-58679928D01*
X130324000Y-58651860D01*
X130324000Y-58188140D01*
X130326764Y-58160072D01*
X130333160Y-58138991D01*
X130343548Y-58119555D01*
X130357524Y-58102524D01*
X130374555Y-58088548D01*
X130393991Y-58078160D01*
X130415072Y-58071764D01*
X130443140Y-58069000D01*
X132256860Y-58069000D01*
X132284928Y-58071764D01*
G37*
G36*
X134704591Y-56778085D02*
G01*
X134738569Y-56788393D01*
X134769890Y-56805134D01*
X134797339Y-56827661D01*
X134819866Y-56855110D01*
X134836607Y-56886431D01*
X134846915Y-56920409D01*
X134851000Y-56961890D01*
X134851000Y-57638110D01*
X134846915Y-57679591D01*
X134836607Y-57713569D01*
X134819866Y-57744890D01*
X134797339Y-57772339D01*
X134769890Y-57794866D01*
X134738569Y-57811607D01*
X134704591Y-57821915D01*
X134663110Y-57826000D01*
X134061890Y-57826000D01*
X134020409Y-57821915D01*
X133986431Y-57811607D01*
X133955110Y-57794866D01*
X133927661Y-57772339D01*
X133905134Y-57744890D01*
X133888393Y-57713569D01*
X133878085Y-57679591D01*
X133874000Y-57638110D01*
X133874000Y-56961890D01*
X133878085Y-56920409D01*
X133888393Y-56886431D01*
X133905134Y-56855110D01*
X133927661Y-56827661D01*
X133955110Y-56805134D01*
X133986431Y-56788393D01*
X134020409Y-56778085D01*
X134061890Y-56774000D01*
X134663110Y-56774000D01*
X134704591Y-56778085D01*
G37*
G36*
X136279591Y-56778085D02*
G01*
X136313569Y-56788393D01*
X136344890Y-56805134D01*
X136372339Y-56827661D01*
X136394866Y-56855110D01*
X136411607Y-56886431D01*
X136421915Y-56920409D01*
X136426000Y-56961890D01*
X136426000Y-57638110D01*
X136421915Y-57679591D01*
X136411607Y-57713569D01*
X136394866Y-57744890D01*
X136372339Y-57772339D01*
X136344890Y-57794866D01*
X136313569Y-57811607D01*
X136279591Y-57821915D01*
X136238110Y-57826000D01*
X135636890Y-57826000D01*
X135595409Y-57821915D01*
X135561431Y-57811607D01*
X135530110Y-57794866D01*
X135502661Y-57772339D01*
X135480134Y-57744890D01*
X135463393Y-57713569D01*
X135453085Y-57679591D01*
X135449000Y-57638110D01*
X135449000Y-56961890D01*
X135453085Y-56920409D01*
X135463393Y-56886431D01*
X135480134Y-56855110D01*
X135502661Y-56827661D01*
X135530110Y-56805134D01*
X135561431Y-56788393D01*
X135595409Y-56778085D01*
X135636890Y-56774000D01*
X136238110Y-56774000D01*
X136279591Y-56778085D01*
G37*
G36*
X132284928Y-56801764D02*
G01*
X132306009Y-56808160D01*
X132325445Y-56818548D01*
X132342476Y-56832524D01*
X132356452Y-56849555D01*
X132366840Y-56868991D01*
X132373236Y-56890072D01*
X132376000Y-56918140D01*
X132376000Y-57381860D01*
X132373236Y-57409928D01*
X132366840Y-57431009D01*
X132356452Y-57450445D01*
X132342476Y-57467476D01*
X132325445Y-57481452D01*
X132306009Y-57491840D01*
X132284928Y-57498236D01*
X132256860Y-57501000D01*
X130443140Y-57501000D01*
X130415072Y-57498236D01*
X130393991Y-57491840D01*
X130374555Y-57481452D01*
X130357524Y-57467476D01*
X130343548Y-57450445D01*
X130333160Y-57431009D01*
X130326764Y-57409928D01*
X130324000Y-57381860D01*
X130324000Y-56918140D01*
X130326764Y-56890072D01*
X130333160Y-56868991D01*
X130343548Y-56849555D01*
X130357524Y-56832524D01*
X130374555Y-56818548D01*
X130393991Y-56808160D01*
X130415072Y-56801764D01*
X130443140Y-56799000D01*
X132256860Y-56799000D01*
X132284928Y-56801764D01*
G37*
G36*
X127334928Y-56801764D02*
G01*
X127356009Y-56808160D01*
X127375445Y-56818548D01*
X127392476Y-56832524D01*
X127406452Y-56849555D01*
X127416840Y-56868991D01*
X127423236Y-56890072D01*
X127426000Y-56918140D01*
X127426000Y-57381860D01*
X127423236Y-57409928D01*
X127416840Y-57431009D01*
X127406452Y-57450445D01*
X127392476Y-57467476D01*
X127375445Y-57481452D01*
X127356009Y-57491840D01*
X127334928Y-57498236D01*
X127306860Y-57501000D01*
X125493140Y-57501000D01*
X125465072Y-57498236D01*
X125443991Y-57491840D01*
X125424555Y-57481452D01*
X125407524Y-57467476D01*
X125393548Y-57450445D01*
X125383160Y-57431009D01*
X125376764Y-57409928D01*
X125374000Y-57381860D01*
X125374000Y-56918140D01*
X125376764Y-56890072D01*
X125383160Y-56868991D01*
X125393548Y-56849555D01*
X125407524Y-56832524D01*
X125424555Y-56818548D01*
X125443991Y-56808160D01*
X125465072Y-56801764D01*
X125493140Y-56799000D01*
X127306860Y-56799000D01*
X127334928Y-56801764D01*
G37*
G36*
X117879591Y-56503085D02*
G01*
X117913569Y-56513393D01*
X117944890Y-56530134D01*
X117972339Y-56552661D01*
X117994866Y-56580110D01*
X118011607Y-56611431D01*
X118021915Y-56645409D01*
X118026000Y-56686890D01*
X118026000Y-57288110D01*
X118021915Y-57329591D01*
X118011607Y-57363569D01*
X117994866Y-57394890D01*
X117972339Y-57422339D01*
X117944890Y-57444866D01*
X117913569Y-57461607D01*
X117879591Y-57471915D01*
X117838110Y-57476000D01*
X117161890Y-57476000D01*
X117120409Y-57471915D01*
X117086431Y-57461607D01*
X117055110Y-57444866D01*
X117027661Y-57422339D01*
X117005134Y-57394890D01*
X116988393Y-57363569D01*
X116978085Y-57329591D01*
X116974000Y-57288110D01*
X116974000Y-56686890D01*
X116978085Y-56645409D01*
X116988393Y-56611431D01*
X117005134Y-56580110D01*
X117027661Y-56552661D01*
X117055110Y-56530134D01*
X117086431Y-56513393D01*
X117120409Y-56503085D01*
X117161890Y-56499000D01*
X117838110Y-56499000D01*
X117879591Y-56503085D01*
G37*
G36*
X113879591Y-56403085D02*
G01*
X113913569Y-56413393D01*
X113944890Y-56430134D01*
X113972339Y-56452661D01*
X113994866Y-56480110D01*
X114011607Y-56511431D01*
X114021915Y-56545409D01*
X114026000Y-56586890D01*
X114026000Y-57188110D01*
X114021915Y-57229591D01*
X114011607Y-57263569D01*
X113994866Y-57294890D01*
X113972339Y-57322339D01*
X113944890Y-57344866D01*
X113913569Y-57361607D01*
X113879591Y-57371915D01*
X113838110Y-57376000D01*
X113161890Y-57376000D01*
X113120409Y-57371915D01*
X113086431Y-57361607D01*
X113055110Y-57344866D01*
X113027661Y-57322339D01*
X113005134Y-57294890D01*
X112988393Y-57263569D01*
X112978085Y-57229591D01*
X112974000Y-57188110D01*
X112974000Y-56586890D01*
X112978085Y-56545409D01*
X112988393Y-56511431D01*
X113005134Y-56480110D01*
X113027661Y-56452661D01*
X113055110Y-56430134D01*
X113086431Y-56413393D01*
X113120409Y-56403085D01*
X113161890Y-56399000D01*
X113838110Y-56399000D01*
X113879591Y-56403085D01*
G37*
G36*
X117879591Y-54928085D02*
G01*
X117913569Y-54938393D01*
X117944890Y-54955134D01*
X117972339Y-54977661D01*
X117994866Y-55005110D01*
X118011607Y-55036431D01*
X118021915Y-55070409D01*
X118026000Y-55111890D01*
X118026000Y-55713110D01*
X118021915Y-55754591D01*
X118011607Y-55788569D01*
X117994866Y-55819890D01*
X117972339Y-55847339D01*
X117944890Y-55869866D01*
X117913569Y-55886607D01*
X117879591Y-55896915D01*
X117838110Y-55901000D01*
X117161890Y-55901000D01*
X117120409Y-55896915D01*
X117086431Y-55886607D01*
X117055110Y-55869866D01*
X117027661Y-55847339D01*
X117005134Y-55819890D01*
X116988393Y-55788569D01*
X116978085Y-55754591D01*
X116974000Y-55713110D01*
X116974000Y-55111890D01*
X116978085Y-55070409D01*
X116988393Y-55036431D01*
X117005134Y-55005110D01*
X117027661Y-54977661D01*
X117055110Y-54955134D01*
X117086431Y-54938393D01*
X117120409Y-54928085D01*
X117161890Y-54924000D01*
X117838110Y-54924000D01*
X117879591Y-54928085D01*
G37*
G36*
X106401000Y-55901000D02*
G01*
X104599000Y-55901000D01*
X104599000Y-54099000D01*
X106401000Y-54099000D01*
X106401000Y-55901000D01*
G37*
G36*
X130067091Y-54828085D02*
G01*
X130101069Y-54838393D01*
X130132390Y-54855134D01*
X130159839Y-54877661D01*
X130182366Y-54905110D01*
X130199107Y-54936431D01*
X130209415Y-54970409D01*
X130213500Y-55011890D01*
X130213500Y-55688110D01*
X130209415Y-55729591D01*
X130199107Y-55763569D01*
X130182366Y-55794890D01*
X130159839Y-55822339D01*
X130132390Y-55844866D01*
X130101069Y-55861607D01*
X130067091Y-55871915D01*
X130025610Y-55876000D01*
X129424390Y-55876000D01*
X129382909Y-55871915D01*
X129348931Y-55861607D01*
X129317610Y-55844866D01*
X129290161Y-55822339D01*
X129267634Y-55794890D01*
X129250893Y-55763569D01*
X129240585Y-55729591D01*
X129236500Y-55688110D01*
X129236500Y-55011890D01*
X129240585Y-54970409D01*
X129250893Y-54936431D01*
X129267634Y-54905110D01*
X129290161Y-54877661D01*
X129317610Y-54855134D01*
X129348931Y-54838393D01*
X129382909Y-54828085D01*
X129424390Y-54824000D01*
X130025610Y-54824000D01*
X130067091Y-54828085D01*
G37*
G36*
X128492091Y-54828085D02*
G01*
X128526069Y-54838393D01*
X128557390Y-54855134D01*
X128584839Y-54877661D01*
X128607366Y-54905110D01*
X128624107Y-54936431D01*
X128634415Y-54970409D01*
X128638500Y-55011890D01*
X128638500Y-55688110D01*
X128634415Y-55729591D01*
X128624107Y-55763569D01*
X128607366Y-55794890D01*
X128584839Y-55822339D01*
X128557390Y-55844866D01*
X128526069Y-55861607D01*
X128492091Y-55871915D01*
X128450610Y-55876000D01*
X127849390Y-55876000D01*
X127807909Y-55871915D01*
X127773931Y-55861607D01*
X127742610Y-55844866D01*
X127715161Y-55822339D01*
X127692634Y-55794890D01*
X127675893Y-55763569D01*
X127665585Y-55729591D01*
X127661500Y-55688110D01*
X127661500Y-55011890D01*
X127665585Y-54970409D01*
X127675893Y-54936431D01*
X127692634Y-54905110D01*
X127715161Y-54877661D01*
X127742610Y-54855134D01*
X127773931Y-54838393D01*
X127807909Y-54828085D01*
X127849390Y-54824000D01*
X128450610Y-54824000D01*
X128492091Y-54828085D01*
G37*
G36*
X113879591Y-54828085D02*
G01*
X113913569Y-54838393D01*
X113944890Y-54855134D01*
X113972339Y-54877661D01*
X113994866Y-54905110D01*
X114011607Y-54936431D01*
X114021915Y-54970409D01*
X114026000Y-55011890D01*
X114026000Y-55613110D01*
X114021915Y-55654591D01*
X114011607Y-55688569D01*
X113994866Y-55719890D01*
X113972339Y-55747339D01*
X113944890Y-55769866D01*
X113913569Y-55786607D01*
X113879591Y-55796915D01*
X113838110Y-55801000D01*
X113161890Y-55801000D01*
X113120409Y-55796915D01*
X113086431Y-55786607D01*
X113055110Y-55769866D01*
X113027661Y-55747339D01*
X113005134Y-55719890D01*
X112988393Y-55688569D01*
X112978085Y-55654591D01*
X112974000Y-55613110D01*
X112974000Y-55011890D01*
X112978085Y-54970409D01*
X112988393Y-54936431D01*
X113005134Y-54905110D01*
X113027661Y-54877661D01*
X113055110Y-54855134D01*
X113086431Y-54838393D01*
X113120409Y-54828085D01*
X113161890Y-54824000D01*
X113838110Y-54824000D01*
X113879591Y-54828085D01*
G37*
G36*
X135376000Y-55531000D02*
G01*
X134824000Y-55531000D01*
X134824000Y-53929000D01*
X135376000Y-53929000D01*
X135376000Y-55531000D01*
G37*
G36*
X138184468Y-53403565D02*
G01*
X138223138Y-53415296D01*
X138258777Y-53434346D01*
X138290017Y-53459983D01*
X138315654Y-53491223D01*
X138334704Y-53526862D01*
X138346435Y-53565532D01*
X138351000Y-53611888D01*
X138351000Y-54263112D01*
X138346435Y-54309468D01*
X138334704Y-54348138D01*
X138315654Y-54383777D01*
X138290017Y-54415017D01*
X138258777Y-54440654D01*
X138223138Y-54459704D01*
X138184468Y-54471435D01*
X138138112Y-54476000D01*
X137061888Y-54476000D01*
X137015532Y-54471435D01*
X136976862Y-54459704D01*
X136941223Y-54440654D01*
X136909983Y-54415017D01*
X136884346Y-54383777D01*
X136865296Y-54348138D01*
X136853565Y-54309468D01*
X136849000Y-54263112D01*
X136849000Y-53611888D01*
X136853565Y-53565532D01*
X136865296Y-53526862D01*
X136884346Y-53491223D01*
X136909983Y-53459983D01*
X136941223Y-53434346D01*
X136976862Y-53415296D01*
X137015532Y-53403565D01*
X137061888Y-53399000D01*
X138138112Y-53399000D01*
X138184468Y-53403565D01*
G37*
G36*
X124879591Y-53203085D02*
G01*
X124913569Y-53213393D01*
X124944890Y-53230134D01*
X124972339Y-53252661D01*
X124994866Y-53280110D01*
X125011607Y-53311431D01*
X125021915Y-53345409D01*
X125026000Y-53386890D01*
X125026000Y-53988110D01*
X125021915Y-54029591D01*
X125011607Y-54063569D01*
X124994866Y-54094890D01*
X124972339Y-54122339D01*
X124944890Y-54144866D01*
X124913569Y-54161607D01*
X124879591Y-54171915D01*
X124838110Y-54176000D01*
X124161890Y-54176000D01*
X124120409Y-54171915D01*
X124086431Y-54161607D01*
X124055110Y-54144866D01*
X124027661Y-54122339D01*
X124005134Y-54094890D01*
X123988393Y-54063569D01*
X123978085Y-54029591D01*
X123974000Y-53988110D01*
X123974000Y-53386890D01*
X123978085Y-53345409D01*
X123988393Y-53311431D01*
X124005134Y-53280110D01*
X124027661Y-53252661D01*
X124055110Y-53230134D01*
X124086431Y-53213393D01*
X124120409Y-53203085D01*
X124161890Y-53199000D01*
X124838110Y-53199000D01*
X124879591Y-53203085D01*
G37*
G36*
X129879591Y-53203085D02*
G01*
X129913569Y-53213393D01*
X129944890Y-53230134D01*
X129972339Y-53252661D01*
X129994866Y-53280110D01*
X130011607Y-53311431D01*
X130021915Y-53345409D01*
X130026000Y-53386890D01*
X130026000Y-53988110D01*
X130021915Y-54029591D01*
X130011607Y-54063569D01*
X129994866Y-54094890D01*
X129972339Y-54122339D01*
X129944890Y-54144866D01*
X129913569Y-54161607D01*
X129879591Y-54171915D01*
X129838110Y-54176000D01*
X129161890Y-54176000D01*
X129120409Y-54171915D01*
X129086431Y-54161607D01*
X129055110Y-54144866D01*
X129027661Y-54122339D01*
X129005134Y-54094890D01*
X128988393Y-54063569D01*
X128978085Y-54029591D01*
X128974000Y-53988110D01*
X128974000Y-53386890D01*
X128978085Y-53345409D01*
X128988393Y-53311431D01*
X129005134Y-53280110D01*
X129027661Y-53252661D01*
X129055110Y-53230134D01*
X129086431Y-53213393D01*
X129120409Y-53203085D01*
X129161890Y-53199000D01*
X129838110Y-53199000D01*
X129879591Y-53203085D01*
G37*
G36*
X119859928Y-52921764D02*
G01*
X119881009Y-52928160D01*
X119900445Y-52938548D01*
X119917476Y-52952524D01*
X119931452Y-52969555D01*
X119941840Y-52988991D01*
X119948236Y-53010072D01*
X119951000Y-53038140D01*
X119951000Y-53501860D01*
X119948236Y-53529928D01*
X119941840Y-53551009D01*
X119931452Y-53570445D01*
X119917476Y-53587476D01*
X119900445Y-53601452D01*
X119881009Y-53611840D01*
X119859928Y-53618236D01*
X119831860Y-53621000D01*
X118368140Y-53621000D01*
X118340072Y-53618236D01*
X118318991Y-53611840D01*
X118299555Y-53601452D01*
X118282524Y-53587476D01*
X118268548Y-53570445D01*
X118258160Y-53551009D01*
X118251764Y-53529928D01*
X118249000Y-53501860D01*
X118249000Y-53038140D01*
X118251764Y-53010072D01*
X118258160Y-52988991D01*
X118268548Y-52969555D01*
X118282524Y-52952524D01*
X118299555Y-52938548D01*
X118318991Y-52928160D01*
X118340072Y-52921764D01*
X118368140Y-52919000D01*
X119831860Y-52919000D01*
X119859928Y-52921764D01*
G37*
G36*
X112659928Y-52921764D02*
G01*
X112681009Y-52928160D01*
X112700445Y-52938548D01*
X112717476Y-52952524D01*
X112731452Y-52969555D01*
X112741840Y-52988991D01*
X112748236Y-53010072D01*
X112751000Y-53038140D01*
X112751000Y-53501860D01*
X112748236Y-53529928D01*
X112741840Y-53551009D01*
X112731452Y-53570445D01*
X112717476Y-53587476D01*
X112700445Y-53601452D01*
X112681009Y-53611840D01*
X112659928Y-53618236D01*
X112631860Y-53621000D01*
X111168140Y-53621000D01*
X111140072Y-53618236D01*
X111118991Y-53611840D01*
X111099555Y-53601452D01*
X111082524Y-53587476D01*
X111068548Y-53570445D01*
X111058160Y-53551009D01*
X111051764Y-53529928D01*
X111049000Y-53501860D01*
X111049000Y-53038140D01*
X111051764Y-53010072D01*
X111058160Y-52988991D01*
X111068548Y-52969555D01*
X111082524Y-52952524D01*
X111099555Y-52938548D01*
X111118991Y-52928160D01*
X111140072Y-52921764D01*
X111168140Y-52919000D01*
X112631860Y-52919000D01*
X112659928Y-52921764D01*
G37*
G36*
X136026000Y-52871000D02*
G01*
X135474000Y-52871000D01*
X135474000Y-51269000D01*
X136026000Y-51269000D01*
X136026000Y-52871000D01*
G37*
G36*
X134726000Y-52871000D02*
G01*
X134174000Y-52871000D01*
X134174000Y-51269000D01*
X134726000Y-51269000D01*
X134726000Y-52871000D01*
G37*
G36*
X124879591Y-51628085D02*
G01*
X124913569Y-51638393D01*
X124944890Y-51655134D01*
X124972339Y-51677661D01*
X124994866Y-51705110D01*
X125011607Y-51736431D01*
X125021915Y-51770409D01*
X125026000Y-51811890D01*
X125026000Y-52413110D01*
X125021915Y-52454591D01*
X125011607Y-52488569D01*
X124994866Y-52519890D01*
X124972339Y-52547339D01*
X124944890Y-52569866D01*
X124913569Y-52586607D01*
X124879591Y-52596915D01*
X124838110Y-52601000D01*
X124161890Y-52601000D01*
X124120409Y-52596915D01*
X124086431Y-52586607D01*
X124055110Y-52569866D01*
X124027661Y-52547339D01*
X124005134Y-52519890D01*
X123988393Y-52488569D01*
X123978085Y-52454591D01*
X123974000Y-52413110D01*
X123974000Y-51811890D01*
X123978085Y-51770409D01*
X123988393Y-51736431D01*
X124005134Y-51705110D01*
X124027661Y-51677661D01*
X124055110Y-51655134D01*
X124086431Y-51638393D01*
X124120409Y-51628085D01*
X124161890Y-51624000D01*
X124838110Y-51624000D01*
X124879591Y-51628085D01*
G37*
G36*
X138184468Y-51528565D02*
G01*
X138223138Y-51540296D01*
X138258777Y-51559346D01*
X138290017Y-51584983D01*
X138315654Y-51616223D01*
X138334704Y-51651862D01*
X138346435Y-51690532D01*
X138351000Y-51736888D01*
X138351000Y-52388112D01*
X138346435Y-52434468D01*
X138334704Y-52473138D01*
X138315654Y-52508777D01*
X138290017Y-52540017D01*
X138258777Y-52565654D01*
X138223138Y-52584704D01*
X138184468Y-52596435D01*
X138138112Y-52601000D01*
X137061888Y-52601000D01*
X137015532Y-52596435D01*
X136976862Y-52584704D01*
X136941223Y-52565654D01*
X136909983Y-52540017D01*
X136884346Y-52508777D01*
X136865296Y-52473138D01*
X136853565Y-52434468D01*
X136849000Y-52388112D01*
X136849000Y-51736888D01*
X136853565Y-51690532D01*
X136865296Y-51651862D01*
X136884346Y-51616223D01*
X136909983Y-51584983D01*
X136941223Y-51559346D01*
X136976862Y-51540296D01*
X137015532Y-51528565D01*
X137061888Y-51524000D01*
X138138112Y-51524000D01*
X138184468Y-51528565D01*
G37*
G36*
X129879591Y-51628085D02*
G01*
X129913569Y-51638393D01*
X129944890Y-51655134D01*
X129972339Y-51677661D01*
X129994866Y-51705110D01*
X130011607Y-51736431D01*
X130021915Y-51770409D01*
X130026000Y-51811890D01*
X130026000Y-52413110D01*
X130021915Y-52454591D01*
X130011607Y-52488569D01*
X129994866Y-52519890D01*
X129972339Y-52547339D01*
X129944890Y-52569866D01*
X129913569Y-52586607D01*
X129879591Y-52596915D01*
X129838110Y-52601000D01*
X129161890Y-52601000D01*
X129120409Y-52596915D01*
X129086431Y-52586607D01*
X129055110Y-52569866D01*
X129027661Y-52547339D01*
X129005134Y-52519890D01*
X128988393Y-52488569D01*
X128978085Y-52454591D01*
X128974000Y-52413110D01*
X128974000Y-51811890D01*
X128978085Y-51770409D01*
X128988393Y-51736431D01*
X129005134Y-51705110D01*
X129027661Y-51677661D01*
X129055110Y-51655134D01*
X129086431Y-51638393D01*
X129120409Y-51628085D01*
X129161890Y-51624000D01*
X129838110Y-51624000D01*
X129879591Y-51628085D01*
G37*
G36*
X133129591Y-51478085D02*
G01*
X133163569Y-51488393D01*
X133194890Y-51505134D01*
X133222339Y-51527661D01*
X133244866Y-51555110D01*
X133261607Y-51586431D01*
X133271915Y-51620409D01*
X133276000Y-51661890D01*
X133276000Y-52338110D01*
X133271915Y-52379591D01*
X133261607Y-52413569D01*
X133244866Y-52444890D01*
X133222339Y-52472339D01*
X133194890Y-52494866D01*
X133163569Y-52511607D01*
X133129591Y-52521915D01*
X133088110Y-52526000D01*
X132486890Y-52526000D01*
X132445409Y-52521915D01*
X132411431Y-52511607D01*
X132380110Y-52494866D01*
X132352661Y-52472339D01*
X132330134Y-52444890D01*
X132313393Y-52413569D01*
X132303085Y-52379591D01*
X132299000Y-52338110D01*
X132299000Y-51661890D01*
X132303085Y-51620409D01*
X132313393Y-51586431D01*
X132330134Y-51555110D01*
X132352661Y-51527661D01*
X132380110Y-51505134D01*
X132411431Y-51488393D01*
X132445409Y-51478085D01*
X132486890Y-51474000D01*
X133088110Y-51474000D01*
X133129591Y-51478085D01*
G37*
G36*
X128129591Y-51478085D02*
G01*
X128163569Y-51488393D01*
X128194890Y-51505134D01*
X128222339Y-51527661D01*
X128244866Y-51555110D01*
X128261607Y-51586431D01*
X128271915Y-51620409D01*
X128276000Y-51661890D01*
X128276000Y-52338110D01*
X128271915Y-52379591D01*
X128261607Y-52413569D01*
X128244866Y-52444890D01*
X128222339Y-52472339D01*
X128194890Y-52494866D01*
X128163569Y-52511607D01*
X128129591Y-52521915D01*
X128088110Y-52526000D01*
X127486890Y-52526000D01*
X127445409Y-52521915D01*
X127411431Y-52511607D01*
X127380110Y-52494866D01*
X127352661Y-52472339D01*
X127330134Y-52444890D01*
X127313393Y-52413569D01*
X127303085Y-52379591D01*
X127299000Y-52338110D01*
X127299000Y-51661890D01*
X127303085Y-51620409D01*
X127313393Y-51586431D01*
X127330134Y-51555110D01*
X127352661Y-51527661D01*
X127380110Y-51505134D01*
X127411431Y-51488393D01*
X127445409Y-51478085D01*
X127486890Y-51474000D01*
X128088110Y-51474000D01*
X128129591Y-51478085D01*
G37*
G36*
X126554591Y-51478085D02*
G01*
X126588569Y-51488393D01*
X126619890Y-51505134D01*
X126647339Y-51527661D01*
X126669866Y-51555110D01*
X126686607Y-51586431D01*
X126696915Y-51620409D01*
X126701000Y-51661890D01*
X126701000Y-52338110D01*
X126696915Y-52379591D01*
X126686607Y-52413569D01*
X126669866Y-52444890D01*
X126647339Y-52472339D01*
X126619890Y-52494866D01*
X126588569Y-52511607D01*
X126554591Y-52521915D01*
X126513110Y-52526000D01*
X125911890Y-52526000D01*
X125870409Y-52521915D01*
X125836431Y-52511607D01*
X125805110Y-52494866D01*
X125777661Y-52472339D01*
X125755134Y-52444890D01*
X125738393Y-52413569D01*
X125728085Y-52379591D01*
X125724000Y-52338110D01*
X125724000Y-51661890D01*
X125728085Y-51620409D01*
X125738393Y-51586431D01*
X125755134Y-51555110D01*
X125777661Y-51527661D01*
X125805110Y-51505134D01*
X125836431Y-51488393D01*
X125870409Y-51478085D01*
X125911890Y-51474000D01*
X126513110Y-51474000D01*
X126554591Y-51478085D01*
G37*
G36*
X123129591Y-51478085D02*
G01*
X123163569Y-51488393D01*
X123194890Y-51505134D01*
X123222339Y-51527661D01*
X123244866Y-51555110D01*
X123261607Y-51586431D01*
X123271915Y-51620409D01*
X123276000Y-51661890D01*
X123276000Y-52338110D01*
X123271915Y-52379591D01*
X123261607Y-52413569D01*
X123244866Y-52444890D01*
X123222339Y-52472339D01*
X123194890Y-52494866D01*
X123163569Y-52511607D01*
X123129591Y-52521915D01*
X123088110Y-52526000D01*
X122486890Y-52526000D01*
X122445409Y-52521915D01*
X122411431Y-52511607D01*
X122380110Y-52494866D01*
X122352661Y-52472339D01*
X122330134Y-52444890D01*
X122313393Y-52413569D01*
X122303085Y-52379591D01*
X122299000Y-52338110D01*
X122299000Y-51661890D01*
X122303085Y-51620409D01*
X122313393Y-51586431D01*
X122330134Y-51555110D01*
X122352661Y-51527661D01*
X122380110Y-51505134D01*
X122411431Y-51488393D01*
X122445409Y-51478085D01*
X122486890Y-51474000D01*
X123088110Y-51474000D01*
X123129591Y-51478085D01*
G37*
G36*
X121554591Y-51478085D02*
G01*
X121588569Y-51488393D01*
X121619890Y-51505134D01*
X121647339Y-51527661D01*
X121669866Y-51555110D01*
X121686607Y-51586431D01*
X121696915Y-51620409D01*
X121701000Y-51661890D01*
X121701000Y-52338110D01*
X121696915Y-52379591D01*
X121686607Y-52413569D01*
X121669866Y-52444890D01*
X121647339Y-52472339D01*
X121619890Y-52494866D01*
X121588569Y-52511607D01*
X121554591Y-52521915D01*
X121513110Y-52526000D01*
X120911890Y-52526000D01*
X120870409Y-52521915D01*
X120836431Y-52511607D01*
X120805110Y-52494866D01*
X120777661Y-52472339D01*
X120755134Y-52444890D01*
X120738393Y-52413569D01*
X120728085Y-52379591D01*
X120724000Y-52338110D01*
X120724000Y-51661890D01*
X120728085Y-51620409D01*
X120738393Y-51586431D01*
X120755134Y-51555110D01*
X120777661Y-51527661D01*
X120805110Y-51505134D01*
X120836431Y-51488393D01*
X120870409Y-51478085D01*
X120911890Y-51474000D01*
X121513110Y-51474000D01*
X121554591Y-51478085D01*
G37*
G36*
X131554591Y-51478085D02*
G01*
X131588569Y-51488393D01*
X131619890Y-51505134D01*
X131647339Y-51527661D01*
X131669866Y-51555110D01*
X131686607Y-51586431D01*
X131696915Y-51620409D01*
X131701000Y-51661890D01*
X131701000Y-52338110D01*
X131696915Y-52379591D01*
X131686607Y-52413569D01*
X131669866Y-52444890D01*
X131647339Y-52472339D01*
X131619890Y-52494866D01*
X131588569Y-52511607D01*
X131554591Y-52521915D01*
X131513110Y-52526000D01*
X130911890Y-52526000D01*
X130870409Y-52521915D01*
X130836431Y-52511607D01*
X130805110Y-52494866D01*
X130777661Y-52472339D01*
X130755134Y-52444890D01*
X130738393Y-52413569D01*
X130728085Y-52379591D01*
X130724000Y-52338110D01*
X130724000Y-51661890D01*
X130728085Y-51620409D01*
X130738393Y-51586431D01*
X130755134Y-51555110D01*
X130777661Y-51527661D01*
X130805110Y-51505134D01*
X130836431Y-51488393D01*
X130870409Y-51478085D01*
X130911890Y-51474000D01*
X131513110Y-51474000D01*
X131554591Y-51478085D01*
G37*
G36*
X119859928Y-51651764D02*
G01*
X119881009Y-51658160D01*
X119900445Y-51668548D01*
X119917476Y-51682524D01*
X119931452Y-51699555D01*
X119941840Y-51718991D01*
X119948236Y-51740072D01*
X119951000Y-51768140D01*
X119951000Y-52231860D01*
X119948236Y-52259928D01*
X119941840Y-52281009D01*
X119931452Y-52300445D01*
X119917476Y-52317476D01*
X119900445Y-52331452D01*
X119881009Y-52341840D01*
X119859928Y-52348236D01*
X119831860Y-52351000D01*
X118368140Y-52351000D01*
X118340072Y-52348236D01*
X118318991Y-52341840D01*
X118299555Y-52331452D01*
X118282524Y-52317476D01*
X118268548Y-52300445D01*
X118258160Y-52281009D01*
X118251764Y-52259928D01*
X118249000Y-52231860D01*
X118249000Y-51768140D01*
X118251764Y-51740072D01*
X118258160Y-51718991D01*
X118268548Y-51699555D01*
X118282524Y-51682524D01*
X118299555Y-51668548D01*
X118318991Y-51658160D01*
X118340072Y-51651764D01*
X118368140Y-51649000D01*
X119831860Y-51649000D01*
X119859928Y-51651764D01*
G37*
G36*
X112659928Y-51651764D02*
G01*
X112681009Y-51658160D01*
X112700445Y-51668548D01*
X112717476Y-51682524D01*
X112731452Y-51699555D01*
X112741840Y-51718991D01*
X112748236Y-51740072D01*
X112751000Y-51768140D01*
X112751000Y-52231860D01*
X112748236Y-52259928D01*
X112741840Y-52281009D01*
X112731452Y-52300445D01*
X112717476Y-52317476D01*
X112700445Y-52331452D01*
X112681009Y-52341840D01*
X112659928Y-52348236D01*
X112631860Y-52351000D01*
X111168140Y-52351000D01*
X111140072Y-52348236D01*
X111118991Y-52341840D01*
X111099555Y-52331452D01*
X111082524Y-52317476D01*
X111068548Y-52300445D01*
X111058160Y-52281009D01*
X111051764Y-52259928D01*
X111049000Y-52231860D01*
X111049000Y-51768140D01*
X111051764Y-51740072D01*
X111058160Y-51718991D01*
X111068548Y-51699555D01*
X111082524Y-51682524D01*
X111099555Y-51668548D01*
X111118991Y-51658160D01*
X111140072Y-51651764D01*
X111168140Y-51649000D01*
X112631860Y-51649000D01*
X112659928Y-51651764D01*
G37*
G36*
X106401000Y-52301000D02*
G01*
X104599000Y-52301000D01*
X104599000Y-50499000D01*
X106401000Y-50499000D01*
X106401000Y-52301000D01*
G37*
G36*
X110129591Y-50578085D02*
G01*
X110163569Y-50588393D01*
X110194890Y-50605134D01*
X110222339Y-50627661D01*
X110244866Y-50655110D01*
X110261607Y-50686431D01*
X110271915Y-50720409D01*
X110276000Y-50761890D01*
X110276000Y-51438110D01*
X110271915Y-51479591D01*
X110261607Y-51513569D01*
X110244866Y-51544890D01*
X110222339Y-51572339D01*
X110194890Y-51594866D01*
X110163569Y-51611607D01*
X110129591Y-51621915D01*
X110088110Y-51626000D01*
X109486890Y-51626000D01*
X109445409Y-51621915D01*
X109411431Y-51611607D01*
X109380110Y-51594866D01*
X109352661Y-51572339D01*
X109330134Y-51544890D01*
X109313393Y-51513569D01*
X109303085Y-51479591D01*
X109299000Y-51438110D01*
X109299000Y-50761890D01*
X109303085Y-50720409D01*
X109313393Y-50686431D01*
X109330134Y-50655110D01*
X109352661Y-50627661D01*
X109380110Y-50605134D01*
X109411431Y-50588393D01*
X109445409Y-50578085D01*
X109486890Y-50574000D01*
X110088110Y-50574000D01*
X110129591Y-50578085D01*
G37*
G36*
X108554591Y-50578085D02*
G01*
X108588569Y-50588393D01*
X108619890Y-50605134D01*
X108647339Y-50627661D01*
X108669866Y-50655110D01*
X108686607Y-50686431D01*
X108696915Y-50720409D01*
X108701000Y-50761890D01*
X108701000Y-51438110D01*
X108696915Y-51479591D01*
X108686607Y-51513569D01*
X108669866Y-51544890D01*
X108647339Y-51572339D01*
X108619890Y-51594866D01*
X108588569Y-51611607D01*
X108554591Y-51621915D01*
X108513110Y-51626000D01*
X107911890Y-51626000D01*
X107870409Y-51621915D01*
X107836431Y-51611607D01*
X107805110Y-51594866D01*
X107777661Y-51572339D01*
X107755134Y-51544890D01*
X107738393Y-51513569D01*
X107728085Y-51479591D01*
X107724000Y-51438110D01*
X107724000Y-50761890D01*
X107728085Y-50720409D01*
X107738393Y-50686431D01*
X107755134Y-50655110D01*
X107777661Y-50627661D01*
X107805110Y-50605134D01*
X107836431Y-50588393D01*
X107870409Y-50578085D01*
X107911890Y-50574000D01*
X108513110Y-50574000D01*
X108554591Y-50578085D01*
G37*
G36*
X112659928Y-50381764D02*
G01*
X112681009Y-50388160D01*
X112700445Y-50398548D01*
X112717476Y-50412524D01*
X112731452Y-50429555D01*
X112741840Y-50448991D01*
X112748236Y-50470072D01*
X112751000Y-50498140D01*
X112751000Y-50961860D01*
X112748236Y-50989928D01*
X112741840Y-51011009D01*
X112731452Y-51030445D01*
X112717476Y-51047476D01*
X112700445Y-51061452D01*
X112681009Y-51071840D01*
X112659928Y-51078236D01*
X112631860Y-51081000D01*
X111168140Y-51081000D01*
X111140072Y-51078236D01*
X111118991Y-51071840D01*
X111099555Y-51061452D01*
X111082524Y-51047476D01*
X111068548Y-51030445D01*
X111058160Y-51011009D01*
X111051764Y-50989928D01*
X111049000Y-50961860D01*
X111049000Y-50498140D01*
X111051764Y-50470072D01*
X111058160Y-50448991D01*
X111068548Y-50429555D01*
X111082524Y-50412524D01*
X111099555Y-50398548D01*
X111118991Y-50388160D01*
X111140072Y-50381764D01*
X111168140Y-50379000D01*
X112631860Y-50379000D01*
X112659928Y-50381764D01*
G37*
G36*
X119859928Y-50381764D02*
G01*
X119881009Y-50388160D01*
X119900445Y-50398548D01*
X119917476Y-50412524D01*
X119931452Y-50429555D01*
X119941840Y-50448991D01*
X119948236Y-50470072D01*
X119951000Y-50498140D01*
X119951000Y-50961860D01*
X119948236Y-50989928D01*
X119941840Y-51011009D01*
X119931452Y-51030445D01*
X119917476Y-51047476D01*
X119900445Y-51061452D01*
X119881009Y-51071840D01*
X119859928Y-51078236D01*
X119831860Y-51081000D01*
X118368140Y-51081000D01*
X118340072Y-51078236D01*
X118318991Y-51071840D01*
X118299555Y-51061452D01*
X118282524Y-51047476D01*
X118268548Y-51030445D01*
X118258160Y-51011009D01*
X118251764Y-50989928D01*
X118249000Y-50961860D01*
X118249000Y-50498140D01*
X118251764Y-50470072D01*
X118258160Y-50448991D01*
X118268548Y-50429555D01*
X118282524Y-50412524D01*
X118299555Y-50398548D01*
X118318991Y-50388160D01*
X118340072Y-50381764D01*
X118368140Y-50379000D01*
X119831860Y-50379000D01*
X119859928Y-50381764D01*
G37*
G36*
X128513512Y-48603927D02*
G01*
X128662812Y-48633624D01*
X128826784Y-48701544D01*
X128974354Y-48800147D01*
X129099853Y-48925646D01*
X129198456Y-49073216D01*
X129266376Y-49237188D01*
X129301000Y-49411259D01*
X129301000Y-49588741D01*
X129266376Y-49762812D01*
X129198456Y-49926784D01*
X129099853Y-50074354D01*
X128974354Y-50199853D01*
X128826784Y-50298456D01*
X128662812Y-50366376D01*
X128532183Y-50392359D01*
X128488742Y-50401000D01*
X128311258Y-50401000D01*
X128267817Y-50392359D01*
X128137188Y-50366376D01*
X127973216Y-50298456D01*
X127825646Y-50199853D01*
X127700147Y-50074354D01*
X127601544Y-49926784D01*
X127533624Y-49762812D01*
X127499000Y-49588741D01*
X127499000Y-49411259D01*
X127533624Y-49237188D01*
X127601544Y-49073216D01*
X127700147Y-48925646D01*
X127825646Y-48800147D01*
X127973216Y-48701544D01*
X128137188Y-48633624D01*
X128286488Y-48603927D01*
X128311258Y-48599000D01*
X128488742Y-48599000D01*
X128513512Y-48603927D01*
G37*
G36*
X136133512Y-48603927D02*
G01*
X136282812Y-48633624D01*
X136446784Y-48701544D01*
X136594354Y-48800147D01*
X136719853Y-48925646D01*
X136818456Y-49073216D01*
X136886376Y-49237188D01*
X136921000Y-49411259D01*
X136921000Y-49588741D01*
X136886376Y-49762812D01*
X136818456Y-49926784D01*
X136719853Y-50074354D01*
X136594354Y-50199853D01*
X136446784Y-50298456D01*
X136282812Y-50366376D01*
X136152183Y-50392359D01*
X136108742Y-50401000D01*
X135931258Y-50401000D01*
X135887817Y-50392359D01*
X135757188Y-50366376D01*
X135593216Y-50298456D01*
X135445646Y-50199853D01*
X135320147Y-50074354D01*
X135221544Y-49926784D01*
X135153624Y-49762812D01*
X135119000Y-49588741D01*
X135119000Y-49411259D01*
X135153624Y-49237188D01*
X135221544Y-49073216D01*
X135320147Y-48925646D01*
X135445646Y-48800147D01*
X135593216Y-48701544D01*
X135757188Y-48633624D01*
X135906488Y-48603927D01*
X135931258Y-48599000D01*
X136108742Y-48599000D01*
X136133512Y-48603927D01*
G37*
G36*
X131053512Y-48603927D02*
G01*
X131202812Y-48633624D01*
X131366784Y-48701544D01*
X131514354Y-48800147D01*
X131639853Y-48925646D01*
X131738456Y-49073216D01*
X131806376Y-49237188D01*
X131841000Y-49411259D01*
X131841000Y-49588741D01*
X131806376Y-49762812D01*
X131738456Y-49926784D01*
X131639853Y-50074354D01*
X131514354Y-50199853D01*
X131366784Y-50298456D01*
X131202812Y-50366376D01*
X131072183Y-50392359D01*
X131028742Y-50401000D01*
X130851258Y-50401000D01*
X130807817Y-50392359D01*
X130677188Y-50366376D01*
X130513216Y-50298456D01*
X130365646Y-50199853D01*
X130240147Y-50074354D01*
X130141544Y-49926784D01*
X130073624Y-49762812D01*
X130039000Y-49588741D01*
X130039000Y-49411259D01*
X130073624Y-49237188D01*
X130141544Y-49073216D01*
X130240147Y-48925646D01*
X130365646Y-48800147D01*
X130513216Y-48701544D01*
X130677188Y-48633624D01*
X130826488Y-48603927D01*
X130851258Y-48599000D01*
X131028742Y-48599000D01*
X131053512Y-48603927D01*
G37*
G36*
X125973512Y-48603927D02*
G01*
X126122812Y-48633624D01*
X126286784Y-48701544D01*
X126434354Y-48800147D01*
X126559853Y-48925646D01*
X126658456Y-49073216D01*
X126726376Y-49237188D01*
X126761000Y-49411259D01*
X126761000Y-49588741D01*
X126726376Y-49762812D01*
X126658456Y-49926784D01*
X126559853Y-50074354D01*
X126434354Y-50199853D01*
X126286784Y-50298456D01*
X126122812Y-50366376D01*
X125992183Y-50392359D01*
X125948742Y-50401000D01*
X125771258Y-50401000D01*
X125727817Y-50392359D01*
X125597188Y-50366376D01*
X125433216Y-50298456D01*
X125285646Y-50199853D01*
X125160147Y-50074354D01*
X125061544Y-49926784D01*
X124993624Y-49762812D01*
X124959000Y-49588741D01*
X124959000Y-49411259D01*
X124993624Y-49237188D01*
X125061544Y-49073216D01*
X125160147Y-48925646D01*
X125285646Y-48800147D01*
X125433216Y-48701544D01*
X125597188Y-48633624D01*
X125746488Y-48603927D01*
X125771258Y-48599000D01*
X125948742Y-48599000D01*
X125973512Y-48603927D01*
G37*
G36*
X124221000Y-50401000D02*
G01*
X122419000Y-50401000D01*
X122419000Y-48599000D01*
X124221000Y-48599000D01*
X124221000Y-50401000D01*
G37*
G36*
X133593512Y-48603927D02*
G01*
X133742812Y-48633624D01*
X133906784Y-48701544D01*
X134054354Y-48800147D01*
X134179853Y-48925646D01*
X134278456Y-49073216D01*
X134346376Y-49237188D01*
X134381000Y-49411259D01*
X134381000Y-49588741D01*
X134346376Y-49762812D01*
X134278456Y-49926784D01*
X134179853Y-50074354D01*
X134054354Y-50199853D01*
X133906784Y-50298456D01*
X133742812Y-50366376D01*
X133612183Y-50392359D01*
X133568742Y-50401000D01*
X133391258Y-50401000D01*
X133347817Y-50392359D01*
X133217188Y-50366376D01*
X133053216Y-50298456D01*
X132905646Y-50199853D01*
X132780147Y-50074354D01*
X132681544Y-49926784D01*
X132613624Y-49762812D01*
X132579000Y-49588741D01*
X132579000Y-49411259D01*
X132613624Y-49237188D01*
X132681544Y-49073216D01*
X132780147Y-48925646D01*
X132905646Y-48800147D01*
X133053216Y-48701544D01*
X133217188Y-48633624D01*
X133366488Y-48603927D01*
X133391258Y-48599000D01*
X133568742Y-48599000D01*
X133593512Y-48603927D01*
G37*
G36*
X112659928Y-49111764D02*
G01*
X112681009Y-49118160D01*
X112700445Y-49128548D01*
X112717476Y-49142524D01*
X112731452Y-49159555D01*
X112741840Y-49178991D01*
X112748236Y-49200072D01*
X112751000Y-49228140D01*
X112751000Y-49691860D01*
X112748236Y-49719928D01*
X112741840Y-49741009D01*
X112731452Y-49760445D01*
X112717476Y-49777476D01*
X112700445Y-49791452D01*
X112681009Y-49801840D01*
X112659928Y-49808236D01*
X112631860Y-49811000D01*
X111168140Y-49811000D01*
X111140072Y-49808236D01*
X111118991Y-49801840D01*
X111099555Y-49791452D01*
X111082524Y-49777476D01*
X111068548Y-49760445D01*
X111058160Y-49741009D01*
X111051764Y-49719928D01*
X111049000Y-49691860D01*
X111049000Y-49228140D01*
X111051764Y-49200072D01*
X111058160Y-49178991D01*
X111068548Y-49159555D01*
X111082524Y-49142524D01*
X111099555Y-49128548D01*
X111118991Y-49118160D01*
X111140072Y-49111764D01*
X111168140Y-49109000D01*
X112631860Y-49109000D01*
X112659928Y-49111764D01*
G37*
G36*
X119859928Y-49111764D02*
G01*
X119881009Y-49118160D01*
X119900445Y-49128548D01*
X119917476Y-49142524D01*
X119931452Y-49159555D01*
X119941840Y-49178991D01*
X119948236Y-49200072D01*
X119951000Y-49228140D01*
X119951000Y-49691860D01*
X119948236Y-49719928D01*
X119941840Y-49741009D01*
X119931452Y-49760445D01*
X119917476Y-49777476D01*
X119900445Y-49791452D01*
X119881009Y-49801840D01*
X119859928Y-49808236D01*
X119831860Y-49811000D01*
X118368140Y-49811000D01*
X118340072Y-49808236D01*
X118318991Y-49801840D01*
X118299555Y-49791452D01*
X118282524Y-49777476D01*
X118268548Y-49760445D01*
X118258160Y-49741009D01*
X118251764Y-49719928D01*
X118249000Y-49691860D01*
X118249000Y-49228140D01*
X118251764Y-49200072D01*
X118258160Y-49178991D01*
X118268548Y-49159555D01*
X118282524Y-49142524D01*
X118299555Y-49128548D01*
X118318991Y-49118160D01*
X118340072Y-49111764D01*
X118368140Y-49109000D01*
X119831860Y-49109000D01*
X119859928Y-49111764D01*
G37*
G36*
X105613512Y-47963927D02*
G01*
X105762812Y-47993624D01*
X105926784Y-48061544D01*
X106074354Y-48160147D01*
X106199853Y-48285646D01*
X106298456Y-48433216D01*
X106366376Y-48597188D01*
X106391755Y-48724780D01*
X106399137Y-48761890D01*
X106401000Y-48771259D01*
X106401000Y-48948741D01*
X106366376Y-49122812D01*
X106298456Y-49286784D01*
X106199853Y-49434354D01*
X106074354Y-49559853D01*
X105926784Y-49658456D01*
X105762812Y-49726376D01*
X105613512Y-49756073D01*
X105588742Y-49761000D01*
X105411258Y-49761000D01*
X105386488Y-49756073D01*
X105237188Y-49726376D01*
X105073216Y-49658456D01*
X104925646Y-49559853D01*
X104800147Y-49434354D01*
X104701544Y-49286784D01*
X104633624Y-49122812D01*
X104599000Y-48948741D01*
X104599000Y-48771259D01*
X104600864Y-48761890D01*
X104608245Y-48724780D01*
X104633624Y-48597188D01*
X104701544Y-48433216D01*
X104800147Y-48285646D01*
X104925646Y-48160147D01*
X105073216Y-48061544D01*
X105237188Y-47993624D01*
X105386488Y-47963927D01*
X105411258Y-47959000D01*
X105588742Y-47959000D01*
X105613512Y-47963927D01*
G37*
G36*
X108554591Y-48578085D02*
G01*
X108588569Y-48588393D01*
X108619890Y-48605134D01*
X108647339Y-48627661D01*
X108669866Y-48655110D01*
X108686607Y-48686431D01*
X108696915Y-48720409D01*
X108701000Y-48761890D01*
X108701000Y-49438110D01*
X108696915Y-49479591D01*
X108686607Y-49513569D01*
X108669866Y-49544890D01*
X108647339Y-49572339D01*
X108619890Y-49594866D01*
X108588569Y-49611607D01*
X108554591Y-49621915D01*
X108513110Y-49626000D01*
X107911890Y-49626000D01*
X107870409Y-49621915D01*
X107836431Y-49611607D01*
X107805110Y-49594866D01*
X107777661Y-49572339D01*
X107755134Y-49544890D01*
X107738393Y-49513569D01*
X107728085Y-49479591D01*
X107724000Y-49438110D01*
X107724000Y-48761890D01*
X107728085Y-48720409D01*
X107738393Y-48686431D01*
X107755134Y-48655110D01*
X107777661Y-48627661D01*
X107805110Y-48605134D01*
X107836431Y-48588393D01*
X107870409Y-48578085D01*
X107911890Y-48574000D01*
X108513110Y-48574000D01*
X108554591Y-48578085D01*
G37*
G36*
X110129591Y-48578085D02*
G01*
X110163569Y-48588393D01*
X110194890Y-48605134D01*
X110222339Y-48627661D01*
X110244866Y-48655110D01*
X110261607Y-48686431D01*
X110271915Y-48720409D01*
X110276000Y-48761890D01*
X110276000Y-49438110D01*
X110271915Y-49479591D01*
X110261607Y-49513569D01*
X110244866Y-49544890D01*
X110222339Y-49572339D01*
X110194890Y-49594866D01*
X110163569Y-49611607D01*
X110129591Y-49621915D01*
X110088110Y-49626000D01*
X109486890Y-49626000D01*
X109445409Y-49621915D01*
X109411431Y-49611607D01*
X109380110Y-49594866D01*
X109352661Y-49572339D01*
X109330134Y-49544890D01*
X109313393Y-49513569D01*
X109303085Y-49479591D01*
X109299000Y-49438110D01*
X109299000Y-48761890D01*
X109303085Y-48720409D01*
X109313393Y-48686431D01*
X109330134Y-48655110D01*
X109352661Y-48627661D01*
X109380110Y-48605134D01*
X109411431Y-48588393D01*
X109445409Y-48578085D01*
X109486890Y-48574000D01*
X110088110Y-48574000D01*
X110129591Y-48578085D01*
G37*
M02*
