G04 #@! TF.GenerationSoftware,KiCad,Pcbnew,(5.1.5)-3*
G04 #@! TF.CreationDate,2020-02-18T08:36:52+11:00*
G04 #@! TF.ProjectId,Heterodyne,48657465-726f-4647-996e-652e6b696361,rev?*
G04 #@! TF.SameCoordinates,Original*
G04 #@! TF.FileFunction,Legend,Top*
G04 #@! TF.FilePolarity,Positive*
%FSLAX46Y46*%
G04 Gerber Fmt 4.6, Leading zero omitted, Abs format (unit mm)*
G04 Created by KiCad (PCBNEW (5.1.5)-3) date 2020-02-18 08:36:52*
%MOMM*%
%LPD*%
G04 APERTURE LIST*
%ADD10C,0.200000*%
%ADD11C,0.100000*%
%ADD12C,0.120000*%
%ADD13C,0.150000*%
G04 APERTURE END LIST*
D10*
X105228571Y-64398571D02*
X105276190Y-64255714D01*
X105323809Y-64208095D01*
X105419047Y-64160476D01*
X105561904Y-64160476D01*
X105657142Y-64208095D01*
X105704761Y-64255714D01*
X105752380Y-64350952D01*
X105752380Y-64731904D01*
X104752380Y-64731904D01*
X104752380Y-64398571D01*
X104800000Y-64303333D01*
X104847619Y-64255714D01*
X104942857Y-64208095D01*
X105038095Y-64208095D01*
X105133333Y-64255714D01*
X105180952Y-64303333D01*
X105228571Y-64398571D01*
X105228571Y-64731904D01*
X105752380Y-63589047D02*
X105704761Y-63684285D01*
X105657142Y-63731904D01*
X105561904Y-63779523D01*
X105276190Y-63779523D01*
X105180952Y-63731904D01*
X105133333Y-63684285D01*
X105085714Y-63589047D01*
X105085714Y-63446190D01*
X105133333Y-63350952D01*
X105180952Y-63303333D01*
X105276190Y-63255714D01*
X105561904Y-63255714D01*
X105657142Y-63303333D01*
X105704761Y-63350952D01*
X105752380Y-63446190D01*
X105752380Y-63589047D01*
X105704761Y-62874761D02*
X105752380Y-62731904D01*
X105752380Y-62493809D01*
X105704761Y-62398571D01*
X105657142Y-62350952D01*
X105561904Y-62303333D01*
X105466666Y-62303333D01*
X105371428Y-62350952D01*
X105323809Y-62398571D01*
X105276190Y-62493809D01*
X105228571Y-62684285D01*
X105180952Y-62779523D01*
X105133333Y-62827142D01*
X105038095Y-62874761D01*
X104942857Y-62874761D01*
X104847619Y-62827142D01*
X104800000Y-62779523D01*
X104752380Y-62684285D01*
X104752380Y-62446190D01*
X104800000Y-62303333D01*
X105752380Y-61398571D02*
X105752380Y-61874761D01*
X104752380Y-61874761D01*
X106452380Y-64874761D02*
X107452380Y-64541428D01*
X106452380Y-64208095D01*
X107404761Y-63493809D02*
X107452380Y-63589047D01*
X107452380Y-63779523D01*
X107404761Y-63874761D01*
X107309523Y-63922380D01*
X106928571Y-63922380D01*
X106833333Y-63874761D01*
X106785714Y-63779523D01*
X106785714Y-63589047D01*
X106833333Y-63493809D01*
X106928571Y-63446190D01*
X107023809Y-63446190D01*
X107119047Y-63922380D01*
X107452380Y-62874761D02*
X107404761Y-62970000D01*
X107309523Y-63017619D01*
X106452380Y-63017619D01*
X107452380Y-62350952D02*
X107404761Y-62446190D01*
X107357142Y-62493809D01*
X107261904Y-62541428D01*
X106976190Y-62541428D01*
X106880952Y-62493809D01*
X106833333Y-62446190D01*
X106785714Y-62350952D01*
X106785714Y-62208095D01*
X106833333Y-62112857D01*
X106880952Y-62065238D01*
X106976190Y-62017619D01*
X107261904Y-62017619D01*
X107357142Y-62065238D01*
X107404761Y-62112857D01*
X107452380Y-62208095D01*
X107452380Y-62350952D01*
X107404761Y-61160476D02*
X107452380Y-61255714D01*
X107452380Y-61446190D01*
X107404761Y-61541428D01*
X107357142Y-61589047D01*
X107261904Y-61636666D01*
X106976190Y-61636666D01*
X106880952Y-61589047D01*
X106833333Y-61541428D01*
X106785714Y-61446190D01*
X106785714Y-61255714D01*
X106833333Y-61160476D01*
X107452380Y-60731904D02*
X106785714Y-60731904D01*
X106452380Y-60731904D02*
X106500000Y-60779523D01*
X106547619Y-60731904D01*
X106500000Y-60684285D01*
X106452380Y-60731904D01*
X106547619Y-60731904D01*
X106785714Y-60398571D02*
X106785714Y-60017619D01*
X106452380Y-60255714D02*
X107309523Y-60255714D01*
X107404761Y-60208095D01*
X107452380Y-60112857D01*
X107452380Y-60017619D01*
X106785714Y-59779523D02*
X107452380Y-59541428D01*
X106785714Y-59303333D02*
X107452380Y-59541428D01*
X107690476Y-59636666D01*
X107738095Y-59684285D01*
X107785714Y-59779523D01*
X109152380Y-64731904D02*
X108485714Y-64731904D01*
X108676190Y-64731904D02*
X108580952Y-64684285D01*
X108533333Y-64636666D01*
X108485714Y-64541428D01*
X108485714Y-64446190D01*
X109104761Y-63731904D02*
X109152380Y-63827142D01*
X109152380Y-64017619D01*
X109104761Y-64112857D01*
X109009523Y-64160476D01*
X108628571Y-64160476D01*
X108533333Y-64112857D01*
X108485714Y-64017619D01*
X108485714Y-63827142D01*
X108533333Y-63731904D01*
X108628571Y-63684285D01*
X108723809Y-63684285D01*
X108819047Y-64160476D01*
X108485714Y-63350952D02*
X109152380Y-63112857D01*
X108485714Y-62874761D01*
X108152380Y-61541428D02*
X108152380Y-61446190D01*
X108200000Y-61350952D01*
X108247619Y-61303333D01*
X108342857Y-61255714D01*
X108533333Y-61208095D01*
X108771428Y-61208095D01*
X108961904Y-61255714D01*
X109057142Y-61303333D01*
X109104761Y-61350952D01*
X109152380Y-61446190D01*
X109152380Y-61541428D01*
X109104761Y-61636666D01*
X109057142Y-61684285D01*
X108961904Y-61731904D01*
X108771428Y-61779523D01*
X108533333Y-61779523D01*
X108342857Y-61731904D01*
X108247619Y-61684285D01*
X108200000Y-61636666D01*
X108152380Y-61541428D01*
X109057142Y-60779523D02*
X109104761Y-60731904D01*
X109152380Y-60779523D01*
X109104761Y-60827142D01*
X109057142Y-60779523D01*
X109152380Y-60779523D01*
X109152380Y-59779523D02*
X109152380Y-60350952D01*
X109152380Y-60065238D02*
X108152380Y-60065238D01*
X108295238Y-60160476D01*
X108390476Y-60255714D01*
X108438095Y-60350952D01*
D11*
X132890476Y-47161904D02*
X133347619Y-47161904D01*
X133119047Y-47961904D02*
X133119047Y-47161904D01*
X133538095Y-47161904D02*
X134071428Y-47961904D01*
X134071428Y-47161904D02*
X133538095Y-47961904D01*
X130866666Y-47961904D02*
X130600000Y-47580952D01*
X130409523Y-47961904D02*
X130409523Y-47161904D01*
X130714285Y-47161904D01*
X130790476Y-47200000D01*
X130828571Y-47238095D01*
X130866666Y-47314285D01*
X130866666Y-47428571D01*
X130828571Y-47504761D01*
X130790476Y-47542857D01*
X130714285Y-47580952D01*
X130409523Y-47580952D01*
X131133333Y-47161904D02*
X131666666Y-47961904D01*
X131666666Y-47161904D02*
X131133333Y-47961904D01*
X127961904Y-47961904D02*
X127695238Y-47580952D01*
X127504761Y-47961904D02*
X127504761Y-47161904D01*
X127809523Y-47161904D01*
X127885714Y-47200000D01*
X127923809Y-47238095D01*
X127961904Y-47314285D01*
X127961904Y-47428571D01*
X127923809Y-47504761D01*
X127885714Y-47542857D01*
X127809523Y-47580952D01*
X127504761Y-47580952D01*
X128266666Y-47923809D02*
X128380952Y-47961904D01*
X128571428Y-47961904D01*
X128647619Y-47923809D01*
X128685714Y-47885714D01*
X128723809Y-47809523D01*
X128723809Y-47733333D01*
X128685714Y-47657142D01*
X128647619Y-47619047D01*
X128571428Y-47580952D01*
X128419047Y-47542857D01*
X128342857Y-47504761D01*
X128304761Y-47466666D01*
X128266666Y-47390476D01*
X128266666Y-47314285D01*
X128304761Y-47238095D01*
X128342857Y-47200000D01*
X128419047Y-47161904D01*
X128609523Y-47161904D01*
X128723809Y-47200000D01*
X128952380Y-47161904D02*
X129409523Y-47161904D01*
X129180952Y-47961904D02*
X129180952Y-47161904D01*
X125290476Y-47200000D02*
X125214285Y-47161904D01*
X125100000Y-47161904D01*
X124985714Y-47200000D01*
X124909523Y-47276190D01*
X124871428Y-47352380D01*
X124833333Y-47504761D01*
X124833333Y-47619047D01*
X124871428Y-47771428D01*
X124909523Y-47847619D01*
X124985714Y-47923809D01*
X125100000Y-47961904D01*
X125176190Y-47961904D01*
X125290476Y-47923809D01*
X125328571Y-47885714D01*
X125328571Y-47619047D01*
X125176190Y-47619047D01*
X125671428Y-47961904D02*
X125671428Y-47161904D01*
X126128571Y-47961904D01*
X126128571Y-47161904D01*
X126509523Y-47961904D02*
X126509523Y-47161904D01*
X126700000Y-47161904D01*
X126814285Y-47200000D01*
X126890476Y-47276190D01*
X126928571Y-47352380D01*
X126966666Y-47504761D01*
X126966666Y-47619047D01*
X126928571Y-47771428D01*
X126890476Y-47847619D01*
X126814285Y-47923809D01*
X126700000Y-47961904D01*
X126509523Y-47961904D01*
X122409523Y-47161904D02*
X122904761Y-47161904D01*
X122638095Y-47466666D01*
X122752380Y-47466666D01*
X122828571Y-47504761D01*
X122866666Y-47542857D01*
X122904761Y-47619047D01*
X122904761Y-47809523D01*
X122866666Y-47885714D01*
X122828571Y-47923809D01*
X122752380Y-47961904D01*
X122523809Y-47961904D01*
X122447619Y-47923809D01*
X122409523Y-47885714D01*
X123133333Y-47161904D02*
X123400000Y-47961904D01*
X123666666Y-47161904D01*
X123857142Y-47161904D02*
X124352380Y-47161904D01*
X124085714Y-47466666D01*
X124200000Y-47466666D01*
X124276190Y-47504761D01*
X124314285Y-47542857D01*
X124352380Y-47619047D01*
X124352380Y-47809523D01*
X124314285Y-47885714D01*
X124276190Y-47923809D01*
X124200000Y-47961904D01*
X123971428Y-47961904D01*
X123895238Y-47923809D01*
X123857142Y-47885714D01*
D12*
X122010000Y-50830000D02*
X122010000Y-49500000D01*
X123340000Y-50830000D02*
X122010000Y-50830000D01*
X124610000Y-50830000D02*
X124610000Y-48170000D01*
X124610000Y-48170000D02*
X134830000Y-48170000D01*
X124610000Y-50830000D02*
X134830000Y-50830000D01*
X134830000Y-50830000D02*
X134830000Y-48170000D01*
X127171267Y-51490000D02*
X126828733Y-51490000D01*
X127171267Y-52510000D02*
X126828733Y-52510000D01*
X112990000Y-55928733D02*
X112990000Y-56271267D01*
X114010000Y-55928733D02*
X114010000Y-56271267D01*
X116990000Y-56028733D02*
X116990000Y-56371267D01*
X118010000Y-56028733D02*
X118010000Y-56371267D01*
X111010000Y-60071267D02*
X111010000Y-59728733D01*
X109990000Y-60071267D02*
X109990000Y-59728733D01*
X112610000Y-61871267D02*
X112610000Y-61528733D01*
X111590000Y-61871267D02*
X111590000Y-61528733D01*
X125490000Y-58353733D02*
X125490000Y-58696267D01*
X126510000Y-58353733D02*
X126510000Y-58696267D01*
X123690000Y-56628733D02*
X123690000Y-56971267D01*
X124710000Y-56628733D02*
X124710000Y-56971267D01*
X132171267Y-51490000D02*
X131828733Y-51490000D01*
X132171267Y-52510000D02*
X131828733Y-52510000D01*
X123510000Y-60446267D02*
X123510000Y-60103733D01*
X122490000Y-60446267D02*
X122490000Y-60103733D01*
X125090000Y-62078922D02*
X125090000Y-62596078D01*
X126510000Y-62078922D02*
X126510000Y-62596078D01*
X138310000Y-53258578D02*
X138310000Y-52741422D01*
X136890000Y-53258578D02*
X136890000Y-52741422D01*
X128990000Y-52728733D02*
X128990000Y-53071267D01*
X130010000Y-52728733D02*
X130010000Y-53071267D01*
X125010000Y-53071267D02*
X125010000Y-52728733D01*
X123990000Y-53071267D02*
X123990000Y-52728733D01*
X122171267Y-51490000D02*
X121828733Y-51490000D01*
X122171267Y-52510000D02*
X121828733Y-52510000D01*
X115671267Y-58190000D02*
X115328733Y-58190000D01*
X115671267Y-59210000D02*
X115328733Y-59210000D01*
X117090000Y-62428733D02*
X117090000Y-62771267D01*
X118110000Y-62428733D02*
X118110000Y-62771267D01*
X109171267Y-50590000D02*
X108828733Y-50590000D01*
X109171267Y-51610000D02*
X108828733Y-51610000D01*
X109171267Y-48590000D02*
X108828733Y-48590000D01*
X109171267Y-49610000D02*
X108828733Y-49610000D01*
X104170000Y-56330000D02*
X106830000Y-56330000D01*
X104170000Y-56210000D02*
X104170000Y-56330000D01*
X106830000Y-56210000D02*
X106830000Y-56330000D01*
X106830000Y-53670000D02*
X106830000Y-55000000D01*
X105500000Y-53670000D02*
X106830000Y-53670000D01*
X106830000Y-47530000D02*
X104170000Y-47530000D01*
X106830000Y-50130000D02*
X106830000Y-47530000D01*
X104170000Y-50130000D02*
X104170000Y-47530000D01*
X106830000Y-50130000D02*
X104170000Y-50130000D01*
X106830000Y-51400000D02*
X106830000Y-52730000D01*
X106830000Y-52730000D02*
X105500000Y-52730000D01*
X132930000Y-65630000D02*
X132930000Y-64300000D01*
X134260000Y-65630000D02*
X132930000Y-65630000D01*
X135530000Y-65630000D02*
X135530000Y-62970000D01*
X135530000Y-62970000D02*
X138130000Y-62970000D01*
X135530000Y-65630000D02*
X138130000Y-65630000D01*
X138130000Y-65630000D02*
X138130000Y-62970000D01*
X115500000Y-54112500D02*
X118247500Y-54112500D01*
X118247500Y-54112500D02*
X118247500Y-53830000D01*
X115500000Y-54112500D02*
X112752500Y-54112500D01*
X112752500Y-54112500D02*
X112752500Y-53830000D01*
X115500000Y-48617500D02*
X118247500Y-48617500D01*
X118247500Y-48617500D02*
X118247500Y-48900000D01*
X115500000Y-48617500D02*
X112752500Y-48617500D01*
X112752500Y-48617500D02*
X112752500Y-48900000D01*
X112752500Y-48900000D02*
X111100000Y-48900000D01*
X131000000Y-56040000D02*
X129050000Y-56040000D01*
X131000000Y-56040000D02*
X132950000Y-56040000D01*
X131000000Y-61160000D02*
X129050000Y-61160000D01*
X131000000Y-61160000D02*
X134450000Y-61160000D01*
X134600000Y-54135000D02*
X133940000Y-54135000D01*
X136270000Y-54135000D02*
X135600000Y-54135000D01*
X136260000Y-54135000D02*
X136260000Y-51400000D01*
X133940000Y-52725000D02*
X133940000Y-54135000D01*
X113290000Y-62900000D02*
X113290000Y-64400000D01*
X113290000Y-62900000D02*
X113290000Y-61400000D01*
X116510000Y-62900000D02*
X116510000Y-64400000D01*
X116510000Y-62900000D02*
X116510000Y-59975000D01*
D13*
X135866666Y-47752380D02*
X135866666Y-48466666D01*
X135819047Y-48609523D01*
X135723809Y-48704761D01*
X135580952Y-48752380D01*
X135485714Y-48752380D01*
X136866666Y-48752380D02*
X136295238Y-48752380D01*
X136580952Y-48752380D02*
X136580952Y-47752380D01*
X136485714Y-47895238D01*
X136390476Y-47990476D01*
X136295238Y-48038095D01*
X126357142Y-53882380D02*
X126023809Y-53406190D01*
X125785714Y-53882380D02*
X125785714Y-52882380D01*
X126166666Y-52882380D01*
X126261904Y-52930000D01*
X126309523Y-52977619D01*
X126357142Y-53072857D01*
X126357142Y-53215714D01*
X126309523Y-53310952D01*
X126261904Y-53358571D01*
X126166666Y-53406190D01*
X125785714Y-53406190D01*
X127309523Y-53882380D02*
X126738095Y-53882380D01*
X127023809Y-53882380D02*
X127023809Y-52882380D01*
X126928571Y-53025238D01*
X126833333Y-53120476D01*
X126738095Y-53168095D01*
X127928571Y-52882380D02*
X128023809Y-52882380D01*
X128119047Y-52930000D01*
X128166666Y-52977619D01*
X128214285Y-53072857D01*
X128261904Y-53263333D01*
X128261904Y-53501428D01*
X128214285Y-53691904D01*
X128166666Y-53787142D01*
X128119047Y-53834761D01*
X128023809Y-53882380D01*
X127928571Y-53882380D01*
X127833333Y-53834761D01*
X127785714Y-53787142D01*
X127738095Y-53691904D01*
X127690476Y-53501428D01*
X127690476Y-53263333D01*
X127738095Y-53072857D01*
X127785714Y-52977619D01*
X127833333Y-52930000D01*
X127928571Y-52882380D01*
X115382380Y-56266666D02*
X114906190Y-56600000D01*
X115382380Y-56838095D02*
X114382380Y-56838095D01*
X114382380Y-56457142D01*
X114430000Y-56361904D01*
X114477619Y-56314285D01*
X114572857Y-56266666D01*
X114715714Y-56266666D01*
X114810952Y-56314285D01*
X114858571Y-56361904D01*
X114906190Y-56457142D01*
X114906190Y-56838095D01*
X115382380Y-55790476D02*
X115382380Y-55600000D01*
X115334761Y-55504761D01*
X115287142Y-55457142D01*
X115144285Y-55361904D01*
X114953809Y-55314285D01*
X114572857Y-55314285D01*
X114477619Y-55361904D01*
X114430000Y-55409523D01*
X114382380Y-55504761D01*
X114382380Y-55695238D01*
X114430000Y-55790476D01*
X114477619Y-55838095D01*
X114572857Y-55885714D01*
X114810952Y-55885714D01*
X114906190Y-55838095D01*
X114953809Y-55790476D01*
X115001428Y-55695238D01*
X115001428Y-55504761D01*
X114953809Y-55409523D01*
X114906190Y-55361904D01*
X114810952Y-55314285D01*
X119382380Y-56366666D02*
X118906190Y-56700000D01*
X119382380Y-56938095D02*
X118382380Y-56938095D01*
X118382380Y-56557142D01*
X118430000Y-56461904D01*
X118477619Y-56414285D01*
X118572857Y-56366666D01*
X118715714Y-56366666D01*
X118810952Y-56414285D01*
X118858571Y-56461904D01*
X118906190Y-56557142D01*
X118906190Y-56938095D01*
X118382380Y-56033333D02*
X118382380Y-55366666D01*
X119382380Y-55795238D01*
X112133333Y-59452380D02*
X111800000Y-58976190D01*
X111561904Y-59452380D02*
X111561904Y-58452380D01*
X111942857Y-58452380D01*
X112038095Y-58500000D01*
X112085714Y-58547619D01*
X112133333Y-58642857D01*
X112133333Y-58785714D01*
X112085714Y-58880952D01*
X112038095Y-58928571D01*
X111942857Y-58976190D01*
X111561904Y-58976190D01*
X112990476Y-58452380D02*
X112800000Y-58452380D01*
X112704761Y-58500000D01*
X112657142Y-58547619D01*
X112561904Y-58690476D01*
X112514285Y-58880952D01*
X112514285Y-59261904D01*
X112561904Y-59357142D01*
X112609523Y-59404761D01*
X112704761Y-59452380D01*
X112895238Y-59452380D01*
X112990476Y-59404761D01*
X113038095Y-59357142D01*
X113085714Y-59261904D01*
X113085714Y-59023809D01*
X113038095Y-58928571D01*
X112990476Y-58880952D01*
X112895238Y-58833333D01*
X112704761Y-58833333D01*
X112609523Y-58880952D01*
X112561904Y-58928571D01*
X112514285Y-59023809D01*
X110952380Y-63066666D02*
X110476190Y-63400000D01*
X110952380Y-63638095D02*
X109952380Y-63638095D01*
X109952380Y-63257142D01*
X110000000Y-63161904D01*
X110047619Y-63114285D01*
X110142857Y-63066666D01*
X110285714Y-63066666D01*
X110380952Y-63114285D01*
X110428571Y-63161904D01*
X110476190Y-63257142D01*
X110476190Y-63638095D01*
X109952380Y-62161904D02*
X109952380Y-62638095D01*
X110428571Y-62685714D01*
X110380952Y-62638095D01*
X110333333Y-62542857D01*
X110333333Y-62304761D01*
X110380952Y-62209523D01*
X110428571Y-62161904D01*
X110523809Y-62114285D01*
X110761904Y-62114285D01*
X110857142Y-62161904D01*
X110904761Y-62209523D01*
X110952380Y-62304761D01*
X110952380Y-62542857D01*
X110904761Y-62638095D01*
X110857142Y-62685714D01*
X125933333Y-56752380D02*
X125600000Y-56276190D01*
X125361904Y-56752380D02*
X125361904Y-55752380D01*
X125742857Y-55752380D01*
X125838095Y-55800000D01*
X125885714Y-55847619D01*
X125933333Y-55942857D01*
X125933333Y-56085714D01*
X125885714Y-56180952D01*
X125838095Y-56228571D01*
X125742857Y-56276190D01*
X125361904Y-56276190D01*
X126790476Y-56085714D02*
X126790476Y-56752380D01*
X126552380Y-55704761D02*
X126314285Y-56419047D01*
X126933333Y-56419047D01*
X123252380Y-57366666D02*
X122776190Y-57700000D01*
X123252380Y-57938095D02*
X122252380Y-57938095D01*
X122252380Y-57557142D01*
X122300000Y-57461904D01*
X122347619Y-57414285D01*
X122442857Y-57366666D01*
X122585714Y-57366666D01*
X122680952Y-57414285D01*
X122728571Y-57461904D01*
X122776190Y-57557142D01*
X122776190Y-57938095D01*
X122252380Y-57033333D02*
X122252380Y-56414285D01*
X122633333Y-56747619D01*
X122633333Y-56604761D01*
X122680952Y-56509523D01*
X122728571Y-56461904D01*
X122823809Y-56414285D01*
X123061904Y-56414285D01*
X123157142Y-56461904D01*
X123204761Y-56509523D01*
X123252380Y-56604761D01*
X123252380Y-56890476D01*
X123204761Y-56985714D01*
X123157142Y-57033333D01*
X131833333Y-54052380D02*
X131500000Y-53576190D01*
X131261904Y-54052380D02*
X131261904Y-53052380D01*
X131642857Y-53052380D01*
X131738095Y-53100000D01*
X131785714Y-53147619D01*
X131833333Y-53242857D01*
X131833333Y-53385714D01*
X131785714Y-53480952D01*
X131738095Y-53528571D01*
X131642857Y-53576190D01*
X131261904Y-53576190D01*
X132214285Y-53147619D02*
X132261904Y-53100000D01*
X132357142Y-53052380D01*
X132595238Y-53052380D01*
X132690476Y-53100000D01*
X132738095Y-53147619D01*
X132785714Y-53242857D01*
X132785714Y-53338095D01*
X132738095Y-53480952D01*
X132166666Y-54052380D01*
X132785714Y-54052380D01*
X122022380Y-60441666D02*
X121546190Y-60775000D01*
X122022380Y-61013095D02*
X121022380Y-61013095D01*
X121022380Y-60632142D01*
X121070000Y-60536904D01*
X121117619Y-60489285D01*
X121212857Y-60441666D01*
X121355714Y-60441666D01*
X121450952Y-60489285D01*
X121498571Y-60536904D01*
X121546190Y-60632142D01*
X121546190Y-61013095D01*
X122022380Y-59489285D02*
X122022380Y-60060714D01*
X122022380Y-59775000D02*
X121022380Y-59775000D01*
X121165238Y-59870238D01*
X121260476Y-59965476D01*
X121308095Y-60060714D01*
X125257142Y-65157142D02*
X125209523Y-65204761D01*
X125066666Y-65252380D01*
X124971428Y-65252380D01*
X124828571Y-65204761D01*
X124733333Y-65109523D01*
X124685714Y-65014285D01*
X124638095Y-64823809D01*
X124638095Y-64680952D01*
X124685714Y-64490476D01*
X124733333Y-64395238D01*
X124828571Y-64300000D01*
X124971428Y-64252380D01*
X125066666Y-64252380D01*
X125209523Y-64300000D01*
X125257142Y-64347619D01*
X126209523Y-65252380D02*
X125638095Y-65252380D01*
X125923809Y-65252380D02*
X125923809Y-64252380D01*
X125828571Y-64395238D01*
X125733333Y-64490476D01*
X125638095Y-64538095D01*
X127066666Y-64585714D02*
X127066666Y-65252380D01*
X126828571Y-64204761D02*
X126590476Y-64919047D01*
X127209523Y-64919047D01*
X138457142Y-50442857D02*
X138504761Y-50490476D01*
X138552380Y-50633333D01*
X138552380Y-50728571D01*
X138504761Y-50871428D01*
X138409523Y-50966666D01*
X138314285Y-51014285D01*
X138123809Y-51061904D01*
X137980952Y-51061904D01*
X137790476Y-51014285D01*
X137695238Y-50966666D01*
X137600000Y-50871428D01*
X137552380Y-50728571D01*
X137552380Y-50633333D01*
X137600000Y-50490476D01*
X137647619Y-50442857D01*
X138552380Y-49490476D02*
X138552380Y-50061904D01*
X138552380Y-49776190D02*
X137552380Y-49776190D01*
X137695238Y-49871428D01*
X137790476Y-49966666D01*
X137838095Y-50061904D01*
X137552380Y-49157142D02*
X137552380Y-48538095D01*
X137933333Y-48871428D01*
X137933333Y-48728571D01*
X137980952Y-48633333D01*
X138028571Y-48585714D01*
X138123809Y-48538095D01*
X138361904Y-48538095D01*
X138457142Y-48585714D01*
X138504761Y-48633333D01*
X138552380Y-48728571D01*
X138552380Y-49014285D01*
X138504761Y-49109523D01*
X138457142Y-49157142D01*
X129857142Y-55557142D02*
X129809523Y-55604761D01*
X129666666Y-55652380D01*
X129571428Y-55652380D01*
X129428571Y-55604761D01*
X129333333Y-55509523D01*
X129285714Y-55414285D01*
X129238095Y-55223809D01*
X129238095Y-55080952D01*
X129285714Y-54890476D01*
X129333333Y-54795238D01*
X129428571Y-54700000D01*
X129571428Y-54652380D01*
X129666666Y-54652380D01*
X129809523Y-54700000D01*
X129857142Y-54747619D01*
X130809523Y-55652380D02*
X130238095Y-55652380D01*
X130523809Y-55652380D02*
X130523809Y-54652380D01*
X130428571Y-54795238D01*
X130333333Y-54890476D01*
X130238095Y-54938095D01*
X131190476Y-54747619D02*
X131238095Y-54700000D01*
X131333333Y-54652380D01*
X131571428Y-54652380D01*
X131666666Y-54700000D01*
X131714285Y-54747619D01*
X131761904Y-54842857D01*
X131761904Y-54938095D01*
X131714285Y-55080952D01*
X131142857Y-55652380D01*
X131761904Y-55652380D01*
X126057142Y-55057142D02*
X126009523Y-55104761D01*
X125866666Y-55152380D01*
X125771428Y-55152380D01*
X125628571Y-55104761D01*
X125533333Y-55009523D01*
X125485714Y-54914285D01*
X125438095Y-54723809D01*
X125438095Y-54580952D01*
X125485714Y-54390476D01*
X125533333Y-54295238D01*
X125628571Y-54200000D01*
X125771428Y-54152380D01*
X125866666Y-54152380D01*
X126009523Y-54200000D01*
X126057142Y-54247619D01*
X127009523Y-55152380D02*
X126438095Y-55152380D01*
X126723809Y-55152380D02*
X126723809Y-54152380D01*
X126628571Y-54295238D01*
X126533333Y-54390476D01*
X126438095Y-54438095D01*
X127628571Y-54152380D02*
X127723809Y-54152380D01*
X127819047Y-54200000D01*
X127866666Y-54247619D01*
X127914285Y-54342857D01*
X127961904Y-54533333D01*
X127961904Y-54771428D01*
X127914285Y-54961904D01*
X127866666Y-55057142D01*
X127819047Y-55104761D01*
X127723809Y-55152380D01*
X127628571Y-55152380D01*
X127533333Y-55104761D01*
X127485714Y-55057142D01*
X127438095Y-54961904D01*
X127390476Y-54771428D01*
X127390476Y-54533333D01*
X127438095Y-54342857D01*
X127485714Y-54247619D01*
X127533333Y-54200000D01*
X127628571Y-54152380D01*
X121833333Y-53857142D02*
X121785714Y-53904761D01*
X121642857Y-53952380D01*
X121547619Y-53952380D01*
X121404761Y-53904761D01*
X121309523Y-53809523D01*
X121261904Y-53714285D01*
X121214285Y-53523809D01*
X121214285Y-53380952D01*
X121261904Y-53190476D01*
X121309523Y-53095238D01*
X121404761Y-53000000D01*
X121547619Y-52952380D01*
X121642857Y-52952380D01*
X121785714Y-53000000D01*
X121833333Y-53047619D01*
X122309523Y-53952380D02*
X122500000Y-53952380D01*
X122595238Y-53904761D01*
X122642857Y-53857142D01*
X122738095Y-53714285D01*
X122785714Y-53523809D01*
X122785714Y-53142857D01*
X122738095Y-53047619D01*
X122690476Y-53000000D01*
X122595238Y-52952380D01*
X122404761Y-52952380D01*
X122309523Y-53000000D01*
X122261904Y-53047619D01*
X122214285Y-53142857D01*
X122214285Y-53380952D01*
X122261904Y-53476190D01*
X122309523Y-53523809D01*
X122404761Y-53571428D01*
X122595238Y-53571428D01*
X122690476Y-53523809D01*
X122738095Y-53476190D01*
X122785714Y-53380952D01*
X118333333Y-58957142D02*
X118285714Y-59004761D01*
X118142857Y-59052380D01*
X118047619Y-59052380D01*
X117904761Y-59004761D01*
X117809523Y-58909523D01*
X117761904Y-58814285D01*
X117714285Y-58623809D01*
X117714285Y-58480952D01*
X117761904Y-58290476D01*
X117809523Y-58195238D01*
X117904761Y-58100000D01*
X118047619Y-58052380D01*
X118142857Y-58052380D01*
X118285714Y-58100000D01*
X118333333Y-58147619D01*
X119190476Y-58385714D02*
X119190476Y-59052380D01*
X118952380Y-58004761D02*
X118714285Y-58719047D01*
X119333333Y-58719047D01*
X119387142Y-62766666D02*
X119434761Y-62814285D01*
X119482380Y-62957142D01*
X119482380Y-63052380D01*
X119434761Y-63195238D01*
X119339523Y-63290476D01*
X119244285Y-63338095D01*
X119053809Y-63385714D01*
X118910952Y-63385714D01*
X118720476Y-63338095D01*
X118625238Y-63290476D01*
X118530000Y-63195238D01*
X118482380Y-63052380D01*
X118482380Y-62957142D01*
X118530000Y-62814285D01*
X118577619Y-62766666D01*
X118482380Y-62433333D02*
X118482380Y-61814285D01*
X118863333Y-62147619D01*
X118863333Y-62004761D01*
X118910952Y-61909523D01*
X118958571Y-61861904D01*
X119053809Y-61814285D01*
X119291904Y-61814285D01*
X119387142Y-61861904D01*
X119434761Y-61909523D01*
X119482380Y-62004761D01*
X119482380Y-62290476D01*
X119434761Y-62385714D01*
X119387142Y-62433333D01*
X108833333Y-52887142D02*
X108785714Y-52934761D01*
X108642857Y-52982380D01*
X108547619Y-52982380D01*
X108404761Y-52934761D01*
X108309523Y-52839523D01*
X108261904Y-52744285D01*
X108214285Y-52553809D01*
X108214285Y-52410952D01*
X108261904Y-52220476D01*
X108309523Y-52125238D01*
X108404761Y-52030000D01*
X108547619Y-51982380D01*
X108642857Y-51982380D01*
X108785714Y-52030000D01*
X108833333Y-52077619D01*
X109214285Y-52077619D02*
X109261904Y-52030000D01*
X109357142Y-51982380D01*
X109595238Y-51982380D01*
X109690476Y-52030000D01*
X109738095Y-52077619D01*
X109785714Y-52172857D01*
X109785714Y-52268095D01*
X109738095Y-52410952D01*
X109166666Y-52982380D01*
X109785714Y-52982380D01*
X108833333Y-48057142D02*
X108785714Y-48104761D01*
X108642857Y-48152380D01*
X108547619Y-48152380D01*
X108404761Y-48104761D01*
X108309523Y-48009523D01*
X108261904Y-47914285D01*
X108214285Y-47723809D01*
X108214285Y-47580952D01*
X108261904Y-47390476D01*
X108309523Y-47295238D01*
X108404761Y-47200000D01*
X108547619Y-47152380D01*
X108642857Y-47152380D01*
X108785714Y-47200000D01*
X108833333Y-47247619D01*
X109785714Y-48152380D02*
X109214285Y-48152380D01*
X109500000Y-48152380D02*
X109500000Y-47152380D01*
X109404761Y-47295238D01*
X109309523Y-47390476D01*
X109214285Y-47438095D01*
X104066666Y-57052380D02*
X104066666Y-57766666D01*
X104019047Y-57909523D01*
X103923809Y-58004761D01*
X103780952Y-58052380D01*
X103685714Y-58052380D01*
X104447619Y-57052380D02*
X105114285Y-57052380D01*
X104685714Y-58052380D01*
X108452380Y-55142857D02*
X108452380Y-55619047D01*
X107452380Y-55619047D01*
X108404761Y-54857142D02*
X108452380Y-54714285D01*
X108452380Y-54476190D01*
X108404761Y-54380952D01*
X108357142Y-54333333D01*
X108261904Y-54285714D01*
X108166666Y-54285714D01*
X108071428Y-54333333D01*
X108023809Y-54380952D01*
X107976190Y-54476190D01*
X107928571Y-54666666D01*
X107880952Y-54761904D01*
X107833333Y-54809523D01*
X107738095Y-54857142D01*
X107642857Y-54857142D01*
X107547619Y-54809523D01*
X107500000Y-54761904D01*
X107452380Y-54666666D01*
X107452380Y-54428571D01*
X107500000Y-54285714D01*
X108452380Y-53333333D02*
X108452380Y-53904761D01*
X108452380Y-53619047D02*
X107452380Y-53619047D01*
X107595238Y-53714285D01*
X107690476Y-53809523D01*
X107738095Y-53904761D01*
X132382380Y-64942857D02*
X132382380Y-65419047D01*
X131382380Y-65419047D01*
X132334761Y-64657142D02*
X132382380Y-64514285D01*
X132382380Y-64276190D01*
X132334761Y-64180952D01*
X132287142Y-64133333D01*
X132191904Y-64085714D01*
X132096666Y-64085714D01*
X132001428Y-64133333D01*
X131953809Y-64180952D01*
X131906190Y-64276190D01*
X131858571Y-64466666D01*
X131810952Y-64561904D01*
X131763333Y-64609523D01*
X131668095Y-64657142D01*
X131572857Y-64657142D01*
X131477619Y-64609523D01*
X131430000Y-64561904D01*
X131382380Y-64466666D01*
X131382380Y-64228571D01*
X131430000Y-64085714D01*
X131477619Y-63704761D02*
X131430000Y-63657142D01*
X131382380Y-63561904D01*
X131382380Y-63323809D01*
X131430000Y-63228571D01*
X131477619Y-63180952D01*
X131572857Y-63133333D01*
X131668095Y-63133333D01*
X131810952Y-63180952D01*
X132382380Y-63752380D01*
X132382380Y-63133333D01*
X111038095Y-47352380D02*
X111038095Y-48161904D01*
X111085714Y-48257142D01*
X111133333Y-48304761D01*
X111228571Y-48352380D01*
X111419047Y-48352380D01*
X111514285Y-48304761D01*
X111561904Y-48257142D01*
X111609523Y-48161904D01*
X111609523Y-47352380D01*
X112609523Y-48352380D02*
X112038095Y-48352380D01*
X112323809Y-48352380D02*
X112323809Y-47352380D01*
X112228571Y-47495238D01*
X112133333Y-47590476D01*
X112038095Y-47638095D01*
X132738095Y-61452380D02*
X132738095Y-62261904D01*
X132785714Y-62357142D01*
X132833333Y-62404761D01*
X132928571Y-62452380D01*
X133119047Y-62452380D01*
X133214285Y-62404761D01*
X133261904Y-62357142D01*
X133309523Y-62261904D01*
X133309523Y-61452380D01*
X133738095Y-61547619D02*
X133785714Y-61500000D01*
X133880952Y-61452380D01*
X134119047Y-61452380D01*
X134214285Y-61500000D01*
X134261904Y-61547619D01*
X134309523Y-61642857D01*
X134309523Y-61738095D01*
X134261904Y-61880952D01*
X133690476Y-62452380D01*
X134309523Y-62452380D01*
X135438095Y-49852380D02*
X135438095Y-50661904D01*
X135485714Y-50757142D01*
X135533333Y-50804761D01*
X135628571Y-50852380D01*
X135819047Y-50852380D01*
X135914285Y-50804761D01*
X135961904Y-50757142D01*
X136009523Y-50661904D01*
X136009523Y-49852380D01*
X136390476Y-49852380D02*
X137009523Y-49852380D01*
X136676190Y-50233333D01*
X136819047Y-50233333D01*
X136914285Y-50280952D01*
X136961904Y-50328571D01*
X137009523Y-50423809D01*
X137009523Y-50661904D01*
X136961904Y-50757142D01*
X136914285Y-50804761D01*
X136819047Y-50852380D01*
X136533333Y-50852380D01*
X136438095Y-50804761D01*
X136390476Y-50757142D01*
X117052380Y-60861904D02*
X117861904Y-60861904D01*
X117957142Y-60814285D01*
X118004761Y-60766666D01*
X118052380Y-60671428D01*
X118052380Y-60480952D01*
X118004761Y-60385714D01*
X117957142Y-60338095D01*
X117861904Y-60290476D01*
X117052380Y-60290476D01*
X117385714Y-59385714D02*
X118052380Y-59385714D01*
X117004761Y-59623809D02*
X117719047Y-59861904D01*
X117719047Y-59242857D01*
M02*
