G04 #@! TF.GenerationSoftware,KiCad,Pcbnew,(5.1.5)-3*
G04 #@! TF.CreationDate,2020-07-02T11:34:45+10:00*
G04 #@! TF.ProjectId,Heterodyne,48657465-726f-4647-996e-652e6b696361,rev?*
G04 #@! TF.SameCoordinates,Original*
G04 #@! TF.FileFunction,Legend,Bot*
G04 #@! TF.FilePolarity,Positive*
%FSLAX46Y46*%
G04 Gerber Fmt 4.6, Leading zero omitted, Abs format (unit mm)*
G04 Created by KiCad (PCBNEW (5.1.5)-3) date 2020-07-02 11:34:45*
%MOMM*%
%LPD*%
G04 APERTURE LIST*
%ADD10C,0.125000*%
%ADD11C,0.200000*%
%ADD12C,0.120000*%
%ADD13C,0.150000*%
G04 APERTURE END LIST*
D10*
X120741071Y-49211904D02*
X120764880Y-49188095D01*
X120788690Y-49116666D01*
X120788690Y-49069047D01*
X120764880Y-48997619D01*
X120717261Y-48950000D01*
X120669642Y-48926190D01*
X120574404Y-48902380D01*
X120502976Y-48902380D01*
X120407738Y-48926190D01*
X120360119Y-48950000D01*
X120312500Y-48997619D01*
X120288690Y-49069047D01*
X120288690Y-49116666D01*
X120312500Y-49188095D01*
X120336309Y-49211904D01*
X120788690Y-49664285D02*
X120788690Y-49426190D01*
X120288690Y-49426190D01*
X120288690Y-49926190D02*
X120288690Y-50021428D01*
X120312500Y-50069047D01*
X120360119Y-50116666D01*
X120455357Y-50140476D01*
X120622023Y-50140476D01*
X120717261Y-50116666D01*
X120764880Y-50069047D01*
X120788690Y-50021428D01*
X120788690Y-49926190D01*
X120764880Y-49878571D01*
X120717261Y-49830952D01*
X120622023Y-49807142D01*
X120455357Y-49807142D01*
X120360119Y-49830952D01*
X120312500Y-49878571D01*
X120288690Y-49926190D01*
X120764880Y-50330952D02*
X120788690Y-50402380D01*
X120788690Y-50521428D01*
X120764880Y-50569047D01*
X120741071Y-50592857D01*
X120693452Y-50616666D01*
X120645833Y-50616666D01*
X120598214Y-50592857D01*
X120574404Y-50569047D01*
X120550595Y-50521428D01*
X120526785Y-50426190D01*
X120502976Y-50378571D01*
X120479166Y-50354761D01*
X120431547Y-50330952D01*
X120383928Y-50330952D01*
X120336309Y-50354761D01*
X120312500Y-50378571D01*
X120288690Y-50426190D01*
X120288690Y-50545238D01*
X120312500Y-50616666D01*
X120526785Y-50830952D02*
X120526785Y-50997619D01*
X120788690Y-51069047D02*
X120788690Y-50830952D01*
X120288690Y-50830952D01*
X120288690Y-51069047D01*
X120288690Y-51616666D02*
X120288690Y-51926190D01*
X120479166Y-51759523D01*
X120479166Y-51830952D01*
X120502976Y-51878571D01*
X120526785Y-51902380D01*
X120574404Y-51926190D01*
X120693452Y-51926190D01*
X120741071Y-51902380D01*
X120764880Y-51878571D01*
X120788690Y-51830952D01*
X120788690Y-51688095D01*
X120764880Y-51640476D01*
X120741071Y-51616666D01*
X120645833Y-52497619D02*
X120645833Y-52735714D01*
X120788690Y-52450000D02*
X120288690Y-52616666D01*
X120788690Y-52783333D01*
X120288690Y-52878571D02*
X120288690Y-53164285D01*
X120788690Y-53021428D02*
X120288690Y-53021428D01*
X121663690Y-48938095D02*
X121163690Y-48938095D01*
X121520833Y-49104761D01*
X121163690Y-49271428D01*
X121663690Y-49271428D01*
X121520833Y-49485714D02*
X121520833Y-49723809D01*
X121663690Y-49438095D02*
X121163690Y-49604761D01*
X121663690Y-49771428D01*
X121663690Y-49938095D02*
X121163690Y-49938095D01*
X121663690Y-50223809D01*
X121163690Y-50223809D01*
X121163690Y-50461904D02*
X121568452Y-50461904D01*
X121616071Y-50485714D01*
X121639880Y-50509523D01*
X121663690Y-50557142D01*
X121663690Y-50652380D01*
X121639880Y-50700000D01*
X121616071Y-50723809D01*
X121568452Y-50747619D01*
X121163690Y-50747619D01*
X121401785Y-51152380D02*
X121401785Y-50985714D01*
X121663690Y-50985714D02*
X121163690Y-50985714D01*
X121163690Y-51223809D01*
X121520833Y-51390476D02*
X121520833Y-51628571D01*
X121663690Y-51342857D02*
X121163690Y-51509523D01*
X121663690Y-51676190D01*
X121163690Y-51771428D02*
X121163690Y-52057142D01*
X121663690Y-51914285D02*
X121163690Y-51914285D01*
X121163690Y-52223809D02*
X121568452Y-52223809D01*
X121616071Y-52247619D01*
X121639880Y-52271428D01*
X121663690Y-52319047D01*
X121663690Y-52414285D01*
X121639880Y-52461904D01*
X121616071Y-52485714D01*
X121568452Y-52509523D01*
X121163690Y-52509523D01*
X121663690Y-53033333D02*
X121425595Y-52866666D01*
X121663690Y-52747619D02*
X121163690Y-52747619D01*
X121163690Y-52938095D01*
X121187500Y-52985714D01*
X121211309Y-53009523D01*
X121258928Y-53033333D01*
X121330357Y-53033333D01*
X121377976Y-53009523D01*
X121401785Y-52985714D01*
X121425595Y-52938095D01*
X121425595Y-52747619D01*
X121401785Y-53247619D02*
X121401785Y-53414285D01*
X121663690Y-53485714D02*
X121663690Y-53247619D01*
X121163690Y-53247619D01*
X121163690Y-53485714D01*
D11*
X108171428Y-64948571D02*
X108123809Y-64805714D01*
X108076190Y-64758095D01*
X107980952Y-64710476D01*
X107838095Y-64710476D01*
X107742857Y-64758095D01*
X107695238Y-64805714D01*
X107647619Y-64900952D01*
X107647619Y-65281904D01*
X108647619Y-65281904D01*
X108647619Y-64948571D01*
X108600000Y-64853333D01*
X108552380Y-64805714D01*
X108457142Y-64758095D01*
X108361904Y-64758095D01*
X108266666Y-64805714D01*
X108219047Y-64853333D01*
X108171428Y-64948571D01*
X108171428Y-65281904D01*
X107647619Y-64139047D02*
X107695238Y-64234285D01*
X107742857Y-64281904D01*
X107838095Y-64329523D01*
X108123809Y-64329523D01*
X108219047Y-64281904D01*
X108266666Y-64234285D01*
X108314285Y-64139047D01*
X108314285Y-63996190D01*
X108266666Y-63900952D01*
X108219047Y-63853333D01*
X108123809Y-63805714D01*
X107838095Y-63805714D01*
X107742857Y-63853333D01*
X107695238Y-63900952D01*
X107647619Y-63996190D01*
X107647619Y-64139047D01*
X107695238Y-63424761D02*
X107647619Y-63281904D01*
X107647619Y-63043809D01*
X107695238Y-62948571D01*
X107742857Y-62900952D01*
X107838095Y-62853333D01*
X107933333Y-62853333D01*
X108028571Y-62900952D01*
X108076190Y-62948571D01*
X108123809Y-63043809D01*
X108171428Y-63234285D01*
X108219047Y-63329523D01*
X108266666Y-63377142D01*
X108361904Y-63424761D01*
X108457142Y-63424761D01*
X108552380Y-63377142D01*
X108600000Y-63329523D01*
X108647619Y-63234285D01*
X108647619Y-62996190D01*
X108600000Y-62853333D01*
X107647619Y-61948571D02*
X107647619Y-62424761D01*
X108647619Y-62424761D01*
X106947619Y-65424761D02*
X105947619Y-65091428D01*
X106947619Y-64758095D01*
X105995238Y-64043809D02*
X105947619Y-64139047D01*
X105947619Y-64329523D01*
X105995238Y-64424761D01*
X106090476Y-64472380D01*
X106471428Y-64472380D01*
X106566666Y-64424761D01*
X106614285Y-64329523D01*
X106614285Y-64139047D01*
X106566666Y-64043809D01*
X106471428Y-63996190D01*
X106376190Y-63996190D01*
X106280952Y-64472380D01*
X105947619Y-63424761D02*
X105995238Y-63520000D01*
X106090476Y-63567619D01*
X106947619Y-63567619D01*
X105947619Y-62900952D02*
X105995238Y-62996190D01*
X106042857Y-63043809D01*
X106138095Y-63091428D01*
X106423809Y-63091428D01*
X106519047Y-63043809D01*
X106566666Y-62996190D01*
X106614285Y-62900952D01*
X106614285Y-62758095D01*
X106566666Y-62662857D01*
X106519047Y-62615238D01*
X106423809Y-62567619D01*
X106138095Y-62567619D01*
X106042857Y-62615238D01*
X105995238Y-62662857D01*
X105947619Y-62758095D01*
X105947619Y-62900952D01*
X105995238Y-61710476D02*
X105947619Y-61805714D01*
X105947619Y-61996190D01*
X105995238Y-62091428D01*
X106042857Y-62139047D01*
X106138095Y-62186666D01*
X106423809Y-62186666D01*
X106519047Y-62139047D01*
X106566666Y-62091428D01*
X106614285Y-61996190D01*
X106614285Y-61805714D01*
X106566666Y-61710476D01*
X105947619Y-61281904D02*
X106614285Y-61281904D01*
X106947619Y-61281904D02*
X106900000Y-61329523D01*
X106852380Y-61281904D01*
X106900000Y-61234285D01*
X106947619Y-61281904D01*
X106852380Y-61281904D01*
X106614285Y-60948571D02*
X106614285Y-60567619D01*
X106947619Y-60805714D02*
X106090476Y-60805714D01*
X105995238Y-60758095D01*
X105947619Y-60662857D01*
X105947619Y-60567619D01*
X106614285Y-60329523D02*
X105947619Y-60091428D01*
X106614285Y-59853333D02*
X105947619Y-60091428D01*
X105709523Y-60186666D01*
X105661904Y-60234285D01*
X105614285Y-60329523D01*
X104247619Y-65281904D02*
X104914285Y-65281904D01*
X104723809Y-65281904D02*
X104819047Y-65234285D01*
X104866666Y-65186666D01*
X104914285Y-65091428D01*
X104914285Y-64996190D01*
X104295238Y-64281904D02*
X104247619Y-64377142D01*
X104247619Y-64567619D01*
X104295238Y-64662857D01*
X104390476Y-64710476D01*
X104771428Y-64710476D01*
X104866666Y-64662857D01*
X104914285Y-64567619D01*
X104914285Y-64377142D01*
X104866666Y-64281904D01*
X104771428Y-64234285D01*
X104676190Y-64234285D01*
X104580952Y-64710476D01*
X104914285Y-63900952D02*
X104247619Y-63662857D01*
X104914285Y-63424761D01*
X105247619Y-62091428D02*
X105247619Y-61996190D01*
X105200000Y-61900952D01*
X105152380Y-61853333D01*
X105057142Y-61805714D01*
X104866666Y-61758095D01*
X104628571Y-61758095D01*
X104438095Y-61805714D01*
X104342857Y-61853333D01*
X104295238Y-61900952D01*
X104247619Y-61996190D01*
X104247619Y-62091428D01*
X104295238Y-62186666D01*
X104342857Y-62234285D01*
X104438095Y-62281904D01*
X104628571Y-62329523D01*
X104866666Y-62329523D01*
X105057142Y-62281904D01*
X105152380Y-62234285D01*
X105200000Y-62186666D01*
X105247619Y-62091428D01*
X104342857Y-61329523D02*
X104295238Y-61281904D01*
X104247619Y-61329523D01*
X104295238Y-61377142D01*
X104342857Y-61329523D01*
X104247619Y-61329523D01*
X104247619Y-60329523D02*
X104247619Y-60900952D01*
X104247619Y-60615238D02*
X105247619Y-60615238D01*
X105104761Y-60710476D01*
X105009523Y-60805714D01*
X104961904Y-60900952D01*
X104342857Y-59900952D02*
X104295238Y-59853333D01*
X104247619Y-59900952D01*
X104295238Y-59948571D01*
X104342857Y-59900952D01*
X104247619Y-59900952D01*
X105247619Y-59520000D02*
X105247619Y-58900952D01*
X104866666Y-59234285D01*
X104866666Y-59091428D01*
X104819047Y-58996190D01*
X104771428Y-58948571D01*
X104676190Y-58900952D01*
X104438095Y-58900952D01*
X104342857Y-58948571D01*
X104295238Y-58996190D01*
X104247619Y-59091428D01*
X104247619Y-59377142D01*
X104295238Y-59472380D01*
X104342857Y-59520000D01*
D12*
X115803922Y-52890000D02*
X116321078Y-52890000D01*
X115803922Y-54310000D02*
X116321078Y-54310000D01*
X114950000Y-51600000D02*
G75*
G03X115650000Y-52300000I700000J0D01*
G01*
X115650000Y-50300000D02*
G75*
G03X114950000Y-51000000I0J-700000D01*
G01*
X119050000Y-51000000D02*
G75*
G03X118350000Y-50300000I-700000J0D01*
G01*
X118350000Y-52300000D02*
G75*
G03X119050000Y-51600000I0J700000D01*
G01*
X115600000Y-52300000D02*
X118400000Y-52300000D01*
X119050000Y-51600000D02*
X119050000Y-51000000D01*
X118400000Y-50300000D02*
X115600000Y-50300000D01*
X114950000Y-51000000D02*
X114950000Y-51600000D01*
X121010000Y-61962221D02*
X121010000Y-62287779D01*
X119990000Y-61962221D02*
X119990000Y-62287779D01*
X126805555Y-52173196D02*
X127035760Y-51942991D01*
X127526804Y-52894445D02*
X127757009Y-52664240D01*
X137390000Y-60337779D02*
X137390000Y-60012221D01*
X138410000Y-60337779D02*
X138410000Y-60012221D01*
X136087779Y-55410000D02*
X135762221Y-55410000D01*
X136087779Y-54390000D02*
X135762221Y-54390000D01*
X123603922Y-51890000D02*
X124121078Y-51890000D01*
X123603922Y-53310000D02*
X124121078Y-53310000D01*
D13*
X130725000Y-56575000D02*
X130725000Y-56800000D01*
X123475000Y-56575000D02*
X123475000Y-56900000D01*
X123475000Y-63825000D02*
X123475000Y-63500000D01*
X130725000Y-63825000D02*
X130725000Y-63500000D01*
X130725000Y-56575000D02*
X130400000Y-56575000D01*
X130725000Y-63825000D02*
X130400000Y-63825000D01*
X123475000Y-63825000D02*
X123800000Y-63825000D01*
X123475000Y-56575000D02*
X123800000Y-56575000D01*
X130725000Y-56800000D02*
X132150000Y-56800000D01*
D12*
X133300000Y-62050000D02*
X133300000Y-56300000D01*
X133300000Y-56300000D02*
X136900000Y-56300000D01*
X136900000Y-56300000D02*
X136900000Y-62050000D01*
D13*
X116705357Y-55607142D02*
X116752976Y-55654761D01*
X116895833Y-55702380D01*
X116991071Y-55702380D01*
X117133928Y-55654761D01*
X117229166Y-55559523D01*
X117276785Y-55464285D01*
X117324404Y-55273809D01*
X117324404Y-55130952D01*
X117276785Y-54940476D01*
X117229166Y-54845238D01*
X117133928Y-54750000D01*
X116991071Y-54702380D01*
X116895833Y-54702380D01*
X116752976Y-54750000D01*
X116705357Y-54797619D01*
X115752976Y-55702380D02*
X116324404Y-55702380D01*
X116038690Y-55702380D02*
X116038690Y-54702380D01*
X116133928Y-54845238D01*
X116229166Y-54940476D01*
X116324404Y-54988095D01*
X114895833Y-54702380D02*
X115086309Y-54702380D01*
X115181547Y-54750000D01*
X115229166Y-54797619D01*
X115324404Y-54940476D01*
X115372023Y-55130952D01*
X115372023Y-55511904D01*
X115324404Y-55607142D01*
X115276785Y-55654761D01*
X115181547Y-55702380D01*
X114991071Y-55702380D01*
X114895833Y-55654761D01*
X114848214Y-55607142D01*
X114800595Y-55511904D01*
X114800595Y-55273809D01*
X114848214Y-55178571D01*
X114895833Y-55130952D01*
X114991071Y-55083333D01*
X115181547Y-55083333D01*
X115276785Y-55130952D01*
X115324404Y-55178571D01*
X115372023Y-55273809D01*
X117833333Y-48952380D02*
X117833333Y-49666666D01*
X117880952Y-49809523D01*
X117976190Y-49904761D01*
X118119047Y-49952380D01*
X118214285Y-49952380D01*
X117357142Y-49952380D02*
X117357142Y-48952380D01*
X116976190Y-48952380D01*
X116880952Y-49000000D01*
X116833333Y-49047619D01*
X116785714Y-49142857D01*
X116785714Y-49285714D01*
X116833333Y-49380952D01*
X116880952Y-49428571D01*
X116976190Y-49476190D01*
X117357142Y-49476190D01*
X115833333Y-49952380D02*
X116404761Y-49952380D01*
X116119047Y-49952380D02*
X116119047Y-48952380D01*
X116214285Y-49095238D01*
X116309523Y-49190476D01*
X116404761Y-49238095D01*
X114114285Y-51752380D02*
X114685714Y-51752380D01*
X114400000Y-51752380D02*
X114400000Y-50752380D01*
X114495238Y-50895238D01*
X114590476Y-50990476D01*
X114685714Y-51038095D01*
X119933333Y-50752380D02*
X119314285Y-50752380D01*
X119647619Y-51133333D01*
X119504761Y-51133333D01*
X119409523Y-51180952D01*
X119361904Y-51228571D01*
X119314285Y-51323809D01*
X119314285Y-51561904D01*
X119361904Y-51657142D01*
X119409523Y-51704761D01*
X119504761Y-51752380D01*
X119790476Y-51752380D01*
X119885714Y-51704761D01*
X119933333Y-51657142D01*
X119522380Y-61482142D02*
X119046190Y-61148809D01*
X119522380Y-60910714D02*
X118522380Y-60910714D01*
X118522380Y-61291666D01*
X118570000Y-61386904D01*
X118617619Y-61434523D01*
X118712857Y-61482142D01*
X118855714Y-61482142D01*
X118950952Y-61434523D01*
X118998571Y-61386904D01*
X119046190Y-61291666D01*
X119046190Y-60910714D01*
X119522380Y-62434523D02*
X119522380Y-61863095D01*
X119522380Y-62148809D02*
X118522380Y-62148809D01*
X118665238Y-62053571D01*
X118760476Y-61958333D01*
X118808095Y-61863095D01*
X119522380Y-63386904D02*
X119522380Y-62815476D01*
X119522380Y-63101190D02*
X118522380Y-63101190D01*
X118665238Y-63005952D01*
X118760476Y-62910714D01*
X118808095Y-62815476D01*
X128730177Y-53631911D02*
X128629162Y-53059491D01*
X129134238Y-53227850D02*
X128427132Y-52520743D01*
X128157757Y-52790117D01*
X128124086Y-52891132D01*
X128124086Y-52958476D01*
X128157757Y-53059491D01*
X128258773Y-53160506D01*
X128359788Y-53194178D01*
X128427132Y-53194178D01*
X128528147Y-53160506D01*
X128797521Y-52891132D01*
X127922055Y-53631911D02*
X127955727Y-53530896D01*
X127955727Y-53463552D01*
X127922055Y-53362537D01*
X127888383Y-53328865D01*
X127787368Y-53295193D01*
X127720025Y-53295193D01*
X127619009Y-53328865D01*
X127484322Y-53463552D01*
X127450651Y-53564568D01*
X127450651Y-53631911D01*
X127484322Y-53732926D01*
X127517994Y-53766598D01*
X127619009Y-53800270D01*
X127686353Y-53800270D01*
X127787368Y-53766598D01*
X127922055Y-53631911D01*
X128023070Y-53598239D01*
X128090414Y-53598239D01*
X128191429Y-53631911D01*
X128326116Y-53766598D01*
X128359788Y-53867613D01*
X128359788Y-53934957D01*
X128326116Y-54035972D01*
X128191429Y-54170659D01*
X128090414Y-54204331D01*
X128023070Y-54204331D01*
X127922055Y-54170659D01*
X127787368Y-54035972D01*
X127753696Y-53934957D01*
X127753696Y-53867613D01*
X127787368Y-53766598D01*
X138116666Y-62707142D02*
X138164285Y-62754761D01*
X138307142Y-62802380D01*
X138402380Y-62802380D01*
X138545238Y-62754761D01*
X138640476Y-62659523D01*
X138688095Y-62564285D01*
X138735714Y-62373809D01*
X138735714Y-62230952D01*
X138688095Y-62040476D01*
X138640476Y-61945238D01*
X138545238Y-61850000D01*
X138402380Y-61802380D01*
X138307142Y-61802380D01*
X138164285Y-61850000D01*
X138116666Y-61897619D01*
X137259523Y-61802380D02*
X137450000Y-61802380D01*
X137545238Y-61850000D01*
X137592857Y-61897619D01*
X137688095Y-62040476D01*
X137735714Y-62230952D01*
X137735714Y-62611904D01*
X137688095Y-62707142D01*
X137640476Y-62754761D01*
X137545238Y-62802380D01*
X137354761Y-62802380D01*
X137259523Y-62754761D01*
X137211904Y-62707142D01*
X137164285Y-62611904D01*
X137164285Y-62373809D01*
X137211904Y-62278571D01*
X137259523Y-62230952D01*
X137354761Y-62183333D01*
X137545238Y-62183333D01*
X137640476Y-62230952D01*
X137688095Y-62278571D01*
X137735714Y-62373809D01*
X136091666Y-53827142D02*
X136139285Y-53874761D01*
X136282142Y-53922380D01*
X136377380Y-53922380D01*
X136520238Y-53874761D01*
X136615476Y-53779523D01*
X136663095Y-53684285D01*
X136710714Y-53493809D01*
X136710714Y-53350952D01*
X136663095Y-53160476D01*
X136615476Y-53065238D01*
X136520238Y-52970000D01*
X136377380Y-52922380D01*
X136282142Y-52922380D01*
X136139285Y-52970000D01*
X136091666Y-53017619D01*
X135186904Y-52922380D02*
X135663095Y-52922380D01*
X135710714Y-53398571D01*
X135663095Y-53350952D01*
X135567857Y-53303333D01*
X135329761Y-53303333D01*
X135234523Y-53350952D01*
X135186904Y-53398571D01*
X135139285Y-53493809D01*
X135139285Y-53731904D01*
X135186904Y-53827142D01*
X135234523Y-53874761D01*
X135329761Y-53922380D01*
X135567857Y-53922380D01*
X135663095Y-53874761D01*
X135710714Y-53827142D01*
X124505357Y-54607142D02*
X124552976Y-54654761D01*
X124695833Y-54702380D01*
X124791071Y-54702380D01*
X124933928Y-54654761D01*
X125029166Y-54559523D01*
X125076785Y-54464285D01*
X125124404Y-54273809D01*
X125124404Y-54130952D01*
X125076785Y-53940476D01*
X125029166Y-53845238D01*
X124933928Y-53750000D01*
X124791071Y-53702380D01*
X124695833Y-53702380D01*
X124552976Y-53750000D01*
X124505357Y-53797619D01*
X123552976Y-54702380D02*
X124124404Y-54702380D01*
X123838690Y-54702380D02*
X123838690Y-53702380D01*
X123933928Y-53845238D01*
X124029166Y-53940476D01*
X124124404Y-53988095D01*
X122600595Y-54702380D02*
X123172023Y-54702380D01*
X122886309Y-54702380D02*
X122886309Y-53702380D01*
X122981547Y-53845238D01*
X123076785Y-53940476D01*
X123172023Y-53988095D01*
X132061904Y-55352380D02*
X132061904Y-56161904D01*
X132014285Y-56257142D01*
X131966666Y-56304761D01*
X131871428Y-56352380D01*
X131680952Y-56352380D01*
X131585714Y-56304761D01*
X131538095Y-56257142D01*
X131490476Y-56161904D01*
X131490476Y-55352380D01*
X130538095Y-55352380D02*
X131014285Y-55352380D01*
X131061904Y-55828571D01*
X131014285Y-55780952D01*
X130919047Y-55733333D01*
X130680952Y-55733333D01*
X130585714Y-55780952D01*
X130538095Y-55828571D01*
X130490476Y-55923809D01*
X130490476Y-56161904D01*
X130538095Y-56257142D01*
X130585714Y-56304761D01*
X130680952Y-56352380D01*
X130919047Y-56352380D01*
X131014285Y-56304761D01*
X131061904Y-56257142D01*
X133726190Y-55476190D02*
X133726190Y-55952380D01*
X134059523Y-54952380D02*
X133726190Y-55476190D01*
X133392857Y-54952380D01*
X132535714Y-55952380D02*
X133107142Y-55952380D01*
X132821428Y-55952380D02*
X132821428Y-54952380D01*
X132916666Y-55095238D01*
X133011904Y-55190476D01*
X133107142Y-55238095D01*
M02*
