G04 #@! TF.GenerationSoftware,KiCad,Pcbnew,(5.1.5)-3*
G04 #@! TF.CreationDate,2020-02-18T08:36:51+11:00*
G04 #@! TF.ProjectId,Heterodyne,48657465-726f-4647-996e-652e6b696361,rev?*
G04 #@! TF.SameCoordinates,Original*
G04 #@! TF.FileFunction,Paste,Top*
G04 #@! TF.FilePolarity,Positive*
%FSLAX46Y46*%
G04 Gerber Fmt 4.6, Leading zero omitted, Abs format (unit mm)*
G04 Created by KiCad (PCBNEW (5.1.5)-3) date 2020-02-18 08:36:51*
%MOMM*%
%LPD*%
G04 APERTURE LIST*
%ADD10C,0.100000*%
%ADD11R,0.450000X1.500000*%
G04 APERTURE END LIST*
D10*
G36*
X126435779Y-51526144D02*
G01*
X126458834Y-51529563D01*
X126481443Y-51535227D01*
X126503387Y-51543079D01*
X126524457Y-51553044D01*
X126544448Y-51565026D01*
X126563168Y-51578910D01*
X126580438Y-51594562D01*
X126596090Y-51611832D01*
X126609974Y-51630552D01*
X126621956Y-51650543D01*
X126631921Y-51671613D01*
X126639773Y-51693557D01*
X126645437Y-51716166D01*
X126648856Y-51739221D01*
X126650000Y-51762500D01*
X126650000Y-52237500D01*
X126648856Y-52260779D01*
X126645437Y-52283834D01*
X126639773Y-52306443D01*
X126631921Y-52328387D01*
X126621956Y-52349457D01*
X126609974Y-52369448D01*
X126596090Y-52388168D01*
X126580438Y-52405438D01*
X126563168Y-52421090D01*
X126544448Y-52434974D01*
X126524457Y-52446956D01*
X126503387Y-52456921D01*
X126481443Y-52464773D01*
X126458834Y-52470437D01*
X126435779Y-52473856D01*
X126412500Y-52475000D01*
X125837500Y-52475000D01*
X125814221Y-52473856D01*
X125791166Y-52470437D01*
X125768557Y-52464773D01*
X125746613Y-52456921D01*
X125725543Y-52446956D01*
X125705552Y-52434974D01*
X125686832Y-52421090D01*
X125669562Y-52405438D01*
X125653910Y-52388168D01*
X125640026Y-52369448D01*
X125628044Y-52349457D01*
X125618079Y-52328387D01*
X125610227Y-52306443D01*
X125604563Y-52283834D01*
X125601144Y-52260779D01*
X125600000Y-52237500D01*
X125600000Y-51762500D01*
X125601144Y-51739221D01*
X125604563Y-51716166D01*
X125610227Y-51693557D01*
X125618079Y-51671613D01*
X125628044Y-51650543D01*
X125640026Y-51630552D01*
X125653910Y-51611832D01*
X125669562Y-51594562D01*
X125686832Y-51578910D01*
X125705552Y-51565026D01*
X125725543Y-51553044D01*
X125746613Y-51543079D01*
X125768557Y-51535227D01*
X125791166Y-51529563D01*
X125814221Y-51526144D01*
X125837500Y-51525000D01*
X126412500Y-51525000D01*
X126435779Y-51526144D01*
G37*
G36*
X128185779Y-51526144D02*
G01*
X128208834Y-51529563D01*
X128231443Y-51535227D01*
X128253387Y-51543079D01*
X128274457Y-51553044D01*
X128294448Y-51565026D01*
X128313168Y-51578910D01*
X128330438Y-51594562D01*
X128346090Y-51611832D01*
X128359974Y-51630552D01*
X128371956Y-51650543D01*
X128381921Y-51671613D01*
X128389773Y-51693557D01*
X128395437Y-51716166D01*
X128398856Y-51739221D01*
X128400000Y-51762500D01*
X128400000Y-52237500D01*
X128398856Y-52260779D01*
X128395437Y-52283834D01*
X128389773Y-52306443D01*
X128381921Y-52328387D01*
X128371956Y-52349457D01*
X128359974Y-52369448D01*
X128346090Y-52388168D01*
X128330438Y-52405438D01*
X128313168Y-52421090D01*
X128294448Y-52434974D01*
X128274457Y-52446956D01*
X128253387Y-52456921D01*
X128231443Y-52464773D01*
X128208834Y-52470437D01*
X128185779Y-52473856D01*
X128162500Y-52475000D01*
X127587500Y-52475000D01*
X127564221Y-52473856D01*
X127541166Y-52470437D01*
X127518557Y-52464773D01*
X127496613Y-52456921D01*
X127475543Y-52446956D01*
X127455552Y-52434974D01*
X127436832Y-52421090D01*
X127419562Y-52405438D01*
X127403910Y-52388168D01*
X127390026Y-52369448D01*
X127378044Y-52349457D01*
X127368079Y-52328387D01*
X127360227Y-52306443D01*
X127354563Y-52283834D01*
X127351144Y-52260779D01*
X127350000Y-52237500D01*
X127350000Y-51762500D01*
X127351144Y-51739221D01*
X127354563Y-51716166D01*
X127360227Y-51693557D01*
X127368079Y-51671613D01*
X127378044Y-51650543D01*
X127390026Y-51630552D01*
X127403910Y-51611832D01*
X127419562Y-51594562D01*
X127436832Y-51578910D01*
X127455552Y-51565026D01*
X127475543Y-51553044D01*
X127496613Y-51543079D01*
X127518557Y-51535227D01*
X127541166Y-51529563D01*
X127564221Y-51526144D01*
X127587500Y-51525000D01*
X128162500Y-51525000D01*
X128185779Y-51526144D01*
G37*
G36*
X113760779Y-56451144D02*
G01*
X113783834Y-56454563D01*
X113806443Y-56460227D01*
X113828387Y-56468079D01*
X113849457Y-56478044D01*
X113869448Y-56490026D01*
X113888168Y-56503910D01*
X113905438Y-56519562D01*
X113921090Y-56536832D01*
X113934974Y-56555552D01*
X113946956Y-56575543D01*
X113956921Y-56596613D01*
X113964773Y-56618557D01*
X113970437Y-56641166D01*
X113973856Y-56664221D01*
X113975000Y-56687500D01*
X113975000Y-57262500D01*
X113973856Y-57285779D01*
X113970437Y-57308834D01*
X113964773Y-57331443D01*
X113956921Y-57353387D01*
X113946956Y-57374457D01*
X113934974Y-57394448D01*
X113921090Y-57413168D01*
X113905438Y-57430438D01*
X113888168Y-57446090D01*
X113869448Y-57459974D01*
X113849457Y-57471956D01*
X113828387Y-57481921D01*
X113806443Y-57489773D01*
X113783834Y-57495437D01*
X113760779Y-57498856D01*
X113737500Y-57500000D01*
X113262500Y-57500000D01*
X113239221Y-57498856D01*
X113216166Y-57495437D01*
X113193557Y-57489773D01*
X113171613Y-57481921D01*
X113150543Y-57471956D01*
X113130552Y-57459974D01*
X113111832Y-57446090D01*
X113094562Y-57430438D01*
X113078910Y-57413168D01*
X113065026Y-57394448D01*
X113053044Y-57374457D01*
X113043079Y-57353387D01*
X113035227Y-57331443D01*
X113029563Y-57308834D01*
X113026144Y-57285779D01*
X113025000Y-57262500D01*
X113025000Y-56687500D01*
X113026144Y-56664221D01*
X113029563Y-56641166D01*
X113035227Y-56618557D01*
X113043079Y-56596613D01*
X113053044Y-56575543D01*
X113065026Y-56555552D01*
X113078910Y-56536832D01*
X113094562Y-56519562D01*
X113111832Y-56503910D01*
X113130552Y-56490026D01*
X113150543Y-56478044D01*
X113171613Y-56468079D01*
X113193557Y-56460227D01*
X113216166Y-56454563D01*
X113239221Y-56451144D01*
X113262500Y-56450000D01*
X113737500Y-56450000D01*
X113760779Y-56451144D01*
G37*
G36*
X113760779Y-54701144D02*
G01*
X113783834Y-54704563D01*
X113806443Y-54710227D01*
X113828387Y-54718079D01*
X113849457Y-54728044D01*
X113869448Y-54740026D01*
X113888168Y-54753910D01*
X113905438Y-54769562D01*
X113921090Y-54786832D01*
X113934974Y-54805552D01*
X113946956Y-54825543D01*
X113956921Y-54846613D01*
X113964773Y-54868557D01*
X113970437Y-54891166D01*
X113973856Y-54914221D01*
X113975000Y-54937500D01*
X113975000Y-55512500D01*
X113973856Y-55535779D01*
X113970437Y-55558834D01*
X113964773Y-55581443D01*
X113956921Y-55603387D01*
X113946956Y-55624457D01*
X113934974Y-55644448D01*
X113921090Y-55663168D01*
X113905438Y-55680438D01*
X113888168Y-55696090D01*
X113869448Y-55709974D01*
X113849457Y-55721956D01*
X113828387Y-55731921D01*
X113806443Y-55739773D01*
X113783834Y-55745437D01*
X113760779Y-55748856D01*
X113737500Y-55750000D01*
X113262500Y-55750000D01*
X113239221Y-55748856D01*
X113216166Y-55745437D01*
X113193557Y-55739773D01*
X113171613Y-55731921D01*
X113150543Y-55721956D01*
X113130552Y-55709974D01*
X113111832Y-55696090D01*
X113094562Y-55680438D01*
X113078910Y-55663168D01*
X113065026Y-55644448D01*
X113053044Y-55624457D01*
X113043079Y-55603387D01*
X113035227Y-55581443D01*
X113029563Y-55558834D01*
X113026144Y-55535779D01*
X113025000Y-55512500D01*
X113025000Y-54937500D01*
X113026144Y-54914221D01*
X113029563Y-54891166D01*
X113035227Y-54868557D01*
X113043079Y-54846613D01*
X113053044Y-54825543D01*
X113065026Y-54805552D01*
X113078910Y-54786832D01*
X113094562Y-54769562D01*
X113111832Y-54753910D01*
X113130552Y-54740026D01*
X113150543Y-54728044D01*
X113171613Y-54718079D01*
X113193557Y-54710227D01*
X113216166Y-54704563D01*
X113239221Y-54701144D01*
X113262500Y-54700000D01*
X113737500Y-54700000D01*
X113760779Y-54701144D01*
G37*
G36*
X117760779Y-56551144D02*
G01*
X117783834Y-56554563D01*
X117806443Y-56560227D01*
X117828387Y-56568079D01*
X117849457Y-56578044D01*
X117869448Y-56590026D01*
X117888168Y-56603910D01*
X117905438Y-56619562D01*
X117921090Y-56636832D01*
X117934974Y-56655552D01*
X117946956Y-56675543D01*
X117956921Y-56696613D01*
X117964773Y-56718557D01*
X117970437Y-56741166D01*
X117973856Y-56764221D01*
X117975000Y-56787500D01*
X117975000Y-57362500D01*
X117973856Y-57385779D01*
X117970437Y-57408834D01*
X117964773Y-57431443D01*
X117956921Y-57453387D01*
X117946956Y-57474457D01*
X117934974Y-57494448D01*
X117921090Y-57513168D01*
X117905438Y-57530438D01*
X117888168Y-57546090D01*
X117869448Y-57559974D01*
X117849457Y-57571956D01*
X117828387Y-57581921D01*
X117806443Y-57589773D01*
X117783834Y-57595437D01*
X117760779Y-57598856D01*
X117737500Y-57600000D01*
X117262500Y-57600000D01*
X117239221Y-57598856D01*
X117216166Y-57595437D01*
X117193557Y-57589773D01*
X117171613Y-57581921D01*
X117150543Y-57571956D01*
X117130552Y-57559974D01*
X117111832Y-57546090D01*
X117094562Y-57530438D01*
X117078910Y-57513168D01*
X117065026Y-57494448D01*
X117053044Y-57474457D01*
X117043079Y-57453387D01*
X117035227Y-57431443D01*
X117029563Y-57408834D01*
X117026144Y-57385779D01*
X117025000Y-57362500D01*
X117025000Y-56787500D01*
X117026144Y-56764221D01*
X117029563Y-56741166D01*
X117035227Y-56718557D01*
X117043079Y-56696613D01*
X117053044Y-56675543D01*
X117065026Y-56655552D01*
X117078910Y-56636832D01*
X117094562Y-56619562D01*
X117111832Y-56603910D01*
X117130552Y-56590026D01*
X117150543Y-56578044D01*
X117171613Y-56568079D01*
X117193557Y-56560227D01*
X117216166Y-56554563D01*
X117239221Y-56551144D01*
X117262500Y-56550000D01*
X117737500Y-56550000D01*
X117760779Y-56551144D01*
G37*
G36*
X117760779Y-54801144D02*
G01*
X117783834Y-54804563D01*
X117806443Y-54810227D01*
X117828387Y-54818079D01*
X117849457Y-54828044D01*
X117869448Y-54840026D01*
X117888168Y-54853910D01*
X117905438Y-54869562D01*
X117921090Y-54886832D01*
X117934974Y-54905552D01*
X117946956Y-54925543D01*
X117956921Y-54946613D01*
X117964773Y-54968557D01*
X117970437Y-54991166D01*
X117973856Y-55014221D01*
X117975000Y-55037500D01*
X117975000Y-55612500D01*
X117973856Y-55635779D01*
X117970437Y-55658834D01*
X117964773Y-55681443D01*
X117956921Y-55703387D01*
X117946956Y-55724457D01*
X117934974Y-55744448D01*
X117921090Y-55763168D01*
X117905438Y-55780438D01*
X117888168Y-55796090D01*
X117869448Y-55809974D01*
X117849457Y-55821956D01*
X117828387Y-55831921D01*
X117806443Y-55839773D01*
X117783834Y-55845437D01*
X117760779Y-55848856D01*
X117737500Y-55850000D01*
X117262500Y-55850000D01*
X117239221Y-55848856D01*
X117216166Y-55845437D01*
X117193557Y-55839773D01*
X117171613Y-55831921D01*
X117150543Y-55821956D01*
X117130552Y-55809974D01*
X117111832Y-55796090D01*
X117094562Y-55780438D01*
X117078910Y-55763168D01*
X117065026Y-55744448D01*
X117053044Y-55724457D01*
X117043079Y-55703387D01*
X117035227Y-55681443D01*
X117029563Y-55658834D01*
X117026144Y-55635779D01*
X117025000Y-55612500D01*
X117025000Y-55037500D01*
X117026144Y-55014221D01*
X117029563Y-54991166D01*
X117035227Y-54968557D01*
X117043079Y-54946613D01*
X117053044Y-54925543D01*
X117065026Y-54905552D01*
X117078910Y-54886832D01*
X117094562Y-54869562D01*
X117111832Y-54853910D01*
X117130552Y-54840026D01*
X117150543Y-54828044D01*
X117171613Y-54818079D01*
X117193557Y-54810227D01*
X117216166Y-54804563D01*
X117239221Y-54801144D01*
X117262500Y-54800000D01*
X117737500Y-54800000D01*
X117760779Y-54801144D01*
G37*
G36*
X110760779Y-58501144D02*
G01*
X110783834Y-58504563D01*
X110806443Y-58510227D01*
X110828387Y-58518079D01*
X110849457Y-58528044D01*
X110869448Y-58540026D01*
X110888168Y-58553910D01*
X110905438Y-58569562D01*
X110921090Y-58586832D01*
X110934974Y-58605552D01*
X110946956Y-58625543D01*
X110956921Y-58646613D01*
X110964773Y-58668557D01*
X110970437Y-58691166D01*
X110973856Y-58714221D01*
X110975000Y-58737500D01*
X110975000Y-59312500D01*
X110973856Y-59335779D01*
X110970437Y-59358834D01*
X110964773Y-59381443D01*
X110956921Y-59403387D01*
X110946956Y-59424457D01*
X110934974Y-59444448D01*
X110921090Y-59463168D01*
X110905438Y-59480438D01*
X110888168Y-59496090D01*
X110869448Y-59509974D01*
X110849457Y-59521956D01*
X110828387Y-59531921D01*
X110806443Y-59539773D01*
X110783834Y-59545437D01*
X110760779Y-59548856D01*
X110737500Y-59550000D01*
X110262500Y-59550000D01*
X110239221Y-59548856D01*
X110216166Y-59545437D01*
X110193557Y-59539773D01*
X110171613Y-59531921D01*
X110150543Y-59521956D01*
X110130552Y-59509974D01*
X110111832Y-59496090D01*
X110094562Y-59480438D01*
X110078910Y-59463168D01*
X110065026Y-59444448D01*
X110053044Y-59424457D01*
X110043079Y-59403387D01*
X110035227Y-59381443D01*
X110029563Y-59358834D01*
X110026144Y-59335779D01*
X110025000Y-59312500D01*
X110025000Y-58737500D01*
X110026144Y-58714221D01*
X110029563Y-58691166D01*
X110035227Y-58668557D01*
X110043079Y-58646613D01*
X110053044Y-58625543D01*
X110065026Y-58605552D01*
X110078910Y-58586832D01*
X110094562Y-58569562D01*
X110111832Y-58553910D01*
X110130552Y-58540026D01*
X110150543Y-58528044D01*
X110171613Y-58518079D01*
X110193557Y-58510227D01*
X110216166Y-58504563D01*
X110239221Y-58501144D01*
X110262500Y-58500000D01*
X110737500Y-58500000D01*
X110760779Y-58501144D01*
G37*
G36*
X110760779Y-60251144D02*
G01*
X110783834Y-60254563D01*
X110806443Y-60260227D01*
X110828387Y-60268079D01*
X110849457Y-60278044D01*
X110869448Y-60290026D01*
X110888168Y-60303910D01*
X110905438Y-60319562D01*
X110921090Y-60336832D01*
X110934974Y-60355552D01*
X110946956Y-60375543D01*
X110956921Y-60396613D01*
X110964773Y-60418557D01*
X110970437Y-60441166D01*
X110973856Y-60464221D01*
X110975000Y-60487500D01*
X110975000Y-61062500D01*
X110973856Y-61085779D01*
X110970437Y-61108834D01*
X110964773Y-61131443D01*
X110956921Y-61153387D01*
X110946956Y-61174457D01*
X110934974Y-61194448D01*
X110921090Y-61213168D01*
X110905438Y-61230438D01*
X110888168Y-61246090D01*
X110869448Y-61259974D01*
X110849457Y-61271956D01*
X110828387Y-61281921D01*
X110806443Y-61289773D01*
X110783834Y-61295437D01*
X110760779Y-61298856D01*
X110737500Y-61300000D01*
X110262500Y-61300000D01*
X110239221Y-61298856D01*
X110216166Y-61295437D01*
X110193557Y-61289773D01*
X110171613Y-61281921D01*
X110150543Y-61271956D01*
X110130552Y-61259974D01*
X110111832Y-61246090D01*
X110094562Y-61230438D01*
X110078910Y-61213168D01*
X110065026Y-61194448D01*
X110053044Y-61174457D01*
X110043079Y-61153387D01*
X110035227Y-61131443D01*
X110029563Y-61108834D01*
X110026144Y-61085779D01*
X110025000Y-61062500D01*
X110025000Y-60487500D01*
X110026144Y-60464221D01*
X110029563Y-60441166D01*
X110035227Y-60418557D01*
X110043079Y-60396613D01*
X110053044Y-60375543D01*
X110065026Y-60355552D01*
X110078910Y-60336832D01*
X110094562Y-60319562D01*
X110111832Y-60303910D01*
X110130552Y-60290026D01*
X110150543Y-60278044D01*
X110171613Y-60268079D01*
X110193557Y-60260227D01*
X110216166Y-60254563D01*
X110239221Y-60251144D01*
X110262500Y-60250000D01*
X110737500Y-60250000D01*
X110760779Y-60251144D01*
G37*
G36*
X112360779Y-60301144D02*
G01*
X112383834Y-60304563D01*
X112406443Y-60310227D01*
X112428387Y-60318079D01*
X112449457Y-60328044D01*
X112469448Y-60340026D01*
X112488168Y-60353910D01*
X112505438Y-60369562D01*
X112521090Y-60386832D01*
X112534974Y-60405552D01*
X112546956Y-60425543D01*
X112556921Y-60446613D01*
X112564773Y-60468557D01*
X112570437Y-60491166D01*
X112573856Y-60514221D01*
X112575000Y-60537500D01*
X112575000Y-61112500D01*
X112573856Y-61135779D01*
X112570437Y-61158834D01*
X112564773Y-61181443D01*
X112556921Y-61203387D01*
X112546956Y-61224457D01*
X112534974Y-61244448D01*
X112521090Y-61263168D01*
X112505438Y-61280438D01*
X112488168Y-61296090D01*
X112469448Y-61309974D01*
X112449457Y-61321956D01*
X112428387Y-61331921D01*
X112406443Y-61339773D01*
X112383834Y-61345437D01*
X112360779Y-61348856D01*
X112337500Y-61350000D01*
X111862500Y-61350000D01*
X111839221Y-61348856D01*
X111816166Y-61345437D01*
X111793557Y-61339773D01*
X111771613Y-61331921D01*
X111750543Y-61321956D01*
X111730552Y-61309974D01*
X111711832Y-61296090D01*
X111694562Y-61280438D01*
X111678910Y-61263168D01*
X111665026Y-61244448D01*
X111653044Y-61224457D01*
X111643079Y-61203387D01*
X111635227Y-61181443D01*
X111629563Y-61158834D01*
X111626144Y-61135779D01*
X111625000Y-61112500D01*
X111625000Y-60537500D01*
X111626144Y-60514221D01*
X111629563Y-60491166D01*
X111635227Y-60468557D01*
X111643079Y-60446613D01*
X111653044Y-60425543D01*
X111665026Y-60405552D01*
X111678910Y-60386832D01*
X111694562Y-60369562D01*
X111711832Y-60353910D01*
X111730552Y-60340026D01*
X111750543Y-60328044D01*
X111771613Y-60318079D01*
X111793557Y-60310227D01*
X111816166Y-60304563D01*
X111839221Y-60301144D01*
X111862500Y-60300000D01*
X112337500Y-60300000D01*
X112360779Y-60301144D01*
G37*
G36*
X112360779Y-62051144D02*
G01*
X112383834Y-62054563D01*
X112406443Y-62060227D01*
X112428387Y-62068079D01*
X112449457Y-62078044D01*
X112469448Y-62090026D01*
X112488168Y-62103910D01*
X112505438Y-62119562D01*
X112521090Y-62136832D01*
X112534974Y-62155552D01*
X112546956Y-62175543D01*
X112556921Y-62196613D01*
X112564773Y-62218557D01*
X112570437Y-62241166D01*
X112573856Y-62264221D01*
X112575000Y-62287500D01*
X112575000Y-62862500D01*
X112573856Y-62885779D01*
X112570437Y-62908834D01*
X112564773Y-62931443D01*
X112556921Y-62953387D01*
X112546956Y-62974457D01*
X112534974Y-62994448D01*
X112521090Y-63013168D01*
X112505438Y-63030438D01*
X112488168Y-63046090D01*
X112469448Y-63059974D01*
X112449457Y-63071956D01*
X112428387Y-63081921D01*
X112406443Y-63089773D01*
X112383834Y-63095437D01*
X112360779Y-63098856D01*
X112337500Y-63100000D01*
X111862500Y-63100000D01*
X111839221Y-63098856D01*
X111816166Y-63095437D01*
X111793557Y-63089773D01*
X111771613Y-63081921D01*
X111750543Y-63071956D01*
X111730552Y-63059974D01*
X111711832Y-63046090D01*
X111694562Y-63030438D01*
X111678910Y-63013168D01*
X111665026Y-62994448D01*
X111653044Y-62974457D01*
X111643079Y-62953387D01*
X111635227Y-62931443D01*
X111629563Y-62908834D01*
X111626144Y-62885779D01*
X111625000Y-62862500D01*
X111625000Y-62287500D01*
X111626144Y-62264221D01*
X111629563Y-62241166D01*
X111635227Y-62218557D01*
X111643079Y-62196613D01*
X111653044Y-62175543D01*
X111665026Y-62155552D01*
X111678910Y-62136832D01*
X111694562Y-62119562D01*
X111711832Y-62103910D01*
X111730552Y-62090026D01*
X111750543Y-62078044D01*
X111771613Y-62068079D01*
X111793557Y-62060227D01*
X111816166Y-62054563D01*
X111839221Y-62051144D01*
X111862500Y-62050000D01*
X112337500Y-62050000D01*
X112360779Y-62051144D01*
G37*
G36*
X126260779Y-58876144D02*
G01*
X126283834Y-58879563D01*
X126306443Y-58885227D01*
X126328387Y-58893079D01*
X126349457Y-58903044D01*
X126369448Y-58915026D01*
X126388168Y-58928910D01*
X126405438Y-58944562D01*
X126421090Y-58961832D01*
X126434974Y-58980552D01*
X126446956Y-59000543D01*
X126456921Y-59021613D01*
X126464773Y-59043557D01*
X126470437Y-59066166D01*
X126473856Y-59089221D01*
X126475000Y-59112500D01*
X126475000Y-59687500D01*
X126473856Y-59710779D01*
X126470437Y-59733834D01*
X126464773Y-59756443D01*
X126456921Y-59778387D01*
X126446956Y-59799457D01*
X126434974Y-59819448D01*
X126421090Y-59838168D01*
X126405438Y-59855438D01*
X126388168Y-59871090D01*
X126369448Y-59884974D01*
X126349457Y-59896956D01*
X126328387Y-59906921D01*
X126306443Y-59914773D01*
X126283834Y-59920437D01*
X126260779Y-59923856D01*
X126237500Y-59925000D01*
X125762500Y-59925000D01*
X125739221Y-59923856D01*
X125716166Y-59920437D01*
X125693557Y-59914773D01*
X125671613Y-59906921D01*
X125650543Y-59896956D01*
X125630552Y-59884974D01*
X125611832Y-59871090D01*
X125594562Y-59855438D01*
X125578910Y-59838168D01*
X125565026Y-59819448D01*
X125553044Y-59799457D01*
X125543079Y-59778387D01*
X125535227Y-59756443D01*
X125529563Y-59733834D01*
X125526144Y-59710779D01*
X125525000Y-59687500D01*
X125525000Y-59112500D01*
X125526144Y-59089221D01*
X125529563Y-59066166D01*
X125535227Y-59043557D01*
X125543079Y-59021613D01*
X125553044Y-59000543D01*
X125565026Y-58980552D01*
X125578910Y-58961832D01*
X125594562Y-58944562D01*
X125611832Y-58928910D01*
X125630552Y-58915026D01*
X125650543Y-58903044D01*
X125671613Y-58893079D01*
X125693557Y-58885227D01*
X125716166Y-58879563D01*
X125739221Y-58876144D01*
X125762500Y-58875000D01*
X126237500Y-58875000D01*
X126260779Y-58876144D01*
G37*
G36*
X126260779Y-57126144D02*
G01*
X126283834Y-57129563D01*
X126306443Y-57135227D01*
X126328387Y-57143079D01*
X126349457Y-57153044D01*
X126369448Y-57165026D01*
X126388168Y-57178910D01*
X126405438Y-57194562D01*
X126421090Y-57211832D01*
X126434974Y-57230552D01*
X126446956Y-57250543D01*
X126456921Y-57271613D01*
X126464773Y-57293557D01*
X126470437Y-57316166D01*
X126473856Y-57339221D01*
X126475000Y-57362500D01*
X126475000Y-57937500D01*
X126473856Y-57960779D01*
X126470437Y-57983834D01*
X126464773Y-58006443D01*
X126456921Y-58028387D01*
X126446956Y-58049457D01*
X126434974Y-58069448D01*
X126421090Y-58088168D01*
X126405438Y-58105438D01*
X126388168Y-58121090D01*
X126369448Y-58134974D01*
X126349457Y-58146956D01*
X126328387Y-58156921D01*
X126306443Y-58164773D01*
X126283834Y-58170437D01*
X126260779Y-58173856D01*
X126237500Y-58175000D01*
X125762500Y-58175000D01*
X125739221Y-58173856D01*
X125716166Y-58170437D01*
X125693557Y-58164773D01*
X125671613Y-58156921D01*
X125650543Y-58146956D01*
X125630552Y-58134974D01*
X125611832Y-58121090D01*
X125594562Y-58105438D01*
X125578910Y-58088168D01*
X125565026Y-58069448D01*
X125553044Y-58049457D01*
X125543079Y-58028387D01*
X125535227Y-58006443D01*
X125529563Y-57983834D01*
X125526144Y-57960779D01*
X125525000Y-57937500D01*
X125525000Y-57362500D01*
X125526144Y-57339221D01*
X125529563Y-57316166D01*
X125535227Y-57293557D01*
X125543079Y-57271613D01*
X125553044Y-57250543D01*
X125565026Y-57230552D01*
X125578910Y-57211832D01*
X125594562Y-57194562D01*
X125611832Y-57178910D01*
X125630552Y-57165026D01*
X125650543Y-57153044D01*
X125671613Y-57143079D01*
X125693557Y-57135227D01*
X125716166Y-57129563D01*
X125739221Y-57126144D01*
X125762500Y-57125000D01*
X126237500Y-57125000D01*
X126260779Y-57126144D01*
G37*
G36*
X124460779Y-57151144D02*
G01*
X124483834Y-57154563D01*
X124506443Y-57160227D01*
X124528387Y-57168079D01*
X124549457Y-57178044D01*
X124569448Y-57190026D01*
X124588168Y-57203910D01*
X124605438Y-57219562D01*
X124621090Y-57236832D01*
X124634974Y-57255552D01*
X124646956Y-57275543D01*
X124656921Y-57296613D01*
X124664773Y-57318557D01*
X124670437Y-57341166D01*
X124673856Y-57364221D01*
X124675000Y-57387500D01*
X124675000Y-57962500D01*
X124673856Y-57985779D01*
X124670437Y-58008834D01*
X124664773Y-58031443D01*
X124656921Y-58053387D01*
X124646956Y-58074457D01*
X124634974Y-58094448D01*
X124621090Y-58113168D01*
X124605438Y-58130438D01*
X124588168Y-58146090D01*
X124569448Y-58159974D01*
X124549457Y-58171956D01*
X124528387Y-58181921D01*
X124506443Y-58189773D01*
X124483834Y-58195437D01*
X124460779Y-58198856D01*
X124437500Y-58200000D01*
X123962500Y-58200000D01*
X123939221Y-58198856D01*
X123916166Y-58195437D01*
X123893557Y-58189773D01*
X123871613Y-58181921D01*
X123850543Y-58171956D01*
X123830552Y-58159974D01*
X123811832Y-58146090D01*
X123794562Y-58130438D01*
X123778910Y-58113168D01*
X123765026Y-58094448D01*
X123753044Y-58074457D01*
X123743079Y-58053387D01*
X123735227Y-58031443D01*
X123729563Y-58008834D01*
X123726144Y-57985779D01*
X123725000Y-57962500D01*
X123725000Y-57387500D01*
X123726144Y-57364221D01*
X123729563Y-57341166D01*
X123735227Y-57318557D01*
X123743079Y-57296613D01*
X123753044Y-57275543D01*
X123765026Y-57255552D01*
X123778910Y-57236832D01*
X123794562Y-57219562D01*
X123811832Y-57203910D01*
X123830552Y-57190026D01*
X123850543Y-57178044D01*
X123871613Y-57168079D01*
X123893557Y-57160227D01*
X123916166Y-57154563D01*
X123939221Y-57151144D01*
X123962500Y-57150000D01*
X124437500Y-57150000D01*
X124460779Y-57151144D01*
G37*
G36*
X124460779Y-55401144D02*
G01*
X124483834Y-55404563D01*
X124506443Y-55410227D01*
X124528387Y-55418079D01*
X124549457Y-55428044D01*
X124569448Y-55440026D01*
X124588168Y-55453910D01*
X124605438Y-55469562D01*
X124621090Y-55486832D01*
X124634974Y-55505552D01*
X124646956Y-55525543D01*
X124656921Y-55546613D01*
X124664773Y-55568557D01*
X124670437Y-55591166D01*
X124673856Y-55614221D01*
X124675000Y-55637500D01*
X124675000Y-56212500D01*
X124673856Y-56235779D01*
X124670437Y-56258834D01*
X124664773Y-56281443D01*
X124656921Y-56303387D01*
X124646956Y-56324457D01*
X124634974Y-56344448D01*
X124621090Y-56363168D01*
X124605438Y-56380438D01*
X124588168Y-56396090D01*
X124569448Y-56409974D01*
X124549457Y-56421956D01*
X124528387Y-56431921D01*
X124506443Y-56439773D01*
X124483834Y-56445437D01*
X124460779Y-56448856D01*
X124437500Y-56450000D01*
X123962500Y-56450000D01*
X123939221Y-56448856D01*
X123916166Y-56445437D01*
X123893557Y-56439773D01*
X123871613Y-56431921D01*
X123850543Y-56421956D01*
X123830552Y-56409974D01*
X123811832Y-56396090D01*
X123794562Y-56380438D01*
X123778910Y-56363168D01*
X123765026Y-56344448D01*
X123753044Y-56324457D01*
X123743079Y-56303387D01*
X123735227Y-56281443D01*
X123729563Y-56258834D01*
X123726144Y-56235779D01*
X123725000Y-56212500D01*
X123725000Y-55637500D01*
X123726144Y-55614221D01*
X123729563Y-55591166D01*
X123735227Y-55568557D01*
X123743079Y-55546613D01*
X123753044Y-55525543D01*
X123765026Y-55505552D01*
X123778910Y-55486832D01*
X123794562Y-55469562D01*
X123811832Y-55453910D01*
X123830552Y-55440026D01*
X123850543Y-55428044D01*
X123871613Y-55418079D01*
X123893557Y-55410227D01*
X123916166Y-55404563D01*
X123939221Y-55401144D01*
X123962500Y-55400000D01*
X124437500Y-55400000D01*
X124460779Y-55401144D01*
G37*
G36*
X131435779Y-51526144D02*
G01*
X131458834Y-51529563D01*
X131481443Y-51535227D01*
X131503387Y-51543079D01*
X131524457Y-51553044D01*
X131544448Y-51565026D01*
X131563168Y-51578910D01*
X131580438Y-51594562D01*
X131596090Y-51611832D01*
X131609974Y-51630552D01*
X131621956Y-51650543D01*
X131631921Y-51671613D01*
X131639773Y-51693557D01*
X131645437Y-51716166D01*
X131648856Y-51739221D01*
X131650000Y-51762500D01*
X131650000Y-52237500D01*
X131648856Y-52260779D01*
X131645437Y-52283834D01*
X131639773Y-52306443D01*
X131631921Y-52328387D01*
X131621956Y-52349457D01*
X131609974Y-52369448D01*
X131596090Y-52388168D01*
X131580438Y-52405438D01*
X131563168Y-52421090D01*
X131544448Y-52434974D01*
X131524457Y-52446956D01*
X131503387Y-52456921D01*
X131481443Y-52464773D01*
X131458834Y-52470437D01*
X131435779Y-52473856D01*
X131412500Y-52475000D01*
X130837500Y-52475000D01*
X130814221Y-52473856D01*
X130791166Y-52470437D01*
X130768557Y-52464773D01*
X130746613Y-52456921D01*
X130725543Y-52446956D01*
X130705552Y-52434974D01*
X130686832Y-52421090D01*
X130669562Y-52405438D01*
X130653910Y-52388168D01*
X130640026Y-52369448D01*
X130628044Y-52349457D01*
X130618079Y-52328387D01*
X130610227Y-52306443D01*
X130604563Y-52283834D01*
X130601144Y-52260779D01*
X130600000Y-52237500D01*
X130600000Y-51762500D01*
X130601144Y-51739221D01*
X130604563Y-51716166D01*
X130610227Y-51693557D01*
X130618079Y-51671613D01*
X130628044Y-51650543D01*
X130640026Y-51630552D01*
X130653910Y-51611832D01*
X130669562Y-51594562D01*
X130686832Y-51578910D01*
X130705552Y-51565026D01*
X130725543Y-51553044D01*
X130746613Y-51543079D01*
X130768557Y-51535227D01*
X130791166Y-51529563D01*
X130814221Y-51526144D01*
X130837500Y-51525000D01*
X131412500Y-51525000D01*
X131435779Y-51526144D01*
G37*
G36*
X133185779Y-51526144D02*
G01*
X133208834Y-51529563D01*
X133231443Y-51535227D01*
X133253387Y-51543079D01*
X133274457Y-51553044D01*
X133294448Y-51565026D01*
X133313168Y-51578910D01*
X133330438Y-51594562D01*
X133346090Y-51611832D01*
X133359974Y-51630552D01*
X133371956Y-51650543D01*
X133381921Y-51671613D01*
X133389773Y-51693557D01*
X133395437Y-51716166D01*
X133398856Y-51739221D01*
X133400000Y-51762500D01*
X133400000Y-52237500D01*
X133398856Y-52260779D01*
X133395437Y-52283834D01*
X133389773Y-52306443D01*
X133381921Y-52328387D01*
X133371956Y-52349457D01*
X133359974Y-52369448D01*
X133346090Y-52388168D01*
X133330438Y-52405438D01*
X133313168Y-52421090D01*
X133294448Y-52434974D01*
X133274457Y-52446956D01*
X133253387Y-52456921D01*
X133231443Y-52464773D01*
X133208834Y-52470437D01*
X133185779Y-52473856D01*
X133162500Y-52475000D01*
X132587500Y-52475000D01*
X132564221Y-52473856D01*
X132541166Y-52470437D01*
X132518557Y-52464773D01*
X132496613Y-52456921D01*
X132475543Y-52446956D01*
X132455552Y-52434974D01*
X132436832Y-52421090D01*
X132419562Y-52405438D01*
X132403910Y-52388168D01*
X132390026Y-52369448D01*
X132378044Y-52349457D01*
X132368079Y-52328387D01*
X132360227Y-52306443D01*
X132354563Y-52283834D01*
X132351144Y-52260779D01*
X132350000Y-52237500D01*
X132350000Y-51762500D01*
X132351144Y-51739221D01*
X132354563Y-51716166D01*
X132360227Y-51693557D01*
X132368079Y-51671613D01*
X132378044Y-51650543D01*
X132390026Y-51630552D01*
X132403910Y-51611832D01*
X132419562Y-51594562D01*
X132436832Y-51578910D01*
X132455552Y-51565026D01*
X132475543Y-51553044D01*
X132496613Y-51543079D01*
X132518557Y-51535227D01*
X132541166Y-51529563D01*
X132564221Y-51526144D01*
X132587500Y-51525000D01*
X133162500Y-51525000D01*
X133185779Y-51526144D01*
G37*
G36*
X123260779Y-58876144D02*
G01*
X123283834Y-58879563D01*
X123306443Y-58885227D01*
X123328387Y-58893079D01*
X123349457Y-58903044D01*
X123369448Y-58915026D01*
X123388168Y-58928910D01*
X123405438Y-58944562D01*
X123421090Y-58961832D01*
X123434974Y-58980552D01*
X123446956Y-59000543D01*
X123456921Y-59021613D01*
X123464773Y-59043557D01*
X123470437Y-59066166D01*
X123473856Y-59089221D01*
X123475000Y-59112500D01*
X123475000Y-59687500D01*
X123473856Y-59710779D01*
X123470437Y-59733834D01*
X123464773Y-59756443D01*
X123456921Y-59778387D01*
X123446956Y-59799457D01*
X123434974Y-59819448D01*
X123421090Y-59838168D01*
X123405438Y-59855438D01*
X123388168Y-59871090D01*
X123369448Y-59884974D01*
X123349457Y-59896956D01*
X123328387Y-59906921D01*
X123306443Y-59914773D01*
X123283834Y-59920437D01*
X123260779Y-59923856D01*
X123237500Y-59925000D01*
X122762500Y-59925000D01*
X122739221Y-59923856D01*
X122716166Y-59920437D01*
X122693557Y-59914773D01*
X122671613Y-59906921D01*
X122650543Y-59896956D01*
X122630552Y-59884974D01*
X122611832Y-59871090D01*
X122594562Y-59855438D01*
X122578910Y-59838168D01*
X122565026Y-59819448D01*
X122553044Y-59799457D01*
X122543079Y-59778387D01*
X122535227Y-59756443D01*
X122529563Y-59733834D01*
X122526144Y-59710779D01*
X122525000Y-59687500D01*
X122525000Y-59112500D01*
X122526144Y-59089221D01*
X122529563Y-59066166D01*
X122535227Y-59043557D01*
X122543079Y-59021613D01*
X122553044Y-59000543D01*
X122565026Y-58980552D01*
X122578910Y-58961832D01*
X122594562Y-58944562D01*
X122611832Y-58928910D01*
X122630552Y-58915026D01*
X122650543Y-58903044D01*
X122671613Y-58893079D01*
X122693557Y-58885227D01*
X122716166Y-58879563D01*
X122739221Y-58876144D01*
X122762500Y-58875000D01*
X123237500Y-58875000D01*
X123260779Y-58876144D01*
G37*
G36*
X123260779Y-60626144D02*
G01*
X123283834Y-60629563D01*
X123306443Y-60635227D01*
X123328387Y-60643079D01*
X123349457Y-60653044D01*
X123369448Y-60665026D01*
X123388168Y-60678910D01*
X123405438Y-60694562D01*
X123421090Y-60711832D01*
X123434974Y-60730552D01*
X123446956Y-60750543D01*
X123456921Y-60771613D01*
X123464773Y-60793557D01*
X123470437Y-60816166D01*
X123473856Y-60839221D01*
X123475000Y-60862500D01*
X123475000Y-61437500D01*
X123473856Y-61460779D01*
X123470437Y-61483834D01*
X123464773Y-61506443D01*
X123456921Y-61528387D01*
X123446956Y-61549457D01*
X123434974Y-61569448D01*
X123421090Y-61588168D01*
X123405438Y-61605438D01*
X123388168Y-61621090D01*
X123369448Y-61634974D01*
X123349457Y-61646956D01*
X123328387Y-61656921D01*
X123306443Y-61664773D01*
X123283834Y-61670437D01*
X123260779Y-61673856D01*
X123237500Y-61675000D01*
X122762500Y-61675000D01*
X122739221Y-61673856D01*
X122716166Y-61670437D01*
X122693557Y-61664773D01*
X122671613Y-61656921D01*
X122650543Y-61646956D01*
X122630552Y-61634974D01*
X122611832Y-61621090D01*
X122594562Y-61605438D01*
X122578910Y-61588168D01*
X122565026Y-61569448D01*
X122553044Y-61549457D01*
X122543079Y-61528387D01*
X122535227Y-61506443D01*
X122529563Y-61483834D01*
X122526144Y-61460779D01*
X122525000Y-61437500D01*
X122525000Y-60862500D01*
X122526144Y-60839221D01*
X122529563Y-60816166D01*
X122535227Y-60793557D01*
X122543079Y-60771613D01*
X122553044Y-60750543D01*
X122565026Y-60730552D01*
X122578910Y-60711832D01*
X122594562Y-60694562D01*
X122611832Y-60678910D01*
X122630552Y-60665026D01*
X122650543Y-60653044D01*
X122671613Y-60643079D01*
X122693557Y-60635227D01*
X122716166Y-60629563D01*
X122739221Y-60626144D01*
X122762500Y-60625000D01*
X123237500Y-60625000D01*
X123260779Y-60626144D01*
G37*
G36*
X126280142Y-62788674D02*
G01*
X126303803Y-62792184D01*
X126327007Y-62797996D01*
X126349529Y-62806054D01*
X126371153Y-62816282D01*
X126391670Y-62828579D01*
X126410883Y-62842829D01*
X126428607Y-62858893D01*
X126444671Y-62876617D01*
X126458921Y-62895830D01*
X126471218Y-62916347D01*
X126481446Y-62937971D01*
X126489504Y-62960493D01*
X126495316Y-62983697D01*
X126498826Y-63007358D01*
X126500000Y-63031250D01*
X126500000Y-63518750D01*
X126498826Y-63542642D01*
X126495316Y-63566303D01*
X126489504Y-63589507D01*
X126481446Y-63612029D01*
X126471218Y-63633653D01*
X126458921Y-63654170D01*
X126444671Y-63673383D01*
X126428607Y-63691107D01*
X126410883Y-63707171D01*
X126391670Y-63721421D01*
X126371153Y-63733718D01*
X126349529Y-63743946D01*
X126327007Y-63752004D01*
X126303803Y-63757816D01*
X126280142Y-63761326D01*
X126256250Y-63762500D01*
X125343750Y-63762500D01*
X125319858Y-63761326D01*
X125296197Y-63757816D01*
X125272993Y-63752004D01*
X125250471Y-63743946D01*
X125228847Y-63733718D01*
X125208330Y-63721421D01*
X125189117Y-63707171D01*
X125171393Y-63691107D01*
X125155329Y-63673383D01*
X125141079Y-63654170D01*
X125128782Y-63633653D01*
X125118554Y-63612029D01*
X125110496Y-63589507D01*
X125104684Y-63566303D01*
X125101174Y-63542642D01*
X125100000Y-63518750D01*
X125100000Y-63031250D01*
X125101174Y-63007358D01*
X125104684Y-62983697D01*
X125110496Y-62960493D01*
X125118554Y-62937971D01*
X125128782Y-62916347D01*
X125141079Y-62895830D01*
X125155329Y-62876617D01*
X125171393Y-62858893D01*
X125189117Y-62842829D01*
X125208330Y-62828579D01*
X125228847Y-62816282D01*
X125250471Y-62806054D01*
X125272993Y-62797996D01*
X125296197Y-62792184D01*
X125319858Y-62788674D01*
X125343750Y-62787500D01*
X126256250Y-62787500D01*
X126280142Y-62788674D01*
G37*
G36*
X126280142Y-60913674D02*
G01*
X126303803Y-60917184D01*
X126327007Y-60922996D01*
X126349529Y-60931054D01*
X126371153Y-60941282D01*
X126391670Y-60953579D01*
X126410883Y-60967829D01*
X126428607Y-60983893D01*
X126444671Y-61001617D01*
X126458921Y-61020830D01*
X126471218Y-61041347D01*
X126481446Y-61062971D01*
X126489504Y-61085493D01*
X126495316Y-61108697D01*
X126498826Y-61132358D01*
X126500000Y-61156250D01*
X126500000Y-61643750D01*
X126498826Y-61667642D01*
X126495316Y-61691303D01*
X126489504Y-61714507D01*
X126481446Y-61737029D01*
X126471218Y-61758653D01*
X126458921Y-61779170D01*
X126444671Y-61798383D01*
X126428607Y-61816107D01*
X126410883Y-61832171D01*
X126391670Y-61846421D01*
X126371153Y-61858718D01*
X126349529Y-61868946D01*
X126327007Y-61877004D01*
X126303803Y-61882816D01*
X126280142Y-61886326D01*
X126256250Y-61887500D01*
X125343750Y-61887500D01*
X125319858Y-61886326D01*
X125296197Y-61882816D01*
X125272993Y-61877004D01*
X125250471Y-61868946D01*
X125228847Y-61858718D01*
X125208330Y-61846421D01*
X125189117Y-61832171D01*
X125171393Y-61816107D01*
X125155329Y-61798383D01*
X125141079Y-61779170D01*
X125128782Y-61758653D01*
X125118554Y-61737029D01*
X125110496Y-61714507D01*
X125104684Y-61691303D01*
X125101174Y-61667642D01*
X125100000Y-61643750D01*
X125100000Y-61156250D01*
X125101174Y-61132358D01*
X125104684Y-61108697D01*
X125110496Y-61085493D01*
X125118554Y-61062971D01*
X125128782Y-61041347D01*
X125141079Y-61020830D01*
X125155329Y-61001617D01*
X125171393Y-60983893D01*
X125189117Y-60967829D01*
X125208330Y-60953579D01*
X125228847Y-60941282D01*
X125250471Y-60931054D01*
X125272993Y-60922996D01*
X125296197Y-60917184D01*
X125319858Y-60913674D01*
X125343750Y-60912500D01*
X126256250Y-60912500D01*
X126280142Y-60913674D01*
G37*
G36*
X138080142Y-51576174D02*
G01*
X138103803Y-51579684D01*
X138127007Y-51585496D01*
X138149529Y-51593554D01*
X138171153Y-51603782D01*
X138191670Y-51616079D01*
X138210883Y-51630329D01*
X138228607Y-51646393D01*
X138244671Y-51664117D01*
X138258921Y-51683330D01*
X138271218Y-51703847D01*
X138281446Y-51725471D01*
X138289504Y-51747993D01*
X138295316Y-51771197D01*
X138298826Y-51794858D01*
X138300000Y-51818750D01*
X138300000Y-52306250D01*
X138298826Y-52330142D01*
X138295316Y-52353803D01*
X138289504Y-52377007D01*
X138281446Y-52399529D01*
X138271218Y-52421153D01*
X138258921Y-52441670D01*
X138244671Y-52460883D01*
X138228607Y-52478607D01*
X138210883Y-52494671D01*
X138191670Y-52508921D01*
X138171153Y-52521218D01*
X138149529Y-52531446D01*
X138127007Y-52539504D01*
X138103803Y-52545316D01*
X138080142Y-52548826D01*
X138056250Y-52550000D01*
X137143750Y-52550000D01*
X137119858Y-52548826D01*
X137096197Y-52545316D01*
X137072993Y-52539504D01*
X137050471Y-52531446D01*
X137028847Y-52521218D01*
X137008330Y-52508921D01*
X136989117Y-52494671D01*
X136971393Y-52478607D01*
X136955329Y-52460883D01*
X136941079Y-52441670D01*
X136928782Y-52421153D01*
X136918554Y-52399529D01*
X136910496Y-52377007D01*
X136904684Y-52353803D01*
X136901174Y-52330142D01*
X136900000Y-52306250D01*
X136900000Y-51818750D01*
X136901174Y-51794858D01*
X136904684Y-51771197D01*
X136910496Y-51747993D01*
X136918554Y-51725471D01*
X136928782Y-51703847D01*
X136941079Y-51683330D01*
X136955329Y-51664117D01*
X136971393Y-51646393D01*
X136989117Y-51630329D01*
X137008330Y-51616079D01*
X137028847Y-51603782D01*
X137050471Y-51593554D01*
X137072993Y-51585496D01*
X137096197Y-51579684D01*
X137119858Y-51576174D01*
X137143750Y-51575000D01*
X138056250Y-51575000D01*
X138080142Y-51576174D01*
G37*
G36*
X138080142Y-53451174D02*
G01*
X138103803Y-53454684D01*
X138127007Y-53460496D01*
X138149529Y-53468554D01*
X138171153Y-53478782D01*
X138191670Y-53491079D01*
X138210883Y-53505329D01*
X138228607Y-53521393D01*
X138244671Y-53539117D01*
X138258921Y-53558330D01*
X138271218Y-53578847D01*
X138281446Y-53600471D01*
X138289504Y-53622993D01*
X138295316Y-53646197D01*
X138298826Y-53669858D01*
X138300000Y-53693750D01*
X138300000Y-54181250D01*
X138298826Y-54205142D01*
X138295316Y-54228803D01*
X138289504Y-54252007D01*
X138281446Y-54274529D01*
X138271218Y-54296153D01*
X138258921Y-54316670D01*
X138244671Y-54335883D01*
X138228607Y-54353607D01*
X138210883Y-54369671D01*
X138191670Y-54383921D01*
X138171153Y-54396218D01*
X138149529Y-54406446D01*
X138127007Y-54414504D01*
X138103803Y-54420316D01*
X138080142Y-54423826D01*
X138056250Y-54425000D01*
X137143750Y-54425000D01*
X137119858Y-54423826D01*
X137096197Y-54420316D01*
X137072993Y-54414504D01*
X137050471Y-54406446D01*
X137028847Y-54396218D01*
X137008330Y-54383921D01*
X136989117Y-54369671D01*
X136971393Y-54353607D01*
X136955329Y-54335883D01*
X136941079Y-54316670D01*
X136928782Y-54296153D01*
X136918554Y-54274529D01*
X136910496Y-54252007D01*
X136904684Y-54228803D01*
X136901174Y-54205142D01*
X136900000Y-54181250D01*
X136900000Y-53693750D01*
X136901174Y-53669858D01*
X136904684Y-53646197D01*
X136910496Y-53622993D01*
X136918554Y-53600471D01*
X136928782Y-53578847D01*
X136941079Y-53558330D01*
X136955329Y-53539117D01*
X136971393Y-53521393D01*
X136989117Y-53505329D01*
X137008330Y-53491079D01*
X137028847Y-53478782D01*
X137050471Y-53468554D01*
X137072993Y-53460496D01*
X137096197Y-53454684D01*
X137119858Y-53451174D01*
X137143750Y-53450000D01*
X138056250Y-53450000D01*
X138080142Y-53451174D01*
G37*
G36*
X129760779Y-53251144D02*
G01*
X129783834Y-53254563D01*
X129806443Y-53260227D01*
X129828387Y-53268079D01*
X129849457Y-53278044D01*
X129869448Y-53290026D01*
X129888168Y-53303910D01*
X129905438Y-53319562D01*
X129921090Y-53336832D01*
X129934974Y-53355552D01*
X129946956Y-53375543D01*
X129956921Y-53396613D01*
X129964773Y-53418557D01*
X129970437Y-53441166D01*
X129973856Y-53464221D01*
X129975000Y-53487500D01*
X129975000Y-54062500D01*
X129973856Y-54085779D01*
X129970437Y-54108834D01*
X129964773Y-54131443D01*
X129956921Y-54153387D01*
X129946956Y-54174457D01*
X129934974Y-54194448D01*
X129921090Y-54213168D01*
X129905438Y-54230438D01*
X129888168Y-54246090D01*
X129869448Y-54259974D01*
X129849457Y-54271956D01*
X129828387Y-54281921D01*
X129806443Y-54289773D01*
X129783834Y-54295437D01*
X129760779Y-54298856D01*
X129737500Y-54300000D01*
X129262500Y-54300000D01*
X129239221Y-54298856D01*
X129216166Y-54295437D01*
X129193557Y-54289773D01*
X129171613Y-54281921D01*
X129150543Y-54271956D01*
X129130552Y-54259974D01*
X129111832Y-54246090D01*
X129094562Y-54230438D01*
X129078910Y-54213168D01*
X129065026Y-54194448D01*
X129053044Y-54174457D01*
X129043079Y-54153387D01*
X129035227Y-54131443D01*
X129029563Y-54108834D01*
X129026144Y-54085779D01*
X129025000Y-54062500D01*
X129025000Y-53487500D01*
X129026144Y-53464221D01*
X129029563Y-53441166D01*
X129035227Y-53418557D01*
X129043079Y-53396613D01*
X129053044Y-53375543D01*
X129065026Y-53355552D01*
X129078910Y-53336832D01*
X129094562Y-53319562D01*
X129111832Y-53303910D01*
X129130552Y-53290026D01*
X129150543Y-53278044D01*
X129171613Y-53268079D01*
X129193557Y-53260227D01*
X129216166Y-53254563D01*
X129239221Y-53251144D01*
X129262500Y-53250000D01*
X129737500Y-53250000D01*
X129760779Y-53251144D01*
G37*
G36*
X129760779Y-51501144D02*
G01*
X129783834Y-51504563D01*
X129806443Y-51510227D01*
X129828387Y-51518079D01*
X129849457Y-51528044D01*
X129869448Y-51540026D01*
X129888168Y-51553910D01*
X129905438Y-51569562D01*
X129921090Y-51586832D01*
X129934974Y-51605552D01*
X129946956Y-51625543D01*
X129956921Y-51646613D01*
X129964773Y-51668557D01*
X129970437Y-51691166D01*
X129973856Y-51714221D01*
X129975000Y-51737500D01*
X129975000Y-52312500D01*
X129973856Y-52335779D01*
X129970437Y-52358834D01*
X129964773Y-52381443D01*
X129956921Y-52403387D01*
X129946956Y-52424457D01*
X129934974Y-52444448D01*
X129921090Y-52463168D01*
X129905438Y-52480438D01*
X129888168Y-52496090D01*
X129869448Y-52509974D01*
X129849457Y-52521956D01*
X129828387Y-52531921D01*
X129806443Y-52539773D01*
X129783834Y-52545437D01*
X129760779Y-52548856D01*
X129737500Y-52550000D01*
X129262500Y-52550000D01*
X129239221Y-52548856D01*
X129216166Y-52545437D01*
X129193557Y-52539773D01*
X129171613Y-52531921D01*
X129150543Y-52521956D01*
X129130552Y-52509974D01*
X129111832Y-52496090D01*
X129094562Y-52480438D01*
X129078910Y-52463168D01*
X129065026Y-52444448D01*
X129053044Y-52424457D01*
X129043079Y-52403387D01*
X129035227Y-52381443D01*
X129029563Y-52358834D01*
X129026144Y-52335779D01*
X129025000Y-52312500D01*
X129025000Y-51737500D01*
X129026144Y-51714221D01*
X129029563Y-51691166D01*
X129035227Y-51668557D01*
X129043079Y-51646613D01*
X129053044Y-51625543D01*
X129065026Y-51605552D01*
X129078910Y-51586832D01*
X129094562Y-51569562D01*
X129111832Y-51553910D01*
X129130552Y-51540026D01*
X129150543Y-51528044D01*
X129171613Y-51518079D01*
X129193557Y-51510227D01*
X129216166Y-51504563D01*
X129239221Y-51501144D01*
X129262500Y-51500000D01*
X129737500Y-51500000D01*
X129760779Y-51501144D01*
G37*
G36*
X124760779Y-51501144D02*
G01*
X124783834Y-51504563D01*
X124806443Y-51510227D01*
X124828387Y-51518079D01*
X124849457Y-51528044D01*
X124869448Y-51540026D01*
X124888168Y-51553910D01*
X124905438Y-51569562D01*
X124921090Y-51586832D01*
X124934974Y-51605552D01*
X124946956Y-51625543D01*
X124956921Y-51646613D01*
X124964773Y-51668557D01*
X124970437Y-51691166D01*
X124973856Y-51714221D01*
X124975000Y-51737500D01*
X124975000Y-52312500D01*
X124973856Y-52335779D01*
X124970437Y-52358834D01*
X124964773Y-52381443D01*
X124956921Y-52403387D01*
X124946956Y-52424457D01*
X124934974Y-52444448D01*
X124921090Y-52463168D01*
X124905438Y-52480438D01*
X124888168Y-52496090D01*
X124869448Y-52509974D01*
X124849457Y-52521956D01*
X124828387Y-52531921D01*
X124806443Y-52539773D01*
X124783834Y-52545437D01*
X124760779Y-52548856D01*
X124737500Y-52550000D01*
X124262500Y-52550000D01*
X124239221Y-52548856D01*
X124216166Y-52545437D01*
X124193557Y-52539773D01*
X124171613Y-52531921D01*
X124150543Y-52521956D01*
X124130552Y-52509974D01*
X124111832Y-52496090D01*
X124094562Y-52480438D01*
X124078910Y-52463168D01*
X124065026Y-52444448D01*
X124053044Y-52424457D01*
X124043079Y-52403387D01*
X124035227Y-52381443D01*
X124029563Y-52358834D01*
X124026144Y-52335779D01*
X124025000Y-52312500D01*
X124025000Y-51737500D01*
X124026144Y-51714221D01*
X124029563Y-51691166D01*
X124035227Y-51668557D01*
X124043079Y-51646613D01*
X124053044Y-51625543D01*
X124065026Y-51605552D01*
X124078910Y-51586832D01*
X124094562Y-51569562D01*
X124111832Y-51553910D01*
X124130552Y-51540026D01*
X124150543Y-51528044D01*
X124171613Y-51518079D01*
X124193557Y-51510227D01*
X124216166Y-51504563D01*
X124239221Y-51501144D01*
X124262500Y-51500000D01*
X124737500Y-51500000D01*
X124760779Y-51501144D01*
G37*
G36*
X124760779Y-53251144D02*
G01*
X124783834Y-53254563D01*
X124806443Y-53260227D01*
X124828387Y-53268079D01*
X124849457Y-53278044D01*
X124869448Y-53290026D01*
X124888168Y-53303910D01*
X124905438Y-53319562D01*
X124921090Y-53336832D01*
X124934974Y-53355552D01*
X124946956Y-53375543D01*
X124956921Y-53396613D01*
X124964773Y-53418557D01*
X124970437Y-53441166D01*
X124973856Y-53464221D01*
X124975000Y-53487500D01*
X124975000Y-54062500D01*
X124973856Y-54085779D01*
X124970437Y-54108834D01*
X124964773Y-54131443D01*
X124956921Y-54153387D01*
X124946956Y-54174457D01*
X124934974Y-54194448D01*
X124921090Y-54213168D01*
X124905438Y-54230438D01*
X124888168Y-54246090D01*
X124869448Y-54259974D01*
X124849457Y-54271956D01*
X124828387Y-54281921D01*
X124806443Y-54289773D01*
X124783834Y-54295437D01*
X124760779Y-54298856D01*
X124737500Y-54300000D01*
X124262500Y-54300000D01*
X124239221Y-54298856D01*
X124216166Y-54295437D01*
X124193557Y-54289773D01*
X124171613Y-54281921D01*
X124150543Y-54271956D01*
X124130552Y-54259974D01*
X124111832Y-54246090D01*
X124094562Y-54230438D01*
X124078910Y-54213168D01*
X124065026Y-54194448D01*
X124053044Y-54174457D01*
X124043079Y-54153387D01*
X124035227Y-54131443D01*
X124029563Y-54108834D01*
X124026144Y-54085779D01*
X124025000Y-54062500D01*
X124025000Y-53487500D01*
X124026144Y-53464221D01*
X124029563Y-53441166D01*
X124035227Y-53418557D01*
X124043079Y-53396613D01*
X124053044Y-53375543D01*
X124065026Y-53355552D01*
X124078910Y-53336832D01*
X124094562Y-53319562D01*
X124111832Y-53303910D01*
X124130552Y-53290026D01*
X124150543Y-53278044D01*
X124171613Y-53268079D01*
X124193557Y-53260227D01*
X124216166Y-53254563D01*
X124239221Y-53251144D01*
X124262500Y-53250000D01*
X124737500Y-53250000D01*
X124760779Y-53251144D01*
G37*
G36*
X121435779Y-51526144D02*
G01*
X121458834Y-51529563D01*
X121481443Y-51535227D01*
X121503387Y-51543079D01*
X121524457Y-51553044D01*
X121544448Y-51565026D01*
X121563168Y-51578910D01*
X121580438Y-51594562D01*
X121596090Y-51611832D01*
X121609974Y-51630552D01*
X121621956Y-51650543D01*
X121631921Y-51671613D01*
X121639773Y-51693557D01*
X121645437Y-51716166D01*
X121648856Y-51739221D01*
X121650000Y-51762500D01*
X121650000Y-52237500D01*
X121648856Y-52260779D01*
X121645437Y-52283834D01*
X121639773Y-52306443D01*
X121631921Y-52328387D01*
X121621956Y-52349457D01*
X121609974Y-52369448D01*
X121596090Y-52388168D01*
X121580438Y-52405438D01*
X121563168Y-52421090D01*
X121544448Y-52434974D01*
X121524457Y-52446956D01*
X121503387Y-52456921D01*
X121481443Y-52464773D01*
X121458834Y-52470437D01*
X121435779Y-52473856D01*
X121412500Y-52475000D01*
X120837500Y-52475000D01*
X120814221Y-52473856D01*
X120791166Y-52470437D01*
X120768557Y-52464773D01*
X120746613Y-52456921D01*
X120725543Y-52446956D01*
X120705552Y-52434974D01*
X120686832Y-52421090D01*
X120669562Y-52405438D01*
X120653910Y-52388168D01*
X120640026Y-52369448D01*
X120628044Y-52349457D01*
X120618079Y-52328387D01*
X120610227Y-52306443D01*
X120604563Y-52283834D01*
X120601144Y-52260779D01*
X120600000Y-52237500D01*
X120600000Y-51762500D01*
X120601144Y-51739221D01*
X120604563Y-51716166D01*
X120610227Y-51693557D01*
X120618079Y-51671613D01*
X120628044Y-51650543D01*
X120640026Y-51630552D01*
X120653910Y-51611832D01*
X120669562Y-51594562D01*
X120686832Y-51578910D01*
X120705552Y-51565026D01*
X120725543Y-51553044D01*
X120746613Y-51543079D01*
X120768557Y-51535227D01*
X120791166Y-51529563D01*
X120814221Y-51526144D01*
X120837500Y-51525000D01*
X121412500Y-51525000D01*
X121435779Y-51526144D01*
G37*
G36*
X123185779Y-51526144D02*
G01*
X123208834Y-51529563D01*
X123231443Y-51535227D01*
X123253387Y-51543079D01*
X123274457Y-51553044D01*
X123294448Y-51565026D01*
X123313168Y-51578910D01*
X123330438Y-51594562D01*
X123346090Y-51611832D01*
X123359974Y-51630552D01*
X123371956Y-51650543D01*
X123381921Y-51671613D01*
X123389773Y-51693557D01*
X123395437Y-51716166D01*
X123398856Y-51739221D01*
X123400000Y-51762500D01*
X123400000Y-52237500D01*
X123398856Y-52260779D01*
X123395437Y-52283834D01*
X123389773Y-52306443D01*
X123381921Y-52328387D01*
X123371956Y-52349457D01*
X123359974Y-52369448D01*
X123346090Y-52388168D01*
X123330438Y-52405438D01*
X123313168Y-52421090D01*
X123294448Y-52434974D01*
X123274457Y-52446956D01*
X123253387Y-52456921D01*
X123231443Y-52464773D01*
X123208834Y-52470437D01*
X123185779Y-52473856D01*
X123162500Y-52475000D01*
X122587500Y-52475000D01*
X122564221Y-52473856D01*
X122541166Y-52470437D01*
X122518557Y-52464773D01*
X122496613Y-52456921D01*
X122475543Y-52446956D01*
X122455552Y-52434974D01*
X122436832Y-52421090D01*
X122419562Y-52405438D01*
X122403910Y-52388168D01*
X122390026Y-52369448D01*
X122378044Y-52349457D01*
X122368079Y-52328387D01*
X122360227Y-52306443D01*
X122354563Y-52283834D01*
X122351144Y-52260779D01*
X122350000Y-52237500D01*
X122350000Y-51762500D01*
X122351144Y-51739221D01*
X122354563Y-51716166D01*
X122360227Y-51693557D01*
X122368079Y-51671613D01*
X122378044Y-51650543D01*
X122390026Y-51630552D01*
X122403910Y-51611832D01*
X122419562Y-51594562D01*
X122436832Y-51578910D01*
X122455552Y-51565026D01*
X122475543Y-51553044D01*
X122496613Y-51543079D01*
X122518557Y-51535227D01*
X122541166Y-51529563D01*
X122564221Y-51526144D01*
X122587500Y-51525000D01*
X123162500Y-51525000D01*
X123185779Y-51526144D01*
G37*
G36*
X114935779Y-58226144D02*
G01*
X114958834Y-58229563D01*
X114981443Y-58235227D01*
X115003387Y-58243079D01*
X115024457Y-58253044D01*
X115044448Y-58265026D01*
X115063168Y-58278910D01*
X115080438Y-58294562D01*
X115096090Y-58311832D01*
X115109974Y-58330552D01*
X115121956Y-58350543D01*
X115131921Y-58371613D01*
X115139773Y-58393557D01*
X115145437Y-58416166D01*
X115148856Y-58439221D01*
X115150000Y-58462500D01*
X115150000Y-58937500D01*
X115148856Y-58960779D01*
X115145437Y-58983834D01*
X115139773Y-59006443D01*
X115131921Y-59028387D01*
X115121956Y-59049457D01*
X115109974Y-59069448D01*
X115096090Y-59088168D01*
X115080438Y-59105438D01*
X115063168Y-59121090D01*
X115044448Y-59134974D01*
X115024457Y-59146956D01*
X115003387Y-59156921D01*
X114981443Y-59164773D01*
X114958834Y-59170437D01*
X114935779Y-59173856D01*
X114912500Y-59175000D01*
X114337500Y-59175000D01*
X114314221Y-59173856D01*
X114291166Y-59170437D01*
X114268557Y-59164773D01*
X114246613Y-59156921D01*
X114225543Y-59146956D01*
X114205552Y-59134974D01*
X114186832Y-59121090D01*
X114169562Y-59105438D01*
X114153910Y-59088168D01*
X114140026Y-59069448D01*
X114128044Y-59049457D01*
X114118079Y-59028387D01*
X114110227Y-59006443D01*
X114104563Y-58983834D01*
X114101144Y-58960779D01*
X114100000Y-58937500D01*
X114100000Y-58462500D01*
X114101144Y-58439221D01*
X114104563Y-58416166D01*
X114110227Y-58393557D01*
X114118079Y-58371613D01*
X114128044Y-58350543D01*
X114140026Y-58330552D01*
X114153910Y-58311832D01*
X114169562Y-58294562D01*
X114186832Y-58278910D01*
X114205552Y-58265026D01*
X114225543Y-58253044D01*
X114246613Y-58243079D01*
X114268557Y-58235227D01*
X114291166Y-58229563D01*
X114314221Y-58226144D01*
X114337500Y-58225000D01*
X114912500Y-58225000D01*
X114935779Y-58226144D01*
G37*
G36*
X116685779Y-58226144D02*
G01*
X116708834Y-58229563D01*
X116731443Y-58235227D01*
X116753387Y-58243079D01*
X116774457Y-58253044D01*
X116794448Y-58265026D01*
X116813168Y-58278910D01*
X116830438Y-58294562D01*
X116846090Y-58311832D01*
X116859974Y-58330552D01*
X116871956Y-58350543D01*
X116881921Y-58371613D01*
X116889773Y-58393557D01*
X116895437Y-58416166D01*
X116898856Y-58439221D01*
X116900000Y-58462500D01*
X116900000Y-58937500D01*
X116898856Y-58960779D01*
X116895437Y-58983834D01*
X116889773Y-59006443D01*
X116881921Y-59028387D01*
X116871956Y-59049457D01*
X116859974Y-59069448D01*
X116846090Y-59088168D01*
X116830438Y-59105438D01*
X116813168Y-59121090D01*
X116794448Y-59134974D01*
X116774457Y-59146956D01*
X116753387Y-59156921D01*
X116731443Y-59164773D01*
X116708834Y-59170437D01*
X116685779Y-59173856D01*
X116662500Y-59175000D01*
X116087500Y-59175000D01*
X116064221Y-59173856D01*
X116041166Y-59170437D01*
X116018557Y-59164773D01*
X115996613Y-59156921D01*
X115975543Y-59146956D01*
X115955552Y-59134974D01*
X115936832Y-59121090D01*
X115919562Y-59105438D01*
X115903910Y-59088168D01*
X115890026Y-59069448D01*
X115878044Y-59049457D01*
X115868079Y-59028387D01*
X115860227Y-59006443D01*
X115854563Y-58983834D01*
X115851144Y-58960779D01*
X115850000Y-58937500D01*
X115850000Y-58462500D01*
X115851144Y-58439221D01*
X115854563Y-58416166D01*
X115860227Y-58393557D01*
X115868079Y-58371613D01*
X115878044Y-58350543D01*
X115890026Y-58330552D01*
X115903910Y-58311832D01*
X115919562Y-58294562D01*
X115936832Y-58278910D01*
X115955552Y-58265026D01*
X115975543Y-58253044D01*
X115996613Y-58243079D01*
X116018557Y-58235227D01*
X116041166Y-58229563D01*
X116064221Y-58226144D01*
X116087500Y-58225000D01*
X116662500Y-58225000D01*
X116685779Y-58226144D01*
G37*
G36*
X117860779Y-62951144D02*
G01*
X117883834Y-62954563D01*
X117906443Y-62960227D01*
X117928387Y-62968079D01*
X117949457Y-62978044D01*
X117969448Y-62990026D01*
X117988168Y-63003910D01*
X118005438Y-63019562D01*
X118021090Y-63036832D01*
X118034974Y-63055552D01*
X118046956Y-63075543D01*
X118056921Y-63096613D01*
X118064773Y-63118557D01*
X118070437Y-63141166D01*
X118073856Y-63164221D01*
X118075000Y-63187500D01*
X118075000Y-63762500D01*
X118073856Y-63785779D01*
X118070437Y-63808834D01*
X118064773Y-63831443D01*
X118056921Y-63853387D01*
X118046956Y-63874457D01*
X118034974Y-63894448D01*
X118021090Y-63913168D01*
X118005438Y-63930438D01*
X117988168Y-63946090D01*
X117969448Y-63959974D01*
X117949457Y-63971956D01*
X117928387Y-63981921D01*
X117906443Y-63989773D01*
X117883834Y-63995437D01*
X117860779Y-63998856D01*
X117837500Y-64000000D01*
X117362500Y-64000000D01*
X117339221Y-63998856D01*
X117316166Y-63995437D01*
X117293557Y-63989773D01*
X117271613Y-63981921D01*
X117250543Y-63971956D01*
X117230552Y-63959974D01*
X117211832Y-63946090D01*
X117194562Y-63930438D01*
X117178910Y-63913168D01*
X117165026Y-63894448D01*
X117153044Y-63874457D01*
X117143079Y-63853387D01*
X117135227Y-63831443D01*
X117129563Y-63808834D01*
X117126144Y-63785779D01*
X117125000Y-63762500D01*
X117125000Y-63187500D01*
X117126144Y-63164221D01*
X117129563Y-63141166D01*
X117135227Y-63118557D01*
X117143079Y-63096613D01*
X117153044Y-63075543D01*
X117165026Y-63055552D01*
X117178910Y-63036832D01*
X117194562Y-63019562D01*
X117211832Y-63003910D01*
X117230552Y-62990026D01*
X117250543Y-62978044D01*
X117271613Y-62968079D01*
X117293557Y-62960227D01*
X117316166Y-62954563D01*
X117339221Y-62951144D01*
X117362500Y-62950000D01*
X117837500Y-62950000D01*
X117860779Y-62951144D01*
G37*
G36*
X117860779Y-61201144D02*
G01*
X117883834Y-61204563D01*
X117906443Y-61210227D01*
X117928387Y-61218079D01*
X117949457Y-61228044D01*
X117969448Y-61240026D01*
X117988168Y-61253910D01*
X118005438Y-61269562D01*
X118021090Y-61286832D01*
X118034974Y-61305552D01*
X118046956Y-61325543D01*
X118056921Y-61346613D01*
X118064773Y-61368557D01*
X118070437Y-61391166D01*
X118073856Y-61414221D01*
X118075000Y-61437500D01*
X118075000Y-62012500D01*
X118073856Y-62035779D01*
X118070437Y-62058834D01*
X118064773Y-62081443D01*
X118056921Y-62103387D01*
X118046956Y-62124457D01*
X118034974Y-62144448D01*
X118021090Y-62163168D01*
X118005438Y-62180438D01*
X117988168Y-62196090D01*
X117969448Y-62209974D01*
X117949457Y-62221956D01*
X117928387Y-62231921D01*
X117906443Y-62239773D01*
X117883834Y-62245437D01*
X117860779Y-62248856D01*
X117837500Y-62250000D01*
X117362500Y-62250000D01*
X117339221Y-62248856D01*
X117316166Y-62245437D01*
X117293557Y-62239773D01*
X117271613Y-62231921D01*
X117250543Y-62221956D01*
X117230552Y-62209974D01*
X117211832Y-62196090D01*
X117194562Y-62180438D01*
X117178910Y-62163168D01*
X117165026Y-62144448D01*
X117153044Y-62124457D01*
X117143079Y-62103387D01*
X117135227Y-62081443D01*
X117129563Y-62058834D01*
X117126144Y-62035779D01*
X117125000Y-62012500D01*
X117125000Y-61437500D01*
X117126144Y-61414221D01*
X117129563Y-61391166D01*
X117135227Y-61368557D01*
X117143079Y-61346613D01*
X117153044Y-61325543D01*
X117165026Y-61305552D01*
X117178910Y-61286832D01*
X117194562Y-61269562D01*
X117211832Y-61253910D01*
X117230552Y-61240026D01*
X117250543Y-61228044D01*
X117271613Y-61218079D01*
X117293557Y-61210227D01*
X117316166Y-61204563D01*
X117339221Y-61201144D01*
X117362500Y-61200000D01*
X117837500Y-61200000D01*
X117860779Y-61201144D01*
G37*
G36*
X108435779Y-50626144D02*
G01*
X108458834Y-50629563D01*
X108481443Y-50635227D01*
X108503387Y-50643079D01*
X108524457Y-50653044D01*
X108544448Y-50665026D01*
X108563168Y-50678910D01*
X108580438Y-50694562D01*
X108596090Y-50711832D01*
X108609974Y-50730552D01*
X108621956Y-50750543D01*
X108631921Y-50771613D01*
X108639773Y-50793557D01*
X108645437Y-50816166D01*
X108648856Y-50839221D01*
X108650000Y-50862500D01*
X108650000Y-51337500D01*
X108648856Y-51360779D01*
X108645437Y-51383834D01*
X108639773Y-51406443D01*
X108631921Y-51428387D01*
X108621956Y-51449457D01*
X108609974Y-51469448D01*
X108596090Y-51488168D01*
X108580438Y-51505438D01*
X108563168Y-51521090D01*
X108544448Y-51534974D01*
X108524457Y-51546956D01*
X108503387Y-51556921D01*
X108481443Y-51564773D01*
X108458834Y-51570437D01*
X108435779Y-51573856D01*
X108412500Y-51575000D01*
X107837500Y-51575000D01*
X107814221Y-51573856D01*
X107791166Y-51570437D01*
X107768557Y-51564773D01*
X107746613Y-51556921D01*
X107725543Y-51546956D01*
X107705552Y-51534974D01*
X107686832Y-51521090D01*
X107669562Y-51505438D01*
X107653910Y-51488168D01*
X107640026Y-51469448D01*
X107628044Y-51449457D01*
X107618079Y-51428387D01*
X107610227Y-51406443D01*
X107604563Y-51383834D01*
X107601144Y-51360779D01*
X107600000Y-51337500D01*
X107600000Y-50862500D01*
X107601144Y-50839221D01*
X107604563Y-50816166D01*
X107610227Y-50793557D01*
X107618079Y-50771613D01*
X107628044Y-50750543D01*
X107640026Y-50730552D01*
X107653910Y-50711832D01*
X107669562Y-50694562D01*
X107686832Y-50678910D01*
X107705552Y-50665026D01*
X107725543Y-50653044D01*
X107746613Y-50643079D01*
X107768557Y-50635227D01*
X107791166Y-50629563D01*
X107814221Y-50626144D01*
X107837500Y-50625000D01*
X108412500Y-50625000D01*
X108435779Y-50626144D01*
G37*
G36*
X110185779Y-50626144D02*
G01*
X110208834Y-50629563D01*
X110231443Y-50635227D01*
X110253387Y-50643079D01*
X110274457Y-50653044D01*
X110294448Y-50665026D01*
X110313168Y-50678910D01*
X110330438Y-50694562D01*
X110346090Y-50711832D01*
X110359974Y-50730552D01*
X110371956Y-50750543D01*
X110381921Y-50771613D01*
X110389773Y-50793557D01*
X110395437Y-50816166D01*
X110398856Y-50839221D01*
X110400000Y-50862500D01*
X110400000Y-51337500D01*
X110398856Y-51360779D01*
X110395437Y-51383834D01*
X110389773Y-51406443D01*
X110381921Y-51428387D01*
X110371956Y-51449457D01*
X110359974Y-51469448D01*
X110346090Y-51488168D01*
X110330438Y-51505438D01*
X110313168Y-51521090D01*
X110294448Y-51534974D01*
X110274457Y-51546956D01*
X110253387Y-51556921D01*
X110231443Y-51564773D01*
X110208834Y-51570437D01*
X110185779Y-51573856D01*
X110162500Y-51575000D01*
X109587500Y-51575000D01*
X109564221Y-51573856D01*
X109541166Y-51570437D01*
X109518557Y-51564773D01*
X109496613Y-51556921D01*
X109475543Y-51546956D01*
X109455552Y-51534974D01*
X109436832Y-51521090D01*
X109419562Y-51505438D01*
X109403910Y-51488168D01*
X109390026Y-51469448D01*
X109378044Y-51449457D01*
X109368079Y-51428387D01*
X109360227Y-51406443D01*
X109354563Y-51383834D01*
X109351144Y-51360779D01*
X109350000Y-51337500D01*
X109350000Y-50862500D01*
X109351144Y-50839221D01*
X109354563Y-50816166D01*
X109360227Y-50793557D01*
X109368079Y-50771613D01*
X109378044Y-50750543D01*
X109390026Y-50730552D01*
X109403910Y-50711832D01*
X109419562Y-50694562D01*
X109436832Y-50678910D01*
X109455552Y-50665026D01*
X109475543Y-50653044D01*
X109496613Y-50643079D01*
X109518557Y-50635227D01*
X109541166Y-50629563D01*
X109564221Y-50626144D01*
X109587500Y-50625000D01*
X110162500Y-50625000D01*
X110185779Y-50626144D01*
G37*
G36*
X108435779Y-48626144D02*
G01*
X108458834Y-48629563D01*
X108481443Y-48635227D01*
X108503387Y-48643079D01*
X108524457Y-48653044D01*
X108544448Y-48665026D01*
X108563168Y-48678910D01*
X108580438Y-48694562D01*
X108596090Y-48711832D01*
X108609974Y-48730552D01*
X108621956Y-48750543D01*
X108631921Y-48771613D01*
X108639773Y-48793557D01*
X108645437Y-48816166D01*
X108648856Y-48839221D01*
X108650000Y-48862500D01*
X108650000Y-49337500D01*
X108648856Y-49360779D01*
X108645437Y-49383834D01*
X108639773Y-49406443D01*
X108631921Y-49428387D01*
X108621956Y-49449457D01*
X108609974Y-49469448D01*
X108596090Y-49488168D01*
X108580438Y-49505438D01*
X108563168Y-49521090D01*
X108544448Y-49534974D01*
X108524457Y-49546956D01*
X108503387Y-49556921D01*
X108481443Y-49564773D01*
X108458834Y-49570437D01*
X108435779Y-49573856D01*
X108412500Y-49575000D01*
X107837500Y-49575000D01*
X107814221Y-49573856D01*
X107791166Y-49570437D01*
X107768557Y-49564773D01*
X107746613Y-49556921D01*
X107725543Y-49546956D01*
X107705552Y-49534974D01*
X107686832Y-49521090D01*
X107669562Y-49505438D01*
X107653910Y-49488168D01*
X107640026Y-49469448D01*
X107628044Y-49449457D01*
X107618079Y-49428387D01*
X107610227Y-49406443D01*
X107604563Y-49383834D01*
X107601144Y-49360779D01*
X107600000Y-49337500D01*
X107600000Y-48862500D01*
X107601144Y-48839221D01*
X107604563Y-48816166D01*
X107610227Y-48793557D01*
X107618079Y-48771613D01*
X107628044Y-48750543D01*
X107640026Y-48730552D01*
X107653910Y-48711832D01*
X107669562Y-48694562D01*
X107686832Y-48678910D01*
X107705552Y-48665026D01*
X107725543Y-48653044D01*
X107746613Y-48643079D01*
X107768557Y-48635227D01*
X107791166Y-48629563D01*
X107814221Y-48626144D01*
X107837500Y-48625000D01*
X108412500Y-48625000D01*
X108435779Y-48626144D01*
G37*
G36*
X110185779Y-48626144D02*
G01*
X110208834Y-48629563D01*
X110231443Y-48635227D01*
X110253387Y-48643079D01*
X110274457Y-48653044D01*
X110294448Y-48665026D01*
X110313168Y-48678910D01*
X110330438Y-48694562D01*
X110346090Y-48711832D01*
X110359974Y-48730552D01*
X110371956Y-48750543D01*
X110381921Y-48771613D01*
X110389773Y-48793557D01*
X110395437Y-48816166D01*
X110398856Y-48839221D01*
X110400000Y-48862500D01*
X110400000Y-49337500D01*
X110398856Y-49360779D01*
X110395437Y-49383834D01*
X110389773Y-49406443D01*
X110381921Y-49428387D01*
X110371956Y-49449457D01*
X110359974Y-49469448D01*
X110346090Y-49488168D01*
X110330438Y-49505438D01*
X110313168Y-49521090D01*
X110294448Y-49534974D01*
X110274457Y-49546956D01*
X110253387Y-49556921D01*
X110231443Y-49564773D01*
X110208834Y-49570437D01*
X110185779Y-49573856D01*
X110162500Y-49575000D01*
X109587500Y-49575000D01*
X109564221Y-49573856D01*
X109541166Y-49570437D01*
X109518557Y-49564773D01*
X109496613Y-49556921D01*
X109475543Y-49546956D01*
X109455552Y-49534974D01*
X109436832Y-49521090D01*
X109419562Y-49505438D01*
X109403910Y-49488168D01*
X109390026Y-49469448D01*
X109378044Y-49449457D01*
X109368079Y-49428387D01*
X109360227Y-49406443D01*
X109354563Y-49383834D01*
X109351144Y-49360779D01*
X109350000Y-49337500D01*
X109350000Y-48862500D01*
X109351144Y-48839221D01*
X109354563Y-48816166D01*
X109360227Y-48793557D01*
X109368079Y-48771613D01*
X109378044Y-48750543D01*
X109390026Y-48730552D01*
X109403910Y-48711832D01*
X109419562Y-48694562D01*
X109436832Y-48678910D01*
X109455552Y-48665026D01*
X109475543Y-48653044D01*
X109496613Y-48643079D01*
X109518557Y-48635227D01*
X109541166Y-48629563D01*
X109564221Y-48626144D01*
X109587500Y-48625000D01*
X110162500Y-48625000D01*
X110185779Y-48626144D01*
G37*
G36*
X112564703Y-49160722D02*
G01*
X112579264Y-49162882D01*
X112593543Y-49166459D01*
X112607403Y-49171418D01*
X112620710Y-49177712D01*
X112633336Y-49185280D01*
X112645159Y-49194048D01*
X112656066Y-49203934D01*
X112665952Y-49214841D01*
X112674720Y-49226664D01*
X112682288Y-49239290D01*
X112688582Y-49252597D01*
X112693541Y-49266457D01*
X112697118Y-49280736D01*
X112699278Y-49295297D01*
X112700000Y-49310000D01*
X112700000Y-49610000D01*
X112699278Y-49624703D01*
X112697118Y-49639264D01*
X112693541Y-49653543D01*
X112688582Y-49667403D01*
X112682288Y-49680710D01*
X112674720Y-49693336D01*
X112665952Y-49705159D01*
X112656066Y-49716066D01*
X112645159Y-49725952D01*
X112633336Y-49734720D01*
X112620710Y-49742288D01*
X112607403Y-49748582D01*
X112593543Y-49753541D01*
X112579264Y-49757118D01*
X112564703Y-49759278D01*
X112550000Y-49760000D01*
X111250000Y-49760000D01*
X111235297Y-49759278D01*
X111220736Y-49757118D01*
X111206457Y-49753541D01*
X111192597Y-49748582D01*
X111179290Y-49742288D01*
X111166664Y-49734720D01*
X111154841Y-49725952D01*
X111143934Y-49716066D01*
X111134048Y-49705159D01*
X111125280Y-49693336D01*
X111117712Y-49680710D01*
X111111418Y-49667403D01*
X111106459Y-49653543D01*
X111102882Y-49639264D01*
X111100722Y-49624703D01*
X111100000Y-49610000D01*
X111100000Y-49310000D01*
X111100722Y-49295297D01*
X111102882Y-49280736D01*
X111106459Y-49266457D01*
X111111418Y-49252597D01*
X111117712Y-49239290D01*
X111125280Y-49226664D01*
X111134048Y-49214841D01*
X111143934Y-49203934D01*
X111154841Y-49194048D01*
X111166664Y-49185280D01*
X111179290Y-49177712D01*
X111192597Y-49171418D01*
X111206457Y-49166459D01*
X111220736Y-49162882D01*
X111235297Y-49160722D01*
X111250000Y-49160000D01*
X112550000Y-49160000D01*
X112564703Y-49160722D01*
G37*
G36*
X112564703Y-50430722D02*
G01*
X112579264Y-50432882D01*
X112593543Y-50436459D01*
X112607403Y-50441418D01*
X112620710Y-50447712D01*
X112633336Y-50455280D01*
X112645159Y-50464048D01*
X112656066Y-50473934D01*
X112665952Y-50484841D01*
X112674720Y-50496664D01*
X112682288Y-50509290D01*
X112688582Y-50522597D01*
X112693541Y-50536457D01*
X112697118Y-50550736D01*
X112699278Y-50565297D01*
X112700000Y-50580000D01*
X112700000Y-50880000D01*
X112699278Y-50894703D01*
X112697118Y-50909264D01*
X112693541Y-50923543D01*
X112688582Y-50937403D01*
X112682288Y-50950710D01*
X112674720Y-50963336D01*
X112665952Y-50975159D01*
X112656066Y-50986066D01*
X112645159Y-50995952D01*
X112633336Y-51004720D01*
X112620710Y-51012288D01*
X112607403Y-51018582D01*
X112593543Y-51023541D01*
X112579264Y-51027118D01*
X112564703Y-51029278D01*
X112550000Y-51030000D01*
X111250000Y-51030000D01*
X111235297Y-51029278D01*
X111220736Y-51027118D01*
X111206457Y-51023541D01*
X111192597Y-51018582D01*
X111179290Y-51012288D01*
X111166664Y-51004720D01*
X111154841Y-50995952D01*
X111143934Y-50986066D01*
X111134048Y-50975159D01*
X111125280Y-50963336D01*
X111117712Y-50950710D01*
X111111418Y-50937403D01*
X111106459Y-50923543D01*
X111102882Y-50909264D01*
X111100722Y-50894703D01*
X111100000Y-50880000D01*
X111100000Y-50580000D01*
X111100722Y-50565297D01*
X111102882Y-50550736D01*
X111106459Y-50536457D01*
X111111418Y-50522597D01*
X111117712Y-50509290D01*
X111125280Y-50496664D01*
X111134048Y-50484841D01*
X111143934Y-50473934D01*
X111154841Y-50464048D01*
X111166664Y-50455280D01*
X111179290Y-50447712D01*
X111192597Y-50441418D01*
X111206457Y-50436459D01*
X111220736Y-50432882D01*
X111235297Y-50430722D01*
X111250000Y-50430000D01*
X112550000Y-50430000D01*
X112564703Y-50430722D01*
G37*
G36*
X112564703Y-51700722D02*
G01*
X112579264Y-51702882D01*
X112593543Y-51706459D01*
X112607403Y-51711418D01*
X112620710Y-51717712D01*
X112633336Y-51725280D01*
X112645159Y-51734048D01*
X112656066Y-51743934D01*
X112665952Y-51754841D01*
X112674720Y-51766664D01*
X112682288Y-51779290D01*
X112688582Y-51792597D01*
X112693541Y-51806457D01*
X112697118Y-51820736D01*
X112699278Y-51835297D01*
X112700000Y-51850000D01*
X112700000Y-52150000D01*
X112699278Y-52164703D01*
X112697118Y-52179264D01*
X112693541Y-52193543D01*
X112688582Y-52207403D01*
X112682288Y-52220710D01*
X112674720Y-52233336D01*
X112665952Y-52245159D01*
X112656066Y-52256066D01*
X112645159Y-52265952D01*
X112633336Y-52274720D01*
X112620710Y-52282288D01*
X112607403Y-52288582D01*
X112593543Y-52293541D01*
X112579264Y-52297118D01*
X112564703Y-52299278D01*
X112550000Y-52300000D01*
X111250000Y-52300000D01*
X111235297Y-52299278D01*
X111220736Y-52297118D01*
X111206457Y-52293541D01*
X111192597Y-52288582D01*
X111179290Y-52282288D01*
X111166664Y-52274720D01*
X111154841Y-52265952D01*
X111143934Y-52256066D01*
X111134048Y-52245159D01*
X111125280Y-52233336D01*
X111117712Y-52220710D01*
X111111418Y-52207403D01*
X111106459Y-52193543D01*
X111102882Y-52179264D01*
X111100722Y-52164703D01*
X111100000Y-52150000D01*
X111100000Y-51850000D01*
X111100722Y-51835297D01*
X111102882Y-51820736D01*
X111106459Y-51806457D01*
X111111418Y-51792597D01*
X111117712Y-51779290D01*
X111125280Y-51766664D01*
X111134048Y-51754841D01*
X111143934Y-51743934D01*
X111154841Y-51734048D01*
X111166664Y-51725280D01*
X111179290Y-51717712D01*
X111192597Y-51711418D01*
X111206457Y-51706459D01*
X111220736Y-51702882D01*
X111235297Y-51700722D01*
X111250000Y-51700000D01*
X112550000Y-51700000D01*
X112564703Y-51700722D01*
G37*
G36*
X112564703Y-52970722D02*
G01*
X112579264Y-52972882D01*
X112593543Y-52976459D01*
X112607403Y-52981418D01*
X112620710Y-52987712D01*
X112633336Y-52995280D01*
X112645159Y-53004048D01*
X112656066Y-53013934D01*
X112665952Y-53024841D01*
X112674720Y-53036664D01*
X112682288Y-53049290D01*
X112688582Y-53062597D01*
X112693541Y-53076457D01*
X112697118Y-53090736D01*
X112699278Y-53105297D01*
X112700000Y-53120000D01*
X112700000Y-53420000D01*
X112699278Y-53434703D01*
X112697118Y-53449264D01*
X112693541Y-53463543D01*
X112688582Y-53477403D01*
X112682288Y-53490710D01*
X112674720Y-53503336D01*
X112665952Y-53515159D01*
X112656066Y-53526066D01*
X112645159Y-53535952D01*
X112633336Y-53544720D01*
X112620710Y-53552288D01*
X112607403Y-53558582D01*
X112593543Y-53563541D01*
X112579264Y-53567118D01*
X112564703Y-53569278D01*
X112550000Y-53570000D01*
X111250000Y-53570000D01*
X111235297Y-53569278D01*
X111220736Y-53567118D01*
X111206457Y-53563541D01*
X111192597Y-53558582D01*
X111179290Y-53552288D01*
X111166664Y-53544720D01*
X111154841Y-53535952D01*
X111143934Y-53526066D01*
X111134048Y-53515159D01*
X111125280Y-53503336D01*
X111117712Y-53490710D01*
X111111418Y-53477403D01*
X111106459Y-53463543D01*
X111102882Y-53449264D01*
X111100722Y-53434703D01*
X111100000Y-53420000D01*
X111100000Y-53120000D01*
X111100722Y-53105297D01*
X111102882Y-53090736D01*
X111106459Y-53076457D01*
X111111418Y-53062597D01*
X111117712Y-53049290D01*
X111125280Y-53036664D01*
X111134048Y-53024841D01*
X111143934Y-53013934D01*
X111154841Y-53004048D01*
X111166664Y-52995280D01*
X111179290Y-52987712D01*
X111192597Y-52981418D01*
X111206457Y-52976459D01*
X111220736Y-52972882D01*
X111235297Y-52970722D01*
X111250000Y-52970000D01*
X112550000Y-52970000D01*
X112564703Y-52970722D01*
G37*
G36*
X119764703Y-52970722D02*
G01*
X119779264Y-52972882D01*
X119793543Y-52976459D01*
X119807403Y-52981418D01*
X119820710Y-52987712D01*
X119833336Y-52995280D01*
X119845159Y-53004048D01*
X119856066Y-53013934D01*
X119865952Y-53024841D01*
X119874720Y-53036664D01*
X119882288Y-53049290D01*
X119888582Y-53062597D01*
X119893541Y-53076457D01*
X119897118Y-53090736D01*
X119899278Y-53105297D01*
X119900000Y-53120000D01*
X119900000Y-53420000D01*
X119899278Y-53434703D01*
X119897118Y-53449264D01*
X119893541Y-53463543D01*
X119888582Y-53477403D01*
X119882288Y-53490710D01*
X119874720Y-53503336D01*
X119865952Y-53515159D01*
X119856066Y-53526066D01*
X119845159Y-53535952D01*
X119833336Y-53544720D01*
X119820710Y-53552288D01*
X119807403Y-53558582D01*
X119793543Y-53563541D01*
X119779264Y-53567118D01*
X119764703Y-53569278D01*
X119750000Y-53570000D01*
X118450000Y-53570000D01*
X118435297Y-53569278D01*
X118420736Y-53567118D01*
X118406457Y-53563541D01*
X118392597Y-53558582D01*
X118379290Y-53552288D01*
X118366664Y-53544720D01*
X118354841Y-53535952D01*
X118343934Y-53526066D01*
X118334048Y-53515159D01*
X118325280Y-53503336D01*
X118317712Y-53490710D01*
X118311418Y-53477403D01*
X118306459Y-53463543D01*
X118302882Y-53449264D01*
X118300722Y-53434703D01*
X118300000Y-53420000D01*
X118300000Y-53120000D01*
X118300722Y-53105297D01*
X118302882Y-53090736D01*
X118306459Y-53076457D01*
X118311418Y-53062597D01*
X118317712Y-53049290D01*
X118325280Y-53036664D01*
X118334048Y-53024841D01*
X118343934Y-53013934D01*
X118354841Y-53004048D01*
X118366664Y-52995280D01*
X118379290Y-52987712D01*
X118392597Y-52981418D01*
X118406457Y-52976459D01*
X118420736Y-52972882D01*
X118435297Y-52970722D01*
X118450000Y-52970000D01*
X119750000Y-52970000D01*
X119764703Y-52970722D01*
G37*
G36*
X119764703Y-51700722D02*
G01*
X119779264Y-51702882D01*
X119793543Y-51706459D01*
X119807403Y-51711418D01*
X119820710Y-51717712D01*
X119833336Y-51725280D01*
X119845159Y-51734048D01*
X119856066Y-51743934D01*
X119865952Y-51754841D01*
X119874720Y-51766664D01*
X119882288Y-51779290D01*
X119888582Y-51792597D01*
X119893541Y-51806457D01*
X119897118Y-51820736D01*
X119899278Y-51835297D01*
X119900000Y-51850000D01*
X119900000Y-52150000D01*
X119899278Y-52164703D01*
X119897118Y-52179264D01*
X119893541Y-52193543D01*
X119888582Y-52207403D01*
X119882288Y-52220710D01*
X119874720Y-52233336D01*
X119865952Y-52245159D01*
X119856066Y-52256066D01*
X119845159Y-52265952D01*
X119833336Y-52274720D01*
X119820710Y-52282288D01*
X119807403Y-52288582D01*
X119793543Y-52293541D01*
X119779264Y-52297118D01*
X119764703Y-52299278D01*
X119750000Y-52300000D01*
X118450000Y-52300000D01*
X118435297Y-52299278D01*
X118420736Y-52297118D01*
X118406457Y-52293541D01*
X118392597Y-52288582D01*
X118379290Y-52282288D01*
X118366664Y-52274720D01*
X118354841Y-52265952D01*
X118343934Y-52256066D01*
X118334048Y-52245159D01*
X118325280Y-52233336D01*
X118317712Y-52220710D01*
X118311418Y-52207403D01*
X118306459Y-52193543D01*
X118302882Y-52179264D01*
X118300722Y-52164703D01*
X118300000Y-52150000D01*
X118300000Y-51850000D01*
X118300722Y-51835297D01*
X118302882Y-51820736D01*
X118306459Y-51806457D01*
X118311418Y-51792597D01*
X118317712Y-51779290D01*
X118325280Y-51766664D01*
X118334048Y-51754841D01*
X118343934Y-51743934D01*
X118354841Y-51734048D01*
X118366664Y-51725280D01*
X118379290Y-51717712D01*
X118392597Y-51711418D01*
X118406457Y-51706459D01*
X118420736Y-51702882D01*
X118435297Y-51700722D01*
X118450000Y-51700000D01*
X119750000Y-51700000D01*
X119764703Y-51700722D01*
G37*
G36*
X119764703Y-50430722D02*
G01*
X119779264Y-50432882D01*
X119793543Y-50436459D01*
X119807403Y-50441418D01*
X119820710Y-50447712D01*
X119833336Y-50455280D01*
X119845159Y-50464048D01*
X119856066Y-50473934D01*
X119865952Y-50484841D01*
X119874720Y-50496664D01*
X119882288Y-50509290D01*
X119888582Y-50522597D01*
X119893541Y-50536457D01*
X119897118Y-50550736D01*
X119899278Y-50565297D01*
X119900000Y-50580000D01*
X119900000Y-50880000D01*
X119899278Y-50894703D01*
X119897118Y-50909264D01*
X119893541Y-50923543D01*
X119888582Y-50937403D01*
X119882288Y-50950710D01*
X119874720Y-50963336D01*
X119865952Y-50975159D01*
X119856066Y-50986066D01*
X119845159Y-50995952D01*
X119833336Y-51004720D01*
X119820710Y-51012288D01*
X119807403Y-51018582D01*
X119793543Y-51023541D01*
X119779264Y-51027118D01*
X119764703Y-51029278D01*
X119750000Y-51030000D01*
X118450000Y-51030000D01*
X118435297Y-51029278D01*
X118420736Y-51027118D01*
X118406457Y-51023541D01*
X118392597Y-51018582D01*
X118379290Y-51012288D01*
X118366664Y-51004720D01*
X118354841Y-50995952D01*
X118343934Y-50986066D01*
X118334048Y-50975159D01*
X118325280Y-50963336D01*
X118317712Y-50950710D01*
X118311418Y-50937403D01*
X118306459Y-50923543D01*
X118302882Y-50909264D01*
X118300722Y-50894703D01*
X118300000Y-50880000D01*
X118300000Y-50580000D01*
X118300722Y-50565297D01*
X118302882Y-50550736D01*
X118306459Y-50536457D01*
X118311418Y-50522597D01*
X118317712Y-50509290D01*
X118325280Y-50496664D01*
X118334048Y-50484841D01*
X118343934Y-50473934D01*
X118354841Y-50464048D01*
X118366664Y-50455280D01*
X118379290Y-50447712D01*
X118392597Y-50441418D01*
X118406457Y-50436459D01*
X118420736Y-50432882D01*
X118435297Y-50430722D01*
X118450000Y-50430000D01*
X119750000Y-50430000D01*
X119764703Y-50430722D01*
G37*
G36*
X119764703Y-49160722D02*
G01*
X119779264Y-49162882D01*
X119793543Y-49166459D01*
X119807403Y-49171418D01*
X119820710Y-49177712D01*
X119833336Y-49185280D01*
X119845159Y-49194048D01*
X119856066Y-49203934D01*
X119865952Y-49214841D01*
X119874720Y-49226664D01*
X119882288Y-49239290D01*
X119888582Y-49252597D01*
X119893541Y-49266457D01*
X119897118Y-49280736D01*
X119899278Y-49295297D01*
X119900000Y-49310000D01*
X119900000Y-49610000D01*
X119899278Y-49624703D01*
X119897118Y-49639264D01*
X119893541Y-49653543D01*
X119888582Y-49667403D01*
X119882288Y-49680710D01*
X119874720Y-49693336D01*
X119865952Y-49705159D01*
X119856066Y-49716066D01*
X119845159Y-49725952D01*
X119833336Y-49734720D01*
X119820710Y-49742288D01*
X119807403Y-49748582D01*
X119793543Y-49753541D01*
X119779264Y-49757118D01*
X119764703Y-49759278D01*
X119750000Y-49760000D01*
X118450000Y-49760000D01*
X118435297Y-49759278D01*
X118420736Y-49757118D01*
X118406457Y-49753541D01*
X118392597Y-49748582D01*
X118379290Y-49742288D01*
X118366664Y-49734720D01*
X118354841Y-49725952D01*
X118343934Y-49716066D01*
X118334048Y-49705159D01*
X118325280Y-49693336D01*
X118317712Y-49680710D01*
X118311418Y-49667403D01*
X118306459Y-49653543D01*
X118302882Y-49639264D01*
X118300722Y-49624703D01*
X118300000Y-49610000D01*
X118300000Y-49310000D01*
X118300722Y-49295297D01*
X118302882Y-49280736D01*
X118306459Y-49266457D01*
X118311418Y-49252597D01*
X118317712Y-49239290D01*
X118325280Y-49226664D01*
X118334048Y-49214841D01*
X118343934Y-49203934D01*
X118354841Y-49194048D01*
X118366664Y-49185280D01*
X118379290Y-49177712D01*
X118392597Y-49171418D01*
X118406457Y-49166459D01*
X118420736Y-49162882D01*
X118435297Y-49160722D01*
X118450000Y-49160000D01*
X119750000Y-49160000D01*
X119764703Y-49160722D01*
G37*
G36*
X134314703Y-60205722D02*
G01*
X134329264Y-60207882D01*
X134343543Y-60211459D01*
X134357403Y-60216418D01*
X134370710Y-60222712D01*
X134383336Y-60230280D01*
X134395159Y-60239048D01*
X134406066Y-60248934D01*
X134415952Y-60259841D01*
X134424720Y-60271664D01*
X134432288Y-60284290D01*
X134438582Y-60297597D01*
X134443541Y-60311457D01*
X134447118Y-60325736D01*
X134449278Y-60340297D01*
X134450000Y-60355000D01*
X134450000Y-60655000D01*
X134449278Y-60669703D01*
X134447118Y-60684264D01*
X134443541Y-60698543D01*
X134438582Y-60712403D01*
X134432288Y-60725710D01*
X134424720Y-60738336D01*
X134415952Y-60750159D01*
X134406066Y-60761066D01*
X134395159Y-60770952D01*
X134383336Y-60779720D01*
X134370710Y-60787288D01*
X134357403Y-60793582D01*
X134343543Y-60798541D01*
X134329264Y-60802118D01*
X134314703Y-60804278D01*
X134300000Y-60805000D01*
X132650000Y-60805000D01*
X132635297Y-60804278D01*
X132620736Y-60802118D01*
X132606457Y-60798541D01*
X132592597Y-60793582D01*
X132579290Y-60787288D01*
X132566664Y-60779720D01*
X132554841Y-60770952D01*
X132543934Y-60761066D01*
X132534048Y-60750159D01*
X132525280Y-60738336D01*
X132517712Y-60725710D01*
X132511418Y-60712403D01*
X132506459Y-60698543D01*
X132502882Y-60684264D01*
X132500722Y-60669703D01*
X132500000Y-60655000D01*
X132500000Y-60355000D01*
X132500722Y-60340297D01*
X132502882Y-60325736D01*
X132506459Y-60311457D01*
X132511418Y-60297597D01*
X132517712Y-60284290D01*
X132525280Y-60271664D01*
X132534048Y-60259841D01*
X132543934Y-60248934D01*
X132554841Y-60239048D01*
X132566664Y-60230280D01*
X132579290Y-60222712D01*
X132592597Y-60216418D01*
X132606457Y-60211459D01*
X132620736Y-60207882D01*
X132635297Y-60205722D01*
X132650000Y-60205000D01*
X134300000Y-60205000D01*
X134314703Y-60205722D01*
G37*
G36*
X134314703Y-58935722D02*
G01*
X134329264Y-58937882D01*
X134343543Y-58941459D01*
X134357403Y-58946418D01*
X134370710Y-58952712D01*
X134383336Y-58960280D01*
X134395159Y-58969048D01*
X134406066Y-58978934D01*
X134415952Y-58989841D01*
X134424720Y-59001664D01*
X134432288Y-59014290D01*
X134438582Y-59027597D01*
X134443541Y-59041457D01*
X134447118Y-59055736D01*
X134449278Y-59070297D01*
X134450000Y-59085000D01*
X134450000Y-59385000D01*
X134449278Y-59399703D01*
X134447118Y-59414264D01*
X134443541Y-59428543D01*
X134438582Y-59442403D01*
X134432288Y-59455710D01*
X134424720Y-59468336D01*
X134415952Y-59480159D01*
X134406066Y-59491066D01*
X134395159Y-59500952D01*
X134383336Y-59509720D01*
X134370710Y-59517288D01*
X134357403Y-59523582D01*
X134343543Y-59528541D01*
X134329264Y-59532118D01*
X134314703Y-59534278D01*
X134300000Y-59535000D01*
X132650000Y-59535000D01*
X132635297Y-59534278D01*
X132620736Y-59532118D01*
X132606457Y-59528541D01*
X132592597Y-59523582D01*
X132579290Y-59517288D01*
X132566664Y-59509720D01*
X132554841Y-59500952D01*
X132543934Y-59491066D01*
X132534048Y-59480159D01*
X132525280Y-59468336D01*
X132517712Y-59455710D01*
X132511418Y-59442403D01*
X132506459Y-59428543D01*
X132502882Y-59414264D01*
X132500722Y-59399703D01*
X132500000Y-59385000D01*
X132500000Y-59085000D01*
X132500722Y-59070297D01*
X132502882Y-59055736D01*
X132506459Y-59041457D01*
X132511418Y-59027597D01*
X132517712Y-59014290D01*
X132525280Y-59001664D01*
X132534048Y-58989841D01*
X132543934Y-58978934D01*
X132554841Y-58969048D01*
X132566664Y-58960280D01*
X132579290Y-58952712D01*
X132592597Y-58946418D01*
X132606457Y-58941459D01*
X132620736Y-58937882D01*
X132635297Y-58935722D01*
X132650000Y-58935000D01*
X134300000Y-58935000D01*
X134314703Y-58935722D01*
G37*
G36*
X134314703Y-57665722D02*
G01*
X134329264Y-57667882D01*
X134343543Y-57671459D01*
X134357403Y-57676418D01*
X134370710Y-57682712D01*
X134383336Y-57690280D01*
X134395159Y-57699048D01*
X134406066Y-57708934D01*
X134415952Y-57719841D01*
X134424720Y-57731664D01*
X134432288Y-57744290D01*
X134438582Y-57757597D01*
X134443541Y-57771457D01*
X134447118Y-57785736D01*
X134449278Y-57800297D01*
X134450000Y-57815000D01*
X134450000Y-58115000D01*
X134449278Y-58129703D01*
X134447118Y-58144264D01*
X134443541Y-58158543D01*
X134438582Y-58172403D01*
X134432288Y-58185710D01*
X134424720Y-58198336D01*
X134415952Y-58210159D01*
X134406066Y-58221066D01*
X134395159Y-58230952D01*
X134383336Y-58239720D01*
X134370710Y-58247288D01*
X134357403Y-58253582D01*
X134343543Y-58258541D01*
X134329264Y-58262118D01*
X134314703Y-58264278D01*
X134300000Y-58265000D01*
X132650000Y-58265000D01*
X132635297Y-58264278D01*
X132620736Y-58262118D01*
X132606457Y-58258541D01*
X132592597Y-58253582D01*
X132579290Y-58247288D01*
X132566664Y-58239720D01*
X132554841Y-58230952D01*
X132543934Y-58221066D01*
X132534048Y-58210159D01*
X132525280Y-58198336D01*
X132517712Y-58185710D01*
X132511418Y-58172403D01*
X132506459Y-58158543D01*
X132502882Y-58144264D01*
X132500722Y-58129703D01*
X132500000Y-58115000D01*
X132500000Y-57815000D01*
X132500722Y-57800297D01*
X132502882Y-57785736D01*
X132506459Y-57771457D01*
X132511418Y-57757597D01*
X132517712Y-57744290D01*
X132525280Y-57731664D01*
X132534048Y-57719841D01*
X132543934Y-57708934D01*
X132554841Y-57699048D01*
X132566664Y-57690280D01*
X132579290Y-57682712D01*
X132592597Y-57676418D01*
X132606457Y-57671459D01*
X132620736Y-57667882D01*
X132635297Y-57665722D01*
X132650000Y-57665000D01*
X134300000Y-57665000D01*
X134314703Y-57665722D01*
G37*
G36*
X134314703Y-56395722D02*
G01*
X134329264Y-56397882D01*
X134343543Y-56401459D01*
X134357403Y-56406418D01*
X134370710Y-56412712D01*
X134383336Y-56420280D01*
X134395159Y-56429048D01*
X134406066Y-56438934D01*
X134415952Y-56449841D01*
X134424720Y-56461664D01*
X134432288Y-56474290D01*
X134438582Y-56487597D01*
X134443541Y-56501457D01*
X134447118Y-56515736D01*
X134449278Y-56530297D01*
X134450000Y-56545000D01*
X134450000Y-56845000D01*
X134449278Y-56859703D01*
X134447118Y-56874264D01*
X134443541Y-56888543D01*
X134438582Y-56902403D01*
X134432288Y-56915710D01*
X134424720Y-56928336D01*
X134415952Y-56940159D01*
X134406066Y-56951066D01*
X134395159Y-56960952D01*
X134383336Y-56969720D01*
X134370710Y-56977288D01*
X134357403Y-56983582D01*
X134343543Y-56988541D01*
X134329264Y-56992118D01*
X134314703Y-56994278D01*
X134300000Y-56995000D01*
X132650000Y-56995000D01*
X132635297Y-56994278D01*
X132620736Y-56992118D01*
X132606457Y-56988541D01*
X132592597Y-56983582D01*
X132579290Y-56977288D01*
X132566664Y-56969720D01*
X132554841Y-56960952D01*
X132543934Y-56951066D01*
X132534048Y-56940159D01*
X132525280Y-56928336D01*
X132517712Y-56915710D01*
X132511418Y-56902403D01*
X132506459Y-56888543D01*
X132502882Y-56874264D01*
X132500722Y-56859703D01*
X132500000Y-56845000D01*
X132500000Y-56545000D01*
X132500722Y-56530297D01*
X132502882Y-56515736D01*
X132506459Y-56501457D01*
X132511418Y-56487597D01*
X132517712Y-56474290D01*
X132525280Y-56461664D01*
X132534048Y-56449841D01*
X132543934Y-56438934D01*
X132554841Y-56429048D01*
X132566664Y-56420280D01*
X132579290Y-56412712D01*
X132592597Y-56406418D01*
X132606457Y-56401459D01*
X132620736Y-56397882D01*
X132635297Y-56395722D01*
X132650000Y-56395000D01*
X134300000Y-56395000D01*
X134314703Y-56395722D01*
G37*
G36*
X129364703Y-56395722D02*
G01*
X129379264Y-56397882D01*
X129393543Y-56401459D01*
X129407403Y-56406418D01*
X129420710Y-56412712D01*
X129433336Y-56420280D01*
X129445159Y-56429048D01*
X129456066Y-56438934D01*
X129465952Y-56449841D01*
X129474720Y-56461664D01*
X129482288Y-56474290D01*
X129488582Y-56487597D01*
X129493541Y-56501457D01*
X129497118Y-56515736D01*
X129499278Y-56530297D01*
X129500000Y-56545000D01*
X129500000Y-56845000D01*
X129499278Y-56859703D01*
X129497118Y-56874264D01*
X129493541Y-56888543D01*
X129488582Y-56902403D01*
X129482288Y-56915710D01*
X129474720Y-56928336D01*
X129465952Y-56940159D01*
X129456066Y-56951066D01*
X129445159Y-56960952D01*
X129433336Y-56969720D01*
X129420710Y-56977288D01*
X129407403Y-56983582D01*
X129393543Y-56988541D01*
X129379264Y-56992118D01*
X129364703Y-56994278D01*
X129350000Y-56995000D01*
X127700000Y-56995000D01*
X127685297Y-56994278D01*
X127670736Y-56992118D01*
X127656457Y-56988541D01*
X127642597Y-56983582D01*
X127629290Y-56977288D01*
X127616664Y-56969720D01*
X127604841Y-56960952D01*
X127593934Y-56951066D01*
X127584048Y-56940159D01*
X127575280Y-56928336D01*
X127567712Y-56915710D01*
X127561418Y-56902403D01*
X127556459Y-56888543D01*
X127552882Y-56874264D01*
X127550722Y-56859703D01*
X127550000Y-56845000D01*
X127550000Y-56545000D01*
X127550722Y-56530297D01*
X127552882Y-56515736D01*
X127556459Y-56501457D01*
X127561418Y-56487597D01*
X127567712Y-56474290D01*
X127575280Y-56461664D01*
X127584048Y-56449841D01*
X127593934Y-56438934D01*
X127604841Y-56429048D01*
X127616664Y-56420280D01*
X127629290Y-56412712D01*
X127642597Y-56406418D01*
X127656457Y-56401459D01*
X127670736Y-56397882D01*
X127685297Y-56395722D01*
X127700000Y-56395000D01*
X129350000Y-56395000D01*
X129364703Y-56395722D01*
G37*
G36*
X129364703Y-57665722D02*
G01*
X129379264Y-57667882D01*
X129393543Y-57671459D01*
X129407403Y-57676418D01*
X129420710Y-57682712D01*
X129433336Y-57690280D01*
X129445159Y-57699048D01*
X129456066Y-57708934D01*
X129465952Y-57719841D01*
X129474720Y-57731664D01*
X129482288Y-57744290D01*
X129488582Y-57757597D01*
X129493541Y-57771457D01*
X129497118Y-57785736D01*
X129499278Y-57800297D01*
X129500000Y-57815000D01*
X129500000Y-58115000D01*
X129499278Y-58129703D01*
X129497118Y-58144264D01*
X129493541Y-58158543D01*
X129488582Y-58172403D01*
X129482288Y-58185710D01*
X129474720Y-58198336D01*
X129465952Y-58210159D01*
X129456066Y-58221066D01*
X129445159Y-58230952D01*
X129433336Y-58239720D01*
X129420710Y-58247288D01*
X129407403Y-58253582D01*
X129393543Y-58258541D01*
X129379264Y-58262118D01*
X129364703Y-58264278D01*
X129350000Y-58265000D01*
X127700000Y-58265000D01*
X127685297Y-58264278D01*
X127670736Y-58262118D01*
X127656457Y-58258541D01*
X127642597Y-58253582D01*
X127629290Y-58247288D01*
X127616664Y-58239720D01*
X127604841Y-58230952D01*
X127593934Y-58221066D01*
X127584048Y-58210159D01*
X127575280Y-58198336D01*
X127567712Y-58185710D01*
X127561418Y-58172403D01*
X127556459Y-58158543D01*
X127552882Y-58144264D01*
X127550722Y-58129703D01*
X127550000Y-58115000D01*
X127550000Y-57815000D01*
X127550722Y-57800297D01*
X127552882Y-57785736D01*
X127556459Y-57771457D01*
X127561418Y-57757597D01*
X127567712Y-57744290D01*
X127575280Y-57731664D01*
X127584048Y-57719841D01*
X127593934Y-57708934D01*
X127604841Y-57699048D01*
X127616664Y-57690280D01*
X127629290Y-57682712D01*
X127642597Y-57676418D01*
X127656457Y-57671459D01*
X127670736Y-57667882D01*
X127685297Y-57665722D01*
X127700000Y-57665000D01*
X129350000Y-57665000D01*
X129364703Y-57665722D01*
G37*
G36*
X129364703Y-58935722D02*
G01*
X129379264Y-58937882D01*
X129393543Y-58941459D01*
X129407403Y-58946418D01*
X129420710Y-58952712D01*
X129433336Y-58960280D01*
X129445159Y-58969048D01*
X129456066Y-58978934D01*
X129465952Y-58989841D01*
X129474720Y-59001664D01*
X129482288Y-59014290D01*
X129488582Y-59027597D01*
X129493541Y-59041457D01*
X129497118Y-59055736D01*
X129499278Y-59070297D01*
X129500000Y-59085000D01*
X129500000Y-59385000D01*
X129499278Y-59399703D01*
X129497118Y-59414264D01*
X129493541Y-59428543D01*
X129488582Y-59442403D01*
X129482288Y-59455710D01*
X129474720Y-59468336D01*
X129465952Y-59480159D01*
X129456066Y-59491066D01*
X129445159Y-59500952D01*
X129433336Y-59509720D01*
X129420710Y-59517288D01*
X129407403Y-59523582D01*
X129393543Y-59528541D01*
X129379264Y-59532118D01*
X129364703Y-59534278D01*
X129350000Y-59535000D01*
X127700000Y-59535000D01*
X127685297Y-59534278D01*
X127670736Y-59532118D01*
X127656457Y-59528541D01*
X127642597Y-59523582D01*
X127629290Y-59517288D01*
X127616664Y-59509720D01*
X127604841Y-59500952D01*
X127593934Y-59491066D01*
X127584048Y-59480159D01*
X127575280Y-59468336D01*
X127567712Y-59455710D01*
X127561418Y-59442403D01*
X127556459Y-59428543D01*
X127552882Y-59414264D01*
X127550722Y-59399703D01*
X127550000Y-59385000D01*
X127550000Y-59085000D01*
X127550722Y-59070297D01*
X127552882Y-59055736D01*
X127556459Y-59041457D01*
X127561418Y-59027597D01*
X127567712Y-59014290D01*
X127575280Y-59001664D01*
X127584048Y-58989841D01*
X127593934Y-58978934D01*
X127604841Y-58969048D01*
X127616664Y-58960280D01*
X127629290Y-58952712D01*
X127642597Y-58946418D01*
X127656457Y-58941459D01*
X127670736Y-58937882D01*
X127685297Y-58935722D01*
X127700000Y-58935000D01*
X129350000Y-58935000D01*
X129364703Y-58935722D01*
G37*
G36*
X129364703Y-60205722D02*
G01*
X129379264Y-60207882D01*
X129393543Y-60211459D01*
X129407403Y-60216418D01*
X129420710Y-60222712D01*
X129433336Y-60230280D01*
X129445159Y-60239048D01*
X129456066Y-60248934D01*
X129465952Y-60259841D01*
X129474720Y-60271664D01*
X129482288Y-60284290D01*
X129488582Y-60297597D01*
X129493541Y-60311457D01*
X129497118Y-60325736D01*
X129499278Y-60340297D01*
X129500000Y-60355000D01*
X129500000Y-60655000D01*
X129499278Y-60669703D01*
X129497118Y-60684264D01*
X129493541Y-60698543D01*
X129488582Y-60712403D01*
X129482288Y-60725710D01*
X129474720Y-60738336D01*
X129465952Y-60750159D01*
X129456066Y-60761066D01*
X129445159Y-60770952D01*
X129433336Y-60779720D01*
X129420710Y-60787288D01*
X129407403Y-60793582D01*
X129393543Y-60798541D01*
X129379264Y-60802118D01*
X129364703Y-60804278D01*
X129350000Y-60805000D01*
X127700000Y-60805000D01*
X127685297Y-60804278D01*
X127670736Y-60802118D01*
X127656457Y-60798541D01*
X127642597Y-60793582D01*
X127629290Y-60787288D01*
X127616664Y-60779720D01*
X127604841Y-60770952D01*
X127593934Y-60761066D01*
X127584048Y-60750159D01*
X127575280Y-60738336D01*
X127567712Y-60725710D01*
X127561418Y-60712403D01*
X127556459Y-60698543D01*
X127552882Y-60684264D01*
X127550722Y-60669703D01*
X127550000Y-60655000D01*
X127550000Y-60355000D01*
X127550722Y-60340297D01*
X127552882Y-60325736D01*
X127556459Y-60311457D01*
X127561418Y-60297597D01*
X127567712Y-60284290D01*
X127575280Y-60271664D01*
X127584048Y-60259841D01*
X127593934Y-60248934D01*
X127604841Y-60239048D01*
X127616664Y-60230280D01*
X127629290Y-60222712D01*
X127642597Y-60216418D01*
X127656457Y-60211459D01*
X127670736Y-60207882D01*
X127685297Y-60205722D01*
X127700000Y-60205000D01*
X129350000Y-60205000D01*
X129364703Y-60205722D01*
G37*
D11*
X135750000Y-52070000D03*
X134450000Y-52070000D03*
X135100000Y-54730000D03*
D10*
G36*
X116012252Y-59975602D02*
G01*
X116024386Y-59977402D01*
X116036286Y-59980382D01*
X116047835Y-59984515D01*
X116058925Y-59989760D01*
X116069446Y-59996066D01*
X116079299Y-60003374D01*
X116088388Y-60011612D01*
X116096626Y-60020701D01*
X116103934Y-60030554D01*
X116110240Y-60041075D01*
X116115485Y-60052165D01*
X116119618Y-60063714D01*
X116122598Y-60075614D01*
X116124398Y-60087748D01*
X116125000Y-60100000D01*
X116125000Y-61475000D01*
X116124398Y-61487252D01*
X116122598Y-61499386D01*
X116119618Y-61511286D01*
X116115485Y-61522835D01*
X116110240Y-61533925D01*
X116103934Y-61544446D01*
X116096626Y-61554299D01*
X116088388Y-61563388D01*
X116079299Y-61571626D01*
X116069446Y-61578934D01*
X116058925Y-61585240D01*
X116047835Y-61590485D01*
X116036286Y-61594618D01*
X116024386Y-61597598D01*
X116012252Y-61599398D01*
X116000000Y-61600000D01*
X115750000Y-61600000D01*
X115737748Y-61599398D01*
X115725614Y-61597598D01*
X115713714Y-61594618D01*
X115702165Y-61590485D01*
X115691075Y-61585240D01*
X115680554Y-61578934D01*
X115670701Y-61571626D01*
X115661612Y-61563388D01*
X115653374Y-61554299D01*
X115646066Y-61544446D01*
X115639760Y-61533925D01*
X115634515Y-61522835D01*
X115630382Y-61511286D01*
X115627402Y-61499386D01*
X115625602Y-61487252D01*
X115625000Y-61475000D01*
X115625000Y-60100000D01*
X115625602Y-60087748D01*
X115627402Y-60075614D01*
X115630382Y-60063714D01*
X115634515Y-60052165D01*
X115639760Y-60041075D01*
X115646066Y-60030554D01*
X115653374Y-60020701D01*
X115661612Y-60011612D01*
X115670701Y-60003374D01*
X115680554Y-59996066D01*
X115691075Y-59989760D01*
X115702165Y-59984515D01*
X115713714Y-59980382D01*
X115725614Y-59977402D01*
X115737748Y-59975602D01*
X115750000Y-59975000D01*
X116000000Y-59975000D01*
X116012252Y-59975602D01*
G37*
G36*
X115362252Y-59975602D02*
G01*
X115374386Y-59977402D01*
X115386286Y-59980382D01*
X115397835Y-59984515D01*
X115408925Y-59989760D01*
X115419446Y-59996066D01*
X115429299Y-60003374D01*
X115438388Y-60011612D01*
X115446626Y-60020701D01*
X115453934Y-60030554D01*
X115460240Y-60041075D01*
X115465485Y-60052165D01*
X115469618Y-60063714D01*
X115472598Y-60075614D01*
X115474398Y-60087748D01*
X115475000Y-60100000D01*
X115475000Y-61475000D01*
X115474398Y-61487252D01*
X115472598Y-61499386D01*
X115469618Y-61511286D01*
X115465485Y-61522835D01*
X115460240Y-61533925D01*
X115453934Y-61544446D01*
X115446626Y-61554299D01*
X115438388Y-61563388D01*
X115429299Y-61571626D01*
X115419446Y-61578934D01*
X115408925Y-61585240D01*
X115397835Y-61590485D01*
X115386286Y-61594618D01*
X115374386Y-61597598D01*
X115362252Y-61599398D01*
X115350000Y-61600000D01*
X115100000Y-61600000D01*
X115087748Y-61599398D01*
X115075614Y-61597598D01*
X115063714Y-61594618D01*
X115052165Y-61590485D01*
X115041075Y-61585240D01*
X115030554Y-61578934D01*
X115020701Y-61571626D01*
X115011612Y-61563388D01*
X115003374Y-61554299D01*
X114996066Y-61544446D01*
X114989760Y-61533925D01*
X114984515Y-61522835D01*
X114980382Y-61511286D01*
X114977402Y-61499386D01*
X114975602Y-61487252D01*
X114975000Y-61475000D01*
X114975000Y-60100000D01*
X114975602Y-60087748D01*
X114977402Y-60075614D01*
X114980382Y-60063714D01*
X114984515Y-60052165D01*
X114989760Y-60041075D01*
X114996066Y-60030554D01*
X115003374Y-60020701D01*
X115011612Y-60011612D01*
X115020701Y-60003374D01*
X115030554Y-59996066D01*
X115041075Y-59989760D01*
X115052165Y-59984515D01*
X115063714Y-59980382D01*
X115075614Y-59977402D01*
X115087748Y-59975602D01*
X115100000Y-59975000D01*
X115350000Y-59975000D01*
X115362252Y-59975602D01*
G37*
G36*
X114712252Y-59975602D02*
G01*
X114724386Y-59977402D01*
X114736286Y-59980382D01*
X114747835Y-59984515D01*
X114758925Y-59989760D01*
X114769446Y-59996066D01*
X114779299Y-60003374D01*
X114788388Y-60011612D01*
X114796626Y-60020701D01*
X114803934Y-60030554D01*
X114810240Y-60041075D01*
X114815485Y-60052165D01*
X114819618Y-60063714D01*
X114822598Y-60075614D01*
X114824398Y-60087748D01*
X114825000Y-60100000D01*
X114825000Y-61475000D01*
X114824398Y-61487252D01*
X114822598Y-61499386D01*
X114819618Y-61511286D01*
X114815485Y-61522835D01*
X114810240Y-61533925D01*
X114803934Y-61544446D01*
X114796626Y-61554299D01*
X114788388Y-61563388D01*
X114779299Y-61571626D01*
X114769446Y-61578934D01*
X114758925Y-61585240D01*
X114747835Y-61590485D01*
X114736286Y-61594618D01*
X114724386Y-61597598D01*
X114712252Y-61599398D01*
X114700000Y-61600000D01*
X114450000Y-61600000D01*
X114437748Y-61599398D01*
X114425614Y-61597598D01*
X114413714Y-61594618D01*
X114402165Y-61590485D01*
X114391075Y-61585240D01*
X114380554Y-61578934D01*
X114370701Y-61571626D01*
X114361612Y-61563388D01*
X114353374Y-61554299D01*
X114346066Y-61544446D01*
X114339760Y-61533925D01*
X114334515Y-61522835D01*
X114330382Y-61511286D01*
X114327402Y-61499386D01*
X114325602Y-61487252D01*
X114325000Y-61475000D01*
X114325000Y-60100000D01*
X114325602Y-60087748D01*
X114327402Y-60075614D01*
X114330382Y-60063714D01*
X114334515Y-60052165D01*
X114339760Y-60041075D01*
X114346066Y-60030554D01*
X114353374Y-60020701D01*
X114361612Y-60011612D01*
X114370701Y-60003374D01*
X114380554Y-59996066D01*
X114391075Y-59989760D01*
X114402165Y-59984515D01*
X114413714Y-59980382D01*
X114425614Y-59977402D01*
X114437748Y-59975602D01*
X114450000Y-59975000D01*
X114700000Y-59975000D01*
X114712252Y-59975602D01*
G37*
G36*
X114062252Y-59975602D02*
G01*
X114074386Y-59977402D01*
X114086286Y-59980382D01*
X114097835Y-59984515D01*
X114108925Y-59989760D01*
X114119446Y-59996066D01*
X114129299Y-60003374D01*
X114138388Y-60011612D01*
X114146626Y-60020701D01*
X114153934Y-60030554D01*
X114160240Y-60041075D01*
X114165485Y-60052165D01*
X114169618Y-60063714D01*
X114172598Y-60075614D01*
X114174398Y-60087748D01*
X114175000Y-60100000D01*
X114175000Y-61475000D01*
X114174398Y-61487252D01*
X114172598Y-61499386D01*
X114169618Y-61511286D01*
X114165485Y-61522835D01*
X114160240Y-61533925D01*
X114153934Y-61544446D01*
X114146626Y-61554299D01*
X114138388Y-61563388D01*
X114129299Y-61571626D01*
X114119446Y-61578934D01*
X114108925Y-61585240D01*
X114097835Y-61590485D01*
X114086286Y-61594618D01*
X114074386Y-61597598D01*
X114062252Y-61599398D01*
X114050000Y-61600000D01*
X113800000Y-61600000D01*
X113787748Y-61599398D01*
X113775614Y-61597598D01*
X113763714Y-61594618D01*
X113752165Y-61590485D01*
X113741075Y-61585240D01*
X113730554Y-61578934D01*
X113720701Y-61571626D01*
X113711612Y-61563388D01*
X113703374Y-61554299D01*
X113696066Y-61544446D01*
X113689760Y-61533925D01*
X113684515Y-61522835D01*
X113680382Y-61511286D01*
X113677402Y-61499386D01*
X113675602Y-61487252D01*
X113675000Y-61475000D01*
X113675000Y-60100000D01*
X113675602Y-60087748D01*
X113677402Y-60075614D01*
X113680382Y-60063714D01*
X113684515Y-60052165D01*
X113689760Y-60041075D01*
X113696066Y-60030554D01*
X113703374Y-60020701D01*
X113711612Y-60011612D01*
X113720701Y-60003374D01*
X113730554Y-59996066D01*
X113741075Y-59989760D01*
X113752165Y-59984515D01*
X113763714Y-59980382D01*
X113775614Y-59977402D01*
X113787748Y-59975602D01*
X113800000Y-59975000D01*
X114050000Y-59975000D01*
X114062252Y-59975602D01*
G37*
G36*
X114062252Y-64200602D02*
G01*
X114074386Y-64202402D01*
X114086286Y-64205382D01*
X114097835Y-64209515D01*
X114108925Y-64214760D01*
X114119446Y-64221066D01*
X114129299Y-64228374D01*
X114138388Y-64236612D01*
X114146626Y-64245701D01*
X114153934Y-64255554D01*
X114160240Y-64266075D01*
X114165485Y-64277165D01*
X114169618Y-64288714D01*
X114172598Y-64300614D01*
X114174398Y-64312748D01*
X114175000Y-64325000D01*
X114175000Y-65700000D01*
X114174398Y-65712252D01*
X114172598Y-65724386D01*
X114169618Y-65736286D01*
X114165485Y-65747835D01*
X114160240Y-65758925D01*
X114153934Y-65769446D01*
X114146626Y-65779299D01*
X114138388Y-65788388D01*
X114129299Y-65796626D01*
X114119446Y-65803934D01*
X114108925Y-65810240D01*
X114097835Y-65815485D01*
X114086286Y-65819618D01*
X114074386Y-65822598D01*
X114062252Y-65824398D01*
X114050000Y-65825000D01*
X113800000Y-65825000D01*
X113787748Y-65824398D01*
X113775614Y-65822598D01*
X113763714Y-65819618D01*
X113752165Y-65815485D01*
X113741075Y-65810240D01*
X113730554Y-65803934D01*
X113720701Y-65796626D01*
X113711612Y-65788388D01*
X113703374Y-65779299D01*
X113696066Y-65769446D01*
X113689760Y-65758925D01*
X113684515Y-65747835D01*
X113680382Y-65736286D01*
X113677402Y-65724386D01*
X113675602Y-65712252D01*
X113675000Y-65700000D01*
X113675000Y-64325000D01*
X113675602Y-64312748D01*
X113677402Y-64300614D01*
X113680382Y-64288714D01*
X113684515Y-64277165D01*
X113689760Y-64266075D01*
X113696066Y-64255554D01*
X113703374Y-64245701D01*
X113711612Y-64236612D01*
X113720701Y-64228374D01*
X113730554Y-64221066D01*
X113741075Y-64214760D01*
X113752165Y-64209515D01*
X113763714Y-64205382D01*
X113775614Y-64202402D01*
X113787748Y-64200602D01*
X113800000Y-64200000D01*
X114050000Y-64200000D01*
X114062252Y-64200602D01*
G37*
G36*
X114712252Y-64200602D02*
G01*
X114724386Y-64202402D01*
X114736286Y-64205382D01*
X114747835Y-64209515D01*
X114758925Y-64214760D01*
X114769446Y-64221066D01*
X114779299Y-64228374D01*
X114788388Y-64236612D01*
X114796626Y-64245701D01*
X114803934Y-64255554D01*
X114810240Y-64266075D01*
X114815485Y-64277165D01*
X114819618Y-64288714D01*
X114822598Y-64300614D01*
X114824398Y-64312748D01*
X114825000Y-64325000D01*
X114825000Y-65700000D01*
X114824398Y-65712252D01*
X114822598Y-65724386D01*
X114819618Y-65736286D01*
X114815485Y-65747835D01*
X114810240Y-65758925D01*
X114803934Y-65769446D01*
X114796626Y-65779299D01*
X114788388Y-65788388D01*
X114779299Y-65796626D01*
X114769446Y-65803934D01*
X114758925Y-65810240D01*
X114747835Y-65815485D01*
X114736286Y-65819618D01*
X114724386Y-65822598D01*
X114712252Y-65824398D01*
X114700000Y-65825000D01*
X114450000Y-65825000D01*
X114437748Y-65824398D01*
X114425614Y-65822598D01*
X114413714Y-65819618D01*
X114402165Y-65815485D01*
X114391075Y-65810240D01*
X114380554Y-65803934D01*
X114370701Y-65796626D01*
X114361612Y-65788388D01*
X114353374Y-65779299D01*
X114346066Y-65769446D01*
X114339760Y-65758925D01*
X114334515Y-65747835D01*
X114330382Y-65736286D01*
X114327402Y-65724386D01*
X114325602Y-65712252D01*
X114325000Y-65700000D01*
X114325000Y-64325000D01*
X114325602Y-64312748D01*
X114327402Y-64300614D01*
X114330382Y-64288714D01*
X114334515Y-64277165D01*
X114339760Y-64266075D01*
X114346066Y-64255554D01*
X114353374Y-64245701D01*
X114361612Y-64236612D01*
X114370701Y-64228374D01*
X114380554Y-64221066D01*
X114391075Y-64214760D01*
X114402165Y-64209515D01*
X114413714Y-64205382D01*
X114425614Y-64202402D01*
X114437748Y-64200602D01*
X114450000Y-64200000D01*
X114700000Y-64200000D01*
X114712252Y-64200602D01*
G37*
G36*
X115362252Y-64200602D02*
G01*
X115374386Y-64202402D01*
X115386286Y-64205382D01*
X115397835Y-64209515D01*
X115408925Y-64214760D01*
X115419446Y-64221066D01*
X115429299Y-64228374D01*
X115438388Y-64236612D01*
X115446626Y-64245701D01*
X115453934Y-64255554D01*
X115460240Y-64266075D01*
X115465485Y-64277165D01*
X115469618Y-64288714D01*
X115472598Y-64300614D01*
X115474398Y-64312748D01*
X115475000Y-64325000D01*
X115475000Y-65700000D01*
X115474398Y-65712252D01*
X115472598Y-65724386D01*
X115469618Y-65736286D01*
X115465485Y-65747835D01*
X115460240Y-65758925D01*
X115453934Y-65769446D01*
X115446626Y-65779299D01*
X115438388Y-65788388D01*
X115429299Y-65796626D01*
X115419446Y-65803934D01*
X115408925Y-65810240D01*
X115397835Y-65815485D01*
X115386286Y-65819618D01*
X115374386Y-65822598D01*
X115362252Y-65824398D01*
X115350000Y-65825000D01*
X115100000Y-65825000D01*
X115087748Y-65824398D01*
X115075614Y-65822598D01*
X115063714Y-65819618D01*
X115052165Y-65815485D01*
X115041075Y-65810240D01*
X115030554Y-65803934D01*
X115020701Y-65796626D01*
X115011612Y-65788388D01*
X115003374Y-65779299D01*
X114996066Y-65769446D01*
X114989760Y-65758925D01*
X114984515Y-65747835D01*
X114980382Y-65736286D01*
X114977402Y-65724386D01*
X114975602Y-65712252D01*
X114975000Y-65700000D01*
X114975000Y-64325000D01*
X114975602Y-64312748D01*
X114977402Y-64300614D01*
X114980382Y-64288714D01*
X114984515Y-64277165D01*
X114989760Y-64266075D01*
X114996066Y-64255554D01*
X115003374Y-64245701D01*
X115011612Y-64236612D01*
X115020701Y-64228374D01*
X115030554Y-64221066D01*
X115041075Y-64214760D01*
X115052165Y-64209515D01*
X115063714Y-64205382D01*
X115075614Y-64202402D01*
X115087748Y-64200602D01*
X115100000Y-64200000D01*
X115350000Y-64200000D01*
X115362252Y-64200602D01*
G37*
G36*
X116012252Y-64200602D02*
G01*
X116024386Y-64202402D01*
X116036286Y-64205382D01*
X116047835Y-64209515D01*
X116058925Y-64214760D01*
X116069446Y-64221066D01*
X116079299Y-64228374D01*
X116088388Y-64236612D01*
X116096626Y-64245701D01*
X116103934Y-64255554D01*
X116110240Y-64266075D01*
X116115485Y-64277165D01*
X116119618Y-64288714D01*
X116122598Y-64300614D01*
X116124398Y-64312748D01*
X116125000Y-64325000D01*
X116125000Y-65700000D01*
X116124398Y-65712252D01*
X116122598Y-65724386D01*
X116119618Y-65736286D01*
X116115485Y-65747835D01*
X116110240Y-65758925D01*
X116103934Y-65769446D01*
X116096626Y-65779299D01*
X116088388Y-65788388D01*
X116079299Y-65796626D01*
X116069446Y-65803934D01*
X116058925Y-65810240D01*
X116047835Y-65815485D01*
X116036286Y-65819618D01*
X116024386Y-65822598D01*
X116012252Y-65824398D01*
X116000000Y-65825000D01*
X115750000Y-65825000D01*
X115737748Y-65824398D01*
X115725614Y-65822598D01*
X115713714Y-65819618D01*
X115702165Y-65815485D01*
X115691075Y-65810240D01*
X115680554Y-65803934D01*
X115670701Y-65796626D01*
X115661612Y-65788388D01*
X115653374Y-65779299D01*
X115646066Y-65769446D01*
X115639760Y-65758925D01*
X115634515Y-65747835D01*
X115630382Y-65736286D01*
X115627402Y-65724386D01*
X115625602Y-65712252D01*
X115625000Y-65700000D01*
X115625000Y-64325000D01*
X115625602Y-64312748D01*
X115627402Y-64300614D01*
X115630382Y-64288714D01*
X115634515Y-64277165D01*
X115639760Y-64266075D01*
X115646066Y-64255554D01*
X115653374Y-64245701D01*
X115661612Y-64236612D01*
X115670701Y-64228374D01*
X115680554Y-64221066D01*
X115691075Y-64214760D01*
X115702165Y-64209515D01*
X115713714Y-64205382D01*
X115725614Y-64202402D01*
X115737748Y-64200602D01*
X115750000Y-64200000D01*
X116000000Y-64200000D01*
X116012252Y-64200602D01*
G37*
M02*
