G04 #@! TF.GenerationSoftware,KiCad,Pcbnew,(5.1.5)-3*
G04 #@! TF.CreationDate,2020-07-02T11:34:45+10:00*
G04 #@! TF.ProjectId,Heterodyne,48657465-726f-4647-996e-652e6b696361,rev?*
G04 #@! TF.SameCoordinates,Original*
G04 #@! TF.FileFunction,Legend,Top*
G04 #@! TF.FilePolarity,Positive*
%FSLAX46Y46*%
G04 Gerber Fmt 4.6, Leading zero omitted, Abs format (unit mm)*
G04 Created by KiCad (PCBNEW (5.1.5)-3) date 2020-07-02 11:34:45*
%MOMM*%
%LPD*%
G04 APERTURE LIST*
%ADD10C,0.100000*%
%ADD11C,0.120000*%
%ADD12C,0.150000*%
G04 APERTURE END LIST*
D10*
X134912238Y-47186904D02*
X135102714Y-47986904D01*
X135255095Y-47415476D01*
X135407476Y-47986904D01*
X135597952Y-47186904D01*
X135902714Y-47986904D02*
X135902714Y-47186904D01*
X136359857Y-47986904D02*
X136017000Y-47529761D01*
X136359857Y-47186904D02*
X135902714Y-47644047D01*
X136702714Y-47567857D02*
X136969380Y-47567857D01*
X137083666Y-47986904D02*
X136702714Y-47986904D01*
X136702714Y-47186904D01*
X137083666Y-47186904D01*
X132890476Y-47161904D02*
X133347619Y-47161904D01*
X133119047Y-47961904D02*
X133119047Y-47161904D01*
X133538095Y-47161904D02*
X134071428Y-47961904D01*
X134071428Y-47161904D02*
X133538095Y-47961904D01*
X130866666Y-47961904D02*
X130600000Y-47580952D01*
X130409523Y-47961904D02*
X130409523Y-47161904D01*
X130714285Y-47161904D01*
X130790476Y-47200000D01*
X130828571Y-47238095D01*
X130866666Y-47314285D01*
X130866666Y-47428571D01*
X130828571Y-47504761D01*
X130790476Y-47542857D01*
X130714285Y-47580952D01*
X130409523Y-47580952D01*
X131133333Y-47161904D02*
X131666666Y-47961904D01*
X131666666Y-47161904D02*
X131133333Y-47961904D01*
X127961904Y-47961904D02*
X127695238Y-47580952D01*
X127504761Y-47961904D02*
X127504761Y-47161904D01*
X127809523Y-47161904D01*
X127885714Y-47200000D01*
X127923809Y-47238095D01*
X127961904Y-47314285D01*
X127961904Y-47428571D01*
X127923809Y-47504761D01*
X127885714Y-47542857D01*
X127809523Y-47580952D01*
X127504761Y-47580952D01*
X128266666Y-47923809D02*
X128380952Y-47961904D01*
X128571428Y-47961904D01*
X128647619Y-47923809D01*
X128685714Y-47885714D01*
X128723809Y-47809523D01*
X128723809Y-47733333D01*
X128685714Y-47657142D01*
X128647619Y-47619047D01*
X128571428Y-47580952D01*
X128419047Y-47542857D01*
X128342857Y-47504761D01*
X128304761Y-47466666D01*
X128266666Y-47390476D01*
X128266666Y-47314285D01*
X128304761Y-47238095D01*
X128342857Y-47200000D01*
X128419047Y-47161904D01*
X128609523Y-47161904D01*
X128723809Y-47200000D01*
X128952380Y-47161904D02*
X129409523Y-47161904D01*
X129180952Y-47961904D02*
X129180952Y-47161904D01*
X125290476Y-47200000D02*
X125214285Y-47161904D01*
X125100000Y-47161904D01*
X124985714Y-47200000D01*
X124909523Y-47276190D01*
X124871428Y-47352380D01*
X124833333Y-47504761D01*
X124833333Y-47619047D01*
X124871428Y-47771428D01*
X124909523Y-47847619D01*
X124985714Y-47923809D01*
X125100000Y-47961904D01*
X125176190Y-47961904D01*
X125290476Y-47923809D01*
X125328571Y-47885714D01*
X125328571Y-47619047D01*
X125176190Y-47619047D01*
X125671428Y-47961904D02*
X125671428Y-47161904D01*
X126128571Y-47961904D01*
X126128571Y-47161904D01*
X126509523Y-47961904D02*
X126509523Y-47161904D01*
X126700000Y-47161904D01*
X126814285Y-47200000D01*
X126890476Y-47276190D01*
X126928571Y-47352380D01*
X126966666Y-47504761D01*
X126966666Y-47619047D01*
X126928571Y-47771428D01*
X126890476Y-47847619D01*
X126814285Y-47923809D01*
X126700000Y-47961904D01*
X126509523Y-47961904D01*
X122333333Y-47161904D02*
X122600000Y-47961904D01*
X122866666Y-47161904D01*
X123133333Y-47961904D02*
X123133333Y-47161904D01*
X123438095Y-47161904D01*
X123514285Y-47200000D01*
X123552380Y-47238095D01*
X123590476Y-47314285D01*
X123590476Y-47428571D01*
X123552380Y-47504761D01*
X123514285Y-47542857D01*
X123438095Y-47580952D01*
X123133333Y-47580952D01*
X123933333Y-47961904D02*
X123933333Y-47161904D01*
X124238095Y-47161904D01*
X124314285Y-47200000D01*
X124352380Y-47238095D01*
X124390476Y-47314285D01*
X124390476Y-47428571D01*
X124352380Y-47504761D01*
X124314285Y-47542857D01*
X124238095Y-47580952D01*
X123933333Y-47580952D01*
D11*
X135312779Y-56790000D02*
X134987221Y-56790000D01*
X135312779Y-57810000D02*
X134987221Y-57810000D01*
X127162779Y-51490000D02*
X126837221Y-51490000D01*
X127162779Y-52510000D02*
X126837221Y-52510000D01*
X112990000Y-55937221D02*
X112990000Y-56262779D01*
X114010000Y-55937221D02*
X114010000Y-56262779D01*
X116990000Y-56037221D02*
X116990000Y-56362779D01*
X118010000Y-56037221D02*
X118010000Y-56362779D01*
X111010000Y-60062779D02*
X111010000Y-59737221D01*
X109990000Y-60062779D02*
X109990000Y-59737221D01*
X112610000Y-61862779D02*
X112610000Y-61537221D01*
X111590000Y-61862779D02*
X111590000Y-61537221D01*
X133690000Y-60299721D02*
X133690000Y-60625279D01*
X134710000Y-60299721D02*
X134710000Y-60625279D01*
X128350279Y-64090000D02*
X128024721Y-64090000D01*
X128350279Y-65110000D02*
X128024721Y-65110000D01*
X132162779Y-51490000D02*
X131837221Y-51490000D01*
X132162779Y-52510000D02*
X131837221Y-52510000D01*
X126449721Y-63360000D02*
X126775279Y-63360000D01*
X126449721Y-62340000D02*
X126775279Y-62340000D01*
X137360000Y-60712779D02*
X137360000Y-60387221D01*
X136340000Y-60712779D02*
X136340000Y-60387221D01*
X128990000Y-52737221D02*
X128990000Y-53062779D01*
X130010000Y-52737221D02*
X130010000Y-53062779D01*
X125010000Y-53062779D02*
X125010000Y-52737221D01*
X123990000Y-53062779D02*
X123990000Y-52737221D01*
X122162779Y-51490000D02*
X121837221Y-51490000D01*
X122162779Y-52510000D02*
X121837221Y-52510000D01*
X128774721Y-55860000D02*
X129100279Y-55860000D01*
X128774721Y-54840000D02*
X129100279Y-54840000D01*
X109360000Y-60062779D02*
X109360000Y-59737221D01*
X108340000Y-60062779D02*
X108340000Y-59737221D01*
X115662779Y-58190000D02*
X115337221Y-58190000D01*
X115662779Y-59210000D02*
X115337221Y-59210000D01*
X117090000Y-62437221D02*
X117090000Y-62762779D01*
X118110000Y-62437221D02*
X118110000Y-62762779D01*
X109162779Y-50590000D02*
X108837221Y-50590000D01*
X109162779Y-51610000D02*
X108837221Y-51610000D01*
X109162779Y-48590000D02*
X108837221Y-48590000D01*
X109162779Y-49610000D02*
X108837221Y-49610000D01*
X128875000Y-61615000D02*
X132325000Y-61615000D01*
X128875000Y-61615000D02*
X126925000Y-61615000D01*
X128875000Y-56495000D02*
X130825000Y-56495000D01*
X128875000Y-56495000D02*
X126925000Y-56495000D01*
X121990000Y-50830000D02*
X121990000Y-49500000D01*
X123320000Y-50830000D02*
X121990000Y-50830000D01*
X124590000Y-50830000D02*
X124590000Y-48170000D01*
X124590000Y-48170000D02*
X137350000Y-48170000D01*
X124590000Y-50830000D02*
X137350000Y-50830000D01*
X137350000Y-50830000D02*
X137350000Y-48170000D01*
X123610000Y-60808578D02*
X123610000Y-60291422D01*
X122190000Y-60808578D02*
X122190000Y-60291422D01*
X138310000Y-53258578D02*
X138310000Y-52741422D01*
X136890000Y-53258578D02*
X136890000Y-52741422D01*
X104170000Y-56330000D02*
X106830000Y-56330000D01*
X104170000Y-56210000D02*
X104170000Y-56330000D01*
X106830000Y-56210000D02*
X106830000Y-56330000D01*
X106830000Y-53670000D02*
X106830000Y-55000000D01*
X105500000Y-53670000D02*
X106830000Y-53670000D01*
X106830000Y-47530000D02*
X104170000Y-47530000D01*
X106830000Y-50130000D02*
X106830000Y-47530000D01*
X104170000Y-50130000D02*
X104170000Y-47530000D01*
X106830000Y-50130000D02*
X104170000Y-50130000D01*
X106830000Y-51400000D02*
X106830000Y-52730000D01*
X106830000Y-52730000D02*
X105500000Y-52730000D01*
X132930000Y-65630000D02*
X132930000Y-64300000D01*
X134260000Y-65630000D02*
X132930000Y-65630000D01*
X135530000Y-65630000D02*
X135530000Y-62970000D01*
X135530000Y-62970000D02*
X138130000Y-62970000D01*
X135530000Y-65630000D02*
X138130000Y-65630000D01*
X138130000Y-65630000D02*
X138130000Y-62970000D01*
X115500000Y-54112500D02*
X118247500Y-54112500D01*
X118247500Y-54112500D02*
X118247500Y-53830000D01*
X115500000Y-54112500D02*
X112752500Y-54112500D01*
X112752500Y-54112500D02*
X112752500Y-53830000D01*
X115500000Y-48617500D02*
X118247500Y-48617500D01*
X118247500Y-48617500D02*
X118247500Y-48900000D01*
X115500000Y-48617500D02*
X112752500Y-48617500D01*
X112752500Y-48617500D02*
X112752500Y-48900000D01*
X112752500Y-48900000D02*
X111100000Y-48900000D01*
X134600000Y-54135000D02*
X133940000Y-54135000D01*
X136270000Y-54135000D02*
X135600000Y-54135000D01*
X136260000Y-54135000D02*
X136260000Y-51400000D01*
X133940000Y-52725000D02*
X133940000Y-54135000D01*
X113290000Y-62900000D02*
X113290000Y-64400000D01*
X113290000Y-62900000D02*
X113290000Y-61400000D01*
X116510000Y-62900000D02*
X116510000Y-64400000D01*
X116510000Y-62900000D02*
X116510000Y-59975000D01*
D12*
X138002380Y-57942857D02*
X137526190Y-58276190D01*
X138002380Y-58514285D02*
X137002380Y-58514285D01*
X137002380Y-58133333D01*
X137050000Y-58038095D01*
X137097619Y-57990476D01*
X137192857Y-57942857D01*
X137335714Y-57942857D01*
X137430952Y-57990476D01*
X137478571Y-58038095D01*
X137526190Y-58133333D01*
X137526190Y-58514285D01*
X138002380Y-56990476D02*
X138002380Y-57561904D01*
X138002380Y-57276190D02*
X137002380Y-57276190D01*
X137145238Y-57371428D01*
X137240476Y-57466666D01*
X137288095Y-57561904D01*
X137097619Y-56609523D02*
X137050000Y-56561904D01*
X137002380Y-56466666D01*
X137002380Y-56228571D01*
X137050000Y-56133333D01*
X137097619Y-56085714D01*
X137192857Y-56038095D01*
X137288095Y-56038095D01*
X137430952Y-56085714D01*
X138002380Y-56657142D01*
X138002380Y-56038095D01*
X126357142Y-53882380D02*
X126023809Y-53406190D01*
X125785714Y-53882380D02*
X125785714Y-52882380D01*
X126166666Y-52882380D01*
X126261904Y-52930000D01*
X126309523Y-52977619D01*
X126357142Y-53072857D01*
X126357142Y-53215714D01*
X126309523Y-53310952D01*
X126261904Y-53358571D01*
X126166666Y-53406190D01*
X125785714Y-53406190D01*
X127309523Y-53882380D02*
X126738095Y-53882380D01*
X127023809Y-53882380D02*
X127023809Y-52882380D01*
X126928571Y-53025238D01*
X126833333Y-53120476D01*
X126738095Y-53168095D01*
X127928571Y-52882380D02*
X128023809Y-52882380D01*
X128119047Y-52930000D01*
X128166666Y-52977619D01*
X128214285Y-53072857D01*
X128261904Y-53263333D01*
X128261904Y-53501428D01*
X128214285Y-53691904D01*
X128166666Y-53787142D01*
X128119047Y-53834761D01*
X128023809Y-53882380D01*
X127928571Y-53882380D01*
X127833333Y-53834761D01*
X127785714Y-53787142D01*
X127738095Y-53691904D01*
X127690476Y-53501428D01*
X127690476Y-53263333D01*
X127738095Y-53072857D01*
X127785714Y-52977619D01*
X127833333Y-52930000D01*
X127928571Y-52882380D01*
X115382380Y-56266666D02*
X114906190Y-56600000D01*
X115382380Y-56838095D02*
X114382380Y-56838095D01*
X114382380Y-56457142D01*
X114430000Y-56361904D01*
X114477619Y-56314285D01*
X114572857Y-56266666D01*
X114715714Y-56266666D01*
X114810952Y-56314285D01*
X114858571Y-56361904D01*
X114906190Y-56457142D01*
X114906190Y-56838095D01*
X115382380Y-55790476D02*
X115382380Y-55600000D01*
X115334761Y-55504761D01*
X115287142Y-55457142D01*
X115144285Y-55361904D01*
X114953809Y-55314285D01*
X114572857Y-55314285D01*
X114477619Y-55361904D01*
X114430000Y-55409523D01*
X114382380Y-55504761D01*
X114382380Y-55695238D01*
X114430000Y-55790476D01*
X114477619Y-55838095D01*
X114572857Y-55885714D01*
X114810952Y-55885714D01*
X114906190Y-55838095D01*
X114953809Y-55790476D01*
X115001428Y-55695238D01*
X115001428Y-55504761D01*
X114953809Y-55409523D01*
X114906190Y-55361904D01*
X114810952Y-55314285D01*
X119382380Y-56366666D02*
X118906190Y-56700000D01*
X119382380Y-56938095D02*
X118382380Y-56938095D01*
X118382380Y-56557142D01*
X118430000Y-56461904D01*
X118477619Y-56414285D01*
X118572857Y-56366666D01*
X118715714Y-56366666D01*
X118810952Y-56414285D01*
X118858571Y-56461904D01*
X118906190Y-56557142D01*
X118906190Y-56938095D01*
X118382380Y-56033333D02*
X118382380Y-55366666D01*
X119382380Y-55795238D01*
X112502380Y-58316666D02*
X112026190Y-58650000D01*
X112502380Y-58888095D02*
X111502380Y-58888095D01*
X111502380Y-58507142D01*
X111550000Y-58411904D01*
X111597619Y-58364285D01*
X111692857Y-58316666D01*
X111835714Y-58316666D01*
X111930952Y-58364285D01*
X111978571Y-58411904D01*
X112026190Y-58507142D01*
X112026190Y-58888095D01*
X111502380Y-57459523D02*
X111502380Y-57650000D01*
X111550000Y-57745238D01*
X111597619Y-57792857D01*
X111740476Y-57888095D01*
X111930952Y-57935714D01*
X112311904Y-57935714D01*
X112407142Y-57888095D01*
X112454761Y-57840476D01*
X112502380Y-57745238D01*
X112502380Y-57554761D01*
X112454761Y-57459523D01*
X112407142Y-57411904D01*
X112311904Y-57364285D01*
X112073809Y-57364285D01*
X111978571Y-57411904D01*
X111930952Y-57459523D01*
X111883333Y-57554761D01*
X111883333Y-57745238D01*
X111930952Y-57840476D01*
X111978571Y-57888095D01*
X112073809Y-57935714D01*
X111052380Y-63666666D02*
X110576190Y-64000000D01*
X111052380Y-64238095D02*
X110052380Y-64238095D01*
X110052380Y-63857142D01*
X110100000Y-63761904D01*
X110147619Y-63714285D01*
X110242857Y-63666666D01*
X110385714Y-63666666D01*
X110480952Y-63714285D01*
X110528571Y-63761904D01*
X110576190Y-63857142D01*
X110576190Y-64238095D01*
X110052380Y-62761904D02*
X110052380Y-63238095D01*
X110528571Y-63285714D01*
X110480952Y-63238095D01*
X110433333Y-63142857D01*
X110433333Y-62904761D01*
X110480952Y-62809523D01*
X110528571Y-62761904D01*
X110623809Y-62714285D01*
X110861904Y-62714285D01*
X110957142Y-62761904D01*
X111004761Y-62809523D01*
X111052380Y-62904761D01*
X111052380Y-63142857D01*
X111004761Y-63238095D01*
X110957142Y-63285714D01*
X134033333Y-63152380D02*
X133700000Y-62676190D01*
X133461904Y-63152380D02*
X133461904Y-62152380D01*
X133842857Y-62152380D01*
X133938095Y-62200000D01*
X133985714Y-62247619D01*
X134033333Y-62342857D01*
X134033333Y-62485714D01*
X133985714Y-62580952D01*
X133938095Y-62628571D01*
X133842857Y-62676190D01*
X133461904Y-62676190D01*
X134890476Y-62485714D02*
X134890476Y-63152380D01*
X134652380Y-62104761D02*
X134414285Y-62819047D01*
X135033333Y-62819047D01*
X130952380Y-64766666D02*
X130476190Y-65100000D01*
X130952380Y-65338095D02*
X129952380Y-65338095D01*
X129952380Y-64957142D01*
X130000000Y-64861904D01*
X130047619Y-64814285D01*
X130142857Y-64766666D01*
X130285714Y-64766666D01*
X130380952Y-64814285D01*
X130428571Y-64861904D01*
X130476190Y-64957142D01*
X130476190Y-65338095D01*
X129952380Y-64433333D02*
X129952380Y-63814285D01*
X130333333Y-64147619D01*
X130333333Y-64004761D01*
X130380952Y-63909523D01*
X130428571Y-63861904D01*
X130523809Y-63814285D01*
X130761904Y-63814285D01*
X130857142Y-63861904D01*
X130904761Y-63909523D01*
X130952380Y-64004761D01*
X130952380Y-64290476D01*
X130904761Y-64385714D01*
X130857142Y-64433333D01*
X132683333Y-53882380D02*
X132350000Y-53406190D01*
X132111904Y-53882380D02*
X132111904Y-52882380D01*
X132492857Y-52882380D01*
X132588095Y-52930000D01*
X132635714Y-52977619D01*
X132683333Y-53072857D01*
X132683333Y-53215714D01*
X132635714Y-53310952D01*
X132588095Y-53358571D01*
X132492857Y-53406190D01*
X132111904Y-53406190D01*
X133064285Y-52977619D02*
X133111904Y-52930000D01*
X133207142Y-52882380D01*
X133445238Y-52882380D01*
X133540476Y-52930000D01*
X133588095Y-52977619D01*
X133635714Y-53072857D01*
X133635714Y-53168095D01*
X133588095Y-53310952D01*
X133016666Y-53882380D01*
X133635714Y-53882380D01*
X124133333Y-64302380D02*
X123800000Y-63826190D01*
X123561904Y-64302380D02*
X123561904Y-63302380D01*
X123942857Y-63302380D01*
X124038095Y-63350000D01*
X124085714Y-63397619D01*
X124133333Y-63492857D01*
X124133333Y-63635714D01*
X124085714Y-63730952D01*
X124038095Y-63778571D01*
X123942857Y-63826190D01*
X123561904Y-63826190D01*
X125085714Y-64302380D02*
X124514285Y-64302380D01*
X124800000Y-64302380D02*
X124800000Y-63302380D01*
X124704761Y-63445238D01*
X124609523Y-63540476D01*
X124514285Y-63588095D01*
X138707142Y-61192857D02*
X138754761Y-61240476D01*
X138802380Y-61383333D01*
X138802380Y-61478571D01*
X138754761Y-61621428D01*
X138659523Y-61716666D01*
X138564285Y-61764285D01*
X138373809Y-61811904D01*
X138230952Y-61811904D01*
X138040476Y-61764285D01*
X137945238Y-61716666D01*
X137850000Y-61621428D01*
X137802380Y-61478571D01*
X137802380Y-61383333D01*
X137850000Y-61240476D01*
X137897619Y-61192857D01*
X138802380Y-60240476D02*
X138802380Y-60811904D01*
X138802380Y-60526190D02*
X137802380Y-60526190D01*
X137945238Y-60621428D01*
X138040476Y-60716666D01*
X138088095Y-60811904D01*
X137802380Y-59335714D02*
X137802380Y-59811904D01*
X138278571Y-59859523D01*
X138230952Y-59811904D01*
X138183333Y-59716666D01*
X138183333Y-59478571D01*
X138230952Y-59383333D01*
X138278571Y-59335714D01*
X138373809Y-59288095D01*
X138611904Y-59288095D01*
X138707142Y-59335714D01*
X138754761Y-59383333D01*
X138802380Y-59478571D01*
X138802380Y-59716666D01*
X138754761Y-59811904D01*
X138707142Y-59859523D01*
X131407142Y-53742857D02*
X131454761Y-53790476D01*
X131502380Y-53933333D01*
X131502380Y-54028571D01*
X131454761Y-54171428D01*
X131359523Y-54266666D01*
X131264285Y-54314285D01*
X131073809Y-54361904D01*
X130930952Y-54361904D01*
X130740476Y-54314285D01*
X130645238Y-54266666D01*
X130550000Y-54171428D01*
X130502380Y-54028571D01*
X130502380Y-53933333D01*
X130550000Y-53790476D01*
X130597619Y-53742857D01*
X131502380Y-52790476D02*
X131502380Y-53361904D01*
X131502380Y-53076190D02*
X130502380Y-53076190D01*
X130645238Y-53171428D01*
X130740476Y-53266666D01*
X130788095Y-53361904D01*
X130597619Y-52409523D02*
X130550000Y-52361904D01*
X130502380Y-52266666D01*
X130502380Y-52028571D01*
X130550000Y-51933333D01*
X130597619Y-51885714D01*
X130692857Y-51838095D01*
X130788095Y-51838095D01*
X130930952Y-51885714D01*
X131502380Y-52457142D01*
X131502380Y-51838095D01*
X123257142Y-55507142D02*
X123209523Y-55554761D01*
X123066666Y-55602380D01*
X122971428Y-55602380D01*
X122828571Y-55554761D01*
X122733333Y-55459523D01*
X122685714Y-55364285D01*
X122638095Y-55173809D01*
X122638095Y-55030952D01*
X122685714Y-54840476D01*
X122733333Y-54745238D01*
X122828571Y-54650000D01*
X122971428Y-54602380D01*
X123066666Y-54602380D01*
X123209523Y-54650000D01*
X123257142Y-54697619D01*
X124209523Y-55602380D02*
X123638095Y-55602380D01*
X123923809Y-55602380D02*
X123923809Y-54602380D01*
X123828571Y-54745238D01*
X123733333Y-54840476D01*
X123638095Y-54888095D01*
X124828571Y-54602380D02*
X124923809Y-54602380D01*
X125019047Y-54650000D01*
X125066666Y-54697619D01*
X125114285Y-54792857D01*
X125161904Y-54983333D01*
X125161904Y-55221428D01*
X125114285Y-55411904D01*
X125066666Y-55507142D01*
X125019047Y-55554761D01*
X124923809Y-55602380D01*
X124828571Y-55602380D01*
X124733333Y-55554761D01*
X124685714Y-55507142D01*
X124638095Y-55411904D01*
X124590476Y-55221428D01*
X124590476Y-54983333D01*
X124638095Y-54792857D01*
X124685714Y-54697619D01*
X124733333Y-54650000D01*
X124828571Y-54602380D01*
X121833333Y-53787142D02*
X121785714Y-53834761D01*
X121642857Y-53882380D01*
X121547619Y-53882380D01*
X121404761Y-53834761D01*
X121309523Y-53739523D01*
X121261904Y-53644285D01*
X121214285Y-53453809D01*
X121214285Y-53310952D01*
X121261904Y-53120476D01*
X121309523Y-53025238D01*
X121404761Y-52930000D01*
X121547619Y-52882380D01*
X121642857Y-52882380D01*
X121785714Y-52930000D01*
X121833333Y-52977619D01*
X122309523Y-53882380D02*
X122500000Y-53882380D01*
X122595238Y-53834761D01*
X122642857Y-53787142D01*
X122738095Y-53644285D01*
X122785714Y-53453809D01*
X122785714Y-53072857D01*
X122738095Y-52977619D01*
X122690476Y-52930000D01*
X122595238Y-52882380D01*
X122404761Y-52882380D01*
X122309523Y-52930000D01*
X122261904Y-52977619D01*
X122214285Y-53072857D01*
X122214285Y-53310952D01*
X122261904Y-53406190D01*
X122309523Y-53453809D01*
X122404761Y-53501428D01*
X122595238Y-53501428D01*
X122690476Y-53453809D01*
X122738095Y-53406190D01*
X122785714Y-53310952D01*
X131283333Y-55757142D02*
X131235714Y-55804761D01*
X131092857Y-55852380D01*
X130997619Y-55852380D01*
X130854761Y-55804761D01*
X130759523Y-55709523D01*
X130711904Y-55614285D01*
X130664285Y-55423809D01*
X130664285Y-55280952D01*
X130711904Y-55090476D01*
X130759523Y-54995238D01*
X130854761Y-54900000D01*
X130997619Y-54852380D01*
X131092857Y-54852380D01*
X131235714Y-54900000D01*
X131283333Y-54947619D01*
X131854761Y-55280952D02*
X131759523Y-55233333D01*
X131711904Y-55185714D01*
X131664285Y-55090476D01*
X131664285Y-55042857D01*
X131711904Y-54947619D01*
X131759523Y-54900000D01*
X131854761Y-54852380D01*
X132045238Y-54852380D01*
X132140476Y-54900000D01*
X132188095Y-54947619D01*
X132235714Y-55042857D01*
X132235714Y-55090476D01*
X132188095Y-55185714D01*
X132140476Y-55233333D01*
X132045238Y-55280952D01*
X131854761Y-55280952D01*
X131759523Y-55328571D01*
X131711904Y-55376190D01*
X131664285Y-55471428D01*
X131664285Y-55661904D01*
X131711904Y-55757142D01*
X131759523Y-55804761D01*
X131854761Y-55852380D01*
X132045238Y-55852380D01*
X132140476Y-55804761D01*
X132188095Y-55757142D01*
X132235714Y-55661904D01*
X132235714Y-55471428D01*
X132188095Y-55376190D01*
X132140476Y-55328571D01*
X132045238Y-55280952D01*
X107777142Y-60066666D02*
X107824761Y-60114285D01*
X107872380Y-60257142D01*
X107872380Y-60352380D01*
X107824761Y-60495238D01*
X107729523Y-60590476D01*
X107634285Y-60638095D01*
X107443809Y-60685714D01*
X107300952Y-60685714D01*
X107110476Y-60638095D01*
X107015238Y-60590476D01*
X106920000Y-60495238D01*
X106872380Y-60352380D01*
X106872380Y-60257142D01*
X106920000Y-60114285D01*
X106967619Y-60066666D01*
X106872380Y-59733333D02*
X106872380Y-59066666D01*
X107872380Y-59495238D01*
X115333333Y-60487142D02*
X115285714Y-60534761D01*
X115142857Y-60582380D01*
X115047619Y-60582380D01*
X114904761Y-60534761D01*
X114809523Y-60439523D01*
X114761904Y-60344285D01*
X114714285Y-60153809D01*
X114714285Y-60010952D01*
X114761904Y-59820476D01*
X114809523Y-59725238D01*
X114904761Y-59630000D01*
X115047619Y-59582380D01*
X115142857Y-59582380D01*
X115285714Y-59630000D01*
X115333333Y-59677619D01*
X116190476Y-59915714D02*
X116190476Y-60582380D01*
X115952380Y-59534761D02*
X115714285Y-60249047D01*
X116333333Y-60249047D01*
X119387142Y-62766666D02*
X119434761Y-62814285D01*
X119482380Y-62957142D01*
X119482380Y-63052380D01*
X119434761Y-63195238D01*
X119339523Y-63290476D01*
X119244285Y-63338095D01*
X119053809Y-63385714D01*
X118910952Y-63385714D01*
X118720476Y-63338095D01*
X118625238Y-63290476D01*
X118530000Y-63195238D01*
X118482380Y-63052380D01*
X118482380Y-62957142D01*
X118530000Y-62814285D01*
X118577619Y-62766666D01*
X118482380Y-62433333D02*
X118482380Y-61814285D01*
X118863333Y-62147619D01*
X118863333Y-62004761D01*
X118910952Y-61909523D01*
X118958571Y-61861904D01*
X119053809Y-61814285D01*
X119291904Y-61814285D01*
X119387142Y-61861904D01*
X119434761Y-61909523D01*
X119482380Y-62004761D01*
X119482380Y-62290476D01*
X119434761Y-62385714D01*
X119387142Y-62433333D01*
X108833333Y-52887142D02*
X108785714Y-52934761D01*
X108642857Y-52982380D01*
X108547619Y-52982380D01*
X108404761Y-52934761D01*
X108309523Y-52839523D01*
X108261904Y-52744285D01*
X108214285Y-52553809D01*
X108214285Y-52410952D01*
X108261904Y-52220476D01*
X108309523Y-52125238D01*
X108404761Y-52030000D01*
X108547619Y-51982380D01*
X108642857Y-51982380D01*
X108785714Y-52030000D01*
X108833333Y-52077619D01*
X109214285Y-52077619D02*
X109261904Y-52030000D01*
X109357142Y-51982380D01*
X109595238Y-51982380D01*
X109690476Y-52030000D01*
X109738095Y-52077619D01*
X109785714Y-52172857D01*
X109785714Y-52268095D01*
X109738095Y-52410952D01*
X109166666Y-52982380D01*
X109785714Y-52982380D01*
X108833333Y-48057142D02*
X108785714Y-48104761D01*
X108642857Y-48152380D01*
X108547619Y-48152380D01*
X108404761Y-48104761D01*
X108309523Y-48009523D01*
X108261904Y-47914285D01*
X108214285Y-47723809D01*
X108214285Y-47580952D01*
X108261904Y-47390476D01*
X108309523Y-47295238D01*
X108404761Y-47200000D01*
X108547619Y-47152380D01*
X108642857Y-47152380D01*
X108785714Y-47200000D01*
X108833333Y-47247619D01*
X109785714Y-48152380D02*
X109214285Y-48152380D01*
X109500000Y-48152380D02*
X109500000Y-47152380D01*
X109404761Y-47295238D01*
X109309523Y-47390476D01*
X109214285Y-47438095D01*
X130638095Y-61852380D02*
X130638095Y-62661904D01*
X130685714Y-62757142D01*
X130733333Y-62804761D01*
X130828571Y-62852380D01*
X131019047Y-62852380D01*
X131114285Y-62804761D01*
X131161904Y-62757142D01*
X131209523Y-62661904D01*
X131209523Y-61852380D01*
X131638095Y-61947619D02*
X131685714Y-61900000D01*
X131780952Y-61852380D01*
X132019047Y-61852380D01*
X132114285Y-61900000D01*
X132161904Y-61947619D01*
X132209523Y-62042857D01*
X132209523Y-62138095D01*
X132161904Y-62280952D01*
X131590476Y-62852380D01*
X132209523Y-62852380D01*
X120442380Y-49833333D02*
X121156666Y-49833333D01*
X121299523Y-49880952D01*
X121394761Y-49976190D01*
X121442380Y-50119047D01*
X121442380Y-50214285D01*
X121442380Y-48833333D02*
X121442380Y-49404761D01*
X121442380Y-49119047D02*
X120442380Y-49119047D01*
X120585238Y-49214285D01*
X120680476Y-49309523D01*
X120728095Y-49404761D01*
X121657142Y-61192857D02*
X121704761Y-61240476D01*
X121752380Y-61383333D01*
X121752380Y-61478571D01*
X121704761Y-61621428D01*
X121609523Y-61716666D01*
X121514285Y-61764285D01*
X121323809Y-61811904D01*
X121180952Y-61811904D01*
X120990476Y-61764285D01*
X120895238Y-61716666D01*
X120800000Y-61621428D01*
X120752380Y-61478571D01*
X120752380Y-61383333D01*
X120800000Y-61240476D01*
X120847619Y-61192857D01*
X121752380Y-60240476D02*
X121752380Y-60811904D01*
X121752380Y-60526190D02*
X120752380Y-60526190D01*
X120895238Y-60621428D01*
X120990476Y-60716666D01*
X121038095Y-60811904D01*
X121085714Y-59383333D02*
X121752380Y-59383333D01*
X120704761Y-59621428D02*
X121419047Y-59859523D01*
X121419047Y-59240476D01*
X138457142Y-50442857D02*
X138504761Y-50490476D01*
X138552380Y-50633333D01*
X138552380Y-50728571D01*
X138504761Y-50871428D01*
X138409523Y-50966666D01*
X138314285Y-51014285D01*
X138123809Y-51061904D01*
X137980952Y-51061904D01*
X137790476Y-51014285D01*
X137695238Y-50966666D01*
X137600000Y-50871428D01*
X137552380Y-50728571D01*
X137552380Y-50633333D01*
X137600000Y-50490476D01*
X137647619Y-50442857D01*
X138552380Y-49490476D02*
X138552380Y-50061904D01*
X138552380Y-49776190D02*
X137552380Y-49776190D01*
X137695238Y-49871428D01*
X137790476Y-49966666D01*
X137838095Y-50061904D01*
X137552380Y-49157142D02*
X137552380Y-48538095D01*
X137933333Y-48871428D01*
X137933333Y-48728571D01*
X137980952Y-48633333D01*
X138028571Y-48585714D01*
X138123809Y-48538095D01*
X138361904Y-48538095D01*
X138457142Y-48585714D01*
X138504761Y-48633333D01*
X138552380Y-48728571D01*
X138552380Y-49014285D01*
X138504761Y-49109523D01*
X138457142Y-49157142D01*
X104066666Y-57052380D02*
X104066666Y-57766666D01*
X104019047Y-57909523D01*
X103923809Y-58004761D01*
X103780952Y-58052380D01*
X103685714Y-58052380D01*
X104447619Y-57052380D02*
X105114285Y-57052380D01*
X104685714Y-58052380D01*
X108452380Y-55142857D02*
X108452380Y-55619047D01*
X107452380Y-55619047D01*
X108404761Y-54857142D02*
X108452380Y-54714285D01*
X108452380Y-54476190D01*
X108404761Y-54380952D01*
X108357142Y-54333333D01*
X108261904Y-54285714D01*
X108166666Y-54285714D01*
X108071428Y-54333333D01*
X108023809Y-54380952D01*
X107976190Y-54476190D01*
X107928571Y-54666666D01*
X107880952Y-54761904D01*
X107833333Y-54809523D01*
X107738095Y-54857142D01*
X107642857Y-54857142D01*
X107547619Y-54809523D01*
X107500000Y-54761904D01*
X107452380Y-54666666D01*
X107452380Y-54428571D01*
X107500000Y-54285714D01*
X108452380Y-53333333D02*
X108452380Y-53904761D01*
X108452380Y-53619047D02*
X107452380Y-53619047D01*
X107595238Y-53714285D01*
X107690476Y-53809523D01*
X107738095Y-53904761D01*
X132382380Y-64942857D02*
X132382380Y-65419047D01*
X131382380Y-65419047D01*
X132334761Y-64657142D02*
X132382380Y-64514285D01*
X132382380Y-64276190D01*
X132334761Y-64180952D01*
X132287142Y-64133333D01*
X132191904Y-64085714D01*
X132096666Y-64085714D01*
X132001428Y-64133333D01*
X131953809Y-64180952D01*
X131906190Y-64276190D01*
X131858571Y-64466666D01*
X131810952Y-64561904D01*
X131763333Y-64609523D01*
X131668095Y-64657142D01*
X131572857Y-64657142D01*
X131477619Y-64609523D01*
X131430000Y-64561904D01*
X131382380Y-64466666D01*
X131382380Y-64228571D01*
X131430000Y-64085714D01*
X131477619Y-63704761D02*
X131430000Y-63657142D01*
X131382380Y-63561904D01*
X131382380Y-63323809D01*
X131430000Y-63228571D01*
X131477619Y-63180952D01*
X131572857Y-63133333D01*
X131668095Y-63133333D01*
X131810952Y-63180952D01*
X132382380Y-63752380D01*
X132382380Y-63133333D01*
X111038095Y-47352380D02*
X111038095Y-48161904D01*
X111085714Y-48257142D01*
X111133333Y-48304761D01*
X111228571Y-48352380D01*
X111419047Y-48352380D01*
X111514285Y-48304761D01*
X111561904Y-48257142D01*
X111609523Y-48161904D01*
X111609523Y-47352380D01*
X112609523Y-48352380D02*
X112038095Y-48352380D01*
X112323809Y-48352380D02*
X112323809Y-47352380D01*
X112228571Y-47495238D01*
X112133333Y-47590476D01*
X112038095Y-47638095D01*
X135438095Y-49852380D02*
X135438095Y-50661904D01*
X135485714Y-50757142D01*
X135533333Y-50804761D01*
X135628571Y-50852380D01*
X135819047Y-50852380D01*
X135914285Y-50804761D01*
X135961904Y-50757142D01*
X136009523Y-50661904D01*
X136009523Y-49852380D01*
X136390476Y-49852380D02*
X137009523Y-49852380D01*
X136676190Y-50233333D01*
X136819047Y-50233333D01*
X136914285Y-50280952D01*
X136961904Y-50328571D01*
X137009523Y-50423809D01*
X137009523Y-50661904D01*
X136961904Y-50757142D01*
X136914285Y-50804761D01*
X136819047Y-50852380D01*
X136533333Y-50852380D01*
X136438095Y-50804761D01*
X136390476Y-50757142D01*
X117052380Y-60861904D02*
X117861904Y-60861904D01*
X117957142Y-60814285D01*
X118004761Y-60766666D01*
X118052380Y-60671428D01*
X118052380Y-60480952D01*
X118004761Y-60385714D01*
X117957142Y-60338095D01*
X117861904Y-60290476D01*
X117052380Y-60290476D01*
X117385714Y-59385714D02*
X118052380Y-59385714D01*
X117004761Y-59623809D02*
X117719047Y-59861904D01*
X117719047Y-59242857D01*
M02*
