M48
; DRILL file {KiCad (5.1.5)-3} date 2020/02/18 08:36:54
; FORMAT={-:-/ absolute / inch / decimal}
; #@! TF.CreationDate,2020-02-18T08:36:54+11:00
; #@! TF.GenerationSoftware,Kicad,Pcbnew,(5.1.5)-3
; #@! TF.FileFunction,Plated,1,4,PTH
FMAT,2
INCH
T1C0.0157
T2C0.0394
%
G90
G05
T1
X4.3307Y-2.0866
X4.3504Y-2.2638
X4.3858Y-2.5433
X4.4409Y-2.5157
X4.4904Y-2.4968
X4.6063Y-1.9488
X4.6299Y-2.378
X4.6299Y-2.5551
X4.7559Y-2.0984
X4.8228Y-2.5394
X4.8346Y-2.2087
X4.9016Y-2.3425
X4.9016Y-2.4567
X5.0236Y-2.4764
X5.0591Y-2.4291
X5.1024Y-2.4724
X5.1496Y-2.1181
X5.2687Y-2.1781
X5.4134Y-1.9961
X5.4281Y-2.2362
T2
X4.1535Y-2.1654
X4.8559Y-1.9488
X4.9559Y-1.9488
X5.0559Y-1.9488
X5.1559Y-1.9488
X5.2559Y-1.9488
X5.2858Y-2.5315
X5.3858Y-2.5315
X4.1535Y-1.9236
X4.1535Y-2.0236
T0
M30
