G04 #@! TF.GenerationSoftware,KiCad,Pcbnew,(5.1.5)-3*
G04 #@! TF.CreationDate,2020-07-02T11:34:45+10:00*
G04 #@! TF.ProjectId,Heterodyne,48657465-726f-4647-996e-652e6b696361,rev?*
G04 #@! TF.SameCoordinates,Original*
G04 #@! TF.FileFunction,Copper,L4,Bot*
G04 #@! TF.FilePolarity,Positive*
%FSLAX46Y46*%
G04 Gerber Fmt 4.6, Leading zero omitted, Abs format (unit mm)*
G04 Created by KiCad (PCBNEW (5.1.5)-3) date 2020-07-02 11:34:45*
%MOMM*%
%LPD*%
G04 APERTURE LIST*
%ADD10C,0.100000*%
%ADD11R,1.000000X1.500000*%
%ADD12O,1.700000X1.700000*%
%ADD13R,1.700000X1.700000*%
%ADD14R,0.600000X0.600000*%
%ADD15R,1.600000X0.550000*%
%ADD16R,0.550000X1.600000*%
%ADD17R,2.400000X2.000000*%
%ADD18C,0.800000*%
%ADD19C,0.600000*%
%ADD20C,1.200000*%
%ADD21C,0.250000*%
%ADD22C,0.400000*%
G04 APERTURE END LIST*
G04 #@! TA.AperFunction,SMDPad,CuDef*
D10*
G36*
X117267642Y-52901174D02*
G01*
X117291303Y-52904684D01*
X117314507Y-52910496D01*
X117337029Y-52918554D01*
X117358653Y-52928782D01*
X117379170Y-52941079D01*
X117398383Y-52955329D01*
X117416107Y-52971393D01*
X117432171Y-52989117D01*
X117446421Y-53008330D01*
X117458718Y-53028847D01*
X117468946Y-53050471D01*
X117477004Y-53072993D01*
X117482816Y-53096197D01*
X117486326Y-53119858D01*
X117487500Y-53143750D01*
X117487500Y-54056250D01*
X117486326Y-54080142D01*
X117482816Y-54103803D01*
X117477004Y-54127007D01*
X117468946Y-54149529D01*
X117458718Y-54171153D01*
X117446421Y-54191670D01*
X117432171Y-54210883D01*
X117416107Y-54228607D01*
X117398383Y-54244671D01*
X117379170Y-54258921D01*
X117358653Y-54271218D01*
X117337029Y-54281446D01*
X117314507Y-54289504D01*
X117291303Y-54295316D01*
X117267642Y-54298826D01*
X117243750Y-54300000D01*
X116756250Y-54300000D01*
X116732358Y-54298826D01*
X116708697Y-54295316D01*
X116685493Y-54289504D01*
X116662971Y-54281446D01*
X116641347Y-54271218D01*
X116620830Y-54258921D01*
X116601617Y-54244671D01*
X116583893Y-54228607D01*
X116567829Y-54210883D01*
X116553579Y-54191670D01*
X116541282Y-54171153D01*
X116531054Y-54149529D01*
X116522996Y-54127007D01*
X116517184Y-54103803D01*
X116513674Y-54080142D01*
X116512500Y-54056250D01*
X116512500Y-53143750D01*
X116513674Y-53119858D01*
X116517184Y-53096197D01*
X116522996Y-53072993D01*
X116531054Y-53050471D01*
X116541282Y-53028847D01*
X116553579Y-53008330D01*
X116567829Y-52989117D01*
X116583893Y-52971393D01*
X116601617Y-52955329D01*
X116620830Y-52941079D01*
X116641347Y-52928782D01*
X116662971Y-52918554D01*
X116685493Y-52910496D01*
X116708697Y-52904684D01*
X116732358Y-52901174D01*
X116756250Y-52900000D01*
X117243750Y-52900000D01*
X117267642Y-52901174D01*
G37*
G04 #@! TD.AperFunction*
G04 #@! TA.AperFunction,SMDPad,CuDef*
G36*
X115392642Y-52901174D02*
G01*
X115416303Y-52904684D01*
X115439507Y-52910496D01*
X115462029Y-52918554D01*
X115483653Y-52928782D01*
X115504170Y-52941079D01*
X115523383Y-52955329D01*
X115541107Y-52971393D01*
X115557171Y-52989117D01*
X115571421Y-53008330D01*
X115583718Y-53028847D01*
X115593946Y-53050471D01*
X115602004Y-53072993D01*
X115607816Y-53096197D01*
X115611326Y-53119858D01*
X115612500Y-53143750D01*
X115612500Y-54056250D01*
X115611326Y-54080142D01*
X115607816Y-54103803D01*
X115602004Y-54127007D01*
X115593946Y-54149529D01*
X115583718Y-54171153D01*
X115571421Y-54191670D01*
X115557171Y-54210883D01*
X115541107Y-54228607D01*
X115523383Y-54244671D01*
X115504170Y-54258921D01*
X115483653Y-54271218D01*
X115462029Y-54281446D01*
X115439507Y-54289504D01*
X115416303Y-54295316D01*
X115392642Y-54298826D01*
X115368750Y-54300000D01*
X114881250Y-54300000D01*
X114857358Y-54298826D01*
X114833697Y-54295316D01*
X114810493Y-54289504D01*
X114787971Y-54281446D01*
X114766347Y-54271218D01*
X114745830Y-54258921D01*
X114726617Y-54244671D01*
X114708893Y-54228607D01*
X114692829Y-54210883D01*
X114678579Y-54191670D01*
X114666282Y-54171153D01*
X114656054Y-54149529D01*
X114647996Y-54127007D01*
X114642184Y-54103803D01*
X114638674Y-54080142D01*
X114637500Y-54056250D01*
X114637500Y-53143750D01*
X114638674Y-53119858D01*
X114642184Y-53096197D01*
X114647996Y-53072993D01*
X114656054Y-53050471D01*
X114666282Y-53028847D01*
X114678579Y-53008330D01*
X114692829Y-52989117D01*
X114708893Y-52971393D01*
X114726617Y-52955329D01*
X114745830Y-52941079D01*
X114766347Y-52928782D01*
X114787971Y-52918554D01*
X114810493Y-52910496D01*
X114833697Y-52904684D01*
X114857358Y-52901174D01*
X114881250Y-52900000D01*
X115368750Y-52900000D01*
X115392642Y-52901174D01*
G37*
G04 #@! TD.AperFunction*
D11*
X117000000Y-51300000D03*
G04 #@! TA.AperFunction,SMDPad,CuDef*
D10*
G36*
X118300000Y-50550602D02*
G01*
X118324534Y-50550602D01*
X118373365Y-50555412D01*
X118421490Y-50564984D01*
X118468445Y-50579228D01*
X118513778Y-50598005D01*
X118557051Y-50621136D01*
X118597850Y-50648396D01*
X118635779Y-50679524D01*
X118670476Y-50714221D01*
X118701604Y-50752150D01*
X118728864Y-50792949D01*
X118751995Y-50836222D01*
X118770772Y-50881555D01*
X118785016Y-50928510D01*
X118794588Y-50976635D01*
X118799398Y-51025466D01*
X118799398Y-51050000D01*
X118800000Y-51050000D01*
X118800000Y-51550000D01*
X118799398Y-51550000D01*
X118799398Y-51574534D01*
X118794588Y-51623365D01*
X118785016Y-51671490D01*
X118770772Y-51718445D01*
X118751995Y-51763778D01*
X118728864Y-51807051D01*
X118701604Y-51847850D01*
X118670476Y-51885779D01*
X118635779Y-51920476D01*
X118597850Y-51951604D01*
X118557051Y-51978864D01*
X118513778Y-52001995D01*
X118468445Y-52020772D01*
X118421490Y-52035016D01*
X118373365Y-52044588D01*
X118324534Y-52049398D01*
X118300000Y-52049398D01*
X118300000Y-52050000D01*
X117750000Y-52050000D01*
X117750000Y-50550000D01*
X118300000Y-50550000D01*
X118300000Y-50550602D01*
G37*
G04 #@! TD.AperFunction*
G04 #@! TA.AperFunction,SMDPad,CuDef*
G36*
X116250000Y-52050000D02*
G01*
X115700000Y-52050000D01*
X115700000Y-52049398D01*
X115675466Y-52049398D01*
X115626635Y-52044588D01*
X115578510Y-52035016D01*
X115531555Y-52020772D01*
X115486222Y-52001995D01*
X115442949Y-51978864D01*
X115402150Y-51951604D01*
X115364221Y-51920476D01*
X115329524Y-51885779D01*
X115298396Y-51847850D01*
X115271136Y-51807051D01*
X115248005Y-51763778D01*
X115229228Y-51718445D01*
X115214984Y-51671490D01*
X115205412Y-51623365D01*
X115200602Y-51574534D01*
X115200602Y-51550000D01*
X115200000Y-51550000D01*
X115200000Y-51050000D01*
X115200602Y-51050000D01*
X115200602Y-51025466D01*
X115205412Y-50976635D01*
X115214984Y-50928510D01*
X115229228Y-50881555D01*
X115248005Y-50836222D01*
X115271136Y-50792949D01*
X115298396Y-50752150D01*
X115329524Y-50714221D01*
X115364221Y-50679524D01*
X115402150Y-50648396D01*
X115442949Y-50621136D01*
X115486222Y-50598005D01*
X115531555Y-50579228D01*
X115578510Y-50564984D01*
X115626635Y-50555412D01*
X115675466Y-50550602D01*
X115700000Y-50550602D01*
X115700000Y-50550000D01*
X116250000Y-50550000D01*
X116250000Y-52050000D01*
G37*
G04 #@! TD.AperFunction*
G04 #@! TA.AperFunction,SMDPad,CuDef*
G36*
X120777691Y-62476053D02*
G01*
X120798926Y-62479203D01*
X120819750Y-62484419D01*
X120839962Y-62491651D01*
X120859368Y-62500830D01*
X120877781Y-62511866D01*
X120895024Y-62524654D01*
X120910930Y-62539070D01*
X120925346Y-62554976D01*
X120938134Y-62572219D01*
X120949170Y-62590632D01*
X120958349Y-62610038D01*
X120965581Y-62630250D01*
X120970797Y-62651074D01*
X120973947Y-62672309D01*
X120975000Y-62693750D01*
X120975000Y-63131250D01*
X120973947Y-63152691D01*
X120970797Y-63173926D01*
X120965581Y-63194750D01*
X120958349Y-63214962D01*
X120949170Y-63234368D01*
X120938134Y-63252781D01*
X120925346Y-63270024D01*
X120910930Y-63285930D01*
X120895024Y-63300346D01*
X120877781Y-63313134D01*
X120859368Y-63324170D01*
X120839962Y-63333349D01*
X120819750Y-63340581D01*
X120798926Y-63345797D01*
X120777691Y-63348947D01*
X120756250Y-63350000D01*
X120243750Y-63350000D01*
X120222309Y-63348947D01*
X120201074Y-63345797D01*
X120180250Y-63340581D01*
X120160038Y-63333349D01*
X120140632Y-63324170D01*
X120122219Y-63313134D01*
X120104976Y-63300346D01*
X120089070Y-63285930D01*
X120074654Y-63270024D01*
X120061866Y-63252781D01*
X120050830Y-63234368D01*
X120041651Y-63214962D01*
X120034419Y-63194750D01*
X120029203Y-63173926D01*
X120026053Y-63152691D01*
X120025000Y-63131250D01*
X120025000Y-62693750D01*
X120026053Y-62672309D01*
X120029203Y-62651074D01*
X120034419Y-62630250D01*
X120041651Y-62610038D01*
X120050830Y-62590632D01*
X120061866Y-62572219D01*
X120074654Y-62554976D01*
X120089070Y-62539070D01*
X120104976Y-62524654D01*
X120122219Y-62511866D01*
X120140632Y-62500830D01*
X120160038Y-62491651D01*
X120180250Y-62484419D01*
X120201074Y-62479203D01*
X120222309Y-62476053D01*
X120243750Y-62475000D01*
X120756250Y-62475000D01*
X120777691Y-62476053D01*
G37*
G04 #@! TD.AperFunction*
G04 #@! TA.AperFunction,SMDPad,CuDef*
G36*
X120777691Y-60901053D02*
G01*
X120798926Y-60904203D01*
X120819750Y-60909419D01*
X120839962Y-60916651D01*
X120859368Y-60925830D01*
X120877781Y-60936866D01*
X120895024Y-60949654D01*
X120910930Y-60964070D01*
X120925346Y-60979976D01*
X120938134Y-60997219D01*
X120949170Y-61015632D01*
X120958349Y-61035038D01*
X120965581Y-61055250D01*
X120970797Y-61076074D01*
X120973947Y-61097309D01*
X120975000Y-61118750D01*
X120975000Y-61556250D01*
X120973947Y-61577691D01*
X120970797Y-61598926D01*
X120965581Y-61619750D01*
X120958349Y-61639962D01*
X120949170Y-61659368D01*
X120938134Y-61677781D01*
X120925346Y-61695024D01*
X120910930Y-61710930D01*
X120895024Y-61725346D01*
X120877781Y-61738134D01*
X120859368Y-61749170D01*
X120839962Y-61758349D01*
X120819750Y-61765581D01*
X120798926Y-61770797D01*
X120777691Y-61773947D01*
X120756250Y-61775000D01*
X120243750Y-61775000D01*
X120222309Y-61773947D01*
X120201074Y-61770797D01*
X120180250Y-61765581D01*
X120160038Y-61758349D01*
X120140632Y-61749170D01*
X120122219Y-61738134D01*
X120104976Y-61725346D01*
X120089070Y-61710930D01*
X120074654Y-61695024D01*
X120061866Y-61677781D01*
X120050830Y-61659368D01*
X120041651Y-61639962D01*
X120034419Y-61619750D01*
X120029203Y-61598926D01*
X120026053Y-61577691D01*
X120025000Y-61556250D01*
X120025000Y-61118750D01*
X120026053Y-61097309D01*
X120029203Y-61076074D01*
X120034419Y-61055250D01*
X120041651Y-61035038D01*
X120050830Y-61015632D01*
X120061866Y-60997219D01*
X120074654Y-60979976D01*
X120089070Y-60964070D01*
X120104976Y-60949654D01*
X120122219Y-60936866D01*
X120140632Y-60925830D01*
X120160038Y-60916651D01*
X120180250Y-60909419D01*
X120201074Y-60904203D01*
X120222309Y-60901053D01*
X120243750Y-60900000D01*
X120756250Y-60900000D01*
X120777691Y-60901053D01*
G37*
G04 #@! TD.AperFunction*
G04 #@! TA.AperFunction,SMDPad,CuDef*
G36*
X127833053Y-51308298D02*
G01*
X127854288Y-51311448D01*
X127875112Y-51316664D01*
X127895324Y-51323896D01*
X127914730Y-51333075D01*
X127933143Y-51344111D01*
X127950386Y-51356899D01*
X127966292Y-51371315D01*
X128328685Y-51733708D01*
X128343101Y-51749614D01*
X128355889Y-51766857D01*
X128366925Y-51785270D01*
X128376104Y-51804676D01*
X128383336Y-51824888D01*
X128388552Y-51845712D01*
X128391702Y-51866947D01*
X128392755Y-51888388D01*
X128391702Y-51909829D01*
X128388552Y-51931064D01*
X128383336Y-51951888D01*
X128376104Y-51972100D01*
X128366925Y-51991506D01*
X128355889Y-52009919D01*
X128343101Y-52027162D01*
X128328685Y-52043068D01*
X128019326Y-52352427D01*
X128003420Y-52366843D01*
X127986177Y-52379631D01*
X127967764Y-52390667D01*
X127948358Y-52399846D01*
X127928146Y-52407078D01*
X127907322Y-52412294D01*
X127886087Y-52415444D01*
X127864646Y-52416497D01*
X127843205Y-52415444D01*
X127821970Y-52412294D01*
X127801146Y-52407078D01*
X127780934Y-52399846D01*
X127761528Y-52390667D01*
X127743115Y-52379631D01*
X127725872Y-52366843D01*
X127709966Y-52352427D01*
X127347573Y-51990034D01*
X127333157Y-51974128D01*
X127320369Y-51956885D01*
X127309333Y-51938472D01*
X127300154Y-51919066D01*
X127292922Y-51898854D01*
X127287706Y-51878030D01*
X127284556Y-51856795D01*
X127283503Y-51835354D01*
X127284556Y-51813913D01*
X127287706Y-51792678D01*
X127292922Y-51771854D01*
X127300154Y-51751642D01*
X127309333Y-51732236D01*
X127320369Y-51713823D01*
X127333157Y-51696580D01*
X127347573Y-51680674D01*
X127656932Y-51371315D01*
X127672838Y-51356899D01*
X127690081Y-51344111D01*
X127708494Y-51333075D01*
X127727900Y-51323896D01*
X127748112Y-51316664D01*
X127768936Y-51311448D01*
X127790171Y-51308298D01*
X127811612Y-51307245D01*
X127833053Y-51308298D01*
G37*
G04 #@! TD.AperFunction*
G04 #@! TA.AperFunction,SMDPad,CuDef*
G36*
X126719359Y-52421992D02*
G01*
X126740594Y-52425142D01*
X126761418Y-52430358D01*
X126781630Y-52437590D01*
X126801036Y-52446769D01*
X126819449Y-52457805D01*
X126836692Y-52470593D01*
X126852598Y-52485009D01*
X127214991Y-52847402D01*
X127229407Y-52863308D01*
X127242195Y-52880551D01*
X127253231Y-52898964D01*
X127262410Y-52918370D01*
X127269642Y-52938582D01*
X127274858Y-52959406D01*
X127278008Y-52980641D01*
X127279061Y-53002082D01*
X127278008Y-53023523D01*
X127274858Y-53044758D01*
X127269642Y-53065582D01*
X127262410Y-53085794D01*
X127253231Y-53105200D01*
X127242195Y-53123613D01*
X127229407Y-53140856D01*
X127214991Y-53156762D01*
X126905632Y-53466121D01*
X126889726Y-53480537D01*
X126872483Y-53493325D01*
X126854070Y-53504361D01*
X126834664Y-53513540D01*
X126814452Y-53520772D01*
X126793628Y-53525988D01*
X126772393Y-53529138D01*
X126750952Y-53530191D01*
X126729511Y-53529138D01*
X126708276Y-53525988D01*
X126687452Y-53520772D01*
X126667240Y-53513540D01*
X126647834Y-53504361D01*
X126629421Y-53493325D01*
X126612178Y-53480537D01*
X126596272Y-53466121D01*
X126233879Y-53103728D01*
X126219463Y-53087822D01*
X126206675Y-53070579D01*
X126195639Y-53052166D01*
X126186460Y-53032760D01*
X126179228Y-53012548D01*
X126174012Y-52991724D01*
X126170862Y-52970489D01*
X126169809Y-52949048D01*
X126170862Y-52927607D01*
X126174012Y-52906372D01*
X126179228Y-52885548D01*
X126186460Y-52865336D01*
X126195639Y-52845930D01*
X126206675Y-52827517D01*
X126219463Y-52810274D01*
X126233879Y-52794368D01*
X126543238Y-52485009D01*
X126559144Y-52470593D01*
X126576387Y-52457805D01*
X126594800Y-52446769D01*
X126614206Y-52437590D01*
X126634418Y-52430358D01*
X126655242Y-52425142D01*
X126676477Y-52421992D01*
X126697918Y-52420939D01*
X126719359Y-52421992D01*
G37*
G04 #@! TD.AperFunction*
G04 #@! TA.AperFunction,SMDPad,CuDef*
G36*
X138177691Y-58951053D02*
G01*
X138198926Y-58954203D01*
X138219750Y-58959419D01*
X138239962Y-58966651D01*
X138259368Y-58975830D01*
X138277781Y-58986866D01*
X138295024Y-58999654D01*
X138310930Y-59014070D01*
X138325346Y-59029976D01*
X138338134Y-59047219D01*
X138349170Y-59065632D01*
X138358349Y-59085038D01*
X138365581Y-59105250D01*
X138370797Y-59126074D01*
X138373947Y-59147309D01*
X138375000Y-59168750D01*
X138375000Y-59606250D01*
X138373947Y-59627691D01*
X138370797Y-59648926D01*
X138365581Y-59669750D01*
X138358349Y-59689962D01*
X138349170Y-59709368D01*
X138338134Y-59727781D01*
X138325346Y-59745024D01*
X138310930Y-59760930D01*
X138295024Y-59775346D01*
X138277781Y-59788134D01*
X138259368Y-59799170D01*
X138239962Y-59808349D01*
X138219750Y-59815581D01*
X138198926Y-59820797D01*
X138177691Y-59823947D01*
X138156250Y-59825000D01*
X137643750Y-59825000D01*
X137622309Y-59823947D01*
X137601074Y-59820797D01*
X137580250Y-59815581D01*
X137560038Y-59808349D01*
X137540632Y-59799170D01*
X137522219Y-59788134D01*
X137504976Y-59775346D01*
X137489070Y-59760930D01*
X137474654Y-59745024D01*
X137461866Y-59727781D01*
X137450830Y-59709368D01*
X137441651Y-59689962D01*
X137434419Y-59669750D01*
X137429203Y-59648926D01*
X137426053Y-59627691D01*
X137425000Y-59606250D01*
X137425000Y-59168750D01*
X137426053Y-59147309D01*
X137429203Y-59126074D01*
X137434419Y-59105250D01*
X137441651Y-59085038D01*
X137450830Y-59065632D01*
X137461866Y-59047219D01*
X137474654Y-59029976D01*
X137489070Y-59014070D01*
X137504976Y-58999654D01*
X137522219Y-58986866D01*
X137540632Y-58975830D01*
X137560038Y-58966651D01*
X137580250Y-58959419D01*
X137601074Y-58954203D01*
X137622309Y-58951053D01*
X137643750Y-58950000D01*
X138156250Y-58950000D01*
X138177691Y-58951053D01*
G37*
G04 #@! TD.AperFunction*
G04 #@! TA.AperFunction,SMDPad,CuDef*
G36*
X138177691Y-60526053D02*
G01*
X138198926Y-60529203D01*
X138219750Y-60534419D01*
X138239962Y-60541651D01*
X138259368Y-60550830D01*
X138277781Y-60561866D01*
X138295024Y-60574654D01*
X138310930Y-60589070D01*
X138325346Y-60604976D01*
X138338134Y-60622219D01*
X138349170Y-60640632D01*
X138358349Y-60660038D01*
X138365581Y-60680250D01*
X138370797Y-60701074D01*
X138373947Y-60722309D01*
X138375000Y-60743750D01*
X138375000Y-61181250D01*
X138373947Y-61202691D01*
X138370797Y-61223926D01*
X138365581Y-61244750D01*
X138358349Y-61264962D01*
X138349170Y-61284368D01*
X138338134Y-61302781D01*
X138325346Y-61320024D01*
X138310930Y-61335930D01*
X138295024Y-61350346D01*
X138277781Y-61363134D01*
X138259368Y-61374170D01*
X138239962Y-61383349D01*
X138219750Y-61390581D01*
X138198926Y-61395797D01*
X138177691Y-61398947D01*
X138156250Y-61400000D01*
X137643750Y-61400000D01*
X137622309Y-61398947D01*
X137601074Y-61395797D01*
X137580250Y-61390581D01*
X137560038Y-61383349D01*
X137540632Y-61374170D01*
X137522219Y-61363134D01*
X137504976Y-61350346D01*
X137489070Y-61335930D01*
X137474654Y-61320024D01*
X137461866Y-61302781D01*
X137450830Y-61284368D01*
X137441651Y-61264962D01*
X137434419Y-61244750D01*
X137429203Y-61223926D01*
X137426053Y-61202691D01*
X137425000Y-61181250D01*
X137425000Y-60743750D01*
X137426053Y-60722309D01*
X137429203Y-60701074D01*
X137434419Y-60680250D01*
X137441651Y-60660038D01*
X137450830Y-60640632D01*
X137461866Y-60622219D01*
X137474654Y-60604976D01*
X137489070Y-60589070D01*
X137504976Y-60574654D01*
X137522219Y-60561866D01*
X137540632Y-60550830D01*
X137560038Y-60541651D01*
X137580250Y-60534419D01*
X137601074Y-60529203D01*
X137622309Y-60526053D01*
X137643750Y-60525000D01*
X138156250Y-60525000D01*
X138177691Y-60526053D01*
G37*
G04 #@! TD.AperFunction*
G04 #@! TA.AperFunction,SMDPad,CuDef*
G36*
X135377691Y-54426053D02*
G01*
X135398926Y-54429203D01*
X135419750Y-54434419D01*
X135439962Y-54441651D01*
X135459368Y-54450830D01*
X135477781Y-54461866D01*
X135495024Y-54474654D01*
X135510930Y-54489070D01*
X135525346Y-54504976D01*
X135538134Y-54522219D01*
X135549170Y-54540632D01*
X135558349Y-54560038D01*
X135565581Y-54580250D01*
X135570797Y-54601074D01*
X135573947Y-54622309D01*
X135575000Y-54643750D01*
X135575000Y-55156250D01*
X135573947Y-55177691D01*
X135570797Y-55198926D01*
X135565581Y-55219750D01*
X135558349Y-55239962D01*
X135549170Y-55259368D01*
X135538134Y-55277781D01*
X135525346Y-55295024D01*
X135510930Y-55310930D01*
X135495024Y-55325346D01*
X135477781Y-55338134D01*
X135459368Y-55349170D01*
X135439962Y-55358349D01*
X135419750Y-55365581D01*
X135398926Y-55370797D01*
X135377691Y-55373947D01*
X135356250Y-55375000D01*
X134918750Y-55375000D01*
X134897309Y-55373947D01*
X134876074Y-55370797D01*
X134855250Y-55365581D01*
X134835038Y-55358349D01*
X134815632Y-55349170D01*
X134797219Y-55338134D01*
X134779976Y-55325346D01*
X134764070Y-55310930D01*
X134749654Y-55295024D01*
X134736866Y-55277781D01*
X134725830Y-55259368D01*
X134716651Y-55239962D01*
X134709419Y-55219750D01*
X134704203Y-55198926D01*
X134701053Y-55177691D01*
X134700000Y-55156250D01*
X134700000Y-54643750D01*
X134701053Y-54622309D01*
X134704203Y-54601074D01*
X134709419Y-54580250D01*
X134716651Y-54560038D01*
X134725830Y-54540632D01*
X134736866Y-54522219D01*
X134749654Y-54504976D01*
X134764070Y-54489070D01*
X134779976Y-54474654D01*
X134797219Y-54461866D01*
X134815632Y-54450830D01*
X134835038Y-54441651D01*
X134855250Y-54434419D01*
X134876074Y-54429203D01*
X134897309Y-54426053D01*
X134918750Y-54425000D01*
X135356250Y-54425000D01*
X135377691Y-54426053D01*
G37*
G04 #@! TD.AperFunction*
G04 #@! TA.AperFunction,SMDPad,CuDef*
G36*
X136952691Y-54426053D02*
G01*
X136973926Y-54429203D01*
X136994750Y-54434419D01*
X137014962Y-54441651D01*
X137034368Y-54450830D01*
X137052781Y-54461866D01*
X137070024Y-54474654D01*
X137085930Y-54489070D01*
X137100346Y-54504976D01*
X137113134Y-54522219D01*
X137124170Y-54540632D01*
X137133349Y-54560038D01*
X137140581Y-54580250D01*
X137145797Y-54601074D01*
X137148947Y-54622309D01*
X137150000Y-54643750D01*
X137150000Y-55156250D01*
X137148947Y-55177691D01*
X137145797Y-55198926D01*
X137140581Y-55219750D01*
X137133349Y-55239962D01*
X137124170Y-55259368D01*
X137113134Y-55277781D01*
X137100346Y-55295024D01*
X137085930Y-55310930D01*
X137070024Y-55325346D01*
X137052781Y-55338134D01*
X137034368Y-55349170D01*
X137014962Y-55358349D01*
X136994750Y-55365581D01*
X136973926Y-55370797D01*
X136952691Y-55373947D01*
X136931250Y-55375000D01*
X136493750Y-55375000D01*
X136472309Y-55373947D01*
X136451074Y-55370797D01*
X136430250Y-55365581D01*
X136410038Y-55358349D01*
X136390632Y-55349170D01*
X136372219Y-55338134D01*
X136354976Y-55325346D01*
X136339070Y-55310930D01*
X136324654Y-55295024D01*
X136311866Y-55277781D01*
X136300830Y-55259368D01*
X136291651Y-55239962D01*
X136284419Y-55219750D01*
X136279203Y-55198926D01*
X136276053Y-55177691D01*
X136275000Y-55156250D01*
X136275000Y-54643750D01*
X136276053Y-54622309D01*
X136279203Y-54601074D01*
X136284419Y-54580250D01*
X136291651Y-54560038D01*
X136300830Y-54540632D01*
X136311866Y-54522219D01*
X136324654Y-54504976D01*
X136339070Y-54489070D01*
X136354976Y-54474654D01*
X136372219Y-54461866D01*
X136390632Y-54450830D01*
X136410038Y-54441651D01*
X136430250Y-54434419D01*
X136451074Y-54429203D01*
X136472309Y-54426053D01*
X136493750Y-54425000D01*
X136931250Y-54425000D01*
X136952691Y-54426053D01*
G37*
G04 #@! TD.AperFunction*
D12*
X136020000Y-49500000D03*
X133480000Y-49500000D03*
X130940000Y-49500000D03*
X128400000Y-49500000D03*
X125860000Y-49500000D03*
D13*
X123320000Y-49500000D03*
D14*
X123500000Y-65600000D03*
X124300000Y-65600000D03*
X125100000Y-65600000D03*
X125900000Y-65600000D03*
G04 #@! TA.AperFunction,SMDPad,CuDef*
D10*
G36*
X125067642Y-51901174D02*
G01*
X125091303Y-51904684D01*
X125114507Y-51910496D01*
X125137029Y-51918554D01*
X125158653Y-51928782D01*
X125179170Y-51941079D01*
X125198383Y-51955329D01*
X125216107Y-51971393D01*
X125232171Y-51989117D01*
X125246421Y-52008330D01*
X125258718Y-52028847D01*
X125268946Y-52050471D01*
X125277004Y-52072993D01*
X125282816Y-52096197D01*
X125286326Y-52119858D01*
X125287500Y-52143750D01*
X125287500Y-53056250D01*
X125286326Y-53080142D01*
X125282816Y-53103803D01*
X125277004Y-53127007D01*
X125268946Y-53149529D01*
X125258718Y-53171153D01*
X125246421Y-53191670D01*
X125232171Y-53210883D01*
X125216107Y-53228607D01*
X125198383Y-53244671D01*
X125179170Y-53258921D01*
X125158653Y-53271218D01*
X125137029Y-53281446D01*
X125114507Y-53289504D01*
X125091303Y-53295316D01*
X125067642Y-53298826D01*
X125043750Y-53300000D01*
X124556250Y-53300000D01*
X124532358Y-53298826D01*
X124508697Y-53295316D01*
X124485493Y-53289504D01*
X124462971Y-53281446D01*
X124441347Y-53271218D01*
X124420830Y-53258921D01*
X124401617Y-53244671D01*
X124383893Y-53228607D01*
X124367829Y-53210883D01*
X124353579Y-53191670D01*
X124341282Y-53171153D01*
X124331054Y-53149529D01*
X124322996Y-53127007D01*
X124317184Y-53103803D01*
X124313674Y-53080142D01*
X124312500Y-53056250D01*
X124312500Y-52143750D01*
X124313674Y-52119858D01*
X124317184Y-52096197D01*
X124322996Y-52072993D01*
X124331054Y-52050471D01*
X124341282Y-52028847D01*
X124353579Y-52008330D01*
X124367829Y-51989117D01*
X124383893Y-51971393D01*
X124401617Y-51955329D01*
X124420830Y-51941079D01*
X124441347Y-51928782D01*
X124462971Y-51918554D01*
X124485493Y-51910496D01*
X124508697Y-51904684D01*
X124532358Y-51901174D01*
X124556250Y-51900000D01*
X125043750Y-51900000D01*
X125067642Y-51901174D01*
G37*
G04 #@! TD.AperFunction*
G04 #@! TA.AperFunction,SMDPad,CuDef*
G36*
X123192642Y-51901174D02*
G01*
X123216303Y-51904684D01*
X123239507Y-51910496D01*
X123262029Y-51918554D01*
X123283653Y-51928782D01*
X123304170Y-51941079D01*
X123323383Y-51955329D01*
X123341107Y-51971393D01*
X123357171Y-51989117D01*
X123371421Y-52008330D01*
X123383718Y-52028847D01*
X123393946Y-52050471D01*
X123402004Y-52072993D01*
X123407816Y-52096197D01*
X123411326Y-52119858D01*
X123412500Y-52143750D01*
X123412500Y-53056250D01*
X123411326Y-53080142D01*
X123407816Y-53103803D01*
X123402004Y-53127007D01*
X123393946Y-53149529D01*
X123383718Y-53171153D01*
X123371421Y-53191670D01*
X123357171Y-53210883D01*
X123341107Y-53228607D01*
X123323383Y-53244671D01*
X123304170Y-53258921D01*
X123283653Y-53271218D01*
X123262029Y-53281446D01*
X123239507Y-53289504D01*
X123216303Y-53295316D01*
X123192642Y-53298826D01*
X123168750Y-53300000D01*
X122681250Y-53300000D01*
X122657358Y-53298826D01*
X122633697Y-53295316D01*
X122610493Y-53289504D01*
X122587971Y-53281446D01*
X122566347Y-53271218D01*
X122545830Y-53258921D01*
X122526617Y-53244671D01*
X122508893Y-53228607D01*
X122492829Y-53210883D01*
X122478579Y-53191670D01*
X122466282Y-53171153D01*
X122456054Y-53149529D01*
X122447996Y-53127007D01*
X122442184Y-53103803D01*
X122438674Y-53080142D01*
X122437500Y-53056250D01*
X122437500Y-52143750D01*
X122438674Y-52119858D01*
X122442184Y-52096197D01*
X122447996Y-52072993D01*
X122456054Y-52050471D01*
X122466282Y-52028847D01*
X122478579Y-52008330D01*
X122492829Y-51989117D01*
X122508893Y-51971393D01*
X122526617Y-51955329D01*
X122545830Y-51941079D01*
X122566347Y-51928782D01*
X122587971Y-51918554D01*
X122610493Y-51910496D01*
X122633697Y-51904684D01*
X122657358Y-51901174D01*
X122681250Y-51900000D01*
X123168750Y-51900000D01*
X123192642Y-51901174D01*
G37*
G04 #@! TD.AperFunction*
D13*
X105500000Y-55000000D03*
X105500000Y-51400000D03*
D12*
X105500000Y-48860000D03*
X136800000Y-64300000D03*
D13*
X134260000Y-64300000D03*
D15*
X131350000Y-57400000D03*
X131350000Y-58200000D03*
X131350000Y-59000000D03*
X131350000Y-59800000D03*
X131350000Y-60600000D03*
X131350000Y-61400000D03*
X131350000Y-62200000D03*
X131350000Y-63000000D03*
D16*
X129900000Y-64450000D03*
X129100000Y-64450000D03*
X128300000Y-64450000D03*
X127500000Y-64450000D03*
X126700000Y-64450000D03*
X125900000Y-64450000D03*
X125100000Y-64450000D03*
X124300000Y-64450000D03*
D15*
X122850000Y-63000000D03*
X122850000Y-62200000D03*
X122850000Y-61400000D03*
X122850000Y-60600000D03*
X122850000Y-59800000D03*
X122850000Y-59000000D03*
X122850000Y-58200000D03*
X122850000Y-57400000D03*
D16*
X124300000Y-55950000D03*
X125100000Y-55950000D03*
X125900000Y-55950000D03*
X126700000Y-55950000D03*
X127500000Y-55950000D03*
X128300000Y-55950000D03*
X129100000Y-55950000D03*
X129900000Y-55950000D03*
D17*
X135100000Y-57500000D03*
X135100000Y-61200000D03*
D18*
X110000000Y-53000000D03*
X110500000Y-57500000D03*
X137875000Y-56800000D03*
X133823897Y-55323897D03*
X130800000Y-53800000D03*
X124500000Y-59500000D03*
X117600000Y-60400000D03*
X129600000Y-62800000D03*
X120800000Y-53299996D03*
X113900000Y-53400000D03*
X122500000Y-64500000D03*
X117600000Y-64900000D03*
X128400000Y-60550000D03*
X115700000Y-49500000D03*
X137500000Y-50700000D03*
X124500000Y-62400000D03*
X114055553Y-63419447D03*
X112800000Y-63874990D03*
X122900000Y-56100000D03*
X121032641Y-55132641D03*
X111400000Y-64600000D03*
X117000000Y-49500000D03*
D19*
X137900000Y-56000000D02*
X136800000Y-54900000D01*
X137900000Y-56800000D02*
X137875000Y-56800000D01*
X137900000Y-56800000D02*
X137900000Y-56000000D01*
X137900000Y-59300000D02*
X137900000Y-56800000D01*
X122850000Y-59800000D02*
X124200000Y-59800000D01*
X124200000Y-59800000D02*
X124500000Y-59500000D01*
X129950000Y-60600000D02*
X129600000Y-60950000D01*
X129600000Y-62234315D02*
X129600000Y-62800000D01*
X129600000Y-60950000D02*
X129600000Y-62234315D01*
X131350000Y-60600000D02*
X129950000Y-60600000D01*
D20*
X125880000Y-51520000D02*
X124800000Y-52600000D01*
X125880000Y-49500000D02*
X125880000Y-51520000D01*
D19*
X115125000Y-53600000D02*
X114100000Y-53600000D01*
X114100000Y-53600000D02*
X113900000Y-53400000D01*
X120500000Y-63000000D02*
X120975000Y-63000000D01*
X121775010Y-62199990D02*
X122850000Y-62199990D01*
X120975000Y-63000000D02*
X121775010Y-62199990D01*
X120500000Y-63000000D02*
X120500000Y-64000000D01*
X120500000Y-64000000D02*
X121000000Y-64500000D01*
X121000000Y-64500000D02*
X122500000Y-64500000D01*
D20*
X122925000Y-49915000D02*
X123340000Y-49500000D01*
X122925000Y-52600000D02*
X122925000Y-49915000D01*
D21*
X122925000Y-53425000D02*
X122925000Y-52600000D01*
X123199981Y-53699981D02*
X122925000Y-53425000D01*
X126662564Y-53037436D02*
X126000019Y-53699981D01*
X126000019Y-53699981D02*
X123199981Y-53699981D01*
D19*
X129150000Y-59800000D02*
X128400000Y-60550000D01*
X131350000Y-59800000D02*
X129150000Y-59800000D01*
X115700000Y-51300000D02*
X115700000Y-49500000D01*
D22*
X134900000Y-57500000D02*
X135100000Y-57500000D01*
X133300000Y-59100000D02*
X134900000Y-57500000D01*
X132300000Y-62200000D02*
X132600000Y-61900000D01*
X133300000Y-60500000D02*
X133300000Y-59100000D01*
X131350000Y-62200000D02*
X132300000Y-62200000D01*
X132600000Y-61900000D02*
X132600000Y-61200000D01*
X132600000Y-61200000D02*
X133300000Y-60500000D01*
D19*
X135100000Y-54950000D02*
X135050000Y-54900000D01*
X135100000Y-57500000D02*
X135100000Y-54950000D01*
D22*
X132550000Y-63000000D02*
X133200000Y-62350000D01*
X131350000Y-63000000D02*
X132550000Y-63000000D01*
X133500000Y-61200000D02*
X135100000Y-61200000D01*
X133200000Y-61500000D02*
X133500000Y-61200000D01*
X133200000Y-62350000D02*
X133200000Y-61500000D01*
D19*
X137750000Y-61200000D02*
X137900000Y-61050000D01*
X135100000Y-61200000D02*
X137750000Y-61200000D01*
X131350000Y-57400000D02*
X131350000Y-56525000D01*
X137175000Y-50700000D02*
X137500000Y-50700000D01*
X131350000Y-56525000D02*
X137175000Y-50700000D01*
X125065685Y-62400000D02*
X124500000Y-62400000D01*
X125825002Y-62400000D02*
X125065685Y-62400000D01*
X126700000Y-63274998D02*
X125825002Y-62400000D01*
X126700000Y-64450000D02*
X126700000Y-63274998D01*
X124500000Y-62400000D02*
X124500000Y-62400000D01*
D22*
X114055553Y-63419447D02*
X114080553Y-63419447D01*
D21*
X114055553Y-63419447D02*
X116980553Y-63419447D01*
X119150000Y-61250000D02*
X120500000Y-61250000D01*
X116980553Y-63419447D02*
X119150000Y-61250000D01*
X120500000Y-57326998D02*
X123226998Y-54600000D01*
X120500000Y-61250000D02*
X120500000Y-57326998D01*
X125900000Y-54900000D02*
X125900000Y-55950000D01*
X125600000Y-54600000D02*
X125900000Y-54900000D01*
X123226998Y-54600000D02*
X125600000Y-54600000D01*
X117069144Y-62694446D02*
X113414859Y-62694446D01*
X123040597Y-54149991D02*
X119700000Y-57490588D01*
X125949991Y-54149991D02*
X123040597Y-54149991D01*
X112800000Y-63309305D02*
X112800000Y-63874990D01*
X113414859Y-62694446D02*
X112800000Y-63309305D01*
X126700000Y-55950000D02*
X126700000Y-54900000D01*
X119700000Y-60063590D02*
X117069144Y-62694446D01*
X119700000Y-57490588D02*
X119700000Y-60063590D01*
X126700000Y-54900000D02*
X125949991Y-54149991D01*
D22*
X133500000Y-49948542D02*
X133500000Y-49500000D01*
X129100000Y-55950000D02*
X129100000Y-54348542D01*
X129100000Y-54348542D02*
X133500000Y-49948542D01*
X128300000Y-55000000D02*
X128300000Y-55950000D01*
X130960000Y-51640000D02*
X128300000Y-54300000D01*
X128300000Y-54300000D02*
X128300000Y-55000000D01*
X130960000Y-49500000D02*
X130960000Y-51640000D01*
X122950000Y-57300000D02*
X122850000Y-57400000D01*
D19*
X122850000Y-57400000D02*
X122850000Y-56150000D01*
X122850000Y-56150000D02*
X122900000Y-56100000D01*
D22*
X128420000Y-51280000D02*
X127900000Y-51800000D01*
X128420000Y-49500000D02*
X128420000Y-51280000D01*
X127500000Y-54750000D02*
X127500000Y-55950000D01*
X127500000Y-54251458D02*
X127500000Y-54750000D01*
X127900000Y-53851458D02*
X127500000Y-54251458D01*
X127900000Y-51800000D02*
X127900000Y-53851458D01*
D19*
X125900000Y-64450000D02*
X125900000Y-65474990D01*
X125100000Y-64450000D02*
X125100000Y-65474990D01*
D22*
X124300000Y-64450000D02*
X124300000Y-64500000D01*
D19*
X124300000Y-64450000D02*
X124300000Y-65474990D01*
X123200000Y-63000000D02*
X123500000Y-63300000D01*
X122850000Y-63000000D02*
X123200000Y-63000000D01*
X123500000Y-63300000D02*
X123500000Y-65474990D01*
D22*
X136020000Y-50702081D02*
X136020000Y-49500000D01*
X130772081Y-55950000D02*
X136020000Y-50702081D01*
X129900000Y-55950000D02*
X130772081Y-55950000D01*
D21*
X121590000Y-58200000D02*
X121800000Y-58200000D01*
X121350000Y-58440000D02*
X121590000Y-58200000D01*
X121800000Y-58200000D02*
X122850000Y-58200000D01*
X116826998Y-64600000D02*
X119326988Y-62100010D01*
X120989990Y-62100010D02*
X121350000Y-61740000D01*
X111400000Y-64600000D02*
X116826998Y-64600000D01*
X119326988Y-62100010D02*
X120989990Y-62100010D01*
X121350000Y-61740000D02*
X121350000Y-58440000D01*
D19*
X118300000Y-52400000D02*
X118300000Y-51300000D01*
X121032641Y-55132641D02*
X118300000Y-52400000D01*
X117000000Y-51300000D02*
X117000000Y-49500000D01*
X117000000Y-53600000D02*
X117000000Y-51300000D01*
M02*
