G04 #@! TF.GenerationSoftware,KiCad,Pcbnew,(5.1.5)-3*
G04 #@! TF.CreationDate,2020-02-18T08:36:52+11:00*
G04 #@! TF.ProjectId,Heterodyne,48657465-726f-4647-996e-652e6b696361,rev?*
G04 #@! TF.SameCoordinates,Original*
G04 #@! TF.FileFunction,Soldermask,Top*
G04 #@! TF.FilePolarity,Negative*
%FSLAX46Y46*%
G04 Gerber Fmt 4.6, Leading zero omitted, Abs format (unit mm)*
G04 Created by KiCad (PCBNEW (5.1.5)-3) date 2020-02-18 08:36:52*
%MOMM*%
%LPD*%
G04 APERTURE LIST*
%ADD10C,0.100000*%
G04 APERTURE END LIST*
D10*
G36*
X114155051Y-64151284D02*
G01*
X114171446Y-64156258D01*
X114191078Y-64166751D01*
X114213717Y-64176128D01*
X114237750Y-64180908D01*
X114262254Y-64180908D01*
X114286287Y-64176127D01*
X114308922Y-64166751D01*
X114328554Y-64156258D01*
X114344949Y-64151284D01*
X114368141Y-64149000D01*
X114781859Y-64149000D01*
X114805051Y-64151284D01*
X114821446Y-64156258D01*
X114841078Y-64166751D01*
X114863717Y-64176128D01*
X114887750Y-64180908D01*
X114912254Y-64180908D01*
X114936287Y-64176127D01*
X114958922Y-64166751D01*
X114978554Y-64156258D01*
X114994949Y-64151284D01*
X115018141Y-64149000D01*
X115431859Y-64149000D01*
X115455051Y-64151284D01*
X115471446Y-64156258D01*
X115491078Y-64166751D01*
X115513717Y-64176128D01*
X115537750Y-64180908D01*
X115562254Y-64180908D01*
X115586287Y-64176127D01*
X115608922Y-64166751D01*
X115628554Y-64156258D01*
X115644949Y-64151284D01*
X115668141Y-64149000D01*
X116081859Y-64149000D01*
X116105051Y-64151284D01*
X116121443Y-64156257D01*
X116136555Y-64164334D01*
X116149798Y-64175202D01*
X116160666Y-64188445D01*
X116168743Y-64203557D01*
X116173716Y-64219949D01*
X116176000Y-64243141D01*
X116176000Y-65781859D01*
X116173716Y-65805051D01*
X116168743Y-65821443D01*
X116160666Y-65836555D01*
X116149798Y-65849798D01*
X116136555Y-65860666D01*
X116121443Y-65868743D01*
X116105051Y-65873716D01*
X116081859Y-65876000D01*
X115668141Y-65876000D01*
X115644949Y-65873716D01*
X115628554Y-65868742D01*
X115608922Y-65858249D01*
X115586283Y-65848872D01*
X115562250Y-65844092D01*
X115537746Y-65844092D01*
X115513713Y-65848873D01*
X115491078Y-65858249D01*
X115471446Y-65868742D01*
X115455051Y-65873716D01*
X115431859Y-65876000D01*
X115018141Y-65876000D01*
X114994949Y-65873716D01*
X114978554Y-65868742D01*
X114958922Y-65858249D01*
X114936283Y-65848872D01*
X114912250Y-65844092D01*
X114887746Y-65844092D01*
X114863713Y-65848873D01*
X114841078Y-65858249D01*
X114821446Y-65868742D01*
X114805051Y-65873716D01*
X114781859Y-65876000D01*
X114368141Y-65876000D01*
X114344949Y-65873716D01*
X114328554Y-65868742D01*
X114308922Y-65858249D01*
X114286283Y-65848872D01*
X114262250Y-65844092D01*
X114237746Y-65844092D01*
X114213713Y-65848873D01*
X114191078Y-65858249D01*
X114171446Y-65868742D01*
X114155051Y-65873716D01*
X114131859Y-65876000D01*
X113718141Y-65876000D01*
X113694949Y-65873716D01*
X113678557Y-65868743D01*
X113663445Y-65860666D01*
X113650202Y-65849798D01*
X113639334Y-65836555D01*
X113631257Y-65821443D01*
X113626284Y-65805051D01*
X113624000Y-65781859D01*
X113624000Y-64243141D01*
X113626284Y-64219949D01*
X113631257Y-64203557D01*
X113639334Y-64188445D01*
X113650202Y-64175202D01*
X113663445Y-64164334D01*
X113678557Y-64156257D01*
X113694949Y-64151284D01*
X113718141Y-64149000D01*
X114131859Y-64149000D01*
X114155051Y-64151284D01*
G37*
G36*
X136913512Y-63403927D02*
G01*
X137062812Y-63433624D01*
X137226784Y-63501544D01*
X137374354Y-63600147D01*
X137499853Y-63725646D01*
X137598456Y-63873216D01*
X137666376Y-64037188D01*
X137701000Y-64211259D01*
X137701000Y-64388741D01*
X137666376Y-64562812D01*
X137598456Y-64726784D01*
X137499853Y-64874354D01*
X137374354Y-64999853D01*
X137226784Y-65098456D01*
X137062812Y-65166376D01*
X136913512Y-65196073D01*
X136888742Y-65201000D01*
X136711258Y-65201000D01*
X136686488Y-65196073D01*
X136537188Y-65166376D01*
X136373216Y-65098456D01*
X136225646Y-64999853D01*
X136100147Y-64874354D01*
X136001544Y-64726784D01*
X135933624Y-64562812D01*
X135899000Y-64388741D01*
X135899000Y-64211259D01*
X135933624Y-64037188D01*
X136001544Y-63873216D01*
X136100147Y-63725646D01*
X136225646Y-63600147D01*
X136373216Y-63501544D01*
X136537188Y-63433624D01*
X136686488Y-63403927D01*
X136711258Y-63399000D01*
X136888742Y-63399000D01*
X136913512Y-63403927D01*
G37*
G36*
X135161000Y-65201000D02*
G01*
X133359000Y-65201000D01*
X133359000Y-63399000D01*
X135161000Y-63399000D01*
X135161000Y-65201000D01*
G37*
G36*
X117964499Y-62903445D02*
G01*
X118001995Y-62914820D01*
X118036554Y-62933292D01*
X118066847Y-62958153D01*
X118091708Y-62988446D01*
X118110180Y-63023005D01*
X118121555Y-63060501D01*
X118126000Y-63105638D01*
X118126000Y-63844362D01*
X118121555Y-63889499D01*
X118110180Y-63926995D01*
X118091708Y-63961554D01*
X118066847Y-63991847D01*
X118036554Y-64016708D01*
X118001995Y-64035180D01*
X117964499Y-64046555D01*
X117919362Y-64051000D01*
X117280638Y-64051000D01*
X117235501Y-64046555D01*
X117198005Y-64035180D01*
X117163446Y-64016708D01*
X117133153Y-63991847D01*
X117108292Y-63961554D01*
X117089820Y-63926995D01*
X117078445Y-63889499D01*
X117074000Y-63844362D01*
X117074000Y-63105638D01*
X117078445Y-63060501D01*
X117089820Y-63023005D01*
X117108292Y-62988446D01*
X117133153Y-62958153D01*
X117163446Y-62933292D01*
X117198005Y-62914820D01*
X117235501Y-62903445D01*
X117280638Y-62899000D01*
X117919362Y-62899000D01*
X117964499Y-62903445D01*
G37*
G36*
X126384468Y-62741065D02*
G01*
X126423138Y-62752796D01*
X126458777Y-62771846D01*
X126490017Y-62797483D01*
X126515654Y-62828723D01*
X126534704Y-62864362D01*
X126546435Y-62903032D01*
X126551000Y-62949388D01*
X126551000Y-63600612D01*
X126546435Y-63646968D01*
X126534704Y-63685638D01*
X126515654Y-63721277D01*
X126490017Y-63752517D01*
X126458777Y-63778154D01*
X126423138Y-63797204D01*
X126384468Y-63808935D01*
X126338112Y-63813500D01*
X125261888Y-63813500D01*
X125215532Y-63808935D01*
X125176862Y-63797204D01*
X125141223Y-63778154D01*
X125109983Y-63752517D01*
X125084346Y-63721277D01*
X125065296Y-63685638D01*
X125053565Y-63646968D01*
X125049000Y-63600612D01*
X125049000Y-62949388D01*
X125053565Y-62903032D01*
X125065296Y-62864362D01*
X125084346Y-62828723D01*
X125109983Y-62797483D01*
X125141223Y-62771846D01*
X125176862Y-62752796D01*
X125215532Y-62741065D01*
X125261888Y-62736500D01*
X126338112Y-62736500D01*
X126384468Y-62741065D01*
G37*
G36*
X112464499Y-62003445D02*
G01*
X112501995Y-62014820D01*
X112536554Y-62033292D01*
X112566847Y-62058153D01*
X112591708Y-62088446D01*
X112610180Y-62123005D01*
X112621555Y-62160501D01*
X112626000Y-62205638D01*
X112626000Y-62944362D01*
X112621555Y-62989499D01*
X112610180Y-63026995D01*
X112591708Y-63061554D01*
X112566847Y-63091847D01*
X112536554Y-63116708D01*
X112501995Y-63135180D01*
X112464499Y-63146555D01*
X112419362Y-63151000D01*
X111780638Y-63151000D01*
X111735501Y-63146555D01*
X111698005Y-63135180D01*
X111663446Y-63116708D01*
X111633153Y-63091847D01*
X111608292Y-63061554D01*
X111589820Y-63026995D01*
X111578445Y-62989499D01*
X111574000Y-62944362D01*
X111574000Y-62205638D01*
X111578445Y-62160501D01*
X111589820Y-62123005D01*
X111608292Y-62088446D01*
X111633153Y-62058153D01*
X111663446Y-62033292D01*
X111698005Y-62014820D01*
X111735501Y-62003445D01*
X111780638Y-61999000D01*
X112419362Y-61999000D01*
X112464499Y-62003445D01*
G37*
G36*
X117964499Y-61153445D02*
G01*
X118001995Y-61164820D01*
X118036554Y-61183292D01*
X118066847Y-61208153D01*
X118091708Y-61238446D01*
X118110180Y-61273005D01*
X118121555Y-61310501D01*
X118126000Y-61355638D01*
X118126000Y-62094362D01*
X118121555Y-62139499D01*
X118110180Y-62176995D01*
X118091708Y-62211554D01*
X118066847Y-62241847D01*
X118036554Y-62266708D01*
X118001995Y-62285180D01*
X117964499Y-62296555D01*
X117919362Y-62301000D01*
X117280638Y-62301000D01*
X117235501Y-62296555D01*
X117198005Y-62285180D01*
X117163446Y-62266708D01*
X117133153Y-62241847D01*
X117108292Y-62211554D01*
X117089820Y-62176995D01*
X117078445Y-62139499D01*
X117074000Y-62094362D01*
X117074000Y-61355638D01*
X117078445Y-61310501D01*
X117089820Y-61273005D01*
X117108292Y-61238446D01*
X117133153Y-61208153D01*
X117163446Y-61183292D01*
X117198005Y-61164820D01*
X117235501Y-61153445D01*
X117280638Y-61149000D01*
X117919362Y-61149000D01*
X117964499Y-61153445D01*
G37*
G36*
X126384468Y-60866065D02*
G01*
X126423138Y-60877796D01*
X126458777Y-60896846D01*
X126490017Y-60922483D01*
X126515654Y-60953723D01*
X126534704Y-60989362D01*
X126546435Y-61028032D01*
X126551000Y-61074388D01*
X126551000Y-61725612D01*
X126546435Y-61771968D01*
X126534704Y-61810638D01*
X126515654Y-61846277D01*
X126490017Y-61877517D01*
X126458777Y-61903154D01*
X126423138Y-61922204D01*
X126384468Y-61933935D01*
X126338112Y-61938500D01*
X125261888Y-61938500D01*
X125215532Y-61933935D01*
X125176862Y-61922204D01*
X125141223Y-61903154D01*
X125109983Y-61877517D01*
X125084346Y-61846277D01*
X125065296Y-61810638D01*
X125053565Y-61771968D01*
X125049000Y-61725612D01*
X125049000Y-61074388D01*
X125053565Y-61028032D01*
X125065296Y-60989362D01*
X125084346Y-60953723D01*
X125109983Y-60922483D01*
X125141223Y-60896846D01*
X125176862Y-60877796D01*
X125215532Y-60866065D01*
X125261888Y-60861500D01*
X126338112Y-60861500D01*
X126384468Y-60866065D01*
G37*
G36*
X123364499Y-60578445D02*
G01*
X123401995Y-60589820D01*
X123436554Y-60608292D01*
X123466847Y-60633153D01*
X123491708Y-60663446D01*
X123510180Y-60698005D01*
X123521555Y-60735501D01*
X123526000Y-60780638D01*
X123526000Y-61519362D01*
X123521555Y-61564499D01*
X123510180Y-61601995D01*
X123491708Y-61636554D01*
X123466847Y-61666847D01*
X123436554Y-61691708D01*
X123401995Y-61710180D01*
X123364499Y-61721555D01*
X123319362Y-61726000D01*
X122680638Y-61726000D01*
X122635501Y-61721555D01*
X122598005Y-61710180D01*
X122563446Y-61691708D01*
X122533153Y-61666847D01*
X122508292Y-61636554D01*
X122489820Y-61601995D01*
X122478445Y-61564499D01*
X122474000Y-61519362D01*
X122474000Y-60780638D01*
X122478445Y-60735501D01*
X122489820Y-60698005D01*
X122508292Y-60663446D01*
X122533153Y-60633153D01*
X122563446Y-60608292D01*
X122598005Y-60589820D01*
X122635501Y-60578445D01*
X122680638Y-60574000D01*
X123319362Y-60574000D01*
X123364499Y-60578445D01*
G37*
G36*
X114155051Y-59926284D02*
G01*
X114171446Y-59931258D01*
X114191078Y-59941751D01*
X114213717Y-59951128D01*
X114237750Y-59955908D01*
X114262254Y-59955908D01*
X114286287Y-59951127D01*
X114308922Y-59941751D01*
X114328554Y-59931258D01*
X114344949Y-59926284D01*
X114368141Y-59924000D01*
X114781859Y-59924000D01*
X114805051Y-59926284D01*
X114821446Y-59931258D01*
X114841078Y-59941751D01*
X114863717Y-59951128D01*
X114887750Y-59955908D01*
X114912254Y-59955908D01*
X114936287Y-59951127D01*
X114958922Y-59941751D01*
X114978554Y-59931258D01*
X114994949Y-59926284D01*
X115018141Y-59924000D01*
X115431859Y-59924000D01*
X115455051Y-59926284D01*
X115471446Y-59931258D01*
X115491078Y-59941751D01*
X115513717Y-59951128D01*
X115537750Y-59955908D01*
X115562254Y-59955908D01*
X115586287Y-59951127D01*
X115608922Y-59941751D01*
X115628554Y-59931258D01*
X115644949Y-59926284D01*
X115668141Y-59924000D01*
X116081859Y-59924000D01*
X116105051Y-59926284D01*
X116121443Y-59931257D01*
X116136555Y-59939334D01*
X116149798Y-59950202D01*
X116160666Y-59963445D01*
X116168743Y-59978557D01*
X116173716Y-59994949D01*
X116176000Y-60018141D01*
X116176000Y-61556859D01*
X116173716Y-61580051D01*
X116168743Y-61596443D01*
X116160666Y-61611555D01*
X116149798Y-61624798D01*
X116136555Y-61635666D01*
X116121443Y-61643743D01*
X116105051Y-61648716D01*
X116081859Y-61651000D01*
X115668141Y-61651000D01*
X115644949Y-61648716D01*
X115628554Y-61643742D01*
X115608922Y-61633249D01*
X115586283Y-61623872D01*
X115562250Y-61619092D01*
X115537746Y-61619092D01*
X115513713Y-61623873D01*
X115491078Y-61633249D01*
X115471446Y-61643742D01*
X115455051Y-61648716D01*
X115431859Y-61651000D01*
X115018141Y-61651000D01*
X114994949Y-61648716D01*
X114978554Y-61643742D01*
X114958922Y-61633249D01*
X114936283Y-61623872D01*
X114912250Y-61619092D01*
X114887746Y-61619092D01*
X114863713Y-61623873D01*
X114841078Y-61633249D01*
X114821446Y-61643742D01*
X114805051Y-61648716D01*
X114781859Y-61651000D01*
X114368141Y-61651000D01*
X114344949Y-61648716D01*
X114328554Y-61643742D01*
X114308922Y-61633249D01*
X114286283Y-61623872D01*
X114262250Y-61619092D01*
X114237746Y-61619092D01*
X114213713Y-61623873D01*
X114191078Y-61633249D01*
X114171446Y-61643742D01*
X114155051Y-61648716D01*
X114131859Y-61651000D01*
X113718141Y-61651000D01*
X113694949Y-61648716D01*
X113678557Y-61643743D01*
X113663445Y-61635666D01*
X113650202Y-61624798D01*
X113639334Y-61611555D01*
X113631257Y-61596443D01*
X113626284Y-61580051D01*
X113624000Y-61556859D01*
X113624000Y-60018141D01*
X113626284Y-59994949D01*
X113631257Y-59978557D01*
X113639334Y-59963445D01*
X113650202Y-59950202D01*
X113663445Y-59939334D01*
X113678557Y-59931257D01*
X113694949Y-59926284D01*
X113718141Y-59924000D01*
X114131859Y-59924000D01*
X114155051Y-59926284D01*
G37*
G36*
X112464499Y-60253445D02*
G01*
X112501995Y-60264820D01*
X112536554Y-60283292D01*
X112566847Y-60308153D01*
X112591708Y-60338446D01*
X112610180Y-60373005D01*
X112621555Y-60410501D01*
X112626000Y-60455638D01*
X112626000Y-61194362D01*
X112621555Y-61239499D01*
X112610180Y-61276995D01*
X112591708Y-61311554D01*
X112566847Y-61341847D01*
X112536554Y-61366708D01*
X112501995Y-61385180D01*
X112464499Y-61396555D01*
X112419362Y-61401000D01*
X111780638Y-61401000D01*
X111735501Y-61396555D01*
X111698005Y-61385180D01*
X111663446Y-61366708D01*
X111633153Y-61341847D01*
X111608292Y-61311554D01*
X111589820Y-61276995D01*
X111578445Y-61239499D01*
X111574000Y-61194362D01*
X111574000Y-60455638D01*
X111578445Y-60410501D01*
X111589820Y-60373005D01*
X111608292Y-60338446D01*
X111633153Y-60308153D01*
X111663446Y-60283292D01*
X111698005Y-60264820D01*
X111735501Y-60253445D01*
X111780638Y-60249000D01*
X112419362Y-60249000D01*
X112464499Y-60253445D01*
G37*
G36*
X110864499Y-60203445D02*
G01*
X110901995Y-60214820D01*
X110936554Y-60233292D01*
X110966847Y-60258153D01*
X110991708Y-60288446D01*
X111010180Y-60323005D01*
X111021555Y-60360501D01*
X111026000Y-60405638D01*
X111026000Y-61144362D01*
X111021555Y-61189499D01*
X111010180Y-61226995D01*
X110991708Y-61261554D01*
X110966847Y-61291847D01*
X110936554Y-61316708D01*
X110901995Y-61335180D01*
X110864499Y-61346555D01*
X110819362Y-61351000D01*
X110180638Y-61351000D01*
X110135501Y-61346555D01*
X110098005Y-61335180D01*
X110063446Y-61316708D01*
X110033153Y-61291847D01*
X110008292Y-61261554D01*
X109989820Y-61226995D01*
X109978445Y-61189499D01*
X109974000Y-61144362D01*
X109974000Y-60405638D01*
X109978445Y-60360501D01*
X109989820Y-60323005D01*
X110008292Y-60288446D01*
X110033153Y-60258153D01*
X110063446Y-60233292D01*
X110098005Y-60214820D01*
X110135501Y-60203445D01*
X110180638Y-60199000D01*
X110819362Y-60199000D01*
X110864499Y-60203445D01*
G37*
G36*
X134409928Y-60156764D02*
G01*
X134431009Y-60163160D01*
X134450445Y-60173548D01*
X134467476Y-60187524D01*
X134481452Y-60204555D01*
X134491840Y-60223991D01*
X134498236Y-60245072D01*
X134501000Y-60273140D01*
X134501000Y-60736860D01*
X134498236Y-60764928D01*
X134491840Y-60786009D01*
X134481452Y-60805445D01*
X134467476Y-60822476D01*
X134450445Y-60836452D01*
X134431009Y-60846840D01*
X134409928Y-60853236D01*
X134381860Y-60856000D01*
X132568140Y-60856000D01*
X132540072Y-60853236D01*
X132518991Y-60846840D01*
X132499555Y-60836452D01*
X132482524Y-60822476D01*
X132468548Y-60805445D01*
X132458160Y-60786009D01*
X132451764Y-60764928D01*
X132449000Y-60736860D01*
X132449000Y-60273140D01*
X132451764Y-60245072D01*
X132458160Y-60223991D01*
X132468548Y-60204555D01*
X132482524Y-60187524D01*
X132499555Y-60173548D01*
X132518991Y-60163160D01*
X132540072Y-60156764D01*
X132568140Y-60154000D01*
X134381860Y-60154000D01*
X134409928Y-60156764D01*
G37*
G36*
X129459928Y-60156764D02*
G01*
X129481009Y-60163160D01*
X129500445Y-60173548D01*
X129517476Y-60187524D01*
X129531452Y-60204555D01*
X129541840Y-60223991D01*
X129548236Y-60245072D01*
X129551000Y-60273140D01*
X129551000Y-60736860D01*
X129548236Y-60764928D01*
X129541840Y-60786009D01*
X129531452Y-60805445D01*
X129517476Y-60822476D01*
X129500445Y-60836452D01*
X129481009Y-60846840D01*
X129459928Y-60853236D01*
X129431860Y-60856000D01*
X127618140Y-60856000D01*
X127590072Y-60853236D01*
X127568991Y-60846840D01*
X127549555Y-60836452D01*
X127532524Y-60822476D01*
X127518548Y-60805445D01*
X127508160Y-60786009D01*
X127501764Y-60764928D01*
X127499000Y-60736860D01*
X127499000Y-60273140D01*
X127501764Y-60245072D01*
X127508160Y-60223991D01*
X127518548Y-60204555D01*
X127532524Y-60187524D01*
X127549555Y-60173548D01*
X127568991Y-60163160D01*
X127590072Y-60156764D01*
X127618140Y-60154000D01*
X129431860Y-60154000D01*
X129459928Y-60156764D01*
G37*
G36*
X123364499Y-58828445D02*
G01*
X123401995Y-58839820D01*
X123436554Y-58858292D01*
X123466847Y-58883153D01*
X123491708Y-58913446D01*
X123510180Y-58948005D01*
X123521555Y-58985501D01*
X123526000Y-59030638D01*
X123526000Y-59769362D01*
X123521555Y-59814499D01*
X123510180Y-59851995D01*
X123491708Y-59886554D01*
X123466847Y-59916847D01*
X123436554Y-59941708D01*
X123401995Y-59960180D01*
X123364499Y-59971555D01*
X123319362Y-59976000D01*
X122680638Y-59976000D01*
X122635501Y-59971555D01*
X122598005Y-59960180D01*
X122563446Y-59941708D01*
X122533153Y-59916847D01*
X122508292Y-59886554D01*
X122489820Y-59851995D01*
X122478445Y-59814499D01*
X122474000Y-59769362D01*
X122474000Y-59030638D01*
X122478445Y-58985501D01*
X122489820Y-58948005D01*
X122508292Y-58913446D01*
X122533153Y-58883153D01*
X122563446Y-58858292D01*
X122598005Y-58839820D01*
X122635501Y-58828445D01*
X122680638Y-58824000D01*
X123319362Y-58824000D01*
X123364499Y-58828445D01*
G37*
G36*
X126364499Y-58828445D02*
G01*
X126401995Y-58839820D01*
X126436554Y-58858292D01*
X126466847Y-58883153D01*
X126491708Y-58913446D01*
X126510180Y-58948005D01*
X126521555Y-58985501D01*
X126526000Y-59030638D01*
X126526000Y-59769362D01*
X126521555Y-59814499D01*
X126510180Y-59851995D01*
X126491708Y-59886554D01*
X126466847Y-59916847D01*
X126436554Y-59941708D01*
X126401995Y-59960180D01*
X126364499Y-59971555D01*
X126319362Y-59976000D01*
X125680638Y-59976000D01*
X125635501Y-59971555D01*
X125598005Y-59960180D01*
X125563446Y-59941708D01*
X125533153Y-59916847D01*
X125508292Y-59886554D01*
X125489820Y-59851995D01*
X125478445Y-59814499D01*
X125474000Y-59769362D01*
X125474000Y-59030638D01*
X125478445Y-58985501D01*
X125489820Y-58948005D01*
X125508292Y-58913446D01*
X125533153Y-58883153D01*
X125563446Y-58858292D01*
X125598005Y-58839820D01*
X125635501Y-58828445D01*
X125680638Y-58824000D01*
X126319362Y-58824000D01*
X126364499Y-58828445D01*
G37*
G36*
X110864499Y-58453445D02*
G01*
X110901995Y-58464820D01*
X110936554Y-58483292D01*
X110966847Y-58508153D01*
X110991708Y-58538446D01*
X111010180Y-58573005D01*
X111021555Y-58610501D01*
X111026000Y-58655638D01*
X111026000Y-59394362D01*
X111021555Y-59439499D01*
X111010180Y-59476995D01*
X110991708Y-59511554D01*
X110966847Y-59541847D01*
X110936554Y-59566708D01*
X110901995Y-59585180D01*
X110864499Y-59596555D01*
X110819362Y-59601000D01*
X110180638Y-59601000D01*
X110135501Y-59596555D01*
X110098005Y-59585180D01*
X110063446Y-59566708D01*
X110033153Y-59541847D01*
X110008292Y-59511554D01*
X109989820Y-59476995D01*
X109978445Y-59439499D01*
X109974000Y-59394362D01*
X109974000Y-58655638D01*
X109978445Y-58610501D01*
X109989820Y-58573005D01*
X110008292Y-58538446D01*
X110033153Y-58508153D01*
X110063446Y-58483292D01*
X110098005Y-58464820D01*
X110135501Y-58453445D01*
X110180638Y-58449000D01*
X110819362Y-58449000D01*
X110864499Y-58453445D01*
G37*
G36*
X134409928Y-58886764D02*
G01*
X134431009Y-58893160D01*
X134450445Y-58903548D01*
X134467476Y-58917524D01*
X134481452Y-58934555D01*
X134491840Y-58953991D01*
X134498236Y-58975072D01*
X134501000Y-59003140D01*
X134501000Y-59466860D01*
X134498236Y-59494928D01*
X134491840Y-59516009D01*
X134481452Y-59535445D01*
X134467476Y-59552476D01*
X134450445Y-59566452D01*
X134431009Y-59576840D01*
X134409928Y-59583236D01*
X134381860Y-59586000D01*
X132568140Y-59586000D01*
X132540072Y-59583236D01*
X132518991Y-59576840D01*
X132499555Y-59566452D01*
X132482524Y-59552476D01*
X132468548Y-59535445D01*
X132458160Y-59516009D01*
X132451764Y-59494928D01*
X132449000Y-59466860D01*
X132449000Y-59003140D01*
X132451764Y-58975072D01*
X132458160Y-58953991D01*
X132468548Y-58934555D01*
X132482524Y-58917524D01*
X132499555Y-58903548D01*
X132518991Y-58893160D01*
X132540072Y-58886764D01*
X132568140Y-58884000D01*
X134381860Y-58884000D01*
X134409928Y-58886764D01*
G37*
G36*
X129459928Y-58886764D02*
G01*
X129481009Y-58893160D01*
X129500445Y-58903548D01*
X129517476Y-58917524D01*
X129531452Y-58934555D01*
X129541840Y-58953991D01*
X129548236Y-58975072D01*
X129551000Y-59003140D01*
X129551000Y-59466860D01*
X129548236Y-59494928D01*
X129541840Y-59516009D01*
X129531452Y-59535445D01*
X129517476Y-59552476D01*
X129500445Y-59566452D01*
X129481009Y-59576840D01*
X129459928Y-59583236D01*
X129431860Y-59586000D01*
X127618140Y-59586000D01*
X127590072Y-59583236D01*
X127568991Y-59576840D01*
X127549555Y-59566452D01*
X127532524Y-59552476D01*
X127518548Y-59535445D01*
X127508160Y-59516009D01*
X127501764Y-59494928D01*
X127499000Y-59466860D01*
X127499000Y-59003140D01*
X127501764Y-58975072D01*
X127508160Y-58953991D01*
X127518548Y-58934555D01*
X127532524Y-58917524D01*
X127549555Y-58903548D01*
X127568991Y-58893160D01*
X127590072Y-58886764D01*
X127618140Y-58884000D01*
X129431860Y-58884000D01*
X129459928Y-58886764D01*
G37*
G36*
X116789499Y-58178445D02*
G01*
X116826995Y-58189820D01*
X116861554Y-58208292D01*
X116891847Y-58233153D01*
X116916708Y-58263446D01*
X116935180Y-58298005D01*
X116946555Y-58335501D01*
X116951000Y-58380638D01*
X116951000Y-59019362D01*
X116946555Y-59064499D01*
X116935180Y-59101995D01*
X116916708Y-59136554D01*
X116891847Y-59166847D01*
X116861554Y-59191708D01*
X116826995Y-59210180D01*
X116789499Y-59221555D01*
X116744362Y-59226000D01*
X116005638Y-59226000D01*
X115960501Y-59221555D01*
X115923005Y-59210180D01*
X115888446Y-59191708D01*
X115858153Y-59166847D01*
X115833292Y-59136554D01*
X115814820Y-59101995D01*
X115803445Y-59064499D01*
X115799000Y-59019362D01*
X115799000Y-58380638D01*
X115803445Y-58335501D01*
X115814820Y-58298005D01*
X115833292Y-58263446D01*
X115858153Y-58233153D01*
X115888446Y-58208292D01*
X115923005Y-58189820D01*
X115960501Y-58178445D01*
X116005638Y-58174000D01*
X116744362Y-58174000D01*
X116789499Y-58178445D01*
G37*
G36*
X115039499Y-58178445D02*
G01*
X115076995Y-58189820D01*
X115111554Y-58208292D01*
X115141847Y-58233153D01*
X115166708Y-58263446D01*
X115185180Y-58298005D01*
X115196555Y-58335501D01*
X115201000Y-58380638D01*
X115201000Y-59019362D01*
X115196555Y-59064499D01*
X115185180Y-59101995D01*
X115166708Y-59136554D01*
X115141847Y-59166847D01*
X115111554Y-59191708D01*
X115076995Y-59210180D01*
X115039499Y-59221555D01*
X114994362Y-59226000D01*
X114255638Y-59226000D01*
X114210501Y-59221555D01*
X114173005Y-59210180D01*
X114138446Y-59191708D01*
X114108153Y-59166847D01*
X114083292Y-59136554D01*
X114064820Y-59101995D01*
X114053445Y-59064499D01*
X114049000Y-59019362D01*
X114049000Y-58380638D01*
X114053445Y-58335501D01*
X114064820Y-58298005D01*
X114083292Y-58263446D01*
X114108153Y-58233153D01*
X114138446Y-58208292D01*
X114173005Y-58189820D01*
X114210501Y-58178445D01*
X114255638Y-58174000D01*
X114994362Y-58174000D01*
X115039499Y-58178445D01*
G37*
G36*
X129459928Y-57616764D02*
G01*
X129481009Y-57623160D01*
X129500445Y-57633548D01*
X129517476Y-57647524D01*
X129531452Y-57664555D01*
X129541840Y-57683991D01*
X129548236Y-57705072D01*
X129551000Y-57733140D01*
X129551000Y-58196860D01*
X129548236Y-58224928D01*
X129541840Y-58246009D01*
X129531452Y-58265445D01*
X129517476Y-58282476D01*
X129500445Y-58296452D01*
X129481009Y-58306840D01*
X129459928Y-58313236D01*
X129431860Y-58316000D01*
X127618140Y-58316000D01*
X127590072Y-58313236D01*
X127568991Y-58306840D01*
X127549555Y-58296452D01*
X127532524Y-58282476D01*
X127518548Y-58265445D01*
X127508160Y-58246009D01*
X127501764Y-58224928D01*
X127499000Y-58196860D01*
X127499000Y-57733140D01*
X127501764Y-57705072D01*
X127508160Y-57683991D01*
X127518548Y-57664555D01*
X127532524Y-57647524D01*
X127549555Y-57633548D01*
X127568991Y-57623160D01*
X127590072Y-57616764D01*
X127618140Y-57614000D01*
X129431860Y-57614000D01*
X129459928Y-57616764D01*
G37*
G36*
X134409928Y-57616764D02*
G01*
X134431009Y-57623160D01*
X134450445Y-57633548D01*
X134467476Y-57647524D01*
X134481452Y-57664555D01*
X134491840Y-57683991D01*
X134498236Y-57705072D01*
X134501000Y-57733140D01*
X134501000Y-58196860D01*
X134498236Y-58224928D01*
X134491840Y-58246009D01*
X134481452Y-58265445D01*
X134467476Y-58282476D01*
X134450445Y-58296452D01*
X134431009Y-58306840D01*
X134409928Y-58313236D01*
X134381860Y-58316000D01*
X132568140Y-58316000D01*
X132540072Y-58313236D01*
X132518991Y-58306840D01*
X132499555Y-58296452D01*
X132482524Y-58282476D01*
X132468548Y-58265445D01*
X132458160Y-58246009D01*
X132451764Y-58224928D01*
X132449000Y-58196860D01*
X132449000Y-57733140D01*
X132451764Y-57705072D01*
X132458160Y-57683991D01*
X132468548Y-57664555D01*
X132482524Y-57647524D01*
X132499555Y-57633548D01*
X132518991Y-57623160D01*
X132540072Y-57616764D01*
X132568140Y-57614000D01*
X134381860Y-57614000D01*
X134409928Y-57616764D01*
G37*
G36*
X124564499Y-57103445D02*
G01*
X124601995Y-57114820D01*
X124636554Y-57133292D01*
X124666847Y-57158153D01*
X124691708Y-57188446D01*
X124710180Y-57223005D01*
X124721555Y-57260501D01*
X124726000Y-57305638D01*
X124726000Y-58044362D01*
X124721555Y-58089499D01*
X124710180Y-58126995D01*
X124691708Y-58161554D01*
X124666847Y-58191847D01*
X124636554Y-58216708D01*
X124601995Y-58235180D01*
X124564499Y-58246555D01*
X124519362Y-58251000D01*
X123880638Y-58251000D01*
X123835501Y-58246555D01*
X123798005Y-58235180D01*
X123763446Y-58216708D01*
X123733153Y-58191847D01*
X123708292Y-58161554D01*
X123689820Y-58126995D01*
X123678445Y-58089499D01*
X123674000Y-58044362D01*
X123674000Y-57305638D01*
X123678445Y-57260501D01*
X123689820Y-57223005D01*
X123708292Y-57188446D01*
X123733153Y-57158153D01*
X123763446Y-57133292D01*
X123798005Y-57114820D01*
X123835501Y-57103445D01*
X123880638Y-57099000D01*
X124519362Y-57099000D01*
X124564499Y-57103445D01*
G37*
G36*
X126364499Y-57078445D02*
G01*
X126401995Y-57089820D01*
X126436554Y-57108292D01*
X126466847Y-57133153D01*
X126491708Y-57163446D01*
X126510180Y-57198005D01*
X126521555Y-57235501D01*
X126526000Y-57280638D01*
X126526000Y-58019362D01*
X126521555Y-58064499D01*
X126510180Y-58101995D01*
X126491708Y-58136554D01*
X126466847Y-58166847D01*
X126436554Y-58191708D01*
X126401995Y-58210180D01*
X126364499Y-58221555D01*
X126319362Y-58226000D01*
X125680638Y-58226000D01*
X125635501Y-58221555D01*
X125598005Y-58210180D01*
X125563446Y-58191708D01*
X125533153Y-58166847D01*
X125508292Y-58136554D01*
X125489820Y-58101995D01*
X125478445Y-58064499D01*
X125474000Y-58019362D01*
X125474000Y-57280638D01*
X125478445Y-57235501D01*
X125489820Y-57198005D01*
X125508292Y-57163446D01*
X125533153Y-57133153D01*
X125563446Y-57108292D01*
X125598005Y-57089820D01*
X125635501Y-57078445D01*
X125680638Y-57074000D01*
X126319362Y-57074000D01*
X126364499Y-57078445D01*
G37*
G36*
X117864499Y-56503445D02*
G01*
X117901995Y-56514820D01*
X117936554Y-56533292D01*
X117966847Y-56558153D01*
X117991708Y-56588446D01*
X118010180Y-56623005D01*
X118021555Y-56660501D01*
X118026000Y-56705638D01*
X118026000Y-57444362D01*
X118021555Y-57489499D01*
X118010180Y-57526995D01*
X117991708Y-57561554D01*
X117966847Y-57591847D01*
X117936554Y-57616708D01*
X117901995Y-57635180D01*
X117864499Y-57646555D01*
X117819362Y-57651000D01*
X117180638Y-57651000D01*
X117135501Y-57646555D01*
X117098005Y-57635180D01*
X117063446Y-57616708D01*
X117033153Y-57591847D01*
X117008292Y-57561554D01*
X116989820Y-57526995D01*
X116978445Y-57489499D01*
X116974000Y-57444362D01*
X116974000Y-56705638D01*
X116978445Y-56660501D01*
X116989820Y-56623005D01*
X117008292Y-56588446D01*
X117033153Y-56558153D01*
X117063446Y-56533292D01*
X117098005Y-56514820D01*
X117135501Y-56503445D01*
X117180638Y-56499000D01*
X117819362Y-56499000D01*
X117864499Y-56503445D01*
G37*
G36*
X113864499Y-56403445D02*
G01*
X113901995Y-56414820D01*
X113936554Y-56433292D01*
X113966847Y-56458153D01*
X113991708Y-56488446D01*
X114010180Y-56523005D01*
X114021555Y-56560501D01*
X114026000Y-56605638D01*
X114026000Y-57344362D01*
X114021555Y-57389499D01*
X114010180Y-57426995D01*
X113991708Y-57461554D01*
X113966847Y-57491847D01*
X113936554Y-57516708D01*
X113901995Y-57535180D01*
X113864499Y-57546555D01*
X113819362Y-57551000D01*
X113180638Y-57551000D01*
X113135501Y-57546555D01*
X113098005Y-57535180D01*
X113063446Y-57516708D01*
X113033153Y-57491847D01*
X113008292Y-57461554D01*
X112989820Y-57426995D01*
X112978445Y-57389499D01*
X112974000Y-57344362D01*
X112974000Y-56605638D01*
X112978445Y-56560501D01*
X112989820Y-56523005D01*
X113008292Y-56488446D01*
X113033153Y-56458153D01*
X113063446Y-56433292D01*
X113098005Y-56414820D01*
X113135501Y-56403445D01*
X113180638Y-56399000D01*
X113819362Y-56399000D01*
X113864499Y-56403445D01*
G37*
G36*
X129459928Y-56346764D02*
G01*
X129481009Y-56353160D01*
X129500445Y-56363548D01*
X129517476Y-56377524D01*
X129531452Y-56394555D01*
X129541840Y-56413991D01*
X129548236Y-56435072D01*
X129551000Y-56463140D01*
X129551000Y-56926860D01*
X129548236Y-56954928D01*
X129541840Y-56976009D01*
X129531452Y-56995445D01*
X129517476Y-57012476D01*
X129500445Y-57026452D01*
X129481009Y-57036840D01*
X129459928Y-57043236D01*
X129431860Y-57046000D01*
X127618140Y-57046000D01*
X127590072Y-57043236D01*
X127568991Y-57036840D01*
X127549555Y-57026452D01*
X127532524Y-57012476D01*
X127518548Y-56995445D01*
X127508160Y-56976009D01*
X127501764Y-56954928D01*
X127499000Y-56926860D01*
X127499000Y-56463140D01*
X127501764Y-56435072D01*
X127508160Y-56413991D01*
X127518548Y-56394555D01*
X127532524Y-56377524D01*
X127549555Y-56363548D01*
X127568991Y-56353160D01*
X127590072Y-56346764D01*
X127618140Y-56344000D01*
X129431860Y-56344000D01*
X129459928Y-56346764D01*
G37*
G36*
X134409928Y-56346764D02*
G01*
X134431009Y-56353160D01*
X134450445Y-56363548D01*
X134467476Y-56377524D01*
X134481452Y-56394555D01*
X134491840Y-56413991D01*
X134498236Y-56435072D01*
X134501000Y-56463140D01*
X134501000Y-56926860D01*
X134498236Y-56954928D01*
X134491840Y-56976009D01*
X134481452Y-56995445D01*
X134467476Y-57012476D01*
X134450445Y-57026452D01*
X134431009Y-57036840D01*
X134409928Y-57043236D01*
X134381860Y-57046000D01*
X132568140Y-57046000D01*
X132540072Y-57043236D01*
X132518991Y-57036840D01*
X132499555Y-57026452D01*
X132482524Y-57012476D01*
X132468548Y-56995445D01*
X132458160Y-56976009D01*
X132451764Y-56954928D01*
X132449000Y-56926860D01*
X132449000Y-56463140D01*
X132451764Y-56435072D01*
X132458160Y-56413991D01*
X132468548Y-56394555D01*
X132482524Y-56377524D01*
X132499555Y-56363548D01*
X132518991Y-56353160D01*
X132540072Y-56346764D01*
X132568140Y-56344000D01*
X134381860Y-56344000D01*
X134409928Y-56346764D01*
G37*
G36*
X124564499Y-55353445D02*
G01*
X124601995Y-55364820D01*
X124636554Y-55383292D01*
X124666847Y-55408153D01*
X124691708Y-55438446D01*
X124710180Y-55473005D01*
X124721555Y-55510501D01*
X124726000Y-55555638D01*
X124726000Y-56294362D01*
X124721555Y-56339499D01*
X124710180Y-56376995D01*
X124691708Y-56411554D01*
X124666847Y-56441847D01*
X124636554Y-56466708D01*
X124601995Y-56485180D01*
X124564499Y-56496555D01*
X124519362Y-56501000D01*
X123880638Y-56501000D01*
X123835501Y-56496555D01*
X123798005Y-56485180D01*
X123763446Y-56466708D01*
X123733153Y-56441847D01*
X123708292Y-56411554D01*
X123689820Y-56376995D01*
X123678445Y-56339499D01*
X123674000Y-56294362D01*
X123674000Y-55555638D01*
X123678445Y-55510501D01*
X123689820Y-55473005D01*
X123708292Y-55438446D01*
X123733153Y-55408153D01*
X123763446Y-55383292D01*
X123798005Y-55364820D01*
X123835501Y-55353445D01*
X123880638Y-55349000D01*
X124519362Y-55349000D01*
X124564499Y-55353445D01*
G37*
G36*
X117864499Y-54753445D02*
G01*
X117901995Y-54764820D01*
X117936554Y-54783292D01*
X117966847Y-54808153D01*
X117991708Y-54838446D01*
X118010180Y-54873005D01*
X118021555Y-54910501D01*
X118026000Y-54955638D01*
X118026000Y-55694362D01*
X118021555Y-55739499D01*
X118010180Y-55776995D01*
X117991708Y-55811554D01*
X117966847Y-55841847D01*
X117936554Y-55866708D01*
X117901995Y-55885180D01*
X117864499Y-55896555D01*
X117819362Y-55901000D01*
X117180638Y-55901000D01*
X117135501Y-55896555D01*
X117098005Y-55885180D01*
X117063446Y-55866708D01*
X117033153Y-55841847D01*
X117008292Y-55811554D01*
X116989820Y-55776995D01*
X116978445Y-55739499D01*
X116974000Y-55694362D01*
X116974000Y-54955638D01*
X116978445Y-54910501D01*
X116989820Y-54873005D01*
X117008292Y-54838446D01*
X117033153Y-54808153D01*
X117063446Y-54783292D01*
X117098005Y-54764820D01*
X117135501Y-54753445D01*
X117180638Y-54749000D01*
X117819362Y-54749000D01*
X117864499Y-54753445D01*
G37*
G36*
X106401000Y-55901000D02*
G01*
X104599000Y-55901000D01*
X104599000Y-54099000D01*
X106401000Y-54099000D01*
X106401000Y-55901000D01*
G37*
G36*
X113864499Y-54653445D02*
G01*
X113901995Y-54664820D01*
X113936554Y-54683292D01*
X113966847Y-54708153D01*
X113991708Y-54738446D01*
X114010180Y-54773005D01*
X114021555Y-54810501D01*
X114026000Y-54855638D01*
X114026000Y-55594362D01*
X114021555Y-55639499D01*
X114010180Y-55676995D01*
X113991708Y-55711554D01*
X113966847Y-55741847D01*
X113936554Y-55766708D01*
X113901995Y-55785180D01*
X113864499Y-55796555D01*
X113819362Y-55801000D01*
X113180638Y-55801000D01*
X113135501Y-55796555D01*
X113098005Y-55785180D01*
X113063446Y-55766708D01*
X113033153Y-55741847D01*
X113008292Y-55711554D01*
X112989820Y-55676995D01*
X112978445Y-55639499D01*
X112974000Y-55594362D01*
X112974000Y-54855638D01*
X112978445Y-54810501D01*
X112989820Y-54773005D01*
X113008292Y-54738446D01*
X113033153Y-54708153D01*
X113063446Y-54683292D01*
X113098005Y-54664820D01*
X113135501Y-54653445D01*
X113180638Y-54649000D01*
X113819362Y-54649000D01*
X113864499Y-54653445D01*
G37*
G36*
X135376000Y-55531000D02*
G01*
X134824000Y-55531000D01*
X134824000Y-53929000D01*
X135376000Y-53929000D01*
X135376000Y-55531000D01*
G37*
G36*
X138184468Y-53403565D02*
G01*
X138223138Y-53415296D01*
X138258777Y-53434346D01*
X138290017Y-53459983D01*
X138315654Y-53491223D01*
X138334704Y-53526862D01*
X138346435Y-53565532D01*
X138351000Y-53611888D01*
X138351000Y-54263112D01*
X138346435Y-54309468D01*
X138334704Y-54348138D01*
X138315654Y-54383777D01*
X138290017Y-54415017D01*
X138258777Y-54440654D01*
X138223138Y-54459704D01*
X138184468Y-54471435D01*
X138138112Y-54476000D01*
X137061888Y-54476000D01*
X137015532Y-54471435D01*
X136976862Y-54459704D01*
X136941223Y-54440654D01*
X136909983Y-54415017D01*
X136884346Y-54383777D01*
X136865296Y-54348138D01*
X136853565Y-54309468D01*
X136849000Y-54263112D01*
X136849000Y-53611888D01*
X136853565Y-53565532D01*
X136865296Y-53526862D01*
X136884346Y-53491223D01*
X136909983Y-53459983D01*
X136941223Y-53434346D01*
X136976862Y-53415296D01*
X137015532Y-53403565D01*
X137061888Y-53399000D01*
X138138112Y-53399000D01*
X138184468Y-53403565D01*
G37*
G36*
X124864499Y-53203445D02*
G01*
X124901995Y-53214820D01*
X124936554Y-53233292D01*
X124966847Y-53258153D01*
X124991708Y-53288446D01*
X125010180Y-53323005D01*
X125021555Y-53360501D01*
X125026000Y-53405638D01*
X125026000Y-54144362D01*
X125021555Y-54189499D01*
X125010180Y-54226995D01*
X124991708Y-54261554D01*
X124966847Y-54291847D01*
X124936554Y-54316708D01*
X124901995Y-54335180D01*
X124864499Y-54346555D01*
X124819362Y-54351000D01*
X124180638Y-54351000D01*
X124135501Y-54346555D01*
X124098005Y-54335180D01*
X124063446Y-54316708D01*
X124033153Y-54291847D01*
X124008292Y-54261554D01*
X123989820Y-54226995D01*
X123978445Y-54189499D01*
X123974000Y-54144362D01*
X123974000Y-53405638D01*
X123978445Y-53360501D01*
X123989820Y-53323005D01*
X124008292Y-53288446D01*
X124033153Y-53258153D01*
X124063446Y-53233292D01*
X124098005Y-53214820D01*
X124135501Y-53203445D01*
X124180638Y-53199000D01*
X124819362Y-53199000D01*
X124864499Y-53203445D01*
G37*
G36*
X129864499Y-53203445D02*
G01*
X129901995Y-53214820D01*
X129936554Y-53233292D01*
X129966847Y-53258153D01*
X129991708Y-53288446D01*
X130010180Y-53323005D01*
X130021555Y-53360501D01*
X130026000Y-53405638D01*
X130026000Y-54144362D01*
X130021555Y-54189499D01*
X130010180Y-54226995D01*
X129991708Y-54261554D01*
X129966847Y-54291847D01*
X129936554Y-54316708D01*
X129901995Y-54335180D01*
X129864499Y-54346555D01*
X129819362Y-54351000D01*
X129180638Y-54351000D01*
X129135501Y-54346555D01*
X129098005Y-54335180D01*
X129063446Y-54316708D01*
X129033153Y-54291847D01*
X129008292Y-54261554D01*
X128989820Y-54226995D01*
X128978445Y-54189499D01*
X128974000Y-54144362D01*
X128974000Y-53405638D01*
X128978445Y-53360501D01*
X128989820Y-53323005D01*
X129008292Y-53288446D01*
X129033153Y-53258153D01*
X129063446Y-53233292D01*
X129098005Y-53214820D01*
X129135501Y-53203445D01*
X129180638Y-53199000D01*
X129819362Y-53199000D01*
X129864499Y-53203445D01*
G37*
G36*
X119859928Y-52921764D02*
G01*
X119881009Y-52928160D01*
X119900445Y-52938548D01*
X119917476Y-52952524D01*
X119931452Y-52969555D01*
X119941840Y-52988991D01*
X119948236Y-53010072D01*
X119951000Y-53038140D01*
X119951000Y-53501860D01*
X119948236Y-53529928D01*
X119941840Y-53551009D01*
X119931452Y-53570445D01*
X119917476Y-53587476D01*
X119900445Y-53601452D01*
X119881009Y-53611840D01*
X119859928Y-53618236D01*
X119831860Y-53621000D01*
X118368140Y-53621000D01*
X118340072Y-53618236D01*
X118318991Y-53611840D01*
X118299555Y-53601452D01*
X118282524Y-53587476D01*
X118268548Y-53570445D01*
X118258160Y-53551009D01*
X118251764Y-53529928D01*
X118249000Y-53501860D01*
X118249000Y-53038140D01*
X118251764Y-53010072D01*
X118258160Y-52988991D01*
X118268548Y-52969555D01*
X118282524Y-52952524D01*
X118299555Y-52938548D01*
X118318991Y-52928160D01*
X118340072Y-52921764D01*
X118368140Y-52919000D01*
X119831860Y-52919000D01*
X119859928Y-52921764D01*
G37*
G36*
X112659928Y-52921764D02*
G01*
X112681009Y-52928160D01*
X112700445Y-52938548D01*
X112717476Y-52952524D01*
X112731452Y-52969555D01*
X112741840Y-52988991D01*
X112748236Y-53010072D01*
X112751000Y-53038140D01*
X112751000Y-53501860D01*
X112748236Y-53529928D01*
X112741840Y-53551009D01*
X112731452Y-53570445D01*
X112717476Y-53587476D01*
X112700445Y-53601452D01*
X112681009Y-53611840D01*
X112659928Y-53618236D01*
X112631860Y-53621000D01*
X111168140Y-53621000D01*
X111140072Y-53618236D01*
X111118991Y-53611840D01*
X111099555Y-53601452D01*
X111082524Y-53587476D01*
X111068548Y-53570445D01*
X111058160Y-53551009D01*
X111051764Y-53529928D01*
X111049000Y-53501860D01*
X111049000Y-53038140D01*
X111051764Y-53010072D01*
X111058160Y-52988991D01*
X111068548Y-52969555D01*
X111082524Y-52952524D01*
X111099555Y-52938548D01*
X111118991Y-52928160D01*
X111140072Y-52921764D01*
X111168140Y-52919000D01*
X112631860Y-52919000D01*
X112659928Y-52921764D01*
G37*
G36*
X134726000Y-52871000D02*
G01*
X134174000Y-52871000D01*
X134174000Y-51269000D01*
X134726000Y-51269000D01*
X134726000Y-52871000D01*
G37*
G36*
X136026000Y-52871000D02*
G01*
X135474000Y-52871000D01*
X135474000Y-51269000D01*
X136026000Y-51269000D01*
X136026000Y-52871000D01*
G37*
G36*
X138184468Y-51528565D02*
G01*
X138223138Y-51540296D01*
X138258777Y-51559346D01*
X138290017Y-51584983D01*
X138315654Y-51616223D01*
X138334704Y-51651862D01*
X138346435Y-51690532D01*
X138351000Y-51736888D01*
X138351000Y-52388112D01*
X138346435Y-52434468D01*
X138334704Y-52473138D01*
X138315654Y-52508777D01*
X138290017Y-52540017D01*
X138258777Y-52565654D01*
X138223138Y-52584704D01*
X138184468Y-52596435D01*
X138138112Y-52601000D01*
X137061888Y-52601000D01*
X137015532Y-52596435D01*
X136976862Y-52584704D01*
X136941223Y-52565654D01*
X136909983Y-52540017D01*
X136884346Y-52508777D01*
X136865296Y-52473138D01*
X136853565Y-52434468D01*
X136849000Y-52388112D01*
X136849000Y-51736888D01*
X136853565Y-51690532D01*
X136865296Y-51651862D01*
X136884346Y-51616223D01*
X136909983Y-51584983D01*
X136941223Y-51559346D01*
X136976862Y-51540296D01*
X137015532Y-51528565D01*
X137061888Y-51524000D01*
X138138112Y-51524000D01*
X138184468Y-51528565D01*
G37*
G36*
X129864499Y-51453445D02*
G01*
X129901995Y-51464820D01*
X129936554Y-51483292D01*
X129966847Y-51508153D01*
X129991708Y-51538446D01*
X130010180Y-51573005D01*
X130021555Y-51610501D01*
X130026000Y-51655638D01*
X130026000Y-52394362D01*
X130021555Y-52439499D01*
X130010180Y-52476995D01*
X129991708Y-52511554D01*
X129966847Y-52541847D01*
X129936554Y-52566708D01*
X129901995Y-52585180D01*
X129864499Y-52596555D01*
X129819362Y-52601000D01*
X129180638Y-52601000D01*
X129135501Y-52596555D01*
X129098005Y-52585180D01*
X129063446Y-52566708D01*
X129033153Y-52541847D01*
X129008292Y-52511554D01*
X128989820Y-52476995D01*
X128978445Y-52439499D01*
X128974000Y-52394362D01*
X128974000Y-51655638D01*
X128978445Y-51610501D01*
X128989820Y-51573005D01*
X129008292Y-51538446D01*
X129033153Y-51508153D01*
X129063446Y-51483292D01*
X129098005Y-51464820D01*
X129135501Y-51453445D01*
X129180638Y-51449000D01*
X129819362Y-51449000D01*
X129864499Y-51453445D01*
G37*
G36*
X124864499Y-51453445D02*
G01*
X124901995Y-51464820D01*
X124936554Y-51483292D01*
X124966847Y-51508153D01*
X124991708Y-51538446D01*
X125010180Y-51573005D01*
X125021555Y-51610501D01*
X125026000Y-51655638D01*
X125026000Y-52394362D01*
X125021555Y-52439499D01*
X125010180Y-52476995D01*
X124991708Y-52511554D01*
X124966847Y-52541847D01*
X124936554Y-52566708D01*
X124901995Y-52585180D01*
X124864499Y-52596555D01*
X124819362Y-52601000D01*
X124180638Y-52601000D01*
X124135501Y-52596555D01*
X124098005Y-52585180D01*
X124063446Y-52566708D01*
X124033153Y-52541847D01*
X124008292Y-52511554D01*
X123989820Y-52476995D01*
X123978445Y-52439499D01*
X123974000Y-52394362D01*
X123974000Y-51655638D01*
X123978445Y-51610501D01*
X123989820Y-51573005D01*
X124008292Y-51538446D01*
X124033153Y-51508153D01*
X124063446Y-51483292D01*
X124098005Y-51464820D01*
X124135501Y-51453445D01*
X124180638Y-51449000D01*
X124819362Y-51449000D01*
X124864499Y-51453445D01*
G37*
G36*
X126539499Y-51478445D02*
G01*
X126576995Y-51489820D01*
X126611554Y-51508292D01*
X126641847Y-51533153D01*
X126666708Y-51563446D01*
X126685180Y-51598005D01*
X126696555Y-51635501D01*
X126701000Y-51680638D01*
X126701000Y-52319362D01*
X126696555Y-52364499D01*
X126685180Y-52401995D01*
X126666708Y-52436554D01*
X126641847Y-52466847D01*
X126611554Y-52491708D01*
X126576995Y-52510180D01*
X126539499Y-52521555D01*
X126494362Y-52526000D01*
X125755638Y-52526000D01*
X125710501Y-52521555D01*
X125673005Y-52510180D01*
X125638446Y-52491708D01*
X125608153Y-52466847D01*
X125583292Y-52436554D01*
X125564820Y-52401995D01*
X125553445Y-52364499D01*
X125549000Y-52319362D01*
X125549000Y-51680638D01*
X125553445Y-51635501D01*
X125564820Y-51598005D01*
X125583292Y-51563446D01*
X125608153Y-51533153D01*
X125638446Y-51508292D01*
X125673005Y-51489820D01*
X125710501Y-51478445D01*
X125755638Y-51474000D01*
X126494362Y-51474000D01*
X126539499Y-51478445D01*
G37*
G36*
X123289499Y-51478445D02*
G01*
X123326995Y-51489820D01*
X123361554Y-51508292D01*
X123391847Y-51533153D01*
X123416708Y-51563446D01*
X123435180Y-51598005D01*
X123446555Y-51635501D01*
X123451000Y-51680638D01*
X123451000Y-52319362D01*
X123446555Y-52364499D01*
X123435180Y-52401995D01*
X123416708Y-52436554D01*
X123391847Y-52466847D01*
X123361554Y-52491708D01*
X123326995Y-52510180D01*
X123289499Y-52521555D01*
X123244362Y-52526000D01*
X122505638Y-52526000D01*
X122460501Y-52521555D01*
X122423005Y-52510180D01*
X122388446Y-52491708D01*
X122358153Y-52466847D01*
X122333292Y-52436554D01*
X122314820Y-52401995D01*
X122303445Y-52364499D01*
X122299000Y-52319362D01*
X122299000Y-51680638D01*
X122303445Y-51635501D01*
X122314820Y-51598005D01*
X122333292Y-51563446D01*
X122358153Y-51533153D01*
X122388446Y-51508292D01*
X122423005Y-51489820D01*
X122460501Y-51478445D01*
X122505638Y-51474000D01*
X123244362Y-51474000D01*
X123289499Y-51478445D01*
G37*
G36*
X131539499Y-51478445D02*
G01*
X131576995Y-51489820D01*
X131611554Y-51508292D01*
X131641847Y-51533153D01*
X131666708Y-51563446D01*
X131685180Y-51598005D01*
X131696555Y-51635501D01*
X131701000Y-51680638D01*
X131701000Y-52319362D01*
X131696555Y-52364499D01*
X131685180Y-52401995D01*
X131666708Y-52436554D01*
X131641847Y-52466847D01*
X131611554Y-52491708D01*
X131576995Y-52510180D01*
X131539499Y-52521555D01*
X131494362Y-52526000D01*
X130755638Y-52526000D01*
X130710501Y-52521555D01*
X130673005Y-52510180D01*
X130638446Y-52491708D01*
X130608153Y-52466847D01*
X130583292Y-52436554D01*
X130564820Y-52401995D01*
X130553445Y-52364499D01*
X130549000Y-52319362D01*
X130549000Y-51680638D01*
X130553445Y-51635501D01*
X130564820Y-51598005D01*
X130583292Y-51563446D01*
X130608153Y-51533153D01*
X130638446Y-51508292D01*
X130673005Y-51489820D01*
X130710501Y-51478445D01*
X130755638Y-51474000D01*
X131494362Y-51474000D01*
X131539499Y-51478445D01*
G37*
G36*
X121539499Y-51478445D02*
G01*
X121576995Y-51489820D01*
X121611554Y-51508292D01*
X121641847Y-51533153D01*
X121666708Y-51563446D01*
X121685180Y-51598005D01*
X121696555Y-51635501D01*
X121701000Y-51680638D01*
X121701000Y-52319362D01*
X121696555Y-52364499D01*
X121685180Y-52401995D01*
X121666708Y-52436554D01*
X121641847Y-52466847D01*
X121611554Y-52491708D01*
X121576995Y-52510180D01*
X121539499Y-52521555D01*
X121494362Y-52526000D01*
X120755638Y-52526000D01*
X120710501Y-52521555D01*
X120673005Y-52510180D01*
X120638446Y-52491708D01*
X120608153Y-52466847D01*
X120583292Y-52436554D01*
X120564820Y-52401995D01*
X120553445Y-52364499D01*
X120549000Y-52319362D01*
X120549000Y-51680638D01*
X120553445Y-51635501D01*
X120564820Y-51598005D01*
X120583292Y-51563446D01*
X120608153Y-51533153D01*
X120638446Y-51508292D01*
X120673005Y-51489820D01*
X120710501Y-51478445D01*
X120755638Y-51474000D01*
X121494362Y-51474000D01*
X121539499Y-51478445D01*
G37*
G36*
X128289499Y-51478445D02*
G01*
X128326995Y-51489820D01*
X128361554Y-51508292D01*
X128391847Y-51533153D01*
X128416708Y-51563446D01*
X128435180Y-51598005D01*
X128446555Y-51635501D01*
X128451000Y-51680638D01*
X128451000Y-52319362D01*
X128446555Y-52364499D01*
X128435180Y-52401995D01*
X128416708Y-52436554D01*
X128391847Y-52466847D01*
X128361554Y-52491708D01*
X128326995Y-52510180D01*
X128289499Y-52521555D01*
X128244362Y-52526000D01*
X127505638Y-52526000D01*
X127460501Y-52521555D01*
X127423005Y-52510180D01*
X127388446Y-52491708D01*
X127358153Y-52466847D01*
X127333292Y-52436554D01*
X127314820Y-52401995D01*
X127303445Y-52364499D01*
X127299000Y-52319362D01*
X127299000Y-51680638D01*
X127303445Y-51635501D01*
X127314820Y-51598005D01*
X127333292Y-51563446D01*
X127358153Y-51533153D01*
X127388446Y-51508292D01*
X127423005Y-51489820D01*
X127460501Y-51478445D01*
X127505638Y-51474000D01*
X128244362Y-51474000D01*
X128289499Y-51478445D01*
G37*
G36*
X133289499Y-51478445D02*
G01*
X133326995Y-51489820D01*
X133361554Y-51508292D01*
X133391847Y-51533153D01*
X133416708Y-51563446D01*
X133435180Y-51598005D01*
X133446555Y-51635501D01*
X133451000Y-51680638D01*
X133451000Y-52319362D01*
X133446555Y-52364499D01*
X133435180Y-52401995D01*
X133416708Y-52436554D01*
X133391847Y-52466847D01*
X133361554Y-52491708D01*
X133326995Y-52510180D01*
X133289499Y-52521555D01*
X133244362Y-52526000D01*
X132505638Y-52526000D01*
X132460501Y-52521555D01*
X132423005Y-52510180D01*
X132388446Y-52491708D01*
X132358153Y-52466847D01*
X132333292Y-52436554D01*
X132314820Y-52401995D01*
X132303445Y-52364499D01*
X132299000Y-52319362D01*
X132299000Y-51680638D01*
X132303445Y-51635501D01*
X132314820Y-51598005D01*
X132333292Y-51563446D01*
X132358153Y-51533153D01*
X132388446Y-51508292D01*
X132423005Y-51489820D01*
X132460501Y-51478445D01*
X132505638Y-51474000D01*
X133244362Y-51474000D01*
X133289499Y-51478445D01*
G37*
G36*
X112659928Y-51651764D02*
G01*
X112681009Y-51658160D01*
X112700445Y-51668548D01*
X112717476Y-51682524D01*
X112731452Y-51699555D01*
X112741840Y-51718991D01*
X112748236Y-51740072D01*
X112751000Y-51768140D01*
X112751000Y-52231860D01*
X112748236Y-52259928D01*
X112741840Y-52281009D01*
X112731452Y-52300445D01*
X112717476Y-52317476D01*
X112700445Y-52331452D01*
X112681009Y-52341840D01*
X112659928Y-52348236D01*
X112631860Y-52351000D01*
X111168140Y-52351000D01*
X111140072Y-52348236D01*
X111118991Y-52341840D01*
X111099555Y-52331452D01*
X111082524Y-52317476D01*
X111068548Y-52300445D01*
X111058160Y-52281009D01*
X111051764Y-52259928D01*
X111049000Y-52231860D01*
X111049000Y-51768140D01*
X111051764Y-51740072D01*
X111058160Y-51718991D01*
X111068548Y-51699555D01*
X111082524Y-51682524D01*
X111099555Y-51668548D01*
X111118991Y-51658160D01*
X111140072Y-51651764D01*
X111168140Y-51649000D01*
X112631860Y-51649000D01*
X112659928Y-51651764D01*
G37*
G36*
X119859928Y-51651764D02*
G01*
X119881009Y-51658160D01*
X119900445Y-51668548D01*
X119917476Y-51682524D01*
X119931452Y-51699555D01*
X119941840Y-51718991D01*
X119948236Y-51740072D01*
X119951000Y-51768140D01*
X119951000Y-52231860D01*
X119948236Y-52259928D01*
X119941840Y-52281009D01*
X119931452Y-52300445D01*
X119917476Y-52317476D01*
X119900445Y-52331452D01*
X119881009Y-52341840D01*
X119859928Y-52348236D01*
X119831860Y-52351000D01*
X118368140Y-52351000D01*
X118340072Y-52348236D01*
X118318991Y-52341840D01*
X118299555Y-52331452D01*
X118282524Y-52317476D01*
X118268548Y-52300445D01*
X118258160Y-52281009D01*
X118251764Y-52259928D01*
X118249000Y-52231860D01*
X118249000Y-51768140D01*
X118251764Y-51740072D01*
X118258160Y-51718991D01*
X118268548Y-51699555D01*
X118282524Y-51682524D01*
X118299555Y-51668548D01*
X118318991Y-51658160D01*
X118340072Y-51651764D01*
X118368140Y-51649000D01*
X119831860Y-51649000D01*
X119859928Y-51651764D01*
G37*
G36*
X106401000Y-52301000D02*
G01*
X104599000Y-52301000D01*
X104599000Y-50499000D01*
X106401000Y-50499000D01*
X106401000Y-52301000D01*
G37*
G36*
X110289499Y-50578445D02*
G01*
X110326995Y-50589820D01*
X110361554Y-50608292D01*
X110391847Y-50633153D01*
X110416708Y-50663446D01*
X110435180Y-50698005D01*
X110446555Y-50735501D01*
X110451000Y-50780638D01*
X110451000Y-51419362D01*
X110446555Y-51464499D01*
X110435180Y-51501995D01*
X110416708Y-51536554D01*
X110391847Y-51566847D01*
X110361554Y-51591708D01*
X110326995Y-51610180D01*
X110289499Y-51621555D01*
X110244362Y-51626000D01*
X109505638Y-51626000D01*
X109460501Y-51621555D01*
X109423005Y-51610180D01*
X109388446Y-51591708D01*
X109358153Y-51566847D01*
X109333292Y-51536554D01*
X109314820Y-51501995D01*
X109303445Y-51464499D01*
X109299000Y-51419362D01*
X109299000Y-50780638D01*
X109303445Y-50735501D01*
X109314820Y-50698005D01*
X109333292Y-50663446D01*
X109358153Y-50633153D01*
X109388446Y-50608292D01*
X109423005Y-50589820D01*
X109460501Y-50578445D01*
X109505638Y-50574000D01*
X110244362Y-50574000D01*
X110289499Y-50578445D01*
G37*
G36*
X108539499Y-50578445D02*
G01*
X108576995Y-50589820D01*
X108611554Y-50608292D01*
X108641847Y-50633153D01*
X108666708Y-50663446D01*
X108685180Y-50698005D01*
X108696555Y-50735501D01*
X108701000Y-50780638D01*
X108701000Y-51419362D01*
X108696555Y-51464499D01*
X108685180Y-51501995D01*
X108666708Y-51536554D01*
X108641847Y-51566847D01*
X108611554Y-51591708D01*
X108576995Y-51610180D01*
X108539499Y-51621555D01*
X108494362Y-51626000D01*
X107755638Y-51626000D01*
X107710501Y-51621555D01*
X107673005Y-51610180D01*
X107638446Y-51591708D01*
X107608153Y-51566847D01*
X107583292Y-51536554D01*
X107564820Y-51501995D01*
X107553445Y-51464499D01*
X107549000Y-51419362D01*
X107549000Y-50780638D01*
X107553445Y-50735501D01*
X107564820Y-50698005D01*
X107583292Y-50663446D01*
X107608153Y-50633153D01*
X107638446Y-50608292D01*
X107673005Y-50589820D01*
X107710501Y-50578445D01*
X107755638Y-50574000D01*
X108494362Y-50574000D01*
X108539499Y-50578445D01*
G37*
G36*
X112659928Y-50381764D02*
G01*
X112681009Y-50388160D01*
X112700445Y-50398548D01*
X112717476Y-50412524D01*
X112731452Y-50429555D01*
X112741840Y-50448991D01*
X112748236Y-50470072D01*
X112751000Y-50498140D01*
X112751000Y-50961860D01*
X112748236Y-50989928D01*
X112741840Y-51011009D01*
X112731452Y-51030445D01*
X112717476Y-51047476D01*
X112700445Y-51061452D01*
X112681009Y-51071840D01*
X112659928Y-51078236D01*
X112631860Y-51081000D01*
X111168140Y-51081000D01*
X111140072Y-51078236D01*
X111118991Y-51071840D01*
X111099555Y-51061452D01*
X111082524Y-51047476D01*
X111068548Y-51030445D01*
X111058160Y-51011009D01*
X111051764Y-50989928D01*
X111049000Y-50961860D01*
X111049000Y-50498140D01*
X111051764Y-50470072D01*
X111058160Y-50448991D01*
X111068548Y-50429555D01*
X111082524Y-50412524D01*
X111099555Y-50398548D01*
X111118991Y-50388160D01*
X111140072Y-50381764D01*
X111168140Y-50379000D01*
X112631860Y-50379000D01*
X112659928Y-50381764D01*
G37*
G36*
X119859928Y-50381764D02*
G01*
X119881009Y-50388160D01*
X119900445Y-50398548D01*
X119917476Y-50412524D01*
X119931452Y-50429555D01*
X119941840Y-50448991D01*
X119948236Y-50470072D01*
X119951000Y-50498140D01*
X119951000Y-50961860D01*
X119948236Y-50989928D01*
X119941840Y-51011009D01*
X119931452Y-51030445D01*
X119917476Y-51047476D01*
X119900445Y-51061452D01*
X119881009Y-51071840D01*
X119859928Y-51078236D01*
X119831860Y-51081000D01*
X118368140Y-51081000D01*
X118340072Y-51078236D01*
X118318991Y-51071840D01*
X118299555Y-51061452D01*
X118282524Y-51047476D01*
X118268548Y-51030445D01*
X118258160Y-51011009D01*
X118251764Y-50989928D01*
X118249000Y-50961860D01*
X118249000Y-50498140D01*
X118251764Y-50470072D01*
X118258160Y-50448991D01*
X118268548Y-50429555D01*
X118282524Y-50412524D01*
X118299555Y-50398548D01*
X118318991Y-50388160D01*
X118340072Y-50381764D01*
X118368140Y-50379000D01*
X119831860Y-50379000D01*
X119859928Y-50381764D01*
G37*
G36*
X124241000Y-50401000D02*
G01*
X122439000Y-50401000D01*
X122439000Y-48599000D01*
X124241000Y-48599000D01*
X124241000Y-50401000D01*
G37*
G36*
X125993512Y-48603927D02*
G01*
X126142812Y-48633624D01*
X126306784Y-48701544D01*
X126454354Y-48800147D01*
X126579853Y-48925646D01*
X126678456Y-49073216D01*
X126746376Y-49237188D01*
X126781000Y-49411259D01*
X126781000Y-49588741D01*
X126746376Y-49762812D01*
X126678456Y-49926784D01*
X126579853Y-50074354D01*
X126454354Y-50199853D01*
X126306784Y-50298456D01*
X126142812Y-50366376D01*
X126012183Y-50392359D01*
X125968742Y-50401000D01*
X125791258Y-50401000D01*
X125747817Y-50392359D01*
X125617188Y-50366376D01*
X125453216Y-50298456D01*
X125305646Y-50199853D01*
X125180147Y-50074354D01*
X125081544Y-49926784D01*
X125013624Y-49762812D01*
X124979000Y-49588741D01*
X124979000Y-49411259D01*
X125013624Y-49237188D01*
X125081544Y-49073216D01*
X125180147Y-48925646D01*
X125305646Y-48800147D01*
X125453216Y-48701544D01*
X125617188Y-48633624D01*
X125766488Y-48603927D01*
X125791258Y-48599000D01*
X125968742Y-48599000D01*
X125993512Y-48603927D01*
G37*
G36*
X128533512Y-48603927D02*
G01*
X128682812Y-48633624D01*
X128846784Y-48701544D01*
X128994354Y-48800147D01*
X129119853Y-48925646D01*
X129218456Y-49073216D01*
X129286376Y-49237188D01*
X129321000Y-49411259D01*
X129321000Y-49588741D01*
X129286376Y-49762812D01*
X129218456Y-49926784D01*
X129119853Y-50074354D01*
X128994354Y-50199853D01*
X128846784Y-50298456D01*
X128682812Y-50366376D01*
X128552183Y-50392359D01*
X128508742Y-50401000D01*
X128331258Y-50401000D01*
X128287817Y-50392359D01*
X128157188Y-50366376D01*
X127993216Y-50298456D01*
X127845646Y-50199853D01*
X127720147Y-50074354D01*
X127621544Y-49926784D01*
X127553624Y-49762812D01*
X127519000Y-49588741D01*
X127519000Y-49411259D01*
X127553624Y-49237188D01*
X127621544Y-49073216D01*
X127720147Y-48925646D01*
X127845646Y-48800147D01*
X127993216Y-48701544D01*
X128157188Y-48633624D01*
X128306488Y-48603927D01*
X128331258Y-48599000D01*
X128508742Y-48599000D01*
X128533512Y-48603927D01*
G37*
G36*
X131073512Y-48603927D02*
G01*
X131222812Y-48633624D01*
X131386784Y-48701544D01*
X131534354Y-48800147D01*
X131659853Y-48925646D01*
X131758456Y-49073216D01*
X131826376Y-49237188D01*
X131861000Y-49411259D01*
X131861000Y-49588741D01*
X131826376Y-49762812D01*
X131758456Y-49926784D01*
X131659853Y-50074354D01*
X131534354Y-50199853D01*
X131386784Y-50298456D01*
X131222812Y-50366376D01*
X131092183Y-50392359D01*
X131048742Y-50401000D01*
X130871258Y-50401000D01*
X130827817Y-50392359D01*
X130697188Y-50366376D01*
X130533216Y-50298456D01*
X130385646Y-50199853D01*
X130260147Y-50074354D01*
X130161544Y-49926784D01*
X130093624Y-49762812D01*
X130059000Y-49588741D01*
X130059000Y-49411259D01*
X130093624Y-49237188D01*
X130161544Y-49073216D01*
X130260147Y-48925646D01*
X130385646Y-48800147D01*
X130533216Y-48701544D01*
X130697188Y-48633624D01*
X130846488Y-48603927D01*
X130871258Y-48599000D01*
X131048742Y-48599000D01*
X131073512Y-48603927D01*
G37*
G36*
X133613512Y-48603927D02*
G01*
X133762812Y-48633624D01*
X133926784Y-48701544D01*
X134074354Y-48800147D01*
X134199853Y-48925646D01*
X134298456Y-49073216D01*
X134366376Y-49237188D01*
X134401000Y-49411259D01*
X134401000Y-49588741D01*
X134366376Y-49762812D01*
X134298456Y-49926784D01*
X134199853Y-50074354D01*
X134074354Y-50199853D01*
X133926784Y-50298456D01*
X133762812Y-50366376D01*
X133632183Y-50392359D01*
X133588742Y-50401000D01*
X133411258Y-50401000D01*
X133367817Y-50392359D01*
X133237188Y-50366376D01*
X133073216Y-50298456D01*
X132925646Y-50199853D01*
X132800147Y-50074354D01*
X132701544Y-49926784D01*
X132633624Y-49762812D01*
X132599000Y-49588741D01*
X132599000Y-49411259D01*
X132633624Y-49237188D01*
X132701544Y-49073216D01*
X132800147Y-48925646D01*
X132925646Y-48800147D01*
X133073216Y-48701544D01*
X133237188Y-48633624D01*
X133386488Y-48603927D01*
X133411258Y-48599000D01*
X133588742Y-48599000D01*
X133613512Y-48603927D01*
G37*
G36*
X119859928Y-49111764D02*
G01*
X119881009Y-49118160D01*
X119900445Y-49128548D01*
X119917476Y-49142524D01*
X119931452Y-49159555D01*
X119941840Y-49178991D01*
X119948236Y-49200072D01*
X119951000Y-49228140D01*
X119951000Y-49691860D01*
X119948236Y-49719928D01*
X119941840Y-49741009D01*
X119931452Y-49760445D01*
X119917476Y-49777476D01*
X119900445Y-49791452D01*
X119881009Y-49801840D01*
X119859928Y-49808236D01*
X119831860Y-49811000D01*
X118368140Y-49811000D01*
X118340072Y-49808236D01*
X118318991Y-49801840D01*
X118299555Y-49791452D01*
X118282524Y-49777476D01*
X118268548Y-49760445D01*
X118258160Y-49741009D01*
X118251764Y-49719928D01*
X118249000Y-49691860D01*
X118249000Y-49228140D01*
X118251764Y-49200072D01*
X118258160Y-49178991D01*
X118268548Y-49159555D01*
X118282524Y-49142524D01*
X118299555Y-49128548D01*
X118318991Y-49118160D01*
X118340072Y-49111764D01*
X118368140Y-49109000D01*
X119831860Y-49109000D01*
X119859928Y-49111764D01*
G37*
G36*
X112659928Y-49111764D02*
G01*
X112681009Y-49118160D01*
X112700445Y-49128548D01*
X112717476Y-49142524D01*
X112731452Y-49159555D01*
X112741840Y-49178991D01*
X112748236Y-49200072D01*
X112751000Y-49228140D01*
X112751000Y-49691860D01*
X112748236Y-49719928D01*
X112741840Y-49741009D01*
X112731452Y-49760445D01*
X112717476Y-49777476D01*
X112700445Y-49791452D01*
X112681009Y-49801840D01*
X112659928Y-49808236D01*
X112631860Y-49811000D01*
X111168140Y-49811000D01*
X111140072Y-49808236D01*
X111118991Y-49801840D01*
X111099555Y-49791452D01*
X111082524Y-49777476D01*
X111068548Y-49760445D01*
X111058160Y-49741009D01*
X111051764Y-49719928D01*
X111049000Y-49691860D01*
X111049000Y-49228140D01*
X111051764Y-49200072D01*
X111058160Y-49178991D01*
X111068548Y-49159555D01*
X111082524Y-49142524D01*
X111099555Y-49128548D01*
X111118991Y-49118160D01*
X111140072Y-49111764D01*
X111168140Y-49109000D01*
X112631860Y-49109000D01*
X112659928Y-49111764D01*
G37*
G36*
X105613512Y-47963927D02*
G01*
X105762812Y-47993624D01*
X105926784Y-48061544D01*
X106074354Y-48160147D01*
X106199853Y-48285646D01*
X106298456Y-48433216D01*
X106366376Y-48597188D01*
X106401000Y-48771259D01*
X106401000Y-48948741D01*
X106366376Y-49122812D01*
X106298456Y-49286784D01*
X106199853Y-49434354D01*
X106074354Y-49559853D01*
X105926784Y-49658456D01*
X105762812Y-49726376D01*
X105613512Y-49756073D01*
X105588742Y-49761000D01*
X105411258Y-49761000D01*
X105386488Y-49756073D01*
X105237188Y-49726376D01*
X105073216Y-49658456D01*
X104925646Y-49559853D01*
X104800147Y-49434354D01*
X104701544Y-49286784D01*
X104633624Y-49122812D01*
X104599000Y-48948741D01*
X104599000Y-48771259D01*
X104633624Y-48597188D01*
X104701544Y-48433216D01*
X104800147Y-48285646D01*
X104925646Y-48160147D01*
X105073216Y-48061544D01*
X105237188Y-47993624D01*
X105386488Y-47963927D01*
X105411258Y-47959000D01*
X105588742Y-47959000D01*
X105613512Y-47963927D01*
G37*
G36*
X110289499Y-48578445D02*
G01*
X110326995Y-48589820D01*
X110361554Y-48608292D01*
X110391847Y-48633153D01*
X110416708Y-48663446D01*
X110435180Y-48698005D01*
X110446555Y-48735501D01*
X110451000Y-48780638D01*
X110451000Y-49419362D01*
X110446555Y-49464499D01*
X110435180Y-49501995D01*
X110416708Y-49536554D01*
X110391847Y-49566847D01*
X110361554Y-49591708D01*
X110326995Y-49610180D01*
X110289499Y-49621555D01*
X110244362Y-49626000D01*
X109505638Y-49626000D01*
X109460501Y-49621555D01*
X109423005Y-49610180D01*
X109388446Y-49591708D01*
X109358153Y-49566847D01*
X109333292Y-49536554D01*
X109314820Y-49501995D01*
X109303445Y-49464499D01*
X109299000Y-49419362D01*
X109299000Y-48780638D01*
X109303445Y-48735501D01*
X109314820Y-48698005D01*
X109333292Y-48663446D01*
X109358153Y-48633153D01*
X109388446Y-48608292D01*
X109423005Y-48589820D01*
X109460501Y-48578445D01*
X109505638Y-48574000D01*
X110244362Y-48574000D01*
X110289499Y-48578445D01*
G37*
G36*
X108539499Y-48578445D02*
G01*
X108576995Y-48589820D01*
X108611554Y-48608292D01*
X108641847Y-48633153D01*
X108666708Y-48663446D01*
X108685180Y-48698005D01*
X108696555Y-48735501D01*
X108701000Y-48780638D01*
X108701000Y-49419362D01*
X108696555Y-49464499D01*
X108685180Y-49501995D01*
X108666708Y-49536554D01*
X108641847Y-49566847D01*
X108611554Y-49591708D01*
X108576995Y-49610180D01*
X108539499Y-49621555D01*
X108494362Y-49626000D01*
X107755638Y-49626000D01*
X107710501Y-49621555D01*
X107673005Y-49610180D01*
X107638446Y-49591708D01*
X107608153Y-49566847D01*
X107583292Y-49536554D01*
X107564820Y-49501995D01*
X107553445Y-49464499D01*
X107549000Y-49419362D01*
X107549000Y-48780638D01*
X107553445Y-48735501D01*
X107564820Y-48698005D01*
X107583292Y-48663446D01*
X107608153Y-48633153D01*
X107638446Y-48608292D01*
X107673005Y-48589820D01*
X107710501Y-48578445D01*
X107755638Y-48574000D01*
X108494362Y-48574000D01*
X108539499Y-48578445D01*
G37*
M02*
