G04 #@! TF.GenerationSoftware,KiCad,Pcbnew,(5.1.5)-3*
G04 #@! TF.CreationDate,2020-02-18T08:36:52+11:00*
G04 #@! TF.ProjectId,Heterodyne,48657465-726f-4647-996e-652e6b696361,rev?*
G04 #@! TF.SameCoordinates,Original*
G04 #@! TF.FileFunction,Soldermask,Bot*
G04 #@! TF.FilePolarity,Negative*
%FSLAX46Y46*%
G04 Gerber Fmt 4.6, Leading zero omitted, Abs format (unit mm)*
G04 Created by KiCad (PCBNEW (5.1.5)-3) date 2020-02-18 08:36:52*
%MOMM*%
%LPD*%
G04 APERTURE LIST*
%ADD10C,0.100000*%
G04 APERTURE END LIST*
D10*
G36*
X126200000Y-65900000D02*
G01*
X123200000Y-65900000D01*
X123200000Y-65300000D01*
X126200000Y-65300000D01*
X126200000Y-65900000D01*
G37*
X126200000Y-65900000D02*
X123200000Y-65900000D01*
X123200000Y-65300000D01*
X126200000Y-65300000D01*
X126200000Y-65900000D01*
G36*
X130226000Y-65301000D02*
G01*
X126375999Y-65301000D01*
X126351613Y-65303402D01*
X126328164Y-65310515D01*
X126306553Y-65322066D01*
X126287611Y-65337611D01*
X126272066Y-65356553D01*
X126260515Y-65378164D01*
X126253402Y-65401613D01*
X126251000Y-65425999D01*
X126251000Y-65951000D01*
X123149000Y-65951000D01*
X123149000Y-65249000D01*
X123849001Y-65249000D01*
X123873387Y-65246598D01*
X123896836Y-65239485D01*
X123918447Y-65227934D01*
X123937389Y-65212389D01*
X123952934Y-65193447D01*
X123964485Y-65171836D01*
X123971598Y-65148387D01*
X123974000Y-65124001D01*
X123974000Y-63599000D01*
X130226000Y-63599000D01*
X130226000Y-65301000D01*
G37*
G36*
X135161000Y-65201000D02*
G01*
X133359000Y-65201000D01*
X133359000Y-63399000D01*
X135161000Y-63399000D01*
X135161000Y-65201000D01*
G37*
G36*
X136913512Y-63403927D02*
G01*
X137062812Y-63433624D01*
X137226784Y-63501544D01*
X137374354Y-63600147D01*
X137499853Y-63725646D01*
X137598456Y-63873216D01*
X137666376Y-64037188D01*
X137701000Y-64211259D01*
X137701000Y-64388741D01*
X137666376Y-64562812D01*
X137598456Y-64726784D01*
X137499853Y-64874354D01*
X137374354Y-64999853D01*
X137226784Y-65098456D01*
X137062812Y-65166376D01*
X136926713Y-65193447D01*
X136888742Y-65201000D01*
X136711258Y-65201000D01*
X136673287Y-65193447D01*
X136537188Y-65166376D01*
X136373216Y-65098456D01*
X136225646Y-64999853D01*
X136100147Y-64874354D01*
X136001544Y-64726784D01*
X135933624Y-64562812D01*
X135899000Y-64388741D01*
X135899000Y-64211259D01*
X135933624Y-64037188D01*
X136001544Y-63873216D01*
X136100147Y-63725646D01*
X136225646Y-63600147D01*
X136373216Y-63501544D01*
X136537188Y-63433624D01*
X136686488Y-63403927D01*
X136711258Y-63399000D01*
X136888742Y-63399000D01*
X136913512Y-63403927D01*
G37*
G36*
X120864499Y-62428445D02*
G01*
X120901995Y-62439820D01*
X120936554Y-62458292D01*
X120966847Y-62483153D01*
X120991708Y-62513446D01*
X121010180Y-62548005D01*
X121021555Y-62585501D01*
X121026000Y-62630638D01*
X121026000Y-63369362D01*
X121021555Y-63414499D01*
X121010180Y-63451995D01*
X120991708Y-63486554D01*
X120966847Y-63516847D01*
X120936554Y-63541708D01*
X120901995Y-63560180D01*
X120864499Y-63571555D01*
X120819362Y-63576000D01*
X120180638Y-63576000D01*
X120135501Y-63571555D01*
X120098005Y-63560180D01*
X120063446Y-63541708D01*
X120033153Y-63516847D01*
X120008292Y-63486554D01*
X119989820Y-63451995D01*
X119978445Y-63414499D01*
X119974000Y-63369362D01*
X119974000Y-62630638D01*
X119978445Y-62585501D01*
X119989820Y-62548005D01*
X120008292Y-62513446D01*
X120033153Y-62483153D01*
X120063446Y-62458292D01*
X120098005Y-62439820D01*
X120135501Y-62428445D01*
X120180638Y-62424000D01*
X120819362Y-62424000D01*
X120864499Y-62428445D01*
G37*
G36*
X123701000Y-63326000D02*
G01*
X121999000Y-63326000D01*
X121999000Y-57074000D01*
X123701000Y-57074000D01*
X123701000Y-63326000D01*
G37*
G36*
X132201000Y-63326000D02*
G01*
X130499000Y-63326000D01*
X130499000Y-57074000D01*
X132201000Y-57074000D01*
X132201000Y-63326000D01*
G37*
G36*
X136351000Y-62251000D02*
G01*
X133849000Y-62251000D01*
X133849000Y-60149000D01*
X136351000Y-60149000D01*
X136351000Y-62251000D01*
G37*
G36*
X120864499Y-60678445D02*
G01*
X120901995Y-60689820D01*
X120936554Y-60708292D01*
X120966847Y-60733153D01*
X120991708Y-60763446D01*
X121010180Y-60798005D01*
X121021555Y-60835501D01*
X121026000Y-60880638D01*
X121026000Y-61619362D01*
X121021555Y-61664499D01*
X121010180Y-61701995D01*
X120991708Y-61736554D01*
X120966847Y-61766847D01*
X120936554Y-61791708D01*
X120901995Y-61810180D01*
X120864499Y-61821555D01*
X120819362Y-61826000D01*
X120180638Y-61826000D01*
X120135501Y-61821555D01*
X120098005Y-61810180D01*
X120063446Y-61791708D01*
X120033153Y-61766847D01*
X120008292Y-61736554D01*
X119989820Y-61701995D01*
X119978445Y-61664499D01*
X119974000Y-61619362D01*
X119974000Y-60880638D01*
X119978445Y-60835501D01*
X119989820Y-60798005D01*
X120008292Y-60763446D01*
X120033153Y-60733153D01*
X120063446Y-60708292D01*
X120098005Y-60689820D01*
X120135501Y-60678445D01*
X120180638Y-60674000D01*
X120819362Y-60674000D01*
X120864499Y-60678445D01*
G37*
G36*
X138264499Y-60478445D02*
G01*
X138301995Y-60489820D01*
X138336554Y-60508292D01*
X138366847Y-60533153D01*
X138391708Y-60563446D01*
X138410180Y-60598005D01*
X138421555Y-60635501D01*
X138426000Y-60680638D01*
X138426000Y-61419362D01*
X138421555Y-61464499D01*
X138410180Y-61501995D01*
X138391708Y-61536554D01*
X138366847Y-61566847D01*
X138336554Y-61591708D01*
X138301995Y-61610180D01*
X138264499Y-61621555D01*
X138219362Y-61626000D01*
X137580638Y-61626000D01*
X137535501Y-61621555D01*
X137498005Y-61610180D01*
X137463446Y-61591708D01*
X137433153Y-61566847D01*
X137408292Y-61536554D01*
X137389820Y-61501995D01*
X137378445Y-61464499D01*
X137374000Y-61419362D01*
X137374000Y-60680638D01*
X137378445Y-60635501D01*
X137389820Y-60598005D01*
X137408292Y-60563446D01*
X137433153Y-60533153D01*
X137463446Y-60508292D01*
X137498005Y-60489820D01*
X137535501Y-60478445D01*
X137580638Y-60474000D01*
X138219362Y-60474000D01*
X138264499Y-60478445D01*
G37*
G36*
X138264499Y-58728445D02*
G01*
X138301995Y-58739820D01*
X138336554Y-58758292D01*
X138366847Y-58783153D01*
X138391708Y-58813446D01*
X138410180Y-58848005D01*
X138421555Y-58885501D01*
X138426000Y-58930638D01*
X138426000Y-59669362D01*
X138421555Y-59714499D01*
X138410180Y-59751995D01*
X138391708Y-59786554D01*
X138366847Y-59816847D01*
X138336554Y-59841708D01*
X138301995Y-59860180D01*
X138264499Y-59871555D01*
X138219362Y-59876000D01*
X137580638Y-59876000D01*
X137535501Y-59871555D01*
X137498005Y-59860180D01*
X137463446Y-59841708D01*
X137433153Y-59816847D01*
X137408292Y-59786554D01*
X137389820Y-59751995D01*
X137378445Y-59714499D01*
X137374000Y-59669362D01*
X137374000Y-58930638D01*
X137378445Y-58885501D01*
X137389820Y-58848005D01*
X137408292Y-58813446D01*
X137433153Y-58783153D01*
X137463446Y-58758292D01*
X137498005Y-58739820D01*
X137535501Y-58728445D01*
X137580638Y-58724000D01*
X138219362Y-58724000D01*
X138264499Y-58728445D01*
G37*
G36*
X136351000Y-58551000D02*
G01*
X133849000Y-58551000D01*
X133849000Y-56449000D01*
X136351000Y-56449000D01*
X136351000Y-58551000D01*
G37*
G36*
X130226000Y-56801000D02*
G01*
X123974000Y-56801000D01*
X123974000Y-55099000D01*
X130226000Y-55099000D01*
X130226000Y-56801000D01*
G37*
G36*
X106401000Y-55901000D02*
G01*
X104599000Y-55901000D01*
X104599000Y-54099000D01*
X106401000Y-54099000D01*
X106401000Y-55901000D01*
G37*
G36*
X137214499Y-54378445D02*
G01*
X137251995Y-54389820D01*
X137286554Y-54408292D01*
X137316847Y-54433153D01*
X137341708Y-54463446D01*
X137360180Y-54498005D01*
X137371555Y-54535501D01*
X137376000Y-54580638D01*
X137376000Y-55219362D01*
X137371555Y-55264499D01*
X137360180Y-55301995D01*
X137341708Y-55336554D01*
X137316847Y-55366847D01*
X137286554Y-55391708D01*
X137251995Y-55410180D01*
X137214499Y-55421555D01*
X137169362Y-55426000D01*
X136430638Y-55426000D01*
X136385501Y-55421555D01*
X136348005Y-55410180D01*
X136313446Y-55391708D01*
X136283153Y-55366847D01*
X136258292Y-55336554D01*
X136239820Y-55301995D01*
X136228445Y-55264499D01*
X136224000Y-55219362D01*
X136224000Y-54580638D01*
X136228445Y-54535501D01*
X136239820Y-54498005D01*
X136258292Y-54463446D01*
X136283153Y-54433153D01*
X136313446Y-54408292D01*
X136348005Y-54389820D01*
X136385501Y-54378445D01*
X136430638Y-54374000D01*
X137169362Y-54374000D01*
X137214499Y-54378445D01*
G37*
G36*
X135464499Y-54378445D02*
G01*
X135501995Y-54389820D01*
X135536554Y-54408292D01*
X135566847Y-54433153D01*
X135591708Y-54463446D01*
X135610180Y-54498005D01*
X135621555Y-54535501D01*
X135626000Y-54580638D01*
X135626000Y-55219362D01*
X135621555Y-55264499D01*
X135610180Y-55301995D01*
X135591708Y-55336554D01*
X135566847Y-55366847D01*
X135536554Y-55391708D01*
X135501995Y-55410180D01*
X135464499Y-55421555D01*
X135419362Y-55426000D01*
X134680638Y-55426000D01*
X134635501Y-55421555D01*
X134598005Y-55410180D01*
X134563446Y-55391708D01*
X134533153Y-55366847D01*
X134508292Y-55336554D01*
X134489820Y-55301995D01*
X134478445Y-55264499D01*
X134474000Y-55219362D01*
X134474000Y-54580638D01*
X134478445Y-54535501D01*
X134489820Y-54498005D01*
X134508292Y-54463446D01*
X134533153Y-54433153D01*
X134563446Y-54408292D01*
X134598005Y-54389820D01*
X134635501Y-54378445D01*
X134680638Y-54374000D01*
X135419362Y-54374000D01*
X135464499Y-54378445D01*
G37*
G36*
X126736918Y-52345699D02*
G01*
X126774414Y-52357074D01*
X126808973Y-52375546D01*
X126844037Y-52404322D01*
X127295678Y-52855963D01*
X127324454Y-52891027D01*
X127342926Y-52925586D01*
X127354301Y-52963082D01*
X127358141Y-53002081D01*
X127354301Y-53041080D01*
X127342926Y-53078576D01*
X127324454Y-53113135D01*
X127295678Y-53148199D01*
X126773327Y-53670550D01*
X126738263Y-53699326D01*
X126703704Y-53717798D01*
X126666208Y-53729173D01*
X126627209Y-53733013D01*
X126588210Y-53729173D01*
X126550714Y-53717798D01*
X126516155Y-53699326D01*
X126481091Y-53670550D01*
X126029450Y-53218909D01*
X126000674Y-53183845D01*
X125982202Y-53149286D01*
X125970827Y-53111790D01*
X125966987Y-53072791D01*
X125970827Y-53033792D01*
X125982202Y-52996296D01*
X126000674Y-52961737D01*
X126029450Y-52926673D01*
X126551801Y-52404322D01*
X126586865Y-52375546D01*
X126621424Y-52357074D01*
X126658920Y-52345699D01*
X126697919Y-52341859D01*
X126736918Y-52345699D01*
G37*
G36*
X123296968Y-51853565D02*
G01*
X123335638Y-51865296D01*
X123371277Y-51884346D01*
X123402517Y-51909983D01*
X123428154Y-51941223D01*
X123447204Y-51976862D01*
X123458935Y-52015532D01*
X123463500Y-52061888D01*
X123463500Y-53138112D01*
X123458935Y-53184468D01*
X123447204Y-53223138D01*
X123428154Y-53258777D01*
X123402517Y-53290017D01*
X123371277Y-53315654D01*
X123335638Y-53334704D01*
X123296968Y-53346435D01*
X123250612Y-53351000D01*
X122599388Y-53351000D01*
X122553032Y-53346435D01*
X122514362Y-53334704D01*
X122478723Y-53315654D01*
X122447483Y-53290017D01*
X122421846Y-53258777D01*
X122402796Y-53223138D01*
X122391065Y-53184468D01*
X122386500Y-53138112D01*
X122386500Y-52061888D01*
X122391065Y-52015532D01*
X122402796Y-51976862D01*
X122421846Y-51941223D01*
X122447483Y-51909983D01*
X122478723Y-51884346D01*
X122514362Y-51865296D01*
X122553032Y-51853565D01*
X122599388Y-51849000D01*
X123250612Y-51849000D01*
X123296968Y-51853565D01*
G37*
G36*
X125171968Y-51853565D02*
G01*
X125210638Y-51865296D01*
X125246277Y-51884346D01*
X125277517Y-51909983D01*
X125303154Y-51941223D01*
X125322204Y-51976862D01*
X125333935Y-52015532D01*
X125338500Y-52061888D01*
X125338500Y-53138112D01*
X125333935Y-53184468D01*
X125322204Y-53223138D01*
X125303154Y-53258777D01*
X125277517Y-53290017D01*
X125246277Y-53315654D01*
X125210638Y-53334704D01*
X125171968Y-53346435D01*
X125125612Y-53351000D01*
X124474388Y-53351000D01*
X124428032Y-53346435D01*
X124389362Y-53334704D01*
X124353723Y-53315654D01*
X124322483Y-53290017D01*
X124296846Y-53258777D01*
X124277796Y-53223138D01*
X124266065Y-53184468D01*
X124261500Y-53138112D01*
X124261500Y-52061888D01*
X124266065Y-52015532D01*
X124277796Y-51976862D01*
X124296846Y-51941223D01*
X124322483Y-51909983D01*
X124353723Y-51884346D01*
X124389362Y-51865296D01*
X124428032Y-51853565D01*
X124474388Y-51849000D01*
X125125612Y-51849000D01*
X125171968Y-51853565D01*
G37*
G36*
X127974354Y-51108263D02*
G01*
X128011850Y-51119638D01*
X128046409Y-51138110D01*
X128081473Y-51166886D01*
X128533114Y-51618527D01*
X128561890Y-51653591D01*
X128580362Y-51688150D01*
X128591737Y-51725646D01*
X128595577Y-51764645D01*
X128591737Y-51803644D01*
X128580362Y-51841140D01*
X128561890Y-51875699D01*
X128533114Y-51910763D01*
X128010763Y-52433114D01*
X127975699Y-52461890D01*
X127941140Y-52480362D01*
X127903644Y-52491737D01*
X127864645Y-52495577D01*
X127825646Y-52491737D01*
X127788150Y-52480362D01*
X127753591Y-52461890D01*
X127718527Y-52433114D01*
X127266886Y-51981473D01*
X127238110Y-51946409D01*
X127219638Y-51911850D01*
X127208263Y-51874354D01*
X127204423Y-51835355D01*
X127208263Y-51796356D01*
X127219638Y-51758860D01*
X127238110Y-51724301D01*
X127266886Y-51689237D01*
X127789237Y-51166886D01*
X127824301Y-51138110D01*
X127858860Y-51119638D01*
X127896356Y-51108263D01*
X127935355Y-51104423D01*
X127974354Y-51108263D01*
G37*
G36*
X106401000Y-52301000D02*
G01*
X104599000Y-52301000D01*
X104599000Y-50499000D01*
X106401000Y-50499000D01*
X106401000Y-52301000D01*
G37*
G36*
X124241000Y-50401000D02*
G01*
X122439000Y-50401000D01*
X122439000Y-48599000D01*
X124241000Y-48599000D01*
X124241000Y-50401000D01*
G37*
G36*
X125993512Y-48603927D02*
G01*
X126142812Y-48633624D01*
X126306784Y-48701544D01*
X126454354Y-48800147D01*
X126579853Y-48925646D01*
X126678456Y-49073216D01*
X126746376Y-49237188D01*
X126781000Y-49411259D01*
X126781000Y-49588741D01*
X126746376Y-49762812D01*
X126678456Y-49926784D01*
X126579853Y-50074354D01*
X126454354Y-50199853D01*
X126306784Y-50298456D01*
X126142812Y-50366376D01*
X125993512Y-50396073D01*
X125968742Y-50401000D01*
X125791258Y-50401000D01*
X125766488Y-50396073D01*
X125617188Y-50366376D01*
X125453216Y-50298456D01*
X125305646Y-50199853D01*
X125180147Y-50074354D01*
X125081544Y-49926784D01*
X125013624Y-49762812D01*
X124979000Y-49588741D01*
X124979000Y-49411259D01*
X125013624Y-49237188D01*
X125081544Y-49073216D01*
X125180147Y-48925646D01*
X125305646Y-48800147D01*
X125453216Y-48701544D01*
X125617188Y-48633624D01*
X125766488Y-48603927D01*
X125791258Y-48599000D01*
X125968742Y-48599000D01*
X125993512Y-48603927D01*
G37*
G36*
X128533512Y-48603927D02*
G01*
X128682812Y-48633624D01*
X128846784Y-48701544D01*
X128994354Y-48800147D01*
X129119853Y-48925646D01*
X129218456Y-49073216D01*
X129286376Y-49237188D01*
X129321000Y-49411259D01*
X129321000Y-49588741D01*
X129286376Y-49762812D01*
X129218456Y-49926784D01*
X129119853Y-50074354D01*
X128994354Y-50199853D01*
X128846784Y-50298456D01*
X128682812Y-50366376D01*
X128533512Y-50396073D01*
X128508742Y-50401000D01*
X128331258Y-50401000D01*
X128306488Y-50396073D01*
X128157188Y-50366376D01*
X127993216Y-50298456D01*
X127845646Y-50199853D01*
X127720147Y-50074354D01*
X127621544Y-49926784D01*
X127553624Y-49762812D01*
X127519000Y-49588741D01*
X127519000Y-49411259D01*
X127553624Y-49237188D01*
X127621544Y-49073216D01*
X127720147Y-48925646D01*
X127845646Y-48800147D01*
X127993216Y-48701544D01*
X128157188Y-48633624D01*
X128306488Y-48603927D01*
X128331258Y-48599000D01*
X128508742Y-48599000D01*
X128533512Y-48603927D01*
G37*
G36*
X133613512Y-48603927D02*
G01*
X133762812Y-48633624D01*
X133926784Y-48701544D01*
X134074354Y-48800147D01*
X134199853Y-48925646D01*
X134298456Y-49073216D01*
X134366376Y-49237188D01*
X134401000Y-49411259D01*
X134401000Y-49588741D01*
X134366376Y-49762812D01*
X134298456Y-49926784D01*
X134199853Y-50074354D01*
X134074354Y-50199853D01*
X133926784Y-50298456D01*
X133762812Y-50366376D01*
X133613512Y-50396073D01*
X133588742Y-50401000D01*
X133411258Y-50401000D01*
X133386488Y-50396073D01*
X133237188Y-50366376D01*
X133073216Y-50298456D01*
X132925646Y-50199853D01*
X132800147Y-50074354D01*
X132701544Y-49926784D01*
X132633624Y-49762812D01*
X132599000Y-49588741D01*
X132599000Y-49411259D01*
X132633624Y-49237188D01*
X132701544Y-49073216D01*
X132800147Y-48925646D01*
X132925646Y-48800147D01*
X133073216Y-48701544D01*
X133237188Y-48633624D01*
X133386488Y-48603927D01*
X133411258Y-48599000D01*
X133588742Y-48599000D01*
X133613512Y-48603927D01*
G37*
G36*
X131073512Y-48603927D02*
G01*
X131222812Y-48633624D01*
X131386784Y-48701544D01*
X131534354Y-48800147D01*
X131659853Y-48925646D01*
X131758456Y-49073216D01*
X131826376Y-49237188D01*
X131861000Y-49411259D01*
X131861000Y-49588741D01*
X131826376Y-49762812D01*
X131758456Y-49926784D01*
X131659853Y-50074354D01*
X131534354Y-50199853D01*
X131386784Y-50298456D01*
X131222812Y-50366376D01*
X131073512Y-50396073D01*
X131048742Y-50401000D01*
X130871258Y-50401000D01*
X130846488Y-50396073D01*
X130697188Y-50366376D01*
X130533216Y-50298456D01*
X130385646Y-50199853D01*
X130260147Y-50074354D01*
X130161544Y-49926784D01*
X130093624Y-49762812D01*
X130059000Y-49588741D01*
X130059000Y-49411259D01*
X130093624Y-49237188D01*
X130161544Y-49073216D01*
X130260147Y-48925646D01*
X130385646Y-48800147D01*
X130533216Y-48701544D01*
X130697188Y-48633624D01*
X130846488Y-48603927D01*
X130871258Y-48599000D01*
X131048742Y-48599000D01*
X131073512Y-48603927D01*
G37*
G36*
X105613512Y-47963927D02*
G01*
X105762812Y-47993624D01*
X105926784Y-48061544D01*
X106074354Y-48160147D01*
X106199853Y-48285646D01*
X106298456Y-48433216D01*
X106366376Y-48597188D01*
X106401000Y-48771259D01*
X106401000Y-48948741D01*
X106366376Y-49122812D01*
X106298456Y-49286784D01*
X106199853Y-49434354D01*
X106074354Y-49559853D01*
X105926784Y-49658456D01*
X105762812Y-49726376D01*
X105613512Y-49756073D01*
X105588742Y-49761000D01*
X105411258Y-49761000D01*
X105386488Y-49756073D01*
X105237188Y-49726376D01*
X105073216Y-49658456D01*
X104925646Y-49559853D01*
X104800147Y-49434354D01*
X104701544Y-49286784D01*
X104633624Y-49122812D01*
X104599000Y-48948741D01*
X104599000Y-48771259D01*
X104633624Y-48597188D01*
X104701544Y-48433216D01*
X104800147Y-48285646D01*
X104925646Y-48160147D01*
X105073216Y-48061544D01*
X105237188Y-47993624D01*
X105386488Y-47963927D01*
X105411258Y-47959000D01*
X105588742Y-47959000D01*
X105613512Y-47963927D01*
G37*
M02*
